<?xml version="1.0" encoding="utf-8"?>
<!-- Generator: Adobe Illustrator 19.0.0, SVG Export Plug-In . SVG Version: 6.00 Build 0)  -->
<svg version="1.1" id="b" xmlns="http://www.w3.org/2000/svg" xmlns:xlink="http://www.w3.org/1999/xlink" x="0px" y="0px"
	 viewBox="0 0 100 100" enable-background="new 0 0 100 100" xml:space="preserve">

	<path id="XMLID_9_" fill="#FFFFFF" d="M50.7,39.3c-0.3,0.3-0.5,0.6-0.6,0.9c-0.1,0.4-0.2,0.7-0.2,1.1c0,0.3,0.1,0.7,0.2,1
		c0.1,0.3,0.3,0.7,0.6,1c0.3,0.3,0.6,0.5,1,0.6c0.4,0.1,0.7,0.2,1,0.2c0.3,0,0.7-0.1,1.1-0.3c0.4-0.2,0.8-0.4,1.1-0.8l9.6-10.7
		c0.3,0.3,0.6,0.5,0.8,0.8c0.2,0.3,0.4,0.5,0.5,0.8c0.2,0.3,0.3,0.6,0.5,0.9c0.2,0.3,0.4,0.7,0.7,1.1c0.5,0.8,0.9,1.6,1.3,2.4
		c0.4,0.8,0.8,1.6,1.2,2.5c0.4,0.8,0.8,1.6,1.2,2.5c0.4,0.9,0.7,1.8,0.9,2.6c-0.1,1.7-0.5,3.5-1,5.2c-0.6,1.7-1.3,3.4-2.2,4.9
		c-0.9,1.6-2,3-3.2,4.4c-1.2,1.4-2.6,2.6-4.1,3.7l8.8,0.1c0.9,0,1.8,0.2,2.6,0.5c0.8,0.4,1.5,0.8,2.2,1.4c0.6,0.6,1.1,1.3,1.5,2.1
		c0.4,0.8,0.5,1.7,0.5,2.7c0,0.7-0.1,1.3-0.3,1.8c-0.2,0.5-0.4,1-0.6,1.5h2.5c1.2,0,2.3,0.2,3.3,0.6c1,0.4,1.9,1,2.7,1.8
		c0.8,0.8,1.4,1.7,1.8,2.7c0.4,1,0.7,2.1,0.7,3.3c0,1.1-0.2,2.1-0.7,3.1c-0.4,1-1,1.9-1.8,2.7c-0.8,0.8-1.7,1.4-2.7,1.8
		c-1,0.4-2.1,0.7-3.3,0.7H21.5c-1.2,0-2.3-0.2-3.3-0.7c-1-0.4-1.9-1-2.6-1.8c-0.7-0.8-1.3-1.7-1.8-2.7c-0.5-1-0.7-2-0.7-3.1
		c0-1.2,0.2-2.3,0.7-3.3c0.5-1,1.1-1.9,1.8-2.7c0.7-0.8,1.6-1.4,2.6-1.8c1-0.4,2.1-0.6,3.3-0.6h2.7c-0.3-0.4-0.6-0.9-0.8-1.5
		c-0.2-0.6-0.3-1.2-0.3-1.8c0-0.9,0.2-1.8,0.5-2.7c0.3-0.8,0.8-1.5,1.4-2.1c0.6-0.6,1.4-1,2.1-1.4c0.8-0.4,1.7-0.5,2.6-0.5h8.6
		c-1.6-0.9-3-2-4.3-3.3c-1.2-1.3-2.3-2.7-3.2-4.3c-0.9-1.6-1.5-3.2-2-5c-0.5-1.8-0.8-3.6-0.8-5.6c0.5-1.5,1-3,1.6-4.4
		c0.6-1.4,1.2-2.8,1.8-4.2c0.6-1.3,1.3-2.6,2-3.8c0.7-1.2,1.3-2.3,2-3.4c0.6-1.1,1.3-2.1,1.9-3.1c0.6-1,1.2-1.8,1.8-2.5
		c0.5-0.7,1-1.4,1.4-2c0.4-0.6,0.7-1,1-1.4c0.3-0.6,0.6-1.2,1-1.7c0.4-0.5,0.9-0.9,1.3-1.2c-0.8-0.7-1.4-1.6-1.9-2.6
		c-0.5-1-0.7-2.1-0.7-3.2c0-1.1,0.2-2.2,0.7-3.2c0.5-1,1.1-1.9,1.8-2.7c0.7-0.8,1.6-1.4,2.7-1.8c1-0.5,2.1-0.7,3.3-0.7
		c1.2,0,2.3,0.2,3.3,0.7c1,0.5,1.9,1.1,2.6,1.8c0.7,0.8,1.3,1.7,1.8,2.7c0.5,1,0.7,2.1,0.7,3.2c0,1.1-0.2,2.2-0.7,3.3
		c-0.5,1-1,2.1-1.7,3.1c0.3,0.5,0.5,0.9,0.7,1.2c0.2,0.3,0.3,0.7,0.4,1c0.3,0.5,0.7,1.1,1,1.6c0.3,0.5,0.7,1,1,1.5
		c0.3,0.5,0.6,1.1,1,1.8c0.4,0.6,0.7,1.3,1,2L50.7,39.3z"/>

	<path id="XMLID_4_" d="M50.7,39.3c-0.3,0.3-0.5,0.6-0.6,0.9c-0.1,0.4-0.2,0.7-0.2,1.1c0,0.3,0.1,0.7,0.2,1c0.1,0.3,0.3,0.7,0.6,1
		c0.3,0.3,0.6,0.5,1,0.6c0.4,0.1,0.7,0.2,1,0.2c0.3,0,0.7-0.1,1.1-0.3c0.4-0.2,0.8-0.4,1.1-0.8l9.6-10.7c0.3,0.3,0.6,0.5,0.8,0.8
		c0.2,0.3,0.4,0.5,0.5,0.8c0.2,0.3,0.3,0.6,0.5,0.9c0.2,0.3,0.4,0.7,0.7,1.1c0.5,0.8,0.9,1.6,1.3,2.4c0.4,0.8,0.8,1.6,1.2,2.5
		c0.4,0.8,0.8,1.6,1.2,2.5c0.4,0.9,0.7,1.8,0.9,2.6c-0.1,1.7-0.5,3.5-1,5.2c-0.6,1.7-1.3,3.4-2.2,4.9c-0.9,1.6-2,3-3.2,4.4
		c-1.2,1.4-2.6,2.6-4.1,3.7l8.8,0.1c0.9,0,1.8,0.2,2.6,0.5c0.8,0.4,1.5,0.8,2.2,1.4c0.6,0.6,1.1,1.3,1.5,2.1
		c0.4,0.8,0.5,1.7,0.5,2.7c0,0.7-0.1,1.3-0.3,1.8c-0.2,0.5-0.4,1-0.6,1.5h2.5c1.2,0,2.3,0.2,3.3,0.6c1,0.4,1.9,1,2.7,1.8
		c0.8,0.8,1.4,1.7,1.8,2.7c0.4,1,0.7,2.1,0.7,3.3c0,1.1-0.2,2.1-0.7,3.1c-0.4,1-1,1.9-1.8,2.7c-0.8,0.8-1.7,1.4-2.7,1.8
		c-1,0.4-2.1,0.7-3.3,0.7H21.5c-1.2,0-2.3-0.2-3.3-0.7c-1-0.4-1.9-1-2.6-1.8c-0.7-0.8-1.3-1.7-1.8-2.7c-0.5-1-0.7-2-0.7-3.1
		c0-1.2,0.2-2.3,0.7-3.3c0.5-1,1.1-1.9,1.8-2.7c0.7-0.8,1.6-1.4,2.6-1.8c1-0.4,2.1-0.6,3.3-0.6h2.7c-0.3-0.4-0.6-0.9-0.8-1.5
		c-0.2-0.6-0.3-1.2-0.3-1.8c0-0.9,0.2-1.8,0.5-2.7c0.3-0.8,0.8-1.5,1.4-2.1c0.6-0.6,1.4-1,2.1-1.4c0.8-0.4,1.7-0.5,2.6-0.5h8.6
		c-1.6-0.9-3-2-4.3-3.3c-1.2-1.3-2.3-2.7-3.2-4.3c-0.9-1.6-1.5-3.2-2-5c-0.5-1.8-0.8-3.6-0.8-5.6c0.5-1.5,1-3,1.6-4.4
		c0.6-1.4,1.2-2.8,1.8-4.2c0.6-1.3,1.3-2.6,2-3.8c0.7-1.2,1.3-2.3,2-3.4c0.6-1.1,1.3-2.1,1.9-3.1c0.6-1,1.2-1.8,1.8-2.5
		c0.5-0.7,1-1.4,1.4-2c0.4-0.6,0.7-1,1-1.4c0.3-0.6,0.6-1.2,1-1.7c0.4-0.5,0.9-0.9,1.3-1.2c-0.8-0.7-1.4-1.6-1.9-2.6
		c-0.5-1-0.7-2.1-0.7-3.2c0-1.1,0.2-2.2,0.7-3.2c0.5-1,1.1-1.9,1.8-2.7c0.7-0.8,1.6-1.4,2.7-1.8c1-0.5,2.1-0.7,3.3-0.7
		c1.2,0,2.3,0.2,3.3,0.7c1,0.5,1.9,1.1,2.6,1.8c0.7,0.8,1.3,1.7,1.8,2.7c0.5,1,0.7,2.1,0.7,3.2c0,1.1-0.2,2.2-0.7,3.3
		c-0.5,1-1,2.1-1.7,3.1c0.3,0.5,0.5,0.9,0.7,1.2c0.2,0.3,0.3,0.7,0.4,1c0.3,0.5,0.7,1.1,1,1.6c0.3,0.5,0.7,1,1,1.5
		c0.3,0.5,0.6,1.1,1,1.8c0.4,0.6,0.7,1.3,1,2L50.7,39.3z M28.3,73.6c-0.4,0-0.8,0.2-1.1,0.5c-0.3,0.4-0.5,0.8-0.5,1.3
		c0,0.5,0.2,1,0.5,1.3c0.3,0.4,0.7,0.6,1.1,0.6h43.2c0.5,0,0.9-0.2,1.2-0.6c0.3-0.4,0.5-0.8,0.5-1.3c0-0.5-0.2-0.9-0.5-1.3
		c-0.3-0.4-0.7-0.5-1.2-0.5H28.3z M41.5,62.5c-0.5,0-0.8,0.2-1.2,0.5c-0.3,0.3-0.4,0.8-0.4,1.3c0,0.5,0.1,1,0.4,1.3
		c0.3,0.4,0.7,0.5,1.2,0.5h16.8c0.5,0,0.9-0.2,1.2-0.5c0.3-0.4,0.5-0.8,0.5-1.3c0-0.5-0.2-1-0.5-1.3c-0.3-0.3-0.7-0.5-1.2-0.5H41.5z
		 M54.4,21.6l-1.7-3.4c-0.3,0.3-0.8,0.6-1.3,0.7c-0.5,0.1-1,0.2-1.5,0.2c-0.5,0-0.9,0-1.3-0.1c-0.4-0.1-0.8-0.3-1.3-0.5l-2.2,3.2
		c0.7,0.4,1.5,0.7,2.3,1c0.8,0.3,1.6,0.4,2.5,0.4c0.9,0,1.7-0.1,2.4-0.4C53,22.4,53.7,22,54.4,21.6z"/>

</svg>
