<?xml version="1.0" encoding="utf-8"?>
<!-- Generator: Adobe Illustrator 19.0.0, SVG Export Plug-In . SVG Version: 6.00 Build 0)  -->
<svg version="1.1" id="n" xmlns="http://www.w3.org/2000/svg" xmlns:xlink="http://www.w3.org/1999/xlink" x="0px" y="0px"
	 viewBox="0 0 100 100" enable-background="new 0 0 100 100" xml:space="preserve">

	<path id="XMLID_11_" fill="#FFFFFF" d="M70.4,64.4c0.7,0.1,1.5,0.4,2.2,0.8c0.7,0.4,1.4,0.8,2,1.4c0.6,0.6,1.1,1.2,1.5,2
		c0.4,0.8,0.6,1.6,0.6,2.4c0,0.6-0.1,1.2-0.3,1.7c-0.2,0.5-0.4,1-0.5,1.5h2.2c1.2,0,2.3,0.2,3.3,0.7c1,0.4,1.9,1,2.6,1.8
		c0.8,0.8,1.4,1.7,1.8,2.7s0.7,2.1,0.7,3.3c0,1.1-0.2,2.2-0.7,3.2s-1,1.9-1.8,2.6c-0.8,0.8-1.6,1.4-2.6,1.9c-1,0.5-2.1,0.7-3.3,0.7
		H21.7c-1.2,0-2.3-0.2-3.3-0.7c-1-0.5-1.9-1.1-2.6-1.9c-0.8-0.8-1.4-1.6-1.8-2.6c-0.4-1-0.7-2.1-0.7-3.2c0-1.2,0.2-2.3,0.7-3.3
		c0.4-1,1-1.9,1.8-2.7c0.8-0.8,1.6-1.4,2.6-1.8c1-0.4,2.1-0.7,3.3-0.7h2.2c-0.2-0.5-0.4-1-0.5-1.5c-0.1-0.5-0.2-1.1-0.2-1.7
		c0-0.9,0.2-1.7,0.5-2.5c0.3-0.8,0.8-1.5,1.4-2.1c0.6-0.6,1.4-1.1,2.2-1.5c0.8-0.4,1.8-0.6,2.8-0.7c-0.1-1.5-0.1-3.1-0.2-4.6
		c-0.1-1.5-0.1-3,0-4.5c0.1-1.5,0.2-3,0.4-4.4c0.2-1.5,0.6-2.9,1.1-4.3c0.9-2,1.9-3.7,2.8-5.1c1-1.4,2-2.6,3-3.5
		c1-1,2.1-1.8,3.3-2.4c1.1-0.6,2.4-1.2,3.7-1.7c-0.5,0-1,0-1.4,0c-0.4,0-0.8,0-1,0c-0.3,0-0.5,0-0.8,0s-0.4,0-0.5-0.1
		c-0.1,0-0.3-0.1-0.5-0.1c-0.2-0.1-0.3-0.1-0.5-0.3s-0.4-0.2-0.7-0.4c-0.3-0.1-0.6-0.3-1.1-0.6c-0.7-0.2-1.3-0.4-1.8-0.5
		c-0.4-0.1-0.9-0.2-1.3-0.1c-0.4,0-1,0.1-1.6,0.3c-0.6,0.1-1.5,0.4-2.5,0.8c-1.3,0.1-2.3,0.3-3.2,0.4C26.4,33,25.7,33,25,32.8
		c-0.6-0.2-1.1-0.5-1.3-1.1c-0.3-0.6-0.4-1.4-0.5-2.5c-0.2-0.3-0.5-0.7-0.8-1c-0.3-0.4-0.6-0.7-0.9-1.1c-0.3-0.4-0.6-0.8-0.8-1.1
		c-0.2-0.4-0.4-0.8-0.6-1.2c-0.2-0.4-0.3-0.8-0.4-1.3c-0.1-0.5-0.1-0.9,0-1.4c0.1-0.5,0.2-0.9,0.5-1.4c0.3-0.5,0.6-1,1.1-1.6
		c1.3-0.4,2.6-0.8,3.6-1c1.1-0.3,2.1-0.6,3-0.8c0.9-0.2,1.8-0.4,2.5-0.5c0.8-0.1,1.5-0.3,2.2-0.4c0.7-0.1,1.3-0.3,1.9-0.5
		c0.6-0.2,1.2-0.5,1.8-0.8c0.6-0.3,1.1-0.7,1.8-1.1c0.6-0.4,1.2-1,1.9-1.6c1.5-0.3,2.9-0.6,4-1c1.1-0.4,2.1-0.9,2.8-1.6
		c0.7-0.6,1.2-1.4,1.5-2.3c0.3-0.9,0.5-2.1,0.5-3.5c0.9,0.1,1.8,0.4,2.6,0.8c0.8,0.4,1.5,0.9,2.1,1.5c0.6,0.6,1.1,1.3,1.5,2
		c0.4,0.8,0.5,1.6,0.5,2.6c0.9,0.2,1.8,0.4,2.5,0.7c0.7,0.3,1.3,0.5,2,0.8c0.6,0.2,1.1,0.5,1.5,0.8c0.4,0.3,0.9,0.6,1.3,0.9
		c0.4,0.3,0.8,0.6,1.2,1c0.3,0.3,0.7,0.7,1,1c0.3,0.3,0.7,0.7,1.1,1c0.4,0.4,0.8,0.8,1.3,1.2c1.1,1.5,2,2.8,2.5,4.1
		c0.5,1.3,0.8,2.5,1,3.6c0.2,1.1,0.2,2.3,0,3.4c-0.1,1.1-0.3,2.2-0.4,3.4c-0.5,1.1-1.1,2.1-1.6,3c-0.5,0.9-1,1.9-1.5,3
		c-0.5,1.1-0.9,2.2-1.3,3.3c-0.4,1.1-0.7,2.4-1,3.9c0,1.5,0.1,2.8,0.3,4.1c0.2,1.3,0.5,2.5,1,3.6c0.4,1.1,1,2.2,1.5,3.3
		c0.6,1,1.2,2,1.9,2.9L70.4,64.4z"/>

	<path id="XMLID_4_" d="M70.4,64.4c0.7,0.1,1.5,0.4,2.2,0.8c0.7,0.4,1.4,0.8,2,1.4c0.6,0.6,1.1,1.2,1.5,2c0.4,0.8,0.6,1.6,0.6,2.4
		c0,0.6-0.1,1.2-0.3,1.7c-0.2,0.5-0.4,1-0.5,1.5h2.2c1.2,0,2.3,0.2,3.3,0.7c1,0.4,1.9,1,2.6,1.8c0.8,0.8,1.4,1.7,1.8,2.7
		s0.7,2.1,0.7,3.3c0,1.1-0.2,2.2-0.7,3.2s-1,1.9-1.8,2.6c-0.8,0.8-1.6,1.4-2.6,1.9c-1,0.5-2.1,0.7-3.3,0.7H21.7
		c-1.2,0-2.3-0.2-3.3-0.7c-1-0.5-1.9-1.1-2.6-1.9c-0.8-0.8-1.4-1.6-1.8-2.6c-0.4-1-0.7-2.1-0.7-3.2c0-1.2,0.2-2.3,0.7-3.3
		c0.4-1,1-1.9,1.8-2.7c0.8-0.8,1.6-1.4,2.6-1.8c1-0.4,2.1-0.7,3.3-0.7h2.2c-0.2-0.5-0.4-1-0.5-1.5c-0.1-0.5-0.2-1.1-0.2-1.7
		c0-0.9,0.2-1.7,0.5-2.5c0.3-0.8,0.8-1.5,1.4-2.1c0.6-0.6,1.4-1.1,2.2-1.5c0.8-0.4,1.8-0.6,2.8-0.7c-0.1-1.5-0.1-3.1-0.2-4.6
		c-0.1-1.5-0.1-3,0-4.5c0.1-1.5,0.2-3,0.4-4.4c0.2-1.5,0.6-2.9,1.1-4.3c0.9-2,1.9-3.7,2.8-5.1c1-1.4,2-2.6,3-3.5
		c1-1,2.1-1.8,3.3-2.4c1.1-0.6,2.4-1.2,3.7-1.7c-0.5,0-1,0-1.4,0c-0.4,0-0.8,0-1,0c-0.3,0-0.5,0-0.8,0s-0.4,0-0.5-0.1
		c-0.1,0-0.3-0.1-0.5-0.1c-0.2-0.1-0.3-0.1-0.5-0.3s-0.4-0.2-0.7-0.4c-0.3-0.1-0.6-0.3-1.1-0.6c-0.7-0.2-1.3-0.4-1.8-0.5
		c-0.4-0.1-0.9-0.2-1.3-0.1c-0.4,0-1,0.1-1.6,0.3c-0.6,0.1-1.5,0.4-2.5,0.8c-1.3,0.1-2.3,0.3-3.2,0.4C26.4,33,25.7,33,25,32.8
		c-0.6-0.2-1.1-0.5-1.3-1.1c-0.3-0.6-0.4-1.4-0.5-2.5c-0.2-0.3-0.5-0.7-0.8-1c-0.3-0.4-0.6-0.7-0.9-1.1c-0.3-0.4-0.6-0.8-0.8-1.1
		c-0.2-0.4-0.4-0.8-0.6-1.2c-0.2-0.4-0.3-0.8-0.4-1.3c-0.1-0.5-0.1-0.9,0-1.4c0.1-0.5,0.2-0.9,0.5-1.4c0.3-0.5,0.6-1,1.1-1.6
		c1.3-0.4,2.6-0.8,3.6-1c1.1-0.3,2.1-0.6,3-0.8c0.9-0.2,1.8-0.4,2.5-0.5c0.8-0.1,1.5-0.3,2.2-0.4c0.7-0.1,1.3-0.3,1.9-0.5
		c0.6-0.2,1.2-0.5,1.8-0.8c0.6-0.3,1.1-0.7,1.8-1.1c0.6-0.4,1.2-1,1.9-1.6c1.5-0.3,2.9-0.6,4-1c1.1-0.4,2.1-0.9,2.8-1.6
		c0.7-0.6,1.2-1.4,1.5-2.3c0.3-0.9,0.5-2.1,0.5-3.5c0.9,0.1,1.8,0.4,2.6,0.8c0.8,0.4,1.5,0.9,2.1,1.5c0.6,0.6,1.1,1.3,1.5,2
		c0.4,0.8,0.5,1.6,0.5,2.6c0.9,0.2,1.8,0.4,2.5,0.7c0.7,0.3,1.3,0.5,2,0.8c0.6,0.2,1.1,0.5,1.5,0.8c0.4,0.3,0.9,0.6,1.3,0.9
		c0.4,0.3,0.8,0.6,1.2,1c0.3,0.3,0.7,0.7,1,1c0.3,0.3,0.7,0.7,1.1,1c0.4,0.4,0.8,0.8,1.3,1.2c1.1,1.5,2,2.8,2.5,4.1
		c0.5,1.3,0.8,2.5,1,3.6c0.2,1.1,0.2,2.3,0,3.4c-0.1,1.1-0.3,2.2-0.4,3.4c-0.5,1.1-1.1,2.1-1.6,3c-0.5,0.9-1,1.9-1.5,3
		c-0.5,1.1-0.9,2.2-1.3,3.3c-0.4,1.1-0.7,2.4-1,3.9c0,1.5,0.1,2.8,0.3,4.1c0.2,1.3,0.5,2.5,1,3.6c0.4,1.1,1,2.2,1.5,3.3
		c0.6,1,1.2,2,1.9,2.9L70.4,64.4z M26.7,73.5c-0.5,0-1,0.2-1.3,0.6c-0.3,0.4-0.5,0.8-0.5,1.3c0,0.5,0.2,1,0.5,1.4
		c0.3,0.4,0.8,0.6,1.3,0.6h46.5c0.4,0,0.8-0.2,1.1-0.6c0.4-0.4,0.6-0.9,0.6-1.4c0-0.5-0.2-0.9-0.6-1.3c-0.4-0.4-0.8-0.6-1.1-0.6
		H26.7z M33.1,61.6c-0.4,0-0.8,0.1-1,0.5c-0.3,0.3-0.5,0.7-0.5,1.3c0,0.5,0.2,1,0.5,1.3c0.3,0.4,0.7,0.5,1,0.5h33.5
		c0.5,0,0.9-0.2,1.2-0.5c0.3-0.4,0.5-0.8,0.5-1.3c0-0.5-0.2-1-0.5-1.3c-0.3-0.3-0.7-0.5-1.2-0.5H33.1z M40.4,16.6
		c-0.5,0.3-1,0.7-1.4,1c-0.4,0.3-0.7,0.7-1,1.1c-0.2,0.4-0.4,0.7-0.5,1c-0.1,0.3,0,0.6,0.1,0.8c0.2,0.2,0.5,0.4,0.8,0.5
		s0.7,0.1,1.1,0.1c0.4,0,0.9-0.1,1.4-0.3c0.5-0.1,1-0.3,1.5-0.6c0.5-0.3,0.9-0.7,1.3-1c0.4-0.3,0.7-0.7,0.9-1
		c0.2-0.4,0.4-0.7,0.5-1.1c0.1-0.3,0-0.6-0.1-0.8c-0.1-0.2-0.3-0.4-0.6-0.5c-0.3-0.1-0.6-0.1-1-0.1c-0.4,0-0.9,0.1-1.4,0.3
		C41.3,16.3,40.9,16.4,40.4,16.6z M40.5,57.8c0.5,0.1,1,0.3,1.5,0.3s1,0.2,1.5,0.2s1-0.1,1.4-0.2c0.4-0.1,0.8-0.4,1.1-0.9
		c-0.4-0.8-0.7-1.7-1-2.7c-0.2-1-0.3-2-0.3-3.1c0-1.1,0.2-2.2,0.6-3.4c0.4-1.2,0.9-2.3,1.7-3.4c0.1-0.3,0.3-0.7,0.6-1.1
		c0.3-0.4,0.5-0.8,0.8-1.3c0.3-0.4,0.5-0.8,0.8-1.2c0.3-0.4,0.5-0.6,0.7-0.8c0-0.4,0-0.7-0.1-1c-0.1-0.3-0.2-0.5-0.4-0.6
		c-0.2-0.1-0.3-0.2-0.5-0.3c-0.2-0.1-0.3-0.1-0.5,0c-0.2,0-0.3,0.1-0.5,0.1c-0.2,0-0.3,0-0.3,0c-0.1,0-0.1,0-0.1,0
		c0,0,0.1-0.1,0.3-0.1c-0.5,0.4-0.9,0.8-1.3,1.1c-0.4,0.4-0.8,0.8-1.1,1.2c-0.3,0.4-0.7,0.9-1,1.4c-0.3,0.5-0.7,1-1,1.5
		c-1,1.5-1.8,2.9-2.4,4.2c-0.6,1.3-1,2.6-1.3,3.7c-0.3,1.1-0.3,2.2-0.2,3.3C39.5,55.8,39.9,56.8,40.5,57.8z M46.8,34.6
		c0.2,0,0.4,0,0.5,0c0.2,0,0.4,0,0.6,0.1c0.2,0,0.4,0,0.6,0s0.5,0,0.9-0.1c1.2-0.2,2.3-0.5,3.3-1s1.8-1.1,2.5-1.8
		c0.7-0.7,1.2-1.3,1.5-2c0.3-0.7,0.3-1.2,0.2-1.7c0-0.1-0.1-0.3-0.2-0.5c-0.1-0.2-0.3-0.5-0.5-0.6c-0.2-0.2-0.5-0.4-0.8-0.5
		c-0.3-0.1-0.7-0.2-1.2-0.3c-0.1,0.7-0.2,1.4-0.5,2c-0.3,0.6-0.6,1.1-1,1.6c-0.4,0.5-1,0.9-1.7,1.3c-0.7,0.4-1.5,0.6-2.4,0.9
		c-0.2,0-0.4,0-0.6,0c-0.2,0-0.4,0.1-0.6,0.1c-0.2,0-0.4,0.1-0.6,0.1c-0.2,0.1-0.5,0.2-0.8,0.3c-0.8,0.5-1.1,0.9-1,1.2
		C45.2,34.1,45.8,34.4,46.8,34.6z"/>

</svg>
