<?xml version="1.0" encoding="utf-8"?>
<!-- Generator: Adobe Illustrator 19.0.0, SVG Export Plug-In . SVG Version: 6.00 Build 0)  -->
<svg version="1.1" id="R" xmlns="http://www.w3.org/2000/svg" xmlns:xlink="http://www.w3.org/1999/xlink" x="0px" y="0px"
	 viewBox="0 0 100 100" enable-background="new 0 0 100 100" xml:space="preserve">

	<path id="XMLID_22_" fill="#FFFFFF" d="M74.1,72.6l4.2,1.6c1.2,0,2.3,0.2,3.3,0.7c1,0.4,1.9,1,2.7,1.8c0.8,0.8,1.4,1.7,1.8,2.7
		c0.4,1,0.7,2.1,0.7,3.3c0,1.1-0.2,2.2-0.7,3.2c-0.4,1-1,1.9-1.8,2.6c-0.8,0.8-1.7,1.4-2.7,1.9c-1,0.5-2.1,0.7-3.3,0.7H21.5
		c-1.2,0-2.3-0.2-3.3-0.7c-1-0.5-1.9-1.1-2.6-1.9c-0.7-0.8-1.3-1.6-1.8-2.6c-0.5-1-0.7-2.1-0.7-3.2c0-1.2,0.2-2.3,0.7-3.3
		c0.5-1,1.1-1.9,1.8-2.7c0.7-0.8,1.6-1.4,2.6-1.8c1-0.4,2.1-0.7,3.3-0.7l4.4-1.6c0.7-3.8,1.3-7.5,1.7-11c0.4-3.5,0.8-7,1.1-10.3
		c0.3-3.4,0.5-6.8,0.7-10.1c0.2-3.3,0.4-6.7,0.7-10.2v-6.6h-6.8v-20h13.3v9.8h6.8V4.4h13.2v9.8h6.8V4.4h13.4v20h-6.9
		c0,1.1,0,2.1,0,3.3c0,1.1,0,2.2,0,3.3c0.1,3.7,0.3,7.2,0.5,10.6c0.2,3.4,0.5,6.7,0.8,10c0.3,3.3,0.7,6.7,1.2,10.1
		C72.8,65.2,73.4,68.8,74.1,72.6z"/>

	<path id="XMLID_4_" d="M74.1,72.6l4.2,1.6c1.2,0,2.3,0.2,3.3,0.7c1,0.4,1.9,1,2.7,1.8c0.8,0.8,1.4,1.7,1.8,2.7
		c0.4,1,0.7,2.1,0.7,3.3c0,1.1-0.2,2.2-0.7,3.2c-0.4,1-1,1.9-1.8,2.6c-0.8,0.8-1.7,1.4-2.7,1.9c-1,0.5-2.1,0.7-3.3,0.7H21.5
		c-1.2,0-2.3-0.2-3.3-0.7c-1-0.5-1.9-1.1-2.6-1.9c-0.7-0.8-1.3-1.6-1.8-2.6c-0.5-1-0.7-2.1-0.7-3.2c0-1.2,0.2-2.3,0.7-3.3
		c0.5-1,1.1-1.9,1.8-2.7c0.7-0.8,1.6-1.4,2.6-1.8c1-0.4,2.1-0.7,3.3-0.7l4.4-1.6c0.7-3.8,1.3-7.5,1.7-11c0.4-3.5,0.8-7,1.1-10.3
		c0.3-3.4,0.5-6.8,0.7-10.1c0.2-3.3,0.4-6.7,0.7-10.2v-6.6h-6.8v-20h13.3v9.8h6.8V4.4h13.2v9.8h6.8V4.4h13.4v20h-6.9
		c0,1.1,0,2.1,0,3.3c0,1.1,0,2.2,0,3.3c0.1,3.7,0.3,7.2,0.5,10.6c0.2,3.4,0.5,6.7,0.8,10c0.3,3.3,0.7,6.7,1.2,10.1
		C72.8,65.2,73.4,68.8,74.1,72.6z M21.6,77.7c-0.7,0-1.3,0.1-1.9,0.4c-0.6,0.3-1.1,0.6-1.6,1c-0.5,0.4-0.8,1-1.1,1.6
		c-0.3,0.6-0.4,1.3-0.4,2.1c0,0.7,0.1,1.3,0.4,1.9c0.3,0.6,0.6,1.1,1.1,1.6c0.5,0.5,1,0.8,1.6,1.1c0.6,0.3,1.2,0.4,1.9,0.4h56.5
		c0.7,0,1.4-0.1,2.1-0.4c0.6-0.3,1.2-0.6,1.6-1.1c0.4-0.5,0.8-1,1-1.6c0.3-0.6,0.4-1.2,0.4-1.9c0-0.7-0.1-1.4-0.4-2.1
		c-0.3-0.6-0.6-1.2-1-1.6c-0.4-0.4-1-0.8-1.6-1c-0.6-0.3-1.3-0.4-2.1-0.4H21.6z M33.2,29.4h33.3v-8.2h6.7V7.6h-6.7v10.1H53.2V7.6
		h-6.6v10.1H33.2V7.6h-6.5v13.6h6.5V29.4z M30,74.2h11.6v-7.5l-11,0.1L30,74.2z M30.9,63H35v-7.4h-3.4L30.9,63z M31.8,51.9h9.8v-7.6
		h-9.3L31.8,51.9z M32.7,40.6H35v-7.5h-1.8L32.7,40.6z M38.3,33.1v7.5h9.9v-7.5H38.3z M38.3,55.6V63h9.9v-7.4H38.3z M44.8,44.3v7.6
		H55v-7.6H44.8z M44.8,66.7v7.5H55v-7.5H44.8z M51.7,33.1v7.5h9.8v-7.5H51.7z M51.7,55.6V63h9.8v-7.4H51.7z M68.2,51.9l-0.7-7.6
		h-9.3v7.6H68.2z M69.8,74.2l-0.5-7.5H58.2v7.5H69.8z M67.2,40.6l-0.6-7.5h-1.7v7.5H67.2z M69.1,63l-0.7-7.4h-3.5V63H69.1z"/>

</svg>
