<?xml version="1.0" encoding="utf-8"?>
<!-- Generator: Adobe Illustrator 19.0.0, SVG Export Plug-In . SVG Version: 6.00 Build 0)  -->
<svg version="1.1" id="k" xmlns="http://www.w3.org/2000/svg" xmlns:xlink="http://www.w3.org/1999/xlink" x="0px" y="0px"
	 viewBox="0 0 100 100" enable-background="new 0 0 100 100" xml:space="preserve">

	<path id="XMLID_14_" fill="#FFFFFF" d="M24,74.2c-0.3-0.5-0.5-1-0.6-1.5c-0.1-0.5-0.2-1.1-0.2-1.7c0-0.9,0.2-1.7,0.5-2.5
		c0.3-0.8,0.8-1.5,1.4-2c0.6-0.6,1.3-1,2.1-1.3c0.8-0.3,1.7-0.5,2.7-0.5c-0.5-1.5-0.9-2.8-1.3-4c-0.4-1.2-0.8-2.4-1-3.4
		s-0.6-1.9-1-2.8c-0.4-0.8-0.7-1.6-1-2.3c-0.3-0.7-0.7-1.4-1.1-2c-0.4-0.6-0.8-1.3-1.2-1.9c-0.4-0.6-0.9-1.3-1.4-1.9
		c-0.5-0.6-1.1-1.2-1.8-1.9c-1-1.2-1.9-2.2-2.8-3.1c-0.9-0.8-1.6-1.6-2.2-2.4c-0.6-0.7-1.1-1.4-1.4-2.1c-0.3-0.7-0.5-1.5-0.5-2.4
		c0-0.9,0.2-1.7,0.5-2.5c0.4-0.8,0.8-1.5,1.4-2.1c0.6-0.6,1.3-1.1,2.1-1.5c0.8-0.4,1.7-0.5,2.6-0.5h21c-0.3-0.2-0.5-0.5-0.6-0.8
		c-0.1-0.3-0.2-0.6-0.2-1c0-0.7,0.1-1.4,0.3-1.9c0.2-0.6,0.6-1.1,1-1.5c0.4-0.4,1-0.8,1.6-1.1c0.6-0.3,1.3-0.4,1.9-0.4h10.4
		c0.7,0,1.3,0.1,1.9,0.4c0.6,0.3,1.1,0.6,1.5,1.1c0.4,0.4,0.8,0.9,1,1.5c0.3,0.6,0.4,1.2,0.4,1.9c0,0.3-0.1,0.6-0.3,1
		c-0.2,0.3-0.4,0.5-0.7,0.8h21c0.9,0,1.8,0.2,2.6,0.5c0.8,0.4,1.5,0.9,2.1,1.5c0.6,0.6,1.1,1.3,1.4,2.1c0.3,0.8,0.5,1.6,0.5,2.5
		c0,0.9-0.2,1.8-0.5,2.4c-0.3,0.7-0.8,1.4-1.5,2.1c-0.7,0.7-1.4,1.5-2.3,2.3c-0.9,0.8-1.9,1.8-3,3c-0.6,0.7-1.1,1.4-1.6,2
		c-0.5,0.6-0.9,1.3-1.3,2c-0.4,0.7-0.9,1.3-1.3,2c-0.4,0.7-0.8,1.4-1.1,2.1c-0.3,0.8-0.6,1.6-0.9,2.4c-0.3,0.8-0.6,1.7-1,2.7
		c-0.3,1-0.7,2-1,3.3c-0.4,1.2-0.8,2.5-1.2,3.9c0.9,0,1.8,0.2,2.6,0.5c0.8,0.3,1.5,0.8,2.1,1.3c0.6,0.6,1.1,1.3,1.5,2
		c0.4,0.8,0.5,1.6,0.5,2.5c0,0.6-0.1,1.2-0.3,1.7c-0.2,0.5-0.4,1-0.5,1.5h2.4c1.2,0,2.3,0.2,3.3,0.7c1,0.4,1.9,1,2.7,1.8
		c0.8,0.8,1.4,1.7,1.8,2.7c0.4,1,0.7,2.1,0.7,3.3c0,1.1-0.2,2.2-0.7,3.2c-0.4,1-1,1.9-1.8,2.6c-0.8,0.8-1.7,1.4-2.7,1.9
		c-1,0.5-2.1,0.7-3.3,0.7H21.5c-1.2,0-2.3-0.2-3.3-0.7c-1-0.5-1.9-1.1-2.6-1.9c-0.7-0.8-1.3-1.6-1.8-2.6c-0.5-1-0.7-2.1-0.7-3.2
		c0-1.2,0.2-2.3,0.7-3.3c0.5-1,1.1-1.9,1.8-2.7c0.7-0.8,1.6-1.4,2.6-1.8c1-0.4,2.1-0.7,3.3-0.7H24z M41.6,16.1V9.3l5.8,0.9l-0.8-6
		h6.6l-0.7,6l5.7-0.9v6.8l-5.7-0.9v6h-5.1v-6L41.6,16.1z"/>

	<path id="XMLID_4_" d="M24,74.2c-0.3-0.5-0.5-1-0.6-1.5c-0.1-0.5-0.2-1.1-0.2-1.7c0-0.9,0.2-1.7,0.5-2.5c0.3-0.8,0.8-1.5,1.4-2
		c0.6-0.6,1.3-1,2.1-1.3c0.8-0.3,1.7-0.5,2.7-0.5c-0.5-1.5-0.9-2.8-1.3-4c-0.4-1.2-0.8-2.4-1-3.4s-0.6-1.9-1-2.8
		c-0.4-0.8-0.7-1.6-1-2.3c-0.3-0.7-0.7-1.4-1.1-2c-0.4-0.6-0.8-1.3-1.2-1.9c-0.4-0.6-0.9-1.3-1.4-1.9c-0.5-0.6-1.1-1.2-1.8-1.9
		c-1-1.2-1.9-2.2-2.8-3.1c-0.9-0.8-1.6-1.6-2.2-2.4c-0.6-0.7-1.1-1.4-1.4-2.1c-0.3-0.7-0.5-1.5-0.5-2.4c0-0.9,0.2-1.7,0.5-2.5
		c0.4-0.8,0.8-1.5,1.4-2.1c0.6-0.6,1.3-1.1,2.1-1.5c0.8-0.4,1.7-0.5,2.6-0.5h21c-0.3-0.2-0.5-0.5-0.6-0.8c-0.1-0.3-0.2-0.6-0.2-1
		c0-0.7,0.1-1.4,0.3-1.9c0.2-0.6,0.6-1.1,1-1.5c0.4-0.4,1-0.8,1.6-1.1c0.6-0.3,1.3-0.4,1.9-0.4h10.4c0.7,0,1.3,0.1,1.9,0.4
		c0.6,0.3,1.1,0.6,1.5,1.1c0.4,0.4,0.8,0.9,1,1.5c0.3,0.6,0.4,1.2,0.4,1.9c0,0.3-0.1,0.6-0.3,1c-0.2,0.3-0.4,0.5-0.7,0.8h21
		c0.9,0,1.8,0.2,2.6,0.5c0.8,0.4,1.5,0.9,2.1,1.5c0.6,0.6,1.1,1.3,1.4,2.1c0.3,0.8,0.5,1.6,0.5,2.5c0,0.9-0.2,1.8-0.5,2.4
		c-0.3,0.7-0.8,1.4-1.5,2.1c-0.7,0.7-1.4,1.5-2.3,2.3c-0.9,0.8-1.9,1.8-3,3c-0.6,0.7-1.1,1.4-1.6,2c-0.5,0.6-0.9,1.3-1.3,2
		c-0.4,0.7-0.9,1.3-1.3,2c-0.4,0.7-0.8,1.4-1.1,2.1c-0.3,0.8-0.6,1.6-0.9,2.4c-0.3,0.8-0.6,1.7-1,2.7c-0.3,1-0.7,2-1,3.3
		c-0.4,1.2-0.8,2.5-1.2,3.9c0.9,0,1.8,0.2,2.6,0.5c0.8,0.3,1.5,0.8,2.1,1.3c0.6,0.6,1.1,1.3,1.5,2c0.4,0.8,0.5,1.6,0.5,2.5
		c0,0.6-0.1,1.2-0.3,1.7c-0.2,0.5-0.4,1-0.5,1.5h2.4c1.2,0,2.3,0.2,3.3,0.7c1,0.4,1.9,1,2.7,1.8c0.8,0.8,1.4,1.7,1.8,2.7
		c0.4,1,0.7,2.1,0.7,3.3c0,1.1-0.2,2.2-0.7,3.2c-0.4,1-1,1.9-1.8,2.6c-0.8,0.8-1.7,1.4-2.7,1.9c-1,0.5-2.1,0.7-3.3,0.7H21.5
		c-1.2,0-2.3-0.2-3.3-0.7c-1-0.5-1.9-1.1-2.6-1.9c-0.7-0.8-1.3-1.6-1.8-2.6c-0.5-1-0.7-2.1-0.7-3.2c0-1.2,0.2-2.3,0.7-3.3
		c0.5-1,1.1-1.9,1.8-2.7c0.7-0.8,1.6-1.4,2.6-1.8c1-0.4,2.1-0.7,3.3-0.7H24z M26.6,74.3c-0.5,0-0.9,0.2-1.2,0.5
		c-0.3,0.3-0.5,0.7-0.5,1.2c0,0.5,0.2,1,0.5,1.3c0.3,0.3,0.7,0.5,1.2,0.5h46.7c0.4,0,0.8-0.2,1.1-0.5c0.3-0.3,0.5-0.8,0.5-1.3
		c0-0.5-0.2-0.9-0.5-1.2c-0.3-0.3-0.7-0.5-1.1-0.5H26.6z M28.3,47.7c-0.4,0-0.8,0.2-1.1,0.5c-0.3,0.3-0.5,0.7-0.5,1.2
		c0,0.4,0.2,0.8,0.5,1.1c0.3,0.3,0.7,0.5,1.1,0.5h43.2c0.5,0,0.9-0.2,1.2-0.5c0.3-0.3,0.5-0.7,0.5-1.1c0-0.5-0.2-0.9-0.5-1.2
		c-0.3-0.3-0.7-0.5-1.2-0.5H28.3z M31.9,61l6.8-3.4l-7.6-3.8l-1.5,0.7L31.9,61z M33.2,64.4c-0.5,0-0.9,0.2-1.2,0.5
		c-0.3,0.3-0.5,0.7-0.5,1.2c0,0.4,0.2,0.8,0.5,1.1c0.3,0.3,0.7,0.5,1.2,0.5h33.4c0.5,0,0.9-0.2,1.2-0.5c0.3-0.3,0.5-0.7,0.5-1.1
		c0-0.5-0.2-0.9-0.5-1.2c-0.3-0.3-0.7-0.5-1.2-0.5H33.2z M41.6,16.1V9.3l5.8,0.9l-0.8-6h6.6l-0.7,6l5.7-0.9v6.8l-5.7-0.9v6h-5.1v-6
		L41.6,16.1z M43.2,27.7c-0.4,0-0.8,0.2-1.1,0.5c-0.3,0.3-0.5,0.7-0.5,1.1c0,0.5,0.2,0.9,0.5,1.2c0.3,0.3,0.7,0.5,1.1,0.5h13.4
		c0.4,0,0.8-0.2,1.1-0.5c0.3-0.3,0.5-0.7,0.5-1.2c0-0.4-0.2-0.8-0.5-1.1c-0.3-0.3-0.7-0.5-1.1-0.5H43.2z M57.7,57.6l-7.6-3.8
		l-7.8,3.8l7.8,3.8L57.7,57.6z M68.5,61.1l2-6.4l-1.4-0.9l-7.9,3.8L68.5,61.1z"/>

</svg>
