<?xml version="1.0" encoding="utf-8"?>
<!-- Generator: Adobe Illustrator 19.0.0, SVG Export Plug-In . SVG Version: 6.00 Build 0)  -->
<svg version="1.1" id="q" xmlns="http://www.w3.org/2000/svg" xmlns:xlink="http://www.w3.org/1999/xlink" x="0px" y="0px"
	 viewBox="0 0 100 100" enable-background="new 0 0 100 100" xml:space="preserve">

	<path id="XMLID_14_" fill="#FFFFFF" d="M55.6,21c1.4,0.5,2.7,1.2,3.8,2.1c1.1,0.8,2.1,1.8,2.9,2.9c0.8,1.1,1.4,2.2,1.9,3.5
		c0.5,1.3,0.7,2.6,0.7,3.9c0.7-0.1,1.4-0.4,2-0.8c0.6-0.4,1.2-0.9,1.8-1.4c0.6-0.5,1.1-1.1,1.6-1.6c0.5-0.6,0.9-1.2,1.3-2
		c0.3,0.9,0.7,1.8,1.2,2.7c0.5,0.8,1.1,1.5,1.7,2.1c0.6,0.6,1.4,1,2.2,1.3c0.8,0.3,1.6,0.4,2.5,0.4c0.8,0,1.7-0.1,2.7-0.4
		c1-0.3,1.9-0.7,2.8-1.2c0.9-0.5,1.8-1.2,2.5-2c0.8-0.8,1.5-1.6,2.2-2.5L70.1,64.4c0.8,0.1,1.6,0.3,2.5,0.7c0.8,0.4,1.5,0.8,2.1,1.4
		c0.6,0.6,1,1.3,1.4,2c0.4,0.8,0.6,1.6,0.6,2.5c0,0.6-0.1,1.2-0.3,1.7c-0.2,0.5-0.4,1-0.6,1.5h2.6c1.1,0,2.2,0.2,3.3,0.7
		c1,0.4,1.9,1,2.6,1.8c0.7,0.8,1.3,1.7,1.8,2.7c0.5,1,0.7,2.1,0.7,3.3c0,1.1-0.2,2.2-0.7,3.2c-0.5,1-1.1,1.9-1.8,2.6
		c-0.7,0.8-1.6,1.4-2.6,1.9c-1,0.5-2.1,0.7-3.3,0.7H21.5c-1.1,0-2.2-0.2-3.2-0.7c-1-0.5-1.9-1.1-2.6-1.9c-0.8-0.8-1.4-1.6-1.9-2.6
		c-0.5-1-0.7-2.1-0.7-3.2c0-1.2,0.2-2.3,0.7-3.3c0.5-1,1.1-1.9,1.9-2.7c0.8-0.8,1.6-1.4,2.6-1.8c1-0.4,2.1-0.7,3.2-0.7h2.4
		c-0.3-0.4-0.4-0.8-0.5-1.3s-0.1-1.1-0.1-1.9c0-0.9,0.2-1.7,0.5-2.5c0.4-0.8,0.9-1.5,1.5-2c0.6-0.6,1.3-1,2.1-1.4
		c0.8-0.4,1.7-0.6,2.5-0.7L10.7,27.8c0.7,0.9,1.4,1.8,2.2,2.5c0.8,0.8,1.7,1.4,2.6,2c0.9,0.5,1.9,0.9,2.8,1.2
		c0.9,0.3,1.8,0.4,2.6,0.4c0.8,0,1.6-0.2,2.5-0.5c0.8-0.3,1.6-0.7,2.2-1.3c0.6-0.6,1.2-1.3,1.7-2.1c0.5-0.8,0.8-1.6,1-2.5
		c0.8,1.2,1.8,2.3,3,3.4c1.2,1,2.6,1.8,4.1,2.4c-0.1-1.3,0.1-2.6,0.5-3.9c0.4-1.3,1-2.4,1.8-3.5c0.8-1.1,1.7-2,2.8-2.9
		c1.1-0.8,2.4-1.5,3.8-2.1c-0.5-0.6-1-1.3-1.3-2.1c-0.3-0.8-0.5-1.6-0.5-2.4c0-1.1,0.2-2,0.6-2.9c0.4-0.9,0.9-1.6,1.6-2.3
		c0.7-0.7,1.4-1.2,2.3-1.6C48,9.2,48.9,9,50,9c0.9,0,1.9,0.2,2.8,0.6c0.9,0.4,1.7,0.9,2.4,1.6c0.6,0.7,1.1,1.5,1.5,2.3
		c0.4,0.9,0.6,1.8,0.6,2.9c0,0.8-0.1,1.6-0.5,2.4C56.5,19.7,56.1,20.4,55.6,21z"/>

	<path id="XMLID_4_" d="M55.6,21c1.4,0.5,2.7,1.2,3.8,2.1c1.1,0.8,2.1,1.8,2.9,2.9c0.8,1.1,1.4,2.2,1.9,3.5c0.5,1.3,0.7,2.6,0.7,3.9
		c0.7-0.1,1.4-0.4,2-0.8c0.6-0.4,1.2-0.9,1.8-1.4c0.6-0.5,1.1-1.1,1.6-1.6c0.5-0.6,0.9-1.2,1.3-2c0.3,0.9,0.7,1.8,1.2,2.7
		c0.5,0.8,1.1,1.5,1.7,2.1c0.6,0.6,1.4,1,2.2,1.3c0.8,0.3,1.6,0.4,2.5,0.4c0.8,0,1.7-0.1,2.7-0.4c1-0.3,1.9-0.7,2.8-1.2
		c0.9-0.5,1.8-1.2,2.5-2c0.8-0.8,1.5-1.6,2.2-2.5L70.1,64.4c0.8,0.1,1.6,0.3,2.5,0.7c0.8,0.4,1.5,0.8,2.1,1.4c0.6,0.6,1,1.3,1.4,2
		c0.4,0.8,0.6,1.6,0.6,2.5c0,0.6-0.1,1.2-0.3,1.7c-0.2,0.5-0.4,1-0.6,1.5h2.6c1.1,0,2.2,0.2,3.3,0.7c1,0.4,1.9,1,2.6,1.8
		c0.7,0.8,1.3,1.7,1.8,2.7c0.5,1,0.7,2.1,0.7,3.3c0,1.1-0.2,2.2-0.7,3.2c-0.5,1-1.1,1.9-1.8,2.6c-0.7,0.8-1.6,1.4-2.6,1.9
		c-1,0.5-2.1,0.7-3.3,0.7H21.5c-1.1,0-2.2-0.2-3.2-0.7c-1-0.5-1.9-1.1-2.6-1.9c-0.8-0.8-1.4-1.6-1.9-2.6c-0.5-1-0.7-2.1-0.7-3.2
		c0-1.2,0.2-2.3,0.7-3.3c0.5-1,1.1-1.9,1.9-2.7c0.8-0.8,1.6-1.4,2.6-1.8c1-0.4,2.1-0.7,3.2-0.7h2.4c-0.3-0.4-0.4-0.8-0.5-1.3
		s-0.1-1.1-0.1-1.9c0-0.9,0.2-1.7,0.5-2.5c0.4-0.8,0.9-1.5,1.5-2c0.6-0.6,1.3-1,2.1-1.4c0.8-0.4,1.7-0.6,2.5-0.7L10.7,27.8
		c0.7,0.9,1.4,1.8,2.2,2.5c0.8,0.8,1.7,1.4,2.6,2c0.9,0.5,1.9,0.9,2.8,1.2c0.9,0.3,1.8,0.4,2.6,0.4c0.8,0,1.6-0.2,2.5-0.5
		c0.8-0.3,1.6-0.7,2.2-1.3c0.6-0.6,1.2-1.3,1.7-2.1c0.5-0.8,0.8-1.6,1-2.5c0.8,1.2,1.8,2.3,3,3.4c1.2,1,2.6,1.8,4.1,2.4
		c-0.1-1.3,0.1-2.6,0.5-3.9c0.4-1.3,1-2.4,1.8-3.5c0.8-1.1,1.7-2,2.8-2.9c1.1-0.8,2.4-1.5,3.8-2.1c-0.5-0.6-1-1.3-1.3-2.1
		c-0.3-0.8-0.5-1.6-0.5-2.4c0-1.1,0.2-2,0.6-2.9c0.4-0.9,0.9-1.6,1.6-2.3c0.7-0.7,1.4-1.2,2.3-1.6C48,9.2,48.9,9,50,9
		c0.9,0,1.9,0.2,2.8,0.6c0.9,0.4,1.7,0.9,2.4,1.6c0.6,0.7,1.1,1.5,1.5,2.3c0.4,0.9,0.6,1.8,0.6,2.9c0,0.8-0.1,1.6-0.5,2.4
		C56.5,19.7,56.1,20.4,55.6,21z M26.8,73.5c-0.5,0-1,0.2-1.3,0.6C25.2,74.5,25,75,25,75.4c0,0.6,0.2,1.1,0.5,1.5
		c0.3,0.4,0.8,0.6,1.3,0.6h46.3c0.5,0,1-0.2,1.4-0.6c0.4-0.4,0.5-0.9,0.5-1.5c0-0.5-0.2-0.9-0.5-1.3c-0.4-0.4-0.8-0.6-1.4-0.6H26.8z
		 M28.2,49.5l7.2,3.8l7.4-3.8l-7.4-3.9L28.2,49.5z M32.4,61.6c-0.5,0-0.9,0.1-1.3,0.5c-0.4,0.3-0.6,0.7-0.6,1.3c0,0.5,0.2,1,0.6,1.3
		c0.4,0.4,0.8,0.5,1.3,0.5h35.1c0.5,0,0.9-0.2,1.3-0.5c0.4-0.4,0.5-0.8,0.5-1.3c0-0.5-0.2-1-0.5-1.3c-0.4-0.3-0.8-0.5-1.3-0.5H32.4z
		 M37.4,32.3L36.7,36c0.7,0.1,1.3,0.2,1.8,0.3c0.6,0,1.2,0.1,1.8,0.1c1.1,0,2.1-0.1,3-0.3c0.9-0.2,1.8-0.5,2.6-0.8
		c0.8-0.4,1.5-0.8,2.3-1.3c0.7-0.5,1.3-1.1,1.8-1.8c0.4,0.7,1,1.2,1.7,1.6c0.7,0.4,1.5,0.8,2.3,1.2c0.8,0.3,1.7,0.6,2.7,0.8
		c1,0.2,1.9,0.4,2.9,0.6c0.6,0.1,1.2,0.1,1.9,0.1c0.6,0,1.2-0.1,1.8-0.2l-0.7-3.9c-1.3,0.3-2.5,0.3-3.8,0.1
		c-1.2-0.2-2.4-0.6-3.5-1.2c-1.1-0.6-2.2-1.3-3.1-2s-1.6-1.7-2.1-2.7c-0.6,0.9-1.3,1.8-2.2,2.6c-0.9,0.8-1.8,1.5-2.9,2.1
		c-1.1,0.6-2.2,1-3.5,1.2C40.1,32.6,38.8,32.6,37.4,32.3z M42.7,44.5l7.3,3.8l7.4-3.8L50,40.7L42.7,44.5z M42.7,53.7l7.3,3.8
		l7.4-3.8L50,49.8L42.7,53.7z M55.4,22.7l-1.6-2.6c-0.5,0.4-1.1,0.7-1.8,1c-0.7,0.3-1.3,0.4-2,0.4c-0.7,0-1.3-0.1-1.9-0.3
		c-0.6-0.2-1.1-0.5-1.6-0.9l-2.1,2.4c0.8,0.7,1.7,1.3,2.6,1.6c0.9,0.3,1.9,0.5,3,0.5c1,0,2-0.2,3-0.5C53.9,24,54.7,23.5,55.4,22.7z
		 M57.1,49.5l7.2,3.8l7.4-3.8l-7.4-3.9L57.1,49.5z"/>

</svg>
