<?xml version="1.0" encoding="utf-8"?>
<!-- Generator: Adobe Illustrator 19.0.0, SVG Export Plug-In . SVG Version: 6.00 Build 0)  -->
<svg version="1.1" id="r" xmlns="http://www.w3.org/2000/svg" xmlns:xlink="http://www.w3.org/1999/xlink" x="0px" y="0px"
	 viewBox="0 0 100 100" enable-background="new 0 0 100 100" xml:space="preserve">

	<path id="XMLID_13_" fill="#FFFFFF" d="M74,72.6l4.3,1.6c1.2,0,2.3,0.2,3.3,0.7c1,0.4,1.9,1,2.7,1.8c0.8,0.8,1.4,1.7,1.8,2.7
		c0.4,1,0.7,2.1,0.7,3.3c0,1.1-0.2,2.2-0.7,3.2c-0.4,1-1,1.9-1.8,2.6c-0.8,0.8-1.7,1.4-2.7,1.9c-1,0.5-2.1,0.7-3.3,0.7H21.5
		c-1.2,0-2.3-0.2-3.3-0.7c-1-0.5-1.9-1.1-2.6-1.9c-0.7-0.8-1.3-1.6-1.8-2.6c-0.5-1-0.7-2.1-0.7-3.2c0-1.2,0.2-2.3,0.7-3.3
		c0.5-1,1.1-1.9,1.8-2.7c0.7-0.8,1.6-1.4,2.6-1.8c1-0.4,2.1-0.7,3.3-0.7l4.5-1.6c0.7-3.8,1.2-7.5,1.6-11c0.4-3.5,0.8-7,1.1-10.3
		c0.3-3.4,0.5-6.8,0.7-10.1c0.2-3.3,0.4-6.7,0.7-10.2v-6.6h-6.8v-20h13.3v9.8h6.8V4.4h13.2v9.8h6.8V4.4h13.4v20h-6.9
		c0,1.1,0,2.1,0,3.3c0,1.1,0,2.2,0,3.3c0.3,3.7,0.5,7.2,0.7,10.6c0.2,3.4,0.4,6.7,0.7,10c0.3,3.3,0.7,6.7,1.1,10.1
		C72.8,65.2,73.3,68.8,74,72.6z"/>

	<path id="XMLID_4_" d="M74,72.6l4.3,1.6c1.2,0,2.3,0.2,3.3,0.7c1,0.4,1.9,1,2.7,1.8c0.8,0.8,1.4,1.7,1.8,2.7c0.4,1,0.7,2.1,0.7,3.3
		c0,1.1-0.2,2.2-0.7,3.2c-0.4,1-1,1.9-1.8,2.6c-0.8,0.8-1.7,1.4-2.7,1.9c-1,0.5-2.1,0.7-3.3,0.7H21.5c-1.2,0-2.3-0.2-3.3-0.7
		c-1-0.5-1.9-1.1-2.6-1.9c-0.7-0.8-1.3-1.6-1.8-2.6c-0.5-1-0.7-2.1-0.7-3.2c0-1.2,0.2-2.3,0.7-3.3c0.5-1,1.1-1.9,1.8-2.7
		c0.7-0.8,1.6-1.4,2.6-1.8c1-0.4,2.1-0.7,3.3-0.7l4.5-1.6c0.7-3.8,1.2-7.5,1.6-11c0.4-3.5,0.8-7,1.1-10.3c0.3-3.4,0.5-6.8,0.7-10.1
		c0.2-3.3,0.4-6.7,0.7-10.2v-6.6h-6.8v-20h13.3v9.8h6.8V4.4h13.2v9.8h6.8V4.4h13.4v20h-6.9c0,1.1,0,2.1,0,3.3c0,1.1,0,2.2,0,3.3
		c0.3,3.7,0.5,7.2,0.7,10.6c0.2,3.4,0.4,6.7,0.7,10c0.3,3.3,0.7,6.7,1.1,10.1C72.8,65.2,73.3,68.8,74,72.6z M66.7,31.8v-3.2H33.2
		l-0.1,3.2H35v7.5h-2.6l-0.1,3.4H35h6.6v7.5h-9.7l-0.3,3.4H35V61h-4.1l-0.1,3.3h10.8v7.8H28v3.8h43.8v-3.8H58.2v-7.8h11.2L69.1,61
		h-4.2v-7.4h3.5l-0.3-3.4h-9.9v-7.5h9.2v-3.4h-2.5v-7.5H66.7z M38.3,31.8h9.9v7.5h-9.9V31.8z M38.3,53.6h9.9V61h-9.9V53.6z
		 M44.8,42.7H55v7.5H44.8V42.7z M44.8,64.3H55v7.8H44.8V64.3z M51.7,31.8h9.8v7.5h-9.8V31.8z M51.7,53.6h9.8V61h-9.8V53.6z"/>

</svg>
