<?xml version="1.0" encoding="utf-8"?>
<!-- Generator: Adobe Illustrator 19.0.0, SVG Export Plug-In . SVG Version: 6.00 Build 0)  -->
<svg version="1.1" id="K" xmlns="http://www.w3.org/2000/svg" xmlns:xlink="http://www.w3.org/1999/xlink" x="0px" y="0px"
	 viewBox="0 0 100 100" enable-background="new 0 0 100 100" xml:space="preserve">

	<path id="XMLID_30_" fill="#FFFFFF" d="M12.4,30.9c0-3.8,0.6-6.8,1.9-9c1.2-2.2,2.7-3.8,4.3-4.9c1.6-1.1,3.3-1.8,5-2.1
		c1.7-0.3,2.9-0.5,3.8-0.5c0.9,0,2,0.1,3.3,0.4c1.2,0.2,2.5,0.6,3.8,1.1c1.3,0.5,2.6,1.1,3.9,1.9c1.3,0.8,2.4,1.6,3.5,2.6
		c-0.1-2.9-0.2-5.4-0.1-7.5c0.1-2.2,0.2-3.8,0.5-4.9l0.3-0.7L43,7.2c1.3-0.5,2.3-0.8,3.2-1C47,6,48.1,5.8,49.4,5.8H50h0.7
		C52,5.9,53.1,6.1,54,6.3c0.8,0.2,1.8,0.6,3,1l0.6,0.2l0.3,0.7c0.3,1.1,0.4,2.7,0.5,4.9c0.1,2.2,0,4.7-0.1,7.5
		c1.1-1,2.2-1.9,3.5-2.6c1.3-0.8,2.5-1.4,3.9-1.9c1.3-0.5,2.6-0.9,3.8-1.1c1.2-0.2,2.3-0.4,3.3-0.4c0.9,0,2.1,0.2,3.8,0.5
		c1.6,0.3,3.3,1,5,2.1c1.7,1.1,3.1,2.7,4.3,4.9c1.2,2.2,1.8,5.1,1.8,9c0,2.9-0.3,5.6-0.9,7.9c-0.6,2.3-1.3,4.4-2.2,6.4
		c-0.9,1.9-1.8,3.6-2.8,5c-1,1.5-1.9,2.8-2.8,4c-0.4,0.5-0.8,1-1.1,1.4c-0.3,0.4-0.6,0.8-0.8,1.1c0.3,0.3,0.7,0.7,1,1.1
		c0.3,0.4,0.5,0.9,0.5,1.4c-0.1,0.7-0.3,1.3-0.7,1.7c-0.4,0.4-0.7,0.7-1,1L76,62.4c-0.5,0.9-1,1.8-1.3,2.5c-0.4,0.7-0.6,1.3-0.6,1.8
		c0,1.1,0.1,2.1,0.3,2.8c0.2,0.7,0.4,1.5,0.6,2.2c0.6,1.1,0.9,2.5,0.9,4.2v1.5c-0.1,0.3-0.3,0.5-0.5,0.8c-0.2,0.3-0.4,0.6-0.8,1
		l-1.3,1.2l-0.8,0.7c-2.3,1.5-5.4,2.7-9.4,3.5c-4,0.8-8.4,1.3-13.2,1.3s-9.2-0.4-13.2-1.3c-4-0.8-7.1-2-9.4-3.5l-0.8-0.7l-1.3-1.2
		c-0.2-0.3-0.4-0.6-0.6-1c-0.2-0.3-0.4-0.6-0.5-0.8v-1.5c0-0.9,0.1-1.7,0.3-2.4c0.2-0.7,0.4-1.3,0.6-1.8c0.2-0.7,0.4-1.5,0.6-2.2
		c0.2-0.7,0.3-1.7,0.3-2.8c0-0.5-0.2-1.1-0.5-1.8c-0.4-0.7-0.8-1.5-1.4-2.5l-0.7-0.5c-0.3-0.3-0.7-0.6-1-1c-0.4-0.4-0.6-1-0.6-1.7
		c0-0.5,0.1-1,0.4-1.4c0.3-0.4,0.6-0.8,1-1.1c-0.2-0.4-0.5-0.8-0.8-1.1c-0.3-0.4-0.7-0.8-1.1-1.4c-0.9-1.2-1.8-2.5-2.8-4
		c-1-1.5-1.9-3.1-2.8-5c-0.9-1.9-1.6-4-2.2-6.4C12.7,36.5,12.4,33.9,12.4,30.9z"/>

	<path id="XMLID_4_" d="M12.4,30.8c0-3.8,0.6-6.8,1.9-9c1.2-2.2,2.7-3.8,4.3-4.9c1.6-1.1,3.3-1.8,5-2.1c1.7-0.3,2.9-0.4,3.8-0.4
		c0.9,0,2,0.1,3.3,0.3c1.2,0.2,2.5,0.6,3.8,1.1c1.3,0.5,2.6,1.1,3.9,1.9c1.3,0.8,2.4,1.7,3.5,2.7c-0.1-2.9-0.2-5.4-0.1-7.6
		c0.1-2.2,0.2-3.8,0.5-4.9l0.3-0.7L43,7.1c1.3-0.5,2.3-0.8,3.2-1c0.8-0.2,1.9-0.4,3.3-0.4H50h0.7C52,5.8,53.1,6,54,6.2
		c0.8,0.2,1.8,0.5,3,0.9l0.6,0.2L57.9,8c0.3,1.1,0.4,2.7,0.5,4.9c0.1,2.2,0,4.7-0.1,7.6c1.1-1,2.2-1.9,3.5-2.7
		c1.3-0.8,2.5-1.4,3.9-1.9c1.3-0.5,2.6-0.9,3.8-1.1c1.2-0.2,2.3-0.3,3.3-0.3c0.9,0,2.1,0.1,3.8,0.4c1.6,0.3,3.3,1,5,2.1
		c1.7,1.1,3.1,2.7,4.3,4.9c1.2,2.2,1.8,5.1,1.8,9c0,2.9-0.3,5.6-0.9,7.9c-0.6,2.3-1.3,4.5-2.2,6.4c-0.9,1.9-1.8,3.6-2.8,5
		c-1,1.5-1.9,2.8-2.8,4c-0.4,0.5-0.8,1-1.1,1.3c-0.3,0.4-0.6,0.8-0.8,1.2c0.3,0.3,0.7,0.7,1,1.1c0.3,0.4,0.5,0.9,0.5,1.4
		c-0.1,0.7-0.3,1.3-0.7,1.7c-0.4,0.4-0.7,0.7-1,1L76,62.3c-0.5,0.9-1,1.8-1.3,2.4c-0.4,0.7-0.6,1.3-0.6,1.9c0,1.1,0.1,2.1,0.3,2.8
		c0.2,0.7,0.4,1.5,0.6,2.2c0.6,1.1,0.9,2.5,0.9,4.2v1.5c-0.1,0.3-0.3,0.5-0.5,0.8c-0.2,0.3-0.4,0.6-0.8,1l-1.3,1.2L72.6,81
		c-2.3,1.5-5.4,2.7-9.4,3.6c-4,0.8-8.4,1.3-13.2,1.3s-9.2-0.4-13.2-1.3c-4-0.8-7.1-2-9.4-3.6l-0.8-0.7l-1.3-1.2
		c-0.2-0.3-0.4-0.7-0.6-1c-0.2-0.3-0.4-0.6-0.5-0.8v-1.5c0-0.9,0.1-1.7,0.3-2.4c0.2-0.7,0.4-1.3,0.6-1.8c0.2-0.7,0.4-1.5,0.6-2.2
		c0.2-0.7,0.3-1.7,0.3-2.8c0-0.5-0.2-1.2-0.5-1.9c-0.4-0.7-0.8-1.5-1.4-2.4l-0.7-0.5c-0.3-0.3-0.7-0.6-1-1c-0.4-0.4-0.6-1-0.6-1.7
		c0-0.5,0.1-1,0.4-1.4c0.3-0.4,0.6-0.8,1-1.1c-0.2-0.4-0.5-0.8-0.8-1.2c-0.3-0.4-0.7-0.8-1.1-1.3c-0.9-1.2-1.8-2.5-2.8-4
		c-1-1.5-1.9-3.1-2.8-5c-0.9-1.9-1.6-4-2.2-6.4C12.7,36.4,12.4,33.8,12.4,30.8z M16,38.1c0.6,2.2,1.3,4.1,2.1,5.9
		c0.9,1.8,1.8,3.4,2.7,4.8c0.9,1.4,1.8,2.6,2.6,3.7c0.3,0.5,0.6,1,0.9,1.3c0.3,0.4,0.5,0.7,0.7,1.1c0.3-0.2,0.7-0.4,1.1-0.6
		c0.4-0.2,0.9-0.5,1.3-0.8l-0.3-0.6c-0.9-1.3-1.7-2.8-2.6-4.3c-0.9-1.5-1.7-3-2.4-4.5c-0.7-1.5-1.3-3-1.8-4.4
		c-0.5-1.4-0.7-2.8-0.7-4.1c0-2.9,0.8-5.2,2.4-6.9c1.6-1.7,3.9-2.7,6.9-3.1c2.6-0.4,5.1-0.2,7.4,0.6c2.4,0.8,4.4,2,6.1,3.4
		c-0.1-0.7-0.1-1.4-0.2-2.1c-0.1-0.7-0.1-1.3-0.1-1.8H42c-0.7-1.5-1.7-2.8-2.9-3.9c-1.2-1.1-2.5-2-3.9-2.6c-1.4-0.7-2.8-1.2-4.2-1.6
		c-1.4-0.3-2.6-0.5-3.7-0.5c-0.9,0-2.1,0.1-3.4,0.5c-1.4,0.3-2.7,0.9-4,1.9c-1.3,0.9-2.4,2.3-3.4,4.1c-0.9,1.8-1.4,4.2-1.4,7.3
		C15.1,33.5,15.4,35.9,16,38.1z M29.7,52c0.2-0.1,0.4-0.2,0.7-0.3c0.3-0.1,0.5-0.2,0.7-0.3c-1.1-1.7-1.9-3-2.3-3.9
		c-0.4-1-0.5-1.8-0.2-2.5c0.1-0.5,0.4-0.9,0.8-1.1c0.4-0.2,0.8-0.5,1.3-0.8c-0.1-0.5-0.2-1.1-0.3-1.6c-0.1-0.5,0-1.1,0.1-1.7
		c0.3-1.2,1.1-2,2.3-2.5c0.7-0.3,1.5-0.5,2.2-0.4c0.7,0.1,1.4,0.5,2.1,1c0.3,0.3,0.7,0.7,1,1.2c0.3,0.5,0.5,1,0.8,1.5
		c0.6-0.1,1.1-0.1,1.6,0c0.5,0.1,1,0.3,1.4,0.7c0.6,0.5,1,1.4,1.1,2.5c0.1,1.1,0.1,2.8-0.2,4.9c0.4-0.1,0.8-0.1,1.2-0.1
		c0.4,0,0.8-0.1,1.3-0.1c-0.5-1.7-0.9-3.9-1.2-6.6c-0.3-2.7-0.6-5.4-0.9-8.3c-0.6-0.7-1.4-1.5-2.3-2.2c-0.9-0.7-2-1.4-3.3-1.9
		c-1.2-0.5-2.5-0.9-3.9-1.2c-1.4-0.3-2.8-0.3-4.3-0.1c-4.5,0.5-6.8,3-6.8,7.3c0,1.1,0.2,2.3,0.7,3.6c0.5,1.3,1,2.7,1.8,4.1
		s1.5,2.8,2.3,4.3c0.8,1.4,1.6,2.8,2.4,4L29.7,52z M25,59.6l1.1,1.1c0.2,0.3,0.3,0.5,0.3,0.6c1.1-0.9,2.3-1.7,3.6-2.5
		c1.4-0.8,3-1.4,4.9-2c1.9-0.6,4-1,6.5-1.4c2.5-0.3,5.3-0.5,8.6-0.5c3.3,0,6.1,0.2,8.6,0.5c2.5,0.3,4.6,0.8,6.5,1.4
		c1.9,0.6,3.5,1.2,4.9,2c1.4,0.8,2.6,1.6,3.6,2.5c0-0.1,0.1-0.3,0.3-0.6l1.1-1.1c0.4-0.3,0.6-0.4,0.6-0.5c0-0.2-0.2-0.4-0.7-0.7
		c-0.6-0.6-1.5-1.3-2.8-2.2c-1.2-0.8-2.9-1.6-4.9-2.4c-2-0.8-4.4-1.4-7.3-2c-2.9-0.6-6.2-0.9-10-0.9s-7.1,0.3-10,0.9
		c-2.9,0.6-5.3,1.2-7.3,2c-2,0.8-3.6,1.6-4.9,2.4c-1.2,0.8-2.1,1.6-2.7,2.2c-0.5,0.3-0.7,0.5-0.7,0.7C24.6,59.3,24.8,59.5,25,59.6z
		 M27.6,77.4c1.5-1.1,3.5-2,5.9-2.7c2.4-0.7,5-1.3,8-1.7h0.3c0.2,0,0.4,0,0.6-0.1c0.2-0.1,0.5-0.1,0.8-0.1h0.5
		c0.2-0.1,0.6-0.1,1.1-0.1c0.3,0,0.5,0,0.7-0.1h1h1c0.3,0,0.6-0.1,0.7-0.2H50h1.9c0.1,0.1,0.4,0.2,0.7,0.2h1h1
		c0.2,0.1,0.4,0.1,0.7,0.1c0.5,0,0.9,0,1.1,0.1H57c0.2,0,0.4,0,0.7,0.1c0.2,0.1,0.5,0.1,0.8,0.1h0.2c2.9,0.4,5.6,1,8,1.7
		c2.4,0.7,4.4,1.6,6,2.7c0.3-0.7,0.5-1.2,0.5-1.6c0-0.9-0.6-1.7-1.8-2.6c-1.2-0.8-2.8-1.6-4.8-2.3c-2.1-0.7-4.5-1.3-7.3-1.7
		c-2.8-0.4-5.9-0.6-9.2-0.6c-3.3,0-6.3,0.2-9.2,0.6c-2.8,0.4-5.3,1-7.3,1.7c-2.1,0.7-3.7,1.5-4.8,2.3c-1.2,0.8-1.8,1.7-1.8,2.6
		C26.9,76.4,27.1,76.9,27.6,77.4z M28.6,66.6c0,0.4,0,0.8,0,1.1c0,0.3-0.1,0.7-0.2,1c0.5-0.7,1.1-1.4,1.7-2.1
		c0.6-0.7,1.2-1.3,1.8-1.8c-1.3-0.1-2.6-0.5-4-1.2C28.4,64.9,28.6,65.9,28.6,66.6z M30.6,79.6h0.1l0.6,0.4c0.1,0,0.2,0,0.3,0.1
		c0.1,0,0.3,0,0.4,0.1c0.1,0.1,0.2,0.1,0.3,0.2c0.2,0,0.3,0.1,0.4,0.2c0.1,0,0.3,0.1,0.7,0.2c0.2,0,0.4,0.1,0.5,0.2
		c0.1,0,0.1,0,0.2,0.1c0.1,0,0.2,0,0.3,0H35c0.1,0.1,0.2,0.2,0.3,0.2c0.1,0,0.3,0,0.4,0.1c0.3,0,0.5,0.1,0.6,0.2c0.1,0,0.3,0,0.4,0
		c0.1,0,0.3,0,0.4,0c0.1,0.1,0.3,0.1,0.6,0.1c0.2,0.1,0.4,0.2,0.6,0.2c0.3,0,0.5,0,0.7,0.1c0.1,0,0.3,0,0.5,0.1
		c0.2,0.1,0.3,0.1,0.5,0.1c0.1,0,0.1,0,0.3,0c0.1,0,0.2,0,0.3,0c0.4,0,0.7,0.1,0.9,0.2H42c0.2,0.1,0.5,0.1,0.9,0.1
		c0.3,0,0.5,0,0.7,0.1h0.8c0.3,0,0.6,0.1,0.7,0.2h1h0.6c0.1,0,0.3,0,0.5,0.1c0.2,0,0.4,0,0.5,0h0.6H50h1.7h0.6c0.1,0,0.3,0,0.5,0
		c0.2,0,0.4-0.1,0.5-0.1h0.6H55c0.1-0.1,0.3-0.2,0.7-0.2h0.7c0.2-0.1,0.4-0.1,0.7-0.1c0.4,0,0.7,0,0.9-0.1h0.7
		c0.3-0.1,0.6-0.2,1-0.2c0.2-0.1,0.3-0.1,0.4-0.1c0.1,0,0.3,0,0.5-0.1c0.2-0.1,0.4-0.1,0.5-0.1c0.1-0.1,0.3-0.1,0.5-0.1
		c0.3,0,0.5-0.1,0.7-0.2c0.3,0,0.5,0,0.6-0.1c0.1,0,0.3,0,0.4,0c0.1,0,0.3,0,0.4,0c0.1-0.1,0.3-0.2,0.6-0.2c0.1-0.1,0.2-0.1,0.3-0.1
		c0.1,0,0.3-0.1,0.4-0.2h0.6c0.1,0,0.2,0,0.3,0c0.1,0,0.1-0.1,0.2-0.1c0.1-0.1,0.3-0.2,0.5-0.2c0.4-0.1,0.6-0.2,0.7-0.2
		c0.1-0.1,0.2-0.2,0.4-0.2c0.1-0.1,0.3-0.1,0.3-0.2c0.1-0.1,0.2-0.1,0.4-0.1l0.2-0.1h0.1l0.6-0.4h0.1c0.5-0.3,0.7-0.4,0.7-0.5
		c-0.2-0.2-0.4-0.3-0.7-0.3c0-0.1,0-0.1-0.1-0.1c0-0.2-0.2-0.3-0.6-0.3c0-0.1-0.1-0.1-0.3-0.1c-0.3-0.2-0.6-0.3-0.7-0.3h-0.4
		c-0.2-0.2-0.4-0.3-0.7-0.3c-0.1-0.1-0.3-0.1-0.5-0.1c-0.1-0.1-0.2-0.2-0.5-0.3c-0.1,0-0.3,0-0.3-0.1c-0.1-0.1-0.2-0.1-0.3-0.1
		c-0.1-0.1-0.3-0.1-0.4-0.1c-0.1,0-0.2-0.1-0.3-0.2c-0.3,0-0.5,0-0.6-0.1c-0.4,0-0.7,0-0.8-0.1c-0.1,0-0.2,0-0.3-0.1
		c-0.1-0.1-0.2-0.1-0.3-0.1c-0.2-0.1-0.4-0.1-0.7-0.1c-0.2,0-0.4-0.1-0.5-0.2c-0.5,0-0.8,0-1-0.1c-0.3,0-0.4-0.1-0.4-0.2h-1
		c-0.1-0.1-0.3-0.1-0.7-0.1c-0.1,0-0.3,0-0.5,0c-0.2,0-0.3,0-0.5,0h-0.7c-0.1-0.1-0.3-0.2-0.7-0.2H55c-0.3-0.1-0.6-0.1-1.1-0.1h-0.6
		h-1c-0.1,0-0.2,0-0.3-0.1c-0.1-0.1-0.2-0.1-0.3-0.1H50h-1.7c-0.1,0-0.2,0-0.3,0.1c-0.1,0.1-0.2,0.1-0.3,0.1h-1h-0.6
		c-0.5,0-0.8,0-1,0.1h-0.7c-0.5,0-0.7,0.1-0.8,0.2h-0.7c-0.1,0-0.3,0-0.5,0c-0.2,0-0.3,0-0.5,0c-0.4,0-0.6,0-0.7,0.1h-0.9
		C40.3,76,40.2,76,39.9,76c-0.2,0.1-0.5,0.1-0.9,0.1c-0.2,0.1-0.4,0.2-0.7,0.2c-0.2,0-0.4,0-0.6,0.1c-0.1,0-0.2,0-0.3,0.1
		c-0.1,0.1-0.2,0.1-0.4,0.1c-0.1,0.1-0.4,0.1-0.8,0.1c-0.1,0.1-0.3,0.1-0.6,0.1C35.6,77,35.4,77,35.3,77c-0.1,0-0.2,0-0.3,0.1
		c-0.1,0-0.2,0-0.3,0.1c-0.1,0.1-0.2,0.1-0.3,0.1c-0.3,0.1-0.4,0.2-0.5,0.3c-0.2,0-0.4,0-0.5,0.1c-0.3,0-0.5,0.1-0.7,0.3h-0.4
		c-0.2,0-0.4,0.2-0.7,0.6c-0.2-0.2-0.3-0.3-0.3-0.2c-0.4,0-0.6,0.1-0.6,0.3h-0.1v0.1c-0.3,0-0.5,0.1-0.7,0.3
		C29.9,79.2,30.1,79.4,30.6,79.6z M33.1,50.8c0.5-0.1,0.9-0.2,1.2-0.4c-0.5-0.7-1-1.4-1.5-2.3c-0.6-0.9-1.1-1.8-1.7-2.7
		c-0.1,0.1-0.3,0.2-0.3,0.3c-0.1,0-0.2,0.1-0.2,0.1c-0.1,0.1,0,0.6,0.3,1.3C31.2,47.9,31.9,49.1,33.1,50.8z M44.3,60.4
		c1.2-1,2.3-1.9,3-2.7c-4.2,0.2-7.6,0.7-10.3,1.4c-2.6,0.7-4.8,1.6-6.5,2.7c0.7,0.1,1.8,0.4,3.1,0.8c1.3,0.4,2.5,0.7,3.6,0.7
		c-0.7,0.3-1.6,1-2.6,2.1c-1,1.2-1.9,2.2-2.7,3c2.1-0.7,4.4-1.3,7-1.8c2.6-0.4,5.2-0.7,7.9-0.8c-0.7-0.6-1.7-1.4-2.9-2.3
		c-1.2-0.9-2.2-1.4-3.1-1.6C41.9,61.9,43,61.4,44.3,60.4z M37.3,43.2c-0.4-1.8-0.9-3.1-1.7-3.8c-0.7-0.3-1.3-0.4-2-0.1
		c-0.7,0.1-1.2,0.5-1.3,1.1c-0.2,1.1,0.2,2.6,1,4.4c0.9,1.8,2,3.4,3.3,4.9c0.2-0.1,0.4-0.1,0.7-0.1C37.6,47.2,37.6,45,37.3,43.2z
		 M39.4,49.1c0.3-0.1,0.7-0.1,1-0.1c0.3-2.1,0.4-3.6,0.3-4.5c-0.1-0.9-0.3-1.4-0.4-1.7c-0.1-0.1-0.3-0.1-0.3-0.1c-0.1,0-0.3,0-0.7,0
		C39.7,44.5,39.7,46.7,39.4,49.1z M44.3,14.1v0.6c0,0.8,0,1.6,0,2.4c0,0.8,0,1.7,0.1,2.6c1-1.1,2.2-1.9,3.6-2.3
		c-0.3-0.3-0.7-0.6-1-0.9c-0.3-0.3-0.7-0.6-1-0.9c-0.3-0.3-0.6-0.5-0.8-0.7C44.9,14.7,44.6,14.5,44.3,14.1z M53.7,28.6
		c1-1,1.4-2.2,1.4-3.5c0-1.4-0.5-2.6-1.4-3.7c-1-1.1-2.2-1.6-3.7-1.6c-1.5,0-2.7,0.5-3.7,1.6c-1,1.1-1.4,2.3-1.4,3.7
		c0,1.3,0.5,2.5,1.4,3.5c1,1,2.2,1.5,3.7,1.5C51.5,30.1,52.7,29.6,53.7,28.6z M45.3,32c0,0.3,0.1,0.5,0.1,0.7v0.1h0.2h-0.2
		c0.3,3.1,0.7,6.1,1.1,8.8c0.4,2.7,0.8,5,1.2,6.8h1v-0.1H50h1.4v0.1h0.9c0.4-1.8,0.8-4.1,1.2-6.8c0.4-2.7,0.8-5.7,1.1-8.8v-0.1
		c0-0.2,0-0.4,0.1-0.7c0-0.3,0-0.5,0-0.7c-1.3,1-2.9,1.5-4.7,1.5c-1.7,0-3.3-0.5-4.7-1.5C45.3,31.5,45.3,31.8,45.3,32z M53.7,9.5
		c-0.3-0.6-1.1-0.9-2.4-1H50h-1.3c-1.3,0.1-2.1,0.5-2.4,1c-0.3,0.6-0.4,1.2-0.4,2c0,0.3,0.1,0.6,0.4,0.9c0.3,0.3,0.7,0.6,1.3,1.1
		c0.4,0.3,0.8,0.7,1.3,1c0.4,0.3,0.8,0.8,1.2,1.3c0.3-0.5,0.7-1,1.2-1.3c0.4-0.3,0.8-0.7,1.3-1c0.5-0.4,0.9-0.8,1.3-1.1
		c0.3-0.3,0.4-0.6,0.4-0.9C54.1,10.7,54,10.1,53.7,9.5z M51.8,60.7c-0.7-0.5-1.3-1.2-1.8-1.9c-0.5,0.7-1.2,1.4-1.8,1.9
		c-0.7,0.5-1.4,1-2.1,1.3c0.7,0.3,1.4,0.8,2.1,1.3c0.7,0.5,1.3,1.1,1.8,1.7c0.5-0.6,1.2-1.2,1.8-1.7c0.7-0.5,1.4-1,2.1-1.3
		C53.2,61.7,52.5,61.3,51.8,60.7z M50.7,28.8v-0.7c0.9,0,1.4-0.3,1.6-0.8c0.2-0.5,0.4-0.9,0.4-1.3h0.6
		C53.3,27.9,52.4,28.8,50.7,28.8z M55.7,14.7v-0.6c-0.2,0.3-0.5,0.6-0.8,0.8c-0.3,0.2-0.6,0.4-1,0.7c-0.3,0.3-0.7,0.6-1,0.9
		c-0.3,0.3-0.7,0.6-1,0.9c1.4,0.4,2.6,1.2,3.6,2.3c0.1-0.9,0.1-1.8,0.1-2.6C55.7,16.3,55.7,15.5,55.7,14.7z M56,63.6
		c-1.2,0.9-2.1,1.6-2.9,2.3c2.7,0.1,5.3,0.4,7.9,0.8c2.6,0.4,4.9,1,7,1.8c-0.7-0.8-1.6-1.8-2.7-3c-1-1.2-1.9-1.9-2.6-2.1
		c1.1,0,2.3-0.2,3.6-0.7c1.3-0.4,2.3-0.7,3.1-0.8c-1.7-1.1-3.8-2-6.4-2.7c-2.6-0.7-6-1.2-10.3-1.4c0.8,0.8,1.8,1.7,3,2.7
		c1.2,1,2.3,1.5,3.3,1.6C58.2,62.2,57.1,62.7,56,63.6z M72.7,47.9c0.9-1.5,1.7-2.9,2.4-4.4c0.7-1.5,1.4-2.9,1.9-4.3
		c0.5-1.4,0.8-2.6,0.8-3.6c0-4.3-2.3-6.8-6.8-7.3c-1.5-0.2-2.9-0.2-4.3,0.1c-1.4,0.3-2.7,0.7-3.9,1.2c-1.2,0.5-2.3,1.2-3.3,1.9
		c-0.9,0.7-1.7,1.5-2.3,2.2c-0.3,2.9-0.6,5.6-0.9,8.3c-0.3,2.7-0.7,4.9-1.2,6.6c0.5,0,0.9,0,1.3,0.1c0.4,0,0.8,0.1,1.2,0.1
		c-0.3-2.1-0.3-3.8-0.2-4.9c0.1-1.1,0.5-2,1.1-2.5c0.4-0.4,0.9-0.6,1.4-0.7c0.5-0.1,1-0.1,1.6,0c0.4-1.1,1-2,1.8-2.7
		c0.6-0.6,1.3-0.9,2-1c0.7-0.1,1.5,0,2.2,0.4c1.2,0.5,2,1.3,2.3,2.5c0.1,0.6,0.2,1.2,0.1,1.7c-0.1,0.5-0.2,1.1-0.3,1.6
		c0.5,0.3,0.9,0.5,1.3,0.8c0.4,0.2,0.6,0.6,0.8,1.1c0.3,0.7,0.2,1.5-0.2,2.5c-0.4,1-1.2,2.3-2.3,3.9c0.2,0.1,0.4,0.2,0.7,0.3
		c0.3,0.1,0.5,0.2,0.7,0.3C71,50.8,71.8,49.4,72.7,47.9z M79.3,48.7c1-1.4,1.9-3,2.7-4.8c0.8-1.8,1.5-3.7,2.1-5.9
		c0.6-2.2,0.9-4.6,0.9-7.3c0-3.1-0.5-5.5-1.4-7.3c-0.9-1.8-2-3.2-3.3-4.1c-1.3-0.9-2.7-1.6-4.1-1.9c-1.4-0.3-2.5-0.5-3.4-0.5
		c-1.1,0-2.3,0.2-3.7,0.5c-1.4,0.3-2.8,0.9-4.2,1.6c-1.4,0.7-2.7,1.6-3.9,2.6c-1.2,1.1-2.2,2.4-2.9,3.9c-0.1,0.5-0.1,1.1-0.2,1.8
		c-0.1,0.7-0.1,1.4-0.2,2.1c1.7-1.4,3.7-2.5,6.1-3.4c2.4-0.8,4.8-1,7.4-0.6c3,0.4,5.3,1.4,6.9,3.1c1.6,1.7,2.4,4,2.4,6.9
		c0,1.3-0.2,2.6-0.7,4.1c-0.5,1.4-1.1,2.9-1.8,4.4c-0.7,1.5-1.5,3-2.4,4.5c-0.9,1.5-1.7,2.9-2.6,4.3l-0.3,0.6
		c0.4,0.3,0.8,0.6,1.3,0.8s0.8,0.4,1.2,0.6c0.2-0.3,0.4-0.7,0.7-1.1c0.3-0.4,0.6-0.8,0.9-1.3C77.4,51.4,78.3,50.1,79.3,48.7z
		 M60.7,42.7c-0.3-0.1-0.5-0.1-0.7,0c-0.1,0-0.2,0.1-0.3,0.1c-0.1,0.3-0.3,0.8-0.4,1.7c-0.1,0.9,0,2.4,0.3,4.5c0.3,0,0.7,0,1,0.1
		C60.3,46.7,60.3,44.5,60.7,42.7z M62.8,43.2c-0.4,1.8-0.4,4,0,6.4c0.3,0,0.5,0,0.7,0.1c1.3-1.5,2.4-3.1,3.3-4.9
		c0.9-1.8,1.3-3.3,1-4.4c-0.1-0.6-0.6-1-1.3-1.1c-0.7-0.3-1.3-0.2-2,0.1C63.7,40.1,63.1,41.4,62.8,43.2z M66.9,50.8
		c1.2-1.7,1.9-3,2.3-3.7c0.3-0.7,0.4-1.2,0.3-1.3c0,0.1-0.2-0.1-0.5-0.4c-0.5,0.9-1.1,1.8-1.7,2.7c-0.6,0.9-1.1,1.6-1.5,2.3
		C66,50.6,66.4,50.8,66.9,50.8z M72.3,63.6h-0.2c-1.4,0.7-2.7,1.1-4,1.2c0.7,0.5,1.3,1.1,1.9,1.8c0.6,0.7,1.1,1.4,1.6,2.1
		c-0.1-0.3-0.2-0.7-0.2-1c0-0.3,0-0.7,0-1.1C71.4,65.8,71.7,64.8,72.3,63.6z"/>

</svg>
