<?xml version="1.0" encoding="utf-8"?>
<!-- Generator: Adobe Illustrator 19.0.0, SVG Export Plug-In . SVG Version: 6.00 Build 0)  -->
<svg version="1.1" id="b" xmlns="http://www.w3.org/2000/svg" xmlns:xlink="http://www.w3.org/1999/xlink" x="0px" y="0px"
	 viewBox="0 0 100 100" enable-background="new 0 0 100 100" xml:space="preserve">

	<path id="XMLID_13_" fill="#FFFFFF" d="M64.7,89.7c-1.7,0.5-3.3,0.8-5,0.8c-2.4,0-4.4-0.4-6-1.1c-1.6-0.8-2.8-1.7-3.7-2.9
		c-0.9,1.1-2.1,2.1-3.8,2.9c-1.6,0.8-3.6,1.1-6,1.1c-1.7,0-3.3-0.3-5-0.8c-1.7-0.5-3.3-1.2-5-1.9l-4.7-1.6c-1.5-0.5-2.9-0.7-4.2-0.7
		c-1.5,0-3.5,0.3-6,0.8c-2.5,0.5-5.1,1.7-7.8,3.5C8,88.8,8.4,88,8.8,87.3c0.4-0.7,0.8-1.3,1.3-1.9c0.5-0.6,1-1.1,1.6-1.6
		c0.6-0.5,1.4-1.1,2.3-1.8c-1.1-0.2-2.2-0.2-3.3-0.1c-1.1,0.1-2.2,0.5-3.3,1.1c0.4-0.6,1-1.3,1.8-2c0.8-0.7,1.6-1.3,2.6-2
		c1-0.6,2-1.1,3.1-1.5c1.1-0.4,2.3-0.6,3.5-0.6c2.1,0,4.5,0.3,7,1c2.5,0.6,4.9,1.3,7.2,2c1.5,0.4,3,0.8,4.3,1.1
		c1.3,0.4,2.4,0.6,3.2,0.6c0.7,0,1.4-0.2,2.1-0.7c0.7-0.4,1.3-1,1.8-1.7c0.5-0.7,0.9-1.4,1.3-2.1c0.3-0.8,0.4-1.5,0.4-2.3
		c-2.8-0.2-5.1-0.7-6.8-1.5c-1.7-0.8-2.7-1.6-2.9-2.5c-0.3-1.2-0.2-2.3,0.3-3.1c0.4-0.9,0.8-2.1,0.9-3.6c0.3-1.1,0.5-2,0.6-2.8
		c0.1-0.8,0.1-1.5,0.1-2.1c0-0.6-0.1-1.3-0.3-1.9c-0.2-0.6-0.4-1.3-0.5-2.2c-0.5-1.3-1.1-2.6-1.8-3.8c-0.7-1.2-1.4-2.5-2.1-3.9
		c-0.7-1.4-1.2-3.1-1.7-4.9c-0.5-1.9-0.7-4.2-0.7-6.9c0-1.8,0.5-3.8,1.3-6.1c0.9-2.2,2.1-4.4,3.6-6.4c1.5-2,3.2-3.8,5.1-5.4
		c1.9-1.5,3.9-2.5,5.9-2.9c-1.1-0.3-2-0.8-2.7-1.7c-0.7-0.9-1-1.9-1-3.1c0-1.5,0.5-2.7,1.4-3.6c0.9-0.9,2.1-1.4,3.5-1.4
		c1.4,0,2.6,0.5,3.6,1.4c1,0.9,1.5,2.1,1.5,3.6c0,1.1-0.4,2.1-1.1,2.9c-0.7,0.8-1.6,1.4-2.6,1.8c1.5,0.3,3.1,1,4.6,2.3
		c1.1-1.5,2.4-2.2,3.8-2.3c-0.9-0.5-1.7-1.1-2.4-1.9c-0.6-0.8-0.9-1.7-0.9-2.8c0-1.5,0.5-2.7,1.4-3.6c1-0.9,2.2-1.4,3.8-1.4
		c1.3,0,2.5,0.5,3.4,1.4c0.9,0.9,1.4,2.1,1.4,3.6c0,1.3-0.4,2.4-1.3,3.3c-0.9,0.9-1.9,1.4-3.2,1.5c1,0.5,2.1,1.4,3.3,2.8
		c1.2,1.4,2.2,3,3.2,5c1,1.9,1.8,4,2.4,6.3c0.6,2.3,1,4.6,1,6.9c0,2.9-0.3,5.2-0.8,7.1c-0.5,1.8-1.1,3.4-1.8,4.8
		c-0.7,1.4-1.4,2.6-2.1,3.7c-0.7,1.1-1.3,2.3-1.7,3.8c-0.2,0.8-0.4,1.5-0.6,2.1c-0.2,0.6-0.3,1.2-0.3,1.9c-0.1,0.6-0.1,1.3,0,2.1
		c0.1,0.8,0.2,1.7,0.5,2.8c0.3,1.5,0.7,2.7,1,3.7c0.3,1,0.5,2,0.5,3.3c0,0.9-1,1.8-2.9,2.6c-1.9,0.8-4.3,1.3-7.3,1.4
		c0,0.7,0.2,1.5,0.5,2.3c0.3,0.8,0.7,1.5,1.3,2.1c0.5,0.7,1.2,1.2,1.8,1.7c0.7,0.4,1.4,0.7,2.2,0.7c0.7,0,1.8-0.2,3.1-0.6
		c1.3-0.4,2.8-0.8,4.3-1.1c2.3-0.7,4.8-1.4,7.3-2c2.5-0.6,4.8-1,6.9-1c1.1,0,2.3,0.2,3.4,0.6c1.1,0.4,2.1,0.9,3.1,1.5
		c1,0.6,1.8,1.3,2.6,2c0.8,0.7,1.3,1.3,1.8,2c-1.1-0.6-2.1-1-3.2-1.1c-1-0.1-2.1-0.1-3.3,0.1c0.9,0.7,1.6,1.3,2.2,1.8
		c0.6,0.5,1.1,1,1.6,1.6c0.5,0.6,1,1.2,1.4,1.9c0.4,0.7,0.8,1.5,1.2,2.4c-2.8-1.8-5.4-3-7.9-3.5c-2.5-0.5-4.5-0.8-6.1-0.8
		c-1.3,0-2.7,0.3-4.2,0.8s-3,1-4.5,1.6C68,88.6,66.4,89.2,64.7,89.7z"/>

	<path id="XMLID_4_" d="M64.7,89.7c-1.7,0.5-3.3,0.8-5,0.8c-2.4,0-4.4-0.4-6-1.1c-1.6-0.8-2.8-1.7-3.7-2.9c-0.9,1.1-2.1,2.1-3.8,2.9
		c-1.6,0.8-3.6,1.1-6,1.1c-1.7,0-3.3-0.3-5-0.8c-1.7-0.5-3.3-1.2-5-1.9l-4.7-1.6c-1.5-0.5-2.9-0.7-4.2-0.7c-1.5,0-3.5,0.3-6,0.8
		c-2.5,0.5-5.1,1.7-7.8,3.5C8,88.8,8.4,88,8.8,87.3c0.4-0.7,0.8-1.3,1.3-1.9c0.5-0.6,1-1.1,1.6-1.6c0.6-0.5,1.4-1.1,2.3-1.8
		c-1.1-0.2-2.2-0.2-3.3-0.1c-1.1,0.1-2.2,0.5-3.3,1.1c0.4-0.6,1-1.3,1.8-2c0.8-0.7,1.6-1.3,2.6-2c1-0.6,2-1.1,3.1-1.5
		c1.1-0.4,2.3-0.6,3.5-0.6c2.1,0,4.5,0.3,7,1c2.5,0.6,4.9,1.3,7.2,2c1.5,0.4,3,0.8,4.3,1.1c1.3,0.4,2.4,0.6,3.2,0.6
		c0.7,0,1.4-0.2,2.1-0.7c0.7-0.4,1.3-1,1.8-1.7c0.5-0.7,0.9-1.4,1.3-2.1c0.3-0.8,0.4-1.5,0.4-2.3c-2.8-0.2-5.1-0.7-6.8-1.5
		c-1.7-0.8-2.7-1.6-2.9-2.5c-0.3-1.2-0.2-2.3,0.3-3.1c0.4-0.9,0.8-2.1,0.9-3.6c0.3-1.1,0.5-2,0.6-2.8c0.1-0.8,0.1-1.5,0.1-2.1
		c0-0.6-0.1-1.3-0.3-1.9c-0.2-0.6-0.4-1.3-0.5-2.2c-0.5-1.3-1.1-2.6-1.8-3.8c-0.7-1.2-1.4-2.5-2.1-3.9c-0.7-1.4-1.2-3.1-1.7-4.9
		c-0.5-1.9-0.7-4.2-0.7-6.9c0-1.8,0.5-3.8,1.3-6.1c0.9-2.2,2.1-4.4,3.6-6.4c1.5-2,3.2-3.8,5.1-5.4c1.9-1.5,3.9-2.5,5.9-2.9
		c-1.1-0.3-2-0.8-2.7-1.7c-0.7-0.9-1-1.9-1-3.1c0-1.5,0.5-2.7,1.4-3.6c0.9-0.9,2.1-1.4,3.5-1.4c1.4,0,2.6,0.5,3.6,1.4
		c1,0.9,1.5,2.1,1.5,3.6c0,1.1-0.4,2.1-1.1,2.9c-0.7,0.8-1.6,1.4-2.6,1.8c1.5,0.3,3.1,1,4.6,2.3c1.1-1.5,2.4-2.2,3.8-2.3
		c-0.9-0.5-1.7-1.1-2.4-1.9c-0.6-0.8-0.9-1.7-0.9-2.8c0-1.5,0.5-2.7,1.4-3.6c1-0.9,2.2-1.4,3.8-1.4c1.3,0,2.5,0.5,3.4,1.4
		c0.9,0.9,1.4,2.1,1.4,3.6c0,1.3-0.4,2.4-1.3,3.3c-0.9,0.9-1.9,1.4-3.2,1.5c1,0.5,2.1,1.4,3.3,2.8c1.2,1.4,2.2,3,3.2,5
		c1,1.9,1.8,4,2.4,6.3c0.6,2.3,1,4.6,1,6.9c0,2.9-0.3,5.2-0.8,7.1c-0.5,1.8-1.1,3.4-1.8,4.8c-0.7,1.4-1.4,2.6-2.1,3.7
		c-0.7,1.1-1.3,2.3-1.7,3.8c-0.2,0.8-0.4,1.5-0.6,2.1c-0.2,0.6-0.3,1.2-0.3,1.9c-0.1,0.6-0.1,1.3,0,2.1c0.1,0.8,0.2,1.7,0.5,2.8
		c0.3,1.5,0.7,2.7,1,3.7c0.3,1,0.5,2,0.5,3.3c0,0.9-1,1.8-2.9,2.6c-1.9,0.8-4.3,1.3-7.3,1.4c0,0.7,0.2,1.5,0.5,2.3
		c0.3,0.8,0.7,1.5,1.3,2.1c0.5,0.7,1.2,1.2,1.8,1.7c0.7,0.4,1.4,0.7,2.2,0.7c0.7,0,1.8-0.2,3.1-0.6c1.3-0.4,2.8-0.8,4.3-1.1
		c2.3-0.7,4.8-1.4,7.3-2c2.5-0.6,4.8-1,6.9-1c1.1,0,2.3,0.2,3.4,0.6c1.1,0.4,2.1,0.9,3.1,1.5c1,0.6,1.8,1.3,2.6,2
		c0.8,0.7,1.3,1.3,1.8,2c-1.1-0.6-2.1-1-3.2-1.1c-1-0.1-2.1-0.1-3.3,0.1c0.9,0.7,1.6,1.3,2.2,1.8c0.6,0.5,1.1,1,1.6,1.6
		c0.5,0.6,1,1.2,1.4,1.9c0.4,0.7,0.8,1.5,1.2,2.4c-2.8-1.8-5.4-3-7.9-3.5c-2.5-0.5-4.5-0.8-6.1-0.8c-1.3,0-2.7,0.3-4.2,0.8
		s-3,1-4.5,1.6C68,88.6,66.4,89.2,64.7,89.7z M57,67.8c2.3,0.7,4,1.5,5.1,2.4l-1-4c-1.5-0.9-3.3-1.7-5.4-2.2c-2.1-0.5-4-0.8-5.7-0.8
		c-1.8,0-3.7,0.3-5.8,0.8c-2,0.5-3.8,1.3-5.3,2.2l-1,4c0.5-0.4,1.3-0.8,2.1-1.3c0.9-0.4,1.9-0.8,3-1.1c1.1-0.3,2.2-0.6,3.4-0.8
		c1.2-0.2,2.4-0.3,3.6-0.3C52.3,66.7,54.7,67.1,57,67.8z M40.3,58.1c0.7-0.6,1.9-1.1,3.6-1.6c1.7-0.5,3.8-0.7,6.1-0.7
		c2.3,0,4.4,0.2,6.1,0.7c1.7,0.5,2.9,1,3.6,1.6l1.2-3.2c-1.1-0.9-2.6-1.6-4.4-2c-1.8-0.4-4-0.5-6.5-0.5c-2.5,0-4.7,0.2-6.5,0.7
		c-1.8,0.4-3.2,1.1-4.3,2.1L40.3,58.1z M43.4,61.9c-0.7-0.1-1.2-0.4-1.7-0.8c-0.5-0.4-1-0.9-1.4-1.4c0.1,1,0.2,1.7,0.1,2.2
		c-0.1,0.5-0.2,1.2-0.4,2.2C40.7,63,41.9,62.3,43.4,61.9z M41.4,35.1h5.2v10.3h3.5V35.1h5.2v-4h-5.2v-7.7h-3.5v7.7h-5.2V35.1z
		 M50,62.4c0.9-1.4,2.2-2.3,3.7-2.6c-1.5-0.3-2.8-1.2-3.7-2.6c-0.9,1.4-2.2,2.3-3.9,2.6C47.8,60.2,49.1,61,50,62.4z M63.3,45.8
		c0.3,0.1,0.5,0.1,0.5-0.2l0.2-1.4c0.4-3.6,0.5-6.7,0.3-9.4c-0.2-2.7-0.5-5-1.1-6.9c-0.6-1.9-1.3-3.6-2.1-5
		c-0.8-1.4-1.7-2.6-2.6-3.7l-1-1c-0.5-0.4-0.8-0.6-0.9-0.6c-0.1,0-0.2,0.1-0.4,0.3c-0.3,0.3-0.6,0.5-0.7,0.8l-0.2,0.4l1,1l0.6,1
		c2.1,2.3,3.8,5.3,4.8,8.9c1.1,3.6,1.5,8.4,1.2,14.5C63,45.3,63.1,45.8,63.3,45.8z M59.5,61.9c0-0.5,0-1.2,0.3-2.2
		c-0.5,0.5-1,1-1.5,1.4c-0.5,0.4-1.1,0.7-1.7,0.8c1.3,0.3,2.5,1,3.5,2.2C59.7,63.1,59.5,62.4,59.5,61.9z"/>

</svg>
