<?xml version="1.0" encoding="utf-8"?>
<!-- Generator: Adobe Illustrator 19.0.0, SVG Export Plug-In . SVG Version: 6.00 Build 0)  -->
<svg version="1.1" id="n" xmlns="http://www.w3.org/2000/svg" xmlns:xlink="http://www.w3.org/1999/xlink" x="0px" y="0px"
	 viewBox="0 0 100 100" enable-background="new 0 0 100 100" xml:space="preserve">

	<path id="XMLID_13_" fill="#FFFFFF" d="M24.9,85.4c-0.3-0.3-0.5-0.6-0.5-0.9c0-1.4,0.4-2.9,1.3-4.5c0.8-1.6,1.9-3.3,3.2-5
		c1.3-1.7,2.7-3.3,4.3-4.9c1.6-1.6,3.1-3,4.6-4.4c1.5-1.3,2.8-2.4,4-3.3c1.2-0.9,2.1-1.6,2.6-1.9c1.1-0.7,2.1-1.4,2.8-2.3
		c0.7-0.9,1.3-1.8,1.8-2.7c0.4-0.9,0.8-1.8,1-2.7c0.2-0.9,0.3-1.7,0.4-2.3c-1.1,0.5-2.4,1-3.8,1.3c-1.4,0.3-2.9,0.5-4.5,0.5
		c-1.1,0-2.2-0.3-3.1-1c-0.7,0.4-1.6,0.9-2.6,1.5c-1,0.6-1.9,1.3-2.9,2.1c-1,0.8-1.9,1.7-2.7,2.6c-0.8,1-1.4,2-1.9,3l-0.3,1.3
		c-0.3,0.7-0.8,1.5-1.3,2.4c-0.5,0.9-1.5,1.3-2.9,1.3c-1.1,0-2.1-0.4-3-1.3c-0.3-0.4-0.4-1.1-0.4-2.1c0-1-0.1-2.2-0.1-3.6
		c0-0.1,0-0.3,0.1-0.5c0-0.2,0-0.4,0-0.6c-1.2,1.3-2.5,2.6-3.8,3.7c-1.3,1.1-2.4,1.7-3.4,1.7c-1,0-1.8-0.3-2.5-0.9
		c-0.3-0.5-0.6-1.2-0.9-2c-0.3-0.8-0.4-1.8-0.4-3v-1c0.1-1.7,0.7-3.7,1.6-5.7c0.9-2.1,2-4.1,3.2-6c1.2-1.9,2.3-3.6,3.4-5.1l2.3-3
		c2.5-3.3,5-6.4,7.4-9.1c2.4-2.8,4.5-4.6,6.3-5.5c-0.1-1.1-0.3-2.1-0.5-2.9c-0.2-0.8-0.4-1.5-0.6-2.1c-0.3-0.6-0.6-1.3-1-1.9
		c-0.4-0.6-1-1.3-1.6-2c-0.1-0.1-0.3-0.2-0.3-0.3c-0.1-0.2-0.2-0.3-0.2-0.5c0-0.4,0.1-0.7,0.2-0.8c0.3-0.5,0.8-0.7,1.4-0.5
		c1.7,0.3,3,0.6,4,1.1c0.9,0.5,1.7,1,2.3,1.5l0.6,0.4c0.9,0.3,1.4,0.8,1.7,1.3v-2.7c0-0.7,0-1.2,0-1.5c0-0.4-0.2-0.6-0.5-0.9
		c-0.3-0.3-0.4-0.7-0.4-1.2c0-0.4,0-0.6,0.1-0.7c0.3-0.3,0.5-0.5,0.8-0.6c0.3-0.1,0.6-0.1,0.9,0c2.3,1.1,4.1,2.2,5.4,3.3
		c1.2,1.1,2.2,2.3,2.8,3.6l0.7,2.3c0.3,0.1,0.7,0.3,1.2,0.4l0.8,0.1c0.2,0,0.4,0,0.7,0.1c0.2,0.1,0.4,0.1,0.6,0.2l5.3-0.4
		c0.8,0,1.3,0.4,1.4,1.1v0.8c0.1,0.5,0.2,0.9,0.3,1.4c0.5,0,1.3,0.1,2.2,0.3c0.9,0.2,1.7,0.3,2.3,0.4c0.6,0.1,1,0.2,1.2,0.2
		c0.7,0.3,1.1,0.8,1.1,1.5L67,23.3c0,0.6,0,1.2,0,1.8c0.5,0.1,1.3,0.2,2.2,0.5c0.9,0.2,1.6,0.4,2.3,0.6c0.6,0.2,0.9,0.3,1,0.3
		c0.7,0,1,0.4,1,1.3v0.3l-0.3,1c-0.1,0.6-0.3,1.2-0.5,1.8c0.6,0.1,1.4,0.3,2.4,0.6c1,0.3,1.8,0.5,2.5,0.7c0.7,0.2,1.1,0.3,1.2,0.3
		c0.2,0.1,0.3,0.3,0.4,0.4c0.1,0.1,0.2,0.2,0.3,0.4c0.1,0.1,0.1,0.3,0.1,0.6c0,0.3-0.1,0.6-0.3,0.9l-0.7,0.9c-0.5,0.6-1,1.2-1.5,1.9
		c0.6,0.3,1.3,0.7,2.1,1.2c0.8,0.5,1.5,0.9,2,1.1c0.5,0.3,0.8,0.5,0.9,0.6c0.3,0.1,0.6,0.5,0.7,1v0.3c0,0.1,0,0.3-0.1,0.5
		c-0.1,0.2-0.2,0.3-0.3,0.3l-0.6,0.7c-0.4,0.5-0.9,0.9-1.4,1.3c0.5,0.4,1.3,1,2.2,1.7c0.9,0.7,1.6,1.3,2.3,1.8
		c0.6,0.5,0.9,0.7,1,0.8c0.3,0.3,0.4,0.6,0.4,1v0.4c-0.2,0.7-0.6,1-1.2,1h-0.8c-0.5-0.1-1-0.1-1.5-0.1c0.7,0.7,1.4,1.5,2.2,2.4
		c0.8,0.9,1.5,1.6,2,2.1c0.5,0.5,0.8,0.8,0.8,0.9c0.1,0.1,0.1,0.3,0.2,0.5c0.1,0.2,0.1,0.4,0.1,0.5c0,0.2-0.1,0.4-0.2,0.6
		c-0.1,0.5-0.6,0.7-1.3,0.7h-0.7c-0.5-0.1-1-0.1-1.6-0.1c0.6,0.8,1.3,1.7,2.1,2.7s1.5,1.8,2,2.4c0.5,0.6,0.8,0.9,0.8,1
		c0.1,0.1,0.1,0.3,0.2,0.4c0.1,0.2,0.1,0.3,0.1,0.5c0,0.1,0,0.3-0.1,0.4c-0.1,0.1-0.1,0.2-0.1,0.3c-0.4,0.5-0.9,0.7-1.4,0.7
		l-2.8-0.7c0.5,0.9,1,1.8,1.6,3c0.6,1.1,1.1,2,1.5,2.6c0.4,0.7,0.6,1.1,0.7,1.2c0.2,0.2,0.3,0.4,0.3,0.7c0,0.3-0.1,0.6-0.3,0.9
		c-0.1,0.1-0.2,0.3-0.5,0.4c-0.3,0.1-0.5,0.1-0.8,0L86.7,75c-0.4-0.1-0.8-0.1-1.3-0.2c0.5,0.9,1.1,1.8,1.8,2.8
		c0.7,1,1.3,1.9,1.7,2.5c0.4,0.6,0.6,1,0.7,1c0.1,0.1,0.1,0.4,0.1,0.7c0,0.4-0.1,0.7-0.3,0.9c-0.3,0.5-0.8,0.7-1.3,0.6l-0.9-0.3
		c-0.5-0.1-1.1-0.3-1.8-0.4c0.3,0.3,0.5,0.6,0.6,0.9l0.3,0.5c0.1,0.1,0.1,0.2,0.2,0.3c0.1,0.1,0.1,0.2,0.1,0.3c0,0.3-0.2,0.7-0.5,1
		c-0.5,0.5-1,0.5-1.5,0.2l-1.7-0.7c-0.4,0.4-0.7,0.6-1,0.6h-56C25.5,85.8,25.1,85.7,24.9,85.4z"/>

	<path id="XMLID_4_" d="M24.9,85.4c-0.3-0.3-0.5-0.6-0.5-0.9c0-1.4,0.4-2.9,1.3-4.5c0.8-1.6,1.9-3.3,3.2-5c1.3-1.7,2.7-3.3,4.3-4.9
		c1.6-1.6,3.1-3,4.6-4.4c1.5-1.3,2.8-2.4,4-3.3c1.2-0.9,2.1-1.6,2.6-1.9c1.1-0.7,2.1-1.4,2.8-2.3c0.7-0.9,1.3-1.8,1.8-2.7
		c0.4-0.9,0.8-1.8,1-2.7c0.2-0.9,0.3-1.7,0.4-2.3c-1.1,0.5-2.4,1-3.8,1.3c-1.4,0.3-2.9,0.5-4.5,0.5c-1.1,0-2.2-0.3-3.1-1
		c-0.7,0.4-1.6,0.9-2.6,1.5c-1,0.6-1.9,1.3-2.9,2.1c-1,0.8-1.9,1.7-2.7,2.6c-0.8,1-1.4,2-1.9,3l-0.3,1.3c-0.3,0.7-0.8,1.5-1.3,2.4
		c-0.5,0.9-1.5,1.3-2.9,1.3c-1.1,0-2.1-0.4-3-1.3c-0.3-0.4-0.4-1.1-0.4-2.1c0-1-0.1-2.2-0.1-3.6c0-0.1,0-0.3,0.1-0.5
		c0-0.2,0-0.4,0-0.6c-1.2,1.3-2.5,2.6-3.8,3.7c-1.3,1.1-2.4,1.7-3.4,1.7c-1,0-1.8-0.3-2.5-0.9c-0.3-0.5-0.6-1.2-0.9-2
		c-0.3-0.8-0.4-1.8-0.4-3v-1c0.1-1.7,0.7-3.7,1.6-5.7c0.9-2.1,2-4.1,3.2-6c1.2-1.9,2.3-3.6,3.4-5.1l2.3-3c2.5-3.3,5-6.4,7.4-9.1
		c2.4-2.8,4.5-4.6,6.3-5.5c-0.1-1.1-0.3-2.1-0.5-2.9c-0.2-0.8-0.4-1.5-0.6-2.1c-0.3-0.6-0.6-1.3-1-1.9c-0.4-0.6-1-1.3-1.6-2
		c-0.1-0.1-0.3-0.2-0.3-0.3c-0.1-0.2-0.2-0.3-0.2-0.5c0-0.4,0.1-0.7,0.2-0.8c0.3-0.5,0.8-0.7,1.4-0.5c1.7,0.3,3,0.6,4,1.1
		c0.9,0.5,1.7,1,2.3,1.5l0.6,0.4c0.9,0.3,1.4,0.8,1.7,1.3v-2.7c0-0.7,0-1.2,0-1.5c0-0.4-0.2-0.6-0.5-0.9c-0.3-0.3-0.4-0.7-0.4-1.2
		c0-0.4,0-0.6,0.1-0.7c0.3-0.3,0.5-0.5,0.8-0.6c0.3-0.1,0.6-0.1,0.9,0c2.3,1.1,4.1,2.2,5.4,3.3c1.2,1.1,2.2,2.3,2.8,3.6l0.7,2.3
		c0.3,0.1,0.7,0.3,1.2,0.4l0.8,0.1c0.2,0,0.4,0,0.7,0.1c0.2,0.1,0.4,0.1,0.6,0.2l5.3-0.4c0.8,0,1.3,0.4,1.4,1.1v0.8
		c0.1,0.5,0.2,0.9,0.3,1.4c0.5,0,1.3,0.1,2.2,0.3c0.9,0.2,1.7,0.3,2.3,0.4c0.6,0.1,1,0.2,1.2,0.2c0.7,0.3,1.1,0.8,1.1,1.5L67,23.3
		c0,0.6,0,1.2,0,1.8c0.5,0.1,1.3,0.2,2.2,0.5c0.9,0.2,1.6,0.4,2.3,0.6c0.6,0.2,0.9,0.3,1,0.3c0.7,0,1,0.4,1,1.3v0.3l-0.3,1
		c-0.1,0.6-0.3,1.2-0.5,1.8c0.6,0.1,1.4,0.3,2.4,0.6c1,0.3,1.8,0.5,2.5,0.7c0.7,0.2,1.1,0.3,1.2,0.3c0.2,0.1,0.3,0.3,0.4,0.4
		c0.1,0.1,0.2,0.2,0.3,0.4c0.1,0.1,0.1,0.3,0.1,0.6c0,0.3-0.1,0.6-0.3,0.9l-0.7,0.9c-0.5,0.6-1,1.2-1.5,1.9c0.6,0.3,1.3,0.7,2.1,1.2
		c0.8,0.5,1.5,0.9,2,1.1c0.5,0.3,0.8,0.5,0.9,0.6c0.3,0.1,0.6,0.5,0.7,1v0.3c0,0.1,0,0.3-0.1,0.5c-0.1,0.2-0.2,0.3-0.3,0.3l-0.6,0.7
		c-0.4,0.5-0.9,0.9-1.4,1.3c0.5,0.4,1.3,1,2.2,1.7c0.9,0.7,1.6,1.3,2.3,1.8c0.6,0.5,0.9,0.7,1,0.8c0.3,0.3,0.4,0.6,0.4,1v0.4
		c-0.2,0.7-0.6,1-1.2,1h-0.8c-0.5-0.1-1-0.1-1.5-0.1c0.7,0.7,1.4,1.5,2.2,2.4c0.8,0.9,1.5,1.6,2,2.1c0.5,0.5,0.8,0.8,0.8,0.9
		c0.1,0.1,0.1,0.3,0.2,0.5c0.1,0.2,0.1,0.4,0.1,0.5c0,0.2-0.1,0.4-0.2,0.6c-0.1,0.5-0.6,0.7-1.3,0.7h-0.7c-0.5-0.1-1-0.1-1.6-0.1
		c0.6,0.8,1.3,1.7,2.1,2.7s1.5,1.8,2,2.4c0.5,0.6,0.8,0.9,0.8,1c0.1,0.1,0.1,0.3,0.2,0.4c0.1,0.2,0.1,0.3,0.1,0.5
		c0,0.1,0,0.3-0.1,0.4c-0.1,0.1-0.1,0.2-0.1,0.3c-0.4,0.5-0.9,0.7-1.4,0.7l-2.8-0.7c0.5,0.9,1,1.8,1.6,3c0.6,1.1,1.1,2,1.5,2.6
		c0.4,0.7,0.6,1.1,0.7,1.2c0.2,0.2,0.3,0.4,0.3,0.7c0,0.3-0.1,0.6-0.3,0.9c-0.1,0.1-0.2,0.3-0.5,0.4c-0.3,0.1-0.5,0.1-0.8,0L86.7,75
		c-0.4-0.1-0.8-0.1-1.3-0.2c0.5,0.9,1.1,1.8,1.8,2.8c0.7,1,1.3,1.9,1.7,2.5c0.4,0.6,0.6,1,0.7,1c0.1,0.1,0.1,0.4,0.1,0.7
		c0,0.4-0.1,0.7-0.3,0.9c-0.3,0.5-0.8,0.7-1.3,0.6l-0.9-0.3c-0.5-0.1-1.1-0.3-1.8-0.4c0.3,0.3,0.5,0.6,0.6,0.9l0.3,0.5
		c0.1,0.1,0.1,0.2,0.2,0.3c0.1,0.1,0.1,0.2,0.1,0.3c0,0.3-0.2,0.7-0.5,1c-0.5,0.5-1,0.5-1.5,0.2l-1.7-0.7c-0.4,0.4-0.7,0.6-1,0.6
		h-56C25.5,85.8,25.1,85.7,24.9,85.4z M18.2,49.4c-0.7,0.3-1.4,0.9-2.1,1.7c-0.7,0.7-1.2,1.5-1.4,2.3c-0.2,0.8-0.1,1.4,0.2,1.7
		c0.3,0.2,0.9,0.1,1.6-0.2c0.7-0.3,1.4-0.9,2.1-1.8c0.7-0.7,1.2-1.5,1.4-2.2c0.2-0.8,0.2-1.3-0.1-1.5C19.5,49.1,18.9,49.1,18.2,49.4
		z M33.7,34.1c0.2,0.2,0.4,0.3,0.6,0.3c0.1,0.1,0.4,0,0.7-0.1c0.3-0.1,0.6-0.3,0.7-0.5c0.3-0.6,0.6-1.2,1.1-1.9
		c0.5-0.6,1-1.2,1.5-1.8c0.6-0.6,1.2-1,1.9-1.4c0.7-0.3,1.4-0.5,2.2-0.4c0.6,0.1,0.9-0.1,0.9-0.6c0-0.3-0.2-0.6-0.7-0.9
		c-1.1-0.1-2.1,0.1-3.1,0.5c-1,0.4-2,0.9-2.8,1.5c-0.8,0.6-1.5,1.4-2.1,2.1c-0.6,0.8-0.9,1.6-1,2.4C33.5,33.7,33.5,33.9,33.7,34.1z
		 M42.5,31.9c-0.6-0.6-1.3-0.9-2-0.9c-0.7,0-1.3,0.3-1.8,0.9c-0.5,0.6-0.7,1.3-0.7,2.1c0,0.8,0.2,1.5,0.7,2c0.5,0.6,1.1,0.9,1.8,0.9
		c0.8,0,1.5-0.3,2-0.9c0.6-0.6,0.8-1.3,0.8-2C43.3,33.2,43,32.5,42.5,31.9z M59.5,40c-0.4,1.1-0.9,2.3-1.5,3.4c-0.6,1.1-1.2,2.1-2,3
		c-0.7,0.9-1.5,1.5-2.4,1.9c-0.7,0.3-0.9,0.9-0.6,1.7c0.1,0.4,0.3,0.5,0.6,0.4c0.3-0.1,0.6-0.3,0.9-0.4c1.3-0.5,2.4-1.3,3.4-2.4
		c1-1.1,1.9-2.3,2.6-3.6c0.7-1.3,1.3-2.5,1.7-3.6c0.4-1.1,0.6-2,0.7-2.5c0.1-0.3,0-0.7-0.2-1.1c-0.2-0.4-0.5-0.6-0.8-0.6
		c-1,0-1.6,0.4-1.7,1.1C60.2,38,59.9,38.9,59.5,40z M61.3,50.8c-1,0.7-2.8,1.2-5.3,1.4h-1.1c-0.4,0-0.6,0.2-0.6,0.5
		c0,0.4,0.2,0.7,0.6,0.8c0.4,0.1,0.8,0.1,1.2,0c1.4-0.1,2.6-0.2,3.6-0.4s1.9-0.5,2.6-0.9c0.7-0.4,1.4-0.9,1.9-1.5
		c0.5-0.6,1-1.4,1.4-2.3c0.1-0.3,0.2-0.6,0.2-0.9c0-0.3-0.2-0.6-0.7-0.7c-0.6-0.3-1.1,0-1.4,0.9C63.2,49.1,62.4,50.1,61.3,50.8z
		 M59.1,56.3c-1.4,0-2.4-0.1-3.1-0.4c-0.5-0.1-0.8-0.1-1-0.2c-0.2,0-0.3,0.1-0.5,0.5c-0.1,0.3,0.1,0.6,0.6,0.8
		c0.5,0.2,0.9,0.4,1.3,0.5c0.5,0.1,1,0.3,1.7,0.4c0.7,0.1,1.4,0.2,2.1,0.1c0.7-0.1,1.4-0.2,2.1-0.5c0.7-0.3,1.4-0.7,2-1.3
		c0.5-0.4,0.7-0.8,0.7-1.3c-0.1-0.4-0.3-0.7-0.7-0.9c-0.4-0.2-0.9,0-1.4,0.5C61.8,55.7,60.5,56.3,59.1,56.3z M55.6,25.2
		c-0.1,0.3-0.2,0.8-0.1,1.3c0.1,0.5,0.3,0.9,0.6,1.2c3.2,1.4,5.9,3.4,8.2,5.9c2.2,2.5,4.1,5.3,5.5,8.4c1.4,3.1,2.5,6.5,3.3,10.1
		c0.8,3.6,1.3,7.2,1.7,10.8c0.3,3.6,0.5,7.2,0.5,10.7c0,3.5-0.1,6.6-0.3,9.5H79c0.1-3,0.2-6.3,0.1-10c-0.1-3.6-0.3-7.3-0.8-11.2
		c-0.5-3.8-1.2-7.6-2.1-11.4c-0.9-3.8-2.2-7.4-3.9-10.7c-1.6-3.3-3.7-6.4-6.1-9.1c-2.5-2.7-5.4-4.8-8.9-6.4
		C56.5,24.2,55.9,24.4,55.6,25.2z"/>

</svg>
