<?xml version="1.0" encoding="utf-8"?>
<!-- Generator: Adobe Illustrator 19.0.0, SVG Export Plug-In . SVG Version: 6.00 Build 0)  -->
<svg version="1.1" id="Q" xmlns="http://www.w3.org/2000/svg" xmlns:xlink="http://www.w3.org/1999/xlink" x="0px" y="0px"
	 viewBox="0 0 100 100" enable-background="new 0 0 100 100" xml:space="preserve">

	<path id="XMLID_17_" fill="#FFFFFF" d="M89.3,27.2c1.2,1.2,1.8,2.6,1.8,4.3c0,1.7-0.6,3.2-1.8,4.3c-1.2,1.1-2.6,1.7-4.3,1.7
		c-0.2,0-0.4,0-0.7,0c-0.2,0-0.4-0.1-0.6-0.2c-0.7,0.9-1.4,2.1-2.3,3.5c-0.8,1.4-1.7,2.9-2.5,4.5c-0.8,1.6-1.5,3.1-2.2,4.5
		c-0.7,1.4-1.1,2.6-1.4,3.4c0.5,0.3,0.8,0.5,1.1,0.8c0.3,0.3,0.5,0.7,0.8,1.4l0.1,1.5c0,1.1-0.3,2-0.8,2.8c-0.5,0.7-1.1,1.3-1.6,1.8
		c-0.2,0.2-0.5,0.5-1,1c-0.4,0.4-0.8,1-1.1,1.8c-0.5,0.8-0.8,1.5-1,2.1c-0.2,0.6-0.3,1.4-0.3,2.4v1.5c-0.1,0.3-0.2,0.7-0.2,1
		c0,0.3,0,0.5,0.1,0.8c0.1,0.2,0.1,0.5,0.2,1c0.1,0.6,0.4,1.3,0.8,2c0.4,0.7,0.7,1.2,0.8,1.3v0.2c0.5,0.5,0.7,1,0.7,1.7
		c0,1.3-0.8,2.4-2.5,3.3c-1.7,0.8-3.7,1.5-6.2,2s-5,0.8-7.8,1c-2.8,0.2-5.3,0.3-7.5,0.3c-2.2,0-4.7-0.1-7.5-0.3
		c-2.8-0.2-5.4-0.5-7.8-1c-2.4-0.5-4.5-1.2-6.2-2c-1.7-0.8-2.5-1.9-2.5-3.3c0-0.7,0.2-1.3,0.6-1.9c0.1-0.1,0.4-0.6,0.8-1.3
		c0.4-0.7,0.7-1.4,0.8-2c0.1-0.4,0.2-0.7,0.3-1c0-0.2,0-0.5,0-0.8v-1l-0.2-1.5c0-1-0.1-1.8-0.3-2.4c-0.2-0.6-0.5-1.3-1-2.2
		c-0.3-0.7-0.7-1.2-1.1-1.7c-0.4-0.4-0.8-0.8-1-1c-0.5-0.5-1.1-1.1-1.6-1.8c-0.5-0.7-0.8-1.6-0.8-2.8l0.3-1.5
		c0.1-0.7,0.3-1.1,0.6-1.4c0.3-0.3,0.6-0.5,1.1-0.8c-0.3-0.9-0.7-2-1.4-3.4c-0.6-1.4-1.4-2.9-2.1-4.5c-0.8-1.6-1.6-3.1-2.5-4.5
		c-0.8-1.4-1.6-2.6-2.3-3.5c-0.2,0.1-0.4,0.2-0.7,0.2c-0.3,0-0.5,0-0.7,0c-1.7,0-3.1-0.6-4.3-1.7C9.6,34.6,9,33.2,9,31.4
		c0-1.7,0.6-3.1,1.8-4.3c1.2-1.2,2.6-1.8,4.3-1.8c1.7,0,3.1,0.6,4.3,1.8c1.2,1.2,1.8,2.6,1.8,4.3c0,1.9-0.6,3.3-1.9,4.4
		c0.9,0.7,1.9,1.5,3,2.4c1.2,1,2.4,2,3.6,3.1c1.2,1.1,2.4,2.2,3.6,3.4c1.2,1.1,2.2,2.2,3.1,3.2v-2.4c0-1.7,0-3.4-0.1-5.3
		c-0.1-1.8-0.2-3.6-0.3-5.3c-0.2-1.7-0.3-3.4-0.5-4.9c-0.2-1.5-0.4-2.8-0.5-3.9c-1.6-0.1-2.9-0.8-4-1.9c-1-1.1-1.6-2.5-1.6-4.1
		c0-1.7,0.6-3.2,1.7-4.3c1.1-1.1,2.6-1.7,4.3-1.7c1.7,0,3.1,0.6,4.3,1.7c1.2,1.1,1.8,2.6,1.8,4.3c0,1.3-0.3,2.3-0.9,3.2
		c-0.6,0.9-1.4,1.6-2.4,2.1c1.9,2.7,3.6,5.7,5,9c1.4,3.3,2.8,7,4.4,11c0.4-2,0.8-4.3,1.3-6.9c0.5-2.6,0.9-5.1,1.4-7.6
		c0.5-2.5,0.9-4.8,1.3-7c0.4-2.2,0.7-3.9,1-5.1c-1.3-0.3-2.3-1-3.2-2.1c-0.8-1.1-1.3-2.3-1.3-3.6c0-1.7,0.6-3.1,1.8-4.3
		c1.2-1.2,2.6-1.8,4.3-1.8c1.7,0,3.1,0.6,4.3,1.8c1.2,1.2,1.8,2.6,1.8,4.3c0,1.3-0.4,2.5-1.3,3.6c-0.9,1.1-1.9,1.8-3.2,2.1
		c0.3,1.3,0.6,3,1,5.1c0.4,2.2,0.8,4.5,1.3,7c0.5,2.5,0.9,5,1.4,7.6c0.5,2.6,0.9,4.9,1.3,6.9c1.5-4,3-7.7,4.4-11c1.4-3.3,3-6.3,5-9
		c-2.1-1.1-3.2-2.8-3.2-5.3c0-1.7,0.6-3.2,1.7-4.3c1.1-1.1,2.6-1.7,4.3-1.7c1.7,0,3.1,0.6,4.3,1.7c1.2,1.1,1.8,2.6,1.8,4.3
		c0,1.6-0.5,3-1.6,4.1c-1.1,1.1-2.4,1.8-4,1.9c-0.2,1.1-0.4,2.4-0.5,3.9c-0.2,1.5-0.3,3.1-0.5,4.9c-0.2,1.7-0.3,3.5-0.3,5.3
		c-0.1,1.8-0.1,3.6-0.1,5.3v2.4c0.9-1,1.9-2.1,3.1-3.2c1.2-1.1,2.4-2.3,3.6-3.4c1.2-1.1,2.4-2.1,3.6-3.1c1.2-1,2.2-1.8,3.1-2.4
		c-1.3-1.1-1.9-2.5-1.9-4.4c0-1.7,0.6-3.1,1.8-4.3c1.2-1.2,2.6-1.8,4.3-1.8C86.7,25.4,88.1,26,89.3,27.2z"/>

	<path id="XMLID_4_" d="M89.3,27.2c1.2,1.2,1.8,2.6,1.8,4.3c0,1.7-0.6,3.2-1.8,4.3c-1.2,1.1-2.6,1.7-4.3,1.7c-0.2,0-0.4,0-0.7,0
		c-0.2,0-0.4-0.1-0.6-0.2c-0.7,0.9-1.4,2.1-2.3,3.5c-0.8,1.4-1.7,2.9-2.5,4.5c-0.8,1.6-1.5,3.1-2.2,4.5c-0.7,1.4-1.1,2.6-1.4,3.4
		c0.5,0.3,0.8,0.5,1.1,0.8c0.3,0.3,0.5,0.7,0.8,1.4l0.1,1.5c0,1.1-0.3,2-0.8,2.8c-0.5,0.7-1.1,1.3-1.6,1.8c-0.2,0.2-0.5,0.5-1,1
		c-0.4,0.4-0.8,1-1.1,1.8c-0.5,0.8-0.8,1.5-1,2.1c-0.2,0.6-0.3,1.4-0.3,2.4v1.5c-0.1,0.3-0.2,0.7-0.2,1c0,0.3,0,0.5,0.1,0.8
		c0.1,0.2,0.1,0.5,0.2,1c0.1,0.6,0.4,1.3,0.8,2c0.4,0.7,0.7,1.2,0.8,1.3v0.2c0.5,0.5,0.7,1,0.7,1.7c0,1.3-0.8,2.4-2.5,3.3
		c-1.7,0.8-3.7,1.5-6.2,2s-5,0.8-7.8,1c-2.8,0.2-5.3,0.3-7.5,0.3c-2.2,0-4.7-0.1-7.5-0.3c-2.8-0.2-5.4-0.5-7.8-1
		c-2.4-0.5-4.5-1.2-6.2-2c-1.7-0.8-2.5-1.9-2.5-3.3c0-0.7,0.2-1.3,0.6-1.9c0.1-0.1,0.4-0.6,0.8-1.3c0.4-0.7,0.7-1.4,0.8-2
		c0.1-0.4,0.2-0.7,0.3-1c0-0.2,0-0.5,0-0.8v-1l-0.2-1.5c0-1-0.1-1.8-0.3-2.4c-0.2-0.6-0.5-1.3-1-2.2c-0.3-0.7-0.7-1.2-1.1-1.7
		c-0.4-0.4-0.8-0.8-1-1c-0.5-0.5-1.1-1.1-1.6-1.8c-0.5-0.7-0.8-1.6-0.8-2.8l0.3-1.5c0.1-0.7,0.3-1.1,0.6-1.4
		c0.3-0.3,0.6-0.5,1.1-0.8c-0.3-0.9-0.7-2-1.4-3.4c-0.6-1.4-1.4-2.9-2.1-4.5c-0.8-1.6-1.6-3.1-2.5-4.5c-0.8-1.4-1.6-2.6-2.3-3.5
		c-0.2,0.1-0.4,0.2-0.7,0.2c-0.3,0-0.5,0-0.7,0c-1.7,0-3.1-0.6-4.3-1.7C9.6,34.6,9,33.2,9,31.4c0-1.7,0.6-3.1,1.8-4.3
		c1.2-1.2,2.6-1.8,4.3-1.8c1.7,0,3.1,0.6,4.3,1.8c1.2,1.2,1.8,2.6,1.8,4.3c0,1.9-0.6,3.3-1.9,4.4c0.9,0.7,1.9,1.5,3,2.4
		c1.2,1,2.4,2,3.6,3.1c1.2,1.1,2.4,2.2,3.6,3.4c1.2,1.1,2.2,2.2,3.1,3.2v-2.4c0-1.7,0-3.4-0.1-5.3c-0.1-1.8-0.2-3.6-0.3-5.3
		c-0.2-1.7-0.3-3.4-0.5-4.9c-0.2-1.5-0.4-2.8-0.5-3.9c-1.6-0.1-2.9-0.8-4-1.9c-1-1.1-1.6-2.5-1.6-4.1c0-1.7,0.6-3.2,1.7-4.3
		c1.1-1.1,2.6-1.7,4.3-1.7c1.7,0,3.1,0.6,4.3,1.7c1.2,1.1,1.8,2.6,1.8,4.3c0,1.3-0.3,2.3-0.9,3.2c-0.6,0.9-1.4,1.6-2.4,2.1
		c1.9,2.7,3.6,5.7,5,9c1.4,3.3,2.8,7,4.4,11c0.4-2,0.8-4.3,1.3-6.9c0.5-2.6,0.9-5.1,1.4-7.6c0.5-2.5,0.9-4.8,1.3-7
		c0.4-2.2,0.7-3.9,1-5.1c-1.3-0.3-2.3-1-3.2-2.1c-0.8-1.1-1.3-2.3-1.3-3.6c0-1.7,0.6-3.1,1.8-4.3c1.2-1.2,2.6-1.8,4.3-1.8
		c1.7,0,3.1,0.6,4.3,1.8c1.2,1.2,1.8,2.6,1.8,4.3c0,1.3-0.4,2.5-1.3,3.6c-0.9,1.1-1.9,1.8-3.2,2.1c0.3,1.3,0.6,3,1,5.1
		c0.4,2.2,0.8,4.5,1.3,7c0.5,2.5,0.9,5,1.4,7.6c0.5,2.6,0.9,4.9,1.3,6.9c1.5-4,3-7.7,4.4-11c1.4-3.3,3-6.3,5-9
		c-2.1-1.1-3.2-2.8-3.2-5.3c0-1.7,0.6-3.2,1.7-4.3c1.1-1.1,2.6-1.7,4.3-1.7c1.7,0,3.1,0.6,4.3,1.7c1.2,1.1,1.8,2.6,1.8,4.3
		c0,1.6-0.5,3-1.6,4.1c-1.1,1.1-2.4,1.8-4,1.9c-0.2,1.1-0.4,2.4-0.5,3.9c-0.2,1.5-0.3,3.1-0.5,4.9c-0.2,1.7-0.3,3.5-0.3,5.3
		c-0.1,1.8-0.1,3.6-0.1,5.3v2.4c0.9-1,1.9-2.1,3.1-3.2c1.2-1.1,2.4-2.3,3.6-3.4c1.2-1.1,2.4-2.1,3.6-3.1c1.2-1,2.2-1.8,3.1-2.4
		c-1.3-1.1-1.9-2.5-1.9-4.4c0-1.7,0.6-3.1,1.8-4.3c1.2-1.2,2.6-1.8,4.3-1.8C86.7,25.4,88.1,26,89.3,27.2z M12.7,33.8
		c0.7,0.6,1.4,1,2.3,1c0.9,0,1.7-0.3,2.4-1c0.6-0.6,0.9-1.4,0.9-2.3c0-0.9-0.3-1.6-0.9-2.3c-0.6-0.7-1.4-1-2.4-1
		c-0.9,0-1.6,0.3-2.3,1c-0.7,0.7-1,1.4-1,2.3C11.7,32.4,12,33.2,12.7,33.8z M73,52c0.3-0.9,0.7-1.8,1.2-2.9c0.5-1.1,1-2.2,1.6-3.4
		c0.6-1.2,1.2-2.4,1.8-3.6c-1.1,0.9-2.3,1.9-3.3,3c-1.1,1-2.1,2-3,2.9c-0.9,0.9-1.7,1.8-2.4,2.5c-0.6,0.7-1,1.3-1.1,1.7
		c-0.1,0.3-0.2,0.5-0.5,0.7c-0.3,0.2-0.6,0.2-0.9,0c-0.3,0-0.6-0.1-0.8-0.3c-0.2-0.2-0.4-0.5-0.4-0.8c-0.1-0.9-0.1-2-0.1-3.1
		c0-1.1,0-2.2,0-3.3c0-2.3,0-4.8,0.1-7.3c0.1-2.5,0.3-4.8,0.7-7c-1.3,2.3-2.5,4.8-3.5,7.5c-1,2.6-2.1,5.5-3.3,8.8l-1.3,3.4
		c-0.1,0.3-0.3,0.6-0.6,0.8c-0.3,0.2-0.5,0.2-0.7,0.1c-0.7,0-1.2-0.3-1.3-1c-0.2-1-0.5-2.5-0.9-4.5c-0.4-2-0.8-4.2-1.3-6.6
		c-0.5-2.4-1-4.9-1.5-7.4c-0.5-2.6-0.9-4.9-1.3-7.1c-0.4,2.1-0.8,4.5-1.3,7.1c-0.5,2.6-0.9,5-1.4,7.4c-0.5,2.4-0.9,4.6-1.3,6.6
		s-0.7,3.5-1,4.5c-0.1,0.7-0.6,1-1.3,1c-0.5,0.1-1-0.2-1.3-0.9l-1.3-3.4c-1.1-3.2-2.2-6.1-3.2-8.8c-1-2.6-2.2-5.1-3.5-7.5
		c0.3,2.1,0.4,4.5,0.5,7c0.1,2.5,0.1,4.9,0.1,7.3c0,1.1,0,2.3,0,3.4c0,1.1-0.1,2.1-0.2,3c0,0.3-0.1,0.6-0.4,0.8
		c-0.2,0.2-0.5,0.3-0.6,0.3c-0.4,0.1-0.7,0.1-1,0c-0.3-0.2-0.5-0.4-0.6-0.7c-0.1-0.4-0.5-1-1.1-1.7c-0.6-0.7-1.4-1.6-2.3-2.5
		c-0.9-0.9-1.9-1.9-3-2.9c-1.1-1-2.3-2-3.4-3c0.7,1.1,1.3,2.3,1.9,3.6c0.6,1.2,1.1,2.4,1.6,3.4c0.5,1.1,0.9,2,1.2,2.9
		c0.3,0.9,0.5,1.5,0.6,1.9v0.2c0,0.6-0.3,1.1-0.8,1.4h-0.5c-0.5,0.2-0.9,0.3-1,0.3v0.1l-0.1,1c0,0.5,0.1,1,0.4,1.3
		c0.3,0.3,0.6,0.7,1,1c0.9-0.9,2.2-1.7,4.1-2.3c1.9-0.6,3.9-1.1,6.2-1.5c2.2-0.4,4.5-0.6,6.8-0.8c2.3-0.1,4.4-0.2,6.2-0.2
		s3.9,0.1,6.2,0.2c2.3,0.1,4.6,0.4,6.8,0.8c2.2,0.4,4.3,0.9,6.2,1.5c1.9,0.6,3.2,1.4,4.1,2.3c0.9-0.7,1.4-1.4,1.4-2.3l-0.1-1v-0.1
		c-0.1,0-0.5-0.1-1-0.3h-0.3c-0.6-0.3-0.9-0.7-0.9-1.4v-0.2C72.5,53.5,72.7,52.9,73,52z M29,22.6c0.6,0.6,1.4,0.9,2.4,0.9
		c0.9,0,1.7-0.3,2.3-0.9c0.6-0.6,1-1.4,1-2.4c0-0.9-0.3-1.7-1-2.4c-0.6-0.6-1.4-0.9-2.3-0.9c-0.9,0-1.7,0.3-2.4,0.9
		c-0.6,0.6-1,1.4-1,2.4C28.1,21.2,28.4,22,29,22.6z M46.9,60.5c1-1.1,1.8-2.2,2.4-3.3c-6,0.1-10.8,0.6-14.3,1.4s-5.6,1.6-6.3,2.3
		c0.8,0.6,1.8,1.2,3,1.8c1.2,0.6,2.5,1.1,3.7,1.4c1-0.3,2.2-0.6,3.6-0.7c1.4-0.1,3-0.2,4.7-0.3C44.8,62.5,45.9,61.6,46.9,60.5z
		 M65.5,80.5c3.7-0.9,5.6-1.7,5.8-2.4c-0.2-0.7-2.1-1.6-5.8-2.5c-3.7-1-8.9-1.5-15.5-1.5s-11.7,0.5-15.3,1.5c-3.6,1-5.6,1.8-5.8,2.5
		c0.2,0.7,2.1,1.5,5.8,2.4c3.6,0.9,8.8,1.4,15.3,1.4S61.8,81.5,65.5,80.5z M30.9,73.8c1.3-0.5,2.7-0.9,4.2-1.2
		c1.5-0.3,3.1-0.5,4.8-0.7c1.6-0.2,3.3-0.3,4.9-0.4c1.6-0.1,3.2-0.2,4.5-0.2c-0.6-1-1.3-2-2.2-3c-0.9-1-1.9-1.9-3-2.6
		c-3.4,0.1-6.1,0.4-8.1,0.9c-1.1,0.9-2,1.9-3,3c-0.9,1.1-1.6,2.3-2,3.4c0,0.2,0,0.4-0.1,0.6V73.8z M47.7,15.4c0.6,0.7,1.4,1,2.3,1
		c0.9,0,1.7-0.3,2.3-1c0.6-0.7,1-1.4,1-2.3c0-0.9-0.3-1.7-1-2.4c-0.6-0.6-1.4-0.9-2.3-0.9c-0.9,0-1.7,0.3-2.3,0.9
		c-0.6,0.6-1,1.4-1,2.4C46.7,14,47,14.8,47.7,15.4z M68.3,62.7c1.2-0.6,2.2-1.2,3-1.8c-0.7-0.7-2.8-1.5-6.3-2.3s-8.3-1.3-14.3-1.4
		c0.7,1.1,1.5,2.2,2.5,3.3c1,1.1,2,1.9,3.1,2.6c1.7,0.1,3.3,0.2,4.7,0.3c1.4,0.1,2.6,0.4,3.6,0.7C65.9,63.8,67.1,63.3,68.3,62.7z
		 M52.9,68.4c-0.9,1-1.6,2-2.2,3c1.4,0,2.9,0,4.5,0.2c1.6,0.1,3.3,0.2,4.9,0.4c1.6,0.2,3.2,0.4,4.8,0.7c1.5,0.3,2.9,0.7,4.2,1.2
		v-0.1c0-0.1,0-0.3,0-0.3c0-0.1,0-0.2,0-0.3c-0.5-1.1-1.2-2.3-2-3.4c-0.9-1.1-1.9-2.1-3-3c-1.9-0.5-4.6-0.8-8.1-0.9
		C54.8,66.6,53.8,67.4,52.9,68.4z M66.3,17.9c-0.6,0.6-0.9,1.4-0.9,2.4c0,0.9,0.3,1.7,0.9,2.4c0.6,0.6,1.4,0.9,2.4,0.9
		c0.9,0,1.6-0.3,2.3-0.9c0.7-0.6,1-1.4,1-2.4c0-0.9-0.3-1.7-1-2.4c-0.7-0.6-1.4-0.9-2.3-0.9C67.7,16.9,66.9,17.3,66.3,17.9z
		 M87.3,33.8c0.7-0.6,1-1.4,1-2.3c0-0.9-0.3-1.6-1-2.3c-0.7-0.7-1.4-1-2.3-1c-0.9,0-1.7,0.3-2.3,1c-0.6,0.7-1,1.4-1,2.3
		c0,0.9,0.3,1.7,1,2.3c0.6,0.6,1.4,1,2.3,1C85.9,34.7,86.6,34.4,87.3,33.8z"/>

</svg>
