<?xml version="1.0" encoding="utf-8"?>
<!-- Generator: Adobe Illustrator 19.0.0, SVG Export Plug-In . SVG Version: 6.00 Build 0)  -->
<svg version="1.1" id="R" xmlns="http://www.w3.org/2000/svg" xmlns:xlink="http://www.w3.org/1999/xlink" x="0px" y="0px"
	 viewBox="0 0 100 100" enable-background="new 0 0 100 100" xml:space="preserve">

	<path id="XMLID_12_" fill="#FFFFFF" d="M84,74.9V84l-34.7,0.6L15.9,84v-9.1l0.4-0.4c0.7-0.7,1.6-1.3,2.5-1.8
		c0.9-0.4,1.9-0.8,2.9-0.9v-4.5l0.3-0.4c0.9-0.9,1.8-1.7,2.7-2.3c0.9-0.6,2.1-1,3.8-1.5v-0.3V27.8c-0.8-0.3-1.6-0.8-2.4-1.4
		c-0.8-0.6-1.5-1.2-2.1-1.8c-0.7-0.6-1.3-1.3-1.8-1.9s-0.9-1.1-1-1.5L21,21v-8.8l0.7-0.4c1.5-0.8,3.1-1.5,4.8-2
		c1.7-0.5,3.2-0.7,4.5-0.6h1.4v7.3c1.5-0.5,3-0.9,4.8-1c1.7-0.2,3.7-0.3,5.9-0.3v-8h12.5h1.3v8c2.2,0,4.2,0.1,5.9,0.3
		c1.7,0.2,3.3,0.5,4.8,1V9.2h1.3c1.3-0.1,2.8,0.1,4.5,0.6c1.7,0.5,3.3,1.2,4.6,2l0.9,0.4V21l-0.1,0.3c-0.2,0.4-0.6,0.9-1.1,1.5
		c-0.5,0.6-1.1,1.2-1.8,1.9c-0.7,0.6-1.4,1.2-2.2,1.8c-0.8,0.6-1.6,1-2.4,1.4v35.1v0.3c1.7,0.4,3,0.9,3.9,1.5
		c0.9,0.6,1.8,1.3,2.7,2.3l0.4,0.4v4.5c1,0.2,1.9,0.5,2.8,0.9c0.9,0.4,1.7,1,2.3,1.8L84,74.9z"/>

	<path id="XMLID_4_" d="M84,74.8v9.1l-34.7,0.6l-33.4-0.6v-9.1l0.4-0.4c0.7-0.7,1.6-1.3,2.5-1.8c0.9-0.4,1.9-0.8,2.9-1v-4.5l0.3-0.4
		c0.9-0.9,1.8-1.7,2.7-2.3c0.9-0.6,2.1-1.1,3.8-1.5v-0.3V27.7c-0.8-0.3-1.6-0.8-2.4-1.4c-0.8-0.6-1.5-1.2-2.1-1.8
		c-0.7-0.6-1.3-1.3-1.8-1.9s-0.9-1.1-1-1.5L21,20.9v-8.8l0.7-0.4c1.5-0.8,3.1-1.5,4.8-2C28.2,9.2,29.7,9,31,9.1h1.4v7.3
		c1.5-0.5,3-0.9,4.8-1.1c1.7-0.2,3.7-0.3,5.9-0.3v-8h12.5h1.3v8c2.2,0,4.2,0.1,5.9,0.3c1.7,0.2,3.3,0.5,4.8,1.1V9.1h1.3
		c1.3-0.1,2.8,0.1,4.5,0.6c1.7,0.5,3.3,1.2,4.6,2l0.9,0.4v8.8l-0.1,0.3c-0.2,0.4-0.6,0.9-1.1,1.5c-0.5,0.6-1.1,1.2-1.8,1.9
		c-0.7,0.6-1.4,1.2-2.2,1.8c-0.8,0.6-1.6,1-2.4,1.4v35.1v0.3c1.7,0.4,3,0.9,3.9,1.5c0.9,0.6,1.8,1.3,2.7,2.3l0.4,0.4v4.5
		c1,0.2,1.9,0.5,2.8,1c0.9,0.4,1.7,1,2.3,1.8L84,74.8z M81.3,75.9c-0.6-0.4-1.3-0.7-2-1c-0.7-0.3-1.5-0.4-2.4-0.5H23
		c-0.9,0.1-1.6,0.2-2.4,0.5c-0.7,0.3-1.4,0.6-2,1v5.3c0.5,0,1.8,0,4.1,0c2.3,0,4.8,0.1,7.8,0.2c2.9,0.1,5.8,0.1,8.8,0.2
		c2.9,0.1,5.3,0.1,7.1,0.1c1.8,0,2.8,0.1,3,0.1c3-0.1,5.6-0.1,7.9-0.2c2.2,0,4.7-0.1,7.3-0.2c2.6-0.1,5.1-0.1,7.5-0.1
		c2.4,0,4.4-0.1,6.1-0.1c1.7,0,2.8,0,3.2,0V75.9z M24.8,21.5c0.4,0.5,0.9,1,1.5,1.5c0.6,0.5,1.2,1,1.8,1.5c0.7,0.5,1.3,0.8,1.9,1
		c3.7-1.1,7.2-2,10.5-2.6c3.3-0.6,6.6-0.9,9.8-0.9c3.3,0,6.5,0.3,9.8,0.9c3.2,0.6,6.5,1.4,10,2.6c0.6-0.2,1.2-0.5,1.8-1
		c0.6-0.5,1.2-1,1.8-1.5c0.6-0.5,1.1-1,1.5-1.5c0.4-0.5,0.8-0.9,0.9-1.3v-6.5c-0.9-0.5-1.9-0.9-2.9-1.2c-1-0.3-2-0.6-2.9-0.7v8.6
		l-2-0.9c-1.3-0.7-2.9-1.1-4.8-1.4c-1.9-0.3-4.5-0.4-7.9-0.4h-1.5V9.9h-8.2v7.8h-1.5c-3.4,0-6.1,0.1-8,0.4c-1.9,0.3-3.5,0.7-4.9,1.4
		l-1.9,0.9v-8.6c-0.9,0.1-1.9,0.4-2.9,0.7c-1,0.3-2,0.7-2.9,1.2v6.5C24,20.6,24.3,21,24.8,21.5z M24.3,71.7h51.4v-3.3
		c-0.7-0.7-1.5-1.3-2.3-1.8c-0.8-0.4-2-0.8-3.5-1.2H30c-1.7,0.3-2.8,0.7-3.5,1.2c-0.7,0.4-1.4,1-2.2,1.8V71.7z M31.1,62.8h37.6v-35
		c-3.2-1-6.3-1.8-9.4-2.3c-3-0.5-6.1-0.8-9.1-0.8c-3,0-6.1,0.3-9.2,0.8c-3.1,0.5-6.4,1.3-9.9,2.3V62.8z M62,45.1
		c-0.9-0.1-1.7-0.2-2.4-0.3v7.4h5.1h1.4v2.9H51.3v6.7h-2.7v-6.7H33.9v-2.9h6.4v-7.1c-0.8,0.1-1.6,0.2-2.4,0.3
		c-0.8,0.1-1.6,0.3-2.5,0.4L34,45.9l-0.3-2.7l1.3-0.3c4.7-0.7,9.3-1.1,13.6-1.2v-7.3c-0.9,0-1.9,0-2.9,0.1c-1,0.1-2,0.2-3,0.3h-0.6
		C41,35,40,35.2,38.8,35.4c-1.1,0.2-2.2,0.4-3.3,0.8l-1.5,0.1l-0.4-2.5l1.2-0.5c0.9-0.1,1.8-0.3,2.6-0.4s1.6-0.2,2.5-0.4v-5.3h2.7
		v4.9c4.9-0.6,9.7-0.6,14.4,0v-4.9h2.8v5.3c0.9,0.1,1.7,0.3,2.5,0.4c0.8,0.1,1.7,0.2,2.6,0.4l1.3,0.5l-0.6,2.5l-1.3-0.1
		c-1.1-0.3-2.3-0.6-3.4-0.8c-1.1-0.2-2.3-0.4-3.4-0.5h-0.5c-0.9-0.1-1.9-0.2-2.8-0.3c-1-0.1-2-0.1-3-0.1v7.3c2.5,0,4.9,0.1,7.2,0.3
		c2.2,0.2,4.4,0.5,6.5,0.8l1.1,0.3l-0.2,2.7l-1.5-0.3C63.7,45.4,62.9,45.3,62,45.1z M56.7,44.5c-2.1-0.1-4.3-0.2-6.6-0.2
		c-2.3,0-4.6,0.2-7,0.5v7.4h5.5h2.7h5.4V44.5z"/>

</svg>
