<?xml version="1.0" encoding="utf-8"?>
<!-- Generator: Adobe Illustrator 19.0.0, SVG Export Plug-In . SVG Version: 6.00 Build 0)  -->
<svg version="1.1" id="B" xmlns="http://www.w3.org/2000/svg" xmlns:xlink="http://www.w3.org/1999/xlink" x="0px" y="0px"
	 viewBox="0 0 100 100" enable-background="new 0 0 100 100" xml:space="preserve">

	<path id="XMLID_20_" fill="#FFFFFF" d="M55.7,87.9c-1.6-1-2.8-2.2-3.7-3.5c-0.9,1.3-2.1,2.5-3.7,3.5c-1.6,1-3.6,1.5-5.9,1.5
		c-1.7,0-3.4-0.3-5.1-0.8c-1.7-0.5-3.3-1.1-5-1.8c-1.6-0.5-3.1-1.1-4.5-1.6c-1.4-0.5-2.8-0.8-4.1-0.8h-1.2c-0.7,0-1.6,0-2.5,0
		c-1,0-2,0-3.1,0.1c-1.1,0.1-2.2,0.3-3.4,0.6c-1.2,0.3-2.3,0.8-3.5,1.5c0.5-1.7,1.4-3.1,2.6-4.2c1.2-1.1,2.3-2.1,3.2-2.8
		c-1.7-0.5-3.4-0.1-5.1,1c1.2-2.4,2.7-4,4.6-4.8c1.9-0.8,3.7-1.2,5.4-1.2c2.1,0,4.3,0.3,6.7,1c2.4,0.6,4.8,1.3,7.1,2
		c1.5,0.3,3,0.7,4.3,1.1c1.4,0.4,2.5,0.6,3.3,0.6c1,0,1.8-0.3,2.3-0.8c0.5-0.5,0.9-1.2,1.2-1.9c0.3-0.7,0.4-1.3,0.4-1.9
		c0-0.6,0.1-1,0.1-1.1l0.1-0.2c-2.7-0.3-4.9-0.9-6.7-1.8c-1.8-0.9-2.7-2-2.7-3.3c0-0.9,0.1-1.6,0.3-2.2c0.2-0.6,0.4-1.1,0.6-1.5
		c0.1-0.4,0.3-0.8,0.5-1.3c0.2-0.4,0.4-1,0.5-1.5c0.3-0.9,0.4-1.8,0.5-2.5c0.1-0.7,0.1-1.4,0.1-2s0-1.2-0.1-1.8
		c-0.1-0.6-0.3-1.3-0.5-2.1c-0.2-0.7-0.5-1.4-0.9-2.1c-0.4-0.7-0.7-1.4-1-2.3c-0.9-1.8-1.8-3.9-2.7-6.4c-0.9-2.5-1.3-5.8-1.3-9.8
		c0-1.5,0.4-3.2,1.2-5.3c0.8-2,1.8-4.1,3.1-6.1c1.3-2,2.8-3.9,4.6-5.5c1.7-1.7,3.6-2.9,5.5-3.6c-0.7-0.6-1.2-1.3-1.6-2
		c-0.4-0.7-0.6-1.6-0.6-2.5c0-1.5,0.6-2.9,1.7-4c1.1-1.1,2.5-1.7,4-1.7c1.5,0,2.9,0.6,4,1.7c1.1,1.1,1.7,2.5,1.7,4
		c0,1.9-0.7,3.4-2.2,4.5c0.4,0.2,0.8,0.4,1.3,0.6c0.4,0.2,0.8,0.4,1.3,0.7c0.3-0.4,0.6-0.7,0.9-1c0.3-0.3,0.5-0.6,0.8-0.9
		c-0.4-0.5-0.7-1.1-1-1.6c-0.3-0.6-0.4-1.2-0.4-2c0-1.5,0.6-2.9,1.8-4c1.2-1.1,2.5-1.7,4.1-1.7c1.5,0,2.8,0.6,3.9,1.7
		c1.1,1.1,1.6,2.5,1.6,4c0,1.1-0.3,2.1-0.8,3c-0.5,0.9-1.3,1.6-2.2,2.2c0.8,0.9,1.6,2.1,2.5,3.6c0.8,1.5,1.6,3.1,2.3,4.9
		c0.7,1.8,1.2,3.6,1.7,5.6c0.4,2,0.6,4,0.6,6c0,2.3-0.2,4.6-0.7,6.8c-0.5,2.2-1,4.2-1.7,6.1c-0.7,1.9-1.4,3.5-2,4.9
		c-0.7,1.4-1.3,2.6-1.8,3.5l-0.5,0.9c-0.1,0.9-0.2,1.9-0.1,2.8c0.1,0.9,0.3,2,0.7,3.5c0.1,1.1,0.4,2,0.9,2.8
		c0.2,0.4,0.4,0.9,0.6,1.5c0.2,0.6,0.4,1.3,0.4,2.2c0,1.4-1,2.5-2.9,3.3c-1.9,0.8-4.2,1.4-6.9,1.8v0.2c0,0.1,0,0.5,0.1,1.1
		c0.1,0.6,0.2,1.3,0.5,1.9c0.3,0.7,0.7,1.3,1.2,1.9c0.5,0.5,1.3,0.8,2.2,0.8c0.7,0,1.8-0.2,3.1-0.6c1.3-0.4,2.8-0.8,4.4-1.3
		c2.3-0.7,4.6-1.4,7-1.9c2.4-0.6,4.7-0.9,6.8-0.9c1.7,0,3.5,0.4,5.4,1.2c1.9,0.8,3.4,2.4,4.6,4.8c-1.7-1.1-3.4-1.5-5.1-1
		c0.9,0.7,2,1.7,3.3,2.8c1.2,1.1,2.2,2.5,2.8,4.2c-1.2-0.7-2.4-1.3-3.6-1.5s-2.4-0.5-3.5-0.6c-1.1-0.1-2.1-0.1-3.1-0.1
		c-1,0-1.8,0-2.5,0h-1.3c-1.3,0-2.7,0.2-4.2,0.7c-1.4,0.4-3,1-4.5,1.7c-1.7,0.7-3.3,1.3-5,1.8c-1.6,0.5-3.3,0.8-5,0.8
		C59.3,89.4,57.3,88.9,55.7,87.9z"/>

	<path id="XMLID_4_" d="M55.7,87.9c-1.6-1-2.8-2.2-3.7-3.5c-0.9,1.3-2.1,2.5-3.7,3.5c-1.6,1-3.6,1.5-5.9,1.5c-1.7,0-3.4-0.3-5.1-0.8
		c-1.7-0.5-3.3-1.1-5-1.8c-1.6-0.5-3.1-1.1-4.5-1.6c-1.4-0.5-2.8-0.8-4.1-0.8h-1.2c-0.7,0-1.6,0-2.5,0c-1,0-2,0-3.1,0.1
		c-1.1,0.1-2.2,0.3-3.4,0.6c-1.2,0.3-2.3,0.8-3.5,1.5c0.5-1.7,1.4-3.1,2.6-4.2c1.2-1.1,2.3-2.1,3.2-2.8c-1.7-0.5-3.4-0.1-5.1,1
		c1.2-2.4,2.7-4,4.6-4.8c1.9-0.8,3.7-1.2,5.4-1.2c2.1,0,4.3,0.3,6.7,1c2.4,0.6,4.8,1.3,7.1,2c1.5,0.3,3,0.7,4.3,1.1
		c1.4,0.4,2.5,0.6,3.3,0.6c1,0,1.8-0.3,2.3-0.8c0.5-0.5,0.9-1.2,1.2-1.9c0.3-0.7,0.4-1.3,0.4-1.9c0-0.6,0.1-1,0.1-1.1l0.1-0.2
		c-2.7-0.3-4.9-0.9-6.7-1.8c-1.8-0.9-2.7-2-2.7-3.3c0-0.9,0.1-1.6,0.3-2.2c0.2-0.6,0.4-1.1,0.6-1.5c0.1-0.4,0.3-0.8,0.5-1.3
		c0.2-0.4,0.4-1,0.5-1.5c0.3-0.9,0.4-1.8,0.5-2.5c0.1-0.7,0.1-1.4,0.1-2s0-1.2-0.1-1.8c-0.1-0.6-0.3-1.3-0.5-2.1
		c-0.2-0.7-0.5-1.4-0.9-2.1c-0.4-0.7-0.7-1.4-1-2.3c-0.9-1.8-1.8-3.9-2.7-6.4c-0.9-2.5-1.3-5.8-1.3-9.8c0-1.5,0.4-3.2,1.2-5.3
		c0.8-2,1.8-4.1,3.1-6.1c1.3-2,2.8-3.9,4.6-5.5c1.7-1.7,3.6-2.9,5.5-3.6c-0.7-0.6-1.2-1.3-1.6-2c-0.4-0.7-0.6-1.6-0.6-2.5
		c0-1.5,0.6-2.9,1.7-4c1.1-1.1,2.5-1.7,4-1.7c1.5,0,2.9,0.6,4,1.7c1.1,1.1,1.7,2.5,1.7,4c0,1.9-0.7,3.4-2.2,4.5
		c0.4,0.2,0.8,0.4,1.3,0.6c0.4,0.2,0.8,0.4,1.3,0.7c0.3-0.4,0.6-0.7,0.9-1c0.3-0.3,0.5-0.6,0.8-0.9c-0.4-0.5-0.7-1.1-1-1.6
		c-0.3-0.6-0.4-1.2-0.4-2c0-1.5,0.6-2.9,1.8-4c1.2-1.1,2.5-1.7,4.1-1.7c1.5,0,2.8,0.6,3.9,1.7c1.1,1.1,1.6,2.5,1.6,4
		c0,1.1-0.3,2.1-0.8,3c-0.5,0.9-1.3,1.6-2.2,2.2c0.8,0.9,1.6,2.1,2.5,3.6c0.8,1.5,1.6,3.1,2.3,4.9c0.7,1.8,1.2,3.6,1.7,5.6
		c0.4,2,0.6,4,0.6,6c0,2.3-0.2,4.6-0.7,6.8c-0.5,2.2-1,4.2-1.7,6.1c-0.7,1.9-1.4,3.5-2,4.9c-0.7,1.4-1.3,2.6-1.8,3.5l-0.5,0.9
		c-0.1,0.9-0.2,1.9-0.1,2.8c0.1,0.9,0.3,2,0.7,3.5c0.1,1.1,0.4,2,0.9,2.8c0.2,0.4,0.4,0.9,0.6,1.5c0.2,0.6,0.4,1.3,0.4,2.2
		c0,1.4-1,2.5-2.9,3.3c-1.9,0.8-4.2,1.4-6.9,1.8v0.2c0,0.1,0,0.5,0.1,1.1c0.1,0.6,0.2,1.3,0.5,1.9c0.3,0.7,0.7,1.3,1.2,1.9
		c0.5,0.5,1.3,0.8,2.2,0.8c0.7,0,1.8-0.2,3.1-0.6c1.3-0.4,2.8-0.8,4.4-1.3c2.3-0.7,4.6-1.4,7-1.9c2.4-0.6,4.7-0.9,6.8-0.9
		c1.7,0,3.5,0.4,5.4,1.2c1.9,0.8,3.4,2.4,4.6,4.8c-1.7-1.1-3.4-1.5-5.1-1c0.9,0.7,2,1.7,3.3,2.8c1.2,1.1,2.2,2.5,2.8,4.2
		c-1.2-0.7-2.4-1.3-3.6-1.5s-2.4-0.5-3.5-0.6c-1.1-0.1-2.1-0.1-3.1-0.1c-1,0-1.8,0-2.5,0h-1.3c-1.3,0-2.7,0.2-4.2,0.7
		c-1.4,0.4-3,1-4.5,1.7c-1.7,0.7-3.3,1.3-5,1.8c-1.6,0.5-3.3,0.8-5,0.8C59.3,89.4,57.3,88.9,55.7,87.9z M66.2,86
		c1.5-0.5,3-1,4.5-1.5c1.6-0.7,3.2-1.3,4.8-1.8s3.2-0.9,4.9-0.9h1.2c0.9,0,1.9,0,2.9,0.1c1,0.1,2,0.3,3.1,0.6
		c-1.1-0.9-2-1.5-2.7-1.6l-2.6-1.1l2.1-1.6c0.5-0.1,1.1-0.3,1.9-0.4c-0.5-0.1-0.9-0.2-1.3-0.3c-0.4,0-1,0-1.5,0
		c-1.9,0-4.1,0.3-6.4,0.8c-2.3,0.6-4.5,1.2-6.8,2c-1.7,0.5-3.3,1-4.7,1.4c-1.4,0.4-2.6,0.5-3.5,0.5c-2.3,0-3.9-0.9-4.9-2.5
		c-1-1.7-1.6-3.7-1.6-6c-0.7,0.1-1.3,0.1-1.8,0.1c-0.5,0-1.1,0-1.7,0c-0.5,0-1.1,0-1.7,0c-0.5,0-1.1,0-1.8-0.1
		c0,1.1-0.1,2.2-0.4,3.2c-0.3,1-0.7,1.9-1.2,2.7c-0.5,0.8-1.2,1.4-2,1.9c-0.8,0.5-1.8,0.7-3,0.7c-0.9,0-2.1-0.2-3.5-0.5
		c-1.4-0.4-3-0.8-4.8-1.4c-2.2-0.7-4.5-1.4-6.8-2c-2.3-0.6-4.4-0.8-6.3-0.8c-1.1,0-2,0.1-2.9,0.3c0.3,0.1,0.6,0.2,0.9,0.3
		c0.3,0.1,0.6,0.2,1,0.3l2.1,1.5l-2.6,1.1c-0.4,0.1-0.8,0.3-1.3,0.5c-0.4,0.2-0.9,0.6-1.5,1c1.1-0.3,2.2-0.5,3.1-0.6
		c1-0.1,1.9-0.1,2.9-0.1h1.2c1.7,0,3.3,0.3,4.9,0.9c1.6,0.6,3.2,1.2,4.8,1.8c1.5,0.5,3.1,1,4.7,1.5c1.6,0.5,3,0.8,4.5,0.8
		c1.3,0,2.5-0.2,3.5-0.6s1.8-1,2.5-1.7c0.7-0.7,1.2-1.4,1.6-2.2c0.4-0.8,0.5-1.5,0.5-2.1h2.7c0,0.7,0.2,1.4,0.5,2.1
		c0.4,0.8,0.9,1.5,1.6,2.2c0.7,0.7,1.6,1.2,2.6,1.7s2.3,0.6,3.6,0.6C63.2,86.7,64.7,86.5,66.2,86z M36.5,41.9
		c0.8,2.3,1.6,4.3,2.5,6.1c0.5,0.7,0.8,1.5,1.1,2.3c0.3,0.8,0.6,1.5,0.9,2.3c1.1-0.4,2.5-0.7,4.3-1c1.8-0.3,4.1-0.4,6.8-0.4
		c1.7,0,3.7,0.1,5.8,0.3c2.1,0.2,3.9,0.6,5.4,1.1c0.2-0.5,0.5-2.3,0.9-5.4c0.4-3.1,0.5-7,0.5-11.7c0-1.5-0.4-3.4-1.2-5.8
		c-0.8-2.4-1.8-4.7-3.1-7c-1.3-2.3-2.9-4.2-4.6-5.9c-1.7-1.6-3.5-2.4-5.4-2.4c-1.9,0-3.8,0.7-5.6,2.1C43,18,41.4,19.7,40,21.7
		s-2.5,4-3.4,6.1c-0.9,2.1-1.3,3.8-1.3,5.1C35.3,36.6,35.7,39.6,36.5,41.9z M42.7,70.1c2.1,0.8,5.3,1.1,9.4,1.1
		c4.3,0,7.5-0.4,9.6-1.1c2.1-0.8,3.3-1.3,3.4-1.7c-0.1-0.5-1.3-1.2-3.4-2c-2.1-0.9-5.3-1.4-9.6-1.4c-4.2,0-7.3,0.5-9.4,1.4
		c-2.1,0.9-3.2,1.6-3.4,2C39.4,68.8,40.5,69.3,42.7,70.1z M40.7,63.7c1-1,1.9-1.7,2.6-2c-0.5-0.2-1.2-0.5-1.9-0.9v0.1
		c-0.1,0.3-0.1,0.6-0.2,0.8c-0.1,0.2-0.1,0.6-0.2,1C41,62.9,40.9,63.3,40.7,63.7z M46.7,33.5h-5.4v-6.4h5.4v-8.6H52h1v8.6h5.6v6.4
		H53v11.4h-6.3V33.5z M62.6,56.4c0-0.4,0-0.7,0.1-1c-0.4-0.3-1.5-0.7-3.2-1c-1.7-0.4-4.2-0.7-7.5-1c-3.2,0.3-5.6,0.6-7.3,1
		c-1.7,0.4-2.7,0.7-3,1c0,0.3,0,0.6,0.1,1c0.1,0.4,0.1,0.8,0.1,1.1c1.3-0.5,3-0.9,4.9-1.2c1.9-0.3,3.7-0.5,5.3-0.5
		c1.7,0,3.6,0.2,5.5,0.5c1.9,0.3,3.6,0.7,5,1.2C62.6,57.1,62.6,56.8,62.6,56.4z M44.3,62.6c-0.5,0.3-1.1,0.7-1.6,1.1
		c1.1-0.3,2.4-0.6,3.7-0.7c1.3-0.1,2.7-0.2,4-0.3c-0.3-0.4-0.7-0.7-1.1-0.8c-0.4-0.2-0.9-0.3-1.6-0.5v-1.5c0.7-0.1,1.2-0.2,1.6-0.5
		c0.4-0.3,0.8-0.7,1.1-1.4c-3.6,0.6-6.1,1.2-7.5,1.9c0.7,0.6,1.5,0.8,2.5,0.6l0.5,1.4C45.4,62.1,44.8,62.3,44.3,62.6z M48.9,31.5
		v11.3h2V31.5h5.5v-2.3h-5.5v-8.7h-2v8.7h-5.5v2.3H48.9z M48.3,5.9c-0.6,0.6-0.9,1.3-0.9,2.1c0,0.9,0.3,1.6,0.9,2.1
		c0.6,0.5,1.3,0.8,2.1,0.8c0.8,0,1.5-0.3,2-0.8c0.6-0.5,0.8-1.2,0.8-2.1c0-0.7-0.3-1.4-0.8-2.1c-0.6-0.6-1.3-0.9-2-0.9
		C49.7,4.9,49,5.3,48.3,5.9z M53.2,61.5c0.3-0.3,0.7-0.6,1.3-0.8c-0.5-0.3-1-0.7-1.3-1.1c-0.3-0.4-0.7-0.9-1.1-1.6
		c-0.3,0.7-0.7,1.2-1,1.6c-0.4,0.4-0.8,0.8-1.1,1.1c0.7,0.3,1.5,1,2.2,2C52.5,62.3,52.8,61.9,53.2,61.5z M55,61.9
		c-0.4,0.2-0.8,0.5-1.1,0.8c1.3,0.1,2.7,0.2,4,0.4c1.3,0.2,2.6,0.4,3.7,0.8c-0.5-0.5-1.1-0.9-1.6-1.2c-0.5-0.3-1-0.6-1.4-0.7
		l0.3-1.4c0.9,0.2,1.8,0,2.7-0.6c-0.8-0.3-1.8-0.6-3.1-0.9c-1.3-0.3-2.8-0.6-4.5-1c0.3,0.7,0.7,1.1,1.1,1.4c0.4,0.3,1,0.4,1.5,0.5
		v1.5C56,61.6,55.5,61.7,55,61.9z M59.8,14.1c-0.3,0.3-0.7,0.8-1.4,1.6c1.4,1.3,2.6,2.9,3.8,4.6c1.1,1.7,2,3.5,2.8,5.4
		c0.8,1.8,1.4,3.6,1.8,5.3c0.4,1.7,0.7,3.2,0.7,4.4c0,1.9,0,3.8-0.1,5.4c-0.1,1.7-0.2,3.3-0.3,4.9c0.7-1.7,1.3-3.6,1.7-5.8
		c0.4-2.1,0.6-4.3,0.6-6.5c0-2.3-0.3-4.6-0.9-6.8c-0.6-2.2-1.3-4.2-2.1-6c-0.8-1.8-1.6-3.3-2.5-4.5c-0.8-1.2-1.5-2-1.9-2.4
		c-0.5,0-0.8-0.1-1-0.3C60.4,13.7,60.1,13.9,59.8,14.1z M61.3,10.8h0.1c0.5,0,0.9,0.1,1.3,0.3c0.7,0,1.4-0.3,1.9-0.9
		c0.5-0.6,0.8-1.3,0.8-2c0-0.7-0.3-1.4-0.9-2c-0.6-0.6-1.2-1-2-1c-0.9,0-1.6,0.3-2.1,1c-0.6,0.6-0.9,1.3-0.9,2
		C59.6,9.6,60.2,10.4,61.3,10.8z M61,61.7c0.5,0.2,0.9,0.5,1.3,0.8c0.4,0.3,0.8,0.7,1.1,1.2c0-0.5-0.1-0.8-0.3-1
		C63,62.3,63,62,63,61.8c0-0.2,0-0.5,0-0.8v-0.1C62.3,61.2,61.7,61.5,61,61.7z"/>

</svg>
