<?xml version="1.0" encoding="utf-8"?>
<!-- Generator: Adobe Illustrator 19.0.0, SVG Export Plug-In . SVG Version: 6.00 Build 0)  -->
<svg version="1.1" id="N" xmlns="http://www.w3.org/2000/svg" xmlns:xlink="http://www.w3.org/1999/xlink" x="0px" y="0px"
	 viewBox="0 0 100 100" enable-background="new 0 0 100 100" xml:space="preserve">

	<path id="XMLID_13_" fill="#FFFFFF" d="M89.7,81.2c0,0.3-0.1,0.6-0.3,0.7c-0.3,0.6-0.8,0.8-1.3,0.6c-1.1-0.3-2-0.6-2.7-0.7
		c0.3,0.3,0.6,0.9,0.9,1.6c0.2,0.2,0.3,0.4,0.3,0.7c0,0.1-0.2,0.4-0.5,0.7c-0.4,0.6-0.9,0.7-1.5,0.4l-1.7-0.7
		c-0.4,0.3-0.7,0.4-1,0.4h-56c-0.4,0-0.8-0.1-1-0.3c-0.3-0.2-0.5-0.5-0.5-0.9c0-1.4,0.4-2.9,1.3-4.5c0.8-1.6,1.9-3.3,3.2-4.9
		c1.3-1.6,2.8-3.3,4.4-4.8c1.6-1.6,3.1-3.1,4.6-4.4c1.5-1.3,2.9-2.5,4.1-3.4c1.2-0.9,2.1-1.6,2.7-1.9c1.1-0.7,2-1.5,2.7-2.3
		c0.7-0.9,1.3-1.8,1.7-2.8c0.4-0.9,0.8-1.9,1-2.8c0.2-0.9,0.3-1.7,0.4-2.4c-2.4,1.3-5.2,1.9-8.3,1.9c-1.1,0-2.1-0.3-3.1-0.9
		c-0.7,0.3-1.6,0.8-2.6,1.4c-1,0.6-1.9,1.3-2.9,2.1c-1,0.8-1.9,1.7-2.7,2.7s-1.4,2-1.9,3.1l-0.3,1.1c-0.1,0.4-0.3,0.8-0.5,1.3
		c-0.2,0.4-0.4,0.8-0.8,1.3c-0.3,0.4-0.7,0.7-1.1,1c-0.5,0.3-1.1,0.4-1.8,0.4c-1.1,0-2.1-0.4-3-1.3c-0.3-0.4-0.6-1-0.9-1.8
		c-0.4-0.8-0.6-1.9-0.6-3.2c0-0.2,0-0.4,0.1-0.5c0-0.2,0-0.3,0-0.5c-1.1,1.3-2.2,2.4-3.2,3.3c-1,0.8-2,1.3-2.9,1.3
		c-0.5,0-0.9,0-1.4-0.2c-0.4-0.1-0.8-0.3-1.1-0.6c-0.3-0.5-0.6-1.2-0.9-1.9c-0.3-0.7-0.4-1.7-0.4-3c0-0.5,0.1-0.7,0.2-0.8
		c0.1-1.8,0.6-3.8,1.5-5.9c0.9-2.2,2-4.2,3.2-6.1c1.2-1.9,2.3-3.6,3.4-5.1c1.1-1.5,1.9-2.5,2.4-3c2.5-3.3,5-6.3,7.4-9
		c2.4-2.7,4.5-4.6,6.2-5.8c-0.1-2.1-0.5-3.8-1-4.9c-0.6-1.2-1.5-2.4-2.7-3.8c-0.3-0.3-0.5-0.7-0.5-1c0-0.1,0-0.2,0.1-0.3
		c0.1-0.1,0.1-0.2,0.1-0.3c0.5-0.5,0.9-0.8,1.4-0.7c1.7,0.3,3,0.7,4,1.2c0.9,0.5,1.7,1,2.4,1.5l0.6,0.5c0.8,0.5,1.3,0.9,1.6,1.2
		v-0.8v-1.7c0-0.7,0-1.2,0-1.7c0-0.4-0.2-0.8-0.5-0.9c-0.3-0.3-0.4-0.6-0.4-1.1c0-0.4,0-0.6,0.1-0.6c0.5-0.7,1.1-0.9,1.7-0.6
		c2.3,1.1,4.1,2.2,5.4,3.2c1.2,1,2.2,2.2,2.8,3.7l0.7,2.1c0.3,0.1,1,0.4,2,0.7c0.4,0.2,0.8,0.3,1.3,0.3l5.3-0.4
		c0.4-0.1,0.7-0.1,1,0.1c0.2,0.2,0.4,0.5,0.5,0.9c0.1,1,0.2,1.8,0.3,2.3c0.5,0,1.3,0.1,2.2,0.2c0.9,0.1,1.7,0.3,2.3,0.4
		c0.6,0.1,1,0.1,1.2,0.1c0.7,0.1,1.1,0.6,1.1,1.4v1c0,0.6,0,1.2-0.1,1.7c0.5,0.1,1.3,0.3,2.2,0.6c0.9,0.3,1.7,0.5,2.3,0.6
		c0.6,0.2,1,0.3,1,0.3c0.5,0.1,0.8,0.5,0.8,1.2v0.3c-0.3,1.3-0.6,2.3-0.8,2.9c0.6,0.1,1.4,0.3,2.4,0.6c1,0.3,1.8,0.5,2.5,0.7
		c0.7,0.2,1.1,0.3,1.2,0.3c0.2,0.1,0.4,0.2,0.5,0.3c0.1,0.1,0.2,0.4,0.4,0.7v0.2c0,0.3-0.1,0.6-0.3,0.9c-0.9,1.3-1.7,2.3-2.2,2.9
		c0.6,0.3,1.3,0.7,2.1,1.2c0.8,0.5,1.5,0.8,2.1,1.1c0.6,0.3,0.9,0.4,0.9,0.5c0.1,0.1,0.3,0.3,0.4,0.5c0.1,0.2,0.2,0.4,0.3,0.5v0.3
		c0,0.4-0.1,0.7-0.4,1c-0.8,0.8-1.5,1.4-2,1.9c0.5,0.5,1.3,1,2.2,1.7c0.9,0.7,1.6,1.2,2.3,1.7c0.6,0.5,0.9,0.7,1,0.8
		c0.4,0.4,0.6,0.8,0.6,1.2c-0.1,0.1-0.2,0.2-0.2,0.3c-0.3,0.7-0.7,1-1.2,1c-1-0.1-1.8-0.2-2.3-0.2c0.7,0.7,1.4,1.5,2.2,2.4
		s1.5,1.6,2,2.2c0.5,0.5,0.8,0.8,0.8,0.9c0.1,0.1,0.1,0.3,0.2,0.4c0.1,0.1,0.1,0.3,0.1,0.6c0,0.3-0.1,0.4-0.2,0.5
		c-0.1,0.6-0.6,0.9-1.3,0.9h-0.7c-0.5,0-1-0.1-1.6-0.2c0.6,0.8,1.3,1.7,2.1,2.7s1.5,1.8,2,2.5c0.5,0.6,0.8,1,0.8,1
		c0.2,0.2,0.3,0.5,0.3,0.8c0,0.2-0.1,0.4-0.2,0.6c-0.4,0.7-0.9,0.9-1.4,0.7c-1.1-0.2-2.1-0.4-2.8-0.5c0.5,0.9,1,1.9,1.7,3
		c0.7,1.1,1.2,2,1.6,2.7c0.4,0.7,0.6,1,0.7,1.1c0,0.1,0,0.3,0,0.3c0,0.1,0,0.2,0,0.4c0,0.3-0.1,0.6-0.3,0.8
		c-0.1,0.7-0.6,0.9-1.3,0.6c-0.9-0.2-1.5-0.3-2-0.4c0.5,0.9,1.1,1.8,1.8,2.8c0.7,1,1.3,1.9,1.7,2.5c0.4,0.6,0.6,1,0.7,1
		C89.7,80.7,89.7,80.9,89.7,81.2z"/>

	<path id="XMLID_4_" d="M89.7,81.2c0,0.3-0.1,0.6-0.3,0.7c-0.3,0.6-0.8,0.8-1.3,0.6c-1.1-0.3-2-0.6-2.7-0.7c0.3,0.3,0.6,0.9,0.9,1.6
		c0.2,0.2,0.3,0.4,0.3,0.7c0,0.1-0.2,0.4-0.5,0.7c-0.4,0.6-0.9,0.7-1.5,0.4l-1.7-0.7c-0.4,0.3-0.7,0.4-1,0.4h-56
		c-0.4,0-0.8-0.1-1-0.3c-0.3-0.2-0.5-0.5-0.5-0.9c0-1.4,0.4-2.9,1.3-4.5c0.8-1.6,1.9-3.3,3.2-4.9c1.3-1.6,2.8-3.3,4.4-4.8
		c1.6-1.6,3.1-3.1,4.6-4.4c1.5-1.3,2.9-2.5,4.1-3.4c1.2-0.9,2.1-1.6,2.7-1.9c1.1-0.7,2-1.5,2.7-2.3c0.7-0.9,1.3-1.8,1.7-2.8
		c0.4-0.9,0.8-1.9,1-2.8c0.2-0.9,0.3-1.7,0.4-2.4c-2.4,1.3-5.2,1.9-8.3,1.9c-1.1,0-2.1-0.3-3.1-0.9c-0.7,0.3-1.6,0.8-2.6,1.4
		c-1,0.6-1.9,1.3-2.9,2.1c-1,0.8-1.9,1.7-2.7,2.7s-1.4,2-1.9,3.1l-0.3,1.1c-0.1,0.4-0.3,0.8-0.5,1.3c-0.2,0.4-0.4,0.8-0.8,1.3
		c-0.3,0.4-0.7,0.7-1.1,1c-0.5,0.3-1.1,0.4-1.8,0.4c-1.1,0-2.1-0.4-3-1.3c-0.3-0.4-0.6-1-0.9-1.8c-0.4-0.8-0.6-1.9-0.6-3.2
		c0-0.2,0-0.4,0.1-0.5c0-0.2,0-0.3,0-0.5c-1.1,1.3-2.2,2.4-3.2,3.3c-1,0.8-2,1.3-2.9,1.3c-0.5,0-0.9,0-1.4-0.2
		c-0.4-0.1-0.8-0.3-1.1-0.6c-0.3-0.5-0.6-1.2-0.9-1.9c-0.3-0.7-0.4-1.7-0.4-3c0-0.5,0.1-0.7,0.2-0.8c0.1-1.8,0.6-3.8,1.5-5.9
		c0.9-2.2,2-4.2,3.2-6.1c1.2-1.9,2.3-3.6,3.4-5.1c1.1-1.5,1.9-2.5,2.4-3c2.5-3.3,5-6.3,7.4-9c2.4-2.7,4.5-4.6,6.2-5.8
		c-0.1-2.1-0.5-3.8-1-4.9c-0.6-1.2-1.5-2.4-2.7-3.8c-0.3-0.3-0.5-0.7-0.5-1c0-0.1,0-0.2,0.1-0.3c0.1-0.1,0.1-0.2,0.1-0.3
		c0.5-0.5,0.9-0.8,1.4-0.7c1.7,0.3,3,0.7,4,1.2c0.9,0.5,1.7,1,2.4,1.5l0.6,0.5c0.8,0.5,1.3,0.9,1.6,1.2v-0.8v-1.7c0-0.7,0-1.2,0-1.7
		c0-0.4-0.2-0.8-0.5-0.9c-0.3-0.3-0.4-0.6-0.4-1.1c0-0.4,0-0.6,0.1-0.6c0.5-0.7,1.1-0.9,1.7-0.6c2.3,1.1,4.1,2.2,5.4,3.2
		c1.2,1,2.2,2.2,2.8,3.7l0.7,2.1c0.3,0.1,1,0.4,2,0.7c0.4,0.2,0.8,0.3,1.3,0.3l5.3-0.4c0.4-0.1,0.7-0.1,1,0.1
		c0.2,0.2,0.4,0.5,0.5,0.9c0.1,1,0.2,1.8,0.3,2.3c0.5,0,1.3,0.1,2.2,0.2c0.9,0.1,1.7,0.3,2.3,0.4c0.6,0.1,1,0.1,1.2,0.1
		c0.7,0.1,1.1,0.6,1.1,1.4v1c0,0.6,0,1.2-0.1,1.7c0.5,0.1,1.3,0.3,2.2,0.6c0.9,0.3,1.7,0.5,2.3,0.6c0.6,0.2,1,0.3,1,0.3
		c0.5,0.1,0.8,0.5,0.8,1.2v0.3c-0.3,1.3-0.6,2.3-0.8,2.9c0.6,0.1,1.4,0.3,2.4,0.6c1,0.3,1.8,0.5,2.5,0.7c0.7,0.2,1.1,0.3,1.2,0.3
		c0.2,0.1,0.4,0.2,0.5,0.3c0.1,0.1,0.2,0.4,0.4,0.7v0.2c0,0.3-0.1,0.6-0.3,0.9c-0.9,1.3-1.7,2.3-2.2,2.9c0.6,0.3,1.3,0.7,2.1,1.2
		c0.8,0.5,1.5,0.8,2.1,1.1c0.6,0.3,0.9,0.4,0.9,0.5c0.1,0.1,0.3,0.3,0.4,0.5c0.1,0.2,0.2,0.4,0.3,0.5v0.3c0,0.4-0.1,0.7-0.4,1
		c-0.8,0.8-1.5,1.4-2,1.9c0.5,0.5,1.3,1,2.2,1.7c0.9,0.7,1.6,1.2,2.3,1.7c0.6,0.5,0.9,0.7,1,0.8c0.4,0.4,0.6,0.8,0.6,1.2
		c-0.1,0.1-0.2,0.2-0.2,0.3c-0.3,0.7-0.7,1-1.2,1c-1-0.1-1.8-0.2-2.3-0.2c0.7,0.7,1.4,1.5,2.2,2.4s1.5,1.6,2,2.2
		c0.5,0.5,0.8,0.8,0.8,0.9c0.1,0.1,0.1,0.3,0.2,0.4c0.1,0.1,0.1,0.3,0.1,0.6c0,0.3-0.1,0.4-0.2,0.5c-0.1,0.6-0.6,0.9-1.3,0.9h-0.7
		c-0.5,0-1-0.1-1.6-0.2c0.6,0.8,1.3,1.7,2.1,2.7s1.5,1.8,2,2.5c0.5,0.6,0.8,1,0.8,1c0.2,0.2,0.3,0.5,0.3,0.8c0,0.2-0.1,0.4-0.2,0.6
		c-0.4,0.7-0.9,0.9-1.4,0.7c-1.1-0.2-2.1-0.4-2.8-0.5c0.5,0.9,1,1.9,1.7,3c0.7,1.1,1.2,2,1.6,2.7c0.4,0.7,0.6,1,0.7,1.1
		c0,0.1,0,0.3,0,0.3c0,0.1,0,0.2,0,0.4c0,0.3-0.1,0.6-0.3,0.8c-0.1,0.7-0.6,0.9-1.3,0.6c-0.9-0.2-1.5-0.3-2-0.4
		c0.5,0.9,1.1,1.8,1.8,2.8c0.7,1,1.3,1.9,1.7,2.5c0.4,0.6,0.6,1,0.7,1C89.7,80.7,89.7,80.9,89.7,81.2z M80.6,82.2
		c0.2-1.7,0.3-3.5,0.4-5.2c0.1-1.7,0.1-3.4,0.1-5.1v-0.1v-0.1c0-1.3,0-2.6,0-3.8c0-1.2-0.1-2.4-0.1-3.7c-0.1-0.1-0.2-0.2-0.2-0.5
		v-0.3c-0.1-1.1-0.2-2.2-0.3-3.3c-0.1-1-0.3-2-0.4-3c-0.1-0.1-0.1-0.3-0.1-0.6v-0.1c-0.3-1.3-0.5-2.5-0.7-3.6
		c-0.2-1.1-0.5-2.3-0.8-3.4c-0.1-0.1-0.1-0.2-0.2-0.3c-0.1-0.1-0.1-0.2-0.1-0.3c-1.1-4.1-2.5-7.6-4.2-10.7c-0.1-0.1-0.2-0.3-0.5-0.7
		c-2.9-5.3-6.3-9.5-10.2-12.5s-7.9-5-12-6.1l-2.9-0.9c-0.4-0.1-0.7-0.4-0.8-0.8l-0.3-0.9l-0.6-1.8c-0.3-0.6-0.7-1.2-1.2-1.8
		c-0.5-0.6-1.3-1.2-2.4-2v0.7v1.8v4.3c0,0.3,0,0.6-0.1,0.9c-0.1,0.2-0.3,0.4-0.7,0.5c-0.7,0.3-1.2,0.2-1.6-0.3l-1-1.4
		c-0.5-0.5-1-0.9-1.3-1.1s-0.8-0.7-1.4-1.1l-0.5-0.3c-0.3-0.1-0.5-0.3-0.7-0.4c-0.2-0.1-0.4-0.3-0.6-0.4c0.5,1,1,2.1,1.3,3.2
		c0.3,1.1,0.5,2.6,0.5,4.3c0,0.7-0.3,1.2-0.8,1.5c-0.7,0.3-1.7,1-3,2.2c-1.3,1.2-2.6,2.5-4,4c-1.4,1.5-2.6,3-3.8,4.5
		c-1.2,1.5-2.1,2.6-2.8,3.4c-1.1,1.4-2.3,2.9-3.4,4.6c-1.1,1.7-2.2,3.3-3.1,5c-0.9,1.7-1.7,3.3-2.3,4.8c-0.6,1.6-0.9,3-0.9,4.3
		c-0.1,0.1-0.1,0.4-0.1,0.7c0,1.1,0.1,1.9,0.3,2.2c0.2,0.3,0.3,0.6,0.5,0.7c0,0.1,0.1,0.1,0.3,0.1c0.2,0,0.5-0.2,1-0.5
		c0.4-0.3,0.9-0.8,1.4-1.3c0.5-0.5,1-1.1,1.6-1.8c0.6-0.6,1-1.2,1.4-1.8c0.9-0.9,1.7-1.9,2.5-2.8c0.8-1,1.6-1.8,2.3-2.6
		c0.3-0.2,0.5-0.3,0.9-0.4c0.3-0.1,0.5,0,0.8,0.1c0.6,0.3,0.9,0.8,0.9,1.3c-0.1,1.1-0.4,2-0.9,2.6c-0.4,0.6-0.9,1.2-1.5,1.8
		c-0.3,0.6-0.6,1.1-0.9,1.5c-0.3,0.4-0.5,1.1-0.6,2c-0.1,1.3-0.1,2.3,0.1,2.9c0.2,0.6,0.5,1,0.8,1.3c0.2,0.1,0.5,0.2,0.8,0.2
		c0.3,0,0.6-0.1,0.8-0.2c0.2-0.1,0.4-0.7,0.7-1.6l0.5-1.4c0.5-1.3,1.1-2.5,2.1-3.6c0.9-1.1,1.8-2.1,2.8-3c1-0.9,2-1.6,3-2.2
		c1-0.6,1.9-1.1,2.6-1.4c-0.8-1-1.3-2.1-1.6-3.4c-0.3-1.3-0.4-2.6-0.3-4c0-0.3,0-0.6,0-0.9c0-0.2,0.3-0.3,0.7-0.3
		c0.3,0,0.5,0.2,0.6,0.5c0.1,0.3,0.1,0.7,0.1,1.1c-0.1,1.1,0.1,2.2,0.6,3.3c0.5,1,1.1,2,1.9,2.8c0.3,0.3,0.8,0.6,1.4,0.9
		c0.6,0.2,1.2,0.4,1.7,0.4c3.7,0,6.7-0.9,9-2.6c2.3-1.7,4.1-3.8,5.5-6c1.3-2.3,2.3-4.6,2.8-6.9c0.5-2.3,0.8-3.9,0.8-5
		c0-0.3,0.1-0.6,0.3-1c0.2-0.3,0.6-0.4,1-0.4c0.3,0,0.7,0.1,1,0.4c0.3,0.3,0.5,0.6,0.5,1c0,1.3-0.2,2.8-0.5,4.5
		c-0.4,1.7-0.9,3.5-1.7,5.3c-0.7,1.8-1.7,3.6-2.9,5.4c-1.2,1.7-2.6,3.2-4.3,4.5c-0.1,3-0.8,5.8-2.1,8.3c-1.3,2.5-3,4.4-5.2,5.8
		c-1.1,0.7-2.7,1.9-4.6,3.5c-1.9,1.6-3.9,3.4-5.8,5.3c-1.9,2-3.7,4-5.3,6c-1.6,2-2.5,3.9-2.9,5.5H80.6z M28.2,35
		c0.4,0,0.8,0.1,0.9,0.5c0.7,0.5,0.7,1,0,1.5c-1.3,1.1-2.3,2.1-3.1,2.8c-0.8,0.8-1.5,1.5-2.1,2.1s-1.1,1.2-1.5,1.7
		c-0.4,0.5-0.8,1.2-1.3,1.9c-0.1,0.1-0.2,0.3-0.3,0.6c-0.1,0.3-0.3,0.6-0.4,0.9c-0.2,0.3-0.3,0.6-0.5,0.9c-0.2,0.2-0.4,0.3-0.6,0.3
		c-0.3-0.2-0.5-0.6-0.5-1.3c0-0.7,0.1-1.3,0.3-1.6c0.5-1.1,1.1-2.2,1.9-3.3c0.8-1.1,1.5-2,2.3-2.9c0.8-0.9,1.6-1.6,2.3-2.3
		c0.7-0.6,1.2-1.1,1.5-1.3C27.4,35.2,27.7,35,28.2,35z M43.9,26.9c0.3,0.6,0.3,1,0.2,1.3l-0.4,1.7c-0.1,0.7-0.2,1.4-0.4,2.1
		c-0.2,0.8-0.5,1.5-1,2.1c-0.5,0.7-1.2,1.2-2.1,1.5c-0.9,0.4-2.2,0.5-3.8,0.4c-0.9,0-1.3-0.5-1.3-1.4v-0.2c-0.1,0-0.1,0-0.1,0.1
		c0,0.1-0.1,0.1-0.3,0.1c-0.9,0-1.3-0.5-1.3-1.5c0-1.7,0.6-3.1,1.9-4.3c0.7-0.6,1.6-1.2,2.8-1.7c1.2-0.5,2.8-0.8,4.9-0.7
		C43.3,26.5,43.6,26.7,43.9,26.9z M41.1,29.4c-0.7,0.1-1.4,0.2-2.1,0.4c-0.7,0.2-1.3,0.5-1.9,1c-0.3,0.3-0.5,0.7-0.7,1.1
		c-0.2,0.4-0.3,0.8-0.3,1.1v0.1v0.3c0.1-0.1,0.2-0.1,0.3-0.2c0.1-0.1,0.2,0,0.3,0.1c1.8,0.1,2.9-0.2,3.3-0.9
		C40.5,31.9,40.8,30.9,41.1,29.4L41.1,29.4z M70.2,41.9c0.2,0.3,0.2,0.9-0.1,1.9c-0.2,1.1-0.5,2.3-0.9,3.4c-0.4,1.1-1.1,2.1-2,3.1
		c-0.9,1-2,1.9-3.4,2.6c-1.4,0.8-3.1,1.4-5.2,1.8c-0.2,0-0.5,0-0.9,0c-0.4,0-0.9,0.1-1.3,0.1c-0.4,0-0.8-0.1-1.1-0.2
		c-0.3-0.1-0.4-0.3-0.4-0.5c0-0.4,0.4-0.7,1.1-1c0.8-0.3,1.4-0.4,1.9-0.4c1.4,0,2.7-0.4,3.9-1.1c1.2-0.7,2.3-1.6,3.3-2.5
		c1-1,1.7-1.9,2.3-2.9c0.6-0.9,0.9-1.6,1-1.9c0.1-0.6,0.2-1.3,0.4-2.1c0.2-0.8,0.4-1.1,0.8-0.9C69.7,41.4,70,41.6,70.2,41.9z
		 M58.3,49.1c-0.3,0-0.5-0.1-0.7-0.4c-0.3-0.3-0.3-0.6,0.1-1c0.3-0.3,0.6-0.5,0.9-0.6c0.9-0.3,1.8-0.9,2.6-1.6
		c0.8-0.8,1.4-1.6,2-2.6c0.6-1,1.1-2.1,1.5-3.2c0.4-1.1,0.8-2.2,1-3.2c0.1-0.3,0.3-0.7,0.3-1.2c0.1-0.5,0.3-0.6,0.7-0.5
		c0.3,0.1,0.5,0.5,0.5,1.1c0,0.7,0,1.3-0.2,1.6c-0.2,0.9-0.4,1.9-0.7,3c-0.3,1.1-0.7,2.1-1.3,3.2c-0.6,1-1.4,2-2.4,3
		c-1,1-2.3,1.8-3.8,2.4C58.8,49.1,58.6,49.1,58.3,49.1z M70.4,28.1v-0.2c-0.1,0-0.2,0-0.3-0.1C70.1,28,70.2,28.1,70.4,28.1z"/>

</svg>
