<?xml version="1.0" encoding="utf-8"?>
<!-- Generator: Adobe Illustrator 19.0.0, SVG Export Plug-In . SVG Version: 6.00 Build 0)  -->
<svg version="1.1" id="P" xmlns="http://www.w3.org/2000/svg" xmlns:xlink="http://www.w3.org/1999/xlink" x="0px" y="0px"
	 viewBox="0 0 100 100" enable-background="new 0 0 100 100" xml:space="preserve">

	<path id="XMLID_10_" fill="#FFFFFF" d="M67.8,68.8c1.1,0.8,2.2,1.9,3.3,3.1c1,1.2,1.9,2.7,2.6,4.4c0.7,1.7,1,3.7,1,6v1.5H25.4v-1.5
		c0.1-2.3,0.5-4.3,1.2-6c0.7-1.7,1.6-3.2,2.6-4.4c1-1.2,2.1-2.3,3.2-3.1c1.1-0.8,2.1-1.5,3-2l1.2-0.8l1.1-0.7
		c0.6-0.4,1.2-0.8,1.8-1.3c0.6-0.5,1.3-1,1.9-1.5c0.6-0.5,1.1-1.1,1.5-1.7c0.4-0.6,0.7-1.2,0.8-1.8c-2.5-0.6-4.7-1.7-6.4-3.3
		c-1.7-1.6-2.6-3.9-2.6-6.6c0-2.2,0.6-4.3,1.8-6.3c1.2-2,2.4-3.8,3.5-5.6c1.6-2.1,2.7-3.9,3.2-5.2c-1.7,0.1-3.6,0.3-5.6,0.4
		c-2,0.2-4,0.5-5.9,0.9c-0.2,0.1-0.5,0.1-0.8,0c-0.3-0.2-0.5-0.4-0.6-0.8c-0.1-0.3-0.2-0.7-0.1-1c0.1-0.3,0.3-0.5,0.7-0.6l6.1-3.6
		l2.3-1.4l2-1.6c0.5-0.5,1.2-1.1,1.9-1.6c0.7-0.6,1.5-1.1,2.3-1.5c-0.8-0.7-1.5-1.5-2-2.5c-0.6-1-0.8-2.1-0.8-3.4
		c0-2,0.7-3.7,2.2-5.1c1.5-1.4,3.2-2.1,5.2-2.1c2.1,0,3.9,0.7,5.4,2.1c1.4,1.4,2.1,3.1,2.1,5.1c0,1.3-0.3,2.4-0.8,3.4
		c-0.5,1-1.2,1.8-2.1,2.5c0.9,0.4,1.6,0.9,2.3,1.5c0.7,0.6,1.4,1.1,2,1.6l1.8,1.6l2.5,1.4l6,3.6c0.3,0.1,0.5,0.3,0.5,0.6
		c0.1,0.3,0.1,0.7,0,1c-0.1,0.8-0.6,1.1-1.5,0.8c-1.9-0.4-3.8-0.7-5.8-0.9c-2-0.2-3.8-0.3-5.5-0.4c0.3,0.7,0.8,1.5,1.3,2.4
		c0.5,0.9,1.1,1.8,1.8,2.8c1.3,1.7,2.5,3.6,3.6,5.6c1.1,2,1.7,4,1.7,6.3c0,2.8-0.9,5-2.6,6.6c-1.7,1.6-3.8,2.8-6.4,3.3
		c0.3,1.3,1.2,2.5,2.5,3.5c1.3,1.1,2.6,2,3.8,2.8l1.1,0.7l1,0.8C65.7,67.3,66.7,68,67.8,68.8z"/>

	<path id="XMLID_4_" d="M67.7,68.8c1.1,0.8,2.2,1.9,3.3,3.1c1,1.2,1.9,2.7,2.6,4.4c0.7,1.7,1,3.7,1,6v1.5H25.3v-1.5
		c0.1-2.3,0.5-4.3,1.2-6c0.7-1.7,1.6-3.2,2.6-4.4c1-1.2,2.1-2.3,3.2-3.1c1.1-0.8,2.1-1.5,3-2l1.2-0.8l1.1-0.7
		c0.6-0.4,1.2-0.8,1.9-1.3c0.6-0.5,1.3-1,1.8-1.5c0.6-0.5,1.1-1.1,1.5-1.7c0.4-0.6,0.7-1.2,0.9-1.8c-2.5-0.6-4.7-1.7-6.4-3.3
		c-1.7-1.6-2.6-3.9-2.6-6.6c0-2.2,0.6-4.3,1.8-6.3c1.2-2,2.3-3.8,3.5-5.6c1.6-2.1,2.7-3.9,3.2-5.2c-1.7,0.1-3.6,0.3-5.6,0.4
		c-2,0.2-4,0.5-5.9,0.9c-0.2,0.1-0.5,0.1-0.8,0c-0.3-0.2-0.5-0.4-0.7-0.8c-0.1-0.3-0.1-0.7,0-1c0.1-0.3,0.3-0.5,0.7-0.6l6.1-3.6
		l2.3-1.4l2-1.6c0.5-0.5,1.2-1.1,1.9-1.6c0.7-0.6,1.5-1.1,2.3-1.5c-0.8-0.7-1.5-1.5-2-2.5c-0.6-1-0.9-2.1-0.9-3.4
		c0-2,0.7-3.7,2.2-5.1C46.3,8.7,48,7.9,50,7.9c2.1,0,3.9,0.7,5.3,2.1c1.4,1.4,2.2,3.1,2.2,5.1c0,1.3-0.3,2.4-0.8,3.4
		c-0.5,1-1.2,1.8-2.1,2.5c0.9,0.4,1.7,0.9,2.4,1.5c0.7,0.6,1.3,1.1,2,1.6l1.8,1.6l2.5,1.4l6,3.6c0.3,0.1,0.5,0.3,0.5,0.6
		c0.1,0.3,0.1,0.7,0,1c-0.1,0.8-0.6,1.1-1.5,0.8c-1.9-0.4-3.8-0.7-5.8-0.9c-2-0.2-3.8-0.3-5.5-0.4c0.3,0.7,0.8,1.5,1.3,2.4
		c0.5,0.9,1.1,1.8,1.8,2.8c1.3,1.7,2.5,3.6,3.6,5.6c1.1,2,1.7,4,1.7,6.3c0,2.8-0.8,5-2.5,6.6c-1.7,1.6-3.8,2.8-6.5,3.3
		c0.3,1.3,1.2,2.5,2.5,3.5c1.3,1.1,2.6,2,3.8,2.8l1.1,0.7l1,0.8C65.6,67.3,66.6,68,67.7,68.8z M71.6,80.8c-0.1-1.7-0.5-3.1-1-4.4
		c-0.6-1.3-1.3-2.4-2.1-3.3c-0.8-1-1.7-1.8-2.7-2.5c-0.9-0.7-1.8-1.2-2.6-1.7L62,68.1l-1-0.6c-1.4-1-2.8-2.1-4.3-3.3
		c-1.5-1.2-2.5-2.7-3-4.5c-1.2,0.1-2.5,0.1-3.9,0.1c-1.3,0-2.5,0-3.5-0.1c-0.2,0.9-0.6,1.7-1.1,2.4c-0.5,0.7-1.2,1.4-1.9,2
		c-0.7,0.6-1.4,1.2-2.2,1.8c-0.8,0.6-1.5,1.1-2.2,1.5l-1,0.6l-1.1,0.8c-0.7,0.5-1.6,1-2.5,1.7c-0.9,0.7-1.8,1.5-2.7,2.5
		c-0.9,1-1.6,2.1-2.3,3.3c-0.6,1.3-1,2.7-1.3,4.4H71.6z M39,53.4c1,1.1,2.3,1.9,3.7,2.5c1.4,0.5,2.8,0.9,4.1,1
		c1.4,0.2,2.4,0.3,3.2,0.3c0.7,0,1.8-0.1,3.2-0.3c1.4-0.2,2.8-0.5,4.2-1c1.4-0.5,2.6-1.4,3.6-2.5c1-1.1,1.5-2.6,1.5-4.4
		c0-1.7-0.5-3.5-1.5-5.3c-1-1.8-2.1-3.5-3.1-5.2c-0.9-1.2-1.7-2.3-2.4-3.3c-0.7-1-1.1-2.1-1.3-3.3c-1-0.1-2.3-0.1-4-0.1
		c-1.7,0-3.1,0-4.2,0.1c-0.3,1.1-0.7,2.2-1.4,3.3c-0.7,1-1.4,2.1-2.3,3.3c-1.1,1.7-2.2,3.4-3.3,5.2c-1,1.8-1.5,3.5-1.5,5.3
		C37.5,50.8,38,52.3,39,53.4z M45,29.2c2,0,3.5-0.1,4.5-0.1H50h0.6c0.9,0,2.4,0,4.5,0.1c2,0,4.3,0.1,6.7,0.3l-2.4-1.4L57,26.4
		c-0.9-0.9-2-1.8-3-2.6c-1.1-0.8-2.4-1.1-4-1.1c-1.5,0-2.8,0.4-4,1.1c-1.1,0.8-2.1,1.6-3,2.6l-2.1,1.7l-2.6,1.4
		C40.8,29.3,43,29.2,45,29.2z M46.8,12.1c-1,0.9-1.5,1.9-1.5,3.1c0,1.3,0.5,2.5,1.5,3.4c1,0.9,2,1.4,3.3,1.4c1.3,0,2.5-0.5,3.3-1.4
		c0.9-0.9,1.4-2,1.4-3.4c0-1.2-0.5-2.2-1.4-3.1c-0.9-0.9-2-1.3-3.3-1.3C48.8,10.8,47.7,11.3,46.8,12.1z"/>

</svg>
