<?xml version="1.0" encoding="utf-8"?>
<!-- Generator: Adobe Illustrator 19.0.0, SVG Export Plug-In . SVG Version: 6.00 Build 0)  -->
<svg version="1.1" id="k" xmlns="http://www.w3.org/2000/svg" xmlns:xlink="http://www.w3.org/1999/xlink" x="0px" y="0px"
	 viewBox="0 0 100 100" enable-background="new 0 0 100 100" xml:space="preserve">

	<path id="XMLID_33_" fill="#FFFFFF" d="M80.6,56.5c0.1,0.3,0.1,0.6,0.1,0.8c0,0.2,0,0.4,0,0.6c0,0.8-0.2,1.5-0.6,2
		c-0.4,0.5-0.9,1-1.4,1.3c-0.3,0.3-0.7,0.7-1.2,1c-0.5,0.4-1,0.9-1.5,1.5l-0.1,0.4c-0.7,0.8-1.2,1.8-1.5,3c-0.3,1.2-0.5,2.4-0.5,3.8
		c0,0.9,0.1,1.9,0.3,2.8c0.2,1,0.5,1.8,0.8,2.5c0.1,0.1,0.3,0.4,0.7,0.7c0.2,0.2,0.5,0.4,0.8,0.8c0.3,0.3,0.5,0.7,0.5,1.3
		c0,0.9-0.5,1.8-1.5,2.6c-0.9,0.7-2.1,1.4-3.8,1.9c-1.7,0.5-3.6,1-5.8,1.4c-2.2,0.4-4.7,0.7-7.3,0.9c-2.7,0.2-5.5,0.3-8.4,0.3
		c-2.9,0-5.7-0.1-8.4-0.3c-2.7-0.2-5.1-0.5-7.3-0.9c-2.2-0.4-4.2-0.9-5.8-1.4c-1.7-0.5-2.9-1.2-3.8-1.9c-1-0.8-1.5-1.7-1.5-2.6
		c0-0.5,0.1-1,0.4-1.3c0.3-0.3,0.6-0.6,0.8-0.8c0.1-0.1,0.3-0.3,0.4-0.4c0.1-0.1,0.2-0.2,0.3-0.3c0.3-0.7,0.6-1.5,0.8-2.5
		c0.2-1,0.3-1.9,0.3-2.8c0-1.3-0.2-2.6-0.5-3.9c-0.3-1.3-0.8-2.3-1.4-3c-0.2-0.3-0.5-0.6-1-1c-0.4-0.4-1-1-1.9-1.7
		c-0.5-0.4-1-0.8-1.4-1.3s-0.6-1.2-0.6-2c0-0.2,0-0.4,0-0.6c0-0.2,0-0.5,0.1-0.8c0.3-0.9,1.4-1.7,3.5-2.4c-1.3-1.4-2.7-2.9-4-4.4
		c-1.4-1.6-2.6-3.2-3.8-5c-1.1-1.8-2.1-3.6-2.8-5.5c-0.7-1.9-1.1-3.9-1.1-6c0-2,0.4-3.9,1.2-5.6c0.8-1.7,1.8-3.2,3.1-4.4
		c1.3-1.2,2.9-2.2,4.8-2.9c1.8-0.7,3.8-1,5.9-1c1.5,0,3.2,0.4,4.9,1.2c1.7,0.8,3.3,1.8,4.8,2.9c1.5,1.2,2.9,2.4,4,3.8
		c1.2,1.3,2,2.5,2.5,3.6V6.8h14.8v23.9c0.5-1.1,1.3-2.3,2.5-3.6c1.2-1.3,2.5-2.6,4-3.8c1.5-1.2,3.1-2.1,4.8-2.9
		c1.7-0.8,3.3-1.2,5-1.2c2.1,0,4.1,0.4,6,1c1.8,0.7,3.4,1.7,4.8,2.9c1.3,1.2,2.4,2.7,3.1,4.4c0.8,1.7,1.2,3.6,1.2,5.6
		c0,2.1-0.4,4-1,6c-0.7,1.9-1.6,3.7-2.8,5.5c-1.1,1.8-2.4,3.4-3.8,5c-1.4,1.6-2.7,3-4.1,4.4C79.2,54.8,80.3,55.6,80.6,56.5z"/>

	<path id="XMLID_4_" d="M80.6,56.5c0.1,0.3,0.1,0.6,0.1,0.8c0,0.2,0,0.4,0,0.6c0,0.8-0.2,1.5-0.6,2c-0.4,0.5-0.9,1-1.4,1.3
		c-0.3,0.3-0.7,0.7-1.2,1c-0.5,0.4-1,0.9-1.5,1.5l-0.1,0.4c-0.7,0.8-1.2,1.8-1.5,3c-0.3,1.2-0.5,2.4-0.5,3.8c0,0.9,0.1,1.9,0.3,2.8
		c0.2,1,0.5,1.8,0.8,2.5c0.1,0.1,0.3,0.4,0.7,0.7c0.2,0.2,0.5,0.4,0.8,0.8c0.3,0.3,0.5,0.7,0.5,1.3c0,0.9-0.5,1.8-1.5,2.6
		c-0.9,0.7-2.1,1.4-3.8,1.9c-1.7,0.5-3.6,1-5.8,1.4c-2.2,0.4-4.7,0.7-7.3,0.9c-2.7,0.2-5.5,0.3-8.4,0.3c-2.9,0-5.7-0.1-8.4-0.3
		c-2.7-0.2-5.1-0.5-7.3-0.9c-2.2-0.4-4.2-0.9-5.8-1.4c-1.7-0.5-2.9-1.2-3.8-1.9c-1-0.8-1.5-1.7-1.5-2.6c0-0.5,0.1-1,0.4-1.3
		c0.3-0.3,0.6-0.6,0.8-0.8c0.1-0.1,0.3-0.3,0.4-0.4c0.1-0.1,0.2-0.2,0.3-0.3c0.3-0.7,0.6-1.5,0.8-2.5c0.2-1,0.3-1.9,0.3-2.8
		c0-1.3-0.2-2.6-0.5-3.9c-0.3-1.3-0.8-2.3-1.4-3c-0.2-0.3-0.5-0.6-1-1c-0.4-0.4-1-1-1.9-1.7c-0.5-0.4-1-0.8-1.4-1.3s-0.6-1.2-0.6-2
		c0-0.2,0-0.4,0-0.6c0-0.2,0-0.5,0.1-0.8c0.3-0.9,1.4-1.7,3.5-2.4c-1.3-1.4-2.7-2.9-4-4.4c-1.4-1.6-2.6-3.2-3.8-5
		c-1.1-1.8-2.1-3.6-2.8-5.5c-0.7-1.9-1.1-3.9-1.1-6c0-2,0.4-3.9,1.2-5.6c0.8-1.7,1.8-3.2,3.1-4.4c1.3-1.2,2.9-2.2,4.8-2.9
		c1.8-0.7,3.8-1,5.9-1c1.5,0,3.2,0.4,4.9,1.2c1.7,0.8,3.3,1.8,4.8,2.9c1.5,1.2,2.9,2.4,4,3.8c1.2,1.3,2,2.5,2.5,3.6V6.8h14.8v23.9
		c0.5-1.1,1.3-2.3,2.5-3.6c1.2-1.3,2.5-2.6,4-3.8c1.5-1.2,3.1-2.1,4.8-2.9c1.7-0.8,3.3-1.2,5-1.2c2.1,0,4.1,0.4,6,1
		c1.8,0.7,3.4,1.7,4.8,2.9c1.3,1.2,2.4,2.7,3.1,4.4c0.8,1.7,1.2,3.6,1.2,5.6c0,2.1-0.4,4-1,6c-0.7,1.9-1.6,3.7-2.8,5.5
		c-1.1,1.8-2.4,3.4-3.8,5c-1.4,1.6-2.7,3-4.1,4.4C79.2,54.8,80.3,55.6,80.6,56.5z M16,29.2c-0.7,0-1.2,0.2-1.6,0.6
		c-0.4,0.4-0.6,0.9-0.6,1.6c0,0.7,0.2,1.2,0.6,1.5c0.4,0.4,1,0.5,1.6,0.5c1.4,0,2.1-0.7,2.1-2.1C18.1,30,17.4,29.2,16,29.2z
		 M35.8,51.2c2.6-0.3,5.7-0.5,9.3-0.5c0.1-3.3-0.2-6.2-0.9-8.5c-0.7-2.4-1.6-4.4-2.7-6c-1.1-1.6-2.4-2.9-3.8-3.8
		c-1.4-0.9-2.7-1.6-4-2.1s-2.5-0.8-3.5-0.9c-1-0.1-1.8-0.2-2.3-0.2c-1.3,0-2.6,0.2-3.7,0.7c-1.1,0.5-2.1,1-2.9,1.8
		c-0.8,0.7-1.4,1.5-1.9,2.4c-0.4,0.9-0.6,1.8-0.6,2.6c0,1.4,0.3,2.8,0.8,4.3c0.5,1.5,1.2,2.9,2,4.3c0.8,1.4,1.8,2.7,2.8,3.9
		c1,1.2,2,2.3,2.9,3.1C30.4,52,33.2,51.6,35.8,51.2z M24,23.5c-0.4-0.4-0.9-0.6-1.6-0.6c-0.7,0-1.2,0.2-1.5,0.6
		c-0.4,0.4-0.6,1-0.6,1.6c0,1.4,0.7,2.1,2.1,2.1c1.5,0,2.2-0.7,2.2-2.1C24.6,24.5,24.4,23.9,24,23.5z M29.1,32.7
		c0.8,0,1.8,0.2,3.1,0.6c1.3,0.4,2.5,1.1,3.7,2.1c1.2,1,2.2,2.5,3.1,4.4c0.9,1.9,1.3,4.3,1.3,7.3c0,0.9-0.4,1.4-1.3,1.4
		c-0.3,0-0.7-0.1-1-0.4c-0.3-0.3-0.5-0.6-0.5-1c0-2.9-0.4-5.1-1.3-6.6c-0.9-1.6-1.8-2.7-2.9-3.5c-1.1-0.7-2-1.2-2.9-1.3
		c-0.9-0.2-1.3-0.3-1.4-0.3c-1.1,0-1.9,0.2-2.4,0.7c-0.5,0.5-0.7,1.4-0.7,2.7c0,1.2,0.4,2.4,1.3,3.6c0.8,1.2,1.9,2.5,3.2,3.8l1,1.5
		c0.3,0.3,0.4,0.6,0.4,1c0,0.3-0.2,0.6-0.5,0.8c-0.3,0.3-0.7,0.5-1,0.4c-0.3-0.1-0.7-0.2-1-0.5l-1.2-1.3c-1.3-1.5-2.4-3-3.3-4.5
		c-1-1.5-1.5-3.1-1.5-4.8C23.3,34.8,25.2,32.7,29.1,32.7z M28,55.8c-0.4-0.4-0.9-0.6-1.4-0.6c-0.7,0-1.3,0.2-1.8,0.6
		c-0.5,0.4-0.8,0.9-0.8,1.6c0,0.7,0.3,1.2,0.8,1.7s1.1,0.6,1.8,0.6c0.5,0,1-0.2,1.4-0.6c0.4-0.4,0.7-1,0.7-1.7
		C28.7,56.8,28.5,56.2,28,55.8z M27,78c-0.3,0.2-0.5,0.4-0.7,0.5h-0.2c0.2,0.2,0.4,0.4,0.5,0.6c0.3,0.1,0.6,0.3,0.9,0.5
		s0.7,0.4,1.3,0.6c0.9-0.5,2.2-0.9,3.9-1.2c1.7-0.3,3.6-0.5,5.7-0.6c2-0.1,4.1-0.2,6.2-0.3c2.1,0,4,0,5.5,0s3.5,0,5.5,0
		c2.1,0,4.2,0.1,6.3,0.3c2.1,0.1,4,0.3,5.7,0.6c1.7,0.3,3,0.7,3.9,1.2c0.5-0.2,1-0.5,1.4-0.8c0.4-0.3,0.7-0.5,0.9-0.8
		c0.1-0.1,0.2-0.1,0.1,0c-0.1,0.1-0.1,0.1-0.1,0c-0.1-0.1-0.3-0.3-0.5-0.6c-0.2-0.3-0.4-0.6-0.6-1c-0.1-0.1-0.2-0.2-0.1,0
		c0.1,0.1,0.1,0.1,0.1,0c-0.1-0.1-0.3-0.4-0.3-0.7S72.1,76,72,75.8c-2.1-0.8-5-1.3-8.5-1.6c-3.6-0.2-8-0.3-13.5-0.3
		c-5.2,0-9.6,0.1-13.3,0.3c-3.6,0.2-6.5,0.8-8.7,1.6C28,76,28,76.1,28,76.3c0,0.2-0.1,0.4-0.3,0.5c0,0.1,0,0.1,0,0.2
		c0,0.1-0.1,0.1-0.1,0.2C27.5,77.6,27.3,77.8,27,78z M58.3,62.2c2.5,0.3,4.8,0.7,6.7,1.1c1.9,0.4,3.4,0.9,4.6,1.4
		c1.2,0.5,2,0.9,2.4,1.2c0.3-0.7,0.5-1.3,0.7-1.7c0.2-0.4,0.6-0.9,1.1-1.7c-0.7-0.7-1.9-1.3-3.5-1.8c-1.6-0.5-3.4-1-5.3-1.5h-0.2
		c-2-0.3-4.2-0.6-6.7-0.8c-2.5-0.2-5.1-0.3-8-0.3c-3,0-5.7,0.1-8.1,0.3c-2.4,0.2-4.6,0.5-6.6,0.8H35c-1.9,0.5-3.6,1-5.3,1.5
		c-1.6,0.5-2.8,1.1-3.5,1.8c0.5,0.7,0.9,1.3,1,1.7c0.1,0.4,0.4,0.9,0.7,1.7c0.4-0.3,1.2-0.7,2.4-1.2c1.2-0.5,2.8-0.9,4.6-1.4
		c1.9-0.4,4.1-0.8,6.7-1.1c2.5-0.3,5.3-0.5,8.3-0.5S55.8,61.9,58.3,62.2z M31.4,69.7c-1.1-0.7-2.1-1.6-3-2.6
		c0.1,0.7,0.3,1.4,0.4,2.1c0.1,0.7,0.2,1.5,0.2,2.3c0,0.5,0,1.1-0.1,1.6c-0.1,0.5-0.2,1.1-0.3,1.6c1.8-2,3.9-3.2,6.4-3.6
		C33.7,70.9,32.5,70.5,31.4,69.7z M30.4,43.2c1.3,1.3,2.3,1.8,3,1.7c0.7-0.1,1.4-0.5,1.9-1c0.4-0.1,0.7-0.1,1,0.2
		c0.3,0.3,0.3,0.7,0,1c-0.6,0.4-1.2,0.8-1.9,1.2c-0.7,0.4-1.3,0.5-1.8,0.4c-0.6-0.1-1.1-0.4-1.6-0.9c-0.5-0.4-1-0.9-1.5-1.4
		c-0.1-0.1-0.1-0.3-0.2-0.5c0-0.2,0-0.4,0.2-0.5C29.7,43.2,30,43.1,30.4,43.2z M33.3,23.9c-0.4-0.4-0.9-0.6-1.6-0.6
		c-0.5,0-1,0.2-1.5,0.6c-0.5,0.4-0.8,1-0.8,1.6c0,0.6,0.3,1.1,0.8,1.6c0.5,0.5,1,0.7,1.5,0.7c0.7,0,1.2-0.2,1.6-0.7
		c0.4-0.5,0.6-1,0.6-1.6C33.9,24.9,33.7,24.3,33.3,23.9z M39.8,53.4c-0.4-0.4-0.9-0.7-1.5-0.7c-0.6,0-1.1,0.2-1.6,0.7
		c-0.5,0.4-0.7,1-0.7,1.5s0.2,1.1,0.7,1.5c0.5,0.4,1,0.7,1.6,0.7c0.7,0,1.2-0.2,1.5-0.7c0.4-0.4,0.6-1,0.6-1.5S40.2,53.8,39.8,53.4z
		 M46.8,70.3c1.1,0.8,2.2,1.8,3.2,2.9c1-1.1,2-2.1,3.2-2.9c1.1-0.8,2.4-1.3,3.8-1.5c-1.5-0.2-2.8-0.7-3.8-1.5
		c-1.1-0.8-2.2-1.8-3.2-3c-1,1.2-2,2.2-3.2,3c-1.1,0.8-2.4,1.3-3.9,1.5C44.4,69,45.8,69.5,46.8,70.3z M44.9,12.4l3.4,3.4l-3.4,3.3
		v1.7h1.8l3.3-3.4l3.3,3.4h1.8v-1.7l-3.4-3.3l3.4-3.4v-1.9h-1.8L50,13.9l-3.3-3.4h-1.8V12.4z M46.4,30.6c0.9,1,2.1,1.5,3.6,1.5
		c1.3,0,2.5-0.5,3.5-1.5s1.5-2.2,1.5-3.5c0-1.5-0.5-2.7-1.5-3.6c-1-0.9-2.2-1.4-3.5-1.4c-1.5,0-2.7,0.5-3.6,1.4
		c-0.9,0.9-1.4,2.1-1.4,3.6C45,28.5,45.5,29.6,46.4,30.6z M52.3,36.3c-0.7-0.6-1.4-0.8-2.3-0.8c-0.9,0-1.6,0.3-2.3,0.8
		c-0.7,0.6-1,1.3-1,2.3c0,0.9,0.3,1.6,1,2.3c0.7,0.6,1.4,1,2.3,1c0.9,0,1.6-0.3,2.3-1c0.7-0.6,1-1.4,1-2.3
		C53.3,37.6,53,36.9,52.3,36.3z M48.2,29c0.5,0.5,1.1,0.8,1.8,0.8c0.7,0,1.3-0.3,1.8-0.8s0.8-1.1,0.8-1.9c0-0.7-0.3-1.4-0.8-1.9
		s-1.1-0.8-1.8-0.8c-0.7,0-1.3,0.3-1.8,0.8s-0.8,1.1-0.8,1.9C47.4,27.9,47.7,28.5,48.2,29z M51.5,44.9c-0.5-0.4-1-0.6-1.5-0.6
		c-0.7,0-1.2,0.2-1.7,0.6c-0.4,0.4-0.6,1-0.6,1.6c0,0.7,0.2,1.2,0.6,1.7c0.4,0.5,1,0.7,1.7,0.7c0.5,0,1-0.2,1.5-0.7
		c0.5-0.5,0.8-1,0.8-1.7C52.3,45.8,52,45.3,51.5,44.9z M51.5,52.4c-0.5-0.4-1-0.6-1.5-0.6c-0.7,0-1.2,0.2-1.7,0.6s-0.6,0.9-0.6,1.5
		c0,0.7,0.2,1.2,0.6,1.7s1,0.6,1.7,0.6c0.5,0,1-0.2,1.5-0.6s0.8-1,0.8-1.7C52.3,53.3,52,52.8,51.5,52.4z M75.4,49.3
		c1-1.2,1.9-2.5,2.8-3.9c0.8-1.4,1.5-2.8,2.1-4.3c0.6-1.5,0.8-2.9,0.8-4.3c0-0.9-0.2-1.8-0.6-2.6c-0.4-0.9-1-1.7-1.9-2.4
		c-0.8-0.7-1.8-1.3-2.9-1.8c-1.1-0.5-2.4-0.7-3.7-0.7c-0.7,0-2,0.2-3.9,0.5c-1.9,0.4-3.9,1.3-5.9,2.7c-2,1.4-3.8,3.6-5.3,6.5
		c-1.5,2.9-2.2,6.8-2,11.8c3.5,0,6.5,0.2,9.2,0.5c2.7,0.3,5.5,0.7,8.5,1.2C73.5,51.6,74.4,50.5,75.4,49.3z M70.9,32.7
		c-0.8,0-1.8,0.2-3.1,0.6c-1.3,0.4-2.5,1.1-3.8,2.1c-1.2,1-2.3,2.5-3.1,4.4c-0.9,1.9-1.3,4.3-1.3,7.3c0,0.9,0.4,1.4,1.3,1.4
		c0.9,0,1.4-0.5,1.4-1.4c0-2.9,0.4-5.1,1.3-6.6c0.9-1.6,1.8-2.7,2.9-3.5c1.1-0.7,2-1.2,3-1.3c0.9-0.2,1.4-0.3,1.5-0.3
		c1.1,0,1.8,0.2,2.3,0.7c0.5,0.5,0.8,1.4,0.8,2.7c0,1.2-0.4,2.4-1.3,3.6c-0.9,1.2-1.9,2.5-3.1,3.8l-1,1.5c-0.3,0.3-0.5,0.6-0.4,1
		c0,0.4,0.2,0.6,0.5,0.8c0.3,0.3,0.7,0.5,1,0.4c0.3-0.1,0.6-0.2,0.9-0.5l1.3-1.3c1.2-1.5,2.3-3,3.3-4.5c1-1.5,1.5-3.1,1.5-4.8
		C76.7,34.8,74.8,32.7,70.9,32.7z M60.2,56.5c0.4,0.4,0.9,0.7,1.5,0.7c0.6,0,1.1-0.2,1.6-0.7c0.5-0.4,0.7-1,0.7-1.5
		s-0.2-1.1-0.7-1.5c-0.5-0.4-1-0.7-1.6-0.7c-0.7,0-1.2,0.2-1.5,0.7c-0.4,0.4-0.6,1-0.6,1.5S59.8,56.1,60.2,56.5z M69.6,43.2
		c-1.3,1.3-2.3,1.8-3,1.7c-0.7-0.1-1.3-0.5-1.8-1c-0.4-0.1-0.7-0.1-1,0.2c-0.3,0.3-0.3,0.7,0,1c0.6,0.4,1.2,0.8,1.8,1.2
		s1.2,0.5,1.9,0.4c0.6-0.1,1.1-0.4,1.5-0.9c0.4-0.4,0.9-0.9,1.5-1.4c0.4-0.4,0.5-0.7,0.2-1C70.3,43.2,70,43.1,69.6,43.2z M71.3,74.7
		c-0.2-1-0.3-2.1-0.3-3.2c0-0.8,0.1-1.6,0.2-2.3c0.1-0.7,0.3-1.4,0.4-2.1c-0.9,1-1.9,1.9-3,2.6c-1.1,0.7-2.3,1.2-3.6,1.4
		C67.5,71.5,69.6,72.7,71.3,74.7z M66.7,27.1c0.4,0.5,0.9,0.7,1.6,0.7c0.5,0,1-0.2,1.5-0.7c0.4-0.5,0.7-1,0.7-1.6
		c0-0.7-0.2-1.2-0.7-1.6c-0.4-0.4-0.9-0.6-1.5-0.6c-0.7,0-1.2,0.2-1.6,0.6c-0.4,0.4-0.6,1-0.6,1.6C66.1,26.1,66.3,26.7,66.7,27.1z
		 M72,59.1c0.4,0.4,0.9,0.6,1.5,0.6c0.7,0,1.2-0.2,1.6-0.6c0.4-0.4,0.7-1,0.7-1.7c0-0.7-0.2-1.2-0.7-1.6c-0.4-0.4-1-0.6-1.6-0.6
		c-0.5,0-1,0.2-1.5,0.6c-0.4,0.4-0.7,0.9-0.7,1.6C71.3,58.1,71.5,58.7,72,59.1z M76,26.7c0.4,0.4,1,0.5,1.6,0.5
		c1.4,0,2.1-0.7,2.1-2.1c0-0.7-0.2-1.2-0.5-1.6c-0.4-0.4-0.9-0.6-1.6-0.6c-0.7,0-1.2,0.2-1.6,0.6c-0.4,0.4-0.7,1-0.7,1.6
		C75.3,25.8,75.5,26.3,76,26.7z M84,33.5c1.4,0,2.1-0.7,2.1-2.1c0-1.5-0.7-2.2-2.1-2.2s-2.1,0.7-2.1,2.2
		C81.9,32.8,82.6,33.5,84,33.5z"/>

</svg>
