<?xml version="1.0" encoding="utf-8"?>
<!-- Generator: Adobe Illustrator 19.0.0, SVG Export Plug-In . SVG Version: 6.00 Build 0)  -->
<svg version="1.1" id="q" xmlns="http://www.w3.org/2000/svg" xmlns:xlink="http://www.w3.org/1999/xlink" x="0px" y="0px"
	 viewBox="0 0 100 100" enable-background="new 0 0 100 100" xml:space="preserve">

	<path id="XMLID_11_" fill="#FFFFFF" d="M52.8,25.2c0.4,2.8,0.8,5.6,1.2,8.5c0.4,2.9,0.9,5.7,1.4,8.4c0.5,2.7,0.9,4.9,1.3,6.8
		c0.8-1.7,1.7-3.9,2.8-6.4c1-2.5,2-4.9,3-7.1c0.7-1.6,1.2-2.9,1.6-4c0.4-1,0.8-2.1,1.2-3.1c0.4-1,0.7-1.8,0.9-2.1
		c-1.6-1.1-2.4-2.5-2.4-4.4c0-1.5,0.5-2.9,1.6-4c1.1-1.1,2.4-1.6,4-1.6c1.5,0,2.9,0.5,4,1.6s1.7,2.4,1.7,4c0,1.5-0.6,2.8-1.7,3.9
		c-1.1,1-2.4,1.5-4,1.5h-0.2c-0.3,1.4-0.6,3.1-0.9,5c-0.3,1.9-0.5,3.9-0.8,6c-0.2,2.1-0.4,4.1-0.5,6.1c-0.1,2-0.2,3.8-0.2,5.4v0.5
		c1-1.1,2.2-2.3,3.5-3.6c1.3-1.4,2.7-2.7,4.1-4.1c1.4-1.3,2.7-2.6,4-3.8c1.3-1.2,2.3-2.2,3.1-3c-0.3-0.5-0.5-1-0.8-1.5
		c-0.2-0.5-0.4-1.1-0.4-1.7c0-1.5,0.5-2.8,1.6-3.9c1.1-1.1,2.4-1.6,4-1.6c1.5,0,2.8,0.5,3.9,1.6c1.1,1.1,1.6,2.4,1.6,3.9
		c0,1.6-0.5,2.9-1.6,4c-1.1,1.1-2.4,1.6-3.9,1.6c-0.3,0-0.5,0-0.8-0.1c-0.2-0.1-0.5-0.1-0.9-0.2c-4.9,7.7-7.7,13.2-8.4,16.6
		c1.6,0.5,2.5,1.2,2.8,2.1c0.1,0.3,0.2,0.6,0.2,0.8c0,0.2,0,0.4,0,0.6c0,0.8-0.2,1.5-0.6,2c-0.4,0.5-0.9,1-1.4,1.3
		c-0.4,0.3-0.8,0.7-1.2,1c-0.4,0.4-0.8,0.9-1.3,1.5l-0.3,0.4c-0.5,0.8-0.9,1.8-1.1,3c-0.2,1.2-0.4,2.4-0.4,3.8
		c0,0.9,0.1,1.9,0.2,2.8c0.1,1,0.3,1.8,0.7,2.5c0,0.1,0.1,0.3,0.2,0.3c0.1,0.1,0.3,0.2,0.4,0.4c0.3,0.2,0.6,0.4,0.9,0.8
		c0.3,0.3,0.4,0.7,0.4,1.3c0,1-0.5,1.9-1.6,2.6c-1.7,1.4-4.7,2.5-9,3.3s-9.2,1.2-14.8,1.2c-5.5,0-10.5-0.4-14.8-1.2s-7.3-1.9-9-3.3
		c-1.1-0.7-1.6-1.6-1.6-2.6c0-0.5,0.1-1,0.4-1.3c0.3-0.3,0.6-0.6,0.9-0.8c0.1-0.1,0.3-0.3,0.4-0.4c0.1-0.1,0.2-0.2,0.2-0.3
		c0.3-0.7,0.6-1.5,0.6-2.5c0.1-1,0.2-1.9,0.2-2.8c0-1.3-0.1-2.6-0.4-3.8c-0.2-1.2-0.6-2.2-1.1-3c-0.2-0.3-0.4-0.4-0.5-0.4
		c-0.4-0.6-0.8-1.1-1.1-1.5c-0.4-0.4-0.8-0.7-1.1-1c-0.5-0.4-1-0.8-1.4-1.3c-0.4-0.5-0.6-1.2-0.6-2c0-0.2,0-0.4,0-0.6
		c0-0.2,0.1-0.5,0.2-0.8c0.3-0.9,1.2-1.6,2.8-2.1c-0.7-3.4-3.5-8.9-8.4-16.6c-0.3,0.1-0.6,0.1-0.9,0.2c-0.2,0.1-0.5,0.1-0.8,0.1
		c-1.5,0-2.8-0.5-3.9-1.6c-1.1-1.1-1.6-2.4-1.6-4c0-1.5,0.5-2.8,1.6-3.9c1.1-1.1,2.4-1.6,3.9-1.6c1.6,0,2.9,0.5,4,1.6
		c1.1,1.1,1.6,2.4,1.6,3.9c0,0.6-0.1,1.2-0.4,1.7c-0.2,0.5-0.5,1-0.8,1.5c0.8,0.8,1.8,1.8,3.1,3c1.3,1.2,2.6,2.5,4,3.8
		c1.4,1.3,2.8,2.7,4.1,4.1c1.3,1.4,2.5,2.6,3.5,3.6v-0.5c0-1.6-0.1-3.4-0.2-5.4c-0.1-2-0.3-4-0.5-6.1c-0.2-2.1-0.5-4.1-0.8-6
		c-0.3-1.9-0.6-3.6-0.8-5h-0.2c-1.5,0-2.9-0.5-4-1.5c-1.1-1-1.6-2.3-1.6-3.9c0-1.5,0.5-2.9,1.6-4c1.1-1.1,2.4-1.6,4-1.6
		c1.6,0,2.9,0.5,4,1.6c1.1,1.1,1.6,2.4,1.6,4c0,1.9-0.8,3.3-2.4,4.4c0.2,0.4,0.5,1.1,0.9,2.1c0.4,1,0.8,2.1,1.2,3.1
		c0.4,1,0.9,2.4,1.6,4c0.9,2.2,1.9,4.6,3,7.1c1,2.5,2,4.7,2.8,6.4c0.4-2,0.8-4.4,1.3-7.2c0.5-2.8,0.9-5.6,1.4-8.4
		c0.4-2.9,0.8-5.7,1.2-8.4c0.4-2.7,0.7-5.1,0.9-7c-1.1-0.3-1.9-1-2.6-1.9c-0.7-0.9-1-2-1-3.2c0-1.5,0.5-2.9,1.6-4
		c1.1-1.1,2.4-1.7,4-1.7c1.5,0,2.8,0.6,4,1.7c1.1,1.1,1.6,2.5,1.6,4c0,1.2-0.3,2.3-1,3.1s-1.6,1.5-2.6,2
		C52.2,20,52.5,22.4,52.8,25.2z"/>

	<path id="XMLID_4_" d="M52.8,25.2c0.4,2.8,0.8,5.6,1.2,8.5c0.4,2.9,0.9,5.7,1.4,8.4c0.5,2.7,0.9,4.9,1.3,6.8
		c0.8-1.7,1.7-3.9,2.8-6.4c1-2.5,2-4.9,3-7.1c0.7-1.6,1.2-2.9,1.6-4c0.4-1,0.8-2.1,1.2-3.1c0.4-1,0.7-1.8,0.9-2.1
		c-1.6-1.1-2.4-2.5-2.4-4.4c0-1.5,0.5-2.9,1.6-4c1.1-1.1,2.4-1.6,4-1.6c1.5,0,2.9,0.5,4,1.6s1.7,2.4,1.7,4c0,1.5-0.6,2.8-1.7,3.9
		c-1.1,1-2.4,1.5-4,1.5h-0.2c-0.3,1.4-0.6,3.1-0.9,5c-0.3,1.9-0.5,3.9-0.8,6c-0.2,2.1-0.4,4.1-0.5,6.1c-0.1,2-0.2,3.8-0.2,5.4v0.5
		c1-1.1,2.2-2.3,3.5-3.6c1.3-1.4,2.7-2.7,4.1-4.1c1.4-1.3,2.7-2.6,4-3.8c1.3-1.2,2.3-2.2,3.1-3c-0.3-0.5-0.5-1-0.8-1.5
		c-0.2-0.5-0.4-1.1-0.4-1.7c0-1.5,0.5-2.8,1.6-3.9c1.1-1.1,2.4-1.6,4-1.6c1.5,0,2.8,0.5,3.9,1.6c1.1,1.1,1.6,2.4,1.6,3.9
		c0,1.6-0.5,2.9-1.6,4c-1.1,1.1-2.4,1.6-3.9,1.6c-0.3,0-0.5,0-0.8-0.1c-0.2-0.1-0.5-0.1-0.9-0.2c-4.9,7.7-7.7,13.2-8.4,16.6
		c1.6,0.5,2.5,1.2,2.8,2.1c0.1,0.3,0.2,0.6,0.2,0.8c0,0.2,0,0.4,0,0.6c0,0.8-0.2,1.5-0.6,2c-0.4,0.5-0.9,1-1.4,1.3
		c-0.4,0.3-0.8,0.7-1.2,1c-0.4,0.4-0.8,0.9-1.3,1.5l-0.3,0.4c-0.5,0.8-0.9,1.8-1.1,3c-0.2,1.2-0.4,2.4-0.4,3.8
		c0,0.9,0.1,1.9,0.2,2.8c0.1,1,0.3,1.8,0.7,2.5c0,0.1,0.1,0.3,0.2,0.3c0.1,0.1,0.3,0.2,0.4,0.4c0.3,0.2,0.6,0.4,0.9,0.8
		c0.3,0.3,0.4,0.7,0.4,1.3c0,1-0.5,1.9-1.6,2.6c-1.7,1.4-4.7,2.5-9,3.3s-9.2,1.2-14.8,1.2c-5.5,0-10.5-0.4-14.8-1.2s-7.3-1.9-9-3.3
		c-1.1-0.7-1.6-1.6-1.6-2.6c0-0.5,0.1-1,0.4-1.3c0.3-0.3,0.6-0.6,0.9-0.8c0.1-0.1,0.3-0.3,0.4-0.4c0.1-0.1,0.2-0.2,0.2-0.3
		c0.3-0.7,0.6-1.5,0.6-2.5c0.1-1,0.2-1.9,0.2-2.8c0-1.3-0.1-2.6-0.4-3.8c-0.2-1.2-0.6-2.2-1.1-3c-0.2-0.3-0.4-0.4-0.5-0.4
		c-0.4-0.6-0.8-1.1-1.1-1.5c-0.4-0.4-0.8-0.7-1.1-1c-0.5-0.4-1-0.8-1.4-1.3c-0.4-0.5-0.6-1.2-0.6-2c0-0.2,0-0.4,0-0.6
		c0-0.2,0.1-0.5,0.2-0.8c0.3-0.9,1.2-1.6,2.8-2.1c-0.7-3.4-3.5-8.9-8.4-16.6c-0.3,0.1-0.6,0.1-0.9,0.2c-0.2,0.1-0.5,0.1-0.8,0.1
		c-1.5,0-2.8-0.5-3.9-1.6c-1.1-1.1-1.6-2.4-1.6-4c0-1.5,0.5-2.8,1.6-3.9c1.1-1.1,2.4-1.6,3.9-1.6c1.6,0,2.9,0.5,4,1.6
		c1.1,1.1,1.6,2.4,1.6,3.9c0,0.6-0.1,1.2-0.4,1.7c-0.2,0.5-0.5,1-0.8,1.5c0.8,0.8,1.8,1.8,3.1,3c1.3,1.2,2.6,2.5,4,3.8
		c1.4,1.3,2.8,2.7,4.1,4.1c1.3,1.4,2.5,2.6,3.5,3.6v-0.5c0-1.6-0.1-3.4-0.2-5.4c-0.1-2-0.3-4-0.5-6.1c-0.2-2.1-0.5-4.1-0.8-6
		c-0.3-1.9-0.6-3.6-0.8-5h-0.2c-1.5,0-2.9-0.5-4-1.5c-1.1-1-1.6-2.3-1.6-3.9c0-1.5,0.5-2.9,1.6-4c1.1-1.1,2.4-1.6,4-1.6
		c1.6,0,2.9,0.5,4,1.6c1.1,1.1,1.6,2.4,1.6,4c0,1.9-0.8,3.3-2.4,4.4c0.2,0.4,0.5,1.1,0.9,2.1c0.4,1,0.8,2.1,1.2,3.1
		c0.4,1,0.9,2.4,1.6,4c0.9,2.2,1.9,4.6,3,7.1c1,2.5,2,4.7,2.8,6.4c0.4-2,0.8-4.4,1.3-7.2c0.5-2.8,0.9-5.6,1.4-8.4
		c0.4-2.9,0.8-5.7,1.2-8.4c0.4-2.7,0.7-5.1,0.9-7c-1.1-0.3-1.9-1-2.6-1.9c-0.7-0.9-1-2-1-3.2c0-1.5,0.5-2.9,1.6-4
		c1.1-1.1,2.4-1.7,4-1.7c1.5,0,2.8,0.6,4,1.7c1.1,1.1,1.6,2.5,1.6,4c0,1.2-0.3,2.3-1,3.1s-1.6,1.5-2.6,2
		C52.2,20,52.5,22.4,52.8,25.2z M27.9,62.2c0.2,0.3,0.4,0.7,0.6,1.1c0.2,0.4,0.4,0.8,0.5,1.2c0.8-0.9,3-1.8,6.5-2.9
		c3.5-1.1,8.3-1.7,14.5-1.7c5.9,0,10.6,0.5,14.2,1.6c3.6,1.1,5.8,2,6.8,2.9c0.1-0.3,0.3-0.7,0.5-1c0.2-0.4,0.4-0.7,0.6-1l0.4-0.5
		c0.3-0.3,0.6-0.7,0.7-1c-1.4-1.5-4-2.7-7.8-3.5c-0.2,0-0.3-0.1-0.3-0.2c-2-0.4-4.3-0.7-6.8-1C55.8,56,53,55.8,50,55.8
		s-5.8,0.1-8.3,0.4c-2.5,0.3-4.8,0.6-6.8,1c0,0.1-0.1,0.2-0.3,0.2c-3.8,0.8-6.4,2-7.8,3.5C27.2,61.5,27.5,62,27.9,62.2z M28.3,78.3
		c-0.3,0.2-0.5,0.4-0.7,0.5v0.1c0,0.1,0.1,0.3,0.4,0.5c0.4,0.5,1.1,0.8,2,1.1c0.8-0.6,2-1,3.6-1.3c1.6-0.3,3.4-0.5,5.3-0.7
		c1.9-0.1,3.9-0.2,5.8-0.3c2,0,3.7,0,5.3,0c1.5,0,3.2,0,5.2,0c2,0,4,0.1,5.9,0.3c1.9,0.1,3.7,0.4,5.3,0.7c1.6,0.3,2.8,0.8,3.6,1.3
		c0.5-0.1,0.9-0.3,1.3-0.6s0.8-0.5,1-0.8c0.1-0.1,0.2-0.2,0.1,0c-0.1,0.1-0.1,0.1-0.1,0c-0.1-0.1-0.3-0.4-0.6-0.7
		c-0.3-0.3-0.5-0.7-0.7-1c0-0.1,0-0.2,0,0c0,0.1,0,0.1,0,0c-0.1-0.1-0.2-0.3-0.3-0.6c-0.1-0.3-0.2-0.5-0.2-0.6c-2-0.7-4.7-1.3-8-1.5
		c-3.4-0.3-7.5-0.5-12.5-0.5s-9.2,0.2-12.5,0.5c-3.4,0.3-6,0.8-8,1.5c0,0.3-0.1,0.6-0.3,1c-0.1,0.1-0.1,0.2-0.2,0.3
		C28.8,77.9,28.6,78.1,28.3,78.3z M32.5,68.9c-1-0.7-1.9-1.5-2.8-2.5c0.4,1.4,0.6,2.8,0.6,4.3c0,0.5,0,1.1-0.1,1.6
		c-0.1,0.5-0.1,1.1-0.2,1.6c1.5-1.9,3.5-3.1,6-3.5C34.7,70.1,33.5,69.6,32.5,68.9z M47,68.3c1.1,0.8,2.1,1.8,3,3
		c0.9-1.2,1.9-2.2,3-3c1.1-0.8,2.3-1.3,3.6-1.4c-2.6-0.6-4.8-2.1-6.6-4.6c-1.8,2.5-4,4-6.6,4.6C44.7,67,45.9,67.5,47,68.3z M70,73.9
		c-0.1-0.5-0.1-1.1-0.2-1.6c-0.1-0.5-0.1-1.1-0.1-1.6c0-1.5,0.2-2.9,0.6-4.3c-0.9,1-1.8,1.8-2.8,2.5c-1,0.7-2.2,1.2-3.5,1.5
		C66.5,70.8,68.5,72,70,73.9z"/>

</svg>
