<?xml version="1.0" encoding="utf-8"?>
<!-- Generator: Adobe Illustrator 19.0.0, SVG Export Plug-In . SVG Version: 6.00 Build 0)  -->
<svg version="1.1" id="r" xmlns="http://www.w3.org/2000/svg" xmlns:xlink="http://www.w3.org/1999/xlink" x="0px" y="0px"
	 viewBox="0 0 100 100" enable-background="new 0 0 100 100" xml:space="preserve">

	<path id="XMLID_20_" fill="#FFFFFF" d="M84,74.9V84l-34.7,0.6L15.9,84v-9.1l0.4-0.4c0.7-0.7,1.6-1.3,2.5-1.8
		c0.9-0.4,1.9-0.8,2.9-0.9v-4.5l0.3-0.4c0.9-0.9,1.8-1.7,2.7-2.3c0.9-0.6,2.1-1,3.8-1.5v-0.3V27.8c-0.8-0.3-1.6-0.8-2.4-1.4
		c-0.8-0.6-1.5-1.2-2.1-1.8c-0.7-0.6-1.3-1.3-1.8-1.9s-0.9-1.1-1-1.5L21,21v-8.8l0.7-0.4c1.5-0.8,3.1-1.5,4.8-2
		c1.7-0.5,3.2-0.7,4.5-0.6h1.4v7.3c1.5-0.5,3-0.9,4.8-1c1.7-0.2,3.7-0.3,5.9-0.3v-8h12.5h1.3v8c2.2,0,4.2,0.1,5.9,0.3
		c1.7,0.2,3.3,0.5,4.8,1V9.2h1.3c1.3-0.1,2.8,0.1,4.5,0.6c1.7,0.5,3.3,1.2,4.6,2l0.9,0.4V21l-0.1,0.3c-0.2,0.4-0.6,0.9-1.1,1.5
		c-0.5,0.6-1.1,1.2-1.8,1.9c-0.7,0.6-1.4,1.2-2.2,1.8c-0.8,0.6-1.6,1-2.4,1.4v35.1v0.3c1.7,0.4,3,0.9,3.9,1.5
		c0.9,0.6,1.8,1.3,2.7,2.3l0.4,0.4v4.5c1,0.2,1.9,0.5,2.8,0.9c0.9,0.4,1.7,1,2.3,1.8L84,74.9z"/>

	<path id="XMLID_4_" d="M16.3,74.4c0.7-0.6,1.5-1.1,2.4-1.6c0.9-0.5,1.8-0.8,2.7-0.9v-0.3v-4.4l0.5-0.3c0.9-1,1.8-1.8,2.7-2.3
		c0.9-0.5,2.1-0.9,3.8-1.2v-0.3V27.8c-0.8-0.3-1.6-0.8-2.4-1.4c-0.8-0.6-1.5-1.2-2.1-1.8c-0.7-0.6-1.3-1.2-1.8-1.8
		c-0.5-0.6-0.9-1-1-1.4L21,21.1v-8.9l0.7-0.4c1.5-0.9,3-1.5,4.8-2c1.7-0.5,3.2-0.7,4.5-0.7l1.4,0.1v7.2c1.3-0.5,2.9-0.8,4.6-1
		c1.8-0.2,3.8-0.3,6-0.3v-8h12.5h1.3v8c2.2,0,4.2,0.1,5.9,0.3c1.7,0.2,3.3,0.5,4.8,1V9.2l1.3-0.1c1.3,0,2.8,0.2,4.5,0.7
		c1.7,0.5,3.3,1.1,4.7,2l0.8,0.4v8.9l-0.2,0.3c-0.2,0.4-0.5,0.9-1,1.4c-0.5,0.6-1,1.2-1.7,1.8c-0.7,0.6-1.4,1.2-2.2,1.8
		c-0.8,0.6-1.6,1-2.4,1.4v35.3v0.3c1.7,0.3,2.9,0.7,3.8,1.2c0.9,0.5,1.8,1.3,2.8,2.3l0.4,0.3v4.4v0.3c1,0.1,1.9,0.4,2.8,0.9
		c0.9,0.5,1.7,1,2.3,1.6l0.4,0.4v9.1l-34.7,0.7l-33.4-0.7v-9.1L16.3,74.4z M18.6,81.1c0.5,0,1.8,0,4.1,0c2.3,0,4.8,0,7.7,0
		c2.9,0,5.9,0,8.8,0c2.9,0,5.3,0,7.1,0c1.9,0,2.9,0,3,0h2.2c1.5,0,3.4,0,5.6,0c2.3,0,4.7,0,7.3,0c2.7,0,5.2,0,7.5,0
		c2.4,0,4.5,0,6.2,0c1.7,0,2.8,0,3.2,0v-4.9c-0.6-0.5-1.3-1-2-1.3c-0.7-0.3-1.5-0.5-2.4-0.5H23c-0.9,0.1-1.6,0.3-2.4,0.5
		c-0.7,0.3-1.4,0.7-2,1.3V81.1z M75.7,68.4c-0.7-0.7-1.5-1.2-2.3-1.5c-0.8-0.4-2-0.7-3.5-1H30c-1.7,0.3-2.9,0.7-3.6,1
		c-0.7,0.4-1.5,0.9-2.3,1.5v2.8h51.6V68.4z M59.7,23c3.3,0.6,6.7,1.4,10.3,2.4c0.7-0.3,1.5-0.7,2.3-1.3c0.8-0.6,1.5-1.2,2.2-1.9
		c-1.5-0.9-3.4-1.6-5.5-2.1c-2.1-0.5-4.3-1-6.5-1.3c-2.2-0.3-4.5-0.6-6.7-0.7c-2.2-0.1-4.1-0.2-5.8-0.2c-1.7,0-3.6,0.1-5.8,0.2
		c-2.2,0.1-4.4,0.4-6.7,0.7c-2.3,0.3-4.5,0.8-6.6,1.3c-2.1,0.5-4,1.2-5.5,2.1c0.7,0.7,1.4,1.3,2.2,1.9c0.8,0.6,1.6,1,2.4,1.3
		c3.6-1,7-1.8,10.3-2.4c3.3-0.6,6.5-0.9,9.7-1C53.2,22.1,56.4,22.4,59.7,23z M35.7,36.9c0.4,0,0.9-0.1,1.4-0.3
		c0.5-0.1,1.1-0.1,1.6-0.1c0.5,0,1.1-0.1,1.6-0.3v6c-1.2,0.2-2.3,0.3-3.2,0.3c-0.5,0.1-1,0.1-1.5,0.2c-0.5,0.1-0.9,0.1-1.3,0.1
		c-0.5,0.1-1.1,0.1-1.6,0.3c-0.5,0.1-1.1,0.2-1.6,0.4v2.7c0.5-0.1,1.1-0.2,1.6-0.3c0.5,0,1-0.1,1.6-0.3v6.2c-0.5,0-1.1,0-1.6,0
		c-0.5,0-1.1,0-1.6,0v2.7c0.5,0,1.1,0,1.6,0c0.5,0,1.1-0.1,1.6-0.1c0.4-0.1,0.8-0.1,1.3-0.1c0.5,0,1,0,1.5,0h3.2v5.8
		c-1.9,0-3.7,0-5.4,0.1c-1.7,0.1-3,0.1-3.8,0.1v2.7h2.5c0.9-0.1,1.9-0.2,3-0.2c1.1,0,2.4,0,3.7,0c0.4-0.1,0.8-0.1,1.3-0.1
		c0.5,0,0.9,0,1.4,0h7h6.9c0.5,0,1,0,1.4,0c0.4,0,0.9,0,1.4,0.1c1.2,0,2.4,0,3.5,0c1.2,0,2.2,0.1,3.1,0.2h2.4v-2.7
		c-0.8,0-2,0-3.7-0.1c-1.7-0.1-3.4-0.1-5.3-0.1v-5.8h3.2c0.4,0,0.8,0,1.3,0c0.5,0,0.9,0,1.4,0.1c0.5,0,1.1,0,1.7,0.1
		c0.6,0,1,0,1.5,0v-2.7c-0.5,0-1,0-1.5,0c-0.5,0-1,0-1.6,0v-6.2c0.5,0.1,1.1,0.2,1.7,0.3c0.6,0,1,0.1,1.5,0.3v-2.7
		c-1-0.3-2-0.5-3.1-0.6c-0.5,0-0.9,0-1.4-0.1c-0.5-0.1-0.9-0.1-1.3-0.2c-1.1,0-2.2-0.1-3.2-0.3v-6c0.5,0.1,1,0.2,1.5,0.3
		c0.5,0,1,0.1,1.7,0.1c0.4,0.1,0.8,0.2,1.3,0.3c0.5,0,0.9,0.1,1.4,0.3c0.3,0.1,0.5,0.1,0.8,0.1c0.3,0,0.6,0.1,0.9,0.2l1.4,0.2v-2.8
		H68c-0.3-0.1-0.7-0.2-1.2-0.3c-0.4-0.1-0.8-0.2-1.3-0.3v-4.8c0.5,0.1,1.1,0.3,1.6,0.4c0.5,0.1,1,0.3,1.5,0.4v-2.3
		c-3-1-5.9-1.7-8.8-2.2c-2.9-0.4-5.7-0.6-8.6-0.6h-2.7c-5.6,0.1-11.4,1.1-17.5,2.8v2.3c0.6-0.1,1.2-0.3,1.7-0.4
		c0.5-0.1,1-0.3,1.5-0.4v4.8c-0.5,0.1-0.9,0.2-1.3,0.3c-0.4,0.1-0.8,0.2-1.1,0.3h-0.8v2.8l1.6-0.2c0.3-0.1,0.6-0.2,0.9-0.2
		c0.3,0,0.5,0,0.7-0.1C34.8,37,35.3,36.9,35.7,36.9z M43,33.2c0.9-0.1,1.8-0.1,2.7-0.1c1,0,2,0,2.9,0v-5.7c-1.9,0.1-3.8,0.2-5.7,0.5
		c-1.9,0.3-3.9,0.6-5.8,0.9v5.1c0.5-0.1,0.9-0.1,1.4-0.2c0.5-0.1,0.9-0.1,1.4-0.2h0.4L43,33.2z M43,51.5h4.7h0.9v-6.9
		c-0.9,0-1.8,0-2.7,0c-0.9,0-1.9,0.1-2.9,0.2c-0.5,0.1-0.9,0.1-1.4,0.1c-0.5,0-0.9,0.1-1.3,0.2c-0.6,0-1.1,0-1.6,0.1
		c-0.5,0-1,0-1.6,0v6.4h3.2L43,51.5z M43,33.2c-0.5,0.1-1,0.2-1.5,0.2c-0.5,0-0.9,0-1.2,0.1L43,33.2z M43,51.5c-0.5,0-0.9,0-1.4,0
		c-0.5,0-0.9,0-1.3,0.1L43,51.5z M50,35.6h1.3c0.9,0,1.9,0,2.8,0.1c0.9,0.1,1.9,0.1,2.8,0.2v6.2c-1-0.1-2-0.2-2.9-0.2
		c-0.9,0-1.8,0-2.7,0H50h-1.4c-0.9,0-1.8,0-2.7,0C45,41.9,44,42,43,42.1v-6.2c0.9-0.1,1.8-0.1,2.7-0.1c1,0,2-0.1,2.9-0.2H50z
		 M48.6,54.2h-0.9H43v5.9h7h6.9v-5.9h-4.8h-0.8H48.6z M51.3,54.2H50h-1.4H51.3z M59.7,33.5h0.4c0.4,0.1,0.8,0.1,1.3,0.2
		c0.5,0.1,1,0.1,1.5,0.2v-5.3c-3.9-0.7-7.7-1.1-11.6-1.2v5.7c1,0,2,0,2.9,0.1c0.9,0,1.8,0,2.8,0L59.7,33.5z M58.3,51.5
		c-0.4,0-0.9,0-1.4,0h-4.8h-0.8v-6.9c0.9,0,1.8,0,2.7,0c0.9,0,1.9,0.1,2.9,0.2c0.5,0.1,1,0.1,1.4,0.1c0.4,0,0.9,0.1,1.4,0.2
		c0.5,0,1.1,0,1.6,0.1c0.5,0,1.1,0,1.6,0v6.4h-3.2C59.2,51.6,58.7,51.5,58.3,51.5z M59.7,33.5c-0.4-0.1-0.8-0.1-1.3-0.1
		c-0.5,0-1-0.1-1.5-0.2L59.7,33.5z"/>

</svg>
