<?xml version="1.0" encoding="utf-8"?>
<!-- Generator: Adobe Illustrator 19.0.0, SVG Export Plug-In . SVG Version: 6.00 Build 0)  -->
<svg version="1.1" id="K" xmlns="http://www.w3.org/2000/svg" xmlns:xlink="http://www.w3.org/1999/xlink" x="0px" y="0px"
	 viewBox="0 0 100 100" enable-background="new 0 0 100 100" xml:space="preserve">

	<path id="XMLID_7_" fill="#FFFFFF" d="M17.8,34.4c1.8-4.2,4.3-7.9,7.5-11c3.1-3.1,6.8-5.6,11-7.5c4.2-1.8,8.7-2.8,13.5-2.8
		S59,14.2,63.3,16c4.3,1.8,8,4.3,11.1,7.5c3.1,3.1,5.6,6.8,7.4,11c1.8,4.2,2.8,8.7,2.8,13.5c0,4.8-0.9,9.3-2.8,13.6
		c-1.8,4.3-4.3,8-7.4,11.1c-3.1,3.1-6.8,5.6-11.1,7.4c-4.3,1.8-8.8,2.8-13.6,2.8s-9.3-0.9-13.5-2.8c-4.2-1.8-7.9-4.3-11-7.4
		c-3.1-3.1-5.6-6.8-7.5-11.1c-1.8-4.3-2.8-8.8-2.8-13.6C15,43.1,15.9,38.6,17.8,34.4z"/>

	<path id="XMLID_4_" d="M17.8,34.4c1.8-4.2,4.3-7.9,7.5-11c3.1-3.1,6.8-5.6,11-7.5c4.2-1.8,8.7-2.8,13.5-2.8S59,14.2,63.3,16
		c4.3,1.8,8,4.3,11.1,7.5c3.1,3.1,5.6,6.8,7.4,11c1.8,4.2,2.8,8.7,2.8,13.5c0,4.8-0.9,9.3-2.8,13.6c-1.8,4.3-4.3,8-7.4,11.1
		c-3.1,3.1-6.8,5.6-11.1,7.4c-4.3,1.8-8.8,2.8-13.6,2.8s-9.3-0.9-13.5-2.8c-4.2-1.8-7.9-4.3-11-7.4c-3.1-3.1-5.6-6.8-7.5-11.1
		c-1.8-4.3-2.8-8.8-2.8-13.6C15,43.1,15.9,38.6,17.8,34.4z M19.6,60.7c1.7,4,4.1,7.5,7,10.4c2.9,2.9,6.4,5.3,10.4,7
		c4,1.7,8.2,2.6,12.8,2.6c4.5,0,8.8-0.9,12.8-2.6c4-1.7,7.5-4.1,10.5-7c3-2.9,5.3-6.4,7-10.4c1.7-4,2.6-8.3,2.6-12.8
		c0-4.5-0.9-8.7-2.6-12.7c-1.7-4-4.1-7.5-7-10.4c-3-2.9-6.5-5.3-10.5-7c-4-1.7-8.3-2.6-12.8-2.6c-4.5,0-8.8,0.9-12.8,2.6
		c-4,1.7-7.4,4.1-10.4,7c-2.9,2.9-5.3,6.4-7,10.4c-1.7,4-2.6,8.2-2.6,12.7C17,52.5,17.9,56.7,19.6,60.7z"/>

</svg>
