<?xml version="1.0" encoding="utf-8"?>
<!-- Generator: Adobe Illustrator 19.0.0, SVG Export Plug-In . SVG Version: 6.00 Build 0)  -->
<svg version="1.1" id="k" xmlns="http://www.w3.org/2000/svg" xmlns:xlink="http://www.w3.org/1999/xlink" x="0px" y="0px"
	 viewBox="0 0 100 100" enable-background="new 0 0 100 100" xml:space="preserve">

	<path id="XMLID_4_" d="M17.8,34.4c1.8-4.2,4.3-7.9,7.5-11c3.1-3.1,6.8-5.6,11-7.5c4.2-1.8,8.7-2.8,13.5-2.8S59,14.2,63.3,16
		c4.3,1.8,8,4.3,11.1,7.5c3.1,3.1,5.6,6.8,7.4,11c1.8,4.2,2.8,8.7,2.8,13.5c0,4.8-0.9,9.3-2.8,13.6c-1.8,4.3-4.3,8-7.4,11.1
		c-3.1,3.1-6.8,5.6-11.1,7.4c-4.3,1.8-8.8,2.8-13.6,2.8s-9.3-0.9-13.5-2.8c-4.2-1.8-7.9-4.3-11-7.4c-3.1-3.1-5.6-6.8-7.5-11.1
		c-1.8-4.3-2.8-8.8-2.8-13.6C15,43.1,15.9,38.6,17.8,34.4z"/>

</svg>
