<?xml version="1.0" encoding="utf-8"?>
<!-- Generator: Adobe Illustrator 19.0.0, SVG Export Plug-In . SVG Version: 6.00 Build 0)  -->
<svg version="1.1" id="b" xmlns="http://www.w3.org/2000/svg" xmlns:xlink="http://www.w3.org/1999/xlink" x="0px" y="0px"
	 viewBox="0 0 100 100" enable-background="new 0 0 100 100" xml:space="preserve">

	<path id="XMLID_4_" d="M71.2,40.9c3.8,2.7,6.8,5.9,9,9.6c2.2,3.7,3.3,7.8,3.3,12.2c0,3.4-0.7,6.8-2.2,10.1
		c-0.6,1.5-1.6,3.1-2.9,4.9H50H21.5c-1.3-1.8-2.3-3.4-3-4.9c-1.5-3.3-2.2-6.7-2.2-10.1c0-6.3,2.2-11.8,6.6-16.7s10-8.3,16.8-10
		c1-0.7,1.5-1.5,1.5-2.5c0-0.9-0.5-1.7-1.4-2.5c-2-1.7-3-3.6-3-5.7c0-2.5,1.3-4.6,3.9-6.3c2.6-1.7,5.7-2.6,9.3-2.6
		c3.6,0,6.7,0.9,9.3,2.6c2.6,1.7,3.8,3.8,3.8,6.3c0,2.1-1,4-2.9,5.7c-0.9,0.8-1.4,1.6-1.4,2.5c0,1,0.5,1.8,1.4,2.5
		c2,0.6,3.6,1.2,4.9,1.7l-14,20.1c-1.3,1.9-1.1,3.4,0.8,4.7c1.8,1.3,3.4,1.1,4.7-0.8L71.2,40.9z M20,81h60v6.8H20V81z"/>

</svg>
