<?xml version="1.0" encoding="utf-8"?>
<!-- Generator: Adobe Illustrator 19.0.0, SVG Export Plug-In . SVG Version: 6.00 Build 0)  -->
<svg version="1.1" id="p" xmlns="http://www.w3.org/2000/svg" xmlns:xlink="http://www.w3.org/1999/xlink" x="0px" y="0px"
	 viewBox="0 0 100 100" enable-background="new 0 0 100 100" xml:space="preserve">

	<path id="XMLID_4_" d="M26.7,77.7c-3.3-4.7-5-10.1-5-16.3c0-6,1.7-11.4,5-16.1c3.4-4.7,7.7-8.1,13-10.2c-2.1-1.6-3.1-3.4-3.1-5.4
		c0-2.3,1.3-4.2,4-5.9c2.7-1.6,5.9-2.4,9.6-2.4c3.7,0,6.8,0.8,9.5,2.4c2.7,1.6,4,3.6,4,5.9c0,2.1-1.1,4-3.3,5.5
		c5.2,2.1,9.5,5.5,12.8,10.2c3.3,4.7,5,10.1,5,16c0,6.2-1.7,11.6-5,16.3H26.7z M26.7,81h46.5v6.8H26.7V81z"/>

</svg>
