<?xml version="1.0" encoding="utf-8"?>
<!-- Generator: Adobe Illustrator 19.0.0, SVG Export Plug-In . SVG Version: 6.00 Build 0)  -->
<svg version="1.1" id="Q" xmlns="http://www.w3.org/2000/svg" xmlns:xlink="http://www.w3.org/1999/xlink" x="0px" y="0px"
	 viewBox="0 0 100 100" enable-background="new 0 0 100 100" xml:space="preserve">

	<path id="XMLID_11_" fill="#FFFFFF" d="M73,40.3l13.3-11.2c1.8-1.6,3-2.2,3.6-1.8c0.5,0.4,0.5,1.6,0,3.7L73.1,77.7H26.7L10,31
		c-0.7-2.1-0.8-3.3-0.2-3.7c0.6-0.3,1.8,0.2,3.6,1.7l13.5,11.4L28.6,28c0.1-1.6,0.4-2.5,1.1-2.7c0.7-0.2,1.6,0.4,2.5,1.7l8.3,10.6
		l7.7-16.4c0.5-1.2,1.1-1.8,1.7-1.8c0.6,0,1.2,0.6,1.8,1.9l7.7,16.2L67.6,27c0.9-1.3,1.8-1.9,2.5-1.7c0.7,0.2,1.1,1.1,1.2,2.7
		L73,40.3z M26.7,81h46.5v6.8H26.7V81z"/>

	<path id="XMLID_4_" d="M73,40.3l13.3-11.2c1.8-1.6,3-2.2,3.6-1.8c0.5,0.4,0.5,1.6,0,3.7L73.1,77.7H26.7L10,31
		c-0.7-2.1-0.8-3.3-0.2-3.7c0.6-0.3,1.8,0.2,3.6,1.7l13.5,11.4L28.6,28c0.1-1.6,0.4-2.5,1.1-2.7c0.7-0.2,1.6,0.4,2.5,1.7l8.3,10.6
		l7.7-16.4c0.5-1.2,1.1-1.8,1.7-1.8c0.6,0,1.2,0.6,1.8,1.9l7.7,16.2L67.6,27c0.9-1.3,1.8-1.9,2.5-1.7c0.7,0.2,1.1,1.1,1.2,2.7
		L73,40.3z M27.5,47.2l-9.1-7.4l11.9,32.9h39.2l12-32.9l-9.1,7.5c-2.1,1.5-4.2,2.2-6.4,2.2c-4.1,0-7.2-1.9-9.1-5.7l-7-14.6L43,43.8
		c-1.9,3.8-4.9,5.7-9,5.7C31.7,49.5,29.6,48.8,27.5,47.2z M26.7,81h46.5v6.8H26.7V81z M31.4,44c0.9,0.4,1.8,0.6,2.6,0.6
		c1.6,0,3-0.7,4.1-2l-5.5-6.9L31.4,44z M49.8,49.5c1.1,0,2,0.8,2.8,2.4c0.8,1.6,1.2,3.6,1.2,5.9c0,2.3-0.4,4.3-1.2,5.9
		c-0.8,1.6-1.7,2.5-2.8,2.5c-1.1,0-2.1-0.8-2.8-2.5c-0.8-1.6-1.2-3.6-1.2-5.9c0-2.3,0.4-4.3,1.2-5.9C47.7,50.3,48.7,49.5,49.8,49.5z
		 M61.8,42.5c1.1,1.4,2.5,2.1,4.2,2.1c0.8,0,1.6-0.2,2.4-0.6l-1.2-8.3L61.8,42.5z"/>

</svg>
