<?xml version="1.0" encoding="utf-8"?>
<!-- Generator: Adobe Illustrator 19.0.0, SVG Export Plug-In . SVG Version: 6.00 Build 0)  -->
<svg version="1.1" id="B" xmlns="http://www.w3.org/2000/svg" xmlns:xlink="http://www.w3.org/1999/xlink" x="0px" y="0px"
	 viewBox="0 0 100 100" enable-background="new 0 0 100 100" xml:space="preserve">

	<path id="XMLID_8_" fill="#FFFFFF" d="M50,77.7H21.5c-1.3-1.8-2.3-3.4-3-4.9c-1.5-3.3-2.2-6.7-2.2-10.1c0-6.3,2.2-11.8,6.6-16.7
		s10-8.3,16.8-10c1-0.7,1.5-1.5,1.5-2.5c0-0.9-0.5-1.7-1.4-2.5c-2-1.7-3-3.6-3-5.7c0-2.5,1.3-4.6,3.9-6.3c2.6-1.7,5.7-2.6,9.3-2.6
		c3.6,0,6.7,0.9,9.3,2.6c2.6,1.7,3.8,3.8,3.8,6.3c0,2.1-1,4-2.9,5.7c-0.9,0.8-1.4,1.6-1.4,2.5c0,1,0.5,1.8,1.4,2.5
		C67,37.7,72.6,41.1,77,46s6.6,10.5,6.6,16.7c0,3.4-0.7,6.8-2.2,10.1c-0.6,1.5-1.6,3.1-2.9,4.9H50z M20,81h60v6.8H20V81z"/>

	<path id="XMLID_4_" d="M50,77.7H21.5c-1.3-1.8-2.3-3.4-3-4.9c-1.5-3.3-2.2-6.7-2.2-10.1c0-6.3,2.2-11.8,6.6-16.7s10-8.3,16.8-10
		c1-0.7,1.5-1.5,1.5-2.5c0-0.9-0.5-1.7-1.4-2.5c-2-1.7-3-3.6-3-5.7c0-2.5,1.3-4.6,3.9-6.3c2.6-1.7,5.7-2.6,9.3-2.6
		c3.6,0,6.7,0.9,9.3,2.6c2.6,1.7,3.8,3.8,3.8,6.3c0,2.1-1,4-2.9,5.7c-0.9,0.8-1.4,1.6-1.4,2.5c0,1,0.5,1.8,1.4,2.5
		C67,37.7,72.6,41.1,77,46s6.6,10.5,6.6,16.7c0,3.4-0.7,6.8-2.2,10.1c-0.6,1.5-1.6,3.1-2.9,4.9H50z M20,81h60v6.8H20V81z M62.1,41.5
		c-0.5-0.2-0.9-0.3-1-0.4c-4.8-1.6-7.2-4.2-7.2-7.9c0-1.9,0.9-3.6,2.6-5.1c1.1-0.7,1.7-1.6,1.7-2.7c0-1.3-0.8-2.4-2.4-3.3
		c-1.6-0.9-3.5-1.4-5.8-1.4c-2.3,0-4.2,0.4-5.8,1.4c-1.6,0.9-2.4,2-2.4,3.3c0,1.1,0.6,2,1.7,2.7c1.7,1.5,2.5,3.2,2.5,5.1
		c0,3.7-2.4,6.3-7.1,7.9c-5.2,1.8-9.4,4.7-12.7,8.6c-3.2,3.9-4.9,8.3-4.9,13.2c0,3.3,0.9,6.5,2.7,9.8H50h25.9
		c1.8-3.2,2.7-6.5,2.7-9.8c0-7.3-3.5-13.3-10.4-18.1L56.6,61.1c-1.3,1.9-2.9,2.2-4.7,0.9c-1.9-1.3-2.1-2.9-0.8-4.7L62.1,41.5z"/>

</svg>
