<?xml version="1.0" encoding="utf-8"?>
<!-- Generator: Adobe Illustrator 19.0.0, SVG Export Plug-In . SVG Version: 6.00 Build 0)  -->
<svg version="1.1" id="N" xmlns="http://www.w3.org/2000/svg" xmlns:xlink="http://www.w3.org/1999/xlink" x="0px" y="0px"
	 viewBox="0 0 100 100" enable-background="new 0 0 100 100" xml:space="preserve">

	<path id="XMLID_9_" fill="#FFFFFF" d="M71.7,19.4c0.4,0.4,0.8,0.8,1.2,1.1c0.4,0.3,0.7,0.7,1,1c0.8,0.9,1.4,2,1.8,3.1
		c-0.1,1.4,0.2,2.6,1.1,3.7c0.6,0.7,1.4,1.2,2.3,1.5c0.7,0.5,1.2,1.1,1.7,1.6c1.3,1.6,2.1,3.5,2.4,5.7c-0.5,1.6-0.2,3,0.8,4.3
		c0.1,0.1,0.1,0.1,0.1,0.2c0.3,0.4,0.6,0.7,1,1c1.3,1.8,1.9,3.7,1.9,5.8c0,0.9-0.1,1.7-0.3,2.4c-0.5,0.9-0.8,1.8-0.8,2.7
		c0,1.3,0.5,2.5,1.5,3.5c0.4,1.1,0.6,2.2,0.6,3.4c0,2.6-0.8,4.8-2.4,6.6c-0.5,0.8-0.7,1.6-0.7,2.4c0,0.4,0,0.9,0,1.5s0,1.2,0.1,1.8
		v5H29.6c-0.1-3.6,1.2-6.5,3.9-8.8c9.7-7.8,14.4-12.9,14.3-15.4c-2.3,0.7-4.4,1.1-6.3,1.2c-1.8,0-3.8-0.2-6-0.8
		c-2.9,5.9-6.2,9.1-9.8,9.8c-0.7,0.2-1.1,0.3-1.4,0.3c-0.3,0-0.9,0-1.6,0c-0.6,0.1-1.3,0-2.1-0.5c-0.8-0.5-1.5-0.8-2.1-1.1
		c-0.7-0.2-1.1-0.5-1.3-1c-0.2-0.5-0.6-1-1.4-1.7c-0.7-0.7-1.5-1.4-2.2-2C13,57,12.4,56.5,12.1,56c-0.1-0.1-0.3-0.8-0.6-1.9
		c-0.3-1.1-0.4-1.8-0.4-2.1c0.1-1.5,0.4-2.8,1.1-3.8c0.7-1,1.8-2.6,3.4-4.8c1.7-2.2,3-4,4-5.3c1-1.3,1.8-2.6,2.4-4
		c0.4-0.9,0.6-1.6,0.6-2.3c0-0.6,0.1-1.1,0.3-1.4c0.7-1.3,2.4-3.3,5.3-6c-0.1-0.1,0-0.3,0.5-0.8c0.4-0.5,0.6-1.3,0.4-2.5
		c-0.1-0.7-0.7-1.9-1.6-3.5c-0.3-0.4-0.6-0.9-0.8-1.4c-0.2-0.5-0.8-1.4-1.7-2.8c2.7,0,4.9,0.3,6.7,0.8c1.8,0.5,3.3,1.2,4.4,2
		c0.1-1.1-0.2-2.2-1-3.2c-0.8-0.9-1.5-1.8-2-2.5c-0.5-0.7-1.9-1.6-4.1-2.8c1.8-0.3,4.8-0.3,9,0.2c4.2,0.5,7.2,1.5,8.9,3.1
		c3.9-0.1,7,0.3,9.3,0.9c2.2,0.7,5,1.9,8.3,3.6C67.4,16.1,69.8,17.2,71.7,19.4z M29.6,81H85v6.8H29.6V81z"/>

	<path id="XMLID_4_" d="M71.7,19.4c0.4,0.4,0.8,0.8,1.2,1.1c0.4,0.3,0.7,0.7,1,1c0.8,0.9,1.4,2,1.8,3.1c-0.1,1.4,0.2,2.6,1.1,3.7
		c0.6,0.7,1.4,1.2,2.3,1.5c0.7,0.5,1.2,1.1,1.7,1.6c1.3,1.6,2.1,3.5,2.4,5.7c-0.5,1.6-0.2,3,0.8,4.3c0.1,0.1,0.1,0.1,0.1,0.2
		c0.3,0.4,0.6,0.7,1,1c1.3,1.8,1.9,3.7,1.9,5.8c0,0.9-0.1,1.7-0.3,2.4c-0.5,0.9-0.8,1.8-0.8,2.7c0,1.3,0.5,2.5,1.5,3.5
		c0.4,1.1,0.6,2.2,0.6,3.4c0,2.6-0.8,4.8-2.4,6.6c-0.5,0.8-0.7,1.6-0.7,2.4c0,0.4,0,0.9,0,1.5s0,1.2,0.1,1.8v5H29.6
		c-0.1-3.6,1.2-6.5,3.9-8.8c9.7-7.8,14.4-12.9,14.3-15.4c-2.3,0.7-4.4,1.1-6.3,1.2c-1.8,0-3.8-0.2-6-0.8c-2.9,5.9-6.2,9.1-9.8,9.8
		c-0.7,0.2-1.1,0.3-1.4,0.3c-0.3,0-0.9,0-1.6,0c-0.6,0.1-1.3,0-2.1-0.5c-0.8-0.5-1.5-0.8-2.1-1.1c-0.7-0.2-1.1-0.5-1.3-1
		c-0.2-0.5-0.6-1-1.4-1.7c-0.7-0.7-1.5-1.4-2.2-2C13,57,12.4,56.5,12.1,56c-0.1-0.1-0.3-0.8-0.6-1.9c-0.3-1.1-0.4-1.8-0.4-2.1
		c0.1-1.5,0.4-2.8,1.1-3.8c0.7-1,1.8-2.6,3.4-4.8c1.7-2.2,3-4,4-5.3c1-1.3,1.8-2.6,2.4-4c0.4-0.9,0.6-1.6,0.6-2.3
		c0-0.6,0.1-1.1,0.3-1.4c0.7-1.3,2.4-3.3,5.3-6c-0.1-0.1,0-0.3,0.5-0.8c0.4-0.5,0.6-1.3,0.4-2.5c-0.1-0.7-0.7-1.9-1.6-3.5
		c-0.3-0.4-0.6-0.9-0.8-1.4c-0.2-0.5-0.8-1.4-1.7-2.8c2.7,0,4.9,0.3,6.7,0.8c1.8,0.5,3.3,1.2,4.4,2c0.1-1.1-0.2-2.2-1-3.2
		c-0.8-0.9-1.5-1.8-2-2.5c-0.5-0.7-1.9-1.6-4.1-2.8c1.8-0.3,4.8-0.3,9,0.2c4.2,0.5,7.2,1.5,8.9,3.1c3.9-0.1,7,0.3,9.3,0.9
		c2.2,0.7,5,1.9,8.3,3.6C67.4,16.1,69.8,17.2,71.7,19.4z M68.7,23.5c-0.9-1.7-2.2-2.6-4.1-2.6c-0.6,0-1.4-0.2-2.3-0.6
		c-1.7-0.8-3.1-1.4-4.3-1.7c-1.2-0.3-2.7-0.8-4.4-1.3c-2.7-0.7-5.2-1.1-7.3-1.2c-0.9-0.5-1.5-0.8-1.9-0.9c-0.4-0.1-0.7-0.3-1-0.4
		c-0.7-0.3-1.2-0.4-1.7-0.4c-0.4,0-0.8,0-1,0c0.3,1.5,0.3,2.8,0.2,3.9c-0.1,1.2-1,2.5-2.5,3.9c-0.7-0.4-1.3-0.8-2-1.1
		c-0.6-0.3-1.7-0.6-3.2-0.9c0.3,0.9,0.5,1.8,0.5,2.5c0,0.7-0.4,2-1.3,3.7c-2.3,2.3-3.9,4.4-4.8,6.3c-0.3,0.7-0.7,1.3-1.1,2
		c-0.4,0.7-0.7,1.7-1,3.2c-0.4,1.1-1.6,2.7-3.5,4.6c-0.7,0.8-1.6,1.7-2.6,2.8c-1,1-1.9,2.3-2.7,3.7c-0.5,0.8-0.8,1.4-0.9,1.8
		c-0.2,0.4-0.1,0.9,0,1.5c0.5,1.3,0.9,2.2,1.2,2.5c0.3,0.3,1.1,0.9,2.2,1.8c0.7,0.3,1.3,0.8,1.9,1.6c0.6,0.8,1.2,1.2,2,1.2
		c1.6,0,2.8-0.2,3.6-0.7c1.3-0.7,2.3-1.7,3.1-3c0.8-1.3,1.5-2.7,2.2-4.3c0.6-0.8,1.2-1.5,1.8-2.1c0.6-0.6,1.8-0.6,3.4,0
		c0.8,0.3,2.1,0.5,4,0.5c2.7,0,5-0.9,7-2.8c1.9-1.9,2.8-4,2.8-6.5l-0.1-2.1c0-1.7,0.8-2.5,2.5-2.5c1.7,0,2.5,0.8,2.5,2.5l0.2,2
		c0,3.5-1.2,6.7-3.5,9.6c0.5,2.9,0.5,4.9,0,6.1c-0.5,1.2-1.4,2.6-2.6,4.3c-1.3,2-3,3.9-5.1,5.7c-2.1,1.8-4.9,4.1-8.4,6.8h43.5
		c0-0.9,0-2,0-3.3c0-1.9,0.5-3.7,1.5-5.3c1.1-1,1.6-2.2,1.6-3.7c0-0.2,0-0.5-0.1-1c-0.6-0.7-1.1-1.6-1.4-2.5
		c-0.4-1.1-0.6-2.3-0.6-3.4c0-1.5,0.3-3,1-4.5c0.1-0.3,0.1-0.5,0.1-0.6c0-0.8-0.2-1.6-0.7-2.4c-0.7-0.6-1.3-1.3-1.7-2.1
		c-1.4-2.1-1.9-4.5-1.6-7c-0.1-0.9-0.5-1.6-1-2.3c-0.1-0.1-0.3-0.3-0.4-0.4c-1.4-0.6-2.6-1.5-3.7-2.7c-0.8-0.9-1.4-1.9-1.7-3
		c-0.3-0.8-0.5-1.8-0.6-2.9c-0.1-0.1-0.1-0.3-0.3-0.4c-0.1-0.1-0.2-0.3-0.3-0.4C69.9,24.7,69.4,24.3,68.7,23.5z M29.6,81H85v6.8
		H29.6V81z M36.1,30.6c2.8,0,4.2,1.2,4.2,3.5c0,2.3-1.4,3.5-4.2,3.5c-2.7,0-4.1-1.2-4.1-3.5C32,31.8,33.4,30.6,36.1,30.6z"/>

</svg>
