<?xml version="1.0" encoding="utf-8"?>
<!-- Generator: Adobe Illustrator 19.0.0, SVG Export Plug-In . SVG Version: 6.00 Build 0)  -->
<svg version="1.1" id="P" xmlns="http://www.w3.org/2000/svg" xmlns:xlink="http://www.w3.org/1999/xlink" x="0px" y="0px"
	 viewBox="0 0 100 100" enable-background="new 0 0 100 100" xml:space="preserve">

	<path id="XMLID_8_" fill="#FFFFFF" d="M26.7,77.7c-3.3-4.7-5-10.1-5-16.3c0-6,1.7-11.4,5-16.1c3.4-4.7,7.7-8.1,13-10.2
		c-2.1-1.6-3.1-3.4-3.1-5.4c0-2.3,1.3-4.2,4-5.9c2.7-1.6,5.9-2.4,9.6-2.4c3.7,0,6.8,0.8,9.5,2.4c2.7,1.6,4,3.6,4,5.9
		c0,2.1-1.1,4-3.3,5.5c5.2,2.1,9.5,5.5,12.8,10.2c3.3,4.7,5,10.1,5,16c0,6.2-1.7,11.6-5,16.3H26.7z M26.7,81h46.5v6.8H26.7V81z"/>

	<path id="XMLID_4_" d="M26.7,77.7c-3.3-4.7-5-10.1-5-16.3c0-6,1.7-11.4,5-16.1c3.4-4.7,7.7-8.1,13-10.2c-2.1-1.6-3.1-3.4-3.1-5.4
		c0-2.3,1.3-4.2,4-5.9c2.7-1.6,5.9-2.4,9.6-2.4c3.7,0,6.8,0.8,9.5,2.4c2.7,1.6,4,3.6,4,5.9c0,2.1-1.1,4-3.3,5.5
		c5.2,2.1,9.5,5.5,12.8,10.2c3.3,4.7,5,10.1,5,16c0,6.2-1.7,11.6-5,16.3H26.7z M29.7,72.7h40.7c1.9-3.6,2.9-7.4,2.9-11.3
		c0-5.1-1.5-9.7-4.5-13.7c-3-4-6.8-6.9-11.4-8.5c-2.7-0.3-4.1-1.3-4.4-3c-0.3-1.9,1-3.4,3.7-4.6c1.1-0.5,1.6-1.1,1.6-1.9
		c0-1-0.8-1.9-2.5-2.5c-1.7-0.7-3.6-1.1-5.9-1.1c-2.3,0-4.3,0.4-6,1.1c-1.6,0.7-2.5,1.5-2.5,2.5c0,0.8,0.7,1.6,2,2.3
		c2.2,1.3,3.2,2.7,2.9,4.2c-0.2,1.4-1.5,2.4-3.9,3c-4.6,1.6-8.4,4.4-11.4,8.5c-3,4-4.5,8.6-4.5,13.7C26.6,65.3,27.6,69.1,29.7,72.7z
		 M26.7,81h46.5v6.8H26.7V81z"/>

</svg>
