<?xml version="1.0" encoding="utf-8"?>
<!-- Generator: Adobe Illustrator 19.0.0, SVG Export Plug-In . SVG Version: 6.00 Build 0)  -->
<svg version="1.1" id="k" xmlns="http://www.w3.org/2000/svg" xmlns:xlink="http://www.w3.org/1999/xlink" x="0px" y="0px"
	 viewBox="0 0 100 100" enable-background="new 0 0 100 100" xml:space="preserve">

	<path id="XMLID_9_" fill="#FFFFFF" d="M88.3,49.5L73.2,77.7H26.7L11.6,49.5c-0.8-2.1-1.2-4.3-1.2-6.4c0-5.1,2.1-9.4,6.2-13
		c4.1-3.6,9.1-5.4,14.9-5.4c1,0,1.9,0.1,2.6,0.2C39,22.3,44.3,21,50,21c5.6,0,10.9,1.3,15.8,3.9c0.7-0.1,1.6-0.2,2.6-0.2
		c5.8,0,10.8,1.8,14.9,5.4c4.1,3.6,6.2,7.9,6.2,13C89.5,45.1,89.1,47.3,88.3,49.5z M26.7,81h46.5v6.8H26.7V81z M52.4,21h-5v-5H45
		c-1.7,0-2.5-0.8-2.5-2.5c0-1.7,0.8-2.6,2.5-2.6h2.4V8.5C47.4,6.9,48.3,6,50,6c1.6,0,2.4,0.8,2.4,2.5v2.4H55c1.7,0,2.5,0.9,2.5,2.6
		c0,1.7-0.8,2.5-2.5,2.5h-2.6V21z"/>

	<path id="XMLID_4_" d="M88.3,49.5L73.2,77.7H26.7L11.6,49.5c-0.8-2.1-1.2-4.3-1.2-6.4c0-5.1,2.1-9.4,6.2-13
		c4.1-3.6,9.1-5.4,14.9-5.4c1,0,1.9,0.1,2.6,0.2C39,22.3,44.3,21,50,21c5.6,0,10.9,1.3,15.8,3.9c0.7-0.1,1.6-0.2,2.6-0.2
		c5.8,0,10.8,1.8,14.9,5.4c4.1,3.6,6.2,7.9,6.2,13C89.5,45.1,89.1,47.3,88.3,49.5z M26.7,81h46.5v6.8H26.7V81z M60.1,31.7
		c0.9-0.5,1.9-0.8,3-1c1.8-0.3,2.5-1.3,2.1-3c-0.4-1.6-1.5-2.3-3.3-2c-1.9,0.3-3.3,0.8-4.4,1.5C54.3,29,51.8,31.3,50,34
		c-1.9-2.7-4.4-4.9-7.5-6.8c-1.2-0.7-2.7-1.2-4.5-1.5c-1.9-0.3-3,0.3-3.4,2c-0.4,1.6,0.3,2.6,2.2,3c1.2,0.2,2.2,0.5,3.1,1
		c4.7,2.9,7,6.7,7,11.4c0,3.7-1.5,6.9-4.5,9.5c-3,2.6-6.6,3.8-10.8,3.8c-1.9,0-2.8,0.8-2.8,2.5c0,1.7,0.9,2.6,2.8,2.6
		c3.9,0,7.4-0.8,10.7-2.5c3.3-1.7,5.8-4,7.7-6.8c1.8,2.8,4.3,5,7.5,6.8c3.2,1.7,6.8,2.5,10.8,2.5c1.9,0,2.8-0.9,2.8-2.6
		c0-1.7-0.9-2.5-2.8-2.5c-4.2,0-7.8-1.3-10.8-3.8c-3-2.6-4.5-5.7-4.5-9.5C53,38.3,55.4,34.5,60.1,31.7z M52.4,21h-5v-5H45
		c-1.7,0-2.5-0.8-2.5-2.5c0-1.7,0.8-2.6,2.5-2.6h2.4V8.5C47.4,6.9,48.3,6,50,6c1.6,0,2.4,0.8,2.4,2.5v2.4H55c1.7,0,2.5,0.9,2.5,2.6
		c0,1.7-0.8,2.5-2.5,2.5h-2.6V21z"/>

</svg>
