<?xml version="1.0" encoding="utf-8"?>
<!-- Generator: Adobe Illustrator 19.0.0, SVG Export Plug-In . SVG Version: 6.00 Build 0)  -->
<svg version="1.1" id="q" xmlns="http://www.w3.org/2000/svg" xmlns:xlink="http://www.w3.org/1999/xlink" x="0px" y="0px"
	 viewBox="0 0 100 100" enable-background="new 0 0 100 100" xml:space="preserve">

	<path id="XMLID_10_" fill="#FFFFFF" d="M73,40.3l13.3-11.2c1.8-1.6,3-2.2,3.6-1.8c0.5,0.4,0.5,1.6,0,3.7L73.1,77.7H26.7L10,31
		c-0.7-2.1-0.8-3.3-0.2-3.7c0.6-0.3,1.8,0.2,3.6,1.7l13.5,11.4L28.6,28c0.1-1.6,0.4-2.5,1.1-2.7c0.7-0.2,1.6,0.4,2.5,1.7l8.3,10.6
		l7.7-16.4c0.5-1.2,1.1-1.8,1.7-1.8c0.6,0,1.2,0.6,1.8,1.9l7.7,16.2L67.6,27c0.9-1.3,1.8-1.9,2.5-1.7c0.7,0.2,1.1,1.1,1.2,2.7
		L73,40.3z M26.7,81h46.5v6.8H26.7V81z"/>

	<path id="XMLID_4_" d="M73,40.3l13.3-11.2c1.8-1.6,3-2.2,3.6-1.8c0.5,0.4,0.5,1.6,0,3.7L73.1,77.7H26.7L10,31
		c-0.7-2.1-0.8-3.3-0.2-3.7c0.6-0.3,1.8,0.2,3.6,1.7l13.5,11.4L28.6,28c0.1-1.6,0.4-2.5,1.1-2.7c0.7-0.2,1.6,0.4,2.5,1.7l8.3,10.6
		l7.7-16.4c0.5-1.2,1.1-1.8,1.7-1.8c0.6,0,1.2,0.6,1.8,1.9l7.7,16.2L67.6,27c0.9-1.3,1.8-1.9,2.5-1.7c0.7,0.2,1.1,1.1,1.2,2.7
		L73,40.3z M26.7,81h46.5v6.8H26.7V81z M31.1,45.4c1.1,0.4,2,0.6,2.8,0.6c1.7,0,3.2-0.7,4.5-2.1l-6-7.6L31.1,45.4z M49.8,49.5
		c-1.1,0-2.1,0.8-2.8,2.4c-0.8,1.6-1.2,3.6-1.2,5.9c0,2.3,0.4,4.3,1.2,5.9c0.8,1.6,1.7,2.5,2.8,2.5c1.1,0,2-0.8,2.8-2.5
		c0.8-1.6,1.2-3.6,1.2-5.9c0-2.3-0.4-4.3-1.2-5.9C51.8,50.3,50.9,49.5,49.8,49.5z M61.5,43.7c1.1,1.5,2.7,2.3,4.6,2.3
		c0.7,0,1.6-0.2,2.6-0.5l-1.3-9.2L61.5,43.7z"/>

</svg>
