<?xml version="1.0" encoding="utf-8"?>
<!-- Generator: Adobe Illustrator 19.0.0, SVG Export Plug-In . SVG Version: 6.00 Build 0)  -->
<svg version="1.1" id="r" xmlns="http://www.w3.org/2000/svg" xmlns:xlink="http://www.w3.org/1999/xlink" x="0px" y="0px"
	 viewBox="0 0 100 100" enable-background="new 0 0 100 100" xml:space="preserve">

	<path id="XMLID_10_" fill="#FFFFFF" d="M70,7.8h6.6c2.3,0,3.4,1.1,3.4,3.2v14.2c0,2.2-1.1,3.3-3.4,3.3h-5c-0.1,6.3,0.6,12,2.1,17.1
		c1.4,5.1,3.5,10.3,6.3,15.5v16.6H49.9h-30V61.1c2.8-5.2,4.9-10.4,6.3-15.5c1.4-5.1,2.1-10.8,2-17.1h-5c-2.2,0-3.3-1.1-3.3-3.3V11.1
		c0-2.2,1.1-3.3,3.3-3.3h7H35v4.8h9.9V7.8H55v4.8h9.9V7.8H70z M19.9,81H80v6.8H19.9V81z"/>

	<path id="XMLID_4_" d="M70,7.8h6.6c2.3,0,3.4,1.1,3.4,3.2v14.2c0,2.2-1.1,3.3-3.4,3.3h-5c-0.1,6.3,0.6,12,2.1,17.1
		c1.4,5.1,3.5,10.3,6.3,15.5v16.6H49.9h-30V61.1c2.8-5.2,4.9-10.4,6.3-15.5c1.4-5.1,2.1-10.8,2-17.1h-5c-2.2,0-3.3-1.1-3.3-3.3V11.1
		c0-2.2,1.1-3.3,3.3-3.3h7H35v4.8h9.9V7.8H55v4.8h9.9V7.8H70z M19.9,81H80v6.8H19.9V81z M49.9,26.1h-10v25.1l10,9.7L60,51.2V26.1
		H49.9z M49.9,29.4h6.6v20.8l-6.6,6.2l-6.6-6.2V29.4H49.9z M48.2,43.1v3.1c0,1.1,0.6,1.7,1.7,1.7c1.1,0,1.7-0.6,1.7-1.7v-3.1h1.7
		c1.1,0,1.7-0.6,1.7-1.7c0-1.1-0.6-1.7-1.7-1.7h-1.7v-3.4c0-1.2-0.6-1.8-1.7-1.8c-1.1,0-1.7,0.6-1.7,1.8v3.4h-1.6
		c-1.1,0-1.7,0.6-1.7,1.7c0,1.1,0.6,1.7,1.7,1.7H48.2z"/>

</svg>
