<?xml version="1.0" encoding="utf-8"?>
<!-- Generator: Adobe Illustrator 19.0.0, SVG Export Plug-In . SVG Version: 6.00 Build 0)  -->
<svg version="1.1" id="K" xmlns="http://www.w3.org/2000/svg" xmlns:xlink="http://www.w3.org/1999/xlink" x="0px" y="0px"
	 viewBox="0 0 100 100" enable-background="new 0 0 100 100" xml:space="preserve">

	<path id="XMLID_13_" fill="#FFFFFF" d="M71.7,59.4H28.3L4.7,22.8h90.6L71.7,59.4z M28.3,66h43.4v25.1H28.3V66z M50,16H35V9.3h11.7
		v-5h6.6v5h11.6V16H50z"/>

	<path id="XMLID_4_" d="M71.7,59.4H28.3L4.7,22.8h90.6L71.7,59.4z M67.7,52.7l15.2-23.3H17l15.3,23.3H67.7z M43.7,45.9L35.8,46
		l-8.1-11.5h8.1L43.7,45.9z M28.3,66h43.4v25.1H28.3V66z M50,16H35V9.3h11.7v-5h6.6v5h11.6V16H50z M35,72.6v11.7h29.9V72.6H35z
		 M46.7,34.4h6.6v11.5h-6.6V34.4z M56.2,45.9l8.1-11.5l8,0.1l-7.9,11.4H56.2z"/>

</svg>
