<?xml version="1.0" encoding="utf-8"?>
<!-- Generator: Adobe Illustrator 19.0.0, SVG Export Plug-In . SVG Version: 6.00 Build 0)  -->
<svg version="1.1" id="n" xmlns="http://www.w3.org/2000/svg" xmlns:xlink="http://www.w3.org/1999/xlink" x="0px" y="0px"
	 viewBox="0 0 100 100" enable-background="new 0 0 100 100" xml:space="preserve">

	<path id="XMLID_8_" fill="#FFFFFF" d="M39.7,21.1c0.7-0.1,1.4-0.5,2.3-1.1c0.8-0.6,1.4-1.2,1.9-1.8l5.2-3.7l-5.2-5.3l4.8-4.8
		l38.2,38.4v48.3H28.7V84L42,55.7l-18.7,6.8L12.8,39.9L39.7,21.1z"/>

	<path id="XMLID_4_" d="M39.7,21.1c0.7-0.1,1.4-0.5,2.3-1.1c0.8-0.6,1.4-1.2,1.9-1.8l5.2-3.7l-5.2-5.3l4.8-4.8l38.2,38.4v48.3H28.7
		V84L42,55.7l-18.7,6.8L12.8,39.9L39.7,21.1z M47.6,26.6c-2.7,0-4.1,1.4-4.1,4.1c0,2.8,1.4,4.2,4.1,4.2c2.8,0,4.2-1.4,4.2-4.2
		C51.8,28,50.4,26.6,47.6,26.6z M75.9,68.5L76,47.7L66.2,38l-6.5,2.9l9.6,9.7v17.9H75.9z"/>

</svg>
