<?xml version="1.0" encoding="utf-8"?>
<!-- Generator: Adobe Illustrator 19.0.0, SVG Export Plug-In . SVG Version: 6.00 Build 0)  -->
<svg version="1.1" id="Q" xmlns="http://www.w3.org/2000/svg" xmlns:xlink="http://www.w3.org/1999/xlink" x="0px" y="0px"
	 viewBox="0 0 100 100" enable-background="new 0 0 100 100" xml:space="preserve">

	<path id="XMLID_10_" fill="#FFFFFF" d="M95.3,22.8L71.6,59.4H28.3L4.7,22.8l31.5,8.5L50,7.5l13.7,23.8L95.3,22.8z M28.3,66h43.3
		v25.1H28.3V66z"/>

	<path id="XMLID_4_" d="M95.3,22.8L71.6,59.4H28.3L4.7,22.8l31.5,8.5L50,7.5l13.7,23.8L95.3,22.8z M80.1,33.7L60.5,39L50,20.7
		L39.4,39l-19.5-5.3l12.4,19h35.4L80.1,33.7z M28.3,66h43.3v25.1H28.3V66z M35,72.6v11.7h29.9V72.6H35z M50,45.9h-7L50,34l6.8,11.9
		H50z"/>

</svg>
