<?xml version="1.0" encoding="utf-8"?>
<!-- Generator: Adobe Illustrator 19.0.0, SVG Export Plug-In . SVG Version: 6.00 Build 0)  -->
<svg version="1.1" id="N" xmlns="http://www.w3.org/2000/svg" xmlns:xlink="http://www.w3.org/1999/xlink" x="0px" y="0px"
	 viewBox="0 0 100 100" enable-background="new 0 0 100 100" xml:space="preserve">

	<path id="XMLID_9_" fill="#FFFFFF" d="M86.9,84.3v6.8H28.7l-0.1-6.8L42,55.7l-18.7,6.8L12.8,39.9l36.3-25.4l-5.2-5.3l4.8-4.8
		l38.2,38.5V84.3z"/>

	<path id="XMLID_4_" d="M86.9,84.3v6.8H28.7l-0.1-6.8L42,55.7l-18.7,6.8L12.8,39.9l36.3-25.4l-5.2-5.3l4.8-4.8l38.2,38.5V84.3z
		 M51.1,52.3l-15,32h44.2V45.6L54.1,19.3L21.3,42.2l5.5,11.7l25.8-9.4l2.4,6.3L51.1,52.3z M49.1,27.7c3,0,4.5,1.5,4.5,4.5
		s-1.5,4.5-4.5,4.5s-4.5-1.5-4.5-4.5S46.1,27.7,49.1,27.7z M73.9,69.5h-6.6V51.6l-9.6-9.7l6.5-2.9l9.8,9.7L73.9,69.5z"/>

</svg>
