<?xml version="1.0" encoding="utf-8"?>
<!-- Generator: Adobe Illustrator 19.0.0, SVG Export Plug-In . SVG Version: 6.00 Build 0)  -->
<svg version="1.1" id="k" xmlns="http://www.w3.org/2000/svg" xmlns:xlink="http://www.w3.org/1999/xlink" x="0px" y="0px"
	 viewBox="0 0 100 100" enable-background="new 0 0 100 100" xml:space="preserve">

	<path id="XMLID_11_" fill="#FFFFFF" d="M71.7,59.4H28.3L4.7,22.8h90.6L71.7,59.4z M28.3,66h43.4v25.1H28.3V66z M50,16H35V9.3h11.7
		v-5h6.6v5h11.6V16H50z"/>

	<path id="XMLID_4_" d="M71.7,59.4H28.3L4.7,22.8h90.6L71.7,59.4z M41.6,46.5l-8.8-12.6h-8.9l8.9,12.6H41.6z M28.3,66h43.4v25.1
		H28.3V66z M50,16H35V9.3h11.7v-5h6.6v5h11.6V16H50z M46.4,33.8v12.7h7.2V33.8H46.4z M58.4,46.5h9l8.7-12.6l-8.8-0.1L58.4,46.5z"/>

</svg>
