<?xml version="1.0" encoding="utf-8"?>
<!-- Generator: Adobe Illustrator 19.0.0, SVG Export Plug-In . SVG Version: 6.00 Build 0)  -->
<svg version="1.1" id="K" xmlns="http://www.w3.org/2000/svg" xmlns:xlink="http://www.w3.org/1999/xlink" x="0px" y="0px"
	 viewBox="0 0 100 100" enable-background="new 0 0 100 100" xml:space="preserve">

	<path id="XMLID_17_" fill="#FFFFFF" d="M84.8,66.1c0,0.9-0.2,1.7-0.5,2.5c-0.4,0.8-0.8,1.5-1.5,2.1c-0.6,0.6-1.3,1-2.1,1.4
		c-0.8,0.4-1.7,0.5-2.6,0.5h-9.8v6.6c0.9,0,1.8,0.2,2.6,0.5c0.8,0.4,1.5,0.9,2.1,1.5c0.6,0.6,1.1,1.4,1.4,2.2
		c0.3,0.8,0.5,1.7,0.5,2.7V91h-50v-4.9c0-0.9,0.2-1.8,0.6-2.7c0.4-0.8,0.8-1.6,1.4-2.2c0.6-0.6,1.3-1.1,2.1-1.5
		c0.8-0.4,1.7-0.5,2.6-0.5v-6.6h-9.8c-0.9,0-1.8-0.2-2.6-0.5c-0.8-0.3-1.5-0.8-2.1-1.4c-0.6-0.6-1.1-1.3-1.4-2.1
		c-0.3-0.8-0.5-1.6-0.5-2.4v-7l-5.1-28.1c-0.2-0.6-0.4-1.2-0.5-1.8c-0.1-0.6-0.1-1.1-0.1-1.6c0-1.9,0.4-3.6,1-5.2
		c0.7-1.6,1.7-3,2.9-4.2c1.2-1.2,2.6-2.1,4.2-2.9c1.6-0.7,3.3-1,5.1-1c0.7,0,1.4,0,2,0.1c0.6,0.1,1.2,0.3,1.8,0.4l15,4
		c0.3-0.5,0.7-1,1.2-1.4c0.4-0.4,0.9-0.8,1.3-1.1c-0.8-0.5-1.4-1.1-1.8-1.8c-0.4-0.7-0.7-1.5-0.7-2.3c0-0.8,0.2-1.6,0.7-2.3
		c0.4-0.7,1-1.4,1.8-1.9c0.7-0.5,1.6-0.9,2.7-1.3c1-0.3,2.1-0.4,3.3-0.4c1.2,0,2.3,0.1,3.3,0.4c1,0.3,1.9,0.7,2.6,1.3
		c0.8,0.5,1.4,1.2,1.8,1.9c0.4,0.7,0.6,1.5,0.6,2.3c0,0.7-0.2,1.4-0.5,2.1c-0.4,0.7-0.9,1.4-1.7,2c0.5,0.3,0.9,0.7,1.3,1.1
		c0.4,0.4,0.8,0.9,1.1,1.4l15-4c0.5-0.2,1.1-0.3,1.8-0.4c0.7-0.1,1.3-0.1,2-0.1c1.9,0,3.6,0.3,5.2,1c1.6,0.7,3,1.6,4.2,2.9
		c1.2,1.2,2.2,2.6,2.9,4.2c0.7,1.6,1,3.3,1,5.2c0,0.5,0,1.1-0.1,1.6c-0.1,0.6-0.2,1.1-0.5,1.8l-5.1,28.1V66.1z"/>

	<path id="XMLID_4_" d="M84.8,66.1c0,0.9-0.2,1.7-0.5,2.5c-0.4,0.8-0.8,1.5-1.5,2.1c-0.6,0.6-1.3,1-2.1,1.4
		c-0.8,0.4-1.7,0.5-2.6,0.5h-9.8v6.6c0.9,0,1.8,0.2,2.6,0.5c0.8,0.4,1.5,0.9,2.1,1.5c0.6,0.6,1.1,1.4,1.4,2.2
		c0.3,0.8,0.5,1.7,0.5,2.7V91h-50v-4.9c0-0.9,0.2-1.8,0.6-2.7c0.4-0.8,0.8-1.6,1.4-2.2c0.6-0.6,1.3-1.1,2.1-1.5
		c0.8-0.4,1.7-0.5,2.6-0.5v-6.6h-9.8c-0.9,0-1.8-0.2-2.6-0.5c-0.8-0.3-1.5-0.8-2.1-1.4c-0.6-0.6-1.1-1.3-1.4-2.1
		c-0.3-0.8-0.5-1.6-0.5-2.4v-7l-5.1-28.1c-0.2-0.6-0.4-1.2-0.5-1.8c-0.1-0.6-0.1-1.1-0.1-1.6c0-1.9,0.4-3.6,1-5.2
		c0.7-1.6,1.7-3,2.9-4.2c1.2-1.2,2.6-2.1,4.2-2.9c1.6-0.7,3.3-1,5.1-1c0.7,0,1.4,0,2,0.1c0.6,0.1,1.2,0.3,1.8,0.4l15,4
		c0.3-0.5,0.7-1,1.2-1.4c0.4-0.4,0.9-0.8,1.3-1.1c-0.8-0.5-1.4-1.1-1.8-1.8c-0.4-0.7-0.7-1.5-0.7-2.3c0-0.8,0.2-1.6,0.7-2.3
		c0.4-0.7,1-1.4,1.8-1.9c0.7-0.5,1.6-0.9,2.7-1.3c1-0.3,2.1-0.4,3.3-0.4c1.2,0,2.3,0.1,3.3,0.4c1,0.3,1.9,0.7,2.6,1.3
		c0.8,0.5,1.4,1.2,1.8,1.9c0.4,0.7,0.6,1.5,0.6,2.3c0,0.7-0.2,1.4-0.5,2.1c-0.4,0.7-0.9,1.4-1.7,2c0.5,0.3,0.9,0.7,1.3,1.1
		c0.4,0.4,0.8,0.9,1.1,1.4l15-4c0.5-0.2,1.1-0.3,1.8-0.4c0.7-0.1,1.3-0.1,2-0.1c1.9,0,3.6,0.3,5.2,1c1.6,0.7,3,1.6,4.2,2.9
		c1.2,1.2,2.2,2.6,2.9,4.2c0.7,1.6,1,3.3,1,5.2c0,0.5,0,1.1-0.1,1.6c-0.1,0.6-0.2,1.1-0.5,1.8l-5.1,28.1V66.1z M18.7,59.2h6.2
		l-4.1-22.5c-0.2-0.7-0.4-1.4-0.5-2c-0.1-0.7-0.2-1.4-0.2-2c0-1.4,0.3-2.7,0.8-4c0.5-1.2,1.3-2.3,2.1-3.2c0.9-0.9,2-1.6,3.2-2.1
		c1.2-0.5,2.5-0.8,4-0.8c0.6,0,1.2,0.1,1.8,0.1c0.6,0.1,1.2,0.3,1.8,0.5l6.1,1.5c0-0.4,0-0.8,0-1.3c0-0.4,0.1-0.9,0.3-1.3l-14.6-4
		c-0.5-0.1-1-0.2-1.5-0.3c-0.4-0.1-0.9-0.1-1.4-0.1c-1.4,0-2.7,0.3-3.9,0.8c-1.2,0.5-2.2,1.2-3.1,2.1c-0.9,0.9-1.6,1.9-2.1,3.1
		c-0.5,1.2-0.8,2.5-0.8,3.9c0,0.5,0,1,0.1,1.5c0.1,0.5,0.2,1,0.4,1.5L18.7,59.2z M81.4,66.1v-3.4H50H18.7v3.4c0,0.3,0.1,0.7,0.3,1.1
		c0.2,0.4,0.4,0.8,0.6,1c0.2,0.3,0.6,0.6,1,0.8c0.4,0.2,0.8,0.3,1.3,0.3H50h28.2c0.3,0,0.7-0.1,1.1-0.3c0.4-0.2,0.8-0.4,1-0.7
		c0.3-0.3,0.6-0.7,0.8-1C81.3,66.9,81.4,66.5,81.4,66.1z M26.7,50.2c1.9-2.3,4.1-4.3,6.6-6c2.5-1.7,5.2-2.9,8.1-3.6l-1-11.9L33,26.5
		c-0.5-0.2-0.9-0.3-1.4-0.4c-0.5-0.1-0.9-0.1-1.4-0.1c-0.9,0-1.8,0.2-2.7,0.5c-0.8,0.4-1.6,0.9-2.2,1.5c-0.6,0.6-1.1,1.3-1.5,2.1
		c-0.3,0.8-0.5,1.7-0.5,2.6c0,0.5,0.1,1,0.2,1.5c0.1,0.5,0.3,1,0.5,1.5L26.7,50.2z M41.7,43.9c-1.4,0.5-2.8,1-4.2,1.8
		c-1.4,0.7-2.7,1.5-3.9,2.5c-1.2,1-2.4,2-3.4,3.1c-1,1.1-2,2.3-2.8,3.6l0.8,4.3H43L41.7,43.9z M28.3,86.1v1.5h43.3v-1.5
		c0-0.5-0.1-0.9-0.3-1.4c-0.2-0.4-0.4-0.8-0.8-1.1c-0.3-0.3-0.7-0.6-1-0.8c-0.4-0.2-0.8-0.3-1.3-0.3H31.6c-0.5,0-0.9,0.1-1.3,0.3
		c-0.4,0.2-0.8,0.4-1.1,0.8c-0.3,0.3-0.5,0.7-0.7,1.1C28.4,85.2,28.3,85.7,28.3,86.1z M35,72.6v6.6h29.9v-6.6H35z M50,59.2h3.5
		l3-32.8c0-0.4,0-0.8,0-1.1c0-0.3,0-0.5,0-0.8c0-0.9-0.2-1.7-0.5-2.5c-0.3-0.8-0.8-1.5-1.4-2c-0.6-0.6-1.3-1-2-1.4
		c-0.8-0.3-1.6-0.5-2.5-0.5c-0.9,0-1.7,0.2-2.5,0.5c-0.8,0.3-1.5,0.8-2.1,1.4c-0.6,0.6-1.1,1.3-1.4,2c-0.3,0.8-0.5,1.6-0.5,2.5
		c0,0.2,0,0.5,0,0.8c0,0.3,0,0.6,0,1.1l2.8,32.8H50z M49.9,9.4c-0.5,0-1.1,0.1-1.6,0.2c-0.5,0.1-0.9,0.4-1.3,0.6
		c-0.4,0.3-0.7,0.6-0.9,1c-0.2,0.3-0.3,0.7-0.3,1.1s0.1,0.8,0.3,1.1c0.2,0.4,0.5,0.7,0.9,1c0.4,0.3,0.8,0.5,1.3,0.6
		c0.5,0.2,1,0.3,1.6,0.3c0.6,0,1.1-0.1,1.6-0.3c0.5-0.2,0.9-0.4,1.3-0.6c0.3-0.3,0.6-0.6,0.9-1c0.2-0.4,0.3-0.8,0.3-1.1
		s-0.1-0.8-0.3-1.1c-0.2-0.3-0.5-0.6-0.9-1C52.5,10,52,9.8,51.5,9.6C51,9.5,50.5,9.4,49.9,9.4z M72.5,55c-0.8-1.2-1.7-2.4-2.7-3.5
		c-1-1.1-2.1-2.2-3.3-3.1c-1.2-1-2.5-1.8-3.8-2.5c-1.3-0.7-2.8-1.3-4.3-1.9l-1.3,15.2h14.6L72.5,55z M73.4,50.6l2.5-14.9
		c0.3-0.5,0.4-1,0.5-1.5c0.1-0.5,0.1-1,0.1-1.5c0-0.9-0.2-1.8-0.5-2.6c-0.4-0.8-0.8-1.6-1.5-2.1c-0.6-0.6-1.3-1.1-2.1-1.5
		c-0.8-0.4-1.7-0.5-2.5-0.5c-0.5,0-1,0-1.5,0.1s-1,0.3-1.5,0.4l-7.2,2.2l-1,12c3,0.9,5.7,2.2,8.2,3.9C69.4,46.4,71.5,48.4,73.4,50.6
		z M81.4,59.2l5.2-28.5c0.1-0.5,0.3-1,0.4-1.5c0.1-0.5,0.1-1,0.1-1.5c0-1.4-0.3-2.7-0.8-3.9c-0.5-1.2-1.2-2.3-2.1-3.1
		c-0.9-0.9-2-1.6-3.2-2.1s-2.5-0.8-3.8-0.8c-0.5,0-0.9,0-1.4,0.1c-0.5,0.1-0.9,0.2-1.4,0.3l-14.6,4c0.1,0.4,0.2,0.8,0.3,1.3
		c0.1,0.4,0.1,0.9,0,1.3l6-1.5c0.7-0.2,1.3-0.4,1.9-0.5c0.6-0.1,1.2-0.1,1.9-0.1c1.3,0,2.6,0.3,3.8,0.8C75,24,76,24.7,77,25.6
		c0.9,0.9,1.6,2,2.1,3.2c0.5,1.2,0.8,2.6,0.8,4c0,0.6-0.1,1.3-0.2,2c-0.1,0.7-0.3,1.4-0.6,2l-4,22.5H81.4z"/>

</svg>
