<?xml version="1.0" encoding="utf-8"?>
<!-- Generator: Adobe Illustrator 19.0.0, SVG Export Plug-In . SVG Version: 6.00 Build 0)  -->
<svg version="1.1" id="p" xmlns="http://www.w3.org/2000/svg" xmlns:xlink="http://www.w3.org/1999/xlink" x="0px" y="0px"
	 viewBox="0 0 100 100" enable-background="new 0 0 100 100" xml:space="preserve">

	<path id="XMLID_8_" fill="#FFFFFF" d="M57.6,21h12.3v3.4H55c0.1,1.7,0.2,3.5,0.4,5.3c0.2,1.8,0.4,3.6,0.8,5.4
		c0.3,1.8,0.7,3.6,1.1,5.4c0.4,1.8,0.9,3.6,1.5,5.3c0.6,1.7,1.2,3.4,2,5c0.7,1.6,1.5,3.1,2.5,4.6c0.9,1.5,1.9,2.8,2.9,4.1
		c1.1,1.3,2.3,2.4,3.7,3.3c0,1.7-0.2,3.4-0.7,4.9c-0.5,1.6-1.1,3.1-1.8,4.5c-0.8,1.4-1.7,2.8-2.8,4c-1.1,1.2-2.4,2.3-3.7,3.2h5.9
		c0.9,0,1.8,0.2,2.7,0.5c0.8,0.4,1.5,0.9,2.1,1.5s1,1.3,1.4,2.1c0.3,0.8,0.5,1.7,0.5,2.6v5.1H26.7v-5c0-1,0.2-1.9,0.5-2.7
		c0.3-0.8,0.8-1.5,1.4-2.1c0.6-0.6,1.3-1.1,2.2-1.5c0.8-0.4,1.7-0.5,2.5-0.5h5.9c-1.4-0.9-2.7-2-3.8-3.3c-1.1-1.2-2.1-2.6-3-4
		c-0.8-1.4-1.5-2.9-2-4.5c-0.5-1.6-0.7-3.2-0.7-4.8c1.3-0.9,2.5-2,3.7-3.3c1.1-1.3,2.1-2.6,3-4.1c0.9-1.5,1.7-3,2.5-4.6
		c0.8-1.6,1.4-3.3,2-5c0.6-1.7,1.1-3.5,1.5-5.3c0.5-1.8,0.9-3.6,1.2-5.4c0.3-1.8,0.6-3.6,0.8-5.4s0.3-3.6,0.4-5.3H30V21h12.5
		c-0.8-0.8-1.4-1.8-1.9-2.9c-0.5-1.1-0.7-2.4-0.7-3.7c0-1.4,0.3-2.7,0.8-4c0.5-1.2,1.2-2.3,2.1-3.2c0.9-0.9,2-1.6,3.3-2.1
		c1.2-0.5,2.5-0.8,3.9-0.8c1.4,0,2.7,0.3,3.9,0.8c1.2,0.5,2.3,1.3,3.2,2.1c0.9,0.9,1.6,2,2.2,3.2c0.5,1.2,0.8,2.5,0.8,4
		c0,1.3-0.2,2.5-0.7,3.6C58.9,19.2,58.3,20.2,57.6,21z"/>

	<path id="XMLID_4_" d="M57.6,21h12.3v3.4H55c0.1,1.7,0.2,3.5,0.4,5.3c0.2,1.8,0.4,3.6,0.8,5.4c0.3,1.8,0.7,3.6,1.1,5.4
		c0.4,1.8,0.9,3.6,1.5,5.3c0.6,1.7,1.2,3.4,2,5c0.7,1.6,1.5,3.1,2.5,4.6c0.9,1.5,1.9,2.8,2.9,4.1c1.1,1.3,2.3,2.4,3.7,3.3
		c0,1.7-0.2,3.4-0.7,4.9c-0.5,1.6-1.1,3.1-1.8,4.5c-0.8,1.4-1.7,2.8-2.8,4c-1.1,1.2-2.4,2.3-3.7,3.2h5.9c0.9,0,1.8,0.2,2.7,0.5
		c0.8,0.4,1.5,0.9,2.1,1.5s1,1.3,1.4,2.1c0.3,0.8,0.5,1.7,0.5,2.6v5.1H26.7v-5c0-1,0.2-1.9,0.5-2.7c0.3-0.8,0.8-1.5,1.4-2.1
		c0.6-0.6,1.3-1.1,2.2-1.5c0.8-0.4,1.7-0.5,2.5-0.5h5.9c-1.4-0.9-2.7-2-3.8-3.3c-1.1-1.2-2.1-2.6-3-4c-0.8-1.4-1.5-2.9-2-4.5
		c-0.5-1.6-0.7-3.2-0.7-4.8c1.3-0.9,2.5-2,3.7-3.3c1.1-1.3,2.1-2.6,3-4.1c0.9-1.5,1.7-3,2.5-4.6c0.8-1.6,1.4-3.3,2-5
		c0.6-1.7,1.1-3.5,1.5-5.3c0.5-1.8,0.9-3.6,1.2-5.4c0.3-1.8,0.6-3.6,0.8-5.4s0.3-3.6,0.4-5.3H30V21h12.5c-0.8-0.8-1.4-1.8-1.9-2.9
		c-0.5-1.1-0.7-2.4-0.7-3.7c0-1.4,0.3-2.7,0.8-4c0.5-1.2,1.2-2.3,2.1-3.2c0.9-0.9,2-1.6,3.3-2.1c1.2-0.5,2.5-0.8,3.9-0.8
		c1.4,0,2.7,0.3,3.9,0.8c1.2,0.5,2.3,1.3,3.2,2.1c0.9,0.9,1.6,2,2.2,3.2c0.5,1.2,0.8,2.5,0.8,4c0,1.3-0.2,2.5-0.7,3.6
		C58.9,19.2,58.3,20.2,57.6,21z M34.9,61.1c-0.5,0-0.9,0.2-1.2,0.5c-0.3,0.3-0.5,0.7-0.5,1.1c0,0.5,0.2,0.9,0.5,1.2
		c0.3,0.3,0.7,0.5,1.2,0.5H65c0.5,0,0.8-0.2,1.1-0.5c0.3-0.3,0.4-0.7,0.4-1.2c0-0.4-0.1-0.8-0.4-1.1c-0.3-0.3-0.6-0.5-1.1-0.5H34.9z
		 M42.3,78.5c-0.4,0-0.7,0.2-1,0.5c-0.3,0.3-0.4,0.7-0.4,1.2c0,0.5,0.1,0.9,0.4,1.2c0.3,0.3,0.6,0.5,1,0.5h15.2c0.4,0,0.8-0.2,1-0.5
		c0.3-0.3,0.5-0.7,0.5-1.2c0-0.5-0.2-0.9-0.5-1.2s-0.6-0.5-1-0.5H42.3z"/>

</svg>
