<?xml version="1.0" encoding="utf-8"?>
<!-- Generator: Adobe Illustrator 19.0.0, SVG Export Plug-In . SVG Version: 6.00 Build 0)  -->
<svg version="1.1" id="R" xmlns="http://www.w3.org/2000/svg" xmlns:xlink="http://www.w3.org/1999/xlink" x="0px" y="0px"
	 viewBox="0 0 100 100" enable-background="new 0 0 100 100" xml:space="preserve">

	<path id="XMLID_14_" fill="#FFFFFF" d="M73.4,7.8v16.6l-6.6,10l6.6,38.2l6.6,6.8v11.8H50.1h-30V79.4l6.6-6.8l6.6-38.2l-6.6-10V7.8
		c0-0.5,0.1-0.9,0.3-1.3c0.2-0.4,0.4-0.8,0.7-1c0.3-0.3,0.7-0.5,1.1-0.8c0.4-0.2,0.9-0.3,1.3-0.3h5c0.4,0,0.8,0.1,1.2,0.3
		c0.4,0.2,0.8,0.5,1.1,0.8c0.3,0.3,0.6,0.7,0.8,1.2c0.2,0.4,0.3,0.9,0.3,1.3v13.2h4.9V7.9c0-0.5,0.1-0.9,0.3-1.4
		c0.2-0.4,0.5-0.8,0.8-1.1c0.3-0.3,0.7-0.5,1.1-0.8c0.4-0.2,0.9-0.3,1.4-0.3h3.3h3.3c0.5,0,0.9,0.1,1.3,0.3c0.4,0.2,0.8,0.5,1,0.8
		c0.3,0.3,0.5,0.7,0.7,1.1c0.2,0.4,0.3,0.9,0.3,1.4v13.3h5.1V7.8c0-0.5,0.1-0.9,0.3-1.3c0.2-0.4,0.4-0.8,0.7-1s0.7-0.5,1-0.8
		c0.4-0.2,0.8-0.3,1.3-0.3h5.1c0.4,0,0.8,0.1,1.2,0.3c0.4,0.2,0.8,0.5,1,0.8s0.5,0.6,0.7,1C73.3,6.9,73.4,7.4,73.4,7.8z"/>

	<path id="XMLID_4_" d="M73.4,7.8v16.6l-6.6,10l6.6,38.2l6.6,6.8v11.8H50.1h-30V79.4l6.6-6.8l6.6-38.2l-6.6-10V7.8
		c0-0.5,0.1-0.9,0.3-1.3c0.2-0.4,0.4-0.8,0.7-1c0.3-0.3,0.7-0.5,1.1-0.8c0.4-0.2,0.9-0.3,1.3-0.3h5c0.4,0,0.8,0.1,1.2,0.3
		c0.4,0.2,0.8,0.5,1.1,0.8c0.3,0.3,0.6,0.7,0.8,1.2c0.2,0.4,0.3,0.9,0.3,1.3v13.2h4.9V7.9c0-0.5,0.1-0.9,0.3-1.4
		c0.2-0.4,0.5-0.8,0.8-1.1c0.3-0.3,0.7-0.5,1.1-0.8c0.4-0.2,0.9-0.3,1.4-0.3h3.3h3.3c0.5,0,0.9,0.1,1.3,0.3c0.4,0.2,0.8,0.5,1,0.8
		c0.3,0.3,0.5,0.7,0.7,1.1c0.2,0.4,0.3,0.9,0.3,1.4v13.3h5.1V7.8c0-0.5,0.1-0.9,0.3-1.3c0.2-0.4,0.4-0.8,0.7-1s0.7-0.5,1-0.8
		c0.4-0.2,0.8-0.3,1.3-0.3h5.1c0.4,0,0.8,0.1,1.2,0.3c0.4,0.2,0.8,0.5,1,0.8s0.5,0.6,0.7,1C73.3,6.9,73.4,7.4,73.4,7.8z M50.1,87.8
		h26.7v-5H50.1H23.2v5H50.1z M43.3,79.4V66.2l-12.2,0.1l-1.2,7.4l-5.5,5.7H43.3z M30.1,7.8v13.4H35V7.8H30.1z M50.1,31h15l4.9-6.7
		l-19.9,0.1l-19.9-0.1L35,31H50.1z M31.7,62.7l11.6-0.1c0-0.8,0.2-1.6,0.5-2.5c0.4-0.8,0.9-1.5,1.5-2.1c0.6-0.6,1.3-1,2.1-1.4
		c0.8-0.4,1.7-0.5,2.6-0.5c0.9,0,1.8,0.2,2.5,0.5c0.8,0.4,1.5,0.8,2,1.4c0.6,0.6,1.1,1.3,1.4,2.1c0.3,0.8,0.5,1.7,0.5,2.5l11.8,0.1
		l-4.8-29H50.1H36.7L31.7,62.7z M46.7,7.8v13.4h6.6V7.8H46.7z M56.5,66.2l0.1,13.2h19.2l-5.5-5.7L69,66.3L56.5,66.2z M70.1,7.8h-5
		v13.4h5V7.8z"/>

</svg>
