<?xml version="1.0" encoding="utf-8"?>
<!-- Generator: Adobe Illustrator 19.0.0, SVG Export Plug-In . SVG Version: 6.00 Build 0)  -->
<svg version="1.1" id="N" xmlns="http://www.w3.org/2000/svg" xmlns:xlink="http://www.w3.org/1999/xlink" x="0px" y="0px"
	 viewBox="0 0 100 100" enable-background="new 0 0 100 100" xml:space="preserve">

	<path id="XMLID_11_" fill="#FFFFFF" d="M66.5,79.4c1,0,1.9,0.2,2.7,0.5c0.8,0.4,1.5,0.9,2.1,1.5c0.6,0.6,1.1,1.3,1.4,2.1
		c0.3,0.8,0.5,1.7,0.5,2.6v5.1H26.8v-5.1c0-0.9,0.1-1.8,0.4-2.6c0.3-0.8,0.7-1.5,1.3-2.1c0.6-0.6,1.3-1.1,2-1.5
		c0.8-0.3,1.7-0.5,2.7-0.5c0.2-0.1,0.4-0.3,0.5-0.3c0.2-0.1,0.3-0.2,0.3-0.4c0-1.7-0.3-3.3-0.8-4.8c-0.5-1.5-1.2-2.7-2.1-3.8
		c-0.9,0.4-1.8,0.7-2.8,0.8c-1,0.1-2,0.1-3-0.1c-1.4-0.2-2.7-0.7-3.8-1.4c-1.1-0.7-2-1.6-2.8-2.7c-0.7-1.1-1.2-2.3-1.5-3.5
		s-0.3-2.7,0-4l3.3-26.7c-0.4-0.5-0.8-1.1-1.1-1.7c-0.3-0.6-0.7-1.2-1-1.8c0.3-3,0.8-5.9,1.6-8.7c0.8-2.8,1.9-5.5,3.2-8.1
		c-0.1-1.2-0.1-2.4-0.1-3.6c0-1.2,0-2.3,0.1-3.4c2.7,1.5,5.3,2.7,7.9,3.6c2.6,0.9,5.3,1.6,8,2c0.9,0.2,1.9,0.4,2.8,0.6
		c0.9,0.2,1.7,0.5,2.4,0.8c1.2-0.1,2.5,0,3.8,0.1c1.3,0.1,2.7,0.2,4.1,0.3c2.9,0.5,5.7,1.4,8.4,2.5s5.5,2.5,8.5,4
		c2.4,0.5,4.4,1.3,5.9,2.6c1.5,1.3,2.6,2.8,3.2,4.6c0.5,1.4,0.7,2.8,0.7,4.2c0,1.4-0.2,2.7-0.7,3.9c1.3,1.1,2.4,2.5,3.2,4
		c0.8,1.6,1.1,3.2,1.1,5c0,1.5-0.3,3-0.8,4.4c-0.6,1.4-1.4,2.8-2.4,4.1c0.3,1.1,0.6,2.1,0.7,3.2c0.1,1,0.1,2,0,3
		c-0.1,1-0.4,2-0.8,2.8c-0.4,0.9-1,1.8-1.7,2.5c-0.8,1.6-1.8,3.1-2.9,4.5c-1.1,1.4-2.3,2.7-3.6,3.8c-1.1,0.9-2,1.9-2.7,3.3
		C67.3,76.4,66.8,77.8,66.5,79.4z"/>

	<path id="XMLID_4_" d="M66.5,79.4c1,0,1.9,0.2,2.7,0.5c0.8,0.4,1.5,0.9,2.1,1.5c0.6,0.6,1.1,1.3,1.4,2.1c0.3,0.8,0.5,1.7,0.5,2.6
		v5.1H26.8v-5.1c0-0.9,0.1-1.8,0.4-2.6c0.3-0.8,0.7-1.5,1.3-2.1c0.6-0.6,1.3-1.1,2-1.5c0.8-0.3,1.7-0.5,2.7-0.5
		c0.2-0.1,0.4-0.3,0.5-0.3c0.2-0.1,0.3-0.2,0.3-0.4c0-1.7-0.3-3.3-0.8-4.8c-0.5-1.5-1.2-2.7-2.1-3.8c-0.9,0.4-1.8,0.7-2.8,0.8
		c-1,0.1-2,0.1-3-0.1c-1.4-0.2-2.7-0.7-3.8-1.4c-1.1-0.7-2-1.6-2.8-2.7c-0.7-1.1-1.2-2.3-1.5-3.5s-0.3-2.7,0-4l3.3-26.7
		c-0.4-0.5-0.8-1.1-1.1-1.7c-0.3-0.6-0.7-1.2-1-1.8c0.3-3,0.8-5.9,1.6-8.7c0.8-2.8,1.9-5.5,3.2-8.1c-0.1-1.2-0.1-2.4-0.1-3.6
		c0-1.2,0-2.3,0.1-3.4c2.7,1.5,5.3,2.7,7.9,3.6c2.6,0.9,5.3,1.6,8,2c0.9,0.2,1.9,0.4,2.8,0.6c0.9,0.2,1.7,0.5,2.4,0.8
		c1.2-0.1,2.5,0,3.8,0.1c1.3,0.1,2.7,0.2,4.1,0.3c2.9,0.5,5.7,1.4,8.4,2.5s5.5,2.5,8.5,4c2.4,0.5,4.4,1.3,5.9,2.6
		c1.5,1.3,2.6,2.8,3.2,4.6c0.5,1.4,0.7,2.8,0.7,4.2c0,1.4-0.2,2.7-0.7,3.9c1.3,1.1,2.4,2.5,3.2,4c0.8,1.6,1.1,3.2,1.1,5
		c0,1.5-0.3,3-0.8,4.4c-0.6,1.4-1.4,2.8-2.4,4.1c0.3,1.1,0.6,2.1,0.7,3.2c0.1,1,0.1,2,0,3c-0.1,1-0.4,2-0.8,2.8
		c-0.4,0.9-1,1.8-1.7,2.5c-0.8,1.6-1.8,3.1-2.9,4.5c-1.1,1.4-2.3,2.7-3.6,3.8c-1.1,0.9-2,1.9-2.7,3.3C67.3,76.4,66.8,77.8,66.5,79.4
		z M63.3,79.4c0.1-1.3,0.4-2.5,0.9-3.8c0.4-1.2,1-2.4,1.6-3.5c0.7-1.1,1.4-2,2.3-2.8c0.8-0.8,1.8-1.5,2.9-2.1
		c-0.9,0.1-1.8,0.2-2.7,0.2c-0.9,0-1.7-0.1-2.6-0.3c-0.9-0.2-1.7-0.5-2.5-0.8c-0.8-0.4-1.6-0.8-2.3-1.4c-0.1-0.1-0.3-0.2-0.4-0.3
		c-0.1-0.1-0.2-0.3-0.3-0.5S60,63.8,60,63.6c0-0.2,0.1-0.5,0.2-0.7c0.2-0.4,0.5-0.7,1-0.8c0.4-0.2,0.9-0.1,1.4,0.1
		c0.9,0.7,2,1.3,3.1,1.6c1.1,0.3,2.2,0.4,3.3,0.3c1.1-0.1,2.1-0.4,3-0.9c1-0.5,1.8-1.2,2.5-2c0.9-1.1,1.5-2.2,1.8-3.5
		c0.3-1.3,0.2-2.6-0.1-3.9c-0.9,0.3-1.9,0.6-2.8,0.8c-0.9,0.2-1.8,0.3-2.8,0.3c-1.2,0-2.3-0.2-3.4-0.5c-1.1-0.3-2.1-0.8-3.1-1.4
		c-0.6-0.3-1-0.6-1.2-1.1c-0.2-0.5-0.2-0.9,0-1.4c0.3-0.4,0.6-0.7,1-0.8c0.4-0.1,0.9-0.1,1.5,0.1c0.8,0.6,1.6,1.1,2.5,1.4
		c0.8,0.3,1.7,0.5,2.6,0.5c1.2,0,2.3-0.2,3.3-0.7c1-0.5,1.9-1.1,2.6-1.8c0.7-0.7,1.3-1.6,1.8-2.6c0.5-1,0.7-2.1,0.7-3.3
		c0-1.1-0.2-2.2-0.7-3.3c-0.5-1-1.1-2-1.9-2.8C75.7,38.2,75,39,74,39.6c-0.9,0.7-1.9,1.2-3,1.6c-2.1,0.7-4.3,0.8-6.7,0.3
		c-0.6-0.1-1.1-0.3-1.4-0.7c-0.3-0.4-0.4-0.8-0.3-1.3c0.1-0.5,0.3-0.9,0.7-1.2c0.4-0.3,0.9-0.3,1.4-0.2c0.8,0.3,1.7,0.4,2.6,0.4
		c0.9,0,1.8-0.2,2.6-0.5c1.1-0.4,2.1-1,2.8-1.7c0.8-0.7,1.4-1.6,1.8-2.6c0.5-1,0.7-2,0.8-3.1c0.1-1.1-0.1-2.2-0.5-3.2
		c-0.4-1.2-1-2.2-1.9-3.1c-0.9-0.9-1.9-1.6-3.2-2.2c0.2,0.5,0.4,1.1,0.5,1.8c0.2,0.7,0.3,1.5,0.5,2.5c0,1.1-0.1,2-0.3,2.9
		c-0.2,0.9-0.4,1.7-0.7,2.4c-0.3,0.7-0.6,1.4-1,2c-0.4,0.6-0.8,1.1-1.3,1.6c-0.9,0.8-1.8,1.5-2.8,2c-1,0.5-2.1,0.9-3.3,1.2
		c-0.6,0.3-1.1,0.3-1.5,0c-0.4-0.2-0.7-0.6-0.9-1c-0.2-0.4-0.2-0.8,0.1-1.3c0.2-0.4,0.6-0.8,1.3-1c0.9-0.1,1.7-0.4,2.5-0.8
		c0.8-0.4,1.6-0.9,2.3-1.5c0.8-0.8,1.4-1.7,1.8-2.8c0.4-1,0.6-2.1,0.7-3.2c0-1.1-0.2-2.1-0.6-3.1c-0.4-1-1-1.9-1.8-2.7
		C63.5,20,61.5,19,59.5,18c-2.1-0.9-4.4-1.6-6.8-2.1c2.2,1.3,4.3,2.8,6.3,4.5c2,1.7,3.9,3.6,5.7,5.6c0.3,0.3,0.4,0.7,0.5,1.2
		c0,0.5-0.1,0.9-0.4,1.3c-0.3,0.3-0.6,0.5-1.1,0.6c-0.5,0-1-0.1-1.4-0.5c-1.5-1.9-3.2-3.7-5-5.3c-1.8-1.6-3.8-2.9-5.8-4.1
		s-4.1-2.2-6.2-3c-2.1-0.8-4.3-1.5-6.6-2.1c-1.8-0.2-3.6-0.5-5.4-1c-1.8-0.5-3.6-1.1-5.4-1.9c-0.5,0.6-0.9,1.2-1.3,1.8
		c-0.4,0.6-0.7,1.2-0.9,1.8c-1,1.9-1.8,3.9-2.5,5.9c-0.7,2.1-1.2,4.3-1.7,6.6c0.4,0.7,0.8,1.4,1.2,2c0.4,0.7,0.8,1.4,1.3,2.1
		l-3.6,28.2c-0.2,1-0.2,1.9,0,2.8c0.2,0.9,0.6,1.7,1.1,2.4c0.5,0.7,1.1,1.3,1.9,1.8c0.7,0.5,1.5,0.8,2.5,0.9c0.9,0.2,1.7,0.2,2.6,0
		c0.9-0.2,1.7-0.6,2.3-1c0.7-0.5,1.3-1.1,1.8-1.8c0.5-0.8,0.8-1.6,1-2.5c0.1-0.5,0-1-0.2-1.5s-0.4-1-0.6-1.5c-0.2-0.5-0.3-1-0.4-1.4
		c-0.1-0.4,0.1-0.8,0.4-1.1c1.9-1.9,3.7-3.8,5.5-5.6c1.8-1.9,3.5-3.9,5-5.9c1.5-2,2.9-4.1,4.1-6.3c1.2-2.2,2.1-4.5,2.8-6.9
		c0.1-0.5,0.4-1,0.8-1.3c0.4-0.3,0.8-0.4,1.2-0.4c0.5,0.1,0.8,0.4,1.1,0.8c0.3,0.4,0.4,0.9,0.3,1.5c-0.7,2.5-1.7,4.9-2.8,7.2
		c-1.1,2.2-2.4,4.4-3.9,6.4c-1.5,2.1-3.1,4.1-4.8,6c-1.7,1.9-3.5,3.8-5.4,5.5c-0.3,0.3-0.4,0.7-0.5,1c0,0.4,0,0.8,0.1,1.3
		c0.1,0.5,0.2,0.9,0.4,1.4c0.1,0.5,0.1,0.9,0,1.3c-0.1,1.1-0.5,2.2-1,3.1c-0.5,1-1.2,1.8-2,2.6c1,1.4,1.8,3,2.3,4.8
		c0.6,1.8,0.8,3.6,0.8,5.6c0,0.1,0,0.3,0,0.4c0,0.1-0.1,0.2-0.3,0.3H63.3z M35.6,21.8c0.2,0.1,0.3,0.4,0.4,0.8
		c0.1,0.4,0.1,0.8,0,1.4c-0.1,0.5-0.2,1.1-0.4,1.7c-0.2,0.6-0.5,1.2-0.9,1.9c-0.4,0.7-0.8,1.3-1.3,1.8c-0.4,0.5-0.9,0.9-1.3,1.3
		c-0.4,0.3-0.8,0.6-1.2,0.7c-0.4,0.1-0.6,0.1-0.8-0.1c-0.3-0.1-0.4-0.4-0.5-0.8c-0.1-0.4-0.1-0.8,0-1.3c0.1-0.5,0.2-1.1,0.5-1.7
		c0.2-0.6,0.5-1.3,0.9-1.9c0.3-0.6,0.7-1.2,1.2-1.7c0.4-0.5,0.8-1,1.3-1.3c0.4-0.3,0.8-0.6,1.2-0.7C35,21.6,35.3,21.6,35.6,21.8z
		 M70,86.1c0-0.5-0.1-0.9-0.3-1.4c-0.2-0.4-0.4-0.8-0.7-1.1c-0.3-0.3-0.6-0.5-1-0.7c-0.4-0.1-0.9-0.2-1.3-0.2H33.4
		c-0.5,0-1,0.1-1.4,0.2c-0.4,0.1-0.7,0.4-1,0.7c-0.3,0.3-0.5,0.7-0.7,1.1c-0.2,0.4-0.3,0.9-0.3,1.4v1.7H70V86.1z M69.8,62.2
		c0,0.1-0.1,0.2-0.2,0.3c-0.1,0.1-0.3,0.3-0.4,0.4c-0.2,0.1-0.4,0.2-0.6,0.2c-0.2,0-0.5,0-0.6-0.1c-0.5-0.1-0.8-0.4-1.1-0.8
		c-0.3-0.4-0.3-0.8-0.2-1.3c0.3-0.7,0.5-1.3,0.7-2c0.2-0.7,0.3-1.3,0.5-1.9c0.1-0.3,0.4-0.6,0.8-0.8c0.4-0.2,0.9-0.2,1.4-0.1
		c0.3,0.1,0.5,0.2,0.7,0.3c0.2,0.1,0.4,0.3,0.5,0.5c0.1,0.2,0.2,0.3,0.2,0.5c0,0.2,0,0.3,0,0.5c-0.3,0.7-0.5,1.4-0.8,2.2
		C70.2,60.9,70,61.6,69.8,62.2z M69.6,48.4c0-0.7,0-1.3-0.1-1.9c-0.1-0.6-0.1-1.1-0.1-1.8c0.1-0.6,0.4-1,0.8-1.3
		c0.4-0.3,0.8-0.4,1.3-0.3c0.5,0.1,0.8,0.3,1.2,0.6c0.3,0.3,0.4,0.7,0.3,1.1c0.1,0.6,0.1,1.3,0.1,2c0,0.8,0,1.5-0.1,2.1
		c-0.1,0.3-0.3,0.6-0.7,0.9c-0.4,0.2-0.8,0.3-1.3,0.3c-0.5-0.1-0.9-0.3-1.2-0.5C69.6,49.4,69.5,49,69.6,48.4z"/>

</svg>
