<?xml version="1.0" encoding="utf-8"?>
<!-- Generator: Adobe Illustrator 19.0.0, SVG Export Plug-In . SVG Version: 6.00 Build 0)  -->
<svg version="1.1" id="q" xmlns="http://www.w3.org/2000/svg" xmlns:xlink="http://www.w3.org/1999/xlink" x="0px" y="0px"
	 viewBox="0 0 100 100" enable-background="new 0 0 100 100" xml:space="preserve">

	<path id="XMLID_14_" fill="#FFFFFF" d="M10.2,25c-0.9,0-1.7-0.2-2.6-0.5c-0.8-0.3-1.5-0.8-2.1-1.4c-0.6-0.6-1.1-1.4-1.5-2.2
		c-0.4-0.8-0.5-1.7-0.5-2.6c0-0.9,0.2-1.8,0.5-2.6c0.4-0.8,0.9-1.6,1.5-2.2c0.6-0.6,1.3-1.1,2.1-1.4c0.8-0.3,1.7-0.5,2.6-0.5
		c1,0,1.9,0.2,2.7,0.5c0.8,0.3,1.5,0.8,2.1,1.4c0.6,0.6,1.1,1.4,1.5,2.2c0.4,0.8,0.6,1.7,0.6,2.6c0,0.9-0.2,1.8-0.6,2.6
		c-0.4,0.8-0.9,1.6-1.5,2.2c-0.6,0.6-1.3,1.1-2.1,1.4C12.1,24.9,11.2,25,10.2,25z M25,86.2c0-1,0.2-1.9,0.5-2.7
		c0.4-0.8,0.8-1.5,1.4-2.1c0.6-0.6,1.3-1.1,2.1-1.5c0.8-0.4,1.7-0.5,2.5-0.5v-6.1h-2.4c-1.1,0.2-2.3,0.1-3.4-0.2s-2.1-0.8-3.1-1.5
		C21.9,71,21,70.1,20.3,69c-0.8-1.1-1.4-2.3-1.8-3.7L10,25.4c0.7-0.1,1.5-0.2,2.1-0.4c0.7-0.2,1.3-0.5,1.9-0.9l7.5,19.1
		c0.1,0.5,0.2,0.9,0.4,1.3c0.2,0.4,0.4,0.7,0.6,1c0.2,0.2,0.6,0.4,1,0.6c0.4,0.2,0.8,0.2,1.2,0.1c0.4,0,0.8-0.1,1.1-0.3
		c0.4-0.2,0.7-0.4,0.9-0.7c0.2-0.3,0.4-0.6,0.5-1.1c0.1-0.4,0.1-0.8,0-1.3l0.8-20.8c0.3,0,0.7,0,1,0c0.3,0,0.7,0.1,1,0.1
		c0.7,0,1.5-0.1,2.2-0.4c0.7-0.2,1.3-0.5,2-0.9l3,21.1c0.1,0.6,0.2,1.1,0.4,1.6c0.2,0.5,0.5,0.9,0.8,1.3c0.3,0.3,0.6,0.6,1,0.8
		c0.4,0.2,0.8,0.3,1.3,0.3c0.5,0,0.9-0.1,1.3-0.3c0.4-0.2,0.8-0.5,1-0.8c0.3-0.3,0.5-0.7,0.7-1.1c0.2-0.4,0.3-0.9,0.3-1.4l2.9-24.4
		c0.5,0.4,1,0.7,1.5,0.9c0.6,0.2,1.2,0.3,1.8,0.3c0.7,0,1.4-0.1,2.1-0.4c0.6-0.2,1.2-0.6,1.8-1l2.7,24.6c0,0.5,0.1,0.9,0.3,1.4
		c0.2,0.4,0.4,0.8,0.8,1.1c0.3,0.3,0.6,0.5,1,0.8c0.4,0.2,0.8,0.3,1.2,0.3c0.5,0,0.9-0.1,1.3-0.3c0.4-0.2,0.8-0.5,1-0.8
		c0.3-0.3,0.5-0.8,0.8-1.3s0.3-1,0.4-1.6l3.2-20.8c0.7,0.3,1.3,0.6,1.8,0.7c0.5,0.1,1.1,0.2,1.7,0.2c0.5,0,0.9,0,1.4-0.1
		c0.4-0.1,0.8-0.1,1-0.2l0.7,21c-0.1,0.4,0,0.8,0.1,1.3c0.1,0.4,0.3,0.8,0.5,1.1c0.2,0.3,0.5,0.5,0.9,0.7c0.4,0.2,0.8,0.3,1.2,0.3
		c0.4,0.1,0.8,0,1.1-0.1c0.4-0.2,0.7-0.4,1-0.6c0.3-0.2,0.5-0.6,0.7-1c0.2-0.4,0.3-0.8,0.3-1.3l7.6-19.4c0.7,0.5,1.3,0.8,2,1
		c0.7,0.2,1.4,0.4,2.2,0.5L82,65.3c-0.4,1.4-1,2.6-1.7,3.7c-0.7,1.1-1.6,2-2.6,2.7s-2.1,1.2-3.3,1.5c-1.2,0.3-2.3,0.3-3.3,0.2h-2.9
		v6.1c0.9,0,1.8,0.2,2.7,0.5c0.8,0.4,1.5,0.9,2.1,1.5c0.6,0.6,1,1.3,1.4,2.1c0.4,0.8,0.5,1.7,0.5,2.7v5H25V86.2z M30.1,22.1
		c-0.9,0-1.8-0.2-2.6-0.5c-0.8-0.4-1.5-0.9-2.1-1.5c-0.6-0.6-1.1-1.3-1.5-2.2c-0.4-0.9-0.6-1.7-0.6-2.6c0-0.9,0.2-1.8,0.6-2.6
		c0.4-0.8,0.9-1.6,1.5-2.2C26,9.9,26.7,9.4,27.5,9c0.8-0.4,1.7-0.5,2.6-0.5s1.8,0.2,2.7,0.5c0.8,0.4,1.5,0.9,2.2,1.5
		c0.6,0.6,1.1,1.4,1.4,2.2c0.4,0.8,0.6,1.7,0.6,2.6c0,0.9-0.2,1.7-0.6,2.6c-0.4,0.9-0.8,1.6-1.4,2.2c-0.6,0.6-1.3,1.1-2.2,1.5
		C31.9,22,31,22.1,30.1,22.1z M50.3,19.1c-0.9,0-1.8-0.2-2.6-0.5c-0.8-0.4-1.6-0.9-2.2-1.5c-0.6-0.6-1.1-1.3-1.5-2.1
		c-0.4-0.8-0.5-1.7-0.5-2.6c0-0.9,0.2-1.8,0.5-2.6c0.4-0.8,0.9-1.6,1.5-2.2c0.6-0.6,1.4-1.1,2.2-1.4c0.8-0.4,1.7-0.6,2.6-0.6
		c0.9,0,1.7,0.2,2.6,0.6c0.9,0.4,1.6,0.9,2.2,1.4c0.6,0.6,1.1,1.3,1.5,2.2c0.4,0.8,0.5,1.7,0.5,2.6c0,0.9-0.2,1.8-0.5,2.6
		c-0.4,0.8-0.8,1.5-1.5,2.1c-0.6,0.6-1.3,1.1-2.2,1.5C52,19,51.2,19.1,50.3,19.1z M70.1,22.2c-1,0-1.9-0.2-2.7-0.5
		c-0.8-0.4-1.5-0.9-2.2-1.5c-0.6-0.6-1.1-1.3-1.5-2.2c-0.3-0.9-0.5-1.7-0.5-2.6c0-0.9,0.2-1.8,0.5-2.7c0.3-0.8,0.8-1.6,1.5-2.2
		c0.6-0.6,1.3-1.1,2.2-1.5c0.8-0.3,1.7-0.5,2.7-0.5c0.9,0,1.8,0.2,2.7,0.5c0.8,0.3,1.6,0.8,2.2,1.5c0.6,0.6,1.1,1.4,1.5,2.2
		c0.3,0.8,0.5,1.7,0.5,2.7c0,0.9-0.2,1.7-0.5,2.6c-0.3,0.9-0.8,1.6-1.5,2.2c-0.6,0.6-1.4,1.1-2.2,1.5C71.9,22.1,71,22.2,70.1,22.2z
		 M91.1,25.3c-0.9,0-1.8-0.2-2.6-0.5c-0.8-0.3-1.6-0.8-2.2-1.5c-0.6-0.6-1.1-1.4-1.5-2.1c-0.3-0.8-0.5-1.7-0.5-2.6
		c0-1,0.2-1.9,0.5-2.7c0.3-0.8,0.8-1.5,1.5-2.2c0.6-0.6,1.4-1.1,2.2-1.4c0.8-0.3,1.7-0.5,2.6-0.5s1.8,0.2,2.7,0.5
		c0.8,0.3,1.6,0.8,2.2,1.4c0.6,0.6,1.1,1.4,1.5,2.2c0.3,0.8,0.5,1.7,0.5,2.7c0,0.9-0.2,1.8-0.5,2.6c-0.3,0.8-0.8,1.5-1.5,2.1
		c-0.6,0.6-1.4,1.1-2.2,1.5C92.9,25.2,92,25.3,91.1,25.3z"/>

	<path id="XMLID_4_" d="M10.2,25c-0.9,0-1.7-0.2-2.6-0.5c-0.8-0.3-1.5-0.8-2.1-1.4c-0.6-0.6-1.1-1.4-1.5-2.2
		c-0.4-0.8-0.5-1.7-0.5-2.6c0-0.9,0.2-1.8,0.5-2.6c0.4-0.8,0.9-1.6,1.5-2.2c0.6-0.6,1.3-1.1,2.1-1.4c0.8-0.3,1.7-0.5,2.6-0.5
		c1,0,1.9,0.2,2.7,0.5c0.8,0.3,1.5,0.8,2.1,1.4c0.6,0.6,1.1,1.4,1.5,2.2c0.4,0.8,0.6,1.7,0.6,2.6c0,0.9-0.2,1.8-0.6,2.6
		c-0.4,0.8-0.9,1.6-1.5,2.2c-0.6,0.6-1.3,1.1-2.1,1.4C12.1,24.9,11.2,25,10.2,25z M25,86.2c0-1,0.2-1.9,0.5-2.7
		c0.4-0.8,0.8-1.5,1.4-2.1c0.6-0.6,1.3-1.1,2.1-1.5c0.8-0.4,1.7-0.5,2.5-0.5v-6.1h-2.4c-1.1,0.2-2.3,0.1-3.4-0.2s-2.1-0.8-3.1-1.5
		C21.9,71,21,70.1,20.3,69c-0.8-1.1-1.4-2.3-1.8-3.7L10,25.4c0.7-0.1,1.5-0.2,2.1-0.4c0.7-0.2,1.3-0.5,1.9-0.9l7.5,19.1
		c0.1,0.5,0.2,0.9,0.4,1.3c0.2,0.4,0.4,0.7,0.6,1c0.2,0.2,0.6,0.4,1,0.6c0.4,0.2,0.8,0.2,1.2,0.1c0.4,0,0.8-0.1,1.1-0.3
		c0.4-0.2,0.7-0.4,0.9-0.7c0.2-0.3,0.4-0.6,0.5-1.1c0.1-0.4,0.1-0.8,0-1.3l0.8-20.8c0.3,0,0.7,0,1,0c0.3,0,0.7,0.1,1,0.1
		c0.7,0,1.5-0.1,2.2-0.4c0.7-0.2,1.3-0.5,2-0.9l3,21.1c0.1,0.6,0.2,1.1,0.4,1.6c0.2,0.5,0.5,0.9,0.8,1.3c0.3,0.3,0.6,0.6,1,0.8
		c0.4,0.2,0.8,0.3,1.3,0.3c0.5,0,0.9-0.1,1.3-0.3c0.4-0.2,0.8-0.5,1-0.8c0.3-0.3,0.5-0.7,0.7-1.1c0.2-0.4,0.3-0.9,0.3-1.4l2.9-24.4
		c0.5,0.4,1,0.7,1.5,0.9c0.6,0.2,1.2,0.3,1.8,0.3c0.7,0,1.4-0.1,2.1-0.4c0.6-0.2,1.2-0.6,1.8-1l2.7,24.6c0,0.5,0.1,0.9,0.3,1.4
		c0.2,0.4,0.4,0.8,0.8,1.1c0.3,0.3,0.6,0.5,1,0.8c0.4,0.2,0.8,0.3,1.2,0.3c0.5,0,0.9-0.1,1.3-0.3c0.4-0.2,0.8-0.5,1-0.8
		c0.3-0.3,0.5-0.8,0.8-1.3s0.3-1,0.4-1.6l3.2-20.8c0.7,0.3,1.3,0.6,1.8,0.7c0.5,0.1,1.1,0.2,1.7,0.2c0.5,0,0.9,0,1.4-0.1
		c0.4-0.1,0.8-0.1,1-0.2l0.7,21c-0.1,0.4,0,0.8,0.1,1.3c0.1,0.4,0.3,0.8,0.5,1.1c0.2,0.3,0.5,0.5,0.9,0.7c0.4,0.2,0.8,0.3,1.2,0.3
		c0.4,0.1,0.8,0,1.1-0.1c0.4-0.2,0.7-0.4,1-0.6c0.3-0.2,0.5-0.6,0.7-1c0.2-0.4,0.3-0.8,0.3-1.3l7.6-19.4c0.7,0.5,1.3,0.8,2,1
		c0.7,0.2,1.4,0.4,2.2,0.5L82,65.3c-0.4,1.4-1,2.6-1.7,3.7c-0.7,1.1-1.6,2-2.6,2.7s-2.1,1.2-3.3,1.5c-1.2,0.3-2.3,0.3-3.3,0.2h-2.9
		v6.1c0.9,0,1.8,0.2,2.7,0.5c0.8,0.4,1.5,0.9,2.1,1.5c0.6,0.6,1,1.3,1.4,2.1c0.4,0.8,0.5,1.7,0.5,2.7v5H25V86.2z M23.4,54.3
		c-0.5,0-0.9,0.2-1.1,0.5c-0.3,0.4-0.5,0.8-0.5,1.3c0,0.5,0.2,0.9,0.5,1.3c0.3,0.4,0.7,0.5,1.1,0.5h53.3c0.5,0,0.9-0.2,1.2-0.5
		c0.3-0.4,0.5-0.8,0.5-1.3c0-0.5-0.2-1-0.5-1.3c-0.3-0.4-0.7-0.5-1.2-0.5H23.4z M30.1,22.1c-0.9,0-1.8-0.2-2.6-0.5
		c-0.8-0.4-1.5-0.9-2.1-1.5c-0.6-0.6-1.1-1.3-1.5-2.2c-0.4-0.9-0.6-1.7-0.6-2.6c0-0.9,0.2-1.8,0.6-2.6c0.4-0.8,0.9-1.6,1.5-2.2
		C26,9.9,26.7,9.4,27.5,9c0.8-0.4,1.7-0.5,2.6-0.5s1.8,0.2,2.7,0.5c0.8,0.4,1.5,0.9,2.2,1.5c0.6,0.6,1.1,1.4,1.4,2.2
		c0.4,0.8,0.6,1.7,0.6,2.6c0,0.9-0.2,1.7-0.6,2.6c-0.4,0.9-0.8,1.6-1.4,2.2c-0.6,0.6-1.3,1.1-2.2,1.5C31.9,22,31,22.1,30.1,22.1z
		 M35.5,70.5c-0.5,0-0.9,0.2-1.3,0.5c-0.4,0.3-0.5,0.7-0.5,1.2c0,0.5,0.2,0.9,0.5,1.2c0.4,0.3,0.8,0.5,1.3,0.5h29.2
		c0.5,0,0.9-0.2,1.3-0.5c0.4-0.3,0.5-0.7,0.5-1.2c0-0.5-0.2-0.9-0.5-1.2c-0.4-0.3-0.8-0.5-1.3-0.5H35.5z M35.5,79.4
		c-0.5,0-0.9,0.2-1.3,0.5c-0.4,0.3-0.5,0.7-0.5,1.2c0,0.5,0.2,0.9,0.5,1.2c0.4,0.3,0.8,0.5,1.3,0.5h29.2c0.5,0,0.9-0.2,1.3-0.5
		c0.4-0.3,0.5-0.7,0.5-1.2c0-0.5-0.2-0.9-0.5-1.2c-0.4-0.3-0.8-0.5-1.3-0.5H35.5z M50.3,19.1c-0.9,0-1.8-0.2-2.6-0.5
		c-0.8-0.4-1.6-0.9-2.2-1.5c-0.6-0.6-1.1-1.3-1.5-2.1c-0.4-0.8-0.5-1.7-0.5-2.6c0-0.9,0.2-1.8,0.5-2.6c0.4-0.8,0.9-1.6,1.5-2.2
		c0.6-0.6,1.4-1.1,2.2-1.4c0.8-0.4,1.7-0.6,2.6-0.6c0.9,0,1.7,0.2,2.6,0.6c0.9,0.4,1.6,0.9,2.2,1.4c0.6,0.6,1.1,1.3,1.5,2.2
		c0.4,0.8,0.5,1.7,0.5,2.6c0,0.9-0.2,1.8-0.5,2.6c-0.4,0.8-0.8,1.5-1.5,2.1c-0.6,0.6-1.3,1.1-2.2,1.5C52,19,51.2,19.1,50.3,19.1z
		 M70.1,22.2c-1,0-1.9-0.2-2.7-0.5c-0.8-0.4-1.5-0.9-2.2-1.5c-0.6-0.6-1.1-1.3-1.5-2.2c-0.3-0.9-0.5-1.7-0.5-2.6
		c0-0.9,0.2-1.8,0.5-2.7c0.3-0.8,0.8-1.6,1.5-2.2c0.6-0.6,1.3-1.1,2.2-1.5c0.8-0.3,1.7-0.5,2.7-0.5c0.9,0,1.8,0.2,2.7,0.5
		c0.8,0.3,1.6,0.8,2.2,1.5c0.6,0.6,1.1,1.4,1.5,2.2c0.3,0.8,0.5,1.7,0.5,2.7c0,0.9-0.2,1.7-0.5,2.6c-0.3,0.9-0.8,1.6-1.5,2.2
		c-0.6,0.6-1.4,1.1-2.2,1.5C71.9,22.1,71,22.2,70.1,22.2z M91.1,25.3c-0.9,0-1.8-0.2-2.6-0.5c-0.8-0.3-1.6-0.8-2.2-1.5
		c-0.6-0.6-1.1-1.4-1.5-2.1c-0.3-0.8-0.5-1.7-0.5-2.6c0-1,0.2-1.9,0.5-2.7c0.3-0.8,0.8-1.5,1.5-2.2c0.6-0.6,1.4-1.1,2.2-1.4
		c0.8-0.3,1.7-0.5,2.6-0.5s1.8,0.2,2.7,0.5c0.8,0.3,1.6,0.8,2.2,1.4c0.6,0.6,1.1,1.4,1.5,2.2c0.3,0.8,0.5,1.7,0.5,2.7
		c0,0.9-0.2,1.8-0.5,2.6c-0.3,0.8-0.8,1.5-1.5,2.1c-0.6,0.6-1.4,1.1-2.2,1.5C92.9,25.2,92,25.3,91.1,25.3z"/>

</svg>
