<?xml version="1.0" encoding="utf-8"?>
<!-- Generator: Adobe Illustrator 19.0.0, SVG Export Plug-In . SVG Version: 6.00 Build 0)  -->
<svg version="1.1" id="r" xmlns="http://www.w3.org/2000/svg" xmlns:xlink="http://www.w3.org/1999/xlink" x="0px" y="0px"
	 viewBox="0 0 100 100" enable-background="new 0 0 100 100" xml:space="preserve">

	<path id="XMLID_9_" fill="#FFFFFF" d="M73.4,7.8v16.6l-6.6,10l6.6,38.2l6.6,6.8v11.8H50.1h-30V79.4l6.6-6.8l6.6-38.2l-6.6-10V7.8
		c0-0.5,0.1-0.9,0.3-1.3c0.2-0.4,0.4-0.8,0.7-1c0.3-0.3,0.7-0.5,1.1-0.8c0.4-0.2,0.9-0.3,1.3-0.3h5c0.4,0,0.8,0.1,1.2,0.3
		c0.4,0.2,0.8,0.5,1.1,0.8c0.3,0.3,0.6,0.7,0.8,1.2c0.2,0.4,0.3,0.9,0.3,1.3v13.2h4.9V7.9c0-0.5,0.1-0.9,0.3-1.4
		c0.2-0.4,0.5-0.8,0.8-1.1c0.3-0.3,0.7-0.5,1.1-0.8c0.4-0.2,0.9-0.3,1.4-0.3h3.3h3.3c0.5,0,0.9,0.1,1.3,0.3c0.4,0.2,0.8,0.5,1,0.8
		c0.3,0.3,0.5,0.7,0.7,1.1c0.2,0.4,0.3,0.9,0.3,1.4v13.3h5.1V7.8c0-0.5,0.1-0.9,0.3-1.3c0.2-0.4,0.4-0.8,0.7-1s0.7-0.5,1-0.8
		c0.4-0.2,0.8-0.3,1.3-0.3h5.1c0.4,0,0.8,0.1,1.2,0.3c0.4,0.2,0.8,0.5,1,0.8s0.5,0.6,0.7,1C73.3,6.9,73.4,7.4,73.4,7.8z"/>

	<path id="XMLID_4_" d="M73.4,7.8v16.6l-6.6,10l6.6,38.2l6.6,6.8v11.8H50.1h-30V79.4l6.6-6.8l6.6-38.2l-6.6-10V7.8
		c0-0.5,0.1-0.9,0.3-1.3c0.2-0.4,0.4-0.8,0.7-1c0.3-0.3,0.7-0.5,1.1-0.8c0.4-0.2,0.9-0.3,1.3-0.3h5c0.4,0,0.8,0.1,1.2,0.3
		c0.4,0.2,0.8,0.5,1.1,0.8c0.3,0.3,0.6,0.7,0.8,1.2c0.2,0.4,0.3,0.9,0.3,1.3v13.2h4.9V7.9c0-0.5,0.1-0.9,0.3-1.4
		c0.2-0.4,0.5-0.8,0.8-1.1c0.3-0.3,0.7-0.5,1.1-0.8c0.4-0.2,0.9-0.3,1.4-0.3h3.3h3.3c0.5,0,0.9,0.1,1.3,0.3c0.4,0.2,0.8,0.5,1,0.8
		c0.3,0.3,0.5,0.7,0.7,1.1c0.2,0.4,0.3,0.9,0.3,1.4v13.3h5.1V7.8c0-0.5,0.1-0.9,0.3-1.3c0.2-0.4,0.4-0.8,0.7-1s0.7-0.5,1-0.8
		c0.4-0.2,0.8-0.3,1.3-0.3h5.1c0.4,0,0.8,0.1,1.2,0.3c0.4,0.2,0.8,0.5,1,0.8s0.5,0.6,0.7,1C73.3,6.9,73.4,7.4,73.4,7.8z M28.4,79.4
		c-0.5,0-0.9,0.2-1.2,0.5c-0.3,0.3-0.5,0.7-0.5,1.2c0,0.5,0.2,0.9,0.5,1.2c0.3,0.3,0.7,0.5,1.2,0.5H72c0.4,0,0.8-0.2,1.1-0.5
		c0.3-0.3,0.5-0.7,0.5-1.2c0-0.5-0.2-0.9-0.5-1.2c-0.3-0.3-0.7-0.5-1.1-0.5H28.4z M43,64.4v12.8h13.9L57,64.5l9.7-0.1
		c0.5,0,0.8-0.2,1.1-0.5c0.3-0.3,0.5-0.7,0.5-1.2c0-0.4-0.1-0.8-0.5-1.1c-0.3-0.3-0.7-0.5-1.1-0.5h-9.8c0-0.9-0.2-1.8-0.6-2.5
		c-0.4-0.8-0.9-1.5-1.5-2.1c-0.6-0.6-1.4-1.1-2.2-1.4c-0.8-0.4-1.7-0.6-2.7-0.6c-1,0-1.9,0.2-2.8,0.6c-0.8,0.4-1.6,0.8-2.2,1.4
		c-0.6,0.6-1.1,1.3-1.5,2.1c-0.4,0.8-0.5,1.6-0.5,2.5h-9.8c-0.4,0-0.8,0.2-1.1,0.5c-0.3,0.3-0.5,0.7-0.5,1.1c0,0.5,0.2,0.9,0.5,1.2
		c0.3,0.3,0.7,0.5,1.1,0.5H43z M36.4,31c-0.4,0-0.7,0.1-1,0.4c-0.3,0.3-0.4,0.6-0.4,1c0,0.4,0.1,0.7,0.4,0.9c0.3,0.2,0.6,0.4,1,0.4
		h27.2c0.3,0,0.6-0.1,0.9-0.4c0.3-0.2,0.5-0.5,0.5-0.9c0-0.4-0.2-0.7-0.5-1c-0.3-0.3-0.6-0.4-0.9-0.4H36.4z"/>

</svg>
