<?xml version="1.0" encoding="utf-8"?>
<!-- Generator: Adobe Illustrator 19.0.0, SVG Export Plug-In . SVG Version: 6.00 Build 0)  -->
<svg version="1.1" id="K" xmlns="http://www.w3.org/2000/svg" xmlns:xlink="http://www.w3.org/1999/xlink" x="0px" y="0px"
	 viewBox="0 0 100 100" enable-background="new 0 0 100 100" xml:space="preserve">

	<path id="XMLID_14_" fill="#FFFFFF" d="M83.7,60.4c1.3,1.3,2,2.9,2,4.8c0,2-0.7,3.6-2,4.9c0.1,0.3,0.1,0.7,0.1,1.1
		c0,1.9-0.6,3.6-1.9,4.9c0.1,0.5,0.2,1,0.2,1.5c0,3.5-1.6,5.6-4.9,6.5c-8,2.5-17.1,3.7-27.3,3.7c-10.2,0-19.3-1.2-27.3-3.7
		c-3.2-0.9-4.8-3-4.8-6.5c0-0.5,0.1-1,0.2-1.5c-1.3-1.3-2-3-2-4.9c0-0.4,0.1-0.8,0.2-1.1c-1.4-1.3-2.1-2.9-2.1-4.9
		c0-1.9,0.7-3.5,2.1-4.8c-0.6-0.6-1.2-1.4-1.7-2.3c-2.8-3.9-4.6-7.9-5.5-12C8,42,8.1,38.5,9.2,35.5c1.7-4.1,4.2-7.2,7.6-9.1
		c3.3-1.9,7.1-2.7,11.2-2.2c4.1,0.5,8.1,2.1,12,4.7c3.7,2.5,7.1,6.1,10,10.7c2.9-4.6,6.2-8.2,10-10.7c3.9-2.6,7.9-4.2,12-4.7
		c4.1-0.5,7.8,0.2,11.1,2.2c3.5,1.9,6,5,7.7,9.1c1,2.9,1,6.5,0.2,10.6c-0.9,4.1-2.7,8.1-5.5,12C84.9,59.1,84.3,59.8,83.7,60.4z
		 M50,34.3c-2.5,0-4.7-0.9-6.5-2.7c-1.8-1.8-2.6-4-2.6-6.5c0-2.5,0.9-4.6,2.6-6.4c1.8-1.8,3.9-2.7,6.5-2.7c2.5,0,4.7,0.9,6.5,2.7
		s2.7,3.9,2.7,6.4c0,2.5-0.9,4.7-2.7,6.5C54.7,33.4,52.5,34.3,50,34.3z M52.5,16.2c-0.9-0.3-1.7-0.4-2.5-0.4s-1.7,0.1-2.7,0.4l1.1-6
		l-4.5,1.6v-6l4.5,1.5l-1.5-4.5h6l-1.5,4.5l4.5-1.5v6l-4.5-1.6L52.5,16.2z"/>

	<path id="XMLID_4_" d="M83.7,60.4c1.3,1.3,2,2.9,2,4.8c0,2-0.7,3.6-2,4.9c0.1,0.3,0.1,0.7,0.1,1.1c0,1.9-0.6,3.6-1.9,4.9
		c0.1,0.5,0.2,1,0.2,1.5c0,3.5-1.6,5.6-4.9,6.5c-8,2.5-17.1,3.7-27.3,3.7c-10.2,0-19.3-1.2-27.3-3.7c-3.2-0.9-4.8-3-4.8-6.5
		c0-0.5,0.1-1,0.2-1.5c-1.3-1.3-2-3-2-4.9c0-0.4,0.1-0.8,0.2-1.1c-1.4-1.3-2.1-2.9-2.1-4.9c0-1.9,0.7-3.5,2.1-4.8
		c-0.6-0.6-1.2-1.4-1.7-2.3c-2.8-3.9-4.6-7.9-5.5-12C8,42,8.1,38.5,9.2,35.5c1.7-4.1,4.2-7.2,7.6-9.1c3.3-1.9,7.1-2.7,11.2-2.2
		c4.1,0.5,8.1,2.1,12,4.7c3.7,2.5,7.1,6.1,10,10.7c2.9-4.6,6.2-8.2,10-10.7c3.9-2.6,7.9-4.2,12-4.7c4.1-0.5,7.8,0.2,11.1,2.2
		c3.5,1.9,6,5,7.7,9.1c1,2.9,1,6.5,0.2,10.6c-0.9,4.1-2.7,8.1-5.5,12C84.9,59.1,84.3,59.8,83.7,60.4z M80.7,58.8
		c0.7-0.7,1.4-1.6,2.1-2.6c2.5-3.6,4.2-7.2,5-10.8c0.8-3.6,0.7-6.6-0.2-8.9c-1.4-3.2-3.4-5.6-6.1-7.2c-2.7-1.5-5.8-2.1-9.2-1.6
		c-3.4,0.4-6.8,1.7-10.1,3.8c-3.7,2.3-6.8,5.8-9.5,10.4c-0.9,1.7-1.8,3.6-2.7,5.6c-0.9-2-1.8-3.9-2.7-5.6c-2.7-4.6-5.9-8.1-9.5-10.4
		c-3.3-2.1-6.7-3.3-10.1-3.8c-3.4-0.4-6.5,0.1-9.2,1.6c-2.7,1.6-4.8,4-6.1,7.2c-1,2.3-1.1,5.3-0.3,8.9c0.8,3.6,2.5,7.3,5.1,10.8
		c0.7,1,1.3,1.9,2,2.6c0.8-0.2,1.6-0.4,2.4-0.6c-4.1-12.5-3.3-20.2,2.5-22.9c3.5-1.6,7.2-0.7,11.2,2.6c4,3.3,7.3,7,9.8,11.1
		c0.5,0.8,1.6,2.9,3.2,6.3c0.3,0,0.5,0,0.8-0.1c0.3,0,0.5,0,0.8,0h1.7c1.6-3.5,2.7-5.6,3.2-6.4c2.5-4.1,5.8-7.7,9.7-11
		c3.9-3.3,7.7-4.1,11.3-2.5c5.8,2.7,6.6,10.4,2.5,22.9c0.4,0.1,0.8,0.2,1.2,0.3C79.9,58.7,80.3,58.8,80.7,58.8z M78.1,75.3
		c-0.2-0.2-0.3-0.4-0.2-0.5c0-0.2,0.2-0.3,0.6-0.4c1.5-0.5,2.2-1.6,2.2-3.2c0-1.1-0.4-2-1.2-2.7c2.1,0,3.1-1.1,3.1-3.3
		c0-1.6-0.7-2.7-2.2-3.2c-8.3-2.3-18.3-3.5-30.2-3.5c-12,0-22.2,1.2-30.7,3.6c-1.5,0.5-2.2,1.5-2.2,3.1c0,2.2,1,3.3,3.1,3.3
		c-0.8,0.7-1.2,1.6-1.2,2.7c0,1.6,0.7,2.6,2,3.1c0.5,0.1,0.7,0.2,0.8,0.5c0.1,0.1,0,0.3-0.2,0.5c-0.6,0.8-0.9,1.6-0.9,2.3
		c0,0.6,0.2,1.2,0.5,1.7c8.6-2.1,18.1-3.1,28.5-3.1c10.5,0,20.1,1,28.6,3.1c0.3-0.6,0.4-1.2,0.4-1.7C78.9,76.8,78.6,76.1,78.1,75.3z
		 M44.7,55.4C42.4,50.1,39.5,46,36,43c-3.5-2.9-6.5-3.8-9.2-2.7c-2.2,0.9-3.5,3-3.8,6.1c-0.3,3.2,0.3,6.9,2,11
		c2.2-0.4,4.1-0.7,5.7-1c-0.3-0.8-0.2-1.8,0.1-3c0.4-1.2,0.3-2.2-0.3-2.9c-0.3-0.5-0.8-0.2-1.5,0.9c-0.6,1.1-1.2,1.5-1.8,1.2
		c-0.7-0.4-1.1-1.1-1.4-2.1c-0.3-1-0.2-1.8,0.2-2.5c0.3-0.5,0.9-0.5,1.9,0.1c1,0.6,1.6,0.6,2,0.1c0.3-0.5,0-1.1-1.1-1.6
		c-1-0.5-1.4-1-1-1.5c1.1-1.9,2.7-2.4,4.7-1.3c0.5,0.3,0.5,1-0.2,1.9c-0.6,0.9-0.7,1.6-0.1,1.9c0.5,0.3,1-0.1,1.5-1
		c0.5-1,1-1.3,1.7-1.1c0.7,0.4,1.1,1.1,1.4,2.1c0.3,1,0.2,1.8-0.2,2.5c-0.3,0.5-0.9,0.5-2-0.1c-1.1-0.6-1.7-0.7-1.8-0.1
		c-0.1,1.2,0.4,2.2,1.5,3.1C35.5,54,36,55,35.8,56C38.7,55.7,41.7,55.5,44.7,55.4z M74.5,81.5c-7.4-1.3-15.6-2-24.6-2
		c-9.1,0-17.3,0.7-24.6,2c7.5,1.9,15.7,2.8,24.6,2.8C58.9,84.3,67.1,83.4,74.5,81.5z M50,34.3c-2.5,0-4.7-0.9-6.5-2.7
		c-1.8-1.8-2.6-4-2.6-6.5c0-2.5,0.9-4.6,2.6-6.4c1.8-1.8,3.9-2.7,6.5-2.7c2.5,0,4.7,0.9,6.5,2.7s2.7,3.9,2.7,6.4
		c0,2.5-0.9,4.7-2.7,6.5C54.7,33.4,52.5,34.3,50,34.3z M52.5,16.2c-0.9-0.3-1.7-0.4-2.5-0.4s-1.7,0.1-2.7,0.4l1.1-6l-4.5,1.6v-6
		l4.5,1.5l-1.5-4.5h6l-1.5,4.5l4.5-1.5v6l-4.5-1.6L52.5,16.2z M50,30.9c1.6,0,3-0.6,4-1.7c1.1-1.1,1.7-2.5,1.7-4.1
		c0-1.5-0.5-2.9-1.7-4c-1.1-1.1-2.5-1.7-4-1.7s-3,0.6-4,1.7c-1.1,1.1-1.7,2.5-1.7,4c0,1.6,0.5,3,1.7,4.1C47,30.4,48.4,30.9,50,30.9z
		 M74.9,57.4c1.7-4.2,2.3-7.9,2-11.1c-0.3-3.2-1.6-5.3-3.8-6.2c-2.7-1.1-5.8-0.2-9.3,2.8c-3.5,3-6.4,7.1-8.6,12.5
		c3.5,0.2,6.4,0.4,8.9,0.7c-0.2-1.1,0.3-2,1.5-2.9c1.2-0.9,1.7-1.9,1.5-3.1c-0.1-0.6-0.6-0.6-1.7,0.1c-1.1,0.7-1.8,0.7-2.1,0.1
		c-0.4-0.7-0.5-1.5-0.2-2.5c0.3-1,0.7-1.7,1.4-2.1c0.6-0.3,1.1,0.1,1.6,1.1s1,1.3,1.7,1c0.5-0.3,0.4-0.9-0.3-1.9
		c-0.6-1-0.7-1.6,0-1.9c0.7-0.3,1.5-0.4,2.5-0.2c1,0.2,1.7,0.7,2.1,1.5c0.3,0.5-0.1,1.1-1,1.6c-1,0.5-1.3,1-1,1.5
		c0.3,0.6,0.9,0.6,1.8-0.1c0.9-0.6,1.6-0.7,2-0.1c0.3,0.7,0.4,1.5,0.1,2.5c-0.3,1-0.7,1.7-1.4,2.1c-0.5,0.3-1.1-0.1-1.7-1.2
		c-0.6-1.1-1.1-1.4-1.5-0.9c-0.6,0.8-0.7,1.8-0.3,3c0.4,1.2,0.5,2.2,0.2,3c0.9,0.1,1.9,0.3,2.8,0.5C73,57.3,74,57.4,74.9,57.4z"/>

</svg>
