<?xml version="1.0" encoding="utf-8"?>
<!-- Generator: Adobe Illustrator 19.0.0, SVG Export Plug-In . SVG Version: 6.00 Build 0)  -->
<svg version="1.1" id="b" xmlns="http://www.w3.org/2000/svg" xmlns:xlink="http://www.w3.org/1999/xlink" x="0px" y="0px"
	 viewBox="0 0 100 100" enable-background="new 0 0 100 100" xml:space="preserve">

	<path id="XMLID_18_" fill="#FFFFFF" d="M24.2,65L8.1,46.4l16.2-18.8l11.8,13.9c1.4-1.7,3.2-2.6,5.5-2.6c2,0,3.7,0.7,5.1,2.1
		c1.4,1.4,2.1,3.1,2.1,5c0,2-0.7,3.7-2.1,5.1c-1.4,1.4-3.1,2.1-5.1,2.1c-1.9,0-3.6-0.8-5.1-2.3L24.2,65z M70.8,54.7l1.4-3l2.6,1.3
		c1.9-3.7,2.8-7.5,2.8-11.5c0-7.5-3.1-14-9.3-19.4S54.7,14,46,14c-3.4,0-6.8,0.5-10.2,1.4l2.3,5.1l-3,1.4l-2.4-5.4
		c-1,0.4-2.1,0.9-3.4,1.6c-1.3,0.7-2.6,1.1-4,1.1c-2.3,0-4.3-0.8-5.9-2.4c-1.6-1.6-2.5-3.6-2.5-5.9c0-2.3,0.8-4.2,2.5-5.9
		C21,3.4,23,2.5,25.3,2.5c1.9,0,3.6,0.6,5.1,1.8c1.5-0.9,3.3-1.6,5.2-2c3.1-0.5,5.7-0.1,7.9,1.1c2-1.1,4.3-1.5,7-1.3
		c3.3,0.3,5.8,1.4,7.6,3.2c2.1-0.5,4.4-0.3,6.9,0.6c3.1,1.2,5.3,3,6.6,5.4c2.4,0.2,4.7,1.4,7,3.5c2.1,2.2,3.3,4.5,3.7,7
		c2.3,1.2,4,3.4,5.1,6.5c1.2,3.1,1.3,6,0.2,8.5c1,6.3,0.2,12.5-2.5,18.6c0.5-0.1,0.8-0.1,1-0.1c1.9,0,3.4,0.6,4.7,1.9
		c1.3,1.3,1.9,2.8,1.9,4.7c0,0.5-0.1,1.1-0.2,1.6c-0.6,2.7-1.8,5-3.6,6.7c-1.8,1.7-3.8,2.6-6.1,2.6c-2.7,0-5.1-1.2-7-3.7
		c-2-2.4-3-5.4-3-8.8c0-1.5,0.2-3,0.6-4.3L70.8,54.7z M30,63.4l7.2-8.5c1.3,0.7,2.8,1.1,4.4,1.1c2.7,0,5.1-1,7.1-2.9
		c2-1.9,3-4.3,3-7.1c0-2.7-1-5.1-3-7c-2-1.9-4.4-2.9-7.1-2.9c-1.7,0-3.3,0.4-4.9,1.3l-8.4-9.9c1.9-2.1,4.2-4,6.9-5.5
		c6.3-3.7,13-4.7,19.9-3c6.9,1.6,12.1,5.5,15.6,11.5c3.4,5.9,4.1,12.3,2,19.2c-2,6.9-6.2,12.1-12.5,15.7l-0.5,0.3
		c-1.8,1.5-2.7,3.1-2.7,4.8c0,2.8,2.1,5.1,6.4,6.9c3.6,1.4,6.2,3.4,7.7,5.9c-0.9,0.4-2,0.8-3.1,1.2c-0.4,0.1-0.7,0.2-1,0.2
		c-6.6,1.8-12.1,1.3-16.6-1.4c-2.7,1.3-5.4,2.3-8.1,3c-4.1,1.1-8,1.6-11.8,1.5c-3.8,0-7.1,0-9.9,0c1.8-2.4,4.3-4.6,7.6-6.5
		c1.6-0.9,3.3-1.7,5.1-2.3c3.8-1.7,5.7-3.8,5.7-6.5c0-2.5-1.6-4.6-4.9-6.2C32.7,65.4,31.3,64.5,30,63.4z"/>

	<path id="XMLID_4_" d="M24.2,65L8.1,46.4l16.2-18.8l11.8,13.9c1.4-1.7,3.2-2.6,5.5-2.6c2,0,3.7,0.7,5.1,2.1c1.4,1.4,2.1,3.1,2.1,5
		c0,2-0.7,3.7-2.1,5.1c-1.4,1.4-3.1,2.1-5.1,2.1c-1.9,0-3.6-0.8-5.1-2.3L24.2,65z M20.5,46.2l4.2-4.7l-2.1-2.3l-6.3,7l6.2,7l2.2-2.4
		L20.5,46.2z M70.8,54.7l1.4-3l2.6,1.3c1.9-3.7,2.8-7.5,2.8-11.5c0-7.5-3.1-14-9.3-19.4S54.7,14,46,14c-3.4,0-6.8,0.5-10.2,1.4
		l2.3,5.1l-3,1.4l-2.4-5.4c-1,0.4-2.1,0.9-3.4,1.6c-1.3,0.7-2.6,1.1-4,1.1c-2.3,0-4.3-0.8-5.9-2.4c-1.6-1.6-2.5-3.6-2.5-5.9
		c0-2.3,0.8-4.2,2.5-5.9C21,3.4,23,2.5,25.3,2.5c1.9,0,3.6,0.6,5.1,1.8c1.5-0.9,3.3-1.6,5.2-2c3.1-0.5,5.7-0.1,7.9,1.1
		c2-1.1,4.3-1.5,7-1.3c3.3,0.3,5.8,1.4,7.6,3.2c2.1-0.5,4.4-0.3,6.9,0.6c3.1,1.2,5.3,3,6.6,5.4c2.4,0.2,4.7,1.4,7,3.5
		c2.1,2.2,3.3,4.5,3.7,7c2.3,1.2,4,3.4,5.1,6.5c1.2,3.1,1.3,6,0.2,8.5c1,6.3,0.2,12.5-2.5,18.6c0.5-0.1,0.8-0.1,1-0.1
		c1.9,0,3.4,0.6,4.7,1.9c1.3,1.3,1.9,2.8,1.9,4.7c0,0.5-0.1,1.1-0.2,1.6c-0.6,2.7-1.8,5-3.6,6.7c-1.8,1.7-3.8,2.6-6.1,2.6
		c-2.7,0-5.1-1.2-7-3.7c-2-2.4-3-5.4-3-8.8c0-1.5,0.2-3,0.6-4.3L70.8,54.7z M30,63.4l7.2-8.5c1.3,0.7,2.8,1.1,4.4,1.1
		c2.7,0,5.1-1,7.1-2.9c2-1.9,3-4.3,3-7.1c0-2.7-1-5.1-3-7c-2-1.9-4.4-2.9-7.1-2.9c-1.7,0-3.3,0.4-4.9,1.3l-8.4-9.9
		c1.9-2.1,4.2-4,6.9-5.5c6.3-3.7,13-4.7,19.9-3c6.9,1.6,12.1,5.5,15.6,11.5c3.4,5.9,4.1,12.3,2,19.2c-2,6.9-6.2,12.1-12.5,15.7
		l-0.5,0.3c-1.8,1.5-2.7,3.1-2.7,4.8c0,2.8,2.1,5.1,6.4,6.9c3.6,1.4,6.2,3.4,7.7,5.9c-0.9,0.4-2,0.8-3.1,1.2c-0.4,0.1-0.7,0.2-1,0.2
		c-6.6,1.8-12.1,1.3-16.6-1.4c-2.7,1.3-5.4,2.3-8.1,3c-4.1,1.1-8,1.6-11.8,1.5c-3.8,0-7.1,0-9.9,0c1.8-2.4,4.3-4.6,7.6-6.5
		c1.6-0.9,3.3-1.7,5.1-2.3c3.8-1.7,5.7-3.8,5.7-6.5c0-2.5-1.6-4.6-4.9-6.2C32.7,65.4,31.3,64.5,30,63.4z M24,6.3
		c-2.9,1.6-3.6,3.9-1.9,6.8c1.7,2.9,4,3.5,6.9,1.8c0.8-0.4,1.4-1,1.8-1.7c-2.5,0.3-4.4-0.1-5.7-1.2C23.4,10.2,23.1,8.3,24,6.3z
		 M34.4,10.3c1.7,0.9,3.7,1.1,5.8,0.7c1.1-0.2,1.8-0.5,2-0.8c0.3-0.3,0.7-0.8,1.3-1.3c-0.8,0.4-1.9,0.5-3.3,0.3
		C37.9,9,36.4,8.3,35.5,7c-0.5-0.9-1.2-1.2-2-0.9c-1,0.3-1.2,1.2-0.7,2.6C33,9.4,33.5,9.9,34.4,10.3z M41.6,42.3
		c-2.5,0-3.7,1.2-3.7,3.7c0,2.5,1.2,3.8,3.7,3.8c2.5,0,3.8-1.3,3.8-3.8C45.4,43.6,44.1,42.3,41.6,42.3z M47.6,9.9
		c1,0.7,2.8,1.2,5.4,1.5c1.6,0.1,3.1-0.3,4.5-1.3c-1.2,0.3-2.5,0.2-4-0.2c-2.3-0.6-3.7-1.6-4.2-3c-0.5-1-1.1-1.4-1.8-1.3
		c-1.1,0.2-1.5,1-1.2,2.4C46.4,8.8,46.8,9.5,47.6,9.9z M61.9,13.6c1.2,1.5,3,2.4,5.3,2.8c2,0.4,3.6,0.3,4.7-0.3
		c-0.8,0.1-2.2-0.4-4.2-1.5c-2-0.9-3.2-2.3-3.6-4c-0.2-1.1-0.7-1.7-1.6-1.7c-1.1,0-1.6,0.8-1.6,2.4C60.9,12.1,61.2,12.9,61.9,13.6z
		 M73,20.3c0.3,1.8,1.4,3.5,3.3,5.2c1.7,1.6,3.5,2.5,5.2,2.8c-1.5-0.9-2.7-2.1-3.8-3.8c-1.3-1.9-1.6-3.6-1-5.1
		c0.4-0.9,0.3-1.7-0.4-2.2c-1-0.6-2-0.3-2.9,0.8C73,18.6,72.9,19.4,73,20.3z M81,56.1c0.7-1.9,0.4-3.1-0.7-3.6
		c-1.1-0.4-2.1,0.3-2.9,2.2c-0.1,0.2-0.2,0.4-0.3,0.5c0,0.1-0.1,0.3-0.2,0.5c-0.6,1.5-0.9,3-0.9,4.6c0,2.6,0.7,4.8,2,6.5
		c1.3,1.8,2.9,2.6,4.8,2.6c1.1,0,2.1-0.3,3.2-1c-1.8,0-3.3-0.6-4.6-1.9c-1.3-1.3-2-2.9-2-4.7c0-0.3,0.1-0.7,0.2-1
		c0.1-0.8,0.2-1.6,0.4-2.4C80.3,57.7,80.6,56.9,81,56.1z M80.4,33.6c-0.4,2.4-0.2,4.8,0.7,7.3C81.5,42,82,43,82.5,44
		c0.5,1,1.1,1.5,1.8,1.5c-0.7-1.5-1-2.6-1-3.5c0-0.9-0.1-1.9-0.2-2.9c-0.1-2.5,0.2-4.2,1-5c0.8-0.8,0.9-1.5,0.4-2.2
		c-0.7-0.9-1.8-0.9-3.1-0.1C80.9,32.1,80.5,32.7,80.4,33.6z M86.1,59.6c-2.1,0-3.2,1.1-3.2,3.2c0,2.3,1.1,3.4,3.2,3.4
		c2.2,0,3.3-1.1,3.3-3.4C89.4,60.7,88.3,59.6,86.1,59.6z"/>

</svg>
