<?xml version="1.0" encoding="utf-8"?>
<!-- Generator: Adobe Illustrator 19.0.0, SVG Export Plug-In . SVG Version: 6.00 Build 0)  -->
<svg version="1.1" id="n" xmlns="http://www.w3.org/2000/svg" xmlns:xlink="http://www.w3.org/1999/xlink" x="0px" y="0px"
	 viewBox="0 0 100 100" enable-background="new 0 0 100 100" xml:space="preserve">

	<path id="XMLID_17_" fill="#FFFFFF" d="M12.9,59.7c-1.7-0.1-3.5-1.1-5.6-3.1c-2.2-3-2.8-5.5-1.9-7.6c0.9-2.1,3.4-4.9,7.4-8.4
		c0.8-0.7,1.8-1.4,2.9-2.1c0.9-0.5,1.8-1.3,2.9-2.3c1.4-1.4,2.5-3,3.2-4.8c1.7-4.1,4.9-7.5,9.6-10.2c0.2-0.1,0.3-0.2,0.4-0.3
		c-0.1-1.7,0-3.3,0.3-4.8c0.3-2.1,1-4,1.9-5.6c1.8,0.7,3.5,1.7,5,3c0.5,0.4,0.9,0.8,1.4,1.3c0.7-1.3,1.5-2.3,2.3-3.2
		c1.3-1.6,2.8-2.9,4.4-3.9c1.2,1.6,2.1,3.3,2.8,5.2c0,0.1,0,0.2,0.1,0.3c0.2,0,0.4,0,0.5,0c0.2,0,0.4,0,0.5,0
		c2.1-0.1,4.1-0.1,6.1,0.2c2,0.3,3.6,0.8,4.9,1.5c0.1,0.1,0.3,0.1,0.5,0.1c0.2,0,0.4,0.1,0.7,0.1c3.1,1.3,5.5,2.9,7.5,4.8
		s3,3.5,3.2,5c1.4,0.9,2.9,2.2,4.6,3.8c4.5,4.6,6.7,8.6,6.7,11.9c1.4,1.7,2.7,3.8,4,6.4c2.8,6.1,3.5,10.8,2,13.9
		c2.2,2.7,3.5,6.7,4,12c0.1,1.9,0.1,3.8,0,5.6c-0.1,2.9-0.3,5.7-0.6,8.4c-5.8-2.5-12.1-4.1-19-4.8c-7.2-0.6-14.1,0-20.7,1.7
		c-8.4,3.3-17.3,4.7-26.6,4.2c-1.2-0.1-2.1-0.1-2.6-0.2c5.1-9.5,11.8-16.6,20-21.5c1.9-1.8,3.1-4.4,3.8-7.8c0.4-2.6,0.3-5-0.4-7.2
		c-1.1,0.7-1.9,1.1-2.5,1.4c-3.4,1.5-6.7,2.1-10,1.6c-2.1,2.3-4.7,4.1-7.7,5.2c-0.1,0.1-0.8,0.3-1.9,0.7c-2.1,1.7-4.3,2.9-6.5,3.4
		c-2.2,0.5-4.1,0.2-5.7-0.9C13.8,62.1,13.2,61.1,12.9,59.7z"/>

	<path id="XMLID_4_" d="M12.9,59.7c-1.7-0.1-3.5-1.1-5.6-3.1c-2.2-3-2.8-5.5-1.9-7.6c0.9-2.1,3.4-4.9,7.4-8.4
		c0.8-0.7,1.8-1.4,2.9-2.1c0.9-0.5,1.8-1.3,2.9-2.3c1.4-1.4,2.5-3,3.2-4.8c1.7-4.1,4.9-7.5,9.6-10.2c0.2-0.1,0.3-0.2,0.4-0.3
		c-0.1-1.7,0-3.3,0.3-4.8c0.3-2.1,1-4,1.9-5.6c1.8,0.7,3.5,1.7,5,3c0.5,0.4,0.9,0.8,1.4,1.3c0.7-1.3,1.5-2.3,2.3-3.2
		c1.3-1.6,2.8-2.9,4.4-3.9c1.2,1.6,2.1,3.3,2.8,5.2c0,0.1,0,0.2,0.1,0.3c0.2,0,0.4,0,0.5,0c0.2,0,0.4,0,0.5,0
		c2.1-0.1,4.1-0.1,6.1,0.2c2,0.3,3.6,0.8,4.9,1.5c0.1,0.1,0.3,0.1,0.5,0.1c0.2,0,0.4,0.1,0.7,0.1c3.1,1.3,5.5,2.9,7.5,4.8
		s3,3.5,3.2,5c1.4,0.9,2.9,2.2,4.6,3.8c4.5,4.6,6.7,8.6,6.7,11.9c1.4,1.7,2.7,3.8,4,6.4c2.8,6.1,3.5,10.8,2,13.9
		c2.2,2.7,3.5,6.7,4,12c0.1,1.9,0.1,3.8,0,5.6c-0.1,2.9-0.3,5.7-0.6,8.4c-5.8-2.5-12.1-4.1-19-4.8c-7.2-0.6-14.1,0-20.7,1.7
		c-8.4,3.3-17.3,4.7-26.6,4.2c-1.2-0.1-2.1-0.1-2.6-0.2c5.1-9.5,11.8-16.6,20-21.5c1.9-1.8,3.1-4.4,3.8-7.8c0.4-2.6,0.3-5-0.4-7.2
		c-1.1,0.7-1.9,1.1-2.5,1.4c-3.4,1.5-6.7,2.1-10,1.6c-2.1,2.3-4.7,4.1-7.7,5.2c-0.1,0.1-0.8,0.3-1.9,0.7c-2.1,1.7-4.3,2.9-6.5,3.4
		c-2.2,0.5-4.1,0.2-5.7-0.9C13.8,62.1,13.2,61.1,12.9,59.7z M12.9,47.9c-1.7,0-2.6,0.6-2.6,1.8c0,1.1,0.9,1.7,2.6,1.7
		c1.8,0,2.7-0.6,2.7-1.7C15.6,48.5,14.7,47.9,12.9,47.9z M17.6,58.4c1.5-0.7,3.5-2,6-3.7c1.3-0.8,1.8-1.7,1.3-2.6
		c-0.6-0.9-1.6-1-2.9-0.2c-2.9,2.1-5,3.4-6.3,3.9c-1.4,0.9-1.8,1.8-1.2,2.7C15.1,59.4,16.1,59.4,17.6,58.4z M27.2,34
		c0.2-0.5,0.7-1.1,1.4-1.7c0.5,0.9,1.2,1.3,2.2,1.3c1.6,0,2.4-0.8,2.4-2.5c0-0.4-0.1-0.8-0.3-1.1c0.8-0.2,1.6-0.2,2.3,0
		c0.1-0.3,0.2-0.6,0.2-0.9c-0.1-1.8-1.8-2.1-4.9-0.9c-3.2,1.1-4.7,2.6-4.6,4.4C25.9,33.3,26.3,33.8,27.2,34z M48.5,22.9
		c-0.8,0.5-1.4,0.8-1.7,0.8c-0.3,0.1-0.7,0.2-1,0.3c-0.5,0.1-1.1,0.2-1.7,0.1c-0.3,0-0.7-0.1-1-0.3c-0.9-0.5-1.8-1.3-2.7-2.3
		c-0.3,2.5,0.5,4.1,2.3,4.8c0.1,0,0.2,0,0.3,0.1c0.1,0.1,0.3,0.1,0.5,0.2c0.7,0,1.1,0,1.3-0.1C46.5,25.9,47.7,24.7,48.5,22.9z
		 M52.8,48.4c1.7-2.1,2.9-4.3,3.4-6.7c0.3-1.7-0.1-2.6-1.2-2.8c-1.1-0.3-1.9,0.5-2.2,2.2c-0.5,1.7-1.4,3.4-2.6,4.9
		c-1.3,1.3-1.5,2.4-0.6,3.1C50.3,49.9,51.4,49.7,52.8,48.4z M51,18.8c1.1,0.4,2.3,0.9,3.6,1.4c4.6,0,7-0.6,7.1-1.7
		c0-0.7-1-1.4-3-1.9c-2-0.5-4.7-0.7-8-0.5C50.9,17,51,17.9,51,18.8z M59.7,22.7c2.7,1.3,5.2,2.2,7.3,2.7c2.2,0.5,3.4,0.4,3.7-0.3
		c0.5-1.1-1.5-3-6-5.5C64,21,62.4,22.1,59.7,22.7z M72.5,34.7c2.1,2.1,4.1,3.7,6,4.9c1.8,1.2,3,1.5,3.5,0.9c0.5-0.5,0.1-1.6-1-3.4
		c-1.1-1.8-2.8-3.9-4.9-6.1c-1.3-1.3-2.5-2.3-3.7-3.2c-1.3,0.7-3.3,0.9-5.8,0.6C68.8,30.5,70.8,32.6,72.5,34.7z M82.3,52
		c1.1,2.4,2.3,4.3,3.5,5.7c1.2,1.4,2,1.9,2.7,1.6c0.7-0.3,0.8-1.5,0.3-3.6c-0.5-2.1-1.3-4.6-2.6-7.3c-0.8-1.7-1.7-3.4-2.6-4.9
		c-1.4,0.5-3.3,0.2-5.7-1C79.5,45.5,81,48.7,82.3,52z M86.2,68.9c0.5,4.3,1.2,6.4,2.3,6.4c0.6,0,1.1-0.8,1.5-2.3
		c0.4-1.5,0.7-3.4,0.9-5.8c-0.8-3.2-1.6-4.8-2.5-4.7c-1.1-0.2-2.2-0.8-3.5-1.8C85.5,63.7,85.9,66.4,86.2,68.9z M91.6,82.2
		c0.3-1.7,0.5-3.9,0.5-6.6c-1.1,2.1-2.3,3.1-3.6,3.1c-0.7,0-1.5-0.3-2.2-1c-0.1,0.7-0.1,1.7-0.2,2.9C88,81,89.9,81.6,91.6,82.2z"/>

</svg>
