<?xml version="1.0" encoding="utf-8"?>
<!-- Generator: Adobe Illustrator 19.0.0, SVG Export Plug-In . SVG Version: 6.00 Build 0)  -->
<svg version="1.1" id="p" xmlns="http://www.w3.org/2000/svg" xmlns:xlink="http://www.w3.org/1999/xlink" x="0px" y="0px"
	 viewBox="0 0 100 100" enable-background="new 0 0 100 100" xml:space="preserve">

	<path id="XMLID_4_" d="M57.8,75.8c4.7,1.8,8.4,4.7,11.2,8.6v3.3H31v-3.3c2.8-4.1,6.5-6.9,11.2-8.6c-2.7-1.3-4.8-3.3-6.5-6
		c-1.6-2.6-2.5-5.5-2.5-8.8c0-5.3,2.1-9.7,6.3-13c2.7-2.6,4.1-5.8,4.1-9.5h-12v-3.4c2.1-2.6,4.7-4.7,7.6-6.2c2.2-1.2,4-3,5.3-5.3
		c-1.4-1.5-2.1-3.2-2.1-5.2c0-2.1,0.7-3.8,2.2-5.3c1.5-1.5,3.2-2.2,5.3-2.2c2.1,0,3.8,0.7,5.3,2.2c1.4,1.5,2.2,3.2,2.2,5.3
		c0,1.9-0.7,3.7-2,5.2c1.3,2.3,3.1,4,5.4,5.3c3,1.6,5.5,3.6,7.5,6.1v3.5H56.2c-0.1,3.7,1.3,6.9,4.2,9.6c4.1,3.3,6.2,7.6,6.2,12.9
		c0,3.2-0.8,6.1-2.4,8.7C62.5,72.4,60.4,74.4,57.8,75.8z"/>

</svg>
