<?xml version="1.0" encoding="utf-8"?>
<!-- Generator: Adobe Illustrator 19.0.0, SVG Export Plug-In . SVG Version: 6.00 Build 0)  -->
<svg version="1.1" id="Q" xmlns="http://www.w3.org/2000/svg" xmlns:xlink="http://www.w3.org/1999/xlink" x="0px" y="0px"
	 viewBox="0 0 100 100" enable-background="new 0 0 100 100" xml:space="preserve">

	<path id="XMLID_19_" fill="#FFFFFF" d="M8.9,31.4c-1.6,0-3-0.6-4.1-1.7c-1.1-1.1-1.7-2.5-1.7-4.2c0-3.9,1.9-5.8,5.8-5.8
		c1.6,0,3,0.6,4.1,1.7c1.2,1.1,1.8,2.5,1.8,4.1c0,1.7-0.6,3.1-1.8,4.2C11.9,30.9,10.5,31.4,8.9,31.4z M81.4,61.4
		c0.6,1.1,0.9,2.3,0.9,3.6c0,1.9-0.6,3.6-1.9,4.9c0.1,0.3,0.2,0.7,0.2,1.1c0,1.9-0.6,3.6-1.8,4.9c0.1,0.5,0.2,1,0.2,1.5
		c0,3.5-1.5,5.6-4.4,6.5c-7.4,2.5-15.6,3.7-24.7,3.7c-9.1,0-17.3-1.2-24.7-3.7c-2.9-0.9-4.3-3-4.3-6.5c0-0.5,0.1-1,0.2-1.5
		c-1.2-1.3-1.8-3-1.8-4.9c0-0.4,0-0.8,0.1-1.1c-1.2-1.3-1.8-2.9-1.8-4.9c0-1.1,0.2-2.2,0.6-3.1L11.4,31l15.4,17.9l3.2-23l9.9,21.3
		l10-27.8L60,47.2l9.8-21.3l3.2,23L88.5,31L81.4,61.4z M28.9,25.4c-1.6,0-3-0.6-4.1-1.7c-1.1-1.1-1.7-2.5-1.7-4.2
		c0-1.5,0.6-2.9,1.7-4c1.1-1.2,2.5-1.8,4.1-1.8c1.6,0,3,0.6,4.1,1.8c1.1,1.2,1.7,2.5,1.7,4c0,1.7-0.6,3.1-1.7,4.2
		C31.9,24.9,30.5,25.4,28.9,25.4z M49.9,19.4c-1.6,0-3-0.6-4.1-1.7c-1.1-1.1-1.7-2.5-1.7-4.2c0-1.5,0.6-2.9,1.7-4
		c1.1-1.2,2.5-1.8,4.1-1.8c1.6,0,3,0.6,4.1,1.8c1.1,1.2,1.7,2.5,1.7,4c0,1.7-0.6,3.1-1.7,4.2C52.9,18.9,51.5,19.4,49.9,19.4z
		 M70.9,25.4c-1.6,0-3-0.6-4.1-1.7c-1.1-1.1-1.7-2.5-1.7-4.2c0-1.5,0.6-2.9,1.7-4c1.1-1.2,2.5-1.8,4.1-1.8c1.6,0,3,0.6,4.1,1.8
		c1.1,1.2,1.7,2.5,1.7,4c0,1.7-0.6,3.1-1.7,4.2C73.9,24.9,72.5,25.4,70.9,25.4z M90.9,31.4c-1.6,0-3-0.6-4.1-1.7
		c-1.1-1.1-1.7-2.5-1.7-4.2c0-1.6,0.6-3,1.7-4.1c1.1-1.1,2.5-1.7,4.1-1.7c1.6,0,3,0.6,4.1,1.7c1.2,1.1,1.8,2.5,1.8,4.1
		c0,1.7-0.6,3.1-1.8,4.2C93.9,30.9,92.5,31.4,90.9,31.4z"/>

	<path id="XMLID_4_" d="M8.9,31.4c-1.6,0-3-0.6-4.1-1.7c-1.1-1.1-1.7-2.5-1.7-4.2c0-3.9,1.9-5.8,5.8-5.8c1.6,0,3,0.6,4.1,1.7
		c1.2,1.1,1.8,2.5,1.8,4.1c0,1.7-0.6,3.1-1.8,4.2C11.9,30.9,10.5,31.4,8.9,31.4z M8.9,28.1c1.7,0,2.5-0.9,2.5-2.6
		c0-1.7-0.8-2.5-2.5-2.5c-1.7,0-2.5,0.8-2.5,2.5C6.4,27.3,7.2,28.1,8.9,28.1z M81.4,61.4c0.6,1.1,0.9,2.3,0.9,3.6
		c0,1.9-0.6,3.6-1.9,4.9c0.1,0.3,0.2,0.7,0.2,1.1c0,1.9-0.6,3.6-1.8,4.9c0.1,0.5,0.2,1,0.2,1.5c0,3.5-1.5,5.6-4.4,6.5
		c-7.4,2.5-15.6,3.7-24.7,3.7c-9.1,0-17.3-1.2-24.7-3.7c-2.9-0.9-4.3-3-4.3-6.5c0-0.5,0.1-1,0.2-1.5c-1.2-1.3-1.8-3-1.8-4.9
		c0-0.4,0-0.8,0.1-1.1c-1.2-1.3-1.8-2.9-1.8-4.9c0-1.1,0.2-2.2,0.6-3.1L11.4,31l15.4,17.9l3.2-23l9.9,21.3l10-27.8L60,47.2l9.8-21.3
		l3.2,23L88.5,31L81.4,61.4z M78.9,58.9l3.9-16.6l-7.1,8.5c-0.9,0.7-1.7,1.1-2.6,1.1c-1.9,0-3-0.9-3.3-2.8l-1.7-11.6l-5.5,11.7
		c-0.7,0.9-1.6,1.3-2.7,1.3c-1.1,0-2-0.5-2.7-1.4l-7.3-19.9L42.7,49c-0.7,1-1.7,1.5-2.8,1.5c-1.1,0-2-0.4-2.7-1.2l-5.5-11.8L30.1,49
		c-0.4,1.9-1.5,2.9-3.4,2.9c-0.9,0-1.8-0.4-2.5-1.1L17,42.3l4,16.6c8.2-2.6,17.8-3.9,28.9-3.9C61,55,70.7,56.3,78.9,58.9z
		 M75.8,79.1c0.2-0.5,0.3-1.1,0.3-1.7c0-1.5-0.6-2.6-1.8-3.2c0.3,0.1,0.5,0.1,0.6,0.1c1.9,0,2.9-1.1,2.9-3.3c0-1.1-0.4-2-1.2-2.6
		c1.9-0.1,2.9-1.2,2.9-3.4c0-1.6-0.7-2.7-2-3.2c-7.5-2.3-16.7-3.5-27.4-3.5c-10.8,0-20,1.2-27.7,3.6c-1.3,0.4-2,1.4-2,3.1
		c0,2.2,0.9,3.3,2.8,3.4c-0.7,0.7-1.1,1.5-1.1,2.6c0,2.2,0.9,3.3,2.8,3.3c0.1,0,0.2,0,0.3,0c0.1,0,0.3,0,0.4,0
		c-1.3,0.5-1.9,1.6-1.9,3.1c0,0.6,0.1,1.2,0.4,1.7c3.6-1,7.6-1.9,12-2.6c4.4-0.7,9-1.1,13.8-1.1c4.9,0,9.5,0.4,13.9,1.2
		C68.2,77.4,72.2,78.2,75.8,79.1z M28.9,25.4c-1.6,0-3-0.6-4.1-1.7c-1.1-1.1-1.7-2.5-1.7-4.2c0-1.5,0.6-2.9,1.7-4
		c1.1-1.2,2.5-1.8,4.1-1.8c1.6,0,3,0.6,4.1,1.8c1.1,1.2,1.7,2.5,1.7,4c0,1.7-0.6,3.1-1.7,4.2C31.9,24.9,30.5,25.4,28.9,25.4z
		 M28.9,22.1c1.7,0,2.6-0.9,2.6-2.6c0-1.7-0.9-2.5-2.6-2.5c-1.7,0-2.5,0.8-2.5,2.5C26.4,21.3,27.2,22.1,28.9,22.1z M72.2,81.3
		c-3.2-0.6-6.7-1.2-10.5-1.8C58,79,54,78.7,49.9,78.7c-4.1,0-8.1,0.3-11.9,0.9s-7.3,1.1-10.4,1.8c6.6,1.9,14,2.8,22.3,2.8
		C58.2,84.1,65.6,83.2,72.2,81.3z M49.9,19.4c-1.6,0-3-0.6-4.1-1.7c-1.1-1.1-1.7-2.5-1.7-4.2c0-1.5,0.6-2.9,1.7-4
		c1.1-1.2,2.5-1.8,4.1-1.8c1.6,0,3,0.6,4.1,1.8c1.1,1.2,1.7,2.5,1.7,4c0,1.7-0.6,3.1-1.7,4.2C52.9,18.9,51.5,19.4,49.9,19.4z
		 M49.9,16.1c1.7,0,2.6-0.9,2.6-2.6c0-1.7-0.9-2.5-2.6-2.5c-1.7,0-2.5,0.8-2.5,2.5C47.4,15.3,48.2,16.1,49.9,16.1z M70.9,25.4
		c-1.6,0-3-0.6-4.1-1.7c-1.1-1.1-1.7-2.5-1.7-4.2c0-1.5,0.6-2.9,1.7-4c1.1-1.2,2.5-1.8,4.1-1.8c1.6,0,3,0.6,4.1,1.8
		c1.1,1.2,1.7,2.5,1.7,4c0,1.7-0.6,3.1-1.7,4.2C73.9,24.9,72.5,25.4,70.9,25.4z M70.9,22.1c1.7,0,2.6-0.9,2.6-2.6
		c0-1.7-0.9-2.5-2.6-2.5c-1.7,0-2.5,0.8-2.5,2.5C68.4,21.3,69.2,22.1,70.9,22.1z M90.9,31.4c-1.6,0-3-0.6-4.1-1.7
		c-1.1-1.1-1.7-2.5-1.7-4.2c0-1.6,0.6-3,1.7-4.1c1.1-1.1,2.5-1.7,4.1-1.7c1.6,0,3,0.6,4.1,1.7c1.2,1.1,1.8,2.5,1.8,4.1
		c0,1.7-0.6,3.1-1.8,4.2C93.9,30.9,92.5,31.4,90.9,31.4z M90.9,28.1c1.7,0,2.5-0.9,2.5-2.6c0-1.7-0.8-2.5-2.5-2.5
		c-1.7,0-2.5,0.8-2.5,2.5C88.4,27.3,89.2,28.1,90.9,28.1z"/>

</svg>
