<?xml version="1.0" encoding="utf-8"?>
<!-- Generator: Adobe Illustrator 19.0.0, SVG Export Plug-In . SVG Version: 6.00 Build 0)  -->
<svg version="1.1" id="R" xmlns="http://www.w3.org/2000/svg" xmlns:xlink="http://www.w3.org/1999/xlink" x="0px" y="0px"
	 viewBox="0 0 100 100" enable-background="new 0 0 100 100" xml:space="preserve">

	<path id="XMLID_9_" fill="#FFFFFF" d="M65.8,26.1l3.3,35c1.6,0,3,0.6,4.2,1.7c1.2,1.1,1.8,2.5,1.8,4.1c0,1.7-0.7,3.2-2,4.4
		c2.5,1.9,3.7,4.4,3.7,7.4v9.1H23.2v-9.1c0-3.1,1.2-5.5,3.7-7.4c-1.3-1.1-1.9-2.6-1.9-4.4c0-1.6,0.6-3,1.7-4.1
		c1.1-1.1,2.5-1.7,4.1-1.7l3.3-35l-8.3-5V7.7h10v5h8.3v-5h11.7v5h8.3v-5h10.1v13.4L65.8,26.1z"/>

	<path id="XMLID_4_" d="M65.8,26.1l3.3,35c1.6,0,3,0.6,4.2,1.7c1.2,1.1,1.8,2.5,1.8,4.1c0,1.7-0.7,3.2-2,4.4
		c2.5,1.9,3.7,4.4,3.7,7.4v9.1H23.2v-9.1c0-3.1,1.2-5.5,3.7-7.4c-1.3-1.1-1.9-2.6-1.9-4.4c0-1.6,0.6-3,1.7-4.1
		c1.1-1.1,2.5-1.7,4.1-1.7l3.3-35l-8.3-5V7.7h10v5h8.3v-5h11.7v5h8.3v-5h10.1v13.4L65.8,26.1z M73.2,78.6c0-1.5-0.6-2.9-1.7-4
		c-1.1-1.2-2.5-1.8-4.1-1.8H32.5c-1.6,0-3,0.6-4.1,1.8c-1.1,1.2-1.7,2.5-1.7,4v0.1v5.8h46.5V78.6z M62.4,26.1h-25l-3.9,38.3h-2.7
		c-1.7,0-2.5,0.8-2.5,2.5c0,1.7,0.8,2.6,2.5,2.6h38.3c1.7,0,2.5-0.9,2.5-2.6c0-1.7-0.8-2.5-2.5-2.5h-2.6L62.4,26.1z M50,22.8h14.9
		l5.9-3.5V11h-3.3v5.1H52.4V11H50h-2.6v5.1h-15V11h-3.3v8.3l5.8,3.5H50z"/>

</svg>
