<?xml version="1.0" encoding="utf-8"?>
<!-- Generator: Adobe Illustrator 19.0.0, SVG Export Plug-In . SVG Version: 6.00 Build 0)  -->
<svg version="1.1" id="B" xmlns="http://www.w3.org/2000/svg" xmlns:xlink="http://www.w3.org/1999/xlink" x="0px" y="0px"
	 viewBox="0 0 100 100" enable-background="new 0 0 100 100" xml:space="preserve">

	<path id="XMLID_13_" fill="#FFFFFF" d="M20.6,87.7c1.8-2.4,4.3-4.6,7.6-6.5c1.6-0.9,3.3-1.7,5.1-2.3c3.8-1.7,5.7-3.8,5.7-6.5
		c0-2.5-1.6-4.6-4.9-6.2c-1.4-0.8-2.8-1.7-4.1-2.8l-3.7,4.2L8.1,46.4l18.2-21.2l2,2.3c1.9-2.1,4.2-4,6.9-5.5c6.3-3.7,13-4.7,19.9-3
		c6.9,1.6,12.1,5.5,15.6,11.5c3.4,5.9,4.1,12.3,2,19.2c-2,6.9-6.2,12.1-12.5,15.7l-0.5,0.3c-1.8,1.5-2.7,3.1-2.7,4.8
		c0,2.8,2.1,5.1,6.4,6.9c3.6,1.4,6.2,3.4,7.7,5.9c-0.9,0.4-2,0.8-3.1,1.2c-0.4,0.1-0.7,0.2-1,0.2c-6.6,1.8-12.1,1.3-16.6-1.4
		c-2.7,1.3-5.4,2.3-8.1,3c-4.1,1.1-8,1.6-11.8,1.5C26.8,87.8,23.5,87.7,20.6,87.7z M70.8,54.7l1.4-3l2.6,1.3
		c1.9-3.7,2.8-7.5,2.8-11.5c0-7.5-3.1-14-9.3-19.4S54.7,14,46,14c-3.4,0-6.8,0.5-10.2,1.4l2.3,5.1l-3,1.4l-2.4-5.4
		c-1,0.4-2.1,0.9-3.4,1.6c-1.3,0.7-2.6,1.1-4,1.1c-2.3,0-4.3-0.8-5.9-2.4c-1.6-1.6-2.5-3.6-2.5-5.9c0-2.3,0.8-4.2,2.5-5.9
		C21,3.4,23,2.5,25.3,2.5c1.9,0,3.6,0.6,5.1,1.8c1.5-0.9,3.3-1.6,5.2-2c3.1-0.5,5.7-0.1,7.9,1.1c2-1.1,4.3-1.5,7-1.3
		c3.3,0.3,5.8,1.4,7.6,3.2c2.1-0.5,4.4-0.3,6.9,0.6c3.1,1.2,5.3,3,6.6,5.4c2.4,0.2,4.7,1.4,7,3.5c2.1,2.2,3.3,4.5,3.7,7
		c2.3,1.2,4,3.4,5.1,6.5c1.2,3.1,1.3,6,0.2,8.5c1,6.3,0.2,12.5-2.5,18.6c0.5-0.1,0.8-0.1,1-0.1c1.9,0,3.4,0.6,4.7,1.9
		c1.3,1.3,1.9,2.8,1.9,4.7c0,0.5-0.1,1.1-0.2,1.6c-0.6,2.7-1.8,5-3.6,6.7c-1.8,1.7-3.8,2.6-6.1,2.6c-2.7,0-5.1-1.2-7-3.7
		c-2-2.4-3-5.4-3-8.8c0-1.5,0.2-3,0.6-4.3L70.8,54.7z M86.1,58.5c-2.1,0-3.2,1.1-3.2,3.4c0,2.2,1.1,3.3,3.2,3.3
		c2.2,0,3.3-1.1,3.3-3.3C89.4,59.7,88.3,58.5,86.1,58.5z"/>

	<path id="XMLID_4_" d="M20.6,87.7c1.8-2.4,4.3-4.6,7.6-6.5c1.6-0.9,3.3-1.7,5.1-2.3c3.8-1.7,5.7-3.8,5.7-6.5c0-2.5-1.6-4.6-4.9-6.2
		c-1.4-0.8-2.8-1.7-4.1-2.8l-3.7,4.2L8.1,46.4l18.2-21.2l2,2.3c1.9-2.1,4.2-4,6.9-5.5c6.3-3.7,13-4.7,19.9-3
		c6.9,1.6,12.1,5.5,15.6,11.5c3.4,5.9,4.1,12.3,2,19.2c-2,6.9-6.2,12.1-12.5,15.7l-0.5,0.3c-1.8,1.5-2.7,3.1-2.7,4.8
		c0,2.8,2.1,5.1,6.4,6.9c3.6,1.4,6.2,3.4,7.7,5.9c-0.9,0.4-2,0.8-3.1,1.2c-0.4,0.1-0.7,0.2-1,0.2c-6.6,1.8-12.1,1.3-16.6-1.4
		c-2.7,1.3-5.4,2.3-8.1,3c-4.1,1.1-8,1.6-11.8,1.5C26.8,87.8,23.5,87.7,20.6,87.7z M36.4,50.9c-1.2-1.4-1.8-3-1.8-4.7
		c0-1.7,0.6-3.3,1.8-4.6L26.5,30L12.6,46.3l13.8,16.2L36.4,50.9z M70.8,54.7l1.4-3l2.6,1.3c1.9-3.7,2.8-7.5,2.8-11.5
		c0-7.5-3.1-14-9.3-19.4S54.7,14,46,14c-3.4,0-6.8,0.5-10.2,1.4l2.3,5.1l-3,1.4l-2.4-5.4c-1,0.4-2.1,0.9-3.4,1.6
		c-1.3,0.7-2.6,1.1-4,1.1c-2.3,0-4.3-0.8-5.9-2.4c-1.6-1.6-2.5-3.6-2.5-5.9c0-2.3,0.8-4.2,2.5-5.9C21,3.4,23,2.5,25.3,2.5
		c1.9,0,3.6,0.6,5.1,1.8c1.5-0.9,3.3-1.6,5.2-2c3.1-0.5,5.7-0.1,7.9,1.1c2-1.1,4.3-1.5,7-1.3c3.3,0.3,5.8,1.4,7.6,3.2
		c2.1-0.5,4.4-0.3,6.9,0.6c3.1,1.2,5.3,3,6.6,5.4c2.4,0.2,4.7,1.4,7,3.5c2.1,2.2,3.3,4.5,3.7,7c2.3,1.2,4,3.4,5.1,6.5
		c1.2,3.1,1.3,6,0.2,8.5c1,6.3,0.2,12.5-2.5,18.6c0.5-0.1,0.8-0.1,1-0.1c1.9,0,3.4,0.6,4.7,1.9c1.3,1.3,1.9,2.8,1.9,4.7
		c0,0.5-0.1,1.1-0.2,1.6c-0.6,2.7-1.8,5-3.6,6.7c-1.8,1.7-3.8,2.6-6.1,2.6c-2.7,0-5.1-1.2-7-3.7c-2-2.4-3-5.4-3-8.8
		c0-1.5,0.2-3,0.6-4.3L70.8,54.7z M22.5,46.2l4.2,4.6l-2.2,2.4l-6.2-7l6.3-7l2.1,2.3L22.5,46.2z M33.1,12.8
		c4.1-1.5,8.4-2.2,12.9-2.2c9.6,0,17.8,3,24.7,9.1C77.6,25.8,81,33.1,81,41.5c0,5-1.3,9.7-4,14.2c-0.6,1.5-0.9,3-0.9,4.6
		c0,2.6,0.7,4.8,2,6.5c1.3,1.8,2.9,2.6,4.8,2.6c1.1,0,2.1-0.3,3.2-1c-1.8,0-3.3-0.6-4.6-1.9c-1.3-1.3-2-2.9-2-4.7
		c0-0.3,0.1-0.7,0.2-1c0.1-0.8,0.2-1.6,0.4-2.4c0.2-0.8,0.5-1.7,1-2.7c3.3-6.3,4.4-12.7,3.3-19.4c0.9-1.8,0.9-4.1-0.1-7
		c-0.6-1.7-1.4-3-2.5-4.1c-1.1-1-2.1-1.4-3.1-1c0.6-0.7,0.6-1.7,0.1-3.1s-1.4-2.7-2.6-4c-1.3-1.3-2.6-2.1-4-2.6
		c-1.4-0.5-2.5-0.5-3.2,0.1c0.3-1-0.1-2-1.1-3.1c-1-1.1-2.4-1.9-4.1-2.6c-3.3-1.2-5.7-1.1-7.1,0.3c0-0.9-0.6-1.7-1.9-2.5
		c-1.2-0.8-2.8-1.3-4.5-1.4c-4-0.3-6.3,0.5-6.9,2.4c-0.2-0.9-1-1.6-2.4-2s-3-0.5-4.8-0.2c-1.9,0.3-3.4,0.9-4.5,1.8
		C30.5,8.3,30,9.2,30.2,10c-0.6-2.7-2.2-4.1-4.9-4.1c-3.3,0-5,1.7-5,5c0,3.3,1.7,5,5,5c0.8,0,1.6-0.2,2.4-0.7
		c-1.9-0.5-3.3-1.5-4.1-2.9c-0.4-0.7-0.4-1.2,0-1.3c0.3-0.2,0.6,0.1,1,0.8c1.2,1.5,3.5,2,6.8,1.3C32.1,13.1,32.6,13,33.1,12.8z
		 M65,81.7c-0.8-0.5-1.8-1-3-1.5c-5.5-2.4-8.3-5.7-8.3-9.8c0-3.1,1.7-5.8,5-8.1c5.5-3.2,9.1-7.8,10.9-13.7
		c1.8-5.9,1.2-11.5-1.7-16.6c-3.1-5.1-7.6-8.4-13.7-9.8c-6.1-1.4-11.9-0.5-17.4,2.6c-2.5,1.5-4.6,3.2-6.3,5.3l8.3,9.7
		c0.9-0.5,1.8-0.7,2.9-0.7c2,0,3.7,0.7,5.1,2.1c1.4,1.4,2.1,3.1,2.1,5c0,2-0.7,3.7-2.1,5.1c-1.4,1.4-3.1,2.1-5.1,2.1
		c-0.9,0-1.8-0.2-2.6-0.6l-7,8.1c0.9,0.7,2,1.5,3.5,2.4c4.5,2.4,6.7,5.4,6.7,9.1c0,4.3-3,7.7-8.9,10c-1.3,0.5-2.5,1-3.6,1.7
		c-0.5,0.3-0.9,0.6-1.1,0.7c3.8,0.1,8.1-0.5,12.8-1.8c3.2-0.9,6.3-2,9.3-3.5C53.8,82.4,58.5,83.1,65,81.7z M41.7,42.5
		c-2.5,0-3.7,1.2-3.7,3.7c0,2.5,1.2,3.7,3.7,3.7c2.5,0,3.8-1.2,3.8-3.7C45.5,43.8,44.2,42.5,41.7,42.5z M86.1,58.5
		c-2.1,0-3.2,1.1-3.2,3.4c0,2.2,1.1,3.3,3.2,3.3c2.2,0,3.3-1.1,3.3-3.3C89.4,59.7,88.3,58.5,86.1,58.5z"/>

</svg>
