<?xml version="1.0" encoding="utf-8"?>
<!-- Generator: Adobe Illustrator 19.0.0, SVG Export Plug-In . SVG Version: 6.00 Build 0)  -->
<svg version="1.1" id="P" xmlns="http://www.w3.org/2000/svg" xmlns:xlink="http://www.w3.org/1999/xlink" x="0px" y="0px"
	 viewBox="0 0 100 100" enable-background="new 0 0 100 100" xml:space="preserve">

	<path id="XMLID_10_" fill="#FFFFFF" d="M57.8,75.8c4.7,1.8,8.4,4.7,11.2,8.6v3.3H31v-3.3c2.8-4.1,6.5-6.9,11.2-8.6
		c-2.7-1.3-4.8-3.3-6.5-6c-1.6-2.6-2.5-5.5-2.5-8.8c0-5.3,2.1-9.7,6.3-13c2.7-2.6,4.1-5.8,4.1-9.5h-12v-3.4c2.1-2.6,4.7-4.7,7.6-6.2
		c2.2-1.2,4-3,5.3-5.3c-1.4-1.5-2.1-3.2-2.1-5.2c0-2.1,0.7-3.8,2.2-5.3c1.5-1.5,3.2-2.2,5.3-2.2c2.1,0,3.8,0.7,5.3,2.2
		c1.4,1.5,2.2,3.2,2.2,5.3c0,1.9-0.7,3.7-2,5.2c1.3,2.3,3.1,4,5.4,5.3c3,1.6,5.5,3.6,7.5,6.1v3.5H56.2c-0.1,3.7,1.3,6.9,4.2,9.6
		c4.1,3.3,6.2,7.6,6.2,12.9c0,3.2-0.8,6.1-2.4,8.7C62.5,72.4,60.4,74.4,57.8,75.8z"/>

	<path id="XMLID_4_" d="M57.8,75.8c4.7,1.8,8.4,4.7,11.2,8.6v3.3H31v-3.3c2.8-4.1,6.5-6.9,11.2-8.6c-2.7-1.3-4.8-3.3-6.5-6
		c-1.6-2.6-2.5-5.5-2.5-8.8c0-5.3,2.1-9.7,6.3-13c2.7-2.6,4.1-5.8,4.1-9.5h-12v-3.4c2.1-2.6,4.7-4.7,7.6-6.2c2.2-1.2,4-3,5.3-5.3
		c-1.4-1.5-2.1-3.2-2.1-5.2c0-2.1,0.7-3.8,2.2-5.3c1.5-1.5,3.2-2.2,5.3-2.2c2.1,0,3.8,0.7,5.3,2.2c1.4,1.5,2.2,3.2,2.2,5.3
		c0,1.9-0.7,3.7-2,5.2c1.3,2.3,3.1,4,5.4,5.3c3,1.6,5.5,3.6,7.5,6.1v3.5H56.2c-0.1,3.7,1.3,6.9,4.2,9.6c4.1,3.3,6.2,7.6,6.2,12.9
		c0,3.2-0.8,6.1-2.4,8.7C62.5,72.4,60.4,74.4,57.8,75.8z M64.8,84.4c-3.9-4.5-8.9-6.7-14.8-6.7c-5.9,0-10.9,2.2-14.8,6.7H64.8z
		 M52.6,25.5c-1,0.3-1.9,0.4-2.6,0.4c-0.9,0-1.8-0.1-2.6-0.4c-1.6,2.7-3.8,4.9-6.6,6.4c-1.8,0.9-3.3,2-4.6,3.3h27.6
		c-1.3-1.3-2.9-2.4-4.6-3.3C56.4,30.5,54.2,28.3,52.6,25.5z M52.9,38.6h-5.8c0,4.7-1.8,8.7-5.4,12c-3.4,2.7-5.1,6.2-5.1,10.5
		c0,3.7,1.3,6.8,3.9,9.5c2.6,2.6,5.8,3.9,9.5,3.9c3.7,0,6.8-1.3,9.4-3.9c2.6-2.6,3.9-5.8,3.9-9.5c0-4.3-1.7-7.8-5.1-10.5
		C54.7,47.4,52.9,43.4,52.9,38.6z M50,14.3c-2.8,0-4.2,1.4-4.2,4.2c0,2.8,1.4,4.2,4.2,4.2c2.7,0,4.1-1.4,4.1-4.2
		C54.1,15.7,52.7,14.3,50,14.3z"/>

</svg>
