<?xml version="1.0" encoding="utf-8"?>
<!-- Generator: Adobe Illustrator 19.0.0, SVG Export Plug-In . SVG Version: 6.00 Build 0)  -->
<svg version="1.1" id="k" xmlns="http://www.w3.org/2000/svg" xmlns:xlink="http://www.w3.org/1999/xlink" x="0px" y="0px"
	 viewBox="0 0 100 100" enable-background="new 0 0 100 100" xml:space="preserve">

	<path id="XMLID_18_" fill="#FFFFFF" d="M83.7,60.4c1.3,1.3,2,2.9,2,4.8c0,2-0.7,3.6-2,4.9c0.1,0.3,0.1,0.7,0.1,1.1
		c0,1.9-0.6,3.6-1.9,4.9c0.1,0.5,0.2,1,0.2,1.5c0,3.5-1.6,5.6-4.9,6.5c-8,2.5-17.1,3.7-27.3,3.7c-10.2,0-19.3-1.2-27.3-3.7
		c-3.2-0.9-4.8-3-4.8-6.5c0-0.5,0.1-1,0.2-1.5c-1.3-1.3-2-3-2-4.9c0-0.4,0.1-0.8,0.2-1.1c-1.4-1.3-2.1-2.9-2.1-4.9
		c0-1.9,0.7-3.5,2.1-4.8c-0.6-0.6-1.2-1.4-1.7-2.3c-2.8-3.9-4.6-7.9-5.5-12C8,42,8.1,38.5,9.2,35.5c1.7-4.1,4.2-7.2,7.6-9.1
		c3.3-1.9,7.1-2.7,11.2-2.2c4.1,0.5,8.1,2.1,12,4.7c3.7,2.5,7.1,6.1,10,10.7c2.9-4.6,6.2-8.2,10-10.7c3.9-2.6,7.9-4.2,12-4.7
		c4.1-0.5,7.8,0.2,11.1,2.2c3.5,1.9,6,5,7.7,9.1c1,2.9,1,6.5,0.2,10.6c-0.9,4.1-2.7,8.1-5.5,12C84.9,59.1,84.3,59.8,83.7,60.4z
		 M50,34.3c-2.5,0-4.7-0.9-6.5-2.7c-1.8-1.8-2.6-4-2.6-6.5c0-2.5,0.9-4.6,2.6-6.4c1.8-1.8,3.9-2.7,6.5-2.7c2.5,0,4.7,0.9,6.5,2.7
		s2.7,3.9,2.7,6.4c0,2.5-0.9,4.7-2.7,6.5C54.7,33.4,52.5,34.3,50,34.3z M52.5,16.2c-0.9-0.3-1.7-0.4-2.5-0.4s-1.7,0.1-2.7,0.4l1.1-6
		l-4.5,1.6v-6l4.5,1.5l-1.5-4.5h6l-1.5,4.5l4.5-1.5v6l-4.5-1.6L52.5,16.2z"/>

	<path id="XMLID_4_" d="M83.7,60.4c1.3,1.3,2,2.9,2,4.8c0,2-0.7,3.6-2,4.9c0.1,0.3,0.1,0.7,0.1,1.1c0,1.9-0.6,3.6-1.9,4.9
		c0.1,0.5,0.2,1,0.2,1.5c0,3.5-1.6,5.6-4.9,6.5c-8,2.5-17.1,3.7-27.3,3.7c-10.2,0-19.3-1.2-27.3-3.7c-3.2-0.9-4.8-3-4.8-6.5
		c0-0.5,0.1-1,0.2-1.5c-1.3-1.3-2-3-2-4.9c0-0.4,0.1-0.8,0.2-1.1c-1.4-1.3-2.1-2.9-2.1-4.9c0-1.9,0.7-3.5,2.1-4.8
		c-0.6-0.6-1.2-1.4-1.7-2.3c-2.8-3.9-4.6-7.9-5.5-12C8,42,8.1,38.5,9.2,35.5c1.7-4.1,4.2-7.2,7.6-9.1c3.3-1.9,7.1-2.7,11.2-2.2
		c4.1,0.5,8.1,2.1,12,4.7c3.7,2.5,7.1,6.1,10,10.7c2.9-4.6,6.2-8.2,10-10.7c3.9-2.6,7.9-4.2,12-4.7c4.1-0.5,7.8,0.2,11.1,2.2
		c3.5,1.9,6,5,7.7,9.1c1,2.9,1,6.5,0.2,10.6c-0.9,4.1-2.7,8.1-5.5,12C84.9,59.1,84.3,59.8,83.7,60.4z M47.6,52.5
		c-0.1-1.3-0.3-2.5-0.6-3.6c-0.8-2.7-1.9-4.9-3.2-6.6c-1.3-1.6-2.7-3.2-4.2-4.8c-2.7-2.4-5.5-4.2-8.4-5.4c-3-1.2-5.7-1.3-8.2-0.4
		c-1.3,0.6-2.6,1.3-3.7,2.2c-1.1,0.9-2.1,2.3-3,4.2c-0.9,1.9-1,4.4-0.5,7.6c0.5,3.2,1.9,6.6,4.1,10.2c0.5-0.1,1-0.3,1.6-0.4
		c0.6-0.2,1.2-0.3,1.8-0.4c-3.3-9.7-2.6-15.5,1.9-17.6c2.7-1.3,5.5-0.6,8.6,2c3.1,2.6,5.6,5.4,7.5,8.5c0.4,0.6,1.2,2.1,2.3,4.6
		c0.7,0,1.3,0,2,0C46.3,52.7,46.9,52.6,47.6,52.5z M20.1,73.5l2.6,0.5l5.3-4.5l-6.8-1.2l-1.6,1.3c-0.3,0.5-0.4,1-0.4,1.6
		C19.2,72.2,19.5,72.9,20.1,73.5z M70.4,56.5c0.3-0.9,0.3-1.9-0.1-3c-0.4-1.2-0.3-2.1,0.2-2.9c0.4-0.5,0.9-0.1,1.5,0.9
		c0.6,1.1,1.2,1.5,1.8,1.2c0.7-0.4,1.1-1.1,1.4-2.1c0.3-1,0.2-1.8-0.2-2.5c-0.3-0.5-1-0.5-2,0.2c-1,0.6-1.6,0.6-1.8,0
		c-0.3-0.5,0-1,1-1.5c1-0.5,1.3-1.1,1-1.6c-1.1-1.9-2.7-2.3-4.6-1.3c-0.5,0.3-0.5,1,0.2,1.9c0.6,1,0.7,1.6,0.2,2
		c-0.6,0.3-1.2-0.1-1.7-1.1s-1-1.4-1.5-1.1c-0.7,0.4-1.1,1.1-1.4,2.1c-0.3,1-0.2,1.8,0.1,2.5c0.3,0.6,1,0.6,2.1-0.1
		c1.1-0.7,1.6-0.7,1.7-0.1c0.2,1.1-0.3,2.1-1.5,3c-1.2,0.9-1.6,1.9-1.3,3c-4.9-0.6-10-0.9-15.5-0.9c-5.6,0-10.8,0.3-15.7,0.9
		c0.2-1.1-0.3-2-1.5-3c-1.2-0.9-1.7-2-1.5-3.1c0.1-0.5,0.7-0.5,1.8,0.1c1.1,0.6,1.7,0.7,2,0.1c0.4-0.7,0.5-1.5,0.2-2.5
		c-0.3-1-0.7-1.7-1.4-2.1c-0.6-0.3-1.1,0.1-1.6,1.1c-0.5,1-1,1.3-1.6,1c-0.5-0.3-0.5-1,0.2-1.9c0.6-0.9,0.7-1.6,0.2-1.9
		c-0.7-0.4-1.6-0.5-2.6-0.2c-1,0.3-1.7,0.8-2,1.5c-0.3,0.5,0,1,1,1.5c1,0.5,1.3,1.1,1,1.6c-0.3,0.5-1,0.5-1.9-0.1
		c-1-0.6-1.6-0.6-1.9-0.1c-0.4,0.7-0.5,1.5-0.2,2.5c0.3,1,0.7,1.7,1.4,2.1c0.5,0.3,1.1,0,1.8-1.2c0.6-1.1,1.1-1.4,1.5-0.9
		c0.6,0.7,0.7,1.7,0.3,2.9c-0.4,1.2-0.4,2.2-0.1,3.1C28,56.7,27,57,25.9,57.2c-1.1,0.2-2.1,0.5-3,0.7c-1.7,0.5-2.4,1.3-2.1,2.4
		c0.3,1.1,1.2,1.4,2.9,1c7.7-1.8,16.6-2.7,26.5-2.7c9.6,0,18.3,0.9,26.1,2.6c1.5,0.5,2.4,0.2,2.7-0.9c0.3-1.1-0.4-1.9-2-2.4
		C74.7,57.4,72.5,56.9,70.4,56.5z M74.5,81.8l4-2.5C70,77.1,60.5,76,49.9,76c-10.5,0-20,1.1-28.5,3.3l3.9,2.5
		c7.2-1.5,15.4-2.2,24.6-2.2C59,79.6,67.2,80.4,74.5,81.8z M34.9,71.7c1.7,0,2.6-0.9,2.6-2.6c0-1.7-0.9-2.6-2.6-2.6
		c-1.7,0-2.6,0.9-2.6,2.6C32.3,70.9,33.2,71.7,34.9,71.7z M50,34.3c-2.5,0-4.7-0.9-6.5-2.7c-1.8-1.8-2.6-4-2.6-6.5
		c0-2.5,0.9-4.6,2.6-6.4c1.8-1.8,3.9-2.7,6.5-2.7c2.5,0,4.7,0.9,6.5,2.7s2.7,3.9,2.7,6.4c0,2.5-0.9,4.7-2.7,6.5
		C54.7,33.4,52.5,34.3,50,34.3z M49.9,65.2l-6.2,2.9l6.2,2.9l6.3-2.9L49.9,65.2z M52.5,16.2c-0.9-0.3-1.7-0.4-2.5-0.4
		s-1.7,0.1-2.7,0.4l1.1-6l-4.5,1.6v-6l4.5,1.5l-1.5-4.5h6l-1.5,4.5l4.5-1.5v6l-4.5-1.6L52.5,16.2z M49.9,22.4
		c-1.8,0-2.7,0.9-2.7,2.7c0,1.9,0.9,2.8,2.7,2.8c1.9,0,2.8-0.9,2.8-2.8C52.7,23.3,51.8,22.4,49.9,22.4z M52.1,52.5
		c1.3,0,2.7,0.1,4.1,0.2c1.1-2.5,1.9-4,2.3-4.6c1.9-3.1,4.4-6,7.5-8.5c3-2.6,5.9-3.2,8.6-2c4.4,2.1,5,7.9,1.9,17.5
		c0.9,0.2,2.1,0.5,3.4,0.9c2.3-3.6,3.6-7,4.1-10.2c0.5-3.2,0.3-5.7-0.5-7.6c-0.9-2-1.9-3.4-3-4.3c-1.2-0.8-2.4-1.5-3.8-2.1
		c-2.5-0.9-5.2-0.8-8.2,0.4c-3,1.2-5.8,3-8.5,5.3c-1.5,1.6-2.8,3.2-4.1,4.9c-1.3,1.6-2.4,3.8-3.2,6.6C52.5,50,52.2,51.2,52.1,52.5z
		 M64.9,71.7c1.8,0,2.7-0.9,2.7-2.6c0-1.7-0.9-2.6-2.7-2.6c-1.7,0-2.6,0.9-2.6,2.6C62.3,70.9,63.2,71.7,64.9,71.7z M79.8,73.5
		c0.6-0.6,0.9-1.4,0.9-2.3c0-0.5-0.1-1-0.3-1.5l-1.7-1.4l-6.8,1.2l5.3,4.5L79.8,73.5z"/>

</svg>
