<?xml version="1.0" encoding="utf-8"?>
<!-- Generator: Adobe Illustrator 19.0.0, SVG Export Plug-In . SVG Version: 6.00 Build 0)  -->
<svg version="1.1" id="q" xmlns="http://www.w3.org/2000/svg" xmlns:xlink="http://www.w3.org/1999/xlink" x="0px" y="0px"
	 viewBox="0 0 100 100" enable-background="new 0 0 100 100" xml:space="preserve">

	<path id="XMLID_23_" fill="#FFFFFF" d="M8.9,31.4c-1.6,0-3-0.6-4.1-1.7c-1.1-1.1-1.7-2.5-1.7-4.2c0-3.9,1.9-5.8,5.8-5.8
		c1.6,0,3,0.6,4.1,1.7c1.2,1.1,1.8,2.5,1.8,4.1c0,1.7-0.6,3.1-1.8,4.2C11.9,30.9,10.5,31.4,8.9,31.4z M81.4,61.4
		c0.6,1.1,0.9,2.3,0.9,3.6c0,1.9-0.6,3.6-1.9,4.9c0.1,0.3,0.2,0.7,0.2,1.1c0,1.9-0.6,3.6-1.8,4.9c0.1,0.5,0.2,1,0.2,1.5
		c0,3.5-1.5,5.6-4.4,6.5c-7.4,2.5-15.6,3.7-24.7,3.7c-9.1,0-17.3-1.2-24.7-3.7c-2.9-0.9-4.3-3-4.3-6.5c0-0.5,0.1-1,0.2-1.5
		c-1.2-1.3-1.8-3-1.8-4.9c0-0.4,0-0.8,0.1-1.1c-1.2-1.3-1.8-2.9-1.8-4.9c0-1.1,0.2-2.2,0.6-3.1L11.4,31l15.4,17.9l3.2-23l9.9,21.3
		l10-27.8L60,47.2l9.8-21.3l3.2,23L88.5,31L81.4,61.4z M28.9,25.4c-1.6,0-3-0.6-4.1-1.7c-1.1-1.1-1.7-2.5-1.7-4.2
		c0-1.5,0.6-2.9,1.7-4c1.1-1.2,2.5-1.8,4.1-1.8c1.6,0,3,0.6,4.1,1.8c1.1,1.2,1.7,2.5,1.7,4c0,1.7-0.6,3.1-1.7,4.2
		C31.9,24.9,30.5,25.4,28.9,25.4z M49.9,19.4c-1.6,0-3-0.6-4.1-1.7c-1.1-1.1-1.7-2.5-1.7-4.2c0-1.5,0.6-2.9,1.7-4
		c1.1-1.2,2.5-1.8,4.1-1.8c1.6,0,3,0.6,4.1,1.8c1.1,1.2,1.7,2.5,1.7,4c0,1.7-0.6,3.1-1.7,4.2C52.9,18.9,51.5,19.4,49.9,19.4z
		 M70.9,25.4c-1.6,0-3-0.6-4.1-1.7c-1.1-1.1-1.7-2.5-1.7-4.2c0-1.5,0.6-2.9,1.7-4c1.1-1.2,2.5-1.8,4.1-1.8c1.6,0,3,0.6,4.1,1.8
		c1.1,1.2,1.7,2.5,1.7,4c0,1.7-0.6,3.1-1.7,4.2C73.9,24.9,72.5,25.4,70.9,25.4z M90.9,31.4c-1.6,0-3-0.6-4.1-1.7
		c-1.1-1.1-1.7-2.5-1.7-4.2c0-1.6,0.6-3,1.7-4.1c1.1-1.1,2.5-1.7,4.1-1.7c1.6,0,3,0.6,4.1,1.7c1.2,1.1,1.8,2.5,1.8,4.1
		c0,1.7-0.6,3.1-1.8,4.2C93.9,30.9,92.5,31.4,90.9,31.4z"/>

	<path id="XMLID_4_" d="M8.9,31.4c-1.6,0-3-0.6-4.1-1.7c-1.1-1.1-1.7-2.5-1.7-4.2c0-3.9,1.9-5.8,5.8-5.8c1.6,0,3,0.6,4.1,1.7
		c1.2,1.1,1.8,2.5,1.8,4.1c0,1.7-0.6,3.1-1.8,4.2C11.9,30.9,10.5,31.4,8.9,31.4z M81.4,61.4c0.6,1.1,0.9,2.3,0.9,3.6
		c0,1.9-0.6,3.6-1.9,4.9c0.1,0.3,0.2,0.7,0.2,1.1c0,1.9-0.6,3.6-1.8,4.9c0.1,0.5,0.2,1,0.2,1.5c0,3.5-1.5,5.6-4.4,6.5
		c-7.4,2.5-15.6,3.7-24.7,3.7c-9.1,0-17.3-1.2-24.7-3.7c-2.9-0.9-4.3-3-4.3-6.5c0-0.5,0.1-1,0.2-1.5c-1.2-1.3-1.8-3-1.8-4.9
		c0-0.4,0-0.8,0.1-1.1c-1.2-1.3-1.8-2.9-1.8-4.9c0-1.1,0.2-2.2,0.6-3.1L11.4,31l15.4,17.9l3.2-23l9.9,21.3l10-27.8L60,47.2l9.8-21.3
		l3.2,23L88.5,31L81.4,61.4z M26.3,55.7L20,48.3l2,8.5C23,56.6,24.4,56.2,26.3,55.7z M76.1,63.4c1.5,0.4,2.4,0.1,2.7-0.9
		c0.2-1-0.4-1.7-1.8-2.2C69,58.1,60,57,49.9,57c-10.2,0-19.1,1.1-26.8,3.3c-1.5,0.5-2.2,1.2-1.9,2.2c0.3,1,1.2,1.3,2.7,0.9
		c7.4-2.1,16.1-3.1,26.2-3.1C60.1,60.3,68.8,61.4,76.1,63.4z M25.1,74.3l4.6-3.6l-6.4-2.3c-0.8,0.7-1.2,1.5-1.2,2.6
		C22.1,73.2,23.1,74.3,25.1,74.3z M28.9,25.4c-1.6,0-3-0.6-4.1-1.7c-1.1-1.1-1.7-2.5-1.7-4.2c0-1.5,0.6-2.9,1.7-4
		c1.1-1.2,2.5-1.8,4.1-1.8c1.6,0,3,0.6,4.1,1.8c1.1,1.2,1.7,2.5,1.7,4c0,1.7-0.6,3.1-1.7,4.2C31.9,24.9,30.5,25.4,28.9,25.4z
		 M69.7,79.8c2-0.5,4-1,6.1-1.7c-3.6-0.9-7.6-1.8-12-2.5c-4.4-0.8-9-1.2-13.9-1.2c-4.8,0-9.4,0.4-13.8,1.2c-4.4,0.8-8.4,1.6-12,2.5
		c2.1,0.7,4.2,1.3,6.1,1.7c2.9-0.5,6-1,9.3-1.5c3.3-0.4,6.8-0.7,10.4-0.7c3.6,0,7.1,0.2,10.4,0.7C63.7,78.8,66.8,79.3,69.7,79.8z
		 M37.4,54.3l-4.7-9.5l-1.5,10.3C33,54.8,35.1,54.5,37.4,54.3z M36.1,66.4c-2.5,0.4-3.6,1.4-3.3,2.9c0.3,1.6,1.7,2.1,4.1,1.6
		c2.5-0.3,3.5-1.3,3.2-2.8C39.8,66.6,38.5,66,36.1,66.4z M49.9,19.4c-1.6,0-3-0.6-4.1-1.7c-1.1-1.1-1.7-2.5-1.7-4.2
		c0-1.5,0.6-2.9,1.7-4c1.1-1.2,2.5-1.8,4.1-1.8c1.6,0,3,0.6,4.1,1.8c1.1,1.2,1.7,2.5,1.7,4c0,1.7-0.6,3.1-1.7,4.2
		C52.9,18.9,51.5,19.4,49.9,19.4z M49.9,64.4l-5.8,3.3l5.8,3.3l5.8-3.3L49.9,64.4z M55.2,53.4L49.9,39l-5.2,14.3
		c1.1-0.1,2.9-0.1,5.2-0.1C51.7,53.2,53.5,53.3,55.2,53.4z M63.9,66.4c-2.5-0.4-3.8,0.2-4.1,1.7c-0.3,1.5,0.8,2.4,3.3,2.9
		c2.4,0.5,3.7-0.1,4-1.7C67.4,67.9,66.4,66.9,63.9,66.4z M68.7,55.1l-1.6-10.3l-4.7,9.5C64.9,54.6,67,54.9,68.7,55.1z M70.9,25.4
		c-1.6,0-3-0.6-4.1-1.7c-1.1-1.1-1.7-2.5-1.7-4.2c0-1.5,0.6-2.9,1.7-4c1.1-1.2,2.5-1.8,4.1-1.8c1.6,0,3,0.6,4.1,1.8
		c1.1,1.2,1.7,2.5,1.7,4c0,1.7-0.6,3.1-1.7,4.2C73.9,24.9,72.5,25.4,70.9,25.4z M74.7,74.3c2.1,0,3.1-1.1,3.1-3.3
		c0-1.1-0.4-2-1.2-2.6l-6.4,2.3L74.7,74.3z M77.9,56.9l2-8.6l-6.3,7.4C75.2,56.1,76.6,56.5,77.9,56.9z M90.9,31.4
		c-1.6,0-3-0.6-4.1-1.7c-1.1-1.1-1.7-2.5-1.7-4.2c0-1.6,0.6-3,1.7-4.1c1.1-1.1,2.5-1.7,4.1-1.7c1.6,0,3,0.6,4.1,1.7
		c1.2,1.1,1.8,2.5,1.8,4.1c0,1.7-0.6,3.1-1.8,4.2C93.9,30.9,92.5,31.4,90.9,31.4z"/>

</svg>
