<?xml version="1.0" encoding="utf-8"?>
<!-- Generator: Adobe Illustrator 19.0.0, SVG Export Plug-In . SVG Version: 6.00 Build 0)  -->
<svg version="1.1" id="r" xmlns="http://www.w3.org/2000/svg" xmlns:xlink="http://www.w3.org/1999/xlink" x="0px" y="0px"
	 viewBox="0 0 100 100" enable-background="new 0 0 100 100" xml:space="preserve">

	<path id="XMLID_15_" fill="#FFFFFF" d="M65.8,26.1l3.3,35c1.6,0,3,0.6,4.2,1.7c1.2,1.1,1.8,2.5,1.8,4.1c0,1.7-0.7,3.2-2,4.4
		c2.5,1.9,3.7,4.4,3.7,7.4v9.1H23.2v-9.1c0-3.1,1.2-5.5,3.7-7.4c-1.3-1.1-1.9-2.6-1.9-4.4c0-1.6,0.6-3,1.7-4.1
		c1.1-1.1,2.5-1.7,4.1-1.7l3.3-35l-8.3-5V7.7h10v5h8.3v-5h11.7v5h8.3v-5h10.1v13.4L65.8,26.1z"/>

	<path id="XMLID_4_" d="M68.6,54.8l0.5,6.3c1.6,0,3,0.6,4.2,1.7c1.2,1.1,1.8,2.5,1.8,4.1c0,1.7-0.7,3.2-2,4.4
		c2.5,1.9,3.7,4.4,3.7,7.4v9.1H23.2v-9.1c0-3.1,1.2-5.5,3.7-7.4c-1.3-1.1-1.9-2.6-1.9-4.4c0-1.6,0.6-3,1.7-4.1
		c1.1-1.1,2.5-1.7,4.1-1.7l0.6-6.3h16.9V61h3.3v-6.2H68.6z M66.4,32.3h-4.8v-6.2h-3.3v6.2H41.6v-6.2h-3.3v6.2h-4.7l0.5-6.2l-8.3-5
		V7.7h10v5h8.3v-5h11.7v5h8.3v-5h10.1v13.4l-8.4,5L66.4,32.3z M73.2,77.5c-0.6-3-2.5-4.5-5.8-4.5H32.5c-3.3,0-5.2,1.5-5.7,4.5H73.2z
		 M50,64.7H30.8c-1.7,0-2.5,0.7-2.5,2.2c0,1.5,0.8,2.3,2.5,2.3h38.3c1.7,0,2.5-0.8,2.5-2.3c0-1.5-0.8-2.2-2.5-2.2H50z M70.8,19.3
		H29.1l5.8,3.5H50h14.9L70.8,19.3z M31.7,51.4l0.6-6.1l6-0.1v6.3L31.7,51.4z M32.6,41.9l0.7-6.3h15v6.3H32.6z M41.6,45.2h16.7v6.3
		H41.6V45.2z M67.3,41.9H51.6v-6.3h15.2L67.3,41.9z M68.2,51.5h-6.6v-6.3h6L68.2,51.5z"/>

</svg>
