<?xml version="1.0" encoding="utf-8"?>
<!-- Generator: Adobe Illustrator 19.0.0, SVG Export Plug-In . SVG Version: 6.00 Build 0)  -->
<svg version="1.1" id="K" xmlns="http://www.w3.org/2000/svg" xmlns:xlink="http://www.w3.org/1999/xlink" x="0px" y="0px"
	 viewBox="0 0 100 100" enable-background="new 0 0 100 100" xml:space="preserve">

	<path id="XMLID_7_" fill="#FFFFFF" d="M70.4,92.8H29.6l5-40.6l10-15.4V26.4h-10v-10h10V6.2H55v10.2h10.1v10H55v10.4l10.1,15.4
		L70.4,92.8z"/>

	<path id="XMLID_4_" d="M70.4,92.8H29.6l5-40.6l10-15.4V26.4h-10v-10h10V6.2H55v10.2h10.1v10H55v10.4l10.1,15.4L70.4,92.8z
		 M62.7,52.9L52.6,37.6V24.1h10v-5.3h-10V8.7h-5.5v10.1H37v5.3h10.1v13.5L37,52.9l-4.6,37.4h35.1L62.7,52.9z"/>

</svg>
