<?xml version="1.0" encoding="utf-8"?>
<!-- Generator: Adobe Illustrator 19.0.0, SVG Export Plug-In . SVG Version: 6.00 Build 0)  -->
<svg version="1.1" id="n" xmlns="http://www.w3.org/2000/svg" xmlns:xlink="http://www.w3.org/1999/xlink" x="0px" y="0px"
	 viewBox="0 0 100 100" enable-background="new 0 0 100 100" xml:space="preserve">

	<path id="XMLID_7_" fill="#FFFFFF" d="M32.1,80.9c0-4.1,0.8-8.3,2.4-12.7c1.6-4.3,3.3-8.2,5.1-11.8c1.9-3.5,4.4-7.6,7.7-12.2
		c-1.8,0.7-2.9,1.4-3.4,1.9c-0.5,0.5-1.5,1-3.2,1.5c-2.6,0.7-4.9,1.6-7,2.5c-2.1,0.9-4.4,1.4-7.1,1.4c-0.8,0-1.8-0.7-3.1-2.2
		c-1.2-1.5-1.9-2.5-1.9-3c-0.5-1-0.9-2.2-1-3.5c-0.1-1.3-0.2-2.4-0.3-3.3c-0.3-2.3,0.8-4.4,3.5-6.5c2.7-2.1,5.9-4.1,9.8-6
		c3.8-1.9,7.8-3.8,12-5.6c4.1-1.8,7.5-3.6,10.2-5.3l3.2-9.3l2.7,9.3c5.9,11.7,10.3,23.7,13.3,36c3,12.3,4.5,25.9,4.5,40.6H32.1V80.9
		z"/>

	<path id="XMLID_4_" d="M32.1,80.9c0-4.1,0.8-8.3,2.4-12.7c1.6-4.3,3.3-8.2,5.1-11.8c1.9-3.5,4.4-7.6,7.7-12.2
		c-1.8,0.7-2.9,1.4-3.4,1.9c-0.5,0.5-1.5,1-3.2,1.5c-2.6,0.7-4.9,1.6-7,2.5c-2.1,0.9-4.4,1.4-7.1,1.4c-0.8,0-1.8-0.7-3.1-2.2
		c-1.2-1.5-1.9-2.5-1.9-3c-0.5-1-0.9-2.2-1-3.5c-0.1-1.3-0.2-2.4-0.3-3.3c-0.3-2.3,0.8-4.4,3.5-6.5c2.7-2.1,5.9-4.1,9.8-6
		c3.8-1.9,7.8-3.8,12-5.6c4.1-1.8,7.5-3.6,10.2-5.3l3.2-9.3l2.7,9.3c5.9,11.7,10.3,23.7,13.3,36c3,12.3,4.5,25.9,4.5,40.6H32.1V80.9
		z M52.6,27.6c-1.3,0-1.9,0.8-1.9,2.5c0,1.3,0.6,2,1.9,2c1.2,0,1.8-0.7,1.8-2C54.4,28.5,53.8,27.6,52.6,27.6z"/>

</svg>
