<?xml version="1.0" encoding="utf-8"?>
<!-- Generator: Adobe Illustrator 19.0.0, SVG Export Plug-In . SVG Version: 6.00 Build 0)  -->
<svg version="1.1" id="p" xmlns="http://www.w3.org/2000/svg" xmlns:xlink="http://www.w3.org/1999/xlink" x="0px" y="0px"
	 viewBox="0 0 100 100" enable-background="new 0 0 100 100" xml:space="preserve">

	<path id="XMLID_4_" d="M50,92.8H32.2c1.1-4.1,2.5-8.1,4.3-12.1s2.4-7.9,1.7-11.8c-0.3-2.7-1.4-4.6-3.3-5.8
		c-1.8-1.2-2.8-3.1-2.8-5.8c0-2.9,0.8-5.7,2.5-8.1c1.7-2.5,3.3-3.8,5-4c1.9-0.1,3-0.4,3.4-1.1c0.4-0.7,0.6-1.6,0.6-2.8
		c0-1.1-1-2.6-2.9-4.5C39,35.1,38,33.2,38,31.3c0-2.8,1.3-5.1,3.8-6.9c2.6-1.8,5.3-2.7,8.2-2.7c3,0,5.8,0.9,8.4,2.7
		c2.6,1.8,3.9,4.1,3.9,6.9c0,1.9-1,3.7-2.8,5.5c-1.9,1.8-2.9,3.3-2.9,4.5c0,1.2,0.2,2.1,0.6,2.8c0.4,0.7,1.5,1,3.4,1.1
		c1.7,0.1,3.3,1.5,5,4c1.7,2.5,2.5,5.2,2.5,8.1c0,2.7-0.9,4.6-2.8,5.8c-1.9,1.2-2.9,3.1-3.2,5.8c-0.7,3.9-0.1,7.8,1.7,11.8
		s3.2,8,4.3,12.1H50z M39.5,70.3v2h21.3v-2H39.5z M44.5,41.7v2h11.2v-2H44.5z"/>

</svg>
