<?xml version="1.0" encoding="utf-8"?>
<!-- Generator: Adobe Illustrator 19.0.0, SVG Export Plug-In . SVG Version: 6.00 Build 0)  -->
<svg version="1.1" id="Q" xmlns="http://www.w3.org/2000/svg" xmlns:xlink="http://www.w3.org/1999/xlink" x="0px" y="0px"
	 viewBox="0 0 100 100" enable-background="new 0 0 100 100" xml:space="preserve">

	<path id="XMLID_7_" fill="#FFFFFF" d="M61.1,92.8H39.4L23.3,17.4l16.1,26.8l-5.5-32.3l10.7,27l5.5-32.2l5.5,32.2l10.6-27l-5.1,32.3
		l16.1-26.8L61.1,92.8z"/>

	<path id="XMLID_4_" d="M61.1,92.8H39.4L23.3,17.4l16.1,26.8l-5.5-32.3l10.7,27l5.5-32.2l5.5,32.2l10.6-27l-5.1,32.3l16.1-26.8
		L61.1,92.8z M71.7,31.3l-15.1,25l3.6-22.2l-5.6,14l-4.5-26.7l-4.5,26.7l-5.2-13.3l3.7,21.8L28.8,31.3l12.6,59h17.7L71.7,31.3z"/>

</svg>
