<?xml version="1.0" encoding="utf-8"?>
<!-- Generator: Adobe Illustrator 19.0.0, SVG Export Plug-In . SVG Version: 6.00 Build 0)  -->
<svg version="1.1" id="R" xmlns="http://www.w3.org/2000/svg" xmlns:xlink="http://www.w3.org/1999/xlink" x="0px" y="0px"
	 viewBox="0 0 100 100" enable-background="new 0 0 100 100" xml:space="preserve">

	<path id="XMLID_7_" fill="#FFFFFF" d="M55.9,21.7v16.4h12V21.7h12.3v27.2l-12.3,5.5v27.3l12.3,5.5v5.6H19.8v-5.6l11.9-5.5V54.4
		l-11.9-5.5V21.7h11.9v16.4h12V21.7H55.9z"/>

	<path id="XMLID_4_" d="M55.9,21.7v16.4h12V21.7h12.3v27.2l-12.3,5.5v27.3l12.3,5.5v5.6H19.8v-5.6l11.9-5.5V54.4l-11.9-5.5V21.7
		h11.9v16.4h12V21.7H55.9z M53.6,24.2h-7.4v16.2H29.3V24.2h-7v23.1l11.9,5.6v30.4l-11.9,5.5v1.5h55.4v-1.5l-12.3-5.5V52.9l12.3-5.6
		V24.2h-7.4v16.2H53.6V24.2z"/>

</svg>
