<?xml version="1.0" encoding="utf-8"?>
<!-- Generator: Adobe Illustrator 19.0.0, SVG Export Plug-In . SVG Version: 6.00 Build 0)  -->
<svg version="1.1" id="B" xmlns="http://www.w3.org/2000/svg" xmlns:xlink="http://www.w3.org/1999/xlink" x="0px" y="0px"
	 viewBox="0 0 100 100" enable-background="new 0 0 100 100" xml:space="preserve">

	<path id="XMLID_7_" fill="#FFFFFF" d="M74.6,92.8H25.5c0-12,0.3-21.4,0.8-28.2s1.6-12.8,3.3-18c1.7-5.2,4.1-10.7,7.4-16.4
		c3.3-5.7,7.6-13.4,13.1-23.1c0.5,1,1.1,2,1.6,3c0.5,1,1,1.9,1.5,2.6c0.5,0.7,1.1,1.6,1.8,2.5c0.6,1,1,1.8,1.2,2.4
		c0.3,0.8,0.7,1.6,1.2,2.4c0.5,0.8,0.9,1.4,1.3,2c0.3,0.7,0.7,1.5,1.3,2.4c0.6,0.9,1,1.7,1.2,2.4c0.1,0.3,0.6,1.1,1.3,2.4
		c0.7,1.3,1.3,2.3,1.6,2.8l-15.3,7.2l1.5,4.6l16.5-6.5c0.2,0.3,0.5,0.9,1,1.6c0.4,0.7,0.8,1.3,1,1.8c0.1,0.5,0.4,1.2,0.8,2.1
		c0.4,0.9,0.6,1.7,0.7,2.2c0.3,0.9,0.7,1.7,1,2.6c0.4,0.9,0.5,1.7,0.5,2.4c0.1,0.8,0.2,1.6,0.5,2.5c0.3,0.9,0.4,1.7,0.4,2.5
		c0.1,0.8,0.3,1.7,0.6,2.7c0.3,1,0.4,2,0.4,3c0,0.7,0,1.7,0.1,2.8c0.1,1.1,0.1,2.2,0.1,3.3c0,1.1,0.1,2.3,0.2,3.5
		c0.1,1.2,0.2,2.6,0.2,4c0,1.3,0,2.6,0.2,4c0.1,1.4,0.1,2.8,0.1,4.5c0,1.5,0,3.2,0.2,4.9C74.5,89.3,74.6,91,74.6,92.8z"/>

	<path id="XMLID_4_" d="M74.6,92.8H25.5c0-12,0.3-21.4,0.8-28.2s1.6-12.8,3.3-18c1.7-5.2,4.1-10.7,7.4-16.4
		c3.3-5.7,7.6-13.4,13.1-23.1c0.5,1,1.1,2,1.6,3c0.5,1,1,1.9,1.5,2.6c0.5,0.7,1.1,1.6,1.8,2.5c0.6,1,1,1.8,1.2,2.4
		c0.3,0.8,0.7,1.6,1.2,2.4c0.5,0.8,0.9,1.4,1.3,2c0.3,0.7,0.7,1.5,1.3,2.4c0.6,0.9,1,1.7,1.2,2.4c0.1,0.3,0.6,1.1,1.3,2.4
		c0.7,1.3,1.3,2.3,1.6,2.8l-15.3,7.2l1.5,4.6l16.5-6.5c0.2,0.3,0.5,0.9,1,1.6c0.4,0.7,0.8,1.3,1,1.8c0.1,0.5,0.4,1.2,0.8,2.1
		c0.4,0.9,0.6,1.7,0.7,2.2c0.3,0.9,0.7,1.7,1,2.6c0.4,0.9,0.5,1.7,0.5,2.4c0.1,0.8,0.2,1.6,0.5,2.5c0.3,0.9,0.4,1.7,0.4,2.5
		c0.1,0.8,0.3,1.7,0.6,2.7c0.3,1,0.4,2,0.4,3c0,0.7,0,1.7,0.1,2.8c0.1,1.1,0.1,2.2,0.1,3.3c0,1.1,0.1,2.3,0.2,3.5
		c0.1,1.2,0.2,2.6,0.2,4c0,1.3,0,2.6,0.2,4c0.1,1.4,0.1,2.8,0.1,4.5c0,1.5,0,3.2,0.2,4.9C74.5,89.3,74.6,91,74.6,92.8z M66.5,42.8
		c-0.3-0.9-0.6-1.8-1-2.5l-16.9,6.7l-3.1-9.1l14.9-7c-0.4-0.7-0.8-1.3-1.1-1.9c-0.3-0.6-0.6-1.3-0.8-2c-0.3-0.5-0.7-1.1-1.1-1.8
		c-0.4-0.7-0.8-1.3-1.1-2c-0.5-0.8-0.9-1.5-1.3-2.1c-0.4-0.6-0.8-1.3-1-2.1c-0.2-0.1-0.3-0.3-0.4-0.5c0-0.2-0.1-0.4-0.1-0.7
		c-0.4-0.7-1-1.7-1.8-2.8c-0.2-0.3-0.7-1.2-1.6-2.7c-2.4,4.3-4.8,8.5-7.3,12.8c-2.5,4.2-4.8,8.5-6.9,12.8c-1.3,2.7-2.4,5.3-3.3,7.7
		c-0.9,2.7-1.6,5.3-2.1,7.8c-0.9,4.1-1.6,8.9-1.9,14.4c-0.3,3.8-0.4,7.6-0.5,11.4c0,3.8,0,7.6,0,11.3h44.1c0-0.8,0-1.7-0.1-2.6
		c-0.1-0.9-0.1-1.8-0.1-2.6c-0.1-3.3-0.2-6.7-0.4-10c-0.2-3.3-0.3-6.6-0.5-9.9c0-0.7,0-1.5-0.1-2.3c-0.1-0.8-0.1-1.6-0.1-2.3
		c0-1-0.3-2.8-1-5.4c0-0.9-0.1-1.7-0.3-2.5c-0.2-0.8-0.4-1.6-0.6-2.4c0-0.9-0.2-1.8-0.6-2.6c-0.4-0.8-0.7-1.6-1-2.5
		C67.1,44.5,66.8,43.7,66.5,42.8z"/>

</svg>
