<?xml version="1.0" encoding="utf-8"?>
<!-- Generator: Adobe Illustrator 19.0.0, SVG Export Plug-In . SVG Version: 6.00 Build 0)  -->
<svg version="1.1" id="N" xmlns="http://www.w3.org/2000/svg" xmlns:xlink="http://www.w3.org/1999/xlink" x="0px" y="0px"
	 viewBox="0 0 100 100" enable-background="new 0 0 100 100" xml:space="preserve">

	<path id="XMLID_7_" fill="#FFFFFF" d="M32.1,80.9c0-4.1,0.8-8.3,2.4-12.7c1.6-4.3,3.3-8.2,5.1-11.8c1.9-3.5,4.4-7.6,7.7-12.2
		c-1.8,0.7-2.9,1.4-3.4,1.9c-0.5,0.5-1.5,1-3.2,1.5c-2.6,0.7-4.9,1.6-7,2.5c-2.1,0.9-4.4,1.4-7.1,1.4c-0.8,0-1.8-0.7-3.1-2.2
		c-1.2-1.5-1.9-2.5-1.9-3c-0.5-1-0.9-2.2-1-3.5c-0.1-1.3-0.2-2.4-0.3-3.3c-0.3-2.3,0.8-4.4,3.5-6.5c2.7-2.1,5.9-4.1,9.8-6
		c3.8-1.9,7.8-3.8,12-5.6c4.1-1.8,7.5-3.6,10.2-5.3l3.2-9.3l2.7,9.3c5.9,11.7,10.3,23.7,13.3,36c3,12.3,4.5,25.9,4.5,40.6H32.1V80.9
		z"/>

	<path id="XMLID_4_" d="M53.5,90.1h0.3h23.1c0-3-0.1-6.1-0.3-9.2c-0.2-3.1-0.5-6.2-0.8-9.3c-0.5-3.9-1.1-7.9-1.8-12
		c-1.4-7.7-3.4-15.3-6-22.8c-2.1-5.7-4.5-11.6-7.2-17.5L59.5,17l-0.6-2.2l-1,2.9c-2.9,1.7-5.6,3.2-8.3,4.5c-3.3,1.6-6.7,3.2-10,4.8
		c-3.4,1.6-6.6,3.3-9.8,5c-1.3,0.7-2.5,1.6-3.8,2.6c-1.3,1-2.2,2-2.9,3.3c-0.1,0.5-0.2,1-0.1,1.4c0.1,1.1,0.2,2.1,0.3,3.2
		c0.1,1.1,0.4,2.1,0.7,3.1c1,1.5,2,2.7,3.1,3.5c2.3,0,4.5-0.5,6.7-1.4c2.2-1,4.3-1.8,6.5-2.5c1-0.3,1.9-0.7,2.7-1.3
		c0.7-0.5,1.7-1,2.9-1.5l9.6-4.3c-1.6,2-3.2,4-4.7,5.9s-2.9,3.9-4.3,6c-2.4,3.7-4.5,7.4-6.4,11.3c-1.9,3.9-3.4,8-4.6,12.2
		c-0.5,2.7-0.9,5.1-1,7.4v9.4H44H53.5l0.1,2.5h-0.1H42.9H32.1V80.7c0-4.1,0.8-8.3,2.4-12.6c1.6-4.3,3.3-8.2,5.3-11.8
		c1.9-3.5,4.5-7.6,7.8-12.1c-1.8,0.7-3,1.4-3.5,1.9s-1.5,1-3.1,1.5c-2.6,0.7-4.9,1.5-7,2.4c-2.1,0.9-4.4,1.3-7.1,1.3
		c-0.8,0-1.8-0.7-3-2.1c-1.2-1.4-1.9-2.4-2-2.9c-0.5-1-0.9-2.2-1-3.5c-0.1-1.3-0.2-2.4-0.3-3.3c-0.3-2.3,0.8-4.4,3.5-6.5
		c2.7-2.1,5.9-4.1,9.8-6c3.8-1.9,7.8-3.8,11.9-5.5c4.1-1.8,7.5-3.6,10.1-5.3l3.3-9.3l2.7,9.3C67.6,27.8,72,39.8,75,52.1
		c3,12.3,4.5,25.8,4.5,40.5H53.6L53.5,90.1z M54.6,30c0,1.3-0.6,2-1.8,2c-1.3,0-2-0.7-2-2c0-1.7,0.7-2.5,2-2.5
		C54,27.5,54.6,28.4,54.6,30z"/>

</svg>
