<?xml version="1.0" encoding="utf-8"?>
<!-- Generator: Adobe Illustrator 19.0.0, SVG Export Plug-In . SVG Version: 6.00 Build 0)  -->
<svg version="1.1" id="P" xmlns="http://www.w3.org/2000/svg" xmlns:xlink="http://www.w3.org/1999/xlink" x="0px" y="0px"
	 viewBox="0 0 100 100" enable-background="new 0 0 100 100" xml:space="preserve">

	<path id="XMLID_9_" fill="#FFFFFF" d="M50,92.8H32.1c1.1-4.1,2.5-8.1,4.3-12.1c1.8-4,2.4-7.9,1.7-11.8c-0.3-2.7-1.4-4.6-3.3-5.8
		c-1.8-1.2-2.8-3.2-2.8-5.9c0-2.9,0.8-5.5,2.5-8c1.7-2.5,3.4-3.8,5.1-4c1.8-0.1,2.9-0.4,3.3-1.1c0.4-0.7,0.6-1.6,0.6-2.8
		c0-1.3-0.9-2.8-2.8-4.6c-1.9-1.8-2.8-3.6-2.8-5.4c0-2.8,1.3-5.1,3.8-6.9c2.6-1.8,5.3-2.7,8.3-2.7c3,0,5.8,0.9,8.3,2.7
		c2.6,1.8,3.9,4.1,3.9,6.9c0,1.9-0.9,3.7-2.8,5.4c-1.9,1.8-2.8,3.3-2.8,4.6c0,1.2,0.2,2.1,0.6,2.8c0.4,0.7,1.5,1,3.3,1.1
		c1.7,0.1,3.3,1.5,5,4c1.7,2.5,2.5,5.2,2.5,8c0,2.7-0.9,4.7-2.8,5.9c-1.9,1.2-2.9,3.1-3.2,5.8c-0.7,3.9-0.1,7.8,1.7,11.8
		s3.2,8,4.3,12.1H50z"/>

	<path id="XMLID_4_" d="M50,92.8H32.1c1.1-4.1,2.5-8.1,4.3-12.1c1.8-4,2.4-7.9,1.7-11.8c-0.3-2.7-1.4-4.6-3.3-5.8
		c-1.8-1.2-2.8-3.2-2.8-5.9c0-2.9,0.8-5.5,2.5-8c1.7-2.5,3.4-3.8,5.1-4c1.8-0.1,2.9-0.4,3.3-1.1c0.4-0.7,0.6-1.6,0.6-2.8
		c0-1.3-0.9-2.8-2.8-4.6c-1.9-1.8-2.8-3.6-2.8-5.4c0-2.8,1.3-5.1,3.8-6.9c2.6-1.8,5.3-2.7,8.3-2.7c3,0,5.8,0.9,8.3,2.7
		c2.6,1.8,3.9,4.1,3.9,6.9c0,1.9-0.9,3.7-2.8,5.4c-1.9,1.8-2.8,3.3-2.8,4.6c0,1.2,0.2,2.1,0.6,2.8c0.4,0.7,1.5,1,3.3,1.1
		c1.7,0.1,3.3,1.5,5,4c1.7,2.5,2.5,5.2,2.5,8c0,2.7-0.9,4.7-2.8,5.9c-1.9,1.2-2.9,3.1-3.2,5.8c-0.7,3.9-0.1,7.8,1.7,11.8
		s3.2,8,4.3,12.1H50z M60.4,75.9c-0.3-1.5-0.5-2.8-0.5-4.1c0-1,0-2,0.1-3.1l0.2-1.1l0.4-1.2l0.4-1l0.5-0.8c0.6-0.9,1.2-1.6,1.7-2.2
		c1.2-1.3,2-2.4,2.5-3.3c0.6-1.9,0.4-4-0.6-6.4c-1-2.4-2.3-4.2-4-5.3c-0.3-0.1-1-0.2-2.2-0.5c-0.9-0.1-1.7-0.4-2.3-0.8
		c-1.1-0.8-1.8-1.9-2-3.4c0-0.3,0-0.5,0-0.8c0-0.2,0-0.5,0-0.9c0.1-0.9,0.5-1.9,1.3-3c0.7-0.9,1.4-1.8,2.1-2.7c0.7-0.9,1.4-1.9,2-3
		c0.4-0.8,0.4-1.8,0-3c-0.7-1.9-2.1-3.3-4.1-4.3c-2-1-4-1.5-5.9-1.5c-4.1,0.1-7.1,1.5-9.1,4.4c-0.9,1.5-1.2,2.8-0.9,4
		c0.3,0.8,0.8,1.6,1.5,2.4c0.7,0.8,1.3,1.6,1.9,2.3c0.9,1.1,1.6,2.2,2.1,3.5c0.1,1.4,0,2.7-0.4,4c-0.4,0.7-0.9,1.3-1.5,1.8
		c-1.1,0.5-2.3,0.9-3.6,1.1c-0.6,0.1-1.2,0.4-1.9,0.9c-1.3,1.2-2.4,2.8-3.2,4.8c-0.8,2-1,3.9-0.5,5.7c0.2,0.9,0.6,1.6,1.3,2.3
		c0.6,0.7,1.3,1.4,1.8,2.2l0.6,0.6l0.5,0.9l0.5,0.8l0.5,1l0.4,1.2c0.1,1.1,0.3,2.2,0.4,3.5c0,0.5-0.1,1.4-0.2,2.5
		c-0.3,2.5-1,5-2,7.7c-0.5,1.6-1.1,3.2-1.8,4.8c-0.6,1.6-1.2,3.1-1.8,4.8h30.7c-0.8-2.1-1.6-4.3-2.5-6.6c-0.9-2.2-1.6-4.5-2.2-6.8
		l-0.2-0.7L60.4,75.9z M58.6,70.3v2H42.2v-2H58.6z M52.7,41.6v2.1h-6v-2.1H52.7z"/>

</svg>
