<?xml version="1.0" encoding="utf-8"?>
<!-- Generator: Adobe Illustrator 19.0.0, SVG Export Plug-In . SVG Version: 6.00 Build 0)  -->
<svg version="1.1" id="K" xmlns="http://www.w3.org/2000/svg" xmlns:xlink="http://www.w3.org/1999/xlink" x="0px" y="0px"
	 viewBox="0 0 100 100" enable-background="new 0 0 100 100" xml:space="preserve">

	<path id="XMLID_25_" fill="#FFFFFF" d="M77.1,68.8c0.2,0.7,0.3,1.4,0.3,2c0,1.9-0.7,3.4-2.1,4.4c-0.1,0.6-0.2,1.2-0.3,1.7
		c1.3,1.7,1.9,3,1.9,4.1c0,2.7-2.7,5.1-8,7.1c-5.3,2-11.6,2.9-19,2.9c-7.5,0-13.8-1-19.1-2.9c-5.3-2-7.9-4.3-7.9-7.1
		c0-1.1,0.7-2.5,2-4.2c-0.1-0.3-0.2-0.8-0.3-1.5c-1.5-1.1-2.2-2.6-2.2-4.5c0-0.6,0.1-1.2,0.3-1.9c0.3-0.8,0.3-1.4-0.2-1.9
		c-0.5-0.5-1-1.1-1.6-1.9c-0.5-1.7-0.7-2.8-0.7-3.4c0-0.3,0.1-0.6,0.2-1c0.1-0.4,0.1-0.8,0.1-1.3c-1.5-1.5-3-2.8-4.5-4.1
		c-1.5-1.3-2.7-2.8-3.6-4.7c-1.1-2.1-2-4.3-2.9-6.5c-0.9-2.2-1.3-4.4-1.3-6.5c0-4,1.1-7.4,3.2-10.1c2.1-2.8,5-4.9,8.6-6.5
		c4.8-0.3,6.8-0.5,6.1-0.5c5.7,0,10.8,2.1,15.4,6.3V9.8h16.7v17.1c4.6-4.2,9.8-6.3,15.5-6.3c-0.8,0,1.2,0.2,6.1,0.5
		c3.5,1.5,6.4,3.7,8.5,6.5c2.1,2.8,3.2,6.1,3.2,10.1c0,2.1-0.4,4.3-1.3,6.5c-0.9,2.2-1.8,4.4-2.8,6.5c-0.9,1.9-2.1,3.5-3.7,4.9
		c-1.6,1.4-3,2.7-4.4,4c-0.1,0.4-0.1,0.8,0,1.1c0.1,0.4,0.1,0.7,0.1,1c0.1,0.5-0.2,1.6-0.7,3.4c-0.6,0.8-1.1,1.4-1.6,1.9
		C76.9,67.5,76.8,68.1,77.1,68.8z"/>

	<path id="XMLID_4_" d="M77.1,68.8c0.2,0.7,0.3,1.4,0.3,2c0,1.9-0.7,3.4-2.1,4.4c-0.1,0.6-0.2,1.2-0.3,1.7c1.3,1.7,1.9,3,1.9,4.1
		c0,2.7-2.7,5.1-8,7.1c-5.3,2-11.6,2.9-19,2.9c-7.5,0-13.8-1-19.1-2.9c-5.3-2-7.9-4.3-7.9-7.1c0-1.1,0.7-2.5,2-4.2
		c-0.1-0.3-0.2-0.8-0.3-1.5c-1.5-1.1-2.2-2.6-2.2-4.5c0-0.6,0.1-1.2,0.3-1.9c0.3-0.8,0.3-1.4-0.2-1.9c-0.5-0.5-1-1.1-1.6-1.9
		c-0.5-1.7-0.7-2.8-0.7-3.4c0-0.3,0.1-0.6,0.2-1c0.1-0.4,0.1-0.8,0.1-1.3c-1.5-1.5-3-2.8-4.5-4.1c-1.5-1.3-2.7-2.8-3.6-4.7
		c-1.1-2.1-2-4.3-2.9-6.5c-0.9-2.2-1.3-4.4-1.3-6.5c0-4,1.1-7.4,3.2-10.1c2.1-2.8,5-4.9,8.6-6.5c4.8-0.3,6.8-0.5,6.1-0.5
		c5.7,0,10.8,2.1,15.4,6.3V9.8h16.7v17.1c4.6-4.2,9.8-6.3,15.5-6.3c-0.8,0,1.2,0.2,6.1,0.5c3.5,1.5,6.4,3.7,8.5,6.5
		c2.1,2.8,3.2,6.1,3.2,10.1c0,2.1-0.4,4.3-1.3,6.5c-0.9,2.2-1.8,4.4-2.8,6.5c-0.9,1.9-2.1,3.5-3.7,4.9c-1.6,1.4-3,2.7-4.4,4
		c-0.1,0.4-0.1,0.8,0,1.1c0.1,0.4,0.1,0.7,0.1,1c0.1,0.5-0.2,1.6-0.7,3.4c-0.6,0.8-1.1,1.4-1.6,1.9C76.9,67.5,76.8,68.1,77.1,68.8z
		 M46.1,53.9c-0.1-4-0.4-8-1-12.1c-0.6-4.1-1.3-6.5-2-7.4c-4-4.5-8.6-6.7-13.7-6.7c-4.3,0-7.6,1.5-9.9,4.4c-1.5,1.9-2.3,4.5-2.3,7.6
		c0,6.5,2.4,12.6,7.3,18.3c0.5-0.3,1.1-0.5,1.6-0.7c0.6-0.2,1.1-0.4,1.6-0.6c-0.3-0.7-0.6-1.3-0.9-1.9c-0.3-0.6-0.6-1.4-0.9-2.3
		c-0.7-1.8-0.9-3.5-0.8-5.1c0.3-1.1,0.8-1.6,1.7-1.6c0.4,0,0.9,0.4,1.6,1.1c-0.2-0.9-0.3-1.4-0.3-1.7c0-3,1.3-4.9,3.9-5.6
		c2.7,0.1,4.5,2.1,5.4,6c0.3-0.9,0.7-1.5,1.2-1.6c0.5-0.1,0.9-0.2,1-0.2c0.4,0,0.7,0.1,1,0.3c1.1,1.3,1.8,3.3,2.1,5.9
		c0.1,0.6,0.1,1.2,0.1,1.7c0,0.6,0.1,1.4,0.2,2.4C44.1,53.9,45.1,53.9,46.1,53.9z M73.2,65.1c1.5-0.1,2.2-0.9,2.2-2.4
		c0-0.9-0.4-1.7-1.3-2.2c-2.7-1.1-6.2-1.9-10.4-2.6s-8.8-1-13.8-1c-10.5,0-18.6,1.3-24.3,3.8c-0.7,0.6-1.1,1.3-1.1,2.1
		c0,1.7,0.8,2.5,2.5,2.4c5.8-2.2,13.4-3.3,22.9-3.3C59.5,61.8,67.3,62.9,73.2,65.1z M34.9,68.7l-4.8-1.6l-3.6,3l4.6,1.5L34.9,68.7z
		 M31.5,55.6c-0.3-0.8-0.6-1.7-0.9-2.5c-0.3-0.9-0.7-1.9-1.2-3c-0.3-0.5-0.6-0.7-1-0.7c-0.5,0-0.8,0.4-0.9,1.3
		c-0.1,0.8,0.7,2.6,2.4,5.4c0.3-0.1,0.5-0.2,0.8-0.3C31,55.8,31.3,55.7,31.5,55.6z M71.7,78.6c-0.3-2.4-3.5-4.2-9.7-5.4
		c-2-0.4-4-0.6-6-0.7c-2-0.1-4-0.1-6-0.2c-2.1,0.2-4,0.3-5.8,0.4c-1.8,0.1-3.4,0.3-4.9,0.6c-7.2,1.5-10.9,3.2-11.1,5.3
		c-0.3,0.3-0.4,0.7-0.4,1.2c0,1.5,1.2,2.9,3.5,4.4c0-1.5,0.3-2.7,0.8-3.4c0.3-0.3,0.7-0.7,1-1.1c0.3-0.4,0.6-0.8,1-1.1
		c2.9-1.8,8.3-2.6,16-2.4c7.7-0.2,13,0.6,16,2.4c0.7,0.9,1.3,1.6,1.8,2.2c0.5,0.8,0.8,1.9,0.8,3.4c2.3-1.5,3.5-2.9,3.5-4.4
		C72.1,79.4,72,79,71.7,78.6z M36.4,54.8c-0.1-4.3-0.8-7.7-1.9-10.3c-0.4-0.7-1-1-1.7-1c-1,0-1.5,0.5-1.5,1.4v1.2
		c0,1.4,0.8,4.5,2.4,9.2C35,55.1,35.9,54.9,36.4,54.8z M66.1,83.1c0-2.9-5.4-4.4-16.2-4.4c-10.7,0-16,1.5-16,4.4
		c0.7,2.9,6,4.3,16.1,4.3C59.9,87.4,65.3,86,66.1,83.1z M41,54.3c0.1-2.5,0-4.6-0.4-6.3c-0.1-0.5-0.5-0.9-1-1
		c-0.7-0.1-1.1,0.2-1.3,1.1c-0.3,1.4,0,3.6,0.7,6.5C39.6,54.4,40.3,54.3,41,54.3z M55.9,67.2l-6-2.9l-5.8,2.9l5.9,2.9L55.9,67.2z
		 M48,17.7l-3.5-3.4v7.5L48,19c-0.1-0.1-0.1-0.3-0.1-0.6C47.9,18.2,47.9,18,48,17.7z M50,26.5c-3.4,0-5.1,1.7-5.1,5
		c0,3.4,1.7,5.1,5.1,5.1c3.3,0,5-1.7,5-5.1C55,28.2,53.3,26.5,50,26.5z M50.5,16.4l3.2-3.8h-7.5l3,3.8c0.2-0.1,0.5-0.1,0.8-0.1
		C50.1,16.3,50.2,16.4,50.5,16.4z M49.1,20.3l-2.9,3.1h7.5l-3.1-3.1c-0.3,0.1-0.5,0.1-0.6,0.1C49.7,20.4,49.4,20.4,49.1,20.3z
		 M51.9,19.1l3.5,2.7v-7.5l-3.5,3.2c0.1,0.3,0.1,0.6,0.1,0.9C52,18.6,52,18.8,51.9,19.1z M75.3,57.9c4.7-5.7,7-11.8,7-18.2
		c0-3.1-0.7-5.7-2.2-7.6c-2.3-2.9-5.7-4.4-10-4.4c-5.1,0-9.6,2.2-13.7,6.7c-0.7,0.9-1.3,3.3-2,7.4c-0.6,4.1-1,8.1-1,12.1
		c1.2-0.1,2.2,0,3.1,0.2c0.1-1,0.1-1.8,0.1-2.4c0-0.6,0.1-1.1,0.2-1.7c0.2-2.6,0.9-4.6,2-5.9c0.3-0.2,0.6-0.3,1.1-0.3
		c0.1,0,0.5,0.1,1,0.2c0.5,0.1,0.9,0.7,1.2,1.6c0.9-3.9,2.7-5.9,5.4-6c2.5,0.7,3.8,2.6,3.8,5.6c0,0.3-0.1,0.8-0.2,1.7
		c0.6-0.7,1.1-1.1,1.6-1.1c0.8,0,1.3,0.5,1.6,1.6c0.1,1.6-0.1,3.3-0.7,5.1c-0.4,0.9-0.7,1.7-1,2.3c-0.3,0.6-0.5,1.2-0.8,1.8
		c0.6,0.2,1.2,0.4,1.8,0.6C74.2,57.5,74.8,57.7,75.3,57.9z M58.6,54.3c0.7,0,1.3,0.1,2,0.3c0.7-2.9,0.9-5.1,0.7-6.5
		c-0.3-0.9-0.7-1.2-1.4-1.1c-0.5,0.1-0.8,0.5-0.9,1C58.5,49.8,58.4,51.9,58.6,54.3z M63.2,54.8c0.4,0.1,1.3,0.2,2.7,0.5
		c1.6-4.7,2.4-7.8,2.4-9.2c0-0.8,0-1.2-0.1-1.2c0-0.9-0.5-1.4-1.4-1.4c-0.8,0-1.4,0.3-1.7,1C63.9,47.1,63.3,50.6,63.2,54.8z
		 M65.5,68.7l3.7,2.9l4.7-1.5l-3.7-3L65.5,68.7z M68.1,55.6c0.2,0.1,0.4,0.1,0.7,0.3c0.3,0.1,0.5,0.2,0.8,0.3
		c1.7-2.8,2.5-4.6,2.4-5.4c-0.1-0.9-0.4-1.3-0.9-1.3c-0.4,0-0.7,0.2-0.9,0.7c-0.5,1.1-1,2-1.3,3C68.7,54,68.4,54.8,68.1,55.6z"/>

</svg>
