<?xml version="1.0" encoding="utf-8"?>
<!-- Generator: Adobe Illustrator 19.0.0, SVG Export Plug-In . SVG Version: 6.00 Build 0)  -->
<svg version="1.1" id="b" xmlns="http://www.w3.org/2000/svg" xmlns:xlink="http://www.w3.org/1999/xlink" x="0px" y="0px"
	 viewBox="0 0 100 100" enable-background="new 0 0 100 100" xml:space="preserve">

	<path id="XMLID_13_" fill="#FFFFFF" d="M50,85.9c-2.5,3.5-5.7,5.2-9.8,5.2c-0.4,0-0.8,0-1.3,0c-0.4,0-0.8-0.1-1.2-0.2
		c-1,0-2.4-0.2-4.2-0.5c-1.8-0.3-3.8-1.1-6.1-2.2c-2-1.7-4.5-2.6-7.6-2.6c-2.3,0-4.4,0.6-6.1,1.7c-0.5,0.2-1.1,0.7-1.8,1.4
		c-1.3,1.4-2.3,2.2-3.2,2.3c-0.6-0.3-0.9-0.9-1-1.6c-0.1-1.5,1-3.5,3.4-6c-0.4,0.1-1.2,0.3-2.4,0.6c-1,0.3-1.7,0.5-2,0.5
		c-1.1,0.1-1.6,0.1-1.7,0c-0.3-0.3-0.2-1.1,0.4-2.2c0.5-0.9,1.6-1.8,3.1-2.5c0.1-0.1,0.7-0.3,1.8-0.8c3.1-1.6,6.2-2.4,9.5-2.4
		c4.9,0,9.3,1.6,13.2,4.9c1.5,0.5,3.1,0.8,4.7,0.8c4.9,0,7.4-2,7.6-6c-3.2-0.3-5.9-0.9-8-1.7c-2.1-0.8-3.2-1.7-3.2-2.8l3.9-13
		c-2.3-3.5-4.2-7.2-5.7-10.9c-1.5-3.7-2.3-7.3-2.3-10.6c0-9.9,5.4-17.6,16.2-22.9c0-0.4,0.1-1,0.2-1.9c-1.1-0.9-1.7-2.1-1.7-3.5
		c0-3,1.5-4.5,4.6-4.5c3,0,4.5,1.5,4.5,4.5c0,1.3-0.5,2.4-1.5,3.3c0,1,0.1,1.7,0.4,2c0.6,0.8,1.3,1.2,2.2,1.3c1-0.1,1.8-0.5,2.4-1.3
		c0.1-0.2,0.3-0.8,0.4-1.8c-0.9-0.9-1.3-2-1.3-3.3c0-3.1,1.5-4.6,4.6-4.6c3.1,0,4.6,1.5,4.6,4.6c0,1.7-0.8,3.1-2.3,4
		c-0.1,0.7-0.2,1.2-0.1,1.6c5.5,6.5,7.9,14,7.2,22.5c-0.2,2.5-0.6,4.9-1.1,7.3c-0.5,2.4-1.4,4.6-2.7,6.6c-0.5,1.1-1.3,2.4-2.4,3.8
		c-1,1.4-1.9,2.6-2.6,3.8l3.9,13c-0.1,1.1-1.1,2-3.3,2.8c-2.1,0.8-4.8,1.3-8,1.7c0.1,4,2.7,6,7.6,6c1.6,0,3.2-0.3,4.7-0.8
		c3.9-3.3,8.2-4.9,13.1-4.9c3.3,0,6.5,0.8,9.5,2.4c0.4,0.2,0.8,0.4,1,0.5c0.3,0.1,0.6,0.2,0.9,0.3c1.5,0.8,2.5,1.6,3,2.5
		c0.1,0.3,0.3,0.7,0.5,1.1c0.2,0.4,0.2,0.8-0.1,1c-0.1,0.1-0.6,0.1-1.7,0c-0.3,0-1-0.2-1.9-0.5c-1.2-0.3-2-0.5-2.5-0.6
		c2.4,2.5,3.5,4.5,3.4,6c0,0.7-0.3,1.3-1,1.6c-0.8-0.1-1.9-0.9-3.2-2.3c-0.7-0.7-1.3-1.1-1.8-1.4c-1.8-1.1-3.8-1.7-6.1-1.7
		c-3.1,0-5.6,0.9-7.6,2.6c-2.2,1.1-4.2,1.9-6.1,2.2c-1.8,0.3-3.2,0.5-4.1,0.5c-0.4,0.1-0.8,0.1-1.2,0.2c-0.4,0-0.8,0-1.2,0
		C55.6,91.1,52.3,89.4,50,85.9z"/>

	<path id="XMLID_4_" d="M50,85.9c-2.5,3.5-5.7,5.2-9.8,5.2c-0.4,0-0.8,0-1.3,0c-0.4,0-0.8-0.1-1.2-0.2c-1,0-2.4-0.2-4.2-0.5
		c-1.8-0.3-3.8-1.1-6.1-2.2c-2-1.7-4.5-2.6-7.6-2.6c-2.3,0-4.4,0.6-6.1,1.7c-0.5,0.2-1.1,0.7-1.8,1.4c-1.3,1.4-2.3,2.2-3.2,2.3
		c-0.6-0.3-0.9-0.9-1-1.6c-0.1-1.5,1-3.5,3.4-6c-0.4,0.1-1.2,0.3-2.4,0.6c-1,0.3-1.7,0.5-2,0.5c-1.1,0.1-1.6,0.1-1.7,0
		c-0.3-0.3-0.2-1.1,0.4-2.2c0.5-0.9,1.6-1.8,3.1-2.5c0.1-0.1,0.7-0.3,1.8-0.8c3.1-1.6,6.2-2.4,9.5-2.4c4.9,0,9.3,1.6,13.2,4.9
		c1.5,0.5,3.1,0.8,4.7,0.8c4.9,0,7.4-2,7.6-6c-3.2-0.3-5.9-0.9-8-1.7c-2.1-0.8-3.2-1.7-3.2-2.8l3.9-13c-2.3-3.5-4.2-7.2-5.7-10.9
		c-1.5-3.7-2.3-7.3-2.3-10.6c0-9.9,5.4-17.6,16.2-22.9c0-0.4,0.1-1,0.2-1.9c-1.1-0.9-1.7-2.1-1.7-3.5c0-3,1.5-4.5,4.6-4.5
		c3,0,4.5,1.5,4.5,4.5c0,1.3-0.5,2.4-1.5,3.3c0,1,0.1,1.7,0.4,2c0.6,0.8,1.3,1.2,2.2,1.3c1-0.1,1.8-0.5,2.4-1.3
		c0.1-0.2,0.3-0.8,0.4-1.8c-0.9-0.9-1.3-2-1.3-3.3c0-3.1,1.5-4.6,4.6-4.6c3.1,0,4.6,1.5,4.6,4.6c0,1.7-0.8,3.1-2.3,4
		c-0.1,0.7-0.2,1.2-0.1,1.6c5.5,6.5,7.9,14,7.2,22.5c-0.2,2.5-0.6,4.9-1.1,7.3c-0.5,2.4-1.4,4.6-2.7,6.6c-0.5,1.1-1.3,2.4-2.4,3.8
		c-1,1.4-1.9,2.6-2.6,3.8l3.9,13c-0.1,1.1-1.1,2-3.3,2.8c-2.1,0.8-4.8,1.3-8,1.7c0.1,4,2.7,6,7.6,6c1.6,0,3.2-0.3,4.7-0.8
		c3.9-3.3,8.2-4.9,13.1-4.9c3.3,0,6.5,0.8,9.5,2.4c0.4,0.2,0.8,0.4,1,0.5c0.3,0.1,0.6,0.2,0.9,0.3c1.5,0.8,2.5,1.6,3,2.5
		c0.1,0.3,0.3,0.7,0.5,1.1c0.2,0.4,0.2,0.8-0.1,1c-0.1,0.1-0.6,0.1-1.7,0c-0.3,0-1-0.2-1.9-0.5c-1.2-0.3-2-0.5-2.5-0.6
		c2.4,2.5,3.5,4.5,3.4,6c0,0.7-0.3,1.3-1,1.6c-0.8-0.1-1.9-0.9-3.2-2.3c-0.7-0.7-1.3-1.1-1.8-1.4c-1.8-1.1-3.8-1.7-6.1-1.7
		c-3.1,0-5.6,0.9-7.6,2.6c-2.2,1.1-4.2,1.9-6.1,2.2c-1.8,0.3-3.2,0.5-4.1,0.5c-0.4,0.1-0.8,0.1-1.2,0.2c-0.4,0-0.8,0-1.2,0
		C55.6,91.1,52.3,89.4,50,85.9z M60.3,62c-2.8-0.7-6.2-1.1-10.2-1.1c-3.7,0-7,0.3-9.9,1l-0.7,1.9l4.2,0.9l-4.3,2.8l-1-0.2l-1.1,3.5
		c0.7-0.7,2.2-1.3,4.6-1.8c2.4-0.5,5.2-0.7,8.4-0.7c3.1,0,5.8,0.2,8.2,0.7c2.4,0.5,3.9,1,4.6,1.7l-1.2-3.5l-1.2,0.3l-4.3-2.8
		l4.4-0.9L60.3,62z M60.1,59.2l-0.9-3.3c-2.6-0.7-5.7-1.1-9.2-1.1c-3.3,0-6.3,0.3-8.9,1l-1,3.3C43,58.4,46.3,58,50,58
		C53.9,58,57.3,58.4,60.1,59.2z M58.7,36.5V31h-5.9v-7.6h-5.4V31h-6v5.5h6v10.9h5.4V36.5H58.7z M43.5,84.1c-0.4,0.3-0.6,0.7-0.6,1.2
		c0,1,0.5,1.5,1.5,1.5c0.3,0,0.5-0.1,0.8-0.3c0.5-0.3,1.1-0.7,1.6-1.2c1.1-1.1,1.9-1.9,2.4-2.2c0.1-0.1,0.1-0.2,0.1-0.4
		c0-1.3-0.6-1.9-1.9-1.9c-0.2,0-0.4,0.1-0.6,0.3c-0.3,0.3-0.7,0.6-1.1,0.9c-0.4,0.3-0.8,0.7-1,1.1C44.3,83.5,44,83.8,43.5,84.1z
		 M54.7,64.5l-4.7,2l-4.7-2l4.7-1.9L54.7,64.5z M56.4,84.1c-0.5-0.3-1.3-1-2.2-2.1c-0.2-0.1-0.4-0.3-0.5-0.4
		c-0.2-0.2-0.3-0.4-0.5-0.6c-0.3-0.1-0.5-0.2-0.8-0.2c-1.7,0-2.3,0.6-1.9,1.9c0.2,0.3,0.3,0.4,0.2,0.4c0.3,0.2,1.1,0.9,2.4,2.2
		c0.6,0.6,1.2,1,1.7,1.3c0.3,0.2,0.6,0.3,0.9,0.3c1,0,1.5-0.5,1.5-1.5C57.2,85,56.9,84.6,56.4,84.1z M68.3,39.5c0.5-1.7,0-5-1.5-9.8
		c-1.5-4.8-3.7-8.8-6.8-12c-0.4-0.3-0.8-0.4-1.2-0.4c-0.6,0.1-1.1,0.3-1.6,0.7c-0.5,0.4-0.5,0.9-0.2,1.5c3.8,2.5,6.7,6,8.5,10.5
		C67.5,34.4,68.4,37.6,68.3,39.5z"/>

</svg>
