<?xml version="1.0" encoding="utf-8"?>
<!-- Generator: Adobe Illustrator 19.0.0, SVG Export Plug-In . SVG Version: 6.00 Build 0)  -->
<svg version="1.1" id="n" xmlns="http://www.w3.org/2000/svg" xmlns:xlink="http://www.w3.org/1999/xlink" x="0px" y="0px"
	 viewBox="0 0 100 100" enable-background="new 0 0 100 100" xml:space="preserve">

	<path id="XMLID_12_" fill="#FFFFFF" d="M32.4,62.8c-0.5,0.5-0.9,0.9-1.2,1.1s-0.5,0.4-0.8,0.6c-0.1,0.1-1.2,1.2-3.1,3.2
		c-0.7,0.8-1.6,1.3-2.7,1.6c-0.7,0.2-1.6,0.1-2.9-0.3c-4.1-1.1-7.3-3.2-9.6-6.4c-0.9-1.2-1.6-2.7-2-4.4c-0.4-1.7-0.2-3.9,0.5-6.5
		c0.7-2.7,3.2-5.7,7.7-9.1c4.9-3.7,7.7-6.7,8.6-8.9c0.7-1.3,1.6-2.7,2.5-4.2c0.9-1.5,2-3,3.3-4.4c0.8-0.5,1.5-1.2,2.3-1.9
		c0.7-0.7,1.4-1.5,2-2.3v-6c1.8,0.3,3.1,0.8,4,1.5c0.4,0.5,0.8,0.9,1.3,1.3c0.5,0.4,0.9,0.8,1.3,1.1c0.8-1.5,1.3-2.7,1.5-3.7
		c0.1-0.2,0.2-0.6,0.4-1.4c0.2-0.7,0.4-1.8,0.6-3.3c0.5-0.1,0.9,0,1.2,0.4c1.5,1.7,3,3.5,4.3,5.6c5.9,2.4,11.4,5.2,16.3,8.5
		c4.9,3.3,8.7,6.7,11.4,10.2c7.5,10.1,11.2,25,11.2,44.7c0,4.1-0.2,7.9-0.7,11.3H23.3c-0.5-4.2,1.8-8.7,6.7-13.5
		c2.2-2.1,4.5-4.2,6.9-6.2c2.4-2,4.7-4.1,7-6.2c4.3-3.9,6.6-7,7.1-9.3c-0.2-0.4-0.5-0.7-1-0.8c-1.1,0.7-2.3,1.1-3.4,1.3
		c-1.1,0.2-2.3,0.3-3.4,0.4c-0.7,0-1.4,0-2,0c-0.7,0-1.5-0.1-2.5-0.5c-1.3,1.4-2.4,2.6-3.3,3.7C34.5,61.1,33.5,62,32.4,62.8z"/>

	<path id="XMLID_4_" d="M32.4,62.8c-0.5,0.5-0.9,0.9-1.2,1.1s-0.5,0.4-0.8,0.6c-0.1,0.1-1.2,1.2-3.1,3.2c-0.7,0.8-1.6,1.3-2.7,1.6
		c-0.7,0.2-1.6,0.1-2.9-0.3c-4.1-1.1-7.3-3.2-9.6-6.4c-0.9-1.2-1.6-2.7-2-4.4c-0.4-1.7-0.2-3.9,0.5-6.5c0.7-2.7,3.2-5.7,7.7-9.1
		c4.9-3.7,7.7-6.7,8.6-8.9c0.7-1.3,1.6-2.7,2.5-4.2c0.9-1.5,2-3,3.3-4.4c0.8-0.5,1.5-1.2,2.3-1.9c0.7-0.7,1.4-1.5,2-2.3v-6
		c1.8,0.3,3.1,0.8,4,1.5c0.4,0.5,0.8,0.9,1.3,1.3c0.5,0.4,0.9,0.8,1.3,1.1c0.8-1.5,1.3-2.7,1.5-3.7c0.1-0.2,0.2-0.6,0.4-1.4
		c0.2-0.7,0.4-1.8,0.6-3.3c0.5-0.1,0.9,0,1.2,0.4c1.5,1.7,3,3.5,4.3,5.6c5.9,2.4,11.4,5.2,16.3,8.5c4.9,3.3,8.7,6.7,11.4,10.2
		c7.5,10.1,11.2,25,11.2,44.7c0,4.1-0.2,7.9-0.7,11.3H23.3c-0.5-4.2,1.8-8.7,6.7-13.5c2.2-2.1,4.5-4.2,6.9-6.2c2.4-2,4.7-4.1,7-6.2
		c4.3-3.9,6.6-7,7.1-9.3c-0.2-0.4-0.5-0.7-1-0.8c-1.1,0.7-2.3,1.1-3.4,1.3c-1.1,0.2-2.3,0.3-3.4,0.4c-0.7,0-1.4,0-2,0
		c-0.7,0-1.5-0.1-2.5-0.5c-1.3,1.4-2.4,2.6-3.3,3.7C34.5,61.1,33.5,62,32.4,62.8z M18.6,56.2c0.3-0.5,0.7-0.9,1.1-1.4
		c0.4-0.5,0.8-1,1.1-1.6c0.7-1.2,0.4-1.9-0.9-2.1c-0.2,0-0.5,0-0.8,0.1c-0.8,1-1.7,2-2.8,3.1c-0.3,0.3-0.6,0.6-0.9,0.8
		c-0.3,0.8-0.3,1.4-0.1,1.8c0.4,0.8,1.1,0.9,2.2,0.2C18,56.7,18.3,56.4,18.6,56.2z M24.2,64.8c0.3-0.5,0.8-1.1,1.3-1.7
		c0.5-0.6,0.9-1.2,1.3-2c0.7-1.5,0.4-2.3-1-2.6c-0.3-0.1-0.6,0-0.9,0.1c-0.9,1.3-2,2.5-3.1,3.8c-0.1,0.1-0.5,0.5-1.1,1
		c-0.3,1-0.4,1.8-0.1,2.3c0.5,0.9,1.3,1,2.4,0.2C23.5,65.6,23.9,65.2,24.2,64.8z M33,34.5c0.2,1.4,0.6,2.2,1.1,2.4
		c0.5,0.2,1.3,0.3,2.2,0.2c1.3-0.1,2.2-0.3,2.9-0.8c1.4-0.9,2.6-2.8,3.7-5.7c-1.1,0.3-2.1,0.5-3,0.5c-0.9,0-2,0-3.3,0.1
		C34.9,31.4,33.7,32.5,33,34.5z M41.4,52.3c0.1-0.4,0.2-0.8,0.3-1.2c0.2-0.4,0.3-0.8,0.3-1.2c0.3-1.3,0-1.9-1.1-1.9
		c-0.3,0-0.8,0.3-1.3,0.9c-0.2,0.5-0.4,1-0.7,1.5c-0.2,0.5-0.4,1-0.5,1.4c-0.1,0.3-0.2,0.7-0.4,1.3c-0.1,0.5,0.1,0.8,0.6,1.1
		c0.7,0.4,1.4,0.1,2.1-0.9C41,53.2,41.2,52.8,41.4,52.3z M56.4,56.9c0.8-0.2,1.7-0.4,2.8-0.6c1-0.2,2.1-0.5,3.3-0.9
		c1.1-0.3,1.4-0.9,1.1-1.7c-0.3-0.4-0.6-0.6-1-0.6C60.2,53.7,58,54,55.9,54c0.8-0.3,1.6-0.5,2.5-0.8c0.9-0.3,1.7-0.7,2.5-1
		c2.5-1.2,4.2-3.8,5-7.9c0.1-0.9-0.2-1.5-0.9-1.6c-0.7-0.1-1.3,0.2-1.6,0.8c-0.8,2.9-2,4.8-3.7,5.9c-0.6,0.3-1.2,0.6-1.8,0.9
		c-0.6,0.2-1.2,0.5-1.8,0.8c0.7-0.7,1.3-1.6,1.8-2.5c1-1.7,1.7-4.7,2-9c-0.2-1.1-0.8-1.6-1.7-1.3c-0.3,0.2-0.5,0.4-0.6,0.5
		c-0.5,4.6-1.3,7.6-2.3,9.1c-0.4,0.3-0.7,0.6-0.8,0.9c-0.3,0.3-0.5,0.5-0.8,0.7c-0.2,0.2-0.5,0.4-0.8,0.6c-0.5,0.7-0.8,1.5-0.8,2.4
		c0,1.1,0.3,2.2,1,3C53.9,56.4,54.9,56.9,56.4,56.9z M52.9,24c9,4.4,15.7,9.8,20,16.3c2.6,4,4.3,8.8,5.3,14.3
		c0.9,5.5,1.3,11.6,1.3,18.4c-0.2,2.7,0.5,5,2.2,7c1.7,2,3.5,2.8,5.5,2.3c0.7-19.8-2.8-34.9-10.5-45.2C74.4,34,71.1,31,66.9,28
		c-4.2-2.9-8.9-5.6-14.1-7.9c0,0.7,0,1.4,0,2.1C52.9,22.9,52.9,23.5,52.9,24z"/>

</svg>
