<?xml version="1.0" encoding="utf-8"?>
<!-- Generator: Adobe Illustrator 19.0.0, SVG Export Plug-In . SVG Version: 6.00 Build 0)  -->
<svg version="1.1" id="p" xmlns="http://www.w3.org/2000/svg" xmlns:xlink="http://www.w3.org/1999/xlink" x="0px" y="0px"
	 viewBox="0 0 100 100" enable-background="new 0 0 100 100" xml:space="preserve">

	<path id="XMLID_4_" d="M49.9,91H23.3c0.6-7,3.6-12.9,8.9-17.7c0.9-0.8,1.4-1.2,1.5-1.3c2.8-2.3,5.2-5.1,7.1-8.2
		c-5-3.3-7.5-7.9-7.5-13.9c0-3.7,1.1-7.1,3.3-10c0.8-0.9,1.6-2,2.5-3.2c0.8-1.2,1.5-2.4,2-3.6c-0.7,0.2-1.9,0.5-3.5,1
		c-1.6,0.4-2.8,0.8-3.5,1.1c2.3-2.1,4.4-4.6,6.5-7.5c2-2.9,3.2-5.9,3.5-9.1c-1.7-1.7-2.5-3.7-2.5-6c0-2.3,0.8-4.2,2.4-5.9
		c1.6-1.6,3.6-2.4,5.9-2.4c2.3,0,4.2,0.8,5.8,2.4c1.6,1.6,2.5,3.6,2.5,5.9c0,2.3-0.8,4.3-2.5,6c0.3,3.2,1.5,6.2,3.6,9.1
		c2.1,2.9,4.2,5.4,6.5,7.5c-0.7-0.3-1.9-0.7-3.5-1.1c-1.6-0.4-2.8-0.8-3.5-1c0.5,1.2,1.1,2.4,2,3.6c0.9,1.2,1.7,2.3,2.5,3.2
		c2.3,2.9,3.4,6.3,3.4,10c0,6-2.5,10.6-7.6,13.9c1.9,3.1,4.2,5.9,7.1,8.2c0.5,0.4,0.9,0.8,1.4,1.3c5.4,4.8,8.4,10.7,9,17.7H49.9z"/>

</svg>
