<?xml version="1.0" encoding="utf-8"?>
<!-- Generator: Adobe Illustrator 19.0.0, SVG Export Plug-In . SVG Version: 6.00 Build 0)  -->
<svg version="1.1" id="Q" xmlns="http://www.w3.org/2000/svg" xmlns:xlink="http://www.w3.org/1999/xlink" x="0px" y="0px"
	 viewBox="0 0 100 100" enable-background="new 0 0 100 100" xml:space="preserve">

	<path id="XMLID_23_" fill="#FFFFFF" d="M52.4,15.7c0.5,5.3,0.9,10.5,1.4,15.8c0.5,5.3,1,10.5,1.6,15.7c0,0.7,0.4,1.1,1.1,1.1
		c0.5,0,0.9-0.2,1.1-0.6c2.8-6.9,4.9-12.2,6.3-16c1.4-3.8,2.2-6.1,2.5-6.9c-1.5-1.4-2.2-3-2.2-4.8c0-1.6,0.6-2.9,1.7-4
		c1.1-1.1,2.5-1.6,4-1.6c1.6,0,3,0.5,4.1,1.6c1.1,1.1,1.7,2.5,1.7,4c0,2.8-1.5,4.7-4.4,5.7L67.6,47c-0.1,1,0.2,1.5,1,1.5
		c0.7,0,1.2-0.2,1.6-0.6c3.9-3.9,6.7-6.9,8.4-9.1c1.7-2.2,2.9-3.6,3.6-4.4c-0.7-0.9-1.1-2.1-1.1-3.4c0-3.9,1.9-5.8,5.7-5.8
		c1.6,0,3,0.6,4,1.7c1.1,1.1,1.7,2.5,1.7,4.1c0,1.5-0.5,2.9-1.7,4c-1.1,1.1-2.4,1.7-4,1.7c-0.5,0-0.9-0.1-1.3-0.2
		c-2.6,5.7-4.7,11.4-6.2,17.3c-1.3,4.8-2.2,9.3-2.5,13.6l0.3,1.4c-0.1-0.3,0,0.1,0.2,1.2c0.1,0.5,0.2,1,0.2,1.5
		c-0.2,0.5-0.6,1.1-1.2,1.7c-0.5,0.7-0.9,1.9-1.2,3.7c1.2,1.7,1.8,3,1.8,4.1c0,2.7-2.6,5.1-7.9,7.1c-5.3,2-11.6,2.9-19,2.9
		c-7.5,0-13.8-1-19-2.9c-5.2-2-7.9-4.3-7.9-7.1c0-1.1,0.6-2.5,1.9-4.2c-0.4-1.9-0.8-3.1-1.3-3.6c-0.7-0.6-1.1-1.2-1.3-1.7
		c0-0.5,0.1-1,0.2-1.5c0.1-0.3,0.1-0.5,0.1-0.7c0-0.2,0-0.4,0-0.5c0.1-0.3,0.3-0.8,0.4-1.5c-0.3-4.1-1.1-8.6-2.4-13.5
		c-1.7-6.2-3.8-12-6.3-17.4c-0.5,0.2-1.1,0.3-1.7,0.3c-3.8,0-5.7-1.9-5.7-5.7c0-3.9,1.9-5.8,5.7-5.8c3.8,0,5.7,1.9,5.7,5.8
		c0,1.1-0.3,2.2-0.9,3.1c1.9,2.5,3.9,4.8,5.8,6.9c1.9,2.1,4.1,4.4,6.5,6.9c0.3,0.5,0.7,0.7,1.2,0.7c0.9,0,1.4-0.5,1.3-1.5
		c-0.1-0.3-0.5-2.6-1.3-6.9c-0.8-4.4-1.6-9.1-2.5-14.3C25.6,25,24.1,23,24.1,20c0-1.6,0.6-2.9,1.7-4c1.1-1.1,2.5-1.6,4-1.6
		c3.8,0,5.7,1.9,5.7,5.7c0,1.7-0.6,3.2-1.9,4.6c0.1,0.7,0.5,2,1.2,4.1c0.7,2,1.7,4.7,3,8c0.7,1.8,1.5,3.6,2.3,5.5
		c0.8,1.9,1.5,3.7,2.4,5.5c0.2,0.4,0.5,0.6,1,0.6c0.7-0.1,1.1-0.4,1.2-1.1c0.1-0.4,1.1-10.9,3-31.5c-2.3-1.2-3.5-3-3.5-5.5
		c0-1.5,0.6-2.9,1.7-4c1.1-1.2,2.5-1.8,4-1.8c1.6,0,3,0.6,4,1.8c1.1,1.2,1.7,2.5,1.7,4C55.5,12.4,54.5,14.3,52.4,15.7z"/>

	<path id="XMLID_4_" d="M52.4,15.7c0.5,5.3,0.9,10.5,1.4,15.8c0.5,5.3,1,10.5,1.6,15.7c0,0.7,0.4,1.1,1.1,1.1c0.5,0,0.9-0.2,1.1-0.6
		c2.8-6.9,4.9-12.2,6.3-16c1.4-3.8,2.2-6.1,2.5-6.9c-1.5-1.4-2.2-3-2.2-4.8c0-1.6,0.6-2.9,1.7-4c1.1-1.1,2.5-1.6,4-1.6
		c1.6,0,3,0.5,4.1,1.6c1.1,1.1,1.7,2.5,1.7,4c0,2.8-1.5,4.7-4.4,5.7L67.6,47c-0.1,1,0.2,1.5,1,1.5c0.7,0,1.2-0.2,1.6-0.6
		c3.9-3.9,6.7-6.9,8.4-9.1c1.7-2.2,2.9-3.6,3.6-4.4c-0.7-0.9-1.1-2.1-1.1-3.4c0-3.9,1.9-5.8,5.7-5.8c1.6,0,3,0.6,4,1.7
		c1.1,1.1,1.7,2.5,1.7,4.1c0,1.5-0.5,2.9-1.7,4c-1.1,1.1-2.4,1.7-4,1.7c-0.5,0-0.9-0.1-1.3-0.2c-2.6,5.7-4.7,11.4-6.2,17.3
		c-1.3,4.8-2.2,9.3-2.5,13.6l0.3,1.4c-0.1-0.3,0,0.1,0.2,1.2c0.1,0.5,0.2,1,0.2,1.5c-0.2,0.5-0.6,1.1-1.2,1.7
		c-0.5,0.7-0.9,1.9-1.2,3.7c1.2,1.7,1.8,3,1.8,4.1c0,2.7-2.6,5.1-7.9,7.1c-5.3,2-11.6,2.9-19,2.9c-7.5,0-13.8-1-19-2.9
		c-5.2-2-7.9-4.3-7.9-7.1c0-1.1,0.6-2.5,1.9-4.2c-0.4-1.9-0.8-3.1-1.3-3.6c-0.7-0.6-1.1-1.2-1.3-1.7c0-0.5,0.1-1,0.2-1.5
		c0.1-0.3,0.1-0.5,0.1-0.7c0-0.2,0-0.4,0-0.5c0.1-0.3,0.3-0.8,0.4-1.5c-0.3-4.1-1.1-8.6-2.4-13.5c-1.7-6.2-3.8-12-6.3-17.4
		c-0.5,0.2-1.1,0.3-1.7,0.3c-3.8,0-5.7-1.9-5.7-5.7c0-3.9,1.9-5.8,5.7-5.8c3.8,0,5.7,1.9,5.7,5.8c0,1.1-0.3,2.2-0.9,3.1
		c1.9,2.5,3.9,4.8,5.8,6.9c1.9,2.1,4.1,4.4,6.5,6.9c0.3,0.5,0.7,0.7,1.2,0.7c0.9,0,1.4-0.5,1.3-1.5c-0.1-0.3-0.5-2.6-1.3-6.9
		c-0.8-4.4-1.6-9.1-2.5-14.3C25.6,25,24.1,23,24.1,20c0-1.6,0.6-2.9,1.7-4c1.1-1.1,2.5-1.6,4-1.6c3.8,0,5.7,1.9,5.7,5.7
		c0,1.7-0.6,3.2-1.9,4.6c0.1,0.7,0.5,2,1.2,4.1c0.7,2,1.7,4.7,3,8c0.7,1.8,1.5,3.6,2.3,5.5c0.8,1.9,1.5,3.7,2.4,5.5
		c0.2,0.4,0.5,0.6,1,0.6c0.7-0.1,1.1-0.4,1.2-1.1c0.1-0.4,1.1-10.9,3-31.5c-2.3-1.2-3.5-3-3.5-5.5c0-1.5,0.6-2.9,1.7-4
		c1.1-1.2,2.5-1.8,4-1.8c1.6,0,3,0.6,4,1.8c1.1,1.2,1.7,2.5,1.7,4C55.5,12.4,54.5,14.3,52.4,15.7z M12.8,27.7
		c-2.2,0-3.3,1.1-3.3,3.3c0,2.2,1.1,3.3,3.3,3.3c2.2,0,3.3-1.1,3.3-3.3C16.1,28.8,15,27.7,12.8,27.7z M29.9,51.6
		c-0.9-0.8-2.3-2.3-4.2-4.6c-3.3-3.7-5.1-5.6-5.5-5.6c-0.3,0-0.5,0.2-0.5,0.7c0,0.6,0.5,1.8,1.6,3.5c0.9,2.6,1.6,5,2.2,7.1
		C25,52.5,27.1,52.1,29.9,51.6z M24.3,56.4c0.4,1.6,0.8,3,1.1,4.3c0.3,1.3,0.5,2.7,0.8,4.2c0.3,0.1,0.6,0.2,0.9,0.2
		c5.8-2.2,13.4-3.3,22.9-3.3c9.6,0,17.4,1.1,23.3,3.3c0.3-0.1,0.6-0.1,0.7-0.2c0.2-1.5,0.5-2.8,0.8-4c0.3-1.2,0.7-2.7,1.1-4.3
		c-3.7-1.1-7.8-2-12.1-2.7c-4.4-0.7-8.9-1-13.7-1c-4.7,0-9.3,0.3-13.5,1S28.1,55.5,24.3,56.4z M35.1,69.7l-5-1.7l-3.9,3.1l4.9,1.6
		L35.1,69.7z M29.8,16.6c-2.2,0-3.3,1.1-3.3,3.4c0,2.1,1.1,3.2,3.3,3.2s3.3-1.1,3.3-3.2C33.1,17.8,32,16.6,29.8,16.6z M50,74.9
		c-6.2,0-11.5,0.5-15.8,1.4s-6.5,2.3-6.5,4.1s2.2,3.3,6.5,4.3c4.3,1.1,9.5,1.7,15.8,1.7c6.1,0,11.4-0.5,15.8-1.7
		c4.4-1.1,6.7-2.5,6.7-4.3s-2.2-3.2-6.7-4.1S56.1,74.9,50,74.9z M41.4,50.6c-0.8-0.7-1.6-1.8-2.4-3.5c-0.9-1.9-2.1-4.9-3.4-9
		c-0.5-1.6-1-2.9-1.5-4c-0.5-1.1-0.8-1.6-1-1.6c-0.1,0-0.1,0.3-0.1,0.8s0,0.9,0,1.2c0,0.9,0.4,3.1,1.2,6.7c0.8,3.7,1.2,6.4,1.2,8
		c0.1,0.9,0,1.6-0.3,2.1C36.8,51,38.9,50.8,41.4,50.6z M39.2,66.2c-1.7,0-2.6,0.9-2.6,2.7s0.9,2.7,2.6,2.7c1.7,0,2.6-0.9,2.6-2.7
		S40.9,66.2,39.2,66.2z M56.2,67.7l-6.3-3.3l-6.1,3.3l6.3,3.3L56.2,67.7z M54,50.5c-0.9-1.1-1.6-2.9-1.9-5.4
		c-0.1-1.1-0.3-2.5-0.5-4.4c-0.2-1.9-0.4-4.3-0.5-7.1c-0.1-2.1-0.2-3.9-0.4-5.4c-0.2-1.5-0.5-2.3-0.7-2.3c-0.3,0.1-0.5,0.8-0.7,2.3
		s-0.3,3.3-0.4,5.4c-0.1,2.8-0.3,5.1-0.6,7.1c-0.2,1.9-0.4,3.4-0.5,4.4c-0.3,2.7-0.9,4.5-1.8,5.4c0.6,0,1.2-0.1,1.9-0.2
		c0.7-0.1,1.4-0.2,2.1-0.2c0.7,0,1.3,0.1,2,0.2C52.7,50.5,53.3,50.5,54,50.5z M49.8,6.9c-2.1,0-3.2,1.1-3.2,3.3s1.1,3.3,3.2,3.3
		c2.2,0,3.3-1.1,3.3-3.3S52,6.9,49.8,6.9z M60.7,66.2c-1.7,0-2.6,0.9-2.6,2.7s0.9,2.7,2.6,2.7c1.8,0,2.7-0.9,2.7-2.7
		S62.5,66.2,60.7,66.2z M64.9,51.1c-0.3-0.5-0.4-1.1-0.4-2c0-1.7,0.4-4.3,1.2-8c0.8-3.7,1.2-5.9,1.2-6.7c0-1,0-1.5,0-1.6
		c-0.5-0.1-1.3,1.7-2.5,5.3c-1.3,3.8-2.4,6.8-3.4,9c-0.8,1.5-1.6,2.7-2.4,3.6C60.1,50.8,62.2,50.9,64.9,51.1z M73.3,71.2l-3.5-3.4
		l-4.5,1.8l3.6,3.4L73.3,71.2z M69.8,16.6c-2.2,0-3.3,1.1-3.3,3.4c0,2.1,1.1,3.2,3.3,3.2s3.3-1.1,3.3-3.2
		C73.1,17.8,72,16.6,69.8,16.6z M76.6,52.7c0.3-1.2,0.6-2.4,1-3.5c0.4-1.2,0.8-2.4,1.2-3.6c1.1-1.9,1.6-3.1,1.6-3.5
		c0-0.5-0.2-0.7-0.5-0.7c-0.5,0-2.4,1.8-5.5,5.5c-1,1.1-1.8,2.1-2.5,2.9c-0.7,0.8-1.2,1.4-1.7,1.9C72.3,52,74.5,52.3,76.6,52.7z
		 M86.8,27.7c-2.2,0-3.3,1.1-3.3,3.3c0,2.2,1.1,3.3,3.3,3.3s3.3-1.1,3.3-3.3C90.1,28.8,89,27.7,86.8,27.7z"/>

</svg>
