<?xml version="1.0" encoding="utf-8"?>
<!-- Generator: Adobe Illustrator 19.0.0, SVG Export Plug-In . SVG Version: 6.00 Build 0)  -->
<svg version="1.1" id="R" xmlns="http://www.w3.org/2000/svg" xmlns:xlink="http://www.w3.org/1999/xlink" x="0px" y="0px"
	 viewBox="0 0 100 100" enable-background="new 0 0 100 100" xml:space="preserve">

	<path id="XMLID_24_" fill="#FFFFFF" d="M50,4.4h6.7v6.7h10.1V4.4h11.7v17.5L70.6,31c1.7,2.1,1.7,4.4,0.1,6.7
		c-0.3,0.5-0.4,0.9-0.4,1.2c0,0.4,0.1,0.8,0.4,1.2c0.7,1,1,2.4,1,4.3c0,1.9-0.4,3.3-1.1,4.3c-0.2,0.3-0.3,0.7-0.3,1.1
		s0.1,0.8,0.4,1.2c1.5,2.3,1.5,4.6-0.1,6.9c-0.2,0.3-0.3,0.7-0.3,1.1c0,0.3,0.1,0.7,0.3,1.1c0.7,1.1,1.1,2.5,1.1,4.5
		c0,1.9-0.4,3.3-1.2,4.3l8,3.9v4.2h3.2v14.2H50H18.2V77h3.3v-4.2l7.9-4c-0.8-0.9-1.2-2.3-1.2-4.2c0-1.9,0.4-3.3,1.1-4.4
		c0.3-0.4,0.4-0.8,0.4-1.2c0-0.3-0.1-0.7-0.4-1.1c-1.6-2.3-1.6-4.5-0.1-6.8c0.3-0.5,0.5-1,0.5-1.3c0-0.3-0.1-0.7-0.4-1.1
		c-0.7-1-1-2.4-1-4.3c0-1.9,0.3-3.3,1-4.3c0.3-0.4,0.5-0.8,0.5-1.2c0-0.3-0.1-0.7-0.4-1.1c-1.7-2.4-1.6-4.7,0.1-6.8l-7.9-9.1V4.5
		h11.6v6.6h10.1V4.5L50,4.4z"/>

	<path id="XMLID_4_" d="M50,4.4h6.7v6.7h10.1V4.4h11.7v17.5L70.6,31c1.7,2.1,1.7,4.4,0.1,6.7c-0.3,0.5-0.4,0.9-0.4,1.2
		c0,0.4,0.1,0.8,0.4,1.2c0.7,1,1,2.4,1,4.3c0,1.9-0.4,3.3-1.1,4.3c-0.2,0.3-0.3,0.7-0.3,1.1s0.1,0.8,0.4,1.2
		c1.5,2.3,1.5,4.6-0.1,6.9c-0.2,0.3-0.3,0.7-0.3,1.1c0,0.3,0.1,0.7,0.3,1.1c0.7,1.1,1.1,2.5,1.1,4.5c0,1.9-0.4,3.3-1.2,4.3l8,3.9
		v4.2h3.2v14.2H50H18.2V77h3.3v-4.2l7.9-4c-0.8-0.9-1.2-2.3-1.2-4.2c0-1.9,0.4-3.3,1.1-4.4c0.3-0.4,0.4-0.8,0.4-1.2
		c0-0.3-0.1-0.7-0.4-1.1c-1.6-2.3-1.6-4.5-0.1-6.8c0.3-0.5,0.5-1,0.5-1.3c0-0.3-0.1-0.7-0.4-1.1c-0.7-1-1-2.4-1-4.3
		c0-1.9,0.3-3.3,1-4.3c0.3-0.4,0.5-0.8,0.5-1.2c0-0.3-0.1-0.7-0.4-1.1c-1.7-2.4-1.6-4.7,0.1-6.8l-7.9-9.1V4.5h11.6v6.6h10.1V4.5
		L50,4.4z M21.7,80.3v7.5h56.6v-7.5H21.7z M75,7.8h-5v6.8H53.3V7.8h-6.6v6.8H30V7.8h-5c0,2.1,0,4.1,0,6.2c0,2.1,0,4.1,0,6.2
		c4.1-0.3,8.3-0.5,12.5-0.8c4.2-0.2,8.3-0.4,12.5-0.4c7.9,0,16.3,0.4,25,1.1V7.8z M50,70.4c-6.8,0-12.9,0.2-18.4,0.6L25,74.6V77h50
		v-2.4c-1.1-0.6-2.3-1.2-3.3-1.8c-1.1-0.6-2.2-1.2-3.3-1.8C62.5,70.6,56.4,70.4,50,70.4z M32,28.6c5.5-0.9,11.5-1.4,18-1.4
		c6.5,0,12.6,0.5,18.2,1.4L71,25c-6.7-1.2-13.7-1.8-21-1.8c-7.4,0-14.4,0.6-21.1,1.8L32,28.6z M32.1,31.1c-1.1,0.8-1.6,1.9-1.6,3.4
		c0,1.4,0.5,2.5,1.6,3.4c1,0.8,2.5,1.2,4.5,1.2c2,0,3.5-0.4,4.5-1.2c1.1-0.8,1.6-1.9,1.6-3.4c0-1.4-0.5-2.5-1.6-3.4
		C40,30.4,38.5,30,36.5,30C34.6,30,33.1,30.4,32.1,31.1z M32.1,51.2c-1.1,0.7-1.6,1.8-1.6,3.3c0,1.5,0.5,2.6,1.6,3.3
		c1,0.8,2.5,1.2,4.5,1.2c2,0,3.5-0.4,4.5-1.2c1.1-0.7,1.6-1.8,1.6-3.3c0-1.5-0.5-2.6-1.6-3.3C40,50.4,38.5,50,36.5,50
		C34.6,50,33.1,50.4,32.1,51.2z M31.6,41.1C31.2,41.9,31,43,31,44.4c0,1.5,0.2,2.6,0.6,3.3c0.4,0.8,1,1.2,1.8,1.2
		c0.8,0,1.3-0.4,1.7-1.2c0.4-0.7,0.6-1.8,0.6-3.3c0-1.5-0.2-2.6-0.6-3.3c-0.3-0.7-0.9-1.1-1.7-1.1C32.6,40,32,40.4,31.6,41.1z
		 M31.6,61.1c-0.4,0.8-0.6,1.9-0.6,3.3c0,1.4,0.2,2.5,0.6,3.4c0.4,0.7,1,1.1,1.8,1.1c0.8,0,1.3-0.4,1.7-1.1c0.4-0.8,0.6-1.9,0.6-3.4
		c0-1.4-0.2-2.5-0.6-3.3c-0.3-0.7-0.9-1-1.7-1C32.6,60.1,32,60.5,31.6,61.1z M39.1,41.1c-1,0.7-1.5,1.8-1.5,3.3
		c0,1.5,0.5,2.6,1.5,3.3c0.9,0.8,2.3,1.2,4.2,1.2c1.9,0,3.3-0.4,4.2-1.2c1-0.7,1.5-1.8,1.5-3.3c0-1.5-0.5-2.6-1.5-3.3
		c-0.9-0.8-2.3-1.2-4.2-1.2C41.4,39.9,40,40.3,39.1,41.1z M39.1,61.1c-1,0.8-1.5,2-1.5,3.5c0,1.6,0.5,2.6,1.5,3.2
		c0.9,0.5,2.4,0.7,4.4,0.7c2,0,3.3-0.2,4-0.7c0.8-0.5,1.3-1.6,1.3-3.2c0.1-1.6-0.3-2.8-1.3-3.5c-0.9-0.7-2.3-1.1-4.2-1.1
		C41.4,60,40,60.4,39.1,61.1z M45.7,31.1c-1,0.8-1.5,1.9-1.5,3.4c0,1.4,0.5,2.5,1.5,3.4c1,0.8,2.4,1.2,4.3,1.2
		c1.9,0,3.3-0.4,4.3-1.2c0.9-0.8,1.4-1.9,1.4-3.4c0-1.4-0.5-2.5-1.4-3.4c-1-0.7-2.4-1.1-4.3-1.1C48.1,30,46.7,30.4,45.7,31.1z
		 M45.7,51.2c-1,0.7-1.5,1.8-1.5,3.3c0,1.5,0.5,2.6,1.5,3.3c1,0.8,2.4,1.2,4.3,1.2c1.9,0,3.3-0.4,4.3-1.2c0.9-0.7,1.4-1.8,1.4-3.3
		c0-1.5-0.5-2.6-1.4-3.3c-1-0.8-2.4-1.2-4.3-1.2C48.1,50,46.7,50.4,45.7,51.2z M52.4,41.1C51.5,41.9,51,43,51,44.4
		c0,1.5,0.5,2.6,1.4,3.3c1,0.8,2.4,1.2,4.3,1.2c1.8,0,3.3-0.4,4.3-1.2c0.9-0.7,1.4-1.8,1.4-3.3c0-1.5-0.5-2.6-1.4-3.3
		c-1-0.8-2.4-1.2-4.3-1.2C54.8,39.9,53.4,40.3,52.4,41.1z M52.4,61.1c-0.9,0.8-1.4,2-1.4,3.5c0,1.6,0.5,2.6,1.4,3.2
		c0.9,0.5,2.3,0.7,4.3,0.7c1.9,0,3.3-0.2,4.3-0.7c0.9-0.5,1.3-1.6,1.3-3.2c0-1.6-0.4-2.8-1.3-3.5c-1-0.7-2.4-1.1-4.3-1.1
		C54.8,60,53.4,60.4,52.4,61.1z M58.8,31.1c-1.1,0.8-1.6,1.9-1.6,3.4c0,1.4,0.5,2.5,1.6,3.4c1,0.8,2.5,1.2,4.5,1.2s3.5-0.4,4.6-1.2
		c1-0.8,1.5-1.9,1.5-3.4c0-1.4-0.5-2.5-1.5-3.4c-1.1-0.7-2.6-1.1-4.6-1.1S59.8,30.4,58.8,31.1z M58.8,51.2c-1.1,0.7-1.6,1.8-1.6,3.3
		c0,1.5,0.5,2.6,1.6,3.3c1,0.8,2.5,1.2,4.5,1.2s3.5-0.4,4.6-1.2c1-0.7,1.5-1.8,1.5-3.3c0-1.5-0.5-2.6-1.5-3.3
		c-1.1-0.8-2.6-1.2-4.6-1.2S59.8,50.4,58.8,51.2z M64.9,41.1c-0.4,0.7-0.6,1.8-0.6,3.3c0,1.5,0.2,2.6,0.6,3.3c0.4,0.8,1,1.2,1.8,1.2
		c0.8,0,1.3-0.4,1.8-1.2c0.4-0.7,0.6-1.8,0.6-3.3c0-1.5-0.2-2.6-0.6-3.3c-0.4-0.7-1-1.1-1.8-1.1C65.9,40,65.3,40.4,64.9,41.1z
		 M64.9,61.1c-0.4,0.8-0.6,1.9-0.6,3.3c0,1.4,0.2,2.5,0.6,3.4c0.4,0.7,1,1.1,1.8,1.1c0.8,0,1.3-0.4,1.8-1.1c0.4-0.8,0.6-1.9,0.6-3.4
		c0-1.4-0.2-2.5-0.6-3.3c-0.4-0.7-1-1-1.8-1C65.9,60.1,65.3,60.5,64.9,61.1z"/>

</svg>
