<?xml version="1.0" encoding="utf-8"?>
<!-- Generator: Adobe Illustrator 19.0.0, SVG Export Plug-In . SVG Version: 6.00 Build 0)  -->
<svg version="1.1" id="B" xmlns="http://www.w3.org/2000/svg" xmlns:xlink="http://www.w3.org/1999/xlink" x="0px" y="0px"
	 viewBox="0 0 100 100" enable-background="new 0 0 100 100" xml:space="preserve">

	<path id="XMLID_18_" fill="#FFFFFF" d="M50,85.9c-2.5,3.5-5.7,5.2-9.8,5.2c-0.4,0-0.8,0-1.3,0c-0.4,0-0.8-0.1-1.2-0.2
		c-1,0-2.4-0.2-4.2-0.5c-1.8-0.3-3.8-1.1-6.1-2.2c-2-1.7-4.5-2.6-7.6-2.6c-2.3,0-4.4,0.6-6.1,1.7c-0.5,0.2-1.1,0.7-1.8,1.4
		c-1.3,1.4-2.3,2.2-3.2,2.3c-0.6-0.3-0.9-0.9-1-1.6c-0.1-1.5,1-3.5,3.4-6c-0.4,0.1-1.2,0.3-2.4,0.6c-1,0.3-1.7,0.5-2,0.5
		c-1.1,0.1-1.6,0.1-1.7,0c-0.3-0.3-0.2-1.1,0.4-2.2c0.5-0.9,1.6-1.8,3.1-2.5c0.1-0.1,0.7-0.3,1.8-0.8c3.1-1.6,6.2-2.4,9.5-2.4
		c4.9,0,9.3,1.6,13.2,4.9c1.5,0.5,3.1,0.8,4.7,0.8c4.9,0,7.4-2,7.6-6c-3.2-0.3-5.9-0.9-8-1.7c-2.1-0.8-3.2-1.7-3.2-2.8l3.9-13
		c-2.3-3.5-4.2-7.2-5.7-10.9c-1.5-3.7-2.3-7.3-2.3-10.6c0-9.9,5.4-17.6,16.2-22.9c0-0.4,0.1-1,0.2-1.9c-1.1-0.9-1.7-2.1-1.7-3.5
		c0-3,1.5-4.5,4.6-4.5c3,0,4.5,1.5,4.5,4.5c0,1.3-0.5,2.4-1.5,3.3c0,1,0.1,1.7,0.4,2c0.6,0.8,1.3,1.2,2.2,1.3c1-0.1,1.8-0.5,2.4-1.3
		c0.1-0.2,0.3-0.8,0.4-1.8c-0.9-0.9-1.3-2-1.3-3.3c0-3.1,1.5-4.6,4.6-4.6c3.1,0,4.6,1.5,4.6,4.6c0,1.7-0.8,3.1-2.3,4
		c-0.1,0.7-0.2,1.2-0.1,1.6c5.5,6.5,7.9,14,7.2,22.5c-0.2,2.5-0.6,4.9-1.1,7.3c-0.5,2.4-1.4,4.6-2.7,6.6c-0.5,1.1-1.3,2.4-2.4,3.8
		c-1,1.4-1.9,2.6-2.6,3.8l3.9,13c-0.1,1.1-1.1,2-3.3,2.8c-2.1,0.8-4.8,1.3-8,1.7c0.1,4,2.7,6,7.6,6c1.6,0,3.2-0.3,4.7-0.8
		c3.9-3.3,8.2-4.9,13.1-4.9c3.3,0,6.5,0.8,9.5,2.4c0.4,0.2,0.8,0.4,1,0.5c0.3,0.1,0.6,0.2,0.9,0.3c1.5,0.8,2.5,1.6,3,2.5
		c0.1,0.3,0.3,0.7,0.5,1.1c0.2,0.4,0.2,0.8-0.1,1c-0.1,0.1-0.6,0.1-1.7,0c-0.3,0-1-0.2-1.9-0.5c-1.2-0.3-2-0.5-2.5-0.6
		c2.4,2.5,3.5,4.5,3.4,6c0,0.7-0.3,1.3-1,1.6c-0.8-0.1-1.9-0.9-3.2-2.3c-0.7-0.7-1.3-1.1-1.8-1.4c-1.8-1.1-3.8-1.7-6.1-1.7
		c-3.1,0-5.6,0.9-7.6,2.6c-2.2,1.1-4.2,1.9-6.1,2.2c-1.8,0.3-3.2,0.5-4.1,0.5c-0.4,0.1-0.8,0.1-1.2,0.2c-0.4,0-0.8,0-1.2,0
		C55.6,91.1,52.3,89.4,50,85.9z"/>

	<path id="XMLID_4_" d="M50,85.9c-2.5,3.5-5.7,5.2-9.8,5.2c-0.4,0-0.8,0-1.3,0c-0.4,0-0.8-0.1-1.2-0.2c-1,0-2.4-0.2-4.2-0.5
		c-1.8-0.3-3.8-1.1-6.1-2.2c-2-1.7-4.5-2.6-7.6-2.6c-2.3,0-4.4,0.6-6.1,1.7c-0.5,0.2-1.1,0.7-1.8,1.4c-1.3,1.4-2.3,2.2-3.2,2.3
		c-0.6-0.3-0.9-0.9-1-1.6c-0.1-1.5,1-3.5,3.4-6c-0.4,0.1-1.2,0.3-2.4,0.6c-1,0.3-1.7,0.5-2,0.5c-1.1,0.1-1.6,0.1-1.7,0
		c-0.3-0.3-0.2-1.1,0.4-2.2c0.5-0.9,1.6-1.8,3.1-2.5c0.1-0.1,0.7-0.3,1.8-0.8c3.1-1.6,6.2-2.4,9.5-2.4c4.9,0,9.3,1.6,13.2,4.9
		c1.5,0.5,3.1,0.8,4.7,0.8c4.9,0,7.4-2,7.6-6c-3.2-0.3-5.9-0.9-8-1.7c-2.1-0.8-3.2-1.7-3.2-2.8l3.9-13c-2.3-3.5-4.2-7.2-5.7-10.9
		c-1.5-3.7-2.3-7.3-2.3-10.6c0-9.9,5.4-17.6,16.2-22.9c0-0.4,0.1-1,0.2-1.9c-1.1-0.9-1.7-2.1-1.7-3.5c0-3,1.5-4.5,4.6-4.5
		c3,0,4.5,1.5,4.5,4.5c0,1.3-0.5,2.4-1.5,3.3c0,1,0.1,1.7,0.4,2c0.6,0.8,1.3,1.2,2.2,1.3c1-0.1,1.8-0.5,2.4-1.3
		c0.1-0.2,0.3-0.8,0.4-1.8c-0.9-0.9-1.3-2-1.3-3.3c0-3.1,1.5-4.6,4.6-4.6c3.1,0,4.6,1.5,4.6,4.6c0,1.7-0.8,3.1-2.3,4
		c-0.1,0.7-0.2,1.2-0.1,1.6c5.5,6.5,7.9,14,7.2,22.5c-0.2,2.5-0.6,4.9-1.1,7.3c-0.5,2.4-1.4,4.6-2.7,6.6c-0.5,1.1-1.3,2.4-2.4,3.8
		c-1,1.4-1.9,2.6-2.6,3.8l3.9,13c-0.1,1.1-1.1,2-3.3,2.8c-2.1,0.8-4.8,1.3-8,1.7c0.1,4,2.7,6,7.6,6c1.6,0,3.2-0.3,4.7-0.8
		c3.9-3.3,8.2-4.9,13.1-4.9c3.3,0,6.5,0.8,9.5,2.4c0.4,0.2,0.8,0.4,1,0.5c0.3,0.1,0.6,0.2,0.9,0.3c1.5,0.8,2.5,1.6,3,2.5
		c0.1,0.3,0.3,0.7,0.5,1.1c0.2,0.4,0.2,0.8-0.1,1c-0.1,0.1-0.6,0.1-1.7,0c-0.3,0-1-0.2-1.9-0.5c-1.2-0.3-2-0.5-2.5-0.6
		c2.4,2.5,3.5,4.5,3.4,6c0,0.7-0.3,1.3-1,1.6c-0.8-0.1-1.9-0.9-3.2-2.3c-0.7-0.7-1.3-1.1-1.8-1.4c-1.8-1.1-3.8-1.7-6.1-1.7
		c-3.1,0-5.6,0.9-7.6,2.6c-2.2,1.1-4.2,1.9-6.1,2.2c-1.8,0.3-3.2,0.5-4.1,0.5c-0.4,0.1-0.8,0.1-1.2,0.2c-0.4,0-0.8,0-1.2,0
		C55.6,91.1,52.3,89.4,50,85.9z M50,82.3c0.1,0,1.1,1,3.2,3c1.9,1.8,4.2,2.7,6.9,2.7c0.3,0,0.6,0,1,0c0.4,0,0.7,0,1,0
		c1.4-0.1,2.7-0.3,4-0.5c1.3-0.2,2.8-0.7,4.6-1.5c3.3-2.3,6.4-3.5,9.3-3.5c1.3,0,2.4,0.2,3.5,0.5c0.4,0.1,0.6,0.2,0.7,0.3
		c0.1,0.1,0.4,0.3,1.1,0.7c2,1,2.5,1.1,1.5,0.3c-1-0.8-1.3-1.4-1.1-1.8c0.2-0.5,1-0.9,2.3-1.4c1.3-0.5,0.4-0.9-2.9-1.2
		C83.5,79.3,81.8,79,80,79c-3.9,0-7.8,1.6-11.9,4.7c-1.5,0.8-2.7,1.3-3.7,1.4c-1,0.1-1.9,0.1-2.8,0c-2.5-0.1-4.2-0.4-5.1-1
		c-0.9-0.6-1.6-1.3-2.3-2.1c-0.7-0.7-1.3-2-1.9-3.9c-0.3-1.1-1.1-1.7-2.3-1.8c-1.3,0.1-2.1,0.7-2.4,1.8c-0.6,1.9-1.2,3.2-1.9,3.9
		c-0.7,0.7-1.4,1.4-2.3,2.1c-0.9,0.6-2.6,1-5.1,1c-0.9,0.1-1.8,0-2.8,0c-1-0.1-2.2-0.6-3.6-1.4c-4.1-3.1-8.1-4.7-12-4.7
		c-1.8,0-3.5,0.3-5,0.8c-3.3,0.3-4.3,0.7-2.9,1.2c1.3,0.5,2.1,0.9,2.3,1.4c0.2,0.4-0.2,1-1.2,1.8s-0.5,0.7,1.6-0.3
		c0.5-0.3,0.8-0.5,0.9-0.7c0.1-0.1,0.4-0.2,0.9-0.3c1-0.3,2.1-0.5,3.4-0.5c2.9,0,6,1.2,9.4,3.5c1.7,0.7,3.2,1.2,4.5,1.5
		c1.3,0.2,2.6,0.4,4.1,0.5c0.2,0,0.5,0,0.9,0c0.4,0,0.8,0,1.1,0c2.7,0,5-0.9,6.9-2.7C48.8,83.3,49.9,82.3,50,82.3z M39.1,56
		c3.1-1,6.8-1.5,10.9-1.5c4.3,0,8,0.5,11,1.5c4-8,6-14.3,6-18.8c0-7.7-5.6-15.2-16.8-22.5C39.1,22,33.5,29.5,33.5,37.2
		C33.5,42.2,35.4,48.4,39.1,56z M50.3,67.4c-3.7,0-6.9,0.3-9.5,1c-2.6,0.7-3.9,1.4-3.9,2.3c0,0.9,1.3,1.7,3.9,2.4
		c2.6,0.6,5.8,0.9,9.5,0.9c3.7,0,6.8-0.3,9.4-0.9c2.6-0.6,3.9-1.4,3.9-2.4c0-0.9-1.3-1.6-3.9-2.3C57.1,67.8,54,67.4,50.3,67.4z
		 M38.5,66.3l0.9,0.2l4.3-2.8l-4.2-0.9L38.5,66.3z M60.1,61l-0.9-3c-2.7-0.7-5.8-1-9.2-1s-6.4,0.3-8.9,0.9l-1,3.1
		c2.7-0.7,6-1.1,9.9-1.1C54,59.9,57.4,60.3,60.1,61z M59.6,37h-6.2v11.7h-6.7V37h-6.3v-6.6h6.3V22h6.7v8.4h6.2V37z M57.5,34.9v-2.5
		h-6.2v-8.3h-2.5v8.3h-6.3v2.5h6.3v11.7h2.5V34.9H57.5z M54.7,63.6l-4.7-2l-4.7,2l4.7,1.9L54.7,63.6z M49.6,7.1c-1.3,0-2,0.7-2,2
		c0,1.3,0.7,2,2,2c1.3,0,2-0.7,2-2C51.6,7.8,50.9,7.1,49.6,7.1z M61.8,66.3l-1-3.5l-4.4,0.9l4.3,2.8L61.8,66.3z M69,37.3
		c0.3-1.7-0.2-5-1.7-9.7c-1.4-4.7-3.6-8.7-6.4-11.8c-0.4-0.3-0.8-0.4-1.1-0.3c-0.5,0.1-0.9,0.3-1.3,0.7s-0.5,0.9-0.2,1.5
		c3.5,2.3,6.1,5.7,8,10.1C68.1,32.2,69,35.4,69,37.3z M61.3,7.3c-1.4,0-2.1,0.7-2.1,2c0,1.4,0.7,2.1,2.1,2.1c1.4,0,2.1-0.7,2.1-2.1
		C63.4,8,62.7,7.3,61.3,7.3z"/>

</svg>
