<?xml version="1.0" encoding="utf-8"?>
<!-- Generator: Adobe Illustrator 19.0.0, SVG Export Plug-In . SVG Version: 6.00 Build 0)  -->
<svg version="1.1" id="N" xmlns="http://www.w3.org/2000/svg" xmlns:xlink="http://www.w3.org/1999/xlink" x="0px" y="0px"
	 viewBox="0 0 100 100" enable-background="new 0 0 100 100" xml:space="preserve">

	<path id="XMLID_9_" fill="#FFFFFF" d="M32.4,62.8c-0.5,0.5-0.8,0.9-1.1,1.1c-0.3,0.2-0.5,0.4-0.8,0.6c-0.3,0.3-1.3,1.3-3.1,3.2
		c-0.7,0.8-1.6,1.3-2.7,1.6C24,69.5,23,69.4,21.9,69c-4.1-1.1-7.3-3.2-9.7-6.4c-0.9-1.2-1.6-2.7-2-4.4c-0.4-1.7-0.2-3.9,0.5-6.5
		c0.7-2.7,3.3-5.7,7.7-9.1c4.9-3.7,7.7-6.6,8.6-8.9c0.7-1.3,1.6-2.7,2.5-4.2c0.9-1.5,2-3,3.3-4.4c0.8-0.5,1.5-1.2,2.3-1.9
		c0.7-0.7,1.4-1.5,2.2-2.3v-6c1.8,0.3,3.1,0.8,3.9,1.5c0.4,0.5,0.8,0.9,1.3,1.3c0.5,0.4,0.9,0.8,1.3,1.1c0.9-1.5,1.4-2.7,1.6-3.7
		c0-0.2,0.1-0.6,0.3-1.4c0.2-0.7,0.4-1.8,0.6-3.3c0.5-0.1,0.9,0,1.2,0.4c1.5,1.7,3,3.5,4.3,5.6c6,2.4,11.5,5.2,16.4,8.5
		c4.9,3.3,8.7,6.7,11.3,10.2c7.5,10.1,11.2,25,11.2,44.7c0,4.1-0.2,7.9-0.6,11.3H23.3c-0.4-4.2,1.9-8.7,6.8-13.5
		c2.2-2.1,4.5-4.2,6.9-6.2s4.7-4.1,7-6.2c4.2-3.9,6.5-7,7-9.3c-0.1-0.4-0.4-0.7-0.9-0.8c-1.1,0.7-2.3,1.1-3.4,1.3
		c-1.1,0.2-2.3,0.3-3.4,0.4c-0.7,0-1.5,0-2.1,0c-0.7,0-1.5-0.1-2.5-0.5c-1.3,1.4-2.4,2.6-3.3,3.7C34.5,61.1,33.5,62,32.4,62.8z"/>

	<path id="XMLID_4_" d="M32.4,62.8c-0.5,0.5-0.8,0.9-1.1,1.1c-0.3,0.2-0.5,0.4-0.8,0.6c-0.3,0.3-1.3,1.3-3.1,3.2
		c-0.7,0.8-1.6,1.3-2.7,1.6C24,69.5,23,69.4,21.9,69c-4.1-1.1-7.3-3.2-9.7-6.4c-0.9-1.2-1.6-2.7-2-4.4c-0.4-1.7-0.2-3.9,0.5-6.5
		c0.7-2.7,3.3-5.7,7.7-9.1c4.9-3.7,7.7-6.6,8.6-8.9c0.7-1.3,1.6-2.7,2.5-4.2c0.9-1.5,2-3,3.3-4.4c0.8-0.5,1.5-1.2,2.3-1.9
		c0.7-0.7,1.4-1.5,2.2-2.3v-6c1.8,0.3,3.1,0.8,3.9,1.5c0.4,0.5,0.8,0.9,1.3,1.3c0.5,0.4,0.9,0.8,1.3,1.1c0.9-1.5,1.4-2.7,1.6-3.7
		c0-0.2,0.1-0.6,0.3-1.4c0.2-0.7,0.4-1.8,0.6-3.3c0.5-0.1,0.9,0,1.2,0.4c1.5,1.7,3,3.5,4.3,5.6c6,2.4,11.5,5.2,16.4,8.5
		c4.9,3.3,8.7,6.7,11.3,10.2c7.5,10.1,11.2,25,11.2,44.7c0,4.1-0.2,7.9-0.6,11.3H23.3c-0.4-4.2,1.9-8.7,6.8-13.5
		c2.2-2.1,4.5-4.2,6.9-6.2s4.7-4.1,7-6.2c4.2-3.9,6.5-7,7-9.3c-0.1-0.4-0.4-0.7-0.9-0.8c-1.1,0.7-2.3,1.1-3.4,1.3
		c-1.1,0.2-2.3,0.3-3.4,0.4c-0.7,0-1.5,0-2.1,0c-0.7,0-1.5-0.1-2.5-0.5c-1.3,1.4-2.4,2.6-3.3,3.7C34.5,61.1,33.5,62,32.4,62.8z
		 M30.8,60.5c1.5-1.1,2.6-2.3,3.3-3.5c0.7-1.2,1.6-2.4,2.8-3.5c0-0.4,0-0.8,0.1-1.3c0.1-0.5,0.1-1,0.2-1.6c0.3-0.2,0.5-0.3,0.6-0.4
		c0.9-0.3,1.5,0.2,1.6,1.3c0,0.3,0,0.7-0.1,1c0,0.3,0,0.6,0.1,0.9c0.2,0.2,0.9,0.4,2.2,0.7c4.7,0.1,9-1.6,12.9-5.3
		c0.5-0.5,0.7-0.8,0.7-0.9c1-1.5,1.8-4.5,2.4-9.1c0-0.1,0.2-0.3,0.5-0.5c0.9-0.3,1.4,0.2,1.6,1.3c-0.3,4.2-0.9,7.2-1.9,9
		c-0.5,0.9-1.1,1.8-1.8,2.5c0.6-0.3,1.2-0.6,1.7-0.8c0.5-0.2,1.1-0.5,1.6-0.9c1.7-1.1,2.9-3,3.6-5.9c0.3-0.6,0.8-0.9,1.5-0.8
		c0.7,0.1,1,0.7,0.9,1.6c-0.8,4.1-2.4,6.7-4.8,7.9c-0.8,0.4-1.6,0.8-2.4,1c-0.8,0.3-1.6,0.6-2.3,0.8c1.9-0.1,4-0.4,6.2-0.9
		c0.5,0,0.8,0.2,0.9,0.6c0.3,0.6,0,1.2-0.9,1.7c-4.6,1.3-7.5,1.8-8.7,1.7c-0.9,2.8-3.1,5.9-6.5,9.2c-1.9,1.8-3.8,3.5-5.8,5.3
		c-2,1.7-4,3.4-6,5.1c-4.3,3.8-7,7.5-7.9,11.1c7.5,0,13.7,0,18.6,0c4.9,0,9.5,0,13.6,0c4.1,0,8.3,0,12.5,0s9.3,0,15.3,0
		c0.5,0,0.7-0.8,0.6-2.5c-0.1-1.6-0.2-3.2-0.4-4.5c-1.7,0.2-3.4-0.7-5-2.8c-1.6-2-2.3-4.4-2.1-7.1c0-6.8-0.5-12.9-1.4-18.4
		c-0.9-5.5-2.6-10.3-5.3-14.3c-4.3-6.5-11.2-12.1-20.5-16.6c-0.1,0.8-0.3,1.5-0.4,2.2c-0.3,1.1-0.8,1.4-1.5,1
		c-0.7-0.2-1-0.6-1.1-1.3c0.1-0.6,0.2-1,0.3-1.3c-0.1-0.1-0.1-0.2-0.2-0.4c0-0.2,0-0.3,0-0.5c-0.3-1.7-1.3-3.6-2.8-5.7
		c-0.2,1.3-0.4,2.3-0.7,2.8c-0.3,0.5-0.5,0.9-0.7,1.3c-0.4,0.5-0.7,1-1,1.5c-0.3,0.5-0.6,1-0.9,1.6c-0.4-0.3-0.8-0.8-1.2-1.4
		c-0.4-0.6-0.8-1-1.1-1.4c-0.3-0.3-0.5-0.6-0.8-0.9c-0.3-0.3-0.8-0.5-1.6-0.7c0.7,2.5,0.5,4.3-0.5,5.2c-0.5,0.5-1.1,1.2-1.8,2.1
		c-0.6,0.9-1.4,1.7-2.2,2.4c-0.4,0.5-0.9,1-1.6,1.6c-0.7,0.6-1.2,1.5-1.7,2.5c-0.7,1.9-1.9,3.8-3.7,5.7c-1.8,1.9-3.8,3.8-5.9,5.7
		c-4.7,4.2-7.3,7.2-8,9.1c-0.8,2.3-0.7,4.5,0.2,6.7c0.9,1.9,2.1,3.1,3.6,3.7c0.9,0.4,2.1-0.3,3.4-2c1.4-1.7,2.3-2.5,2.8-2.4
		c0.9,0.2,1.1,0.8,0.8,1.8c-0.1,0.5-0.6,1.3-1.5,2.4c-0.9,1-1.4,1.7-1.4,2c-0.2,0.4,0.1,0.7,0.9,0.9c1,0.3,2.9-1,5.7-3.7
		c0.3-0.3,0.7-0.6,1.1-0.9C30,61.2,30.4,60.9,30.8,60.5z M19.6,56.2c-0.3,0.3-0.6,0.6-1.1,0.9c-0.9,0.7-1.5,0.6-1.9-0.2
		c-0.3-0.4-0.3-1,0-1.8c0.5-0.4,0.8-0.7,1-0.8c1-1.2,1.8-2.2,2.5-3.1c0.3-0.1,0.5-0.1,0.7-0.1c1.1,0.2,1.4,0.9,0.9,2.1
		c-0.3,0.6-0.7,1.1-1.1,1.6C20.2,55.3,19.9,55.8,19.6,56.2z M34,34.5c0.7-2,1.9-3.1,3.7-3.3c1.3-0.1,2.3-0.1,3.3-0.1
		c0.9,0,1.9-0.2,3-0.5c-1.1,2.9-2.3,4.8-3.6,5.7c-0.7,0.5-1.7,0.7-3,0.8c-0.9,0.1-1.6,0-2.1-0.2C34.7,36.7,34.3,35.9,34,34.5z"/>

</svg>
