<?xml version="1.0" encoding="utf-8"?>
<!-- Generator: Adobe Illustrator 19.0.0, SVG Export Plug-In . SVG Version: 6.00 Build 0)  -->
<svg version="1.1" id="P" xmlns="http://www.w3.org/2000/svg" xmlns:xlink="http://www.w3.org/1999/xlink" x="0px" y="0px"
	 viewBox="0 0 100 100" enable-background="new 0 0 100 100" xml:space="preserve">

	<path id="XMLID_10_" fill="#FFFFFF" d="M49.9,91H23.3c0.6-7,3.6-12.9,8.9-17.7c0.9-0.8,1.4-1.2,1.5-1.3c2.8-2.3,5.2-5.1,7.1-8.2
		c-5-3.3-7.5-7.9-7.5-13.9c0-3.7,1.1-7.1,3.3-10c0.8-0.9,1.6-2,2.5-3.2c0.8-1.2,1.5-2.4,2-3.6c-0.7,0.2-1.9,0.5-3.5,1
		c-1.6,0.4-2.8,0.8-3.5,1.1c2.3-2.1,4.4-4.6,6.5-7.5c2-2.9,3.2-5.9,3.5-9.1c-1.7-1.7-2.5-3.7-2.5-6c0-2.3,0.8-4.2,2.4-5.9
		c1.6-1.6,3.6-2.4,5.9-2.4c2.3,0,4.2,0.8,5.8,2.4c1.6,1.6,2.5,3.6,2.5,5.9c0,2.3-0.8,4.3-2.5,6c0.3,3.2,1.5,6.2,3.6,9.1
		c2.1,2.9,4.2,5.4,6.5,7.5c-0.7-0.3-1.9-0.7-3.5-1.1c-1.6-0.4-2.8-0.8-3.5-1c0.5,1.2,1.1,2.4,2,3.6c0.9,1.2,1.7,2.3,2.5,3.2
		c2.3,2.9,3.4,6.3,3.4,10c0,6-2.5,10.6-7.6,13.9c1.9,3.1,4.2,5.9,7.1,8.2c0.5,0.4,0.9,0.8,1.4,1.3c5.4,4.8,8.4,10.7,9,17.7H49.9z"/>

	<path id="XMLID_4_" d="M49.9,91H23.3c0.6-7,3.6-12.9,8.9-17.7c0.9-0.8,1.4-1.2,1.5-1.3c2.8-2.3,5.2-5.1,7.1-8.2
		c-5-3.3-7.5-7.9-7.5-13.9c0-3.7,1.1-7.1,3.3-10c0.8-0.9,1.6-2,2.5-3.2c0.8-1.2,1.5-2.4,2-3.6c-0.7,0.2-1.9,0.5-3.5,1
		c-1.6,0.4-2.8,0.8-3.5,1.1c2.3-2.1,4.4-4.6,6.5-7.5c2-2.9,3.2-5.9,3.5-9.1c-1.7-1.7-2.5-3.7-2.5-6c0-2.3,0.8-4.2,2.4-5.9
		c1.6-1.6,3.6-2.4,5.9-2.4c2.3,0,4.2,0.8,5.8,2.4c1.6,1.6,2.5,3.6,2.5,5.9c0,2.3-0.8,4.3-2.5,6c0.3,3.2,1.5,6.2,3.6,9.1
		c2.1,2.9,4.2,5.4,6.5,7.5c-0.7-0.3-1.9-0.7-3.5-1.1c-1.6-0.4-2.8-0.8-3.5-1c0.5,1.2,1.1,2.4,2,3.6c0.9,1.2,1.7,2.3,2.5,3.2
		c2.3,2.9,3.4,6.3,3.4,10c0,6-2.5,10.6-7.6,13.9c1.9,3.1,4.2,5.9,7.1,8.2c0.5,0.4,0.9,0.8,1.4,1.3c5.4,4.8,8.4,10.7,9,17.7H49.9z
		 M49.9,87.7h22.6c-1-3.9-2.9-7.3-5.6-10.3c-1.1-1.2-2.2-2.2-3.1-3c-3.1-2.5-5.7-5.5-7.6-9c-2.1,0.7-4.2,1.1-6.3,1.1
		c-2.1,0-4.2-0.4-6.2-1.1c-2.1,3.5-4.7,6.5-7.7,9c-1,0.8-2,1.8-3,3c-2.8,3-4.7,6.4-5.6,10.3H49.9z M49.9,63.3c3.7,0,6.8-1.3,9.4-3.9
		c2.6-2.6,3.9-5.8,3.9-9.5c0-3-0.9-5.7-2.8-8.2c-2.2-2.8-3.9-5.7-5-8.8c-1.9-0.3-3.8-0.4-5.5-0.4c-1.8,0-3.6,0.1-5.5,0.4
		c-1.3,3.3-3,6.2-5,8.8c-1.9,2.5-2.9,5.2-2.9,8.2c0,3.7,1.3,6.9,3.9,9.5C43,62,46.2,63.3,49.9,63.3z M49.9,29.1c2.5,0,4.7,0.3,6.6,1
		c-0.7-1.4-1.5-2.9-2.3-4.6c-0.8-1.7-1.3-3.3-1.6-5c-0.9,0.3-1.8,0.4-2.7,0.4c-1,0-1.9-0.1-2.8-0.4c-0.3,1.7-0.8,3.3-1.5,5
		c-0.8,1.7-1.5,3.2-2.3,4.6C45.9,29.5,48.1,29.1,49.9,29.1z M49.9,17.6c3.3,0,5-1.7,5-5c0-3.3-1.7-4.9-5-4.9c-3.3,0-5,1.6-5,4.9
		C44.9,16,46.6,17.6,49.9,17.6z"/>

</svg>
