<?xml version="1.0" encoding="utf-8"?>
<!-- Generator: Adobe Illustrator 19.0.0, SVG Export Plug-In . SVG Version: 6.00 Build 0)  -->
<svg version="1.1" id="k" xmlns="http://www.w3.org/2000/svg" xmlns:xlink="http://www.w3.org/1999/xlink" x="0px" y="0px"
	 viewBox="0 0 100 100" enable-background="new 0 0 100 100" xml:space="preserve">

	<path id="XMLID_17_" fill="#FFFFFF" d="M77.1,68.8c0.2,0.7,0.3,1.4,0.3,2c0,1.9-0.7,3.4-2.1,4.4c-0.1,0.6-0.2,1.2-0.3,1.7
		c1.3,1.7,1.9,3,1.9,4.1c0,2.7-2.7,5.1-8,7.1c-5.3,2-11.6,2.9-19,2.9c-7.5,0-13.8-1-19.1-2.9c-5.3-2-7.9-4.3-7.9-7.1
		c0-1.1,0.7-2.5,2-4.2c-0.1-0.3-0.2-0.8-0.3-1.5c-1.5-1.1-2.2-2.6-2.2-4.5c0-0.6,0.1-1.2,0.3-1.9c0.3-0.8,0.3-1.4-0.2-1.9
		c-0.5-0.5-1-1.1-1.6-1.9c-0.5-1.7-0.7-2.8-0.7-3.4c0-0.3,0.1-0.6,0.2-1c0.1-0.4,0.1-0.8,0.1-1.3c-1.5-1.5-3-2.8-4.5-4.1
		c-1.5-1.3-2.7-2.8-3.6-4.7c-1.1-2.1-2-4.3-2.9-6.5c-0.9-2.2-1.3-4.4-1.3-6.5c0-4,1.1-7.4,3.2-10.1c2.1-2.8,5-4.9,8.6-6.5
		c4.8-0.3,6.8-0.5,6.1-0.5c5.7,0,10.8,2.1,15.4,6.3V9.8h16.7v17.1c4.6-4.2,9.8-6.3,15.5-6.3c-0.8,0,1.2,0.2,6.1,0.5
		c3.5,1.5,6.4,3.7,8.5,6.5c2.1,2.8,3.2,6.1,3.2,10.1c0,2.1-0.4,4.3-1.3,6.5c-0.9,2.2-1.8,4.4-2.8,6.5c-0.9,1.9-2.1,3.5-3.7,4.9
		c-1.6,1.4-3,2.7-4.4,4c-0.1,0.4-0.1,0.8,0,1.1c0.1,0.4,0.1,0.7,0.1,1c0.1,0.5-0.2,1.6-0.7,3.4c-0.6,0.8-1.1,1.4-1.6,1.9
		C76.9,67.5,76.8,68.1,77.1,68.8z"/>

	<path id="XMLID_4_" d="M77.1,68.8c0.2,0.7,0.3,1.4,0.3,2c0,1.9-0.7,3.4-2.1,4.4c-0.1,0.6-0.2,1.2-0.3,1.7c1.3,1.7,1.9,3,1.9,4.1
		c0,2.7-2.7,5.1-8,7.1c-5.3,2-11.6,2.9-19,2.9c-7.5,0-13.8-1-19.1-2.9c-5.3-2-7.9-4.3-7.9-7.1c0-1.1,0.7-2.5,2-4.2
		c-0.1-0.3-0.2-0.8-0.3-1.5c-1.5-1.1-2.2-2.6-2.2-4.5c0-0.6,0.1-1.2,0.3-1.9c0.3-0.8,0.3-1.4-0.2-1.9c-0.5-0.5-1-1.1-1.6-1.9
		c-0.5-1.7-0.7-2.8-0.7-3.4c0-0.3,0.1-0.6,0.2-1c0.1-0.4,0.1-0.8,0.1-1.3c-1.5-1.5-3-2.8-4.5-4.1c-1.5-1.3-2.7-2.8-3.6-4.7
		c-1.1-2.1-2-4.3-2.9-6.5c-0.9-2.2-1.3-4.4-1.3-6.5c0-4,1.1-7.4,3.2-10.1c2.1-2.8,5-4.9,8.6-6.5c4.8-0.3,6.8-0.5,6.1-0.5
		c5.7,0,10.8,2.1,15.4,6.3V9.8h16.7v17.1c4.6-4.2,9.8-6.3,15.5-6.3c-0.8,0,1.2,0.2,6.1,0.5c3.5,1.5,6.4,3.7,8.5,6.5
		c2.1,2.8,3.2,6.1,3.2,10.1c0,2.1-0.4,4.3-1.3,6.5c-0.9,2.2-1.8,4.4-2.8,6.5c-0.9,1.9-2.1,3.5-3.7,4.9c-1.6,1.4-3,2.7-4.4,4
		c-0.1,0.4-0.1,0.8,0,1.1c0.1,0.4,0.1,0.7,0.1,1c0.1,0.5-0.2,1.6-0.7,3.4c-0.6,0.8-1.1,1.4-1.6,1.9C76.9,67.5,76.8,68.1,77.1,68.8z
		 M41.3,31.7c-3.8-4-8.1-6-12.8-6c-4.4,0-7.7,1.5-10,4.4c-1.5,1.9-2.2,4.4-2.2,7.6c0,2.5,0.3,4.9,1,7.2c0.1,0.6,0.5,0.9,1.3,0.9
		c0.7,0,1.1-0.4,1.2-1.1c-0.3-1.7-0.4-3.2-0.4-4.5c0-2.7,0.6-4.8,1.9-6.4c1.9-2.5,4.7-3.7,8.5-3.7s7.3,1.5,10.6,4.5
		c0.7,0,1-0.6,1-1.8C41.4,32.6,41.4,32.2,41.3,31.7z M44.4,54.1c-0.1-1.2-0.1-2.1-0.2-2.8c0-0.7-0.1-1.3-0.2-2
		c-0.4-3.1-1.2-5.4-2.4-6.8c-0.3-0.3-0.7-0.4-1.2-0.4c-0.2,0-0.6,0.1-1.2,0.3c-0.6,0.2-1,0.8-1.3,2c-0.5-1.9-1.3-3.5-2.6-4.9
		c-1.3-1.4-2.5-2.1-3.6-2.1c-1.7,0.5-2.8,1.3-3.5,2.5c-0.6,1.2-0.9,2.5-0.9,3.9c0,0.7,0.1,1.3,0.2,2c-0.7-0.8-1.3-1.2-1.8-1.2
		c-1,0-1.6,0.6-1.9,1.7c-0.1,2.1,0.2,4,0.9,5.9c0.3,1.1,0.7,2,1.1,2.8c0.4,0.7,0.8,1.4,1.1,2.1c0.8,0,1.6-0.2,2.4-0.6
		c-1.9-3.2-2.9-5.3-2.8-6.3c0-1.1,0.3-1.6,0.9-1.6c0.5,0,0.9,0.3,1.2,1c0.5,1.1,1,2.2,1.4,3.3c0.4,1.1,0.8,2.1,1.1,3.1
		c0.8,0,1.6-0.1,2.5-0.4c-1.9-5.5-2.8-9.1-2.8-10.7c0-0.9,0-1.3,0.1-1.4c0-1.1,0.5-1.7,1.5-1.7c0.9,0,1.6,0.4,2,1.2
		c1.3,3,2.1,7,2.3,12c0.7-0.1,1.6-0.2,2.8-0.4c-0.7-3.5-1-5.9-0.7-7.4c0.3-1,0.9-1.4,1.6-1.3c0.5,0.1,0.9,0.5,1.1,1.2
		c0.5,2,0.6,4.4,0.3,7.3C42.4,54.3,43.3,54.2,44.4,54.1z M73.2,65.1c1.5-0.1,2.2-0.9,2.2-2.4c0-0.9-0.4-1.7-1.3-2.2
		c-2.7-1.1-6.2-1.9-10.4-2.6s-8.8-1-13.8-1c-10.5,0-18.6,1.3-24.3,3.8c-0.7,0.6-1.1,1.3-1.1,2.1c0,1.7,0.8,2.5,2.5,2.4
		c5.8-2.2,13.4-3.3,22.9-3.3C59.5,61.8,67.3,62.9,73.2,65.1z M35.3,69.7l-5.2-1.8L26,71.1l5.2,1.7L35.3,69.7z M70.4,82.9
		c-0.1-0.7-0.4-1.5-0.7-2.4c-0.4-0.8-0.8-1.3-1.2-1.6c-0.4-0.3-0.7-0.6-1-1.1c-3.3-2.1-9.2-3-17.6-2.8c-8.5-0.2-14.3,0.7-17.6,2.8
		c-0.4,0.4-0.8,0.8-1.2,1c-0.4,0.3-0.7,0.8-1,1.6c-0.4,0.8-0.6,1.6-0.7,2.4c-0.1,1,0.4,1.5,1.4,1.5c0.9,0,1.4-0.5,1.3-1.5
		c0.3-3.3,6.2-4.9,17.6-4.9c11.5,0,17.4,1.6,17.7,4.9c-0.1,1,0.4,1.5,1.3,1.5C69.9,84.4,70.4,83.9,70.4,82.9z M56.4,68.2L49.9,65
		l-6.4,3.2l6.6,3.1L56.4,68.2z M50,26.7c-1.6,0-3,0.6-4.2,1.7c-1.2,1.1-1.8,2.5-1.8,4.1c0,1.7,0.6,3.1,1.8,4.2
		c1.2,1.1,2.6,1.6,4.2,1.6c3.9,0,5.8-1.9,5.8-5.8C55.8,28.7,53.9,26.7,50,26.7z M50.5,16.2c-0.2-0.1-0.4-0.1-0.5-0.1
		c-0.4,0-0.7,0.1-0.8,0.2L46,13.1h-1.1v1.3l3.1,3.1c-0.1,0.2-0.1,0.4-0.1,0.7c0,0.2,0,0.4,0.1,0.5l-3.1,3.2v1.2H46l3.1-3
		c0.3,0.1,0.6,0.1,0.9,0.1c0.2,0,0.4,0,0.6-0.1l3.1,3H55V22l-3.1-3c0.1-0.3,0.1-0.5,0.1-0.8c0-0.3-0.1-0.6-0.2-0.8l3.2-3.1v-1.2
		h-1.4L50.5,16.2z M55.3,54c0.5,0,0.9,0,1.3,0.1c0.4,0.1,0.8,0.1,1.2,0.1c-0.3-2.9-0.1-5.4,0.4-7.3c0.2-0.7,0.6-1.1,1.1-1.2
		c0.7-0.1,1.3,0.4,1.6,1.3c0.3,1.5,0,4-0.8,7.4c1.3,0.3,2.3,0.4,2.9,0.4c0.2-5,1-9,2.3-12c0.4-0.8,1-1.2,1.9-1.2
		c1.1,0,1.7,0.6,1.6,1.7c0.1,0.1,0.1,0.6,0.1,1.5c0,1.7-0.9,5.2-2.8,10.6c0.9,0.3,1.8,0.5,2.5,0.4c0.3-1,0.7-2,1.1-3.1
		c0.4-1,0.8-2.1,1.4-3.3c0.3-0.7,0.6-1,1.1-1c0.5,0,0.9,0.5,1,1.6c0.1,0.9-0.9,3-2.8,6.3c0.8,0.4,1.6,0.6,2.4,0.6
		c0.4-0.7,0.8-1.5,1.1-2.2c0.3-0.7,0.7-1.6,1.1-2.6c0.7-2.1,1-4.1,0.9-6C75.6,45,75,44.4,74,44.4c-0.5,0-1.1,0.4-1.8,1.2
		c0.1-1.1,0.2-1.7,0.2-2c0-1.3-0.3-2.6-1-3.9c-0.7-1.2-1.8-2-3.4-2.4c-1.1,0-2.3,0.7-3.6,2c-1.3,1.4-2.1,3-2.6,4.9
		c-0.3-1.1-0.8-1.8-1.4-2c-0.6-0.2-1-0.3-1.2-0.3c-0.4,0-0.8,0.1-1.1,0.4c-1.3,1.5-2.1,3.7-2.4,6.8c-0.1,0.7-0.1,1.3-0.2,2
		C55.5,51.9,55.4,52.8,55.3,54z M58.3,31.7c0,0.5,0,0.8,0,1.1c0,1.2,0.3,1.8,0.9,1.8c3.3-3,6.8-4.5,10.7-4.5c3.7,0,6.5,1.2,8.4,3.7
		c1.3,1.6,1.9,3.7,1.9,6.4c0,1.3-0.1,2.8-0.4,4.5c0.1,0.7,0.5,1.1,1.3,1.1c0.8,0,1.2-0.3,1.2-0.9c0.7-2.3,1.1-4.7,1.1-7.2
		c0-3.2-0.7-5.7-2.2-7.6c-2.3-2.9-5.7-4.4-10-4.4C66.4,25.7,62.1,27.7,58.3,31.7z M65,69.7l4.1,3.1l5.2-1.7l-4.1-3.2L65,69.7z"/>

</svg>
