<?xml version="1.0" encoding="utf-8"?>
<!-- Generator: Adobe Illustrator 19.0.0, SVG Export Plug-In . SVG Version: 6.00 Build 0)  -->
<svg version="1.1" id="q" xmlns="http://www.w3.org/2000/svg" xmlns:xlink="http://www.w3.org/1999/xlink" x="0px" y="0px"
	 viewBox="0 0 100 100" enable-background="new 0 0 100 100" xml:space="preserve">

	<path id="XMLID_13_" fill="#FFFFFF" d="M52.4,15.7c0.5,5.3,0.9,10.5,1.4,15.8c0.5,5.3,1,10.5,1.6,15.7c0,0.7,0.4,1.1,1.1,1.1
		c0.5,0,0.9-0.2,1.1-0.6c2.8-6.9,4.9-12.2,6.3-16c1.4-3.8,2.2-6.1,2.5-6.9c-1.5-1.4-2.2-3-2.2-4.8c0-1.6,0.6-2.9,1.7-4
		c1.1-1.1,2.5-1.6,4-1.6c1.6,0,3,0.5,4.1,1.6c1.1,1.1,1.7,2.5,1.7,4c0,2.8-1.5,4.7-4.4,5.7L67.6,47c-0.1,1,0.2,1.5,1,1.5
		c0.7,0,1.2-0.2,1.6-0.6c3.9-3.9,6.7-6.9,8.4-9.1c1.7-2.2,2.9-3.6,3.6-4.4c-0.7-0.9-1.1-2.1-1.1-3.4c0-3.9,1.9-5.8,5.7-5.8
		c1.6,0,3,0.6,4,1.7c1.1,1.1,1.7,2.5,1.7,4.1c0,1.5-0.5,2.9-1.7,4c-1.1,1.1-2.4,1.7-4,1.7c-0.5,0-0.9-0.1-1.3-0.2
		c-2.6,5.7-4.7,11.4-6.2,17.3c-1.3,4.8-2.2,9.3-2.5,13.6l0.3,1.4c-0.1-0.3,0,0.1,0.2,1.2c0.1,0.5,0.2,1,0.2,1.5
		c-0.2,0.5-0.6,1.1-1.2,1.7c-0.5,0.7-0.9,1.9-1.2,3.7c1.2,1.7,1.8,3,1.8,4.1c0,2.7-2.6,5.1-7.9,7.1c-5.3,2-11.6,2.9-19,2.9
		c-7.5,0-13.8-1-19-2.9c-5.2-2-7.9-4.3-7.9-7.1c0-1.1,0.6-2.5,1.9-4.2c-0.4-1.9-0.8-3.1-1.3-3.6c-0.7-0.6-1.1-1.2-1.3-1.7
		c0-0.5,0.1-1,0.2-1.5c0.1-0.3,0.1-0.5,0.1-0.7c0-0.2,0-0.4,0-0.5c0.1-0.3,0.3-0.8,0.4-1.5c-0.3-4.1-1.1-8.6-2.4-13.5
		c-1.7-6.2-3.8-12-6.3-17.4c-0.5,0.2-1.1,0.3-1.7,0.3c-3.8,0-5.7-1.9-5.7-5.7c0-3.9,1.9-5.8,5.7-5.8c3.8,0,5.7,1.9,5.7,5.8
		c0,1.1-0.3,2.2-0.9,3.1c1.9,2.5,3.9,4.8,5.8,6.9c1.9,2.1,4.1,4.4,6.5,6.9c0.3,0.5,0.7,0.7,1.2,0.7c0.9,0,1.4-0.5,1.3-1.5
		c-0.1-0.3-0.5-2.6-1.3-6.9c-0.8-4.4-1.6-9.1-2.5-14.3C25.6,25,24.1,23,24.1,20c0-1.6,0.6-2.9,1.7-4c1.1-1.1,2.5-1.6,4-1.6
		c3.8,0,5.7,1.9,5.7,5.7c0,1.7-0.6,3.2-1.9,4.6c0.1,0.7,0.5,2,1.2,4.1c0.7,2,1.7,4.7,3,8c0.7,1.8,1.5,3.6,2.3,5.5
		c0.8,1.9,1.5,3.7,2.4,5.5c0.2,0.4,0.5,0.6,1,0.6c0.7-0.1,1.1-0.4,1.2-1.1c0.1-0.4,1.1-10.9,3-31.5c-2.3-1.2-3.5-3-3.5-5.5
		c0-1.5,0.6-2.9,1.7-4c1.1-1.2,2.5-1.8,4-1.8c1.6,0,3,0.6,4,1.8c1.1,1.2,1.7,2.5,1.7,4C55.5,12.4,54.5,14.3,52.4,15.7z"/>

	<path id="XMLID_4_" d="M52.4,15.7c0.5,5.3,0.9,10.5,1.4,15.8c0.5,5.3,1,10.5,1.6,15.7c0,0.7,0.4,1.1,1.1,1.1c0.5,0,0.9-0.2,1.1-0.6
		c2.8-6.9,4.9-12.2,6.3-16c1.4-3.8,2.2-6.1,2.5-6.9c-1.5-1.4-2.2-3-2.2-4.8c0-1.6,0.6-2.9,1.7-4c1.1-1.1,2.5-1.6,4-1.6
		c1.6,0,3,0.5,4.1,1.6c1.1,1.1,1.7,2.5,1.7,4c0,2.8-1.5,4.7-4.4,5.7L67.6,47c-0.1,1,0.2,1.5,1,1.5c0.7,0,1.2-0.2,1.6-0.6
		c3.9-3.9,6.7-6.9,8.4-9.1c1.7-2.2,2.9-3.6,3.6-4.4c-0.7-0.9-1.1-2.1-1.1-3.4c0-3.9,1.9-5.8,5.7-5.8c1.6,0,3,0.6,4,1.7
		c1.1,1.1,1.7,2.5,1.7,4.1c0,1.5-0.5,2.9-1.7,4c-1.1,1.1-2.4,1.7-4,1.7c-0.5,0-0.9-0.1-1.3-0.2c-2.6,5.7-4.7,11.4-6.2,17.3
		c-1.3,4.8-2.2,9.3-2.5,13.6l0.3,1.4c-0.1-0.3,0,0.1,0.2,1.2c0.1,0.5,0.2,1,0.2,1.5c-0.2,0.5-0.6,1.1-1.2,1.7
		c-0.5,0.7-0.9,1.9-1.2,3.7c1.2,1.7,1.8,3,1.8,4.1c0,2.7-2.6,5.1-7.9,7.1c-5.3,2-11.6,2.9-19,2.9c-7.5,0-13.8-1-19-2.9
		c-5.2-2-7.9-4.3-7.9-7.1c0-1.1,0.6-2.5,1.9-4.2c-0.4-1.9-0.8-3.1-1.3-3.6c-0.7-0.6-1.1-1.2-1.3-1.7c0-0.5,0.1-1,0.2-1.5
		c0.1-0.3,0.1-0.5,0.1-0.7c0-0.2,0-0.4,0-0.5c0.1-0.3,0.3-0.8,0.4-1.5c-0.3-4.1-1.1-8.6-2.4-13.5c-1.7-6.2-3.8-12-6.3-17.4
		c-0.5,0.2-1.1,0.3-1.7,0.3c-3.8,0-5.7-1.9-5.7-5.7c0-3.9,1.9-5.8,5.7-5.8c3.8,0,5.7,1.9,5.7,5.8c0,1.1-0.3,2.2-0.9,3.1
		c1.9,2.5,3.9,4.8,5.8,6.9c1.9,2.1,4.1,4.4,6.5,6.9c0.3,0.5,0.7,0.7,1.2,0.7c0.9,0,1.4-0.5,1.3-1.5c-0.1-0.3-0.5-2.6-1.3-6.9
		c-0.8-4.4-1.6-9.1-2.5-14.3C25.6,25,24.1,23,24.1,20c0-1.6,0.6-2.9,1.7-4c1.1-1.1,2.5-1.6,4-1.6c3.8,0,5.7,1.9,5.7,5.7
		c0,1.7-0.6,3.2-1.9,4.6c0.1,0.7,0.5,2,1.2,4.1c0.7,2,1.7,4.7,3,8c0.7,1.8,1.5,3.6,2.3,5.5c0.8,1.9,1.5,3.7,2.4,5.5
		c0.2,0.4,0.5,0.6,1,0.6c0.7-0.1,1.1-0.4,1.2-1.1c0.1-0.4,1.1-10.9,3-31.5c-2.3-1.2-3.5-3-3.5-5.5c0-1.5,0.6-2.9,1.7-4
		c1.1-1.2,2.5-1.8,4-1.8c1.6,0,3,0.6,4,1.8c1.1,1.2,1.7,2.5,1.7,4C55.5,12.4,54.5,14.3,52.4,15.7z M24.3,55.8
		c0.4,1.3,0.8,2.5,1.1,3.6c0.3,1.1,0.5,2.2,0.8,3.4C26.3,63,26.6,63,27,63c2.7-0.8,6.1-1.5,10.1-2.1c4-0.6,8.3-1,12.9-1
		c4.7,0,9,0.3,13,1c4,0.6,7.4,1.3,10.2,2.1c0.2,0,0.4-0.1,0.7-0.2c0.2-1.1,0.5-2.2,0.8-3.3c0.3-1,0.7-2.2,1.1-3.6
		c-3.7-0.9-7.8-1.7-12.1-2.5c-4.4-0.8-8.9-1.3-13.7-1.3c-4.7,0-9.3,0.4-13.5,1.2S28.1,55,24.3,55.8z M35.1,69.7l-5-1.7l-3.9,3.1
		l4.9,1.6L35.1,69.7z M71.4,83c-0.2-1-0.4-1.8-0.7-2.4c-0.4-0.9-0.8-1.4-1.2-1.7c-0.4-0.3-0.7-0.6-1-1.1c-1.7-1.1-4.2-2.1-7.3-2.9
		s-6.8-1.1-11.3-1c-4.5-0.1-8.3,0.2-11.3,1c-3,0.8-5.4,1.8-7.2,2.9c-0.4,0.4-0.8,0.8-1.2,1c-0.4,0.3-0.7,0.8-1,1.6
		c-0.3,1-0.6,1.8-0.7,2.5c-0.1,1.1,0.4,1.7,1.4,1.7s1.5-0.5,1.5-1.6C31.8,79.7,38,78,49.9,78c12.1,0,18.3,1.7,18.6,5.1
		c-0.1,1.1,0.4,1.6,1.4,1.6S71.4,84.2,71.4,83z M39.2,66.1c-1.8,0-2.7,0.9-2.7,2.8c0,1.9,0.9,2.9,2.7,2.9s2.7-1,2.7-2.9
		C41.9,67.1,41,66.1,39.2,66.1z M56.2,67.7l-6.3-3.3l-6.1,3.3l6.3,3.3L56.2,67.7z M60.7,66.1c-1.8,0-2.7,0.9-2.7,2.8
		c0,1.9,0.9,2.9,2.7,2.9s2.7-1,2.7-2.9C63.4,67.1,62.5,66.1,60.7,66.1z M73.3,71.2l-3.5-3.4l-4.5,1.8l3.6,3.4L73.3,71.2z"/>

</svg>
