<?xml version="1.0" encoding="utf-8"?>
<!-- Generator: Adobe Illustrator 19.0.0, SVG Export Plug-In . SVG Version: 6.00 Build 0)  -->
<svg version="1.1" id="r" xmlns="http://www.w3.org/2000/svg" xmlns:xlink="http://www.w3.org/1999/xlink" x="0px" y="0px"
	 viewBox="0 0 100 100" enable-background="new 0 0 100 100" xml:space="preserve">

	<path id="XMLID_16_" fill="#FFFFFF" d="M50,4.4h6.7v6.7h10.1V4.4h11.7v17.5L70.6,31c1.7,2.1,1.7,4.4,0.1,6.7
		c-0.3,0.5-0.4,0.9-0.4,1.2c0,0.4,0.1,0.8,0.4,1.2c0.7,1,1,2.4,1,4.3c0,1.9-0.4,3.3-1.1,4.3c-0.2,0.3-0.3,0.7-0.3,1.1
		s0.1,0.8,0.4,1.2c1.5,2.3,1.5,4.6-0.1,6.9c-0.2,0.3-0.3,0.7-0.3,1.1c0,0.3,0.1,0.7,0.3,1.1c0.7,1.1,1.1,2.5,1.1,4.5
		c0,1.9-0.4,3.3-1.2,4.3l8,3.9v4.2h3.2v14.2H50H18.2V77h3.3v-4.2l7.9-4c-0.8-0.9-1.2-2.3-1.2-4.2c0-1.9,0.4-3.3,1.1-4.4
		c0.3-0.4,0.4-0.8,0.4-1.2c0-0.3-0.1-0.7-0.4-1.1c-1.6-2.3-1.6-4.5-0.1-6.8c0.3-0.5,0.5-1,0.5-1.3c0-0.3-0.1-0.7-0.4-1.1
		c-0.7-1-1-2.4-1-4.3c0-1.9,0.3-3.3,1-4.3c0.3-0.4,0.5-0.8,0.5-1.2c0-0.3-0.1-0.7-0.4-1.1c-1.7-2.4-1.6-4.7,0.1-6.8l-7.9-9.1V4.5
		h11.6v6.6h10.1V4.5L50,4.4z"/>

	<path id="XMLID_4_" d="M50,4.4h6.7v6.7h10.1V4.4h11.7v17.5L70.6,31c1.7,2.1,1.7,4.4,0.1,6.7c-0.3,0.5-0.4,0.9-0.4,1.2
		c0,0.4,0.1,0.8,0.4,1.2c0.7,1,1,2.4,1,4.3c0,1.9-0.4,3.3-1.1,4.3c-0.2,0.3-0.3,0.7-0.3,1.1s0.1,0.8,0.4,1.2
		c1.5,2.3,1.5,4.6-0.1,6.9c-0.2,0.3-0.3,0.7-0.3,1.1c0,0.3,0.1,0.7,0.3,1.1c0.7,1.1,1.1,2.5,1.1,4.5c0,1.9-0.4,3.3-1.2,4.3l8,3.9
		v4.2h3.2v14.2H50H18.2V77h3.3v-4.2l7.9-4c-0.8-0.9-1.2-2.3-1.2-4.2c0-1.9,0.4-3.3,1.1-4.4c0.3-0.4,0.4-0.8,0.4-1.2
		c0-0.3-0.1-0.7-0.4-1.1c-1.6-2.3-1.6-4.5-0.1-6.8c0.3-0.5,0.5-1,0.5-1.3c0-0.3-0.1-0.7-0.4-1.1c-0.7-1-1-2.4-1-4.3
		c0-1.9,0.3-3.3,1-4.3c0.3-0.4,0.5-0.8,0.5-1.2c0-0.3-0.1-0.7-0.4-1.1c-1.7-2.4-1.6-4.7,0.1-6.8l-7.9-9.1V4.5h11.6v6.6h10.1V4.5
		L50,4.4z M21.7,81.9v3.3h56.7v-3.3H21.7z M25,16.8v4.3c4.1-0.2,8.3-0.4,12.5-0.6c4.2-0.2,8.3-0.3,12.5-0.3c4.1,0,8.2,0.1,12.4,0.4
		c4.2,0.2,8.4,0.4,12.6,0.5c0-1.1,0-1.8,0-2.1c0-0.3,0-1.1,0-2.2H25z M27.1,74.4c-1.4,0.1-2.1,0.8-2.1,2.1c0,1.4,0.7,2.1,2.1,2.1
		L50,77.8l22.9,0.8c1.4,0,2.1-0.7,2.1-2.1c0-1.3-0.7-2-2.1-2.1c-3.8-0.3-7.6-0.5-11.5-0.7c-3.8-0.2-7.7-0.3-11.5-0.3
		s-7.6,0.1-11.5,0.3C34.7,74,30.9,74.2,27.1,74.4z M50,25.9c-3.1,0-6.7,0.2-10.8,0.6c-4.1,0.4-6.6,0.8-7.6,1.1
		c-1.1,0.4-1.5,1-1.4,1.9c0.1,0.9,0.6,1.4,1.4,1.6c0.9,0.3,2.6,0.3,5.2,0c2.6-0.4,4.2-0.4,4.8,0c0.6,0.5,0.9,1.6,0.9,3.3
		c0,1.7-0.3,2.9-0.9,3.5c-0.6,0.6-2.3,0.7-4.9,0.2c-2.7-0.5-4.4-0.5-5.1-0.2c-0.7,0.3-0.9,0.8-0.8,1.5c0.1,0.8,0.4,1.4,0.8,1.8
		c0.4,0.3,1,0.2,1.8-0.3c0.8-0.5,1.3-0.4,1.7,0.3c0.4,0.7,0.6,1.8,0.6,3.3c0,1.5-0.2,2.6-0.6,3.3c-0.3,0.7-0.9,0.8-1.7,0.3
		c-0.8-0.6-1.3-0.6-1.8-0.3c-0.5,0.4-0.7,1-0.7,1.9c0,0.8,0.2,1.4,0.7,1.6c0.4,0.3,2,0.2,4.9-0.2c2.8-0.4,4.5-0.4,5.1,0.2
		c0.6,0.6,0.9,1.7,0.9,3.3c0,1.6-0.3,2.7-0.9,3.4c-0.6,0.7-2.3,0.8-5.1,0.3c-2.8-0.5-4.5-0.6-4.9-0.3c-1.3,1.1-1.3,2.2,0,3.3
		c0.4,0.4,1,0.3,1.8-0.2c0.8-0.5,1.3-0.5,1.7,0.2c0.4,0.8,0.6,1.9,0.6,3.3c0,1.4-0.2,2.5-0.6,3.3c-0.3,0.8-0.9,0.9-1.7,0.4
		c-0.8-0.6-1.3-0.7-1.8-0.4c-0.4,0.4-0.7,1-0.9,1.8c-0.2,0.8,0.1,1.3,0.9,1.5c0.7,0.3,2.8,0.2,6.5-0.1c3.6-0.3,7.6-0.5,12-0.5
		c4.3,0,8.3,0.1,12,0.4c3.8,0.3,5.9,0.3,6.4,0.2c0.7-0.1,0.9-0.5,0.8-1.4c-0.1-0.9-0.4-1.5-0.8-1.9c-0.4-0.3-1-0.2-1.8,0.4
		c-0.8,0.6-1.4,0.4-1.8-0.4c-0.4-0.7-0.6-1.8-0.6-3.3c0-1.4,0.2-2.5,0.6-3.3c0.4-0.7,1-0.7,1.8-0.2c0.8,0.5,1.3,0.6,1.8,0.2
		c1.2-1.2,1.2-2.3,0-3.3c-0.4-0.3-2.1-0.2-5.1,0.3c-3,0.4-4.6,0.3-5-0.3c-0.4-0.6-0.6-1.6-0.7-3.1c-0.1-1.5,0.2-2.6,0.7-3.5
		c0.5-0.9,2.2-1.1,5.1-0.5c2.9,0.6,4.5,0.7,5,0.5c0.4-0.2,0.6-0.7,0.6-1.6c0-0.9-0.2-1.5-0.6-1.9c-0.4-0.4-1-0.3-1.8,0.3
		c-0.8,0.6-1.4,0.5-1.8-0.3c-0.4-0.7-0.6-1.8-0.6-3.3c0-1.5,0.2-2.6,0.6-3.3c0.4-0.7,1-0.8,1.8-0.3c0.8,0.5,1.3,0.6,1.8,0.3
		c0.4-0.4,0.6-1,0.6-1.8c0-0.8-0.2-1.3-0.6-1.5c-0.5-0.3-2.2-0.3-5.1,0.2c-2.8,0.5-4.5,0.4-5-0.2c-0.5-0.6-0.8-1.7-0.8-3.3
		c0-1.6,0.3-2.7,0.8-3.4c0.5-0.5,2.1-0.5,4.8,0c2.7,0.5,4.4,0.5,5.3,0c0.9-0.4,1.3-1,1.4-1.8c0.1-0.8-0.4-1.4-1.4-1.8
		c-1.1-0.3-3.7-0.7-7.8-1.1C56.5,26.1,53,25.9,50,25.9z M39.1,41.1c1-0.8,2.4-1.2,4.2-1.2s3.2,0.4,4.2,1.2c1,0.7,1.5,1.8,1.5,3.3
		c0,1.5-0.5,2.6-1.5,3.3c-1,0.8-2.4,1.2-4.2,1.2s-3.2-0.4-4.2-1.2c-1-0.7-1.5-1.8-1.5-3.3C37.6,43,38.1,41.9,39.1,41.1z M39.1,61.1
		c1-0.7,2.4-1.1,4.2-1.1s3.2,0.4,4.2,1.1c1,0.8,1.5,2,1.3,3.5c-0.1,1.6-0.5,2.6-1.3,3c-0.9,0.5-2.3,0.8-4.3,0.8
		c-2,0-3.4-0.3-4.1-0.8c-0.8-0.4-1.3-1.4-1.3-3C37.7,63.1,38.1,61.9,39.1,61.1z M45.9,31.1c0.9-0.7,2.3-1.1,4-1.1
		c1.8,0,3.1,0.4,4,1.1c1,0.8,1.5,1.9,1.5,3.4c0,1.4-0.5,2.5-1.5,3.4c-0.9,0.8-2.3,1.2-4,1.2c-1.8,0-3.1-0.4-4-1.2
		c-0.9-0.8-1.4-1.9-1.4-3.4C44.5,33.1,45,31.9,45.9,31.1z M45.9,51.2c0.9-0.8,2.3-1.2,4-1.2c1.8,0,3.1,0.4,4,1.2
		c1,0.7,1.5,1.8,1.5,3.3c0,1.5-0.5,2.6-1.5,3.3c-0.9,0.8-2.3,1.2-4,1.2c-1.8,0-3.1-0.4-4-1.2c-0.9-0.7-1.4-1.8-1.4-3.3
		C44.5,53.1,45,52,45.9,51.2z M52.5,61.1c0.9-0.7,2.3-1.1,4.2-1.1c1.8,0,3.3,0.4,4.3,1.1c0.9,0.8,1.4,2,1.4,3.5c0,1.6-0.4,2.6-1.4,3
		c-1.1,0.5-2.5,0.8-4.3,0.8c-1.8,0-3.2-0.3-4.1-0.8c-1.1-0.5-1.6-1.5-1.5-3C51,63.1,51.5,61.9,52.5,61.1z M52.5,41.1
		c0.9-0.8,2.3-1.2,4.2-1.2c1.8,0,3.3,0.4,4.3,1.2c0.9,0.7,1.4,1.8,1.4,3.3c0,1.5-0.5,2.6-1.4,3.3c-1,0.8-2.4,1.2-4.3,1.2
		c-1.8,0-3.2-0.4-4.2-1.2c-1-0.7-1.5-1.8-1.5-3.3C51,43,51.5,41.9,52.5,41.1z"/>

</svg>
