<?xml version="1.0" encoding="utf-8"?>
<!-- Generator: Adobe Illustrator 19.0.0, SVG Export Plug-In . SVG Version: 6.00 Build 0)  -->
<svg version="1.1" id="b" xmlns="http://www.w3.org/2000/svg" xmlns:xlink="http://www.w3.org/1999/xlink" x="0px" y="0px"
	 viewBox="0 0 100 100" enable-background="new 0 0 100 100" xml:space="preserve">

	<path id="XMLID_8_" fill="#FFFFFF" d="M9.9,91V77.7h7.3c-0.3-0.7-0.5-1.6-0.5-2.5c0-1.6,0.6-3,1.7-4.1c1.1-1.2,2.5-1.8,4.1-1.8h4.7
		l-9.9-37.1c-0.4-1.4,0.1-2.4,1.6-3l25.6-10.3c-1.9-1.7-2.8-3.7-2.8-6.2c0-2.3,0.8-4.3,2.4-5.9c1.6-1.6,3.6-2.4,5.9-2.4
		c2.3,0,4.3,0.8,5.9,2.4c1.6,1.6,2.4,3.6,2.4,5.9c0,2.5-0.9,4.5-2.8,6.2l25.6,10.3c1.5,0.6,2.1,1.6,1.7,3l-9.9,37.1h4.6
		c1.7,0,3.1,0.6,4.2,1.7c1.1,1.1,1.7,2.5,1.7,4.2c0,0.9-0.2,1.8-0.6,2.5h7.4V91H9.9z"/>

	<path id="XMLID_4_" d="M9.9,91V77.7h7.3c-0.3-0.7-0.5-1.6-0.5-2.5c0-1.6,0.6-3,1.7-4.1c1.1-1.2,2.5-1.8,4.1-1.8h4.7l-9.9-37.1
		c-0.4-1.4,0.1-2.4,1.6-3l25.6-10.3c-1.9-1.7-2.8-3.7-2.8-6.2c0-2.3,0.8-4.3,2.4-5.9c1.6-1.6,3.6-2.4,5.9-2.4c2.3,0,4.3,0.8,5.9,2.4
		c1.6,1.6,2.4,3.6,2.4,5.9c0,2.5-0.9,4.5-2.8,6.2l25.6,10.3c1.5,0.6,2.1,1.6,1.7,3l-9.9,37.1h4.6c1.7,0,3.1,0.6,4.2,1.7
		c1.1,1.1,1.7,2.5,1.7,4.2c0,0.9-0.2,1.8-0.6,2.5h7.4V91H9.9z M24.2,77.7c-1.1,0-1.7,0.6-1.7,1.7c0,1.1,0.6,1.7,1.7,1.7h51.6
		c1.1,0,1.7-0.6,1.7-1.7c0-1.1-0.6-1.7-1.7-1.7H24.2z M53.3,69.3V43.5h10.1v-6.6H53.3v-10h-6.2v10H36.7v6.6h10.4v25.8H53.3z"/>

</svg>
