<?xml version="1.0" encoding="utf-8"?>
<!-- Generator: Adobe Illustrator 19.0.0, SVG Export Plug-In . SVG Version: 6.00 Build 0)  -->
<svg version="1.1" id="n" xmlns="http://www.w3.org/2000/svg" xmlns:xlink="http://www.w3.org/1999/xlink" x="0px" y="0px"
	 viewBox="0 0 100 100" enable-background="new 0 0 100 100" xml:space="preserve">

	<path id="XMLID_11_" fill="#FFFFFF" d="M78.4,69.3c3.3,0.5,4.9,2.5,4.9,5.9c0,0.9-0.2,1.7-0.5,2.5H90V91H9.9V77.7h7.3
		c-0.3-0.7-0.5-1.6-0.5-2.5c0-1.6,0.6-3,1.7-4.1c1.1-1.2,2.5-1.8,4.1-1.8h6.7c2-7.4,5.8-12.9,11.3-16.5c2.4-2.1,4.3-3.8,5.7-5.1
		c2.3-2.3,3.9-4.3,4.8-5.9c-3.6,2.3-6.8,4.5-9.5,6.6c-2.9,2.3-5.6,5.1-8,8.4c-1.7,2.3-3.9,3.5-6.7,3.5c-0.5,0-1,0-1.5-0.1
		c-0.2-0.4-0.6-0.9-1.3-1.5c-0.5,0.2-1.2,0.3-2.1,0.2c-2.7-1.5-4.3-2.5-4.9-3.2c-1-1.1-1.5-3-1.6-5.5c-0.1-3.1,0.9-6.1,2.8-9.1
		c1.4-2.2,4.2-7.1,8.3-14.7c3.5-6.4,6.3-11.1,8.6-14c-0.5-2.4-0.8-4.6-0.7-6.6c1.7,0.9,3.5,2.1,5.2,3.6c0.1-0.1,0.2-0.1,0.4-0.2
		c1.5-0.6,3.2-1.1,5-1.6c-0.1-0.5-0.2-1.2-0.1-2.1L45,3.1c1.9,1.1,3.9,2.4,5.8,4c5.1,0.3,10.4,2.8,15.9,7.6
		c4.2,4.7,7.4,10.9,9.6,18.5c1.9,6.7,2.9,13.6,2.9,20.9C79.2,61.4,78.9,66.5,78.4,69.3z"/>

	<path id="XMLID_4_" d="M78.4,69.3c3.3,0.5,4.9,2.5,4.9,5.9c0,0.9-0.2,1.7-0.5,2.5H90V91H9.9V77.7h7.3c-0.3-0.7-0.5-1.6-0.5-2.5
		c0-1.6,0.6-3,1.7-4.1c1.1-1.2,2.5-1.8,4.1-1.8h6.7c2-7.4,5.8-12.9,11.3-16.5c2.4-2.1,4.3-3.8,5.7-5.1c2.3-2.3,3.9-4.3,4.8-5.9
		c-3.6,2.3-6.8,4.5-9.5,6.6c-2.9,2.3-5.6,5.1-8,8.4c-1.7,2.3-3.9,3.5-6.7,3.5c-0.5,0-1,0-1.5-0.1c-0.2-0.4-0.6-0.9-1.3-1.5
		c-0.5,0.2-1.2,0.3-2.1,0.2c-2.7-1.5-4.3-2.5-4.9-3.2c-1-1.1-1.5-3-1.6-5.5c-0.1-3.1,0.9-6.1,2.8-9.1c1.4-2.2,4.2-7.1,8.3-14.7
		c3.5-6.4,6.3-11.1,8.6-14c-0.5-2.4-0.8-4.6-0.7-6.6c1.7,0.9,3.5,2.1,5.2,3.6c0.1-0.1,0.2-0.1,0.4-0.2c1.5-0.6,3.2-1.1,5-1.6
		c-0.1-0.5-0.2-1.2-0.1-2.1L45,3.1c1.9,1.1,3.9,2.4,5.8,4c5.1,0.3,10.4,2.8,15.9,7.6c4.2,4.7,7.4,10.9,9.6,18.5
		c1.9,6.7,2.9,13.6,2.9,20.9C79.2,61.4,78.9,66.5,78.4,69.3z M24.3,50.1c0-1.3-0.7-2-2-2c-0.7,0-1.4,0.4-2.3,1.1
		c-0.8,0.7-1.3,1.4-1.3,2.1c0,0.5,0.2,0.9,0.6,1.3c0.4-0.1,0.9,0,1.6,0.3c0.1,0.3,0.3,0.5,0.6,0.5c0.3,0,0.7-0.3,1.3-0.8
		C23.8,51.7,24.3,50.9,24.3,50.1z M24.2,77.7c-1.1,0-1.7,0.6-1.7,1.7c0,1.1,0.6,1.6,1.7,1.6h51.6c1.1,0,1.7-0.5,1.7-1.6
		c0-1.1-0.6-1.7-1.7-1.7H24.2z M28.3,55.3c1.8-2.7,3.4-4.6,4.7-5.6c0-1.3-0.2-2-0.7-2.2c-1.3-0.6-3.5,1.5-6.6,6.2
		c-0.9,1.3-0.8,2.2,0.1,2.7C26.7,56.9,27.5,56.5,28.3,55.3z M33.6,23.5c-1.1,1.5-1.6,2.8-1.6,3.7c0,1.3,0.6,1.9,1.8,1.9
		c1,0,2.2-1,3.6-2.9c1.1-1.5,1.6-2.7,1.6-3.7c0-1.3-0.6-1.9-1.8-1.9C36.1,20.6,34.9,21.6,33.6,23.5z M37.6,24.6l-1,1.7
		c-0.5,0.7-1.1,1.2-1.7,1.7l-0.5-0.7c-0.5-1.6,0-2.6,1.5-3C36.5,24.2,37.1,24.3,37.6,24.6z"/>

</svg>
