<?xml version="1.0" encoding="utf-8"?>
<!-- Generator: Adobe Illustrator 19.0.0, SVG Export Plug-In . SVG Version: 6.00 Build 0)  -->
<svg version="1.1" id="p" xmlns="http://www.w3.org/2000/svg" xmlns:xlink="http://www.w3.org/1999/xlink" x="0px" y="0px"
	 viewBox="0 0 100 100" enable-background="new 0 0 100 100" xml:space="preserve">

	<path id="XMLID_7_" fill="#FFFFFF" d="M52.4,12.5c2.1,0.5,3.9,1.6,5.4,3.2c1.5,1.6,2.2,3.4,2.2,5.5c0,3.2-1.5,5.7-4.6,7.5
		c1,6.5,3.1,13,6.4,19.7C66,57,71.3,64,77.6,69.3c1.6,0,3,0.6,4.1,1.8c1.1,1.2,1.7,2.5,1.7,4.1c0,0.9-0.2,1.8-0.6,2.5h7.4V91H9.9
		V77.7h7.3c-0.3-0.7-0.5-1.6-0.5-2.5c0-1.6,0.6-3,1.7-4.1c1.1-1.2,2.5-1.8,4.1-1.8C28.8,64,34.1,57,38.3,48.4
		c3.2-6.5,5.3-13.1,6.3-19.7C41.5,27,40,24.5,40,21.2c0-2.1,0.7-4,2.2-5.5c1.5-1.6,3.3-2.6,5.4-3.2c-0.1-0.2-0.1-0.4-0.1-0.7
		c0-1.7,0.8-2.5,2.5-2.5c1.7,0,2.5,0.8,2.5,2.5C52.5,12.1,52.5,12.3,52.4,12.5z"/>

	<path id="XMLID_4_" d="M52.4,12.5c2.1,0.5,3.9,1.6,5.4,3.2c1.5,1.6,2.2,3.4,2.2,5.5c0,3.2-1.5,5.7-4.6,7.5c1,6.5,3.1,13,6.4,19.7
		C66,57,71.3,64,77.6,69.3c1.6,0,3,0.6,4.1,1.8c1.1,1.2,1.7,2.5,1.7,4.1c0,0.9-0.2,1.8-0.6,2.5h7.4V91H9.9V77.7h7.3
		c-0.3-0.7-0.5-1.6-0.5-2.5c0-1.6,0.6-3,1.7-4.1c1.1-1.2,2.5-1.8,4.1-1.8C28.8,64,34.1,57,38.3,48.4c3.2-6.5,5.3-13.1,6.3-19.7
		C41.5,27,40,24.5,40,21.2c0-2.1,0.7-4,2.2-5.5c1.5-1.6,3.3-2.6,5.4-3.2c-0.1-0.2-0.1-0.4-0.1-0.7c0-1.7,0.8-2.5,2.5-2.5
		c1.7,0,2.5,0.8,2.5,2.5C52.5,12.1,52.5,12.3,52.4,12.5z M24.2,77.7c-1.1,0-1.7,0.6-1.7,1.7c0,1.1,0.6,1.7,1.7,1.7h51.6
		c1.1,0,1.7-0.6,1.7-1.7c0-1.1-0.6-1.7-1.7-1.7H24.2z"/>

</svg>
