<?xml version="1.0" encoding="utf-8"?>
<!-- Generator: Adobe Illustrator 19.0.0, SVG Export Plug-In . SVG Version: 6.00 Build 0)  -->
<svg version="1.1" id="R" xmlns="http://www.w3.org/2000/svg" xmlns:xlink="http://www.w3.org/1999/xlink" x="0px" y="0px"
	 viewBox="0 0 100 100" enable-background="new 0 0 100 100" xml:space="preserve">

	<path id="XMLID_10_" fill="#FFFFFF" d="M9.9,91V77.7h7.3c-0.3-0.7-0.5-1.6-0.5-2.5c0-1.7,0.5-3.1,1.6-4.2c1.1-1.1,2.5-1.7,4.1-1.7
		l5.6-31.6H16.7V4.4h15.8V21h9.2V4.4h16.6V21h9.2V4.4h15.8v33.3H71.9l5.6,31.6c1.6,0,3,0.6,4.1,1.8c1.1,1.2,1.7,2.5,1.7,4.1
		c0,0.9-0.2,1.8-0.6,2.5h7.4V91H9.9z"/>

	<path id="XMLID_4_" d="M9.9,91V77.7h7.3c-0.3-0.7-0.5-1.6-0.5-2.5c0-1.7,0.5-3.1,1.6-4.2c1.1-1.1,2.5-1.7,4.1-1.7l5.6-31.6H16.7
		V4.4h15.8V21h9.2V4.4h16.6V21h9.2V4.4h15.8v33.3H71.9l5.6,31.6c1.6,0,3,0.6,4.1,1.8c1.1,1.2,1.7,2.5,1.7,4.1c0,0.9-0.2,1.8-0.6,2.5
		h7.4V91H9.9z M86.6,87.7V81H13.4v6.7H86.6z M80,34.4V7.7h-9.2v16.7H55V7.7H45v16.7H29.2V7.7H20v26.7H80z M77.5,77.7
		c1.7,0,2.5-0.8,2.5-2.5c0-1.7-0.8-2.5-2.5-2.5h-55c-1.7,0-2.5,0.8-2.5,2.5c0,1.7,0.8,2.5,2.5,2.5H77.5z M73.9,69.3l-5.6-31.6H31.6
		L26,69.3H73.9z"/>

</svg>
