<?xml version="1.0" encoding="utf-8"?>
<!-- Generator: Adobe Illustrator 19.0.0, SVG Export Plug-In . SVG Version: 6.00 Build 0)  -->
<svg version="1.1" id="B" xmlns="http://www.w3.org/2000/svg" xmlns:xlink="http://www.w3.org/1999/xlink" x="0px" y="0px"
	 viewBox="0 0 100 100" enable-background="new 0 0 100 100" xml:space="preserve">

	<path id="XMLID_11_" fill="#FFFFFF" d="M9.9,91V77.7h7.3c-0.3-0.7-0.5-1.6-0.5-2.5c0-1.6,0.6-3,1.7-4.1c1.1-1.2,2.5-1.8,4.1-1.8
		h4.7l-9.9-37.1c-0.4-1.4,0.1-2.4,1.6-3l25.6-10.3c-1.9-1.7-2.8-3.7-2.8-6.2c0-2.3,0.8-4.3,2.4-5.9c1.6-1.6,3.6-2.4,5.9-2.4
		c2.3,0,4.3,0.8,5.9,2.4c1.6,1.6,2.4,3.6,2.4,5.9c0,2.5-0.9,4.5-2.8,6.2l25.6,10.3c1.5,0.6,2.1,1.6,1.7,3l-9.9,37.1h4.6
		c1.7,0,3.1,0.6,4.2,1.7c1.1,1.1,1.7,2.5,1.7,4.2c0,0.9-0.2,1.8-0.6,2.5h7.4V91H9.9z"/>

	<path id="XMLID_4_" d="M9.9,91V77.7h7.3c-0.3-0.7-0.5-1.6-0.5-2.5c0-1.6,0.6-3,1.7-4.1c1.1-1.2,2.5-1.8,4.1-1.8h4.7l-9.9-37.1
		c-0.4-1.4,0.1-2.4,1.6-3l25.6-10.3c-1.9-1.7-2.8-3.7-2.8-6.2c0-2.3,0.8-4.3,2.4-5.9c1.6-1.6,3.6-2.4,5.9-2.4c2.3,0,4.3,0.8,5.9,2.4
		c1.6,1.6,2.4,3.6,2.4,5.9c0,2.5-0.9,4.5-2.8,6.2l25.6,10.3c1.5,0.6,2.1,1.6,1.7,3l-9.9,37.1h4.6c1.7,0,3.1,0.6,4.2,1.7
		c1.1,1.1,1.7,2.5,1.7,4.2c0,0.9-0.2,1.8-0.6,2.5h7.4V91H9.9z M86.7,87.7V81H13.4v6.7H86.7z M77.6,77.7c1.7,0,2.5-0.8,2.5-2.5
		c0-1.7-0.8-2.5-2.5-2.5H22.5c-1.7,0-2.5,0.8-2.5,2.5c0,1.7,0.8,2.5,2.5,2.5H77.6z M55.1,25.2v10h10v10h-10v24.1h14.2l9.5-35.4
		c0.3-1.1-0.2-1.9-1.4-2.4L51.2,20.9L50,21l-1.2-0.1L22.6,31.5c-0.7,0.3-1.1,0.6-1.3,1.1c-0.1,0.3-0.1,0.8,0,1.3l9.5,35.4H45V45.2
		H35v-10h10v-10H55.1z M51.6,69.3V41.9h10.1v-3.4H51.6v-10h-3.3v10h-10v3.4h10v27.4H51.6z M50,17.6c3.4,0,5.1-1.6,5.1-4.9
		c0-3.3-1.7-5-5.1-5c-3.3,0-5,1.7-5,5C45,16,46.7,17.6,50,17.6z"/>

</svg>
