<?xml version="1.0" encoding="utf-8"?>
<!-- Generator: Adobe Illustrator 19.0.0, SVG Export Plug-In . SVG Version: 6.00 Build 0)  -->
<svg version="1.1" id="N" xmlns="http://www.w3.org/2000/svg" xmlns:xlink="http://www.w3.org/1999/xlink" x="0px" y="0px"
	 viewBox="0 0 100 100" enable-background="new 0 0 100 100" xml:space="preserve">

	<path id="XMLID_12_" fill="#FFFFFF" d="M78.4,69.3c3.3,0.5,4.9,2.5,4.9,5.9c0,0.9-0.2,1.7-0.5,2.5H90V91H9.9V77.7h7.3
		c-0.3-0.7-0.5-1.6-0.5-2.5c0-1.6,0.6-3,1.7-4.1c1.1-1.2,2.5-1.8,4.1-1.8h6.7c2-7.4,5.8-12.9,11.3-16.5c2.4-2.1,4.3-3.8,5.7-5.1
		c2.3-2.3,3.9-4.3,4.8-5.9c-3.6,2.3-6.8,4.5-9.5,6.6c-2.9,2.3-5.6,5.1-8,8.4c-1.7,2.3-3.9,3.5-6.7,3.5c-0.5,0-1,0-1.5-0.1
		c-0.2-0.4-0.6-0.9-1.3-1.5c-0.5,0.2-1.2,0.3-2.1,0.2c-2.7-1.5-4.3-2.5-4.9-3.2c-1-1.1-1.5-3-1.6-5.5c-0.1-3.1,0.9-6.1,2.8-9.1
		c1.4-2.2,4.2-7.1,8.3-14.7c3.5-6.4,6.3-11.1,8.6-14c-0.5-2.4-0.8-4.6-0.7-6.6c1.7,0.9,3.5,2.1,5.2,3.6c0.1-0.1,0.2-0.1,0.4-0.2
		c1.5-0.6,3.2-1.1,5-1.6c-0.1-0.5-0.2-1.2-0.1-2.1L45,3.1c1.9,1.1,3.9,2.4,5.8,4c5.1,0.3,10.4,2.8,15.9,7.6
		c4.2,4.7,7.4,10.9,9.6,18.5c1.9,6.7,2.9,13.6,2.9,20.9C79.2,61.4,78.9,66.5,78.4,69.3z"/>

	<path id="XMLID_4_" d="M78.4,69.3c3.3,0.5,4.9,2.5,4.9,5.9c0,0.9-0.2,1.7-0.5,2.5H90V91H9.9V77.7h7.3c-0.3-0.7-0.5-1.6-0.5-2.5
		c0-1.6,0.6-3,1.7-4.1c1.1-1.2,2.5-1.8,4.1-1.8h6.7c2-7.4,5.8-12.9,11.3-16.5c2.4-2.1,4.3-3.8,5.7-5.1c2.3-2.3,3.9-4.3,4.8-5.9
		c-3.6,2.3-6.8,4.5-9.5,6.6c-2.9,2.3-5.6,5.1-8,8.4c-1.7,2.3-3.9,3.5-6.7,3.5c-0.5,0-1,0-1.5-0.1c-0.2-0.4-0.6-0.9-1.3-1.5
		c-0.5,0.2-1.2,0.3-2.1,0.2c-2.7-1.5-4.3-2.5-4.9-3.2c-1-1.1-1.5-3-1.6-5.5c-0.1-3.1,0.9-6.1,2.8-9.1c1.4-2.2,4.2-7.1,8.3-14.7
		c3.5-6.4,6.3-11.1,8.6-14c-0.5-2.4-0.8-4.6-0.7-6.6c1.7,0.9,3.5,2.1,5.2,3.6c0.1-0.1,0.2-0.1,0.4-0.2c1.5-0.6,3.2-1.1,5-1.6
		c-0.1-0.5-0.2-1.2-0.1-2.1L45,3.1c1.9,1.1,3.9,2.4,5.8,4c5.1,0.3,10.4,2.8,15.9,7.6c4.2,4.7,7.4,10.9,9.6,18.5
		c1.9,6.7,2.9,13.6,2.9,20.9C79.2,61.4,78.9,66.5,78.4,69.3z M13.4,81v6.7h73.3V81H13.4z M74.2,69.3c0.7-3.7,1.1-8.7,1.1-15.2
		c0-6.2-0.8-12.4-2.3-18.5c-1.8-7.2-4.3-12.8-7.5-16.8c-2.7-3.3-6-5.7-9.9-7.2c0.3,0.4,0.5,0.7,0.8,1c0.9,1.1,1.1,1.9,0.6,2.4
		c-0.4,0.5-0.8,0.7-1.1,0.7c-0.4,0-0.8-0.3-1.2-0.8c-1.1-1.3-2.1-2.6-3.2-3.9c-1.3-1.5-2.5-2.6-3.8-3.3c0.3,1.7,0.9,3.6,1.8,5.6
		c0.1,0.7,0.1,1.2,0,1.7c-0.3,0.5-0.7,0.7-1.4,0.4c-0.5-0.2-0.9-0.5-1-0.9c-0.7-1.3-1.1-2.5-1.3-3.7c-3,0.7-5.1,1.4-6.2,2.1
		c-0.5-0.8-1.2-1.4-2.2-1.8c0.1,0.9,0.3,1.9,0.7,2.9l-0.7,0.7c-1.2,2.2-3.3,5.9-6.2,11.2l-0.4,0.7c-3.3,5.9-6.6,11.2-9.7,15.9
		c-1.4,2.1-2.2,4.4-2.3,6.9c-0.1,1.9,0.2,3.4,1.1,4.3c0.4,0.5,1.6,1.3,3.7,2.4c3.5-5.9,6.1-8.9,7.7-8.9c0.2,0,0.4,0,0.5,0.1
		c0.5,0.2,0.8,0.9,0.8,2.2c-1.7,1.3-3.8,4-6.1,7.9c1.3,0,2.3-0.2,2.8-0.5c0.5-0.4,1.9-1.9,4.2-4.7c3.1-3.8,7.2-7.3,12.2-10.5
		c3-1.9,5.5-3.8,7.4-5.5c1.7-1.9,3-2.9,3.9-2.9c0.7,0,1.1,0.4,1.1,1.1c0,0.9-0.8,2.2-2.5,4c-1.2,3.3-2.6,6.1-4.2,8.3
		c-1.5,1.9-3.7,4.1-6.6,6.5c-5.5,3.4-9.6,8.8-12.1,16.1H74.2z M22.5,72.7c-1.7,0-2.5,0.8-2.5,2.5c0,1.7,0.8,2.5,2.5,2.5h55
		c1.7,0,2.5-0.8,2.5-2.5c0-1.7-0.8-2.5-2.5-2.5H22.5z M23.9,51.7c-0.9,1-1.5,1.2-1.8,0.5c-0.1-0.1-0.3-0.2-0.7-0.1
		c-0.2,0.1-0.4,0.1-0.5,0.1c-0.1,0-0.2,0-0.2-0.1c-0.4-0.4-0.6-0.8-0.6-1.2c0-0.7,0.3-1.3,1-2c1.1-1.2,2.2-1.3,3.2-0.4
		C25.2,49.3,25,50.4,23.9,51.7z M34.9,23.3c1.3-1.9,2.5-2.9,3.6-2.9c1.2,0,1.8,0.6,1.8,1.8c0,1-0.5,2.2-1.6,3.7
		c-1.4,1.9-2.6,2.9-3.6,2.9c-1.2,0-1.8-0.6-1.8-1.9C33.3,26.1,33.8,24.9,34.9,23.3z M38.4,24.8c-0.4-0.3-0.8-0.3-1.2-0.2
		c-0.9,0.3-1.3,0.9-1,2l0.3,0.4c0.5-0.3,0.9-0.6,1.2-1.1C37.8,25.8,38.1,25.4,38.4,24.8z"/>

</svg>
