<?xml version="1.0" encoding="utf-8"?>
<!-- Generator: Adobe Illustrator 19.0.0, SVG Export Plug-In . SVG Version: 6.00 Build 0)  -->
<svg version="1.1" id="P" xmlns="http://www.w3.org/2000/svg" xmlns:xlink="http://www.w3.org/1999/xlink" x="0px" y="0px"
	 viewBox="0 0 100 100" enable-background="new 0 0 100 100" xml:space="preserve">

	<path id="XMLID_10_" fill="#FFFFFF" d="M52.4,12.5c2.1,0.5,3.9,1.6,5.4,3.2c1.5,1.6,2.2,3.4,2.2,5.5c0,3.2-1.5,5.7-4.6,7.5
		c1,6.5,3.1,13,6.4,19.7C66,57,71.3,64,77.6,69.3c1.6,0,3,0.6,4.1,1.8c1.1,1.2,1.7,2.5,1.7,4.1c0,0.9-0.2,1.8-0.6,2.5h7.4V91H9.9
		V77.7h7.3c-0.3-0.7-0.5-1.6-0.5-2.5c0-1.6,0.6-3,1.7-4.1c1.1-1.2,2.5-1.8,4.1-1.8C28.8,64,34.1,57,38.3,48.4
		c3.2-6.5,5.3-13.1,6.3-19.7C41.5,27,40,24.5,40,21.2c0-2.1,0.7-4,2.2-5.5c1.5-1.6,3.3-2.6,5.4-3.2c-0.1-0.2-0.1-0.4-0.1-0.7
		c0-1.7,0.8-2.5,2.5-2.5c1.7,0,2.5,0.8,2.5,2.5C52.5,12.1,52.5,12.3,52.4,12.5z"/>

	<path id="XMLID_4_" d="M52.4,12.5c2.1,0.5,3.9,1.6,5.4,3.2c1.5,1.6,2.2,3.4,2.2,5.5c0,3.2-1.5,5.7-4.6,7.5c1,6.5,3.1,13,6.4,19.7
		C66,57,71.3,64,77.6,69.3c1.6,0,3,0.6,4.1,1.8c1.1,1.2,1.7,2.5,1.7,4.1c0,0.9-0.2,1.8-0.6,2.5h7.4V91H9.9V77.7h7.3
		c-0.3-0.7-0.5-1.6-0.5-2.5c0-1.6,0.6-3,1.7-4.1c1.1-1.2,2.5-1.8,4.1-1.8C28.8,64,34.1,57,38.3,48.4c3.2-6.5,5.3-13.1,6.3-19.7
		C41.5,27,40,24.5,40,21.2c0-2.1,0.7-4,2.2-5.5c1.5-1.6,3.3-2.6,5.4-3.2c-0.1-0.2-0.1-0.4-0.1-0.7c0-1.7,0.8-2.5,2.5-2.5
		c1.7,0,2.5,0.8,2.5,2.5C52.5,12.1,52.5,12.3,52.4,12.5z M86.7,87.7V81H13.4v6.7H86.7z M77.6,77.7c1.7,0,2.5-0.8,2.5-2.5
		c0-1.7-0.8-2.5-2.5-2.5H22.5c-1.7,0-2.5,0.8-2.5,2.5c0,1.7,0.8,2.5,2.5,2.5H77.6z M52.4,29.9c-0.7,0.2-1.5,0.3-2.4,0.3
		c-0.9,0-1.7-0.1-2.4-0.3c-1.1,7.1-3.5,14.2-7.1,21.3c-3.6,7.1-8,13.1-13.1,18.1h45.3c-5.1-4.9-9.4-11-13.1-18.2
		C56,44.1,53.6,37.1,52.4,29.9z M50,27.2c1.7,0,3.3-0.6,4.6-1.7c1.3-1.1,2-2.6,2-4.3c0-1.7-0.7-3.1-2-4.2c-1.3-1.1-2.9-1.7-4.6-1.7
		c-1.7,0-3.3,0.5-4.6,1.6c-1.3,1.1-2,2.5-2,4.3c0,1.7,0.6,3.2,1.9,4.3C46.7,26.7,48.2,27.2,50,27.2z"/>

</svg>
