<?xml version="1.0" encoding="utf-8"?>
<!-- Generator: Adobe Illustrator 19.0.0, SVG Export Plug-In . SVG Version: 6.00 Build 0)  -->
<svg version="1.1" id="k" xmlns="http://www.w3.org/2000/svg" xmlns:xlink="http://www.w3.org/1999/xlink" x="0px" y="0px"
	 viewBox="0 0 100 100" enable-background="new 0 0 100 100" xml:space="preserve">

	<path id="XMLID_9_" fill="#FFFFFF" d="M55,39.4c14.7-0.6,26.4-3.6,35.3-9L77.7,69.3c1.6,0,3,0.6,4.1,1.8c1.1,1.2,1.7,2.5,1.7,4.1
		c0,0.9-0.2,1.8-0.6,2.5h7.4V91H9.9V77.7h7.3c-0.3-0.7-0.5-1.6-0.5-2.5c0-1.6,0.6-3,1.7-4.1c1.1-1.2,2.5-1.8,4.1-1.8L9.8,30.4
		c8.9,5.4,20.6,8.4,35.2,9v-1.7h3.3v31.6h3.3V37.7H55V39.4z M57.5,4.4l-4.2,13.3l13.4-3.3v13.3l-13.4-3.3l4.2,13.3h-15l4.2-13.3
		l-13.4,4.1v-15l13.4,4.2L42.5,4.4H57.5z M50,23.6c1.7,0,2.5-0.9,2.5-2.6c0-1.7-0.8-2.5-2.5-2.5c-1.7,0-2.5,0.8-2.5,2.5
		C47.5,22.8,48.3,23.6,50,23.6z"/>

	<path id="XMLID_4_" d="M55,39.4c14.7-0.6,26.4-3.6,35.3-9L77.7,69.3c1.6,0,3,0.6,4.1,1.8c1.1,1.2,1.7,2.5,1.7,4.1
		c0,0.9-0.2,1.8-0.6,2.5h7.4V91H9.9V77.7h7.3c-0.3-0.7-0.5-1.6-0.5-2.5c0-1.6,0.6-3,1.7-4.1c1.1-1.2,2.5-1.8,4.1-1.8L9.8,30.4
		c8.9,5.4,20.6,8.4,35.2,9v-1.7h3.3v31.6h3.3V37.7H55V39.4z M24.2,77.7c-1.1,0-1.7,0.6-1.7,1.7c0,1.1,0.6,1.7,1.7,1.7h51.6
		c1.1,0,1.7-0.6,1.7-1.7c0-1.1-0.6-1.7-1.7-1.7H24.2z M57.5,4.4l-4.2,13.3l13.4-3.3v13.3l-13.4-3.3l4.2,13.3h-15l4.2-13.3l-13.4,4.1
		v-15l13.4,4.2L42.5,4.4H57.5z M50,23.6c1.7,0,2.5-0.9,2.5-2.6c0-1.7-0.8-2.5-2.5-2.5c-1.7,0-2.5,0.8-2.5,2.5
		C47.5,22.8,48.3,23.6,50,23.6z"/>

</svg>
