<?xml version="1.0" encoding="utf-8"?>
<!-- Generator: Adobe Illustrator 19.0.0, SVG Export Plug-In . SVG Version: 6.00 Build 0)  -->
<svg version="1.1" id="q" xmlns="http://www.w3.org/2000/svg" xmlns:xlink="http://www.w3.org/1999/xlink" x="0px" y="0px"
	 viewBox="0 0 100 100" enable-background="new 0 0 100 100" xml:space="preserve">

	<path id="XMLID_7_" fill="#FFFFFF" d="M9.9,91V77.7h7.3c-0.3-0.7-0.5-1.6-0.5-2.5c0-1.6,0.6-3,1.7-4.1c1.1-1.2,2.5-1.8,4.1-1.8
		l-7.6-20.7c-0.7,0.2-1.2,0.3-1.6,0.3c-1.9,0-3.4-0.7-4.8-2c-1.3-1.3-1.9-2.9-1.9-4.8c0-1.9,0.6-3.5,1.9-4.8c1.3-1.3,2.9-2,4.8-2
		c1.9,0,3.5,0.7,4.8,2c1.3,1.3,2,2.9,2,4.8c0,1.3-0.4,2.4-1.1,3.5l12.8,7.4l12.9-30.3c-3.1-1.9-4.6-4.7-4.6-8.4c0-2.8,1-5.2,2.9-7.1
		c1.9-1.9,4.3-2.9,7.1-2.9s5.2,1,7.2,2.9c2,1.9,2.9,4.3,2.9,7.1c0,3.7-1.5,6.5-4.6,8.4l12.8,30.3l12.8-7.4c-0.7-1.1-1-2.3-1-3.5
		c0-1.9,0.7-3.5,2-4.8c1.3-1.3,2.9-2,4.8-2c1.9,0,3.5,0.7,4.8,2c1.3,1.3,2,2.9,2,4.8c0,1.9-0.7,3.5-2,4.8s-2.9,2-4.8,2
		c-0.5,0-1-0.1-1.7-0.3l-7.6,20.7c1.7,0,3,0.6,4.2,1.7c1.1,1.1,1.6,2.5,1.6,4.2c0,0.9-0.2,1.8-0.5,2.5h7.3V91H9.9z"/>

	<path id="XMLID_4_" d="M9.9,91V77.7h7.3c-0.3-0.7-0.5-1.6-0.5-2.5c0-1.6,0.6-3,1.7-4.1c1.1-1.2,2.5-1.8,4.1-1.8l-7.6-20.7
		c-0.7,0.2-1.2,0.3-1.6,0.3c-1.9,0-3.4-0.7-4.8-2c-1.3-1.3-1.9-2.9-1.9-4.8c0-1.9,0.6-3.5,1.9-4.8c1.3-1.3,2.9-2,4.8-2
		c1.9,0,3.5,0.7,4.8,2c1.3,1.3,2,2.9,2,4.8c0,1.3-0.4,2.4-1.1,3.5l12.8,7.4l12.9-30.3c-3.1-1.9-4.6-4.7-4.6-8.4c0-2.8,1-5.2,2.9-7.1
		c1.9-1.9,4.3-2.9,7.1-2.9s5.2,1,7.2,2.9c2,1.9,2.9,4.3,2.9,7.1c0,3.7-1.5,6.5-4.6,8.4l12.8,30.3l12.8-7.4c-0.7-1.1-1-2.3-1-3.5
		c0-1.9,0.7-3.5,2-4.8c1.3-1.3,2.9-2,4.8-2c1.9,0,3.5,0.7,4.8,2c1.3,1.3,2,2.9,2,4.8c0,1.9-0.7,3.5-2,4.8s-2.9,2-4.8,2
		c-0.5,0-1-0.1-1.7-0.3l-7.6,20.7c1.7,0,3,0.6,4.2,1.7c1.1,1.1,1.6,2.5,1.6,4.2c0,0.9-0.2,1.8-0.5,2.5h7.3V91H9.9z M24.2,77.7
		c-1.1,0-1.7,0.6-1.7,1.7c0,1.1,0.6,1.7,1.7,1.7h51.6c1.1,0,1.7-0.6,1.7-1.7c0-1.1-0.6-1.7-1.7-1.7H24.2z"/>

</svg>
