<?xml version="1.0" encoding="utf-8"?>
<!-- Generator: Adobe Illustrator 19.0.0, SVG Export Plug-In . SVG Version: 6.00 Build 0)  -->
<svg version="1.1" id="r" xmlns="http://www.w3.org/2000/svg" xmlns:xlink="http://www.w3.org/1999/xlink" x="0px" y="0px"
	 viewBox="0 0 100 100" enable-background="new 0 0 100 100" xml:space="preserve">

	<path id="XMLID_8_" fill="#FFFFFF" d="M56.9,4.4V21h13.3V4.4h13.3v33.3H72l5.7,31.6c1.6,0,3,0.6,4.1,1.8c1.1,1.2,1.7,2.5,1.7,4.1
		c0,0.9-0.2,1.8-0.6,2.5h7.4V91H9.9V77.7h7.3c-0.3-0.7-0.5-1.6-0.5-2.5c0-1.7,0.5-3.1,1.6-4.2c1.1-1.1,2.5-1.7,4.1-1.7l5.6-31.6
		H16.7V4.4H30V21h13.3V4.4H56.9z"/>

	<path id="XMLID_4_" d="M56.9,4.4V21h13.3V4.4h13.3v33.3H72l5.7,31.6c1.6,0,3,0.6,4.1,1.8c1.1,1.2,1.7,2.5,1.7,4.1
		c0,0.9-0.2,1.8-0.6,2.5h7.4V91H9.9V77.7h7.3c-0.3-0.7-0.5-1.6-0.5-2.5c0-1.7,0.5-3.1,1.6-4.2c1.1-1.1,2.5-1.7,4.1-1.7l5.6-31.6
		H16.7V4.4H30V21h13.3V4.4H56.9z M24.2,77.7c-1.1,0-1.7,0.6-1.7,1.7c0,1.1,0.6,1.6,1.7,1.6h51.6c1.1,0,1.7-0.5,1.7-1.6
		c0-1.1-0.6-1.7-1.7-1.7H24.2z M33.3,34.4c-1.1,0-1.6,0.6-1.6,1.7c0,1.1,0.5,1.6,1.6,1.6h33.4c1.1,0,1.6-0.5,1.6-1.6
		c0-1.1-0.5-1.7-1.6-1.7H33.3z"/>

</svg>
