<?xml version="1.0" encoding="utf-8"?>
<!-- Generator: Adobe Illustrator 19.0.0, SVG Export Plug-In . SVG Version: 6.00 Build 0)  -->
<svg version="1.1" id="K" xmlns="http://www.w3.org/2000/svg" xmlns:xlink="http://www.w3.org/1999/xlink" x="0px" y="0px"
	 viewBox="0 0 100 100" enable-background="new 0 0 100 100" xml:space="preserve">

	<path id="XMLID_16_" fill="#FFFFFF" d="M92.7,41.6c-0.8,2.4-1.9,4.7-3.2,6.9c-1.3,2.2-2.8,4.1-4.5,5.9s-3.5,3.3-5.3,4.5
		c-0.1,0.9-0.3,2-0.5,3.2c-0.2,1.2-0.6,4.7-1.2,10.6l-1,7.4c-0.1,1.5-1.2,2.8-3.2,3.8s-4.4,1.8-7.1,2.3c-2.8,0.6-5.7,1-8.7,1.2
		c-3,0.2-5.7,0.4-8,0.4c-2.3,0-5-0.1-8.1-0.4c-3.1-0.2-6-0.6-8.8-1.2c-2.8-0.6-5.1-1.3-7.1-2.3c-2-1-3-2.3-3.1-3.8L22,72.7
		c-0.1-0.3-0.1-0.7-0.1-1.2c-0.7-5.1-1.1-8.3-1.3-9.4c-0.2-1.2-0.4-2.2-0.5-3.2c-1.7-1.2-3.5-2.7-5.1-4.5c-1.7-1.8-3.2-3.8-4.5-5.9
		c-1.3-2.2-2.4-4.5-3.2-6.9c-0.8-2.4-1.2-4.9-1.2-7.4c0-2.9,0.6-5.3,1.8-7.4c1.2-2,2.7-3.7,4.5-4.9c1.8-1.3,3.7-2.2,5.7-2.8
		c2-0.6,3.9-0.9,5.6-0.9c2.5,0,5,0.6,7.4,1.8c2.4,1.2,4.6,2.6,6.7,4.5v-20h22.9h1.7v20c2.1-1.8,4.3-3.3,6.7-4.5
		c2.4-1.2,4.9-1.8,7.4-1.8c1.7,0,3.5,0.3,5.5,0.9c2,0.6,3.9,1.5,5.7,2.8c1.8,1.3,3.3,2.9,4.4,4.9c1.2,2,1.8,4.5,1.8,7.4
		C93.9,36.7,93.5,39.2,92.7,41.6z M41.9,29.1c1.7,2.3,3.3,4.8,4.7,7.3c1.4,2.5,2.5,5,3.4,7.4c0.9-2.4,2-4.9,3.3-7.4
		c1.3-2.5,2.9-4.9,4.7-7.3H41.9z"/>

	<path id="XMLID_4_" d="M92.7,41.6c-0.8,2.4-1.9,4.7-3.2,6.9c-1.3,2.2-2.8,4.1-4.5,5.9s-3.5,3.3-5.3,4.5c-0.1,0.9-0.3,2-0.5,3.2
		c-0.2,1.2-0.6,4.7-1.2,10.6l-1,7.4c-0.1,1.5-1.2,2.8-3.2,3.8s-4.4,1.8-7.1,2.3c-2.8,0.6-5.7,1-8.7,1.2c-3,0.2-5.7,0.4-8,0.4
		c-2.3,0-5-0.1-8.1-0.4c-3.1-0.2-6-0.6-8.8-1.2c-2.8-0.6-5.1-1.3-7.1-2.3c-2-1-3-2.3-3.1-3.8L22,72.7c-0.1-0.3-0.1-0.7-0.1-1.2
		c-0.7-5.1-1.1-8.3-1.3-9.4c-0.2-1.2-0.4-2.2-0.5-3.2c-1.7-1.2-3.5-2.7-5.1-4.5c-1.7-1.8-3.2-3.8-4.5-5.9c-1.3-2.2-2.4-4.5-3.2-6.9
		c-0.8-2.4-1.2-4.9-1.2-7.4c0-2.9,0.6-5.3,1.8-7.4c1.2-2,2.7-3.7,4.5-4.9c1.8-1.3,3.7-2.2,5.7-2.8c2-0.6,3.9-0.9,5.6-0.9
		c2.5,0,5,0.6,7.4,1.8c2.4,1.2,4.6,2.6,6.7,4.5v-20h22.9h1.7v20c2.1-1.8,4.3-3.3,6.7-4.5c2.4-1.2,4.9-1.8,7.4-1.8
		c1.7,0,3.5,0.3,5.5,0.9c2,0.6,3.9,1.5,5.7,2.8c1.8,1.3,3.3,2.9,4.4,4.9c1.2,2,1.8,4.5,1.8,7.4C93.9,36.7,93.5,39.2,92.7,41.6z
		 M10.7,40.6c0.7,2.1,1.7,4.2,2.8,6.1c1.2,1.9,2.5,3.7,4,5.4c1.5,1.6,3,3,4.5,4c4.4-1.5,8.8-2.9,13.2-4c4.4-1.1,8.7-1.8,12.9-2
		c-0.2-1.5-0.6-3.3-1.3-5.3s-1.6-4.1-2.8-6.2c-1.1-2.1-2.4-4.2-3.9-6.2c-1.5-2-3.1-3.8-4.8-5.4c-1.8-1.6-3.6-2.9-5.6-3.8
		c-2-1-4-1.5-6.1-1.5c-1.4,0-2.9,0.2-4.6,0.6c-1.6,0.4-3.1,1.1-4.5,2.1c-1.4,1-2.6,2.3-3.5,3.9c-0.9,1.6-1.4,3.6-1.4,5.9
		C9.6,36.4,10,38.5,10.7,40.6z M75.8,61.8c0.2-0.9,0.3-1.8,0.5-2.6c-5.1-1.7-9.8-3.1-14-4.2C58.1,54,54,53.4,50,53.4
		c-4.2,0-8.5,0.6-13,1.8c-4.5,1.2-8.9,2.5-13.3,4c0.1,0.8,0.3,1.7,0.4,2.6c0.2,0.9,0.3,1.9,0.5,2.9c1.5-0.3,2.9-0.3,4.1,0
		c1.2,0.3,1.8,0.9,2,1.7c0.2,0.9-0.3,1.8-1.4,2.7c-1.1,0.9-2.5,1.6-4.2,2c0.1,0.2,0.2,0.6,0.2,1.1l0.6,3.6c1.3-0.8,3-1.5,5.1-2.1
		c2-0.6,4.2-1,6.4-1.3c2.2-0.3,4.5-0.6,6.7-0.7c2.2-0.1,4.2-0.2,6-0.2c1.7,0,3.7,0.1,6,0.2c2.2,0.1,4.5,0.4,6.7,0.7
		c2.2,0.3,4.3,0.8,6.3,1.3c2,0.6,3.7,1.3,5.1,2.1l0.5-3.6c0-0.2,0-0.4,0.1-0.6c0-0.2,0-0.4,0-0.5c-1.7-0.5-3.2-1.2-4.3-2
		c-1.1-0.9-1.5-1.8-1.2-2.7c0.2-0.8,0.9-1.4,2-1.7c1.2-0.3,2.5-0.3,4.1,0C75.5,63.7,75.7,62.8,75.8,61.8z M60.4,83.9
		c2.9-0.4,5.4-0.8,7.3-1.3c1.9-0.5,3.4-1,4.3-1.6c1-0.5,1.5-0.9,1.5-1.2c-0.1-0.3-0.6-0.8-1.5-1.4c-1-0.6-2.4-1.1-4.3-1.6
		c-1.9-0.5-4.4-1-7.3-1.4c-2.9-0.4-6.4-0.5-10.4-0.5s-7.5,0.2-10.4,0.5c-2.9,0.4-5.4,0.8-7.3,1.4c-1.9,0.5-3.4,1.1-4.4,1.6
		c-1,0.6-1.5,1-1.6,1.4c0.1,0.3,0.6,0.7,1.6,1.2c1,0.5,2.5,1.1,4.4,1.6c1.9,0.5,4.4,0.9,7.3,1.3c2.9,0.4,6.4,0.5,10.4,0.5
		S57.5,84.3,60.4,83.9z M41.1,10.4v13l6.5-6.6L41.1,10.4z M41.9,29.1c1.7,2.3,3.3,4.8,4.7,7.3c1.4,2.5,2.5,5,3.4,7.4
		c0.9-2.4,2-4.9,3.3-7.4c1.3-2.5,2.9-4.9,4.7-7.3H41.9z M45,61.1c1.3-0.6,2.8-0.9,4.7-0.9c1.8,0,3.3,0.3,4.6,0.9
		c1.3,0.6,2,1.4,2,2.4c0,0.9-0.6,1.6-2,2.3c-1.3,0.6-2.8,1-4.6,1c-1.9,0-3.4-0.3-4.7-1c-1.3-0.6-1.9-1.4-1.9-2.3
		C43.1,62.5,43.7,61.7,45,61.1z M56.4,7.8h-13l6.6,6.6L56.4,7.8z M50,19.2l-6.6,6.5h13L50,19.2z M70.3,23.2c-2,1-3.8,2.3-5.6,3.8
		c-1.8,1.6-3.4,3.4-4.9,5.4s-2.8,4.1-3.9,6.2c-1.1,2.1-2,4.2-2.8,6.2c-0.7,2-1.2,3.8-1.4,5.3c4,0.1,8.1,0.7,12.4,1.8
		C68.4,53,73,54.4,78,56.1c1.5-1.1,3-2.4,4.5-4c1.5-1.6,2.8-3.4,4-5.4c1.2-1.9,2.1-4,2.8-6.1c0.7-2.1,1.1-4.3,1.1-6.4
		c0-2.3-0.5-4.3-1.4-5.9c-0.9-1.6-2.1-2.9-3.5-3.9c-1.4-1-2.9-1.7-4.5-2.1c-1.6-0.4-3.2-0.6-4.5-0.6C74.3,21.7,72.2,22.2,70.3,23.2z
		 M58.9,23.4v-13l-6.6,6.4L58.9,23.4z"/>

</svg>
