<?xml version="1.0" encoding="utf-8"?>
<!-- Generator: Adobe Illustrator 19.0.0, SVG Export Plug-In . SVG Version: 6.00 Build 0)  -->
<svg version="1.1" id="n" xmlns="http://www.w3.org/2000/svg" xmlns:xlink="http://www.w3.org/1999/xlink" x="0px" y="0px"
	 viewBox="0 0 100 100" enable-background="new 0 0 100 100" xml:space="preserve">

	<path id="XMLID_10_" fill="#FFFFFF" d="M22.7,64.3c0.9-0.2,1.6-0.6,2.3-1.1c0.3-0.3,0.7-0.6,1.2-1c0.5-0.4,0.9-0.8,1.3-1.2
		c0.4-0.4,0.7-0.8,1-1.2c0.3-0.4,0.4-0.8,0.4-1.1c0-0.5-0.2-1.1-0.5-2c-0.3-0.9-0.9-1.3-1.8-1.3c-1.3,0-2.2,0.2-2.6,0.7
		s-0.9,1.4-1.6,2.8c-0.7,1.9-1.2,3.5-1.7,4.5c-0.5,1.1-1.2,2-2.1,2.8c-2.3-0.5-4.1-1.5-5.5-3c-1.4-1.4-2.1-3-2.1-4.8
		c0-2.7,0.5-4.8,1.6-6.4c1.1-1.6,2.3-3.1,3.6-4.6c0.9-1.1,1.8-2.2,2.7-3.3c0.8-1.1,1.5-2.5,2-4c0.7-2,1.3-3.8,1.8-5.3
		c0.5-1.5,0.9-2.9,1.3-4c0.4-1.1,0.8-2.1,1.1-2.9c0.3-0.8,0.7-1.4,1.1-2c0.5-0.8,1.1-1.4,1.8-1.6c0.6-0.3,1-0.6,1-1
		c0-0.2,0.1-0.5,0.3-1c0.2-0.5,0.1-0.9-0.2-1.3l-1.4-3c-0.5-1.2-0.9-2.6-1-4.1c-0.1-1.6,0-2.8,0.3-3.6l0.6-2.3l2,1.2
		c0.7,0.2,1.4,0.6,2.1,1.3c0.6,0.6,1.2,1.2,1.8,1.8c0.1-1.1,0.3-2.1,0.5-3c0.2-0.9,0.5-2.1,0.8-3.6l0.9-2l0.7,0.9
		c0.5,0.5,1.1,1,1.7,1.6c0.6,0.6,1.1,1.3,1.6,2.1c0.5,0.7,1,1.4,1.5,2.1c0.4,0.7,0.8,1.4,1,1.9c2.4,0,5.1,0.4,8.1,1.2s6,1.9,9,3.4
		c3,1.4,5.9,3.1,8.6,5.1c2.8,2,5.2,4.2,7.2,6.7c4,5,7.2,10.6,9.5,16.8C86.8,52,88,59.2,88,67.4c0,0.1,0,0.9-0.1,2.3
		c-0.1,1.4-0.2,3.1-0.4,5.1c-0.2,2-0.3,3.9-0.5,5.9c-0.2,2-0.4,3.6-0.6,4.8l-0.3,1.2H34l-0.4-0.3c-1.5-1.5-2.5-3-2.8-4.3
		c-0.4-1.3-0.2-2.8,0.5-4.7c0.3-0.9,1.2-2.2,2.7-3.8c1.5-1.6,3.4-3.1,5.9-4.6c1.4-0.9,2.8-2.1,4.2-3.5c1.4-1.4,2.6-2.9,3.7-4.7
		c1-1.8,1.8-3.8,2.4-6c0.6-2.2,0.8-4.6,0.5-7.1c-0.7,1.5-1.5,2.5-2.3,3.2c-0.8,0.7-1.7,1.3-2.8,1.8l-4.9,1.9
		c-0.5,0.1-0.8,0.3-1.1,0.5c-0.3,0.2-0.5,0.4-0.8,0.5c-0.2,0.2-0.5,0.3-0.8,0.5c-0.3,0.2-0.8,0.3-1.4,0.3c-0.7,1.1-1.3,2.3-2,3.5
		s-1.6,2.3-2.6,3.3c-1.1,1-2.4,1.8-4,2.5c-1.6,0.6-3.6,1-6,1c-0.3,0-0.5-0.1-0.5-0.4c0-0.3,0-0.7,0-1.3
		C21.4,64.8,21.8,64.5,22.7,64.3z"/>

	<path id="XMLID_4_" d="M22.7,64.3c0.9-0.2,1.6-0.6,2.3-1.1c0.3-0.3,0.7-0.6,1.2-1c0.5-0.4,0.9-0.8,1.3-1.2c0.4-0.4,0.7-0.8,1-1.2
		c0.3-0.4,0.4-0.8,0.4-1.1c0-0.5-0.2-1.1-0.5-2c-0.3-0.9-0.9-1.3-1.8-1.3c-1.3,0-2.2,0.2-2.6,0.7s-0.9,1.4-1.6,2.8
		c-0.7,1.9-1.2,3.5-1.7,4.5c-0.5,1.1-1.2,2-2.1,2.8c-2.3-0.5-4.1-1.5-5.5-3c-1.4-1.4-2.1-3-2.1-4.8c0-2.7,0.5-4.8,1.6-6.4
		c1.1-1.6,2.3-3.1,3.6-4.6c0.9-1.1,1.8-2.2,2.7-3.3c0.8-1.1,1.5-2.5,2-4c0.7-2,1.3-3.8,1.8-5.3c0.5-1.5,0.9-2.9,1.3-4
		c0.4-1.1,0.8-2.1,1.1-2.9c0.3-0.8,0.7-1.4,1.1-2c0.5-0.8,1.1-1.4,1.8-1.6c0.6-0.3,1-0.6,1-1c0-0.2,0.1-0.5,0.3-1
		c0.2-0.5,0.1-0.9-0.2-1.3l-1.4-3c-0.5-1.2-0.9-2.6-1-4.1c-0.1-1.6,0-2.8,0.3-3.6l0.6-2.3l2,1.2c0.7,0.2,1.4,0.6,2.1,1.3
		c0.6,0.6,1.2,1.2,1.8,1.8c0.1-1.1,0.3-2.1,0.5-3c0.2-0.9,0.5-2.1,0.8-3.6l0.9-2l0.7,0.9c0.5,0.5,1.1,1,1.7,1.6
		c0.6,0.6,1.1,1.3,1.6,2.1c0.5,0.7,1,1.4,1.5,2.1c0.4,0.7,0.8,1.4,1,1.9c2.4,0,5.1,0.4,8.1,1.2s6,1.9,9,3.4c3,1.4,5.9,3.1,8.6,5.1
		c2.8,2,5.2,4.2,7.2,6.7c4,5,7.2,10.6,9.5,16.8C86.8,52,88,59.2,88,67.4c0,0.1,0,0.9-0.1,2.3c-0.1,1.4-0.2,3.1-0.4,5.1
		c-0.2,2-0.3,3.9-0.5,5.9c-0.2,2-0.4,3.6-0.6,4.8l-0.3,1.2H34l-0.4-0.3c-1.5-1.5-2.5-3-2.8-4.3c-0.4-1.3-0.2-2.8,0.5-4.7
		c0.3-0.9,1.2-2.2,2.7-3.8c1.5-1.6,3.4-3.1,5.9-4.6c1.4-0.9,2.8-2.1,4.2-3.5c1.4-1.4,2.6-2.9,3.7-4.7c1-1.8,1.8-3.8,2.4-6
		c0.6-2.2,0.8-4.6,0.5-7.1c-0.7,1.5-1.5,2.5-2.3,3.2c-0.8,0.7-1.7,1.3-2.8,1.8l-4.9,1.9c-0.5,0.1-0.8,0.3-1.1,0.5
		c-0.3,0.2-0.5,0.4-0.8,0.5c-0.2,0.2-0.5,0.3-0.8,0.5c-0.3,0.2-0.8,0.3-1.4,0.3c-0.7,1.1-1.3,2.3-2,3.5s-1.6,2.3-2.6,3.3
		c-1.1,1-2.4,1.8-4,2.5c-1.6,0.6-3.6,1-6,1c-0.3,0-0.5-0.1-0.5-0.4c0-0.3,0-0.7,0-1.3C21.4,64.8,21.8,64.5,22.7,64.3z M19.1,51.2
		c-1,0.6-1.8,1.5-2.5,2.8c-0.8,1.1-1.3,2.3-1.5,3.3c-0.2,1.1,0,1.8,0.6,2.2c0.7,0.4,1.4,0.3,2.3-0.3c0.9-0.6,1.8-1.5,2.7-2.6
		c0.7-1.2,1.2-2.3,1.3-3.4c0.2-1.1,0-1.8-0.6-2.3C20.9,50.5,20.1,50.6,19.1,51.2z M29.2,33.9c-0.3,0.3-0.5,0.6-0.5,1
		c0,0.5,0.2,1,0.7,1.3c-0.7,0.6-1,1.4-1,2.3c0,0.9,0.3,1.7,0.9,2.3c0.6,0.6,1.4,1,2.3,1c0.9,0,1.6-0.3,2.2-1
		c0.6-0.6,0.9-1.4,0.9-2.3v-0.7c0.2,0.2,0.4,0.4,0.6,0.6c0.2,0.2,0.4,0.5,0.6,0.8c0.1,0.3,0.3,0.6,0.6,0.9c0.4,0.2,0.8,0.3,1.2,0.1
		c0.3-0.1,0.6-0.4,0.7-0.8c0.1-0.4,0.1-0.8,0-1.2c-0.2-0.7-0.6-1.4-1.1-2c-0.5-0.6-1.2-1.1-2-1.5c-0.8-0.4-1.6-0.7-2.5-0.9
		c-0.9-0.2-1.8-0.3-2.5-0.3C29.8,33.4,29.5,33.6,29.2,33.9z M34.4,14.3c-0.3,0.3-0.4,0.6-0.3,0.9c0,0.4,0,1,0.1,1.6
		c0.1,0.7,0.3,1.4,0.5,2.1s0.8,1.3,1.3,1.8c0.6,0.5,1.4,0.8,2.5,0.8c0.3,0,0.6-0.2,0.9-0.5c0.3-0.3,0.4-0.7,0.4-1.2
		c0-0.9-0.4-1.3-1.3-1.3c-0.5,0-0.9-0.2-1.2-0.5c-0.3-0.4-0.6-1.3-0.7-2.9c-0.1-0.8-0.6-1.2-1.4-1.2C35,13.9,34.7,14.1,34.4,14.3z
		 M84.8,66.3c-0.1-5-0.8-9.6-1.8-13.9c-1.1-4.3-2.6-8.2-4.5-11.7c-1.9-3.5-4-6.7-6.4-9.5c-3.1-3.9-6.5-7-10.3-9.4
		c-3.7-2.3-7.3-3.5-10.9-3.6c-1.3,0-2,0.6-2,1.7c0,0.5,0.1,1,0.4,1.6c0.3,0.6,0.7,0.9,1.3,0.9c5.9,0.3,11.8,3.9,17.7,11
		c2.2,2.8,4.2,6,5.9,9.5c1.7,3.5,3.1,7.4,4,11.5c1,4.1,1.5,8.5,1.5,13.3c0.1,4.7-0.4,9.6-1.5,14.8h5C84.4,76.7,84.9,71.3,84.8,66.3z
		"/>

</svg>
