<?xml version="1.0" encoding="utf-8"?>
<!-- Generator: Adobe Illustrator 19.0.0, SVG Export Plug-In . SVG Version: 6.00 Build 0)  -->
<svg version="1.1" id="p" xmlns="http://www.w3.org/2000/svg" xmlns:xlink="http://www.w3.org/1999/xlink" x="0px" y="0px"
	 viewBox="0 0 100 100" enable-background="new 0 0 100 100" xml:space="preserve">

	<path id="XMLID_6_" fill="#FFFFFF" d="M64.8,71.5c2,0.4,4,1.1,6,2c2,0.9,3.8,2.1,5.3,3.7c1.5,1.6,2.3,3.6,2.3,6
		c0,0.5-0.2,0.9-0.5,1.2c-0.4,0.3-0.8,0.5-1.3,0.5H23.6c-0.5,0-0.9-0.2-1.2-0.5c-0.3-0.3-0.5-0.7-0.5-1.2c0-2.5,0.7-4.5,2.2-6
		c1.5-1.6,3.2-2.8,5.2-3.7c2-0.9,4-1.5,6-2c2-0.4,3.5-0.6,4.6-0.7c0.1-0.3,0.2-0.7,0.3-1.2c0.1-0.4,0.1-0.9,0.1-1.5
		c0-0.3,0-0.7-0.1-1.1c-0.1-0.4-0.2-0.8-0.3-1.3L39,64.7c-0.3-0.5-0.7-1.1-1-1.8c-0.4-0.7-0.5-1.7-0.5-3c0-2.1,0.2-3.7,0.6-5
		c0.4-1.3,1-2.5,1.5-3.6c0.3-0.6,0.7-1.3,1-2c0.3-0.7,0.7-1.6,1-2.6c0.3-1,0.5-2.3,0.8-3.6c0.2-1.4,0.3-3.1,0.4-5.1H26.3
		c-1.1,0-1.7-0.6-1.7-1.7c0-1.3,0.4-2.7,1.2-4.1c0.8-1.4,1.8-2.7,3-3.9c1.2-1.2,2.5-2.3,4-3.1c1.4-0.9,2.8-1.4,4.2-1.7
		c1.3-0.3,2.5-0.7,3.5-1.4c1-0.7,1.9-1.3,2.6-2c-1.1-1.7-1.7-3.4-1.7-5.3c0-1.2,0.2-2.3,0.6-3.3c0.4-1,1-1.9,1.8-2.7
		c0.8-0.8,1.7-1.4,2.8-1.9c1.1-0.5,2.2-0.7,3.4-0.7s2.3,0.2,3.4,0.7c1.1,0.5,2,1.1,2.8,1.9c0.8,0.8,1.4,1.7,1.8,2.7
		c0.4,1,0.7,2.1,0.7,3.3c0,1.9-0.6,3.6-1.7,5.3c0.7,0.7,1.5,1.3,2.7,2c1.1,0.7,2.3,1.1,3.6,1.4c1.3,0.3,2.7,0.8,4.2,1.7
		c1.4,0.9,2.7,1.9,3.9,3.1c1.2,1.2,2.1,2.5,2.9,3.9c0.8,1.4,1.2,2.8,1.2,4.1c0,1.1-0.5,1.7-1.5,1.7H57.4c0.1,2,0.2,3.7,0.4,5.1
		c0.2,1.4,0.5,2.6,0.8,3.6c0.3,1,0.6,1.9,1,2.6c0.3,0.7,0.7,1.4,1.1,2c0.5,1.1,1,2.3,1.5,3.6c0.4,1.3,0.7,2.9,0.7,5
		c0,1.3-0.2,2.3-0.5,3c-0.4,0.7-0.7,1.3-1.1,1.8l-0.8,1.1c-0.3,0.8-0.4,1.6-0.4,2.4c0,0.5,0,1,0,1.5c0,0.4,0.1,0.8,0.1,1.2
		C61.2,70.9,62.7,71.1,64.8,71.5z"/>

	<path id="XMLID_4_" d="M64.8,71.5c2,0.4,4,1.1,6,2c2,0.9,3.8,2.1,5.3,3.7c1.5,1.6,2.3,3.6,2.3,6c0,0.5-0.2,0.9-0.5,1.2
		c-0.4,0.3-0.8,0.5-1.3,0.5H23.6c-0.5,0-0.9-0.2-1.2-0.5c-0.3-0.3-0.5-0.7-0.5-1.2c0-2.5,0.7-4.5,2.2-6c1.5-1.6,3.2-2.8,5.2-3.7
		c2-0.9,4-1.5,6-2c2-0.4,3.5-0.6,4.6-0.7c0.1-0.3,0.2-0.7,0.3-1.2c0.1-0.4,0.1-0.9,0.1-1.5c0-0.3,0-0.7-0.1-1.1
		c-0.1-0.4-0.2-0.8-0.3-1.3L39,64.7c-0.3-0.5-0.7-1.1-1-1.8c-0.4-0.7-0.5-1.7-0.5-3c0-2.1,0.2-3.7,0.6-5c0.4-1.3,1-2.5,1.5-3.6
		c0.3-0.6,0.7-1.3,1-2c0.3-0.7,0.7-1.6,1-2.6c0.3-1,0.5-2.3,0.8-3.6c0.2-1.4,0.3-3.1,0.4-5.1H26.3c-1.1,0-1.7-0.6-1.7-1.7
		c0-1.3,0.4-2.7,1.2-4.1c0.8-1.4,1.8-2.7,3-3.9c1.2-1.2,2.5-2.3,4-3.1c1.4-0.9,2.8-1.4,4.2-1.7c1.3-0.3,2.5-0.7,3.5-1.4
		c1-0.7,1.9-1.3,2.6-2c-1.1-1.7-1.7-3.4-1.7-5.3c0-1.2,0.2-2.3,0.6-3.3c0.4-1,1-1.9,1.8-2.7c0.8-0.8,1.7-1.4,2.8-1.9
		c1.1-0.5,2.2-0.7,3.4-0.7s2.3,0.2,3.4,0.7c1.1,0.5,2,1.1,2.8,1.9c0.8,0.8,1.4,1.7,1.8,2.7c0.4,1,0.7,2.1,0.7,3.3
		c0,1.9-0.6,3.6-1.7,5.3c0.7,0.7,1.5,1.3,2.7,2c1.1,0.7,2.3,1.1,3.6,1.4c1.3,0.3,2.7,0.8,4.2,1.7c1.4,0.9,2.7,1.9,3.9,3.1
		c1.2,1.2,2.1,2.5,2.9,3.9c0.8,1.4,1.2,2.8,1.2,4.1c0,1.1-0.5,1.7-1.5,1.7H57.4c0.1,2,0.2,3.7,0.4,5.1c0.2,1.4,0.5,2.6,0.8,3.6
		c0.3,1,0.6,1.9,1,2.6c0.3,0.7,0.7,1.4,1.1,2c0.5,1.1,1,2.3,1.5,3.6c0.4,1.3,0.7,2.9,0.7,5c0,1.3-0.2,2.3-0.5,3
		c-0.4,0.7-0.7,1.3-1.1,1.8l-0.8,1.1c-0.3,0.8-0.4,1.6-0.4,2.4c0,0.5,0,1,0,1.5c0,0.4,0.1,0.8,0.1,1.2
		C61.2,70.9,62.7,71.1,64.8,71.5z"/>

</svg>
