<?xml version="1.0" encoding="utf-8"?>
<!-- Generator: Adobe Illustrator 19.0.0, SVG Export Plug-In . SVG Version: 6.00 Build 0)  -->
<svg version="1.1" id="R" xmlns="http://www.w3.org/2000/svg" xmlns:xlink="http://www.w3.org/1999/xlink" x="0px" y="0px"
	 viewBox="0 0 100 100" enable-background="new 0 0 100 100" xml:space="preserve">

	<path id="XMLID_9_" fill="#FFFFFF" d="M73.2,63.3c0.8,1.2,1.8,2.6,2.9,4.2c1.1,1.6,2.2,3.2,3.4,4.9c1.2,1.7,2.1,3,2.8,4
		c0.7,1,1.1,1.6,1.2,1.6v9.6h-67V78c0.1-0.1,0.5-0.6,1.2-1.6c0.7-1,1.7-2.4,2.8-4c1.1-1.7,2.3-3.3,3.4-4.9c1.1-1.6,2.1-3,3-4.2
		c0.9-1.2,1.4-1.9,1.5-2v-31c-0.2-0.2-0.7-0.8-1.5-1.6c-0.8-0.9-1.7-1.9-2.6-2.9s-2-2.3-3.4-3.8V6h11.2v7h10.7V6h14.8v7h10.7V6h9.5
		h1.5v15.9c-1.4,1.5-2.5,2.8-3.4,3.8c-0.9,1-1.7,2-2.5,2.9c-0.8,0.9-1.3,1.4-1.5,1.6v31C71.8,61.4,72.3,62.1,73.2,63.3z"/>

	<path id="XMLID_4_" d="M73.2,63.3c0.8,1.2,1.8,2.6,2.9,4.2c1.1,1.6,2.2,3.2,3.4,4.9c1.2,1.7,2.1,3,2.8,4c0.7,1,1.1,1.6,1.2,1.6v9.6
		h-67V78c0.1-0.1,0.5-0.6,1.2-1.6c0.7-1,1.7-2.4,2.8-4c1.1-1.7,2.3-3.3,3.4-4.9c1.1-1.6,2.1-3,3-4.2c0.9-1.2,1.4-1.9,1.5-2v-31
		c-0.2-0.2-0.7-0.8-1.5-1.6c-0.8-0.9-1.7-1.9-2.6-2.9s-2-2.3-3.4-3.8V6h11.2v7h10.7V6h14.8v7h10.7V6h9.5h1.5v15.9
		c-1.4,1.5-2.5,2.8-3.4,3.8c-0.9,1-1.7,2-2.5,2.9c-0.8,0.9-1.3,1.4-1.5,1.6v31C71.8,61.4,72.3,62.1,73.2,63.3z M80,79.2
		c-0.1-0.2-0.7-1-1.5-2.3c-0.9-1.3-1.9-2.8-3.1-4.5c-1.2-1.7-2.3-3.3-3.5-5c-1.2-1.7-2.1-3-2.8-4H30.9c-0.7,0.9-1.6,2.3-2.8,4
		c-1.2,1.7-2.4,3.4-3.6,5c-1.2,1.7-2.3,3.2-3.1,4.5c-0.9,1.3-1.4,2-1.6,2.3v5H80V79.2z M25.1,21.8c0.5,0.5,1.1,1.2,1.8,1.9
		c0.7,0.7,1.3,1.5,2,2.3c0.7,0.8,1.3,1.4,1.8,1.9h38.6c0.5-0.5,1-1.1,1.7-1.9c0.7-0.8,1.3-1.5,2-2.3c0.6-0.7,1.2-1.4,1.8-1.9
		c0.5-0.5,0.9-0.9,1-1V9.5h-4.1v7H54v-7h-8v7H28.4v-7h-4.3v11.3C24.2,21,24.6,21.3,25.1,21.8z M68.3,31.2H31.7V60h36.6V31.2z"/>

</svg>
