<?xml version="1.0" encoding="utf-8"?>
<!-- Generator: Adobe Illustrator 19.0.0, SVG Export Plug-In . SVG Version: 6.00 Build 0)  -->
<svg version="1.1" id="B" xmlns="http://www.w3.org/2000/svg" xmlns:xlink="http://www.w3.org/1999/xlink" x="0px" y="0px"
	 viewBox="0 0 100 100" enable-background="new 0 0 100 100" xml:space="preserve">

	<path id="XMLID_15_" fill="#FFFFFF" d="M94.8,88.2c-0.2,0.4-0.5,0.6-0.8,0.8c-0.5,0.3-0.9,0.3-1.3,0.1c-0.4-0.2-0.8-0.5-1-0.8
		c-0.2-0.3-0.8-0.5-1.9-0.6c-1-0.2-2.2-0.3-3.6-0.3c-1.4,0-2.8,0-4.3,0c-1.5,0-2.8,0-4,0h-3.6c-3.5,0-6.5-0.1-8.8-0.5
		c-2.3-0.3-4.3-0.7-5.8-1.1c-1.5-0.5-2.8-1-3.8-1.5c-1-0.6-1.8-1.1-2.5-1.6c-0.7-0.5-1.2-0.9-1.7-1.1c-0.4-0.2-1-0.4-1.8-0.5
		c-0.8,0.1-1.4,0.3-1.8,0.5c-0.4,0.2-1,0.6-1.8,1.1c-0.7,0.5-1.6,1-2.5,1.6c-0.9,0.6-2.2,1.1-3.7,1.5c-1.5,0.5-3.5,0.8-5.9,1.1
		c-2.4,0.3-5.3,0.5-8.7,0.5h-3.5c-1.2,0-2.6,0-4.1,0c-1.5,0-2.9,0-4.3,0c-1.4,0-2.6,0.1-3.7,0.3c-1,0.2-1.7,0.4-1.9,0.6
		c-0.2,0.3-0.5,0.6-1,0.8c-0.4,0.2-0.8,0.2-1.1-0.1c-0.5-0.1-0.8-0.4-0.9-0.8c-0.1-0.4-0.2-0.7-0.1-1c1-4.6,2.8-8,5.4-10
		c2.6-2.1,6.2-3.2,10.7-3.2c0.8,0,1.9,0,3.4,0.1c1.5,0.1,3,0.1,4.4,0.2c0.6,0.1,1.1,0.2,1.6,0.2c0.5,0,1,0,1.4,0.1
		c-0.5-1.6-0.8-3.3-0.9-5.1l-0.1-4.5c0-0.7,0-1.5,0-2.3s0-1.6,0.1-2.5c-0.3-1.1-0.9-2.2-1.9-3.4c-0.5-0.7-0.9-1.5-1.4-2.3
		c-0.5-0.8-1-1.8-1.4-2.9c-0.4-1.1-0.7-2.3-1-3.7c-0.3-1.4-0.4-3-0.4-4.9c0-1.8,0.5-4.1,1.4-6.9c0.9-2.8,2-5.6,3.5-8.6
		c1.4-3,3-5.8,4.6-8.5c1.7-2.7,3.4-4.9,5-6.5c-0.7-0.5-1.2-1.2-1.6-2C37.2,9.6,37,8.7,37,7.7c0-1.6,0.5-2.9,1.6-4
		c1.1-1.1,2.4-1.6,4-1.6c1.5,0,2.9,0.5,4,1.6c1.1,1.1,1.7,2.4,1.7,4c0,1.9-0.7,3.4-2,4.4c1.3,1.3,2.9,2.8,4.6,4.6
		c0.5-0.9,1.1-1.8,1.8-2.5c0.7-0.7,1.4-1.4,2.2-2.1c-0.7-0.5-1.2-1.2-1.6-1.9c-0.4-0.7-0.6-1.6-0.6-2.5c0-1.6,0.5-2.9,1.6-4
		c1.1-1.1,2.4-1.6,4-1.6c1.7,0,3,0.5,4.2,1.6c1.1,1.1,1.6,2.4,1.6,4c0,1.9-0.7,3.4-2.2,4.5c2.1,1.8,3.9,4.1,5.4,6.8
		c1.6,2.7,2.9,5.5,4,8.3c1.1,2.8,1.9,5.4,2.5,7.9c0.6,2.5,0.9,4.3,0.9,5.6c0,1.4-0.2,3-0.5,4.9c-0.4,1.9-0.8,3.8-1.4,5.6
		c-0.6,1.9-1.2,3.6-1.9,5.3c-0.7,1.6-1.3,2.9-1.9,3.8C69,61.2,69,62,69,62.8c0,0.8,0,1.5,0,2.1l-0.1,4.5c-0.2,1.9-0.5,3.6-0.9,5.1
		c0.3-0.1,0.7-0.1,1.2-0.1c0.5,0,1.1-0.1,1.8-0.2c1.3-0.1,2.8-0.1,4.3-0.2c1.5-0.1,2.7-0.1,3.5-0.1c4.5,0,8.1,1,10.8,3.2
		c2.6,2.1,4.5,5.4,5.5,10C95.1,87.5,95,87.8,94.8,88.2z"/>

	<path id="XMLID_4_" d="M94.8,88.2c-0.2,0.4-0.5,0.6-0.8,0.8c-0.5,0.3-0.9,0.3-1.3,0.1c-0.4-0.2-0.8-0.5-1-0.8
		c-0.2-0.3-0.8-0.5-1.9-0.6c-1-0.2-2.2-0.3-3.6-0.3c-1.4,0-2.8,0-4.3,0c-1.5,0-2.8,0-4,0h-3.6c-3.5,0-6.5-0.1-8.8-0.5
		c-2.3-0.3-4.3-0.7-5.8-1.1c-1.5-0.5-2.8-1-3.8-1.5c-1-0.6-1.8-1.1-2.5-1.6c-0.7-0.5-1.2-0.9-1.7-1.1c-0.4-0.2-1-0.4-1.8-0.5
		c-0.8,0.1-1.4,0.3-1.8,0.5c-0.4,0.2-1,0.6-1.8,1.1c-0.7,0.5-1.6,1-2.5,1.6c-0.9,0.6-2.2,1.1-3.7,1.5c-1.5,0.5-3.5,0.8-5.9,1.1
		c-2.4,0.3-5.3,0.5-8.7,0.5h-3.5c-1.2,0-2.6,0-4.1,0c-1.5,0-2.9,0-4.3,0c-1.4,0-2.6,0.1-3.7,0.3c-1,0.2-1.7,0.4-1.9,0.6
		c-0.2,0.3-0.5,0.6-1,0.8c-0.4,0.2-0.8,0.2-1.1-0.1c-0.5-0.1-0.8-0.4-0.9-0.8c-0.1-0.4-0.2-0.7-0.1-1c1-4.6,2.8-8,5.4-10
		c2.6-2.1,6.2-3.2,10.7-3.2c0.8,0,1.9,0,3.4,0.1c1.5,0.1,3,0.1,4.4,0.2c0.6,0.1,1.1,0.2,1.6,0.2c0.5,0,1,0,1.4,0.1
		c-0.5-1.6-0.8-3.3-0.9-5.1l-0.1-4.5c0-0.7,0-1.5,0-2.3s0-1.6,0.1-2.5c-0.3-1.1-0.9-2.2-1.9-3.4c-0.5-0.7-0.9-1.5-1.4-2.3
		c-0.5-0.8-1-1.8-1.4-2.9c-0.4-1.1-0.7-2.3-1-3.7c-0.3-1.4-0.4-3-0.4-4.9c0-1.8,0.5-4.1,1.4-6.9c0.9-2.8,2-5.6,3.5-8.6
		c1.4-3,3-5.8,4.6-8.5c1.7-2.7,3.4-4.9,5-6.5c-0.7-0.5-1.2-1.2-1.6-2C37.2,9.6,37,8.7,37,7.7c0-1.6,0.5-2.9,1.6-4
		c1.1-1.1,2.4-1.6,4-1.6c1.5,0,2.9,0.5,4,1.6c1.1,1.1,1.7,2.4,1.7,4c0,1.9-0.7,3.4-2,4.4c1.3,1.3,2.9,2.8,4.6,4.6
		c0.5-0.9,1.1-1.8,1.8-2.5c0.7-0.7,1.4-1.4,2.2-2.1c-0.7-0.5-1.2-1.2-1.6-1.9c-0.4-0.7-0.6-1.6-0.6-2.5c0-1.6,0.5-2.9,1.6-4
		c1.1-1.1,2.4-1.6,4-1.6c1.7,0,3,0.5,4.2,1.6c1.1,1.1,1.6,2.4,1.6,4c0,1.9-0.7,3.4-2.2,4.5c2.1,1.8,3.9,4.1,5.4,6.8
		c1.6,2.7,2.9,5.5,4,8.3c1.1,2.8,1.9,5.4,2.5,7.9c0.6,2.5,0.9,4.3,0.9,5.6c0,1.4-0.2,3-0.5,4.9c-0.4,1.9-0.8,3.8-1.4,5.6
		c-0.6,1.9-1.2,3.6-1.9,5.3c-0.7,1.6-1.3,2.9-1.9,3.8C69,61.2,69,62,69,62.8c0,0.8,0,1.5,0,2.1l-0.1,4.5c-0.2,1.9-0.5,3.6-0.9,5.1
		c0.3-0.1,0.7-0.1,1.2-0.1c0.5,0,1.1-0.1,1.8-0.2c1.3-0.1,2.8-0.1,4.3-0.2c1.5-0.1,2.7-0.1,3.5-0.1c4.5,0,8.1,1,10.8,3.2
		c2.6,2.1,4.5,5.4,5.5,10C95.1,87.5,95,87.8,94.8,88.2z M33.9,78.2c-0.3-0.1-1-0.1-2.1-0.3c-1.1-0.1-2.3-0.2-3.6-0.3
		c-1.3-0.1-2.7-0.1-4-0.2c-1.3-0.1-2.4-0.1-3.1-0.1c-3.1,0-5.5,0.5-7.3,1.6c-1.8,1.1-3.3,2.8-4.4,5.2c1.5-0.3,3.4-0.4,5.5-0.5
		c2.1,0,4.5,0,7.3,0.1h3.5c2.8,0,5.2-0.1,7.1-0.3c2-0.2,3.6-0.5,5-0.8c1.4-0.3,2.5-0.7,3.4-1.1c0.9-0.4,1.6-0.8,2.3-1.1
		c-1.5-0.2-3.1-0.5-4.6-0.8c-1.5-0.3-2.8-0.8-3.9-1.5H33.9z M29.5,50.2c0.8,1.7,1.6,3.2,2.4,4.5c0.7,1,1.2,1.9,1.7,2.8
		c2.4-1.2,5-1.9,7.7-2.3c2.7-0.3,5.6-0.4,8.7-0.4c3.3-0.1,6.3,0.1,8.8,0.4c2.6,0.3,5,1.1,7.2,2.2c0-0.3,0-0.5,0-0.8
		c0-0.2,0-0.5,0-0.8c0-1.9-0.3-4.2-1-6.7c-0.7-2.6-1.6-5.2-2.8-8c-1.2-2.8-2.6-5.5-4.2-8.3c-1.6-2.8-3.3-5.4-5-7.9
		c-1.7-2.5-3.5-4.7-5.3-6.6c-1.8-1.9-3.5-3.4-5-4.5c-1.4,1.2-2.9,3.1-4.6,5.6c-1.7,2.6-3.2,5.3-4.7,8.3c-1.5,2.9-2.7,5.8-3.7,8.5
		c-1,2.8-1.5,5-1.5,6.6C28.3,46.1,28.7,48.5,29.5,50.2z M65.3,70.7c0.1-0.6,0.2-1.2,0.2-1.8c-1.3-0.5-2.4-1.2-3.2-2
		c-0.8-0.8-1-1.5-0.7-2.1c0.1-0.5,0.6-0.9,1.4-1.1c0.8-0.2,1.6-0.2,2.6,0.1c0-0.5,0-0.9,0-1.4c0-0.5-0.1-0.9-0.2-1.4
		c-2-1.1-4.2-1.9-6.7-2.3c-2.4-0.4-5.3-0.5-8.8-0.5c-3.6,0-6.6,0.2-9,0.5c-2.4,0.4-4.6,1.1-6.5,2.2c0,0.5,0,0.9-0.1,1.4
		c0,0.5,0,0.9,0,1.4c1-0.3,1.9-0.3,2.7-0.1c0.8,0.2,1.2,0.6,1.3,1.1c0.3,0.6,0.1,1.3-0.6,2.1c-0.8,0.8-1.8,1.5-3.1,2h-0.2
		c0.1,0.7,0.2,1.3,0.3,1.8c0.1,0.6,0.2,1.2,0.3,1.8c1-0.6,2.3-1.1,3.8-1.4c1.5-0.3,3-0.6,4.5-0.8c1.5-0.2,2.9-0.3,4.1-0.3
		c1.2,0,2.1,0,2.7,0c0.5,0,1.4,0,2.7,0c1.2,0,2.6,0.1,4.1,0.3c1.5,0.2,3,0.4,4.5,0.8c1.5,0.3,2.8,0.8,3.8,1.4
		C65.1,71.8,65.2,71.3,65.3,70.7z M58.8,76.7c2.2-0.5,3.7-0.9,4.6-1.3c-0.9-0.5-2.4-0.9-4.6-1.3s-5.1-0.7-8.8-0.7
		c-3.7,0-6.6,0.2-8.9,0.7c-2.3,0.4-3.8,0.9-4.7,1.3c0.9,0.4,2.4,0.8,4.7,1.3c2.3,0.5,5.2,0.7,8.9,0.7C53.7,77.4,56.6,77.2,58.8,76.7
		z M41,6.2c-0.4,0.4-0.6,0.9-0.6,1.5s0.2,1.1,0.6,1.6c0.4,0.5,1,0.8,1.5,0.8c0.7,0,1.3-0.3,1.8-0.8s0.7-1,0.7-1.6s-0.2-1.1-0.7-1.5
		c-0.4-0.4-1-0.7-1.8-0.7C42,5.5,41.5,5.8,41,6.2z M53.5,63c1,0.5,1.5,1.1,1.5,1.8c0,0.7-0.5,1.3-1.5,1.8c-1,0.5-2.3,0.8-3.8,0.8
		c-1.3,0-2.5-0.3-3.5-0.8s-1.5-1.1-1.5-1.8c0-0.7,0.5-1.3,1.5-1.8c1-0.5,2.2-0.8,3.5-0.8C51.2,62.2,52.4,62.5,53.5,63z M55.6,16.2
		c-0.9,1-1.8,2-2.6,3c1.8,2.3,3.6,4.8,5.3,7.5c1.8,2.7,3.4,5.5,4.8,8.3c1.4,2.8,2.7,5.7,3.7,8.5c1,2.8,1.8,5.5,2.2,7.9
		c0.7-1.9,1.2-3.7,1.7-5.6c0.4-1.9,0.6-3.5,0.6-5c0-1.2-0.3-3.1-1-5.6c-0.6-2.5-1.5-5.1-2.6-7.8c-1.1-2.7-2.5-5.4-4.1-7.9
		c-1.6-2.5-3.4-4.4-5.3-5.6C57.4,14.5,56.5,15.2,55.6,16.2z M56.8,6.2c-0.4,0.4-0.7,0.9-0.7,1.5s0.2,1.1,0.7,1.6
		c0.4,0.5,1,0.8,1.5,0.8c0.7,0,1.3-0.3,1.8-0.8c0.4-0.5,0.7-1,0.7-1.6S60.5,6.6,60,6.2c-0.4-0.4-1-0.7-1.8-0.7
		C57.7,5.5,57.2,5.8,56.8,6.2z M65,78.2c-1.1,0.7-2.3,1.2-3.8,1.5c-1.5,0.3-3,0.6-4.6,0.8c0.6,0.3,1.3,0.7,2.2,1.1
		c0.9,0.4,2,0.8,3.4,1.1c1.4,0.3,3,0.6,5,0.8c2,0.2,4.3,0.3,7.1,0.3h3.4c2.7-0.1,5.2-0.1,7.3-0.1c2.2,0,4,0.2,5.4,0.5
		c-1.1-2.4-2.5-4.1-4.3-5.2c-1.8-1.1-4.3-1.6-7.4-1.6c-0.7,0-1.7,0-3,0.1c-1.3,0.1-2.7,0.1-4,0.2c-1.3,0.1-2.5,0.2-3.7,0.3
		c-1.1,0.1-1.8,0.2-2,0.3H65z"/>

</svg>
