<?xml version="1.0" encoding="utf-8"?>
<!-- Generator: Adobe Illustrator 19.0.0, SVG Export Plug-In . SVG Version: 6.00 Build 0)  -->
<svg version="1.1" id="N" xmlns="http://www.w3.org/2000/svg" xmlns:xlink="http://www.w3.org/1999/xlink" x="0px" y="0px"
	 viewBox="0 0 100 100" enable-background="new 0 0 100 100" xml:space="preserve">

	<path id="XMLID_9_" fill="#FFFFFF" d="M90.9,67.5c0,1.3,0,2.7-0.1,4c0,1.3-0.1,2.7-0.3,4c-0.1,1.7-0.3,3.5-0.5,5.2
		c-0.2,1.7-0.5,3.5-1,5.4L89,87.5H33.3l-0.6-0.4c-1.7-1.5-2.7-3-3.1-4.4c-0.4-1.4-0.2-3.1,0.5-5c0.5-0.9,1.4-2.1,2.7-3.5
		c1.3-1.4,3-3.2,5.3-5.4c1-1.1,2.1-2.2,3.2-3.4c1.1-1.2,2.3-2.3,3.3-3.5c1.1-1.2,2.1-2.4,3-3.5c0.9-1.2,1.7-2.3,2.4-3.5
		c-0.9,0.4-1.9,0.6-2.9,0.7c-1,0.1-1.9,0.1-2.8,0.1h-1.9c-1.1,0.1-2.3,0.1-3.4,0.2c-1.1,0-2.2,0-3.3-0.2c-0.4,1-0.9,2.1-1.6,3.4
		c-0.7,1.3-1.5,2.4-2.6,3.5c-1.1,1.1-2.5,2-4.2,2.7c-1.7,0.7-3.8,1.1-6.4,1.1c-1.3,0-2.6-0.1-3.9-0.2c-1.3-0.1-2.5-0.5-3.5-1
		c-1.1-0.5-2.1-1.3-2.9-2.3c-0.8-1-1.4-2.3-1.8-4c-0.3-1.5-0.4-2.8-0.2-4c0.2-1.2,0.6-2.3,1.2-3.3c0.6-1,1.2-1.9,2-2.6
		c0.8-0.8,1.5-1.5,2.4-2.3c1-1,2-2,2.9-3c1-1,1.7-2.2,2.3-3.6c1.5-4.2,3-7.4,4.5-9.6c1.4-2.2,2.6-3.9,3.5-5c0.5-0.7,0.9-1.3,1.2-1.5
		c0.3-0.3,0.4-0.6,0.4-1c0-0.1-0.1-0.4-0.4-0.8c-0.2-0.4-0.4-0.8-0.5-1.2l-1.7-3c-0.5-1.3-0.7-2.6-0.4-4.1c0.2-1.4,0.5-2.5,0.9-3.4
		l0.6-1.6l1.4,0.5c0.7,0.2,1.4,0.4,2.1,0.8c0.7,0.3,1.3,0.6,1.8,0.9c0.3-1.9,1.1-3.9,2.4-5.9l0.7-1.3l1.6,0.6c1.1,0.7,2.2,1.7,3.2,3
		c1,1.3,1.9,2.5,2.6,3.7c6.1,0.1,11.8,1.2,17.1,3.1c5.2,2,9.9,4.8,13.9,8.6c0.7,0.6,1.4,1.3,2.1,1.9c0.7,0.7,1.3,1.5,1.9,2.3
		c0.1,0.2,0.3,0.4,0.5,0.6c0.2,0.2,0.3,0.3,0.5,0.5c0.9,1.2,1.7,2.3,2.4,3.3c0.7,1.1,1.3,2.2,1.9,3.3c0.6,1,1.2,2.1,1.7,3.2
		c0.3,0.7,0.6,1.4,0.8,2.1c0.2,0.7,0.5,1.4,0.9,2c0.5,1.3,1,2.7,1.3,4c0.3,1.3,0.7,2.7,1,4.1c0.1,0.6,0.3,1.2,0.5,1.9
		c0.2,0.7,0.3,1.3,0.5,2c0.2,1.3,0.4,2.7,0.5,4c0.1,1.4,0.2,2.8,0.3,4.3c0.1,0.7,0.2,1.3,0.2,1.8c0,0.5,0,1.1,0,1.7V67.5z"/>

	<path id="XMLID_4_" d="M90.9,67.5c0,1.3,0,2.7-0.1,4c0,1.3-0.1,2.7-0.3,4c-0.1,1.7-0.3,3.5-0.5,5.2c-0.2,1.7-0.5,3.5-1,5.4L89,87.5
		H33.3l-0.6-0.4c-1.7-1.5-2.7-3-3.1-4.4c-0.4-1.4-0.2-3.1,0.5-5c0.5-0.9,1.4-2.1,2.7-3.5c1.3-1.4,3-3.2,5.3-5.4
		c1-1.1,2.1-2.2,3.2-3.4c1.1-1.2,2.3-2.3,3.3-3.5c1.1-1.2,2.1-2.4,3-3.5c0.9-1.2,1.7-2.3,2.4-3.5c-0.9,0.4-1.9,0.6-2.9,0.7
		c-1,0.1-1.9,0.1-2.8,0.1h-1.9c-1.1,0.1-2.3,0.1-3.4,0.2c-1.1,0-2.2,0-3.3-0.2c-0.4,1-0.9,2.1-1.6,3.4c-0.7,1.3-1.5,2.4-2.6,3.5
		c-1.1,1.1-2.5,2-4.2,2.7c-1.7,0.7-3.8,1.1-6.4,1.1c-1.3,0-2.6-0.1-3.9-0.2c-1.3-0.1-2.5-0.5-3.5-1c-1.1-0.5-2.1-1.3-2.9-2.3
		c-0.8-1-1.4-2.3-1.8-4c-0.3-1.5-0.4-2.8-0.2-4c0.2-1.2,0.6-2.3,1.2-3.3c0.6-1,1.2-1.9,2-2.6c0.8-0.8,1.5-1.5,2.4-2.3c1-1,2-2,2.9-3
		c1-1,1.7-2.2,2.3-3.6c1.5-4.2,3-7.4,4.5-9.6c1.4-2.2,2.6-3.9,3.5-5c0.5-0.7,0.9-1.3,1.2-1.5c0.3-0.3,0.4-0.6,0.4-1
		c0-0.1-0.1-0.4-0.4-0.8c-0.2-0.4-0.4-0.8-0.5-1.2l-1.7-3c-0.5-1.3-0.7-2.6-0.4-4.1c0.2-1.4,0.5-2.5,0.9-3.4l0.6-1.6l1.4,0.5
		c0.7,0.2,1.4,0.4,2.1,0.8c0.7,0.3,1.3,0.6,1.8,0.9c0.3-1.9,1.1-3.9,2.4-5.9l0.7-1.3l1.6,0.6c1.1,0.7,2.2,1.7,3.2,3
		c1,1.3,1.9,2.5,2.6,3.7c6.1,0.1,11.8,1.2,17.1,3.1c5.2,2,9.9,4.8,13.9,8.6c0.7,0.6,1.4,1.3,2.1,1.9c0.7,0.7,1.3,1.5,1.9,2.3
		c0.1,0.2,0.3,0.4,0.5,0.6c0.2,0.2,0.3,0.3,0.5,0.5c0.9,1.2,1.7,2.3,2.4,3.3c0.7,1.1,1.3,2.2,1.9,3.3c0.6,1,1.2,2.1,1.7,3.2
		c0.3,0.7,0.6,1.4,0.8,2.1c0.2,0.7,0.5,1.4,0.9,2c0.5,1.3,1,2.7,1.3,4c0.3,1.3,0.7,2.7,1,4.1c0.1,0.6,0.3,1.2,0.5,1.9
		c0.2,0.7,0.3,1.3,0.5,2c0.2,1.3,0.4,2.7,0.5,4c0.1,1.4,0.2,2.8,0.3,4.3c0.1,0.7,0.2,1.3,0.2,1.8c0,0.5,0,1.1,0,1.7V67.5z
		 M86.7,79.6c0.1-1.4,0.3-2.9,0.4-4.4c-0.9-0.4-1.6-1-2.1-1.8c-0.5-0.8-0.7-1.7-0.7-2.6c0-2.4,1-4,3.1-4.7c0-0.7,0-1.2,0-1.7
		c0-0.5,0-1.1-0.1-1.6c-0.9-0.3-1.7-0.9-2.3-1.7c-0.6-0.8-0.9-1.7-0.9-2.8c0-0.8,0.2-1.6,0.6-2.3c0.4-0.7,1-1.3,1.7-1.6
		c-0.1-0.5-0.3-1.1-0.4-1.7c-0.1-0.6-0.2-1.2-0.3-1.9c-1.1-0.1-2-0.5-2.8-1.3c-0.8-0.8-1.2-1.8-1.2-2.9c0-1.3,0.6-2.5,1.7-3.5
		c-0.2-0.7-0.4-1.3-0.7-1.9c-0.3-0.6-0.5-1.1-0.8-1.6c-1.1,0-2.1-0.4-2.9-1.3c-0.8-0.8-1.1-1.8-1.1-3c0-0.9,0.2-1.6,0.5-2.1
		c-0.3-0.5-0.6-1-0.9-1.5c-0.3-0.5-0.6-0.9-1-1.2c-0.3,0-0.5,0-0.7,0c-0.2,0-0.4,0.1-0.6,0.1c-1.1,0-2.1-0.4-2.8-1.2
		c-0.7-0.8-1.1-1.8-1.1-2.9c0-0.3,0-0.5,0-0.8c0-0.2,0.1-0.5,0.3-0.8C63.9,18.2,54,14.7,42,14.7h-1l-0.4-1c-0.5-0.9-1-1.8-1.6-2.6
		c-0.6-0.8-1.3-1.6-2-2.4c-0.3,0.7-0.6,1.5-0.9,2.2c-0.3,0.7-0.4,1.6-0.4,2.5c0,0.3,0,0.5,0.1,0.8c0.1,0.3,0.1,0.6,0.2,1
		c0,0.1,0,0.3,0,0.4c0,0.1,0,0.2,0,0.3c0.1,0.7,0.4,1.4,0.7,2.1c0.3,0.7,0.8,1.4,1.3,2.2c0.2,0.3,0.3,0.6,0.3,0.8
		c0,0.7-0.2,1.3-0.7,1.6c-0.4,0.2-0.8,0.3-1.3,0.2c-0.4-0.1-0.8-0.3-1.2-0.8c-1.4-1.9-2.3-3.9-2.7-5.8c-0.5-1.1-1.5-2-3.2-2.7
		c-0.1,0.3-0.1,0.5-0.1,0.8c0,0.3,0,0.6,0,0.9c0,0.3,0,0.6,0,0.9c0,0.2,0.1,0.5,0.3,0.9l1.4,2.4c0.3,0.7,0.6,1.4,0.9,2
		c0.3,0.6,0.4,1.1,0.4,1.8c0,0.9-0.2,1.8-0.6,2.5c-0.4,0.7-1,1.5-1.7,2.3c-0.9,1.2-2.1,2.8-3.4,4.8c-1.3,2-2.7,4.9-4,8.6
		c-0.7,1.8-1.6,3.3-2.8,4.6c-1.2,1.3-2.3,2.4-3.5,3.4c-1.3,1.3-2.4,2.5-3.3,3.6c-0.8,1.1-1.3,2.3-1.3,3.7c0,0.3,0,0.5,0.1,0.8
		c0,0.3,0.1,0.6,0.1,1c0.3,1.3,0.9,2.4,1.5,3c0.7,0.7,1.8,1.2,3.4,1.5c0.1-0.1,0.2-0.2,0.3-0.3c0.1,0,0.3-0.1,0.4-0.3
		c0.6-0.2,1.3-0.7,2.2-1.5c0.9-0.8,1.5-1.6,1.8-2.3c0.1-0.5,0.4-0.8,0.9-1c0.5-0.2,0.9-0.1,1.4,0c0.5,0.1,0.8,0.4,1,0.9
		c0.2,0.4,0.2,0.9,0,1.3c-0.2,0.5-0.5,1-0.9,1.5s-0.8,1-1.2,1.6c1.5-0.2,2.7-0.6,3.8-1.1c1.1-0.5,2-1.2,2.7-2
		c0.7-0.8,1.3-1.6,1.8-2.4c0.5-0.9,0.9-1.7,1.2-2.6c-0.4-0.3-0.8-0.5-1.3-0.8c-0.4-0.2-0.8-0.5-1.2-0.8c-0.3-0.3-0.5-0.8-0.5-1.3
		c0-0.5,0.2-0.9,0.5-1c0.9-0.8,1.7-0.8,2.3,0c0.5,0.5,1.1,0.8,1.9,1c0.8,0.2,1.7,0.4,2.7,0.5c0.9,0.1,1.8,0.1,2.8,0
		c0.9,0,1.7-0.1,2.3-0.2h2c1.5,0,2.9-0.1,4.2-0.3c1.3-0.2,2.4-0.8,3.4-1.8c0.2-0.7,0.7-1.2,1.4-1.3c0.3-0.1,0.6-0.2,0.9-0.1
		c0.3,0,0.6,0.1,0.9,0.3c0.3,0.3,0.4,0.8,0.5,1.3c0.1,0.5-0.1,0.9-0.4,1.2v0.1c-0.2,1.5-0.8,3.1-1.8,4.7c-1,1.6-2.1,3.3-3.5,5
		c-1.3,1.7-2.8,3.4-4.5,5.1c-1.7,1.7-3.3,3.4-4.9,5c-1.7,1.6-3.2,3.1-4.5,4.6c-1.3,1.5-2.2,2.6-2.5,3.3c-0.3,0.6-0.5,1.3-0.5,2
		c0,0.9,0.6,1.9,1.7,3H86C86.3,82.5,86.6,81,86.7,79.6z M20.3,51.2c0.8-0.3,1.4-0.3,1.7,0c0.3,0.5,0.4,1.1,0.1,1.9
		c-0.3,0.8-0.8,1.6-1.5,2.3c-0.8,0.9-1.6,1.4-2.4,1.7c-0.8,0.3-1.4,0.2-1.9-0.2c-0.3-0.3-0.4-0.9,0-1.7c0.3-0.8,0.9-1.6,1.6-2.4
		C18.7,52,19.5,51.5,20.3,51.2z M38.7,32.4c1.7,0.8,2.8,2,3.3,3.5c0.1,0.5,0.1,1-0.1,1.4c-0.2,0.4-0.5,0.6-0.9,0.8
		c-1.1,0.3-1.8,0-2.3-1c0-0.1-0.1-0.3-0.2-0.4c0,0.9-0.3,1.7-1,2.4c-0.6,0.6-1.4,1-2.4,1c-0.9,0-1.6-0.3-2.3-1
		c-0.6-0.7-0.9-1.4-0.9-2.3c0-0.4,0-0.8,0.1-1.2c0.1-0.4,0.3-0.8,0.7-1.1c-0.3-0.1-0.5-0.2-0.7-0.5c-0.1-0.2-0.1-0.5-0.1-0.8
		c0-0.5,0.1-1,0.4-1.3c0.3-0.3,0.7-0.5,1.3-0.5C35.3,31.1,37,31.6,38.7,32.4z"/>

</svg>
