<?xml version="1.0" encoding="utf-8"?>
<!-- Generator: Adobe Illustrator 19.0.0, SVG Export Plug-In . SVG Version: 6.00 Build 0)  -->
<svg version="1.1" id="P" xmlns="http://www.w3.org/2000/svg" xmlns:xlink="http://www.w3.org/1999/xlink" x="0px" y="0px"
	 viewBox="0 0 100 100" enable-background="new 0 0 100 100" xml:space="preserve">

	<path id="XMLID_8_" fill="#FFFFFF" d="M64.7,71.4c2,0.4,4,1,6,1.9c2,0.9,3.7,2.2,5.2,3.8c1.5,1.6,2.2,3.6,2.2,6.1
		c0,1.1-0.6,1.7-1.7,1.7H23.6c-0.5,0-1-0.2-1.4-0.5c-0.4-0.3-0.5-0.7-0.5-1.3c0-2.5,0.8-4.5,2.3-6.1c1.5-1.6,3.3-2.8,5.3-3.8
		c2-0.9,4-1.5,6-1.9c2-0.4,3.6-0.6,4.7-0.7c0.1-0.4,0.1-0.8,0.3-1.2c0.1-0.4,0.1-0.9,0.1-1.4c0-0.8-0.2-1.6-0.6-2.4L39,64.5
		c-0.3-0.5-0.7-1.1-1.1-1.8c-0.4-0.7-0.6-1.7-0.6-3c0-2.1,0.2-3.8,0.7-5c0.4-1.2,0.9-2.4,1.5-3.5c0.4-0.7,0.8-1.4,1.1-2.1
		c0.3-0.7,0.7-1.6,1-2.6s0.5-2.2,0.8-3.6s0.3-3.1,0.4-5.1H26.1c-0.5,0-0.9-0.2-1.1-0.5c-0.2-0.3-0.4-0.8-0.4-1.3
		c0-1.3,0.4-2.6,1.1-4.1c0.8-1.4,1.7-2.8,2.9-3.9c1.2-1.2,2.5-2.2,3.9-3.1c1.4-0.9,2.8-1.4,4.2-1.7c1.3-0.3,2.5-0.9,3.6-1.5
		c1.1-0.7,2-1.3,2.7-1.9c-1.1-1.7-1.7-3.4-1.7-5.3c0-1.2,0.2-2.3,0.7-3.4c0.4-1,1-1.9,1.8-2.7c0.8-0.8,1.7-1.4,2.8-1.9
		c1.1-0.5,2.2-0.7,3.4-0.7s2.3,0.2,3.4,0.7c1.1,0.5,2,1.1,2.8,1.9c0.8,0.8,1.4,1.7,1.8,2.7c0.4,1,0.6,2.1,0.6,3.4
		c0,1.9-0.6,3.6-1.7,5.3c0.7,0.5,1.6,1.1,2.6,1.9c1,0.7,2.2,1.2,3.5,1.5c1.3,0.3,2.7,0.8,4.2,1.7c1.4,0.9,2.8,1.9,4,3.1
		c1.2,1.2,2.2,2.5,3,3.9c0.8,1.4,1.2,2.8,1.2,4.1c0,0.5-0.2,1-0.5,1.3c-0.3,0.3-0.7,0.5-1.3,0.5H57.4c0.1,2,0.2,3.7,0.3,5.1
		c0.2,1.4,0.4,2.6,0.7,3.6s0.6,1.9,1,2.6c0.3,0.7,0.7,1.4,1,2.1c0.7,1.1,1.2,2.3,1.6,3.5c0.4,1.2,0.6,2.9,0.6,5c0,1.3-0.2,2.3-0.5,3
		c-0.4,0.7-0.7,1.3-1,1.8l-0.7,1.2c-0.4,0.8-0.6,1.6-0.6,2.4c0,0.5,0,1,0.1,1.4c0.1,0.4,0.2,0.8,0.3,1.2
		C61.2,70.8,62.7,71,64.7,71.4z"/>

	<path id="XMLID_4_" d="M64.7,71.4c2,0.4,4,1,6,1.9c2,0.9,3.7,2.2,5.2,3.8c1.5,1.6,2.2,3.6,2.2,6.1c0,1.1-0.6,1.7-1.7,1.7H23.6
		c-0.5,0-1-0.2-1.4-0.5c-0.4-0.3-0.5-0.7-0.5-1.3c0-2.5,0.8-4.5,2.3-6.1c1.5-1.6,3.3-2.8,5.3-3.8c2-0.9,4-1.5,6-1.9
		c2-0.4,3.6-0.6,4.7-0.7c0.1-0.4,0.1-0.8,0.3-1.2c0.1-0.4,0.1-0.9,0.1-1.4c0-0.8-0.2-1.6-0.6-2.4L39,64.5c-0.3-0.5-0.7-1.1-1.1-1.8
		c-0.4-0.7-0.6-1.7-0.6-3c0-2.1,0.2-3.8,0.7-5c0.4-1.2,0.9-2.4,1.5-3.5c0.4-0.7,0.8-1.4,1.1-2.1c0.3-0.7,0.7-1.6,1-2.6
		s0.5-2.2,0.8-3.6s0.3-3.1,0.4-5.1H26.1c-0.5,0-0.9-0.2-1.1-0.5c-0.2-0.3-0.4-0.8-0.4-1.3c0-1.3,0.4-2.6,1.1-4.1
		c0.8-1.4,1.7-2.8,2.9-3.9c1.2-1.2,2.5-2.2,3.9-3.1c1.4-0.9,2.8-1.4,4.2-1.7c1.3-0.3,2.5-0.9,3.6-1.5c1.1-0.7,2-1.3,2.7-1.9
		c-1.1-1.7-1.7-3.4-1.7-5.3c0-1.2,0.2-2.3,0.7-3.4c0.4-1,1-1.9,1.8-2.7c0.8-0.8,1.7-1.4,2.8-1.9c1.1-0.5,2.2-0.7,3.4-0.7
		s2.3,0.2,3.4,0.7c1.1,0.5,2,1.1,2.8,1.9c0.8,0.8,1.4,1.7,1.8,2.7c0.4,1,0.6,2.1,0.6,3.4c0,1.9-0.6,3.6-1.7,5.3
		c0.7,0.5,1.6,1.1,2.6,1.9c1,0.7,2.2,1.2,3.5,1.5c1.3,0.3,2.7,0.8,4.2,1.7c1.4,0.9,2.8,1.9,4,3.1c1.2,1.2,2.2,2.5,3,3.9
		c0.8,1.4,1.2,2.8,1.2,4.1c0,0.5-0.2,1-0.5,1.3c-0.3,0.3-0.7,0.5-1.3,0.5H57.4c0.1,2,0.2,3.7,0.3,5.1c0.2,1.4,0.4,2.6,0.7,3.6
		s0.6,1.9,1,2.6c0.3,0.7,0.7,1.4,1,2.1c0.7,1.1,1.2,2.3,1.6,3.5c0.4,1.2,0.6,2.9,0.6,5c0,1.3-0.2,2.3-0.5,3c-0.4,0.7-0.7,1.3-1,1.8
		l-0.7,1.2c-0.4,0.8-0.6,1.6-0.6,2.4c0,0.5,0,1,0.1,1.4c0.1,0.4,0.2,0.8,0.3,1.2C61.2,70.8,62.7,71,64.7,71.4z M74.4,81.4
		c-0.5-1.7-1.6-3-3.3-4c-1.7-1-3.4-1.7-5.3-2.3c-1.8-0.5-3.5-0.9-4.9-1c-1.4-0.2-2.2-0.3-2.3-0.3c-0.6,0-1.1-0.3-1.4-1
		c0-0.1-0.2-0.5-0.5-1.5c-0.3-0.9-0.5-2-0.5-3.3c0-1.2,0.3-2.5,0.8-3.9l1.2-1.7c0.2-0.4,0.4-0.8,0.5-1.1c0.2-0.4,0.3-0.9,0.3-1.7
		c0-1.7-0.1-3.1-0.4-4c-0.3-0.9-0.7-1.9-1.3-2.9c-0.4-0.7-0.8-1.5-1.2-2.4c-0.4-0.8-0.7-1.8-1-3c-0.3-1.2-0.6-2.5-0.8-4.1
		c-0.2-1.6-0.4-3.4-0.5-5.6h-8c-0.1,2.2-0.2,4.1-0.5,5.6c-0.2,1.6-0.5,2.9-0.8,4.1c-0.3,1.2-0.7,2.2-1,3c-0.4,0.8-0.7,1.6-1.1,2.4
		c-0.5,1-1,2-1.3,2.9c-0.4,0.9-0.5,2.3-0.5,4c0,0.7,0.1,1.3,0.3,1.7c0.2,0.4,0.4,0.8,0.8,1.1l1.2,1.7c0.5,1.4,0.8,2.7,0.8,3.9
		c0,1.3-0.2,2.5-0.5,3.3c-0.3,0.9-0.5,1.4-0.6,1.5c-0.1,0.3-0.3,0.6-0.6,0.8c-0.3,0.2-0.5,0.3-0.7,0.3c-0.1,0-0.8,0.1-2.3,0.3
		c-1.4,0.2-3.1,0.5-5,1c-1.9,0.5-3.6,1.3-5.3,2.3c-1.7,1-2.8,2.3-3.4,4H74.4z M34.7,27.5c-0.9,0.5-1.8,1.1-2.7,1.9
		c-0.8,0.7-1.6,1.5-2.3,2.4c-0.7,0.9-1.2,1.7-1.5,2.5h16.1h11.2h16.1c-0.3-0.8-0.9-1.6-1.5-2.5c-0.7-0.9-1.5-1.7-2.3-2.4
		c-0.8-0.7-1.7-1.4-2.7-1.9c-1-0.5-1.9-0.9-2.8-1c-2.2-0.5-4.1-1.4-5.6-2.6c-1.5-1.2-2.7-2.2-3.5-3c-0.4-0.3-0.6-0.6-0.6-1.1
		c0.2-0.7,0.4-1.1,0.7-1.3c0.6-0.5,1-1.2,1.3-1.9c0.3-0.7,0.4-1.4,0.4-2.1c0-1.5-0.5-2.7-1.4-3.7c-1-1-2.2-1.5-3.7-1.5
		c-1.5,0-2.7,0.5-3.8,1.5c-1,1-1.5,2.2-1.5,3.7c0,1.7,0.6,3,1.9,4c0.3,0.3,0.5,0.8,0.5,1.3c0,0.5-0.1,0.8-0.4,1.1
		c-0.8,0.9-2,1.9-3.5,3c-1.5,1.2-3.5,2-5.8,2.6C36.5,26.6,35.6,27,34.7,27.5z"/>

</svg>
