<?xml version="1.0" encoding="utf-8"?>
<!-- Generator: Adobe Illustrator 19.0.0, SVG Export Plug-In . SVG Version: 6.00 Build 0)  -->
<svg version="1.1" id="k" xmlns="http://www.w3.org/2000/svg" xmlns:xlink="http://www.w3.org/1999/xlink" x="0px" y="0px"
	 viewBox="0 0 100 100" enable-background="new 0 0 100 100" xml:space="preserve">

	<path id="XMLID_15_" fill="#FFFFFF" d="M92.7,43.2c-0.8,2.4-1.9,4.7-3.2,6.9c-1.3,2.2-2.8,4.2-4.5,6c-1.7,1.9-3.4,3.4-5.1,4.7
		c-0.1,0.4-0.3,1.3-0.5,2.7c-0.2,1.4-0.4,2.9-0.6,4.5c-0.2,1.6-0.4,3-0.5,4.3c-0.2,1.3-0.3,1.9-0.3,2l-0.9,7.4H77
		c-0.1,1.5-1.2,2.8-3.1,3.8c-1.9,1-4.3,1.9-7.1,2.5c-2.8,0.6-5.7,1-8.8,1.3c-3.1,0.3-5.8,0.4-8.1,0.4c-2.3,0-4.9-0.1-8-0.4
		c-3.1-0.3-6-0.7-8.8-1.3c-2.8-0.6-5.2-1.4-7.1-2.5c-2-1-3-2.3-3.1-3.8l-1-7.4c0-0.1-0.1-0.7-0.2-2c-0.1-1.3-0.3-2.7-0.5-4.3
		c-0.2-1.6-0.4-3-0.6-4.5c-0.2-1.4-0.3-2.3-0.4-2.7c-1.8-1.3-3.5-2.8-5.3-4.7c-1.7-1.9-3.2-3.9-4.5-6c-1.3-2.2-2.4-4.5-3.2-6.9
		c-0.8-2.4-1.2-4.9-1.2-7.3c0-2.9,0.6-5.4,1.8-7.5c1.2-2,2.7-3.7,4.5-5c1.8-1.3,3.7-2.2,5.7-2.8c2-0.6,3.9-0.8,5.6-0.8
		c2.5,0,5,0.6,7.4,1.7c2.4,1.1,4.6,2.7,6.7,4.6V6h23h1.6v20.2c2.1-1.9,4.3-3.5,6.7-4.6c2.4-1.1,4.9-1.7,7.4-1.7
		c1.7,0,3.5,0.3,5.5,0.8c2,0.6,3.9,1.5,5.7,2.8c1.8,1.3,3.3,2.9,4.4,5c1.2,2,1.8,4.5,1.8,7.5C93.9,38.3,93.5,40.8,92.7,43.2z
		 M42,30.9c1.8,2.2,3.4,4.5,4.7,7c1.3,2.5,2.4,4.9,3.3,7.3c0.9-2.3,2-4.8,3.4-7.3c1.4-2.5,3-4.9,4.7-7H42z"/>

	<path id="XMLID_4_" d="M92.7,43.2c-0.8,2.4-1.9,4.7-3.2,6.9c-1.3,2.2-2.8,4.2-4.5,6c-1.7,1.9-3.4,3.4-5.1,4.7
		c-0.1,0.4-0.3,1.3-0.5,2.7c-0.2,1.4-0.4,2.9-0.6,4.5c-0.2,1.6-0.4,3-0.5,4.3c-0.2,1.3-0.3,1.9-0.3,2l-0.9,7.4H77
		c-0.1,1.5-1.2,2.8-3.1,3.8c-1.9,1-4.3,1.9-7.1,2.5c-2.8,0.6-5.7,1-8.8,1.3c-3.1,0.3-5.8,0.4-8.1,0.4c-2.3,0-4.9-0.1-8-0.4
		c-3.1-0.3-6-0.7-8.8-1.3c-2.8-0.6-5.2-1.4-7.1-2.5c-2-1-3-2.3-3.1-3.8l-1-7.4c0-0.1-0.1-0.7-0.2-2c-0.1-1.3-0.3-2.7-0.5-4.3
		c-0.2-1.6-0.4-3-0.6-4.5c-0.2-1.4-0.3-2.3-0.4-2.7c-1.8-1.3-3.5-2.8-5.3-4.7c-1.7-1.9-3.2-3.9-4.5-6c-1.3-2.2-2.4-4.5-3.2-6.9
		c-0.8-2.4-1.2-4.9-1.2-7.3c0-2.9,0.6-5.4,1.8-7.5c1.2-2,2.7-3.7,4.5-5c1.8-1.3,3.7-2.2,5.7-2.8c2-0.6,3.9-0.8,5.6-0.8
		c2.5,0,5,0.6,7.4,1.7c2.4,1.1,4.6,2.7,6.7,4.6V6h23h1.6v20.2c2.1-1.9,4.3-3.5,6.7-4.6c2.4-1.1,4.9-1.7,7.4-1.7
		c1.7,0,3.5,0.3,5.5,0.8c2,0.6,3.9,1.5,5.7,2.8c1.8,1.3,3.3,2.9,4.4,5c1.2,2,1.8,4.5,1.8,7.5C93.9,38.3,93.5,40.8,92.7,43.2z
		 M79.1,29.5c-1.7-0.3-2.8-0.5-3.5-0.5c-2.2,0-4.2,0.4-5.9,1.2C68,31,66.4,32.1,65,33.4c-1.4,1.3-2.6,2.8-3.7,4.5
		c-1,1.7-1.9,3.4-2.5,5.1c-0.7,1.7-1.2,3.4-1.5,5.1c-0.4,1.7-0.6,3.1-0.7,4.4c-1.1-0.1-2.3-0.2-3.3-0.3s-2.2-0.1-3.3-0.1
		c-1.1,0-2.2,0-3.3,0.1s-2.2,0.2-3.3,0.3c-0.1-1.3-0.3-2.7-0.7-4.4c-0.4-1.7-0.9-3.4-1.5-5.1c-0.7-1.7-1.5-3.4-2.5-5.1
		c-1-1.7-2.3-3.2-3.7-4.5c-1.4-1.3-3-2.4-4.8-3.2c-1.8-0.8-3.7-1.2-5.9-1.2c-0.3,0-0.7,0-1.4,0.1c-0.6,0.1-1.3,0.2-2,0.4
		c-0.7,0.2-1.5,0.5-2.4,1c-0.8,0.4-1.6,1-2.3,1.8c-0.7,0.7-1.3,1.7-1.8,2.9c-0.5,1.2-0.7,2.8-0.6,4.7c0.3,3.3,1.6,6.5,3.8,9.7
		c2.2,3.2,5,5.9,8.5,8c-0.5,0.1-0.9,0.2-1.3,0.4c-0.4,0.2-0.8,0.4-1.3,0.6l0.9,4.8c2.4-1.1,5-2.1,7.7-3h0.1l0.2-0.1
		c2.8-0.9,5.7-1.7,8.8-2.3c3-0.6,5.9-0.9,8.7-0.9c2.8,0,5.7,0.3,8.8,0.9c3,0.6,6,1.4,8.8,2.3v0.1h0.1c1.5,0.5,2.8,0.9,4.1,1.4
		c1.3,0.5,2.5,1,3.6,1.6l0.9-4.8c-0.5-0.3-0.9-0.5-1.3-0.6c-0.4-0.2-0.8-0.3-1.3-0.4c3.5-2.1,6.4-4.8,8.6-8c2.2-3.2,3.5-6.4,3.7-9.7
		c0.1-1.9,0-3.5-0.5-4.7c-0.5-1.2-1.1-2.2-1.8-2.9C82.3,30.8,80.8,29.9,79.1,29.5z M32.4,55c1.1-0.3,2.2-0.5,3.2-0.8
		c1-0.2,2-0.4,3-0.6c0-1.4-0.3-3.2-0.8-5.4c-0.6-2.2-1.4-4.4-2.5-6.5c-1.1-2.1-2.6-3.9-4.4-5.5c-1.8-1.5-3.9-2.3-6.4-2.3
		c-0.7,0-1.5,0.1-2.4,0.3c-0.8,0.2-1.5,0.6-2.1,1.3c-0.5,0.5-0.8,1.1-1,1.7c-0.2,0.6-0.3,1.4-0.2,2.3c0.1,1.3,0.4,2.6,1.1,4.1
		c0.7,1.4,1.6,2.9,2.7,4.3c1.1,1.4,2.5,2.7,4.1,3.9c1.6,1.2,3.4,2.3,5.5,3.2L32.4,55z M28.7,66.9c-1.2-0.3-2.5-0.3-4.1,0l0.7,6.4
		c1.7-0.5,3.1-1.3,4.2-2.2c1-0.9,1.5-1.8,1.3-2.7C30.5,67.7,29.8,67.2,28.7,66.9z M58.4,78.2c2.7,0.3,5,0.6,7.1,1
		c2.1,0.4,3.8,0.8,5.2,1.3c1.4,0.5,2.3,0.9,2.7,1.3l0.7-4.5c-1.7-1.2-4.8-2.2-9.1-3.1c-4.3-0.8-9.3-1.3-15-1.3c-2.8,0-5.5,0.1-8,0.4
		c-2.5,0.2-4.8,0.5-7,0.9c-2.1,0.4-3.9,0.8-5.5,1.4c-1.6,0.5-2.8,1.1-3.5,1.7l0.6,4.5c0.4-0.4,1.3-0.8,2.7-1.3
		c1.4-0.5,3.2-0.9,5.3-1.3c2.1-0.4,4.5-0.7,7.1-1c2.6-0.3,5.4-0.4,8.3-0.4C52.9,77.8,55.7,78,58.4,78.2z M56.3,8.2L50,14.5l-6.3-6.3
		L40.9,11l6.2,6.5l-6.2,6.4l2.8,2.9l6.3-6.3l6.3,6.3l3-2.9l-6.4-6.4l6.4-6.5L56.3,8.2z M42,30.9c1.8,2.2,3.4,4.5,4.7,7
		c1.3,2.5,2.4,4.9,3.3,7.3c0.9-2.3,2-4.8,3.4-7.3c1.4-2.5,3-4.9,4.7-7H42z M54.7,67.9c1.3-0.6,1.9-1.4,1.9-2.4
		c0-0.9-0.6-1.6-1.9-2.3c-1.3-0.6-2.9-0.9-4.7-0.9c-1.9,0-3.4,0.3-4.7,0.9c-1.3,0.6-1.9,1.4-1.9,2.3c0,0.9,0.6,1.7,1.9,2.4
		c1.3,0.6,2.8,1,4.7,1C51.8,68.8,53.3,68.5,54.7,67.9z M73.5,51.8c1.6-1.2,3-2.5,4.1-3.9c1.1-1.4,2-2.8,2.7-4.3c0.6-1.4,1-2.8,1-4.1
		c0.1-0.9,0-1.7-0.1-2.3c-0.2-0.6-0.5-1.2-1.1-1.7c-0.6-0.7-1.3-1.1-2.1-1.3c-0.8-0.2-1.6-0.3-2.4-0.3c-2.5,0-4.6,0.8-6.4,2.3
		c-1.8,1.5-3.3,3.4-4.4,5.5c-1.1,2.1-2,4.3-2.5,6.5c-0.6,2.2-0.8,4-0.8,5.4c1.1,0.2,2.2,0.4,3.2,0.6c1,0.2,2,0.5,3,0.8l0.4-0.1
		C70,54.1,71.8,53,73.5,51.8z M70.7,71.2c1.1,0.9,2.5,1.6,4.3,2.2l0.7-6.4c-1.6-0.3-3-0.3-4.1,0c-1.1,0.3-1.8,0.8-2.1,1.6
		C69.1,69.4,69.5,70.3,70.7,71.2z"/>

</svg>
