<?xml version="1.0" encoding="utf-8"?>
<!-- Generator: Adobe Illustrator 19.0.0, SVG Export Plug-In . SVG Version: 6.00 Build 0)  -->
<svg version="1.1" id="q" xmlns="http://www.w3.org/2000/svg" xmlns:xlink="http://www.w3.org/1999/xlink" x="0px" y="0px"
	 viewBox="0 0 100 100" enable-background="new 0 0 100 100" xml:space="preserve">

	<path id="XMLID_11_" fill="#FFFFFF" d="M93,29.1c1.1,1.1,1.7,2.4,1.7,4c0,1.5-0.6,2.9-1.7,4c-1.1,1.1-2.5,1.6-4,1.6h-0.7
		c-1.1,2.3-2,4.5-2.8,6.4c-0.8,1.9-1.6,3.8-2.3,5.5c-0.7,1.7-1.3,3.3-1.8,4.8c-0.5,1.5-1,3-1.5,4.5c-0.1,0.4-0.2,1.3-0.4,2.8
		s-0.4,3.1-0.7,4.8c-0.2,1.7-0.4,3.2-0.6,4.5c-0.2,1.3-0.3,2-0.3,2.1l-1,7.4c-0.1,1.5-1.2,2.8-3.2,3.9c-2,1-4.3,1.8-7.1,2.5
		c-2.8,0.6-5.7,1-8.8,1.3c-3.1,0.3-5.7,0.4-8,0.4c-2.3,0-4.9-0.1-8-0.4c-3.1-0.3-6-0.7-8.8-1.3c-2.8-0.6-5.2-1.4-7.1-2.5
		c-2-1-3-2.3-3.1-3.9l-1-7.4c0-0.1-0.1-0.8-0.3-2.1c-0.2-1.3-0.4-2.8-0.6-4.5c-0.2-1.7-0.4-3.3-0.6-4.8s-0.3-2.4-0.4-2.8
		c-0.5-1.5-1-3-1.5-4.5c-0.5-1.5-1.1-3.2-1.8-4.8c-0.7-1.7-1.4-3.5-2.3-5.5c-0.8-1.9-1.8-4.1-2.8-6.4H11c-1.5,0-2.9-0.5-4-1.6
		c-1.1-1.1-1.7-2.4-1.7-4c0-1.6,0.6-2.9,1.7-4c1.1-1.1,2.5-1.6,4-1.6c1.5,0,2.9,0.5,4,1.6c1.1,1.1,1.6,2.4,1.6,4
		c0,0.5-0.1,1.1-0.3,1.6c-0.2,0.6-0.4,1.1-0.8,1.5c2.1,1.3,4.2,2.6,6.3,4.1c2.1,1.5,3.9,3,5.4,4.5c0.3-2.1,0.8-4.3,1.3-6.6
		c0.5-2.3,1.2-4.6,1.9-6.8c0.7-2.3,1.5-4.5,2.3-6.7c0.8-2.2,1.7-4.1,2.7-5.9c-1-0.5-1.8-1.3-2.5-2.2c-0.6-0.9-1-2-1-3.1
		c0-1.7,0.6-3.1,1.8-4.3c1.2-1.2,2.6-1.8,4.3-1.8c1.7,0,3.1,0.6,4.3,1.8c1.2,1.2,1.8,2.6,1.8,4.3c0,1-0.3,1.9-0.8,2.8
		c-0.5,0.9-1.2,1.6-2,2.1c0.7,0.9,1.5,2.1,2.3,3.4c0.8,1.3,1.6,2.7,2.4,4.2c0.8,1.5,1.5,3,2.2,4.5c0.7,1.5,1.3,2.9,1.8,4.2
		c0.5-1.3,1-2.7,1.8-4.2c0.7-1.5,1.4-3,2.2-4.5c0.8-1.5,1.6-2.9,2.4-4.2c0.8-1.3,1.6-2.5,2.4-3.4c-0.8-0.5-1.5-1.2-2-2.1
		c-0.5-0.9-0.8-1.8-0.8-2.8c0-1.7,0.6-3.1,1.8-4.3c1.2-1.2,2.6-1.8,4.3-1.8c1.5,0,2.9,0.6,4.2,1.8c1.2,1.2,1.8,2.6,1.8,4.3
		c0,1.1-0.3,2.2-1,3.1c-0.6,0.9-1.5,1.7-2.5,2.2c0.9,1.8,1.8,3.8,2.7,5.9c0.8,2.2,1.6,4.4,2.3,6.7c0.7,2.3,1.3,4.5,1.9,6.8
		c0.5,2.3,1,4.5,1.3,6.6c1.5-1.5,3.3-3,5.3-4.5c2.1-1.5,4.2-2.9,6.4-4.1c-0.7-0.9-1.1-1.9-1.1-3.1c0-1.6,0.6-2.9,1.7-4
		c1.1-1.1,2.5-1.6,4-1.6C90.5,27.5,91.9,28.1,93,29.1z"/>

	<path id="XMLID_4_" d="M93,29.1c1.1,1.1,1.7,2.4,1.7,4c0,1.5-0.6,2.9-1.7,4c-1.1,1.1-2.5,1.6-4,1.6h-0.7c-1.1,2.3-2,4.5-2.8,6.4
		c-0.8,1.9-1.6,3.8-2.3,5.5c-0.7,1.7-1.3,3.3-1.8,4.8c-0.5,1.5-1,3-1.5,4.5c-0.1,0.4-0.2,1.3-0.4,2.8s-0.4,3.1-0.7,4.8
		c-0.2,1.7-0.4,3.2-0.6,4.5c-0.2,1.3-0.3,2-0.3,2.1l-1,7.4c-0.1,1.5-1.2,2.8-3.2,3.9c-2,1-4.3,1.8-7.1,2.5c-2.8,0.6-5.7,1-8.8,1.3
		c-3.1,0.3-5.7,0.4-8,0.4c-2.3,0-4.9-0.1-8-0.4c-3.1-0.3-6-0.7-8.8-1.3c-2.8-0.6-5.2-1.4-7.1-2.5c-2-1-3-2.3-3.1-3.9l-1-7.4
		c0-0.1-0.1-0.8-0.3-2.1c-0.2-1.3-0.4-2.8-0.6-4.5c-0.2-1.7-0.4-3.3-0.6-4.8s-0.3-2.4-0.4-2.8c-0.5-1.5-1-3-1.5-4.5
		c-0.5-1.5-1.1-3.2-1.8-4.8c-0.7-1.7-1.4-3.5-2.3-5.5c-0.8-1.9-1.8-4.1-2.8-6.4H11c-1.5,0-2.9-0.5-4-1.6c-1.1-1.1-1.7-2.4-1.7-4
		c0-1.6,0.6-2.9,1.7-4c1.1-1.1,2.5-1.6,4-1.6c1.5,0,2.9,0.5,4,1.6c1.1,1.1,1.6,2.4,1.6,4c0,0.5-0.1,1.1-0.3,1.6
		c-0.2,0.6-0.4,1.1-0.8,1.5c2.1,1.3,4.2,2.6,6.3,4.1c2.1,1.5,3.9,3,5.4,4.5c0.3-2.1,0.8-4.3,1.3-6.6c0.5-2.3,1.2-4.6,1.9-6.8
		c0.7-2.3,1.5-4.5,2.3-6.7c0.8-2.2,1.7-4.1,2.7-5.9c-1-0.5-1.8-1.3-2.5-2.2c-0.6-0.9-1-2-1-3.1c0-1.7,0.6-3.1,1.8-4.3
		c1.2-1.2,2.6-1.8,4.3-1.8c1.7,0,3.1,0.6,4.3,1.8c1.2,1.2,1.8,2.6,1.8,4.3c0,1-0.3,1.9-0.8,2.8c-0.5,0.9-1.2,1.6-2,2.1
		c0.7,0.9,1.5,2.1,2.3,3.4c0.8,1.3,1.6,2.7,2.4,4.2c0.8,1.5,1.5,3,2.2,4.5c0.7,1.5,1.3,2.9,1.8,4.2c0.5-1.3,1-2.7,1.8-4.2
		c0.7-1.5,1.4-3,2.2-4.5c0.8-1.5,1.6-2.9,2.4-4.2c0.8-1.3,1.6-2.5,2.4-3.4c-0.8-0.5-1.5-1.2-2-2.1c-0.5-0.9-0.8-1.8-0.8-2.8
		c0-1.7,0.6-3.1,1.8-4.3c1.2-1.2,2.6-1.8,4.3-1.8c1.5,0,2.9,0.6,4.2,1.8c1.2,1.2,1.8,2.6,1.8,4.3c0,1.1-0.3,2.2-1,3.1
		c-0.6,0.9-1.5,1.7-2.5,2.2c0.9,1.8,1.8,3.8,2.7,5.9c0.8,2.2,1.6,4.4,2.3,6.7c0.7,2.3,1.3,4.5,1.9,6.8c0.5,2.3,1,4.5,1.3,6.6
		c1.5-1.5,3.3-3,5.3-4.5c2.1-1.5,4.2-2.9,6.4-4.1c-0.7-0.9-1.1-1.9-1.1-3.1c0-1.6,0.6-2.9,1.7-4c1.1-1.1,2.5-1.6,4-1.6
		C90.5,27.5,91.9,28.1,93,29.1z M56.5,57c2.3,0.4,4.6,0.8,6.9,1.4c2.3,0.6,4.4,1.2,6.5,2c2.1,0.8,3.9,1.5,5.5,2.3l0.9-4.9
		c-1.7-0.8-3.6-1.6-5.7-2.4c-2.1-0.8-4.3-1.5-6.5-2s-4.6-1.1-7-1.4c-2.4-0.3-4.7-0.5-7-0.5c-2.3,0-4.7,0.2-7,0.5
		c-2.4,0.3-4.7,0.8-7,1.4s-4.5,1.3-6.5,2c-2.1,0.8-4,1.5-5.7,2.4l0.9,4.9c1.6-0.8,3.4-1.6,5.5-2.3c2.1-0.8,4.2-1.4,6.5-2
		c2.2-0.6,4.5-1,6.8-1.4c2.3-0.4,4.5-0.5,6.7-0.5C52.1,56.4,54.3,56.6,56.5,57z M28.7,66.1c-1.2-0.3-2.5-0.3-4.1,0l0.7,6.4
		c1.7-0.5,3.1-1.2,4.2-2.1c1-0.9,1.5-1.7,1.3-2.6C30.5,67,29.8,66.5,28.7,66.1z M58.3,77.6c2.7,0.3,5,0.6,7.2,1
		c2.1,0.4,3.8,0.8,5.3,1.3c1.4,0.5,2.3,0.9,2.7,1.3l0.6-4.4c-0.8-0.6-2-1.2-3.5-1.7c-1.6-0.5-3.4-1-5.5-1.4c-2.1-0.4-4.4-0.7-7-0.9
		c-2.5-0.2-5.2-0.3-8-0.3s-5.5,0.1-8,0.3c-2.5,0.2-4.8,0.5-7,0.9C33,74,31.1,74.5,29.5,75c-1.6,0.5-2.8,1.1-3.5,1.7l0.6,4.4
		c0.4-0.4,1.3-0.8,2.6-1.3c1.4-0.5,3.1-0.9,5.2-1.3c2.1-0.4,4.5-0.7,7.1-1c2.7-0.3,5.5-0.4,8.4-0.4C52.9,77.2,55.6,77.4,58.3,77.6z
		 M54.7,67.2c1.3-0.6,1.9-1.4,1.9-2.3c0-0.9-0.6-1.6-1.9-2.3c-1.3-0.7-2.9-1-4.7-1c-1.9,0-3.4,0.3-4.7,1c-1.3,0.7-1.9,1.4-1.9,2.3
		c0,0.9,0.6,1.7,1.9,2.3c1.3,0.6,2.8,1,4.7,1C51.8,68.1,53.3,67.8,54.7,67.2z M70.7,70.4c1.1,0.9,2.5,1.6,4.3,2.1l0.7-6.4
		c-1.6-0.3-3-0.3-4.1,0c-1.1,0.3-1.8,0.9-2.1,1.7C69.1,68.7,69.5,69.6,70.7,70.4z"/>

</svg>
