<?xml version="1.0" encoding="utf-8"?>
<!-- Generator: Adobe Illustrator 19.0.0, SVG Export Plug-In . SVG Version: 6.00 Build 0)  -->
<svg version="1.1" id="r" xmlns="http://www.w3.org/2000/svg" xmlns:xlink="http://www.w3.org/1999/xlink" x="0px" y="0px"
	 viewBox="0 0 100 100" enable-background="new 0 0 100 100" xml:space="preserve">

	<path id="XMLID_8_" fill="#FFFFFF" d="M73.2,63.8C74,65,75,66.4,76,68c1.1,1.6,2.2,3.2,3.4,4.9c1.2,1.7,2.1,3,2.8,4
		c0.7,1,1.1,1.6,1.2,1.6v9.4h-67v-9.4c0.1-0.1,0.5-0.6,1.2-1.6c0.7-1,1.7-2.4,2.9-4c1.2-1.7,2.3-3.3,3.4-4.9c1.1-1.6,2.1-3,2.9-4.2
		c0.9-1.2,1.4-1.9,1.5-2v-31c-0.2-0.3-0.7-0.9-1.5-1.8c-0.8-0.9-1.7-1.8-2.6-2.8c-0.9-1-2-2.2-3.4-3.8V6.5h11.2v6.9h10.7V6.5h14.8
		v6.9h10.7V6.5h9.5h1.7v15.9c-1.4,1.5-2.5,2.8-3.5,3.8c-0.9,1-1.8,1.9-2.6,2.8c-0.8,0.9-1.3,1.5-1.5,1.8v31
		C71.8,61.9,72.3,62.6,73.2,63.8z"/>

	<path id="XMLID_4_" d="M73.2,63.8C74,65,75,66.4,76,68c1.1,1.6,2.2,3.2,3.4,4.9c1.2,1.7,2.1,3,2.8,4c0.7,1,1.1,1.6,1.2,1.6v9.4h-67
		v-9.4c0.1-0.1,0.5-0.6,1.2-1.6c0.7-1,1.7-2.4,2.9-4c1.2-1.7,2.3-3.3,3.4-4.9c1.1-1.6,2.1-3,2.9-4.2c0.9-1.2,1.4-1.9,1.5-2v-31
		c-0.2-0.3-0.7-0.9-1.5-1.8c-0.8-0.9-1.7-1.8-2.6-2.8c-0.9-1-2-2.2-3.4-3.8V6.5h11.2v6.9h10.7V6.5h14.8v6.9h10.7V6.5h9.5h1.7v15.9
		c-1.4,1.5-2.5,2.8-3.5,3.8c-0.9,1-1.8,1.9-2.6,2.8c-0.8,0.9-1.3,1.5-1.5,1.8v31C71.8,61.9,72.3,62.6,73.2,63.8z M31.6,32.2h36.8
		v-5.4H31.6V32.2z M31.6,65.2h36.8v-5.4H31.6V65.2z"/>

</svg>
