<?xml version="1.0" encoding="utf-8"?>
<!-- Generator: Adobe Illustrator 19.0.0, SVG Export Plug-In . SVG Version: 6.00 Build 0)  -->
<svg version="1.1" id="K" xmlns="http://www.w3.org/2000/svg" xmlns:xlink="http://www.w3.org/1999/xlink" x="0px" y="0px"
	 viewBox="0 0 100 100" enable-background="new 0 0 100 100" xml:space="preserve">

	<path id="XMLID_13_" fill="#FFFFFF" d="M92,7.8L75.1,71.1l11.4,18.3H13.3l11.4-18.3L7.8,7.7c-0.5-1.9-0.5-3,0.1-3.4
		C8.5,4.1,9.6,4.6,11.3,6l32,32.1V22.7H35V11.1h8.3V6h13.2v5.1h8.4v11.6h-8.4v15.4L88.6,6c1.6-1.5,2.7-2,3.4-1.7
		C92.5,4.8,92.5,6,92,7.8z"/>

	<path id="XMLID_4_" d="M92,7.8L75.1,71.1l11.4,18.3H13.3l11.4-18.3L7.8,7.7c-0.5-1.9-0.5-3,0.1-3.4C8.5,4.1,9.6,4.6,11.3,6l32,32.1
		V22.7H35V11.1h8.3V6h13.2v5.1h8.4v11.6h-8.4v15.4L88.6,6c1.6-1.5,2.7-2,3.4-1.7C92.5,4.8,92.5,6,92,7.8z M53.2,46V19.3h8.3v-4.9
		h-8.3v-5h-6.6v5h-8.3v4.9h8.3V46L12.3,11.7l15.3,57.1c6.5-5.1,14-7.7,22.3-7.7c8.3,0,15.8,2.6,22.4,7.7l15.3-57.1L53.2,46z
		 M80.6,86.1l-7.2-11.7H26.5l-7.2,11.7H80.6z M49.5,55.2c-7,0.1-13.6,1.8-19.7,5.1l-9-33.8L49.5,55.2z M31.9,55.7
		c3.2-1.5,6.6-2.5,10.3-3.1l-15-15L31.9,55.7z M69.8,71.1c-5.9-4.5-12.5-6.7-19.9-6.7c-7.4,0-14,2.2-19.9,6.7H69.8z M50.4,55.2
		l28.7-28.6l-9,33.7C63.9,57,57.3,55.3,50.4,55.2z M67.9,55.6l4.8-18l-14.9,15C61.1,53.2,64.5,54.2,67.9,55.6z"/>

</svg>
