<?xml version="1.0" encoding="utf-8"?>
<!-- Generator: Adobe Illustrator 19.0.0, SVG Export Plug-In . SVG Version: 6.00 Build 0)  -->
<svg version="1.1" id="b" xmlns="http://www.w3.org/2000/svg" xmlns:xlink="http://www.w3.org/1999/xlink" x="0px" y="0px"
	 viewBox="0 0 100 100" enable-background="new 0 0 100 100" xml:space="preserve">

	<path id="XMLID_11_" fill="#FFFFFF" d="M80.9,89.4h-62L34,57.1L5.1,7c8.3,2.6,16.2,6.4,23.6,11.5c3.1,2.3,5.8,4.5,8.1,6.6
		c3.4-6.9,7.8-13.2,13.1-19.1C55.2,12,59.5,18.3,63,25.1c2.6-2.3,5.3-4.5,8.2-6.6C78.5,13.5,86.3,9.6,94.7,7L65.8,57.1L80.9,89.4z"
		/>

	<path id="XMLID_4_" d="M80.9,89.4h-62L34,57.1L5.1,7c8.3,2.6,16.2,6.4,23.6,11.5c3.1,2.3,5.8,4.5,8.1,6.6
		c3.4-6.9,7.8-13.2,13.1-19.1C55.2,12,59.5,18.3,63,25.1c2.6-2.3,5.3-4.5,8.2-6.6C78.5,13.5,86.3,9.6,94.7,7L65.8,57.1L80.9,89.4z
		 M76.2,31.5c-8.5-2.7-17.3-4-26.3-4c-9.1,0-17.8,1.3-26.2,4l1.8,3.1c8-2.4,16.1-3.6,24.4-3.6c8.4,0,16.6,1.2,24.5,3.7L76.2,31.5z
		 M65.2,63.1l-1.8-3.8L49.9,81.5L36.5,59.3l-1.9,3.8l12.5,20.6c0.9,1.6,1.8,2.4,2.8,2.4s2-0.8,2.9-2.4L65.2,63.1z M35.2,41
		c0,3.7,1.6,5.5,4.7,5.5c3.2,0,4.8-1.8,4.8-5.5c0-3.7-1.6-5.5-4.8-5.5C36.8,35.5,35.2,37.4,35.2,41z M51.7,58.5V38.8
		c0-1.2-0.6-1.8-1.8-1.8c-1.2,0-1.8,0.6-1.8,1.8v19.7l-3-2.5c-0.9-0.7-1.7-0.7-2.4,0c-0.8,0.9-0.8,1.7,0,2.5l5.9,5.9
		c0.3,0.5,0.8,0.7,1.3,0.7c0.5,0,1-0.2,1.4-0.7l5.9-5.9c0.8-0.8,0.8-1.6,0-2.5c-0.7-0.7-1.5-0.7-2.4,0L51.7,58.5z M55.2,41
		c0,3.7,1.6,5.5,4.7,5.5c3.1,0,4.7-1.8,4.7-5.5c0-3.7-1.6-5.5-4.7-5.5C56.8,35.5,55.2,37.4,55.2,41z"/>

</svg>
