<?xml version="1.0" encoding="utf-8"?>
<!-- Generator: Adobe Illustrator 19.0.0, SVG Export Plug-In . SVG Version: 6.00 Build 0)  -->
<svg version="1.1" id="n" xmlns="http://www.w3.org/2000/svg" xmlns:xlink="http://www.w3.org/1999/xlink" x="0px" y="0px"
	 viewBox="0 0 100 100" enable-background="new 0 0 100 100" xml:space="preserve">

	<path id="XMLID_13_" fill="#FFFFFF" d="M23.4,85.6c4.6-9,10.4-16.2,17.4-21.5c3.3-2.5,5.8-5.7,7.6-9.6c-2.9,1.3-6,2.1-9.2,2.2
		c-5.3,0.4-9.4,2.7-12.3,6.9L12.2,49.8l37.5-45c1.4,1.6,3,3,4.6,4.3c1.7,1.2,3.2,2.8,4.5,4.6l5.8-4.8c1.3-1.1,2.3-1.5,3-1.1
		c0.6,0.4,0.6,1.4,0.1,3.1l-2,6.2c5.5,6.9,10.1,14.8,13.7,23.7c3.1,7.7,5.1,15.2,6.1,22.6c1,7.4,1.1,14.2,0.2,20.4
		c-7.2,2.7-14.7,4.6-22.5,5.5c-7.4,0.9-14.5,1-21.3,0.3C35.1,89,28.9,87.6,23.4,85.6z"/>

	<path id="XMLID_4_" d="M23.4,85.6c4.6-9,10.4-16.2,17.4-21.5c3.3-2.5,5.8-5.7,7.6-9.6c-2.9,1.3-6,2.1-9.2,2.2
		c-5.3,0.4-9.4,2.7-12.3,6.9L12.2,49.8l37.5-45c1.4,1.6,3,3,4.6,4.3c1.7,1.2,3.2,2.8,4.5,4.6l5.8-4.8c1.3-1.1,2.3-1.5,3-1.1
		c0.6,0.4,0.6,1.4,0.1,3.1l-2,6.2c5.5,6.9,10.1,14.8,13.7,23.7c3.1,7.7,5.1,15.2,6.1,22.6c1,7.4,1.1,14.2,0.2,20.4
		c-7.2,2.7-14.7,4.6-22.5,5.5c-7.4,0.9-14.5,1-21.3,0.3C35.1,89,28.9,87.6,23.4,85.6z M45.5,27.7c-1.7-1.4-3.3-2.4-4.8-2.9
		c-1.5-0.5-2.6-0.4-3.2,0.3c-0.6,0.7-0.5,1.8,0.2,3.3c0.7,1.5,1.9,2.9,3.5,4.3c1.6,1.4,3.2,2.4,4.7,2.9c1.5,0.5,2.6,0.4,3.2-0.3
		c0.6-0.6,0.5-1.6-0.2-3.1C48.2,30.7,47,29.2,45.5,27.7z M67,82.2c1.8-6.1,2.5-12.9,2.3-20.6C69,54,67.5,46.1,64.9,38
		c-1.6-5-3.5-9.5-5.7-13.6c-2.2-4.1-4.6-8-7.3-11.6c-1.4-2-2.6-2.7-3.6-2c-0.9,0.6-0.8,1.7,0.3,3.4c2.5,3.4,4.7,7.1,6.8,11
		c2,3.9,3.8,8.2,5.4,12.9c2.5,7.9,4,15.6,4.3,23.1c0.3,7.5-0.3,14.2-1.9,20.1c-0.7,2.5-0.4,3.9,0.9,4.2C65.2,85.8,66.2,84.7,67,82.2
		z M67.1,27.9c0.7-0.3,1.1-0.9,1.1-1.6c0-1.1-0.6-1.7-1.7-1.7c-0.2,0-0.3,0-0.4,0s-0.2,0-0.4,0c-0.5-0.1-1.4-0.1-2.5,0
		c-0.7,0.3-1,0.8-1,1.6c0,1,0.5,1.5,1.6,1.5c0.6,0,1.1,0,1.4,0C65.8,27.7,66.4,27.8,67.1,27.9z M72.3,37.5c1.1,0,1.6-0.6,1.6-1.7
		c0-0.8-0.4-1.4-1.2-1.7C72,34,71.5,33.9,71,33.7c-1.3-0.1-2.5-0.2-3.4-0.2c-0.7,0.3-1.1,0.9-1.1,1.7c0,1.1,0.5,1.7,1.5,1.7
		c0.9,0,1.7,0.1,2.5,0.3C70.9,37.3,71.5,37.4,72.3,37.5z M77.7,50.5c1.1,0.1,1.7-0.5,1.7-1.7c0-0.8-0.4-1.3-1.2-1.6
		c-1.1-0.5-2.2-0.9-3.3-1.2c-1.2-0.3-2.4-0.4-3.6-0.4c-1.1-0.1-1.6,0.5-1.6,1.6c0,1.1,0.6,1.7,1.7,1.7c0.3,0.1,1.2,0.2,2.7,0.5
		C75.4,49.7,76.6,50.1,77.7,50.5z M79.9,64c0.3,0.1,0.5,0.2,0.7,0.2c1.1,0,1.7-0.6,1.7-1.8c0-0.7-0.3-1.2-1-1.5
		c-1-0.6-2.2-1.1-3.6-1.6c-1.3-0.5-2.7-0.8-4.2-0.9c-1.1,0-1.7,0.6-1.7,1.7c0,1.1,0.5,1.7,1.6,1.7c1.2,0.3,2.3,0.5,3.3,0.8
		C77.7,63,78.8,63.4,79.9,64z M81.3,76.9c0.1,0.1,0.2,0.1,0.4,0.1c1.1,0,1.7-0.6,1.7-1.7c0-0.5-0.2-1-0.7-1.3
		c-1.3-1-2.7-1.8-4.1-2.5c-1.8-0.7-3.4-1.1-4.8-1.3c-1.1,0-1.6,0.6-1.6,1.7c0,0.8,0.3,1.3,1,1.6c1.3,0.3,2.7,0.7,4,1.2
		C78.7,75.4,80.1,76.1,81.3,76.9z"/>

</svg>
