<?xml version="1.0" encoding="utf-8"?>
<!-- Generator: Adobe Illustrator 19.0.0, SVG Export Plug-In . SVG Version: 6.00 Build 0)  -->
<svg version="1.1" id="p" xmlns="http://www.w3.org/2000/svg" xmlns:xlink="http://www.w3.org/1999/xlink" x="0px" y="0px"
	 viewBox="0 0 100 100" enable-background="new 0 0 100 100" xml:space="preserve">

	<path id="XMLID_4_" d="M49.9,71.1h34c1.1-0.1,1.8,0.1,2,0.6c0.2,0.4,0.2,0.9-0.1,1.5l-7.6,16.2H21.7l-7.6-16.2
		c-0.3-0.6-0.4-1.1-0.2-1.5c0.3-0.5,0.9-0.7,2-0.6H49.9z M69.8,67.7H29.9c6.3-7.5,10.4-16.1,12.3-25.8c2.5,1.1,5,1.6,7.7,1.6
		c2.6,0,5.2-0.5,7.7-1.6C59.5,51.7,63.5,60.3,69.8,67.7z M49.9,39.5c-4.6,0-8.5-1.6-11.8-4.9c-3.3-3.3-4.9-7.2-4.9-11.9
		c0-4.5,1.6-8.5,4.9-11.8c3.3-3.3,7.2-5,11.8-5c4.6,0,8.5,1.7,11.8,5s5,7.2,5,11.8c0,4.7-1.7,8.6-5,11.9
		C58.5,37.9,54.5,39.5,49.9,39.5z"/>

</svg>
