<?xml version="1.0" encoding="utf-8"?>
<!-- Generator: Adobe Illustrator 19.0.0, SVG Export Plug-In . SVG Version: 6.00 Build 0)  -->
<svg version="1.1" id="Q" xmlns="http://www.w3.org/2000/svg" xmlns:xlink="http://www.w3.org/1999/xlink" x="0px" y="0px"
	 viewBox="0 0 100 100" enable-background="new 0 0 100 100" xml:space="preserve">

	<path id="XMLID_11_" fill="#FFFFFF" d="M10.7,25.9c-0.6-5.1-0.3-7.9,0.8-8.3c1.3-0.3,3.3,2.5,6.2,8.4l16.5,35.3l12.9-47.8
		c0.8-2.7,1.7-4.1,2.8-4.1c1.1,0,2,1.4,2.9,4.1l12.9,47.9l16.5-35.5c2.9-5.9,5-8.7,6.3-8.3c1.1,0.3,1.3,3.1,0.7,8.4l-7.1,57.5
		c-10.4,3.9-21.1,5.9-32.2,5.9c-11.2,0-21.9-2-32.1-5.9L10.7,25.9z"/>

	<path id="XMLID_4_" d="M10.7,25.9c-0.6-5.1-0.3-7.9,0.8-8.3c1.3-0.3,3.3,2.5,6.2,8.4l16.5,35.3l12.9-47.8c0.8-2.7,1.7-4.1,2.8-4.1
		c1.1,0,2,1.4,2.9,4.1l12.9,47.9l16.5-35.5c2.9-5.9,5-8.7,6.3-8.3c1.1,0.3,1.3,3.1,0.7,8.4l-7.1,57.5c-10.4,3.9-21.1,5.9-32.2,5.9
		c-11.2,0-21.9-2-32.1-5.9L10.7,25.9z M18,58.1c4.4,2.3,8.9,4.1,13.5,5.4L14,26L18,58.1z M80,73.7L81.4,62
		c-9.9,4.9-20.4,7.3-31.5,7.3c-11.1,0-21.6-2.4-31.5-7.3l1.5,11.7c9.6,3.8,19.6,5.7,30,5.7C60.4,79.4,70.4,77.5,80,73.7z M79.5,77.4
		C69.9,81,60,82.8,49.9,82.8c-10.1,0-20-1.8-29.6-5.4l0.5,3.7c9.4,3.3,19.1,5,29.1,5c9.9,0,19.6-1.7,29.1-5L79.5,77.4z M63.1,64.7
		L49.9,15.5L36.7,64.7C41,65.6,45.4,66,49.9,66C54.3,66,58.7,65.6,63.1,64.7z M85.7,27.5c0.1-0.7,0.1-1,0-1c-0.1,0-0.3,0.3-0.6,0.9
		c-2.8,6-5.6,12-8.4,18c-2.8,6-5.6,12-8.4,18.1c4.9-1.4,9.4-3.2,13.6-5.4c0.6-5.1,1.2-10.3,1.9-15.4C84.5,37.5,85.1,32.5,85.7,27.5z
		"/>

</svg>
