<?xml version="1.0" encoding="utf-8"?>
<!-- Generator: Adobe Illustrator 19.0.0, SVG Export Plug-In . SVG Version: 6.00 Build 0)  -->
<svg version="1.1" id="R" xmlns="http://www.w3.org/2000/svg" xmlns:xlink="http://www.w3.org/1999/xlink" x="0px" y="0px"
	 viewBox="0 0 100 100" enable-background="new 0 0 100 100" xml:space="preserve">

	<path id="XMLID_15_" fill="#FFFFFF" d="M19.9,72.7L33.2,36H22.5L10,9.4h16.6l4.6,9.9h11.3V9.4h15v9.9h11.2l4.7-9.9H90L77.5,36H66.8
		l13.3,36.7h6c0.9,0,1.4,0.2,1.6,0.6c0.1,0.3,0,0.7-0.3,1.1l-6.9,15H50H19.4l-7-15c-0.3-0.3-0.3-0.7-0.2-1.2
		c0.2-0.3,0.8-0.5,1.7-0.5H19.9z"/>

	<path id="XMLID_4_" d="M19.9,72.7L33.2,36H22.5L10,9.4h16.6l4.6,9.9h11.3V9.4h15v9.9h11.2l4.7-9.9H90L77.5,36H66.8l13.3,36.7h6
		c0.9,0,1.4,0.2,1.6,0.6c0.1,0.3,0,0.7-0.3,1.1l-6.9,15H50H19.4l-7-15c-0.3-0.3-0.3-0.7-0.2-1.2c0.2-0.3,0.8-0.5,1.7-0.5H19.9z
		 M50,32.7h25.5l9.3-20.1h-9.3l-4.8,10.1H54.1V12.6h-8.3v10.1H29.2l-4.7-10.1h-9.4l9.4,20.1H50z M50,76H16.8l4.7,10.1H50h28.4L83,76
		H50z M48.3,72.7v-10H27l-3.7,10H48.3z M35.8,59.4v-10h-4l-3.6,10H35.8z M48.3,46V36H36.7l-3.6,10H48.3z M39.2,49.4v10h21.6v-10
		H39.2z M51.7,46h15.2l-3.6-10H51.7V46z M51.7,72.7h25l-3.7-10H51.7V72.7z M64.2,59.4h7.6l-3.7-10h-3.9V59.4z"/>

</svg>
