<?xml version="1.0" encoding="utf-8"?>
<!-- Generator: Adobe Illustrator 19.0.0, SVG Export Plug-In . SVG Version: 6.00 Build 0)  -->
<svg version="1.1" id="B" xmlns="http://www.w3.org/2000/svg" xmlns:xlink="http://www.w3.org/1999/xlink" x="0px" y="0px"
	 viewBox="0 0 100 100" enable-background="new 0 0 100 100" xml:space="preserve">

	<path id="XMLID_16_" fill="#FFFFFF" d="M80.9,89.4h-62L34,57.1L5.1,7c8.3,2.6,16.2,6.4,23.6,11.5c3.1,2.3,5.8,4.5,8.1,6.6
		c3.4-6.9,7.8-13.2,13.1-19.1C55.2,12,59.5,18.3,63,25.1c2.6-2.3,5.3-4.5,8.2-6.6C78.5,13.5,86.3,9.6,94.7,7L65.8,57.1L80.9,89.4z"
		/>

	<path id="XMLID_4_" d="M80.9,89.4h-62L34,57.1L5.1,7c8.3,2.6,16.2,6.4,23.6,11.5c3.1,2.3,5.8,4.5,8.1,6.6
		c3.4-6.9,7.8-13.2,13.1-19.1C55.2,12,59.5,18.3,63,25.1c2.6-2.3,5.3-4.5,8.2-6.6C78.5,13.5,86.3,9.6,94.7,7L65.8,57.1L80.9,89.4z
		 M23.3,32c4.3-1.4,8.5-2.4,12.8-3.1c-3.1-2.9-6.2-5.4-9.3-7.6c-4.4-3.1-9.2-5.7-14.3-8L23.3,32z M75.8,86.1l-12-25.6L52.5,80.2
		c-0.8,1.5-1.7,2.3-2.6,2.3c-0.9,0-1.7-0.8-2.6-2.3L36,60.5L24,86.1H75.8z M74.9,34.9c-8.1-2.6-16.4-3.9-25-3.9
		C41.3,31,33,32.3,25,34.9l24.9,43.2L74.9,34.9z M34.9,41c0-1.5,0.5-2.9,1.5-4c1-1.2,2.2-1.8,3.5-1.8c1.4,0,2.6,0.6,3.5,1.8
		c1,1.2,1.5,2.5,1.5,4c0,3.9-1.7,5.8-5,5.8C36.6,46.8,34.9,44.9,34.9,41z M38.3,41c0,1.7,0.5,2.5,1.6,2.5c1.1,0,1.7-0.8,1.7-2.5
		c0-1.7-0.6-2.5-1.7-2.5C38.8,38.5,38.3,39.4,38.3,41z M61,28.5c-3-6.3-6.7-12-11.1-17.3c-4.5,5.2-8.2,11-11.1,17.3
		c3.5-0.5,7.2-0.8,11.1-0.8C53.8,27.7,57.5,28,61,28.5z M51.6,58.1l2.9-2.3c0.9-0.7,1.7-0.7,2.4,0c0.7,0.8,0.7,1.6,0,2.3l-5.7,5.7
		c-0.3,0.4-0.8,0.6-1.3,0.6c-0.5,0-0.9-0.2-1.2-0.6L43,58.1c-0.7-0.7-0.7-1.5,0-2.3c0.7-0.7,1.5-0.7,2.4,0l2.8,2.3V39.4
		c0-1.2,0.6-1.8,1.7-1.8c1.1,0,1.7,0.6,1.7,1.8V58.1z M55,41c0-1.5,0.5-2.9,1.5-4c1-1.2,2.1-1.8,3.5-1.8c1.4,0,2.6,0.6,3.5,1.8
		c1,1.2,1.5,2.5,1.5,4c0,3.9-1.7,5.8-5,5.8C56.6,46.8,55,44.9,55,41z M58.3,41c0,1.7,0.5,2.5,1.6,2.5c1.1,0,1.7-0.8,1.7-2.5
		c0-1.7-0.6-2.5-1.7-2.5C58.8,38.5,58.3,39.4,58.3,41z M76.5,32l10.8-18.7c-5.1,2.2-9.8,4.9-14.3,8c-3.1,2.2-6.2,4.7-9.3,7.6
		C67.9,29.6,72.2,30.6,76.5,32z"/>

</svg>
