<?xml version="1.0" encoding="utf-8"?>
<!-- Generator: Adobe Illustrator 19.0.0, SVG Export Plug-In . SVG Version: 6.00 Build 0)  -->
<svg version="1.1" id="N" xmlns="http://www.w3.org/2000/svg" xmlns:xlink="http://www.w3.org/1999/xlink" x="0px" y="0px"
	 viewBox="0 0 100 100" enable-background="new 0 0 100 100" xml:space="preserve">

	<path id="XMLID_16_" fill="#FFFFFF" d="M23.4,85.6c4.6-9,10.4-16.2,17.4-21.5c3.3-2.5,5.8-5.7,7.6-9.6c-2.9,1.3-6,2.1-9.2,2.2
		c-5.3,0.4-9.4,2.7-12.3,6.9L12.2,49.8l37.5-45c1.4,1.6,3,3,4.6,4.3c1.7,1.2,3.2,2.8,4.5,4.6l5.8-4.8c1.3-1.1,2.3-1.5,3-1.1
		c0.6,0.4,0.6,1.4,0.1,3.1l-2,6.2c5.5,6.9,10.1,14.8,13.7,23.7c3.1,7.7,5.1,15.2,6.1,22.6c1,7.4,1.1,14.2,0.2,20.4
		c-7.2,2.7-14.7,4.6-22.5,5.5c-7.4,0.9-14.5,1-21.3,0.3C35.1,89,28.9,87.6,23.4,85.6z"/>

	<path id="XMLID_4_" d="M23.4,85.6c4.6-9,10.4-16.2,17.4-21.5c3.3-2.5,5.8-5.7,7.6-9.6c-2.9,1.3-6,2.1-9.2,2.2
		c-5.3,0.4-9.4,2.7-12.3,6.9L12.2,49.8l37.5-45c1.4,1.6,3,3,4.6,4.3c1.7,1.2,3.2,2.8,4.5,4.6l5.8-4.8c1.3-1.1,2.3-1.5,3-1.1
		c0.6,0.4,0.6,1.4,0.1,3.1l-2,6.2c5.5,6.9,10.1,14.8,13.7,23.7c3.1,7.7,5.1,15.2,6.1,22.6c1,7.4,1.1,14.2,0.2,20.4
		c-7.2,2.7-14.7,4.6-22.5,5.5c-7.4,0.9-14.5,1-21.3,0.3C35.1,89,28.9,87.6,23.4,85.6z M27.9,83.7c10.4,3.1,22,3.8,34.9,2.3
		c0.5,0,0.9,0,1.4-0.1c0.4-0.1,0.9-0.2,1.3-0.3c2.3-6,3.4-13.2,3.3-21.5c-0.1-8.4-1.5-17.1-4.2-26.1c-1.7-5.7-3.8-10.8-6.3-15.4
		C55.8,18,53,13.8,49.9,9.9L39,23c2.4-0.4,5,0.4,7.7,2.4c2.1,1.5,3.5,3.2,4.3,5.2c0.8,2,0.7,3.6-0.3,4.9c-0.9,1.3-2.5,1.9-4.5,1.8
		c-2.1-0.1-4.2-1-6.3-2.5c-3-2.1-4.6-4.5-4.8-7.2L16.8,49.7l9.8,9.1c3.5-3.3,7.6-5.1,12.4-5.4c6.2-0.3,11.4-2.8,15.5-7.5
		c1.2-1.5,2.2-2,3.1-1.3c0.8,0.7,0.6,1.8-0.5,3.3c-1.3,1.5-2.8,2.9-4.5,4.2c-1.8,5.8-5.1,10.6-10,14.3C36.9,70.8,32,76.6,27.9,83.7z
		 M44.8,28.3c-3.1-2.3-5.2-2.8-6.2-1.5c-0.4,0.5-0.3,1.3,0.4,2.4c0.6,1.1,1.6,2.1,3,3c1.3,0.9,2.5,1.5,3.7,1.9
		c1.2,0.3,2,0.1,2.4-0.5c0.4-0.5,0.3-1.2-0.3-2.3C47,30.3,46.1,29.3,44.8,28.3z M61,20.8l1.9-5.9L59.5,18C60,19,60.5,19.9,61,20.8z
		 M67.9,25.7c-1.3-2-2.4-3.6-3.4-4.9l-1.3,4.1c0.1,0.4,0.2,0.7,0.3,0.8c0.9-0.1,1.9-0.2,3.2-0.1C67,25.6,67.4,25.7,67.9,25.7z
		 M72.7,34c-1.1-2.1-2-3.7-2.6-4.8c-0.9-0.2-2.1-0.4-3.8-0.5h-1.5c0.7,1.9,1.3,3.5,1.8,4.9c1.4-0.1,2.9-0.1,4.4,0.1
		C71.8,33.9,72.4,34,72.7,34z M78.2,47.1c-0.7-2.1-1.4-3.8-1.9-5.1c-0.3-0.8-0.9-2.1-1.6-3.8c-1.2-0.5-2.6-0.8-4.2-1
		c-1.3-0.1-2.2-0.2-2.7-0.2c0.9,3.4,1.7,6.3,2.2,8.6c1.4-0.1,3,0.1,4.9,0.4C76.2,46.4,77.3,46.7,78.2,47.1z M69,85.1
		c2.3-0.5,4.5-1,6.6-1.5c-0.1-0.1-0.7-0.4-1.6-1c-1.6-0.7-2.9-1.3-3.9-1.6C69.8,82.3,69.5,83.7,69,85.1z M81.9,61.3
		c-0.6-3.2-1.3-6.4-2.2-9.6c-1.3-0.9-3.1-1.7-5.6-2.3c-1.2-0.3-2.3-0.4-3.4-0.4c0.5,3.5,0.9,6.6,1.1,9.3c2,0,4,0.3,5.9,1
		C79.3,59.9,80.7,60.5,81.9,61.3z M70.8,77.8c1.5,0.3,3.1,0.9,4.8,1.7c1.6,0.9,2.9,1.9,4,2.9c0.5-0.1,1.1-0.3,1.6-0.5
		c0.5-0.2,1.1-0.3,1.7-0.5c0-0.4,0-0.8,0-1.2c0-0.4,0-0.8,0-1.3c-0.7-1.4-2.6-2.8-5.8-4.2c-2.1-0.9-3.9-1.4-5.6-1.5
		C71.3,75.2,71,76.7,70.8,77.8z M71.8,70.1c2.3,0,4.5,0.5,6.8,1.4c1.7,0.7,3.2,1.7,4.5,2.9c-0.1-2.7-0.2-5.6-0.5-8.5
		c-1.1-1.2-3-2.3-5.9-3.3c-1.9-0.5-3.4-0.8-4.7-0.9C72.1,64.9,72,67.7,71.8,70.1z"/>

</svg>
