<?xml version="1.0" encoding="utf-8"?>
<!-- Generator: Adobe Illustrator 19.0.0, SVG Export Plug-In . SVG Version: 6.00 Build 0)  -->
<svg version="1.1" id="P" xmlns="http://www.w3.org/2000/svg" xmlns:xlink="http://www.w3.org/1999/xlink" x="0px" y="0px"
	 viewBox="0 0 100 100" enable-background="new 0 0 100 100" xml:space="preserve">

	<path id="XMLID_9_" fill="#FFFFFF" d="M83.9,71.1c1.1-0.1,1.8,0.1,2,0.6c0.2,0.4,0.2,0.9-0.1,1.5l-7.6,16.2H21.7l-7.6-16.2
		c-0.3-0.6-0.4-1.1-0.2-1.5c0.3-0.5,0.9-0.7,2-0.6h10.9c9.1-9.2,14.5-20.3,16-33.2c-2.8-1.3-5.1-3.4-6.9-6.1
		c-1.8-2.7-2.7-5.8-2.7-9.1c0-4.5,1.6-8.5,4.9-11.8c3.3-3.3,7.2-5,11.8-5c4.6,0,8.5,1.7,11.8,5s5,7.2,5,11.8c0,3.4-0.9,6.5-2.7,9.1
		c-1.8,2.7-4.1,4.7-7,6.1c0.7,6.5,2.5,12.5,5.3,18.1c2.8,5.6,6.4,10.6,10.7,15H83.9z"/>

	<path id="XMLID_4_" d="M83.9,71.1c1.1-0.1,1.8,0.1,2,0.6c0.2,0.4,0.2,0.9-0.1,1.5l-7.6,16.2H21.7l-7.6-16.2
		c-0.3-0.6-0.4-1.1-0.2-1.5c0.3-0.5,0.9-0.7,2-0.6h10.9c9.1-9.2,14.5-20.3,16-33.2c-2.8-1.3-5.1-3.4-6.9-6.1
		c-1.8-2.7-2.7-5.8-2.7-9.1c0-4.5,1.6-8.5,4.9-11.8c3.3-3.3,7.2-5,11.8-5c4.6,0,8.5,1.7,11.8,5s5,7.2,5,11.8c0,3.4-0.9,6.5-2.7,9.1
		c-1.8,2.7-4.1,4.7-7,6.1c0.7,6.5,2.5,12.5,5.3,18.1c2.8,5.6,6.4,10.6,10.7,15H83.9z M81.5,74.4H18.3l5.5,11.7h52.3L81.5,74.4z
		 M31.4,71.1h37.1c-8.3-9.2-13.2-19.9-14.7-32c-1.2,0.3-2.5,0.4-3.9,0.4c-1.3,0-2.6-0.1-3.9-0.4C44.4,51.3,39.5,61.9,31.4,71.1z
		 M49.9,36c3.6,0,6.7-1.3,9.3-3.8c2.6-2.6,4-5.7,4-9.5c0-3.6-1.3-6.7-4-9.3c-2.6-2.6-5.8-3.9-9.3-3.9c-3.7,0-6.8,1.3-9.4,3.9
		c-2.6,2.6-3.9,5.7-3.9,9.3c0,3.7,1.3,6.9,3.9,9.5C43.1,34.8,46.2,36,49.9,36z"/>

</svg>
