<?xml version="1.0" encoding="utf-8"?>
<!-- Generator: Adobe Illustrator 19.0.0, SVG Export Plug-In . SVG Version: 6.00 Build 0)  -->
<svg version="1.1" id="k" xmlns="http://www.w3.org/2000/svg" xmlns:xlink="http://www.w3.org/1999/xlink" x="0px" y="0px"
	 viewBox="0 0 100 100" enable-background="new 0 0 100 100" xml:space="preserve">

	<path id="XMLID_9_" fill="#FFFFFF" d="M92,7.8L75.1,71.1l11.4,18.3H13.3l11.4-18.3L7.8,7.7c-0.5-1.9-0.5-3,0.1-3.4
		C8.5,4.1,9.6,4.6,11.3,6l32,32.1V22.7H35V11.1h8.3V6h13.2v5.1h8.4v11.6h-8.4v15.4L88.6,6c1.6-1.5,2.7-2,3.4-1.7
		C92.5,4.8,92.5,6,92,7.8z"/>

	<path id="XMLID_4_" d="M49.9,89.4H13.3l11.4-18.3L7.8,7.7c-0.5-1.9-0.5-3,0.1-3.4C8.5,4.1,9.6,4.6,11.3,6l32,32.1V22.7H35V11.1h8.3
		V6h6.6v52.8c-8.7,0-16.6,2.7-23.5,8.1l1,3.7c6.4-5.5,13.9-8.3,22.5-8.3v12.1c-3.9,0-7.8,0-11.7,0c-3.9,0-7.8,0-11.7,0
		c-0.4,0.5-0.8,1.1-1.1,1.7c-0.3,0.6-0.7,1.1-1,1.6c4.3,0,8.5,0,12.8,0c4.2,0,8.5,0,12.8,0V89.4z M32,58c3.5-1.6,7.5-2.8,11.8-3.6
		L26.5,37.2L32,58z M49.9,6h6.6v5.1h8.4v11.6h-8.4v15.4L88.6,6c1.6-1.5,2.7-2,3.4-1.7c0.5,0.5,0.5,1.6,0,3.5L75.1,71.1l11.4,18.3
		H49.9V77.7c4.3,0,8.5,0,12.8,0c4.2,0,8.5,0,12.8,0c-0.4-0.5-0.8-1.1-1.1-1.6c-0.3-0.6-0.6-1.1-0.9-1.7c-3.9,0-7.9,0-11.8,0
		c-3.9,0-7.8,0-11.8,0V62.3c8.5,0,16,2.8,22.5,8.3l1-3.7c-6.9-5.4-14.8-8.1-23.5-8.1V6z M67.9,58l5.5-20.8L56.2,54.4
		C60.3,55.2,64.2,56.4,67.9,58z"/>

</svg>
