<?xml version="1.0" encoding="utf-8"?>
<!-- Generator: Adobe Illustrator 19.0.0, SVG Export Plug-In . SVG Version: 6.00 Build 0)  -->
<svg version="1.1" id="q" xmlns="http://www.w3.org/2000/svg" xmlns:xlink="http://www.w3.org/1999/xlink" x="0px" y="0px"
	 viewBox="0 0 100 100" enable-background="new 0 0 100 100" xml:space="preserve">

	<path id="XMLID_8_" fill="#FFFFFF" d="M10.7,25.9c-0.6-5.1-0.3-7.9,0.8-8.3c1.3-0.3,3.3,2.5,6.2,8.4l16.5,35.3l12.9-47.8
		c0.8-2.7,1.7-4.1,2.8-4.1c1.1,0,2,1.4,2.9,4.1l12.9,47.9l16.5-35.5c2.9-5.9,5-8.7,6.3-8.3c1.1,0.3,1.3,3.1,0.7,8.4l-7.1,57.5
		c-10.4,3.9-21.1,5.9-32.2,5.9c-11.2,0-21.9-2-32.1-5.9L10.7,25.9z"/>

	<path id="XMLID_4_" d="M10.7,25.9c-0.6-5.1-0.3-7.9,0.8-8.3c1.3-0.3,3.3,2.5,6.2,8.4l16.5,35.3l12.9-47.8c0.8-2.7,1.7-4.1,2.8-4.1
		c1.1,0,2,1.4,2.9,4.1l12.9,47.9l16.5-35.5c2.9-5.9,5-8.7,6.3-8.3c1.1,0.3,1.3,3.1,0.7,8.4l-7.1,57.5c-10.4,3.9-21.1,5.9-32.2,5.9
		c-11.2,0-21.9-2-32.1-5.9L10.7,25.9z M81.4,62.9l0.5-4.2c-10.1,5.6-20.7,8.4-32,8.4c-11.2,0-21.8-2.8-31.9-8.3l0.4,4.1
		c10,5.1,20.5,7.7,31.5,7.7C61,70.6,71.5,68.1,81.4,62.9z M79.5,76.2C70,80,60.2,81.8,49.9,81.8c-10.2,0-20.1-1.9-29.6-5.6l0.5,3.9
		c9.5,3.5,19.2,5.2,29.1,5.2c9.9,0,19.6-1.7,29.1-5.2L79.5,76.2z"/>

</svg>
