<?xml version="1.0" encoding="utf-8"?>
<!-- Generator: Adobe Illustrator 19.0.0, SVG Export Plug-In . SVG Version: 6.00 Build 0)  -->
<svg version="1.1" id="r" xmlns="http://www.w3.org/2000/svg" xmlns:xlink="http://www.w3.org/1999/xlink" x="0px" y="0px"
	 viewBox="0 0 100 100" enable-background="new 0 0 100 100" xml:space="preserve">

	<path id="XMLID_8_" fill="#FFFFFF" d="M19.9,72.7L33.2,36H22.5L10,9.4h16.6l4.6,9.9h11.3V9.4h15v9.9h11.2l4.7-9.9H90L77.5,36H66.8
		l13.3,36.7h6c0.9,0,1.4,0.2,1.6,0.6c0.1,0.3,0,0.7-0.3,1.1l-6.9,15H50H19.4l-7-15c-0.3-0.3-0.3-0.7-0.2-1.2
		c0.2-0.3,0.8-0.5,1.7-0.5H19.9z"/>

	<path id="XMLID_4_" d="M19.9,72.7L33.2,36H22.5L10,9.4h16.6l4.6,9.9h11.3V9.4h15v9.9h11.2l4.7-9.9H90L77.5,36H66.8l13.3,36.7h6
		c0.9,0,1.4,0.2,1.6,0.6c0.1,0.3,0,0.7-0.3,1.1l-6.9,15H50H19.4l-7-15c-0.3-0.3-0.3-0.7-0.2-1.2c0.2-0.3,0.8-0.5,1.7-0.5H19.9z
		 M50,32.7H36.7V36h11.6v10H33.1l-1.2,3.4h3.9v10h-7.6L27,62.7h21.3v10h-25V76h53.4v-3.3h-25v-10H73l-1.2-3.3h-7.6v-10h3.9L66.9,46
		H51.7V36h11.6v-3.3H50z M39.2,49.4h21.6v10H39.2V49.4z"/>

</svg>
