<?xml version="1.0" encoding="utf-8"?>
<!-- Generator: Adobe Illustrator 19.0.0, SVG Export Plug-In . SVG Version: 6.00 Build 0)  -->
<svg version="1.1" id="K" xmlns="http://www.w3.org/2000/svg" xmlns:xlink="http://www.w3.org/1999/xlink" x="0px" y="0px"
	 viewBox="0 0 100 100" enable-background="new 0 0 100 100" xml:space="preserve">

	<path id="XMLID_20_" fill="#FFFFFF" d="M50,89.4c-7.6,0-14.3-0.5-20-1.5c-5.7-1-9.3-2.2-10.8-3.8l1.4-12.5c0.4-2.5,0.4-4.5,0.1-6
		c-0.1-0.5-0.5-1.9-1-4.1c-0.6-2.2-1.6-4.1-3-5.5c-1.4-1.3-2.5-2.3-3.4-3c-0.8-0.7-1.6-1.5-2.1-2.4c-2-2.7-3.1-6-3.4-9.9
		c-0.3-4.3,1-8.2,4-11.5c1.7-1.8,3.8-3.2,6.4-4.1c2.6-1,5.2-1.5,8-1.7c1.6-0.1,2.9-0.2,3.9-0.1c1,0.1,2.3,0.2,3.9,0.4
		c2.1,0.3,4.3,0.7,6.4,1.4c1.7-1.9,5-2.8,9.7-2.8c4.7,0,7.9,0.9,9.6,2.8c2.2-0.7,4.3-1.1,6.4-1.4c1.6-0.2,2.9-0.3,3.9-0.4
		c1-0.1,2.3,0,4,0.1c2.7,0.1,5.3,0.7,7.8,1.7c2.6,1,4.7,2.3,6.3,4.1c3,3.3,4.3,7.2,4,11.5c-0.3,3.9-1.4,7.2-3.3,9.9
		c-0.7,0.9-1.4,1.7-2.3,2.4c-0.8,0.7-1.9,1.7-3.3,3c-1.5,1.4-2.6,3.2-3.1,5.5c-0.6,2.2-0.9,3.6-1.1,4.1c-0.3,1.7-0.3,3.7,0.1,6
		l1.5,12.5c-1.5,1.5-5.2,2.8-10.9,3.8C64.2,89,57.5,89.4,50,89.4z M50,6.2h1.6v5.7h4.2v3.3h-4.2v7.1h-3.3v-7.1h-4.1v-3.3h4.1V6.2H50
		z"/>

	<path id="XMLID_4_" d="M50,89.4c-7.6,0-14.3-0.5-20-1.5c-5.7-1-9.3-2.2-10.8-3.8l1.4-12.5c0.4-2.5,0.4-4.5,0.1-6
		c-0.1-0.5-0.5-1.9-1-4.1c-0.6-2.2-1.6-4.1-3-5.5c-1.4-1.3-2.5-2.3-3.4-3c-0.8-0.7-1.6-1.5-2.1-2.4c-2-2.7-3.1-6-3.4-9.9
		c-0.3-4.3,1-8.2,4-11.5c1.7-1.8,3.8-3.2,6.4-4.1c2.6-1,5.2-1.5,8-1.7c1.6-0.1,2.9-0.2,3.9-0.1c1,0.1,2.3,0.2,3.9,0.4
		c2.1,0.3,4.3,0.7,6.4,1.4c1.7-1.9,5-2.8,9.7-2.8c4.7,0,7.9,0.9,9.6,2.8c2.2-0.7,4.3-1.1,6.4-1.4c1.6-0.2,2.9-0.3,3.9-0.4
		c1-0.1,2.3,0,4,0.1c2.7,0.1,5.3,0.7,7.8,1.7c2.6,1,4.7,2.3,6.3,4.1c3,3.3,4.3,7.2,4,11.5c-0.3,3.9-1.4,7.2-3.3,9.9
		c-0.7,0.9-1.4,1.7-2.3,2.4c-0.8,0.7-1.9,1.7-3.3,3c-1.5,1.4-2.6,3.2-3.1,5.5c-0.6,2.2-0.9,3.6-1.1,4.1c-0.3,1.7-0.3,3.7,0.1,6
		l1.5,12.5c-1.5,1.5-5.2,2.8-10.9,3.8C64.2,89,57.5,89.4,50,89.4z M26,26.5c-0.1,0-0.2,0-0.3,0c-0.1,0-0.1,0-0.2,0
		c-2.5,0.2-4.8,0.9-6.9,2c-2,1.1-3.6,2.4-4.8,4c-1.7,2.3-2.6,4.7-2.6,7.3c0,3.4,0.9,6.3,2.6,8.7c0.8,1.1,1.6,2,2.3,2.8
		c-0.7-1.7-1.1-3.5-1.3-5.2c-0.2-1.8-0.2-3.4,0-5C15.7,34.6,19.4,29.8,26,26.5z M32.2,26.6c-0.6,0-1,0-1.2-0.1
		c-7.9,3.9-12.1,8.9-12.8,14.8c-0.3,1.8-0.2,3.8,0.2,6.1c0.4,2.3,1.3,4.2,2.6,5.7c1.1,1.3,1.6,2.7,1.6,4.3c0,0.1,0,0.3,0,0.4
		c0,0.1,0,0.2,0,0.3c-0.3,0.7-0.5,1.4-0.4,2.2c0.3,2,1.3,3.4,2.8,4.2c0.5-0.1,1.3-0.2,2.3-0.4c0.7-0.4,1-1,1-1.9
		c0-0.9,0-1.7-0.1-2.6c-0.1-0.9-0.3-1.7-0.8-2.2c-3-4.7-4.4-9.7-4.3-14.8c0.1-2.8,0.8-5.6,1.9-8.3C26.2,31.6,28.6,29,32.2,26.6z
		 M50,74.9c5.5,0,10.6,0.3,15.3,1c4.7,0.7,8.5,1.7,11.5,3.1l-0.3-3.2l-2,0.5l-5.7-4.2l7.2-1.9l-0.2-1.9c-3.1-1.1-7-1.9-11.5-2.6
		c-4.6-0.6-9.3-0.9-14.3-0.9c-5,0-9.8,0.3-14.3,0.9c-4.6,0.6-8.4,1.5-11.6,2.6L24,70.2l7.1,1.9l-5.7,4.2l-1.9-0.5L23.2,79
		c2.9-1.4,6.7-2.4,11.4-3.1C39.3,75.3,44.4,74.9,50,74.9z M76.6,82.5c-6.3-2.5-15.1-3.8-26.4-3.8c-11.8,0-20.7,1.3-26.8,3.9
		C29.1,84.9,38,86,50,86c5.7,0,11-0.3,15.7-0.9C70.4,84.5,74.1,83.6,76.6,82.5z M39.7,28.2c-0.6-0.3-1.7-0.6-3.2-0.9
		c-3.1,1.4-5.4,3.5-7,6.4c-1.6,2.9-2.5,5.9-2.7,9c-0.1,4.3,1.1,8.8,3.8,13.3c0.7,1.3,1,2.5,1,3.6c0,1.6-0.3,2.8-0.8,3.7
		c0.7-0.1,1.5-0.2,2.2-0.3c0.7-0.1,1.5-0.2,2.3-0.3c-0.5-0.9-0.7-1.8-0.8-2.9c0-1.2,0.3-2.4,0.9-3.7c0.3-0.7,0.4-1.3,0.4-1.8
		c-0.1-0.5-0.3-1.1-0.6-1.7c-1.1-2.4-1.9-4.9-2.4-7.5s-0.4-5.1,0.2-7.4C33.9,34.4,36.1,31.2,39.7,28.2z M43.6,30.8
		c-0.7-0.2-1.2-0.4-1.6-0.7c-3.2,2.5-5,5.4-5.5,8.8c-0.6,4.3,0.1,8.7,2,13c0.3,0.8,0.5,1.6,0.5,2.3c0.1,1.1-0.1,2.2-0.6,3.4
		c-0.3,0.7-0.5,1.4-0.5,2.1c0,0.7,0.2,1.3,0.6,2c0.1,0.3,0.2,0.5,0.3,0.6c1.6-0.1,3.4-0.3,5.5-0.4c0.4-0.7,0.6-1.5,0.6-2.3
		c-0.1-0.5-0.2-1-0.5-1.5c-0.9-1.1-1.4-2.4-1.5-3.7c-0.3-1.9-0.5-4.1-0.6-6.4C42,42.4,42.4,36.6,43.6,30.8z M50,24.8
		c-1.9,0-3.5,0.2-4.8,0.6c-1.3,0.4-2,0.9-2,1.5c0,0.6,0.7,1.1,2,1.5c1.3,0.4,2.9,0.6,4.8,0.6c1.9,0,3.5-0.2,4.8-0.6
		c1.3-0.4,2-0.9,2-1.5c0-0.5-0.7-1-2-1.5C53.5,25.1,51.9,24.8,50,24.8z M56.5,70.2l-6.4,3.1l-6.6-3.1l6.4-3.2L56.5,70.2z M50,6.2
		h1.6v5.7h4.2v3.3h-4.2v7.1h-3.3v-7.1h-4.1v-3.3h4.1V6.2H50z M50,61.7c0.5,0,1.2,0,2,0.1c-0.3-0.7-0.4-1.4-0.3-2.3
		c0.1-1.1,0.4-2.2,1.1-3.3c0.5-0.5,0.8-1.2,0.9-2c0.3-1.9,0.5-4,0.6-6.3c0.3-5.5-0.1-11-1.2-16.5c-1.1,0.2-2.2,0.3-3.1,0.3
		c-1.1,0-2.1-0.1-3.2-0.3c-1.1,5.5-1.5,11-1.2,16.5c0.1,2,0.3,4.1,0.7,6.3c0.1,0.8,0.3,1.5,0.8,2c0.7,1.1,1,2.2,1.1,3.3
		c0.1,0.8,0,1.6-0.3,2.3C48.8,61.8,49.5,61.7,50,61.7z M56.3,30.8c1.2,5.6,1.6,11.3,1.3,17.2c-0.1,2.1-0.3,4.2-0.6,6.4
		c-0.1,1.3-0.6,2.6-1.5,3.7c-0.3,0.5-0.4,1-0.4,1.5c-0.1,0.9,0.1,1.6,0.5,2.3c2.1,0.1,4,0.3,5.5,0.4l0.4-0.6c0.3-0.8,0.5-1.5,0.6-2
		c0-0.7-0.2-1.4-0.6-2.1c-0.4-1.1-0.6-2.3-0.6-3.4c0-0.7,0.2-1.5,0.6-2.3c1.9-4.3,2.5-8.7,1.9-13c-0.5-3.4-2.3-6.3-5.4-8.8
		C57.5,30.4,57,30.6,56.3,30.8z M60.3,28.2c3.5,3.1,5.7,6.2,6.6,9.5c0.5,2.3,0.6,4.8,0.1,7.4c-0.4,2.6-1.2,5.1-2.3,7.5
		c-0.4,0.6-0.6,1.2-0.6,1.7c-0.1,0.6,0,1.2,0.3,1.8c0.6,1.3,0.9,2.6,0.9,3.7c0,0.9-0.3,1.9-0.8,2.9c0.8,0.1,1.6,0.2,2.3,0.3
		c0.7,0.1,1.5,0.2,2.2,0.3c-0.5-0.9-0.7-2.1-0.7-3.7c0-1.1,0.3-2.3,0.9-3.6c2.7-4.6,3.9-9,3.8-13.3c-0.1-3.1-1-6-2.6-9
		c-1.6-2.9-4-5-7-6.4C62,27.7,60.9,28,60.3,28.2z M67.7,26.6c3.6,2.4,6,5,7.1,7.7c1.2,2.7,1.8,5.5,2,8.3c0.1,5.1-1.3,10-4.2,14.8
		c-0.5,0.6-0.8,1.3-0.9,2.2c-0.3,2.4,0,3.9,0.9,4.5c1.1,0.2,1.9,0.3,2.4,0.4c1.5-0.8,2.4-2.2,2.7-4.2c0.1-0.8,0-1.5-0.4-2.2
		c0-0.1,0-0.2,0-0.3c0-0.1,0-0.3,0-0.4c0-1.7,0.6-3.1,1.7-4.3c1.3-1.5,2.1-3.4,2.5-5.7c0.4-2.3,0.5-4.3,0.3-6.1
		c-0.7-5.9-5-10.9-12.8-14.8C68.7,26.6,68.3,26.6,67.7,26.6z M74,26.5c6.5,3.3,10.2,8.1,10.9,14.5c0.5,3.5,0.1,6.9-1.1,10.2
		c0.7-0.8,1.4-1.7,2.2-2.8c1.8-2.4,2.7-5.3,2.7-8.7c0-2.6-0.9-5-2.7-7.3c-1.1-1.5-2.7-2.9-4.8-4c-2-1.1-4.3-1.8-6.8-2
		c-0.1,0-0.1,0-0.2,0C74.1,26.5,74.1,26.5,74,26.5z"/>

</svg>
