<?xml version="1.0" encoding="utf-8"?>
<!-- Generator: Adobe Illustrator 19.0.0, SVG Export Plug-In . SVG Version: 6.00 Build 0)  -->
<svg version="1.1" id="b" xmlns="http://www.w3.org/2000/svg" xmlns:xlink="http://www.w3.org/1999/xlink" x="0px" y="0px"
	 viewBox="0 0 100 100" enable-background="new 0 0 100 100" xml:space="preserve">

	<path id="XMLID_14_" fill="#FFFFFF" d="M50,75.6c5,4.8,10.9,7.2,17.8,7.2c3.4,0,6.9-1.1,10.5-3.2c3.6-2.1,6.7-4.1,9.2-6
		c0.3,0.6,0.1,1.5-0.4,2.8c-0.5,1.3-1,2.4-1.4,3.4c0.4,0.1,0.8,0.2,1.2,0.4c1.8,0.9,3.2,2,4.1,3.3c1,1.3,1.2,2.5,0.8,3.5
		c-0.3,0.5-0.7,0.9-1.2,1.2c0.1-0.3,0.1-0.6,0.1-0.8c0-2.1-1-3.1-3.1-3.1c-0.6,0-1.1,0.2-1.5,0.5c-5.7,3.1-11.8,4.6-18.3,4.6
		c-3.1,0-6.2-0.5-9.2-1.7c-3-1.1-5.9-2.4-8.6-3.9c-2.7,1.5-5.6,2.8-8.7,3.9c-3,1.1-6.1,1.7-9.3,1.7c-6.5,0-12.6-1.5-18.2-4.6
		c-0.5-0.3-1-0.5-1.6-0.5c-2,0-3,1-3,3.1c0,0.1,0,0.3,0,0.4c0,0.1,0,0.3,0,0.4c-0.6-0.3-1-0.7-1.2-1.2c-0.5-1-0.2-2.2,0.7-3.5
		c0.9-1.3,2.3-2.4,4.2-3.3c0.3-0.1,0.7-0.3,1.2-0.4c-0.4-0.9-0.9-2.1-1.4-3.4c-0.5-1.3-0.6-2.3-0.3-2.8c2.5,1.9,5.5,3.9,9.1,6
		c3.6,2.1,7.1,3.2,10.5,3.2c3.2,0,6.4-0.6,9.7-1.9C45,79.7,47.7,77.9,50,75.6z M63.3,59.6L61.7,72c0,1-1.2,1.8-3.5,2.5
		c-2.3,0.7-5.1,1-8.3,1c-3.3,0-6-0.3-8.3-1c-2.3-0.7-3.4-1.5-3.4-2.5l-1.5-12.4c-2.3-3.5-4-7.1-4.9-10.7c-0.9-3.6-1.4-7.1-1.4-10.4
		c0-10,5.4-17.7,16.2-23c0-0.5,0.1-1.1,0.2-1.9c-1.1-0.9-1.7-2-1.7-3.5c0-3,1.5-4.5,4.5-4.5s4.5,1.5,4.5,4.5c0,1.3-0.5,2.4-1.4,3.3
		c0,1,0.1,1.7,0.4,2.1c0.5,0.7,1.3,1.1,2.2,1.2c1-0.1,1.8-0.5,2.3-1.3c0.1-0.2,0.3-0.8,0.4-1.8c-0.8-0.9-1.2-2-1.2-3.3
		c0-3,1.5-4.5,4.6-4.5c3,0,4.5,1.5,4.5,4.5c0,1.8-0.7,3.1-2.2,4c-0.1,0.7-0.2,1.2-0.1,1.6c5.5,6.5,7.9,14,7.2,22.6
		c-0.3,2.4-0.6,4.7-1,7c-0.4,2.2-1.2,4.5-2.5,6.9c-0.6,1.2-1.2,2.4-1.9,3.7C64.7,57.3,64,58.5,63.3,59.6z"/>

	<path id="XMLID_4_" d="M50,75.6c5,4.8,10.9,7.2,17.8,7.2c3.4,0,6.9-1.1,10.5-3.2c3.6-2.1,6.7-4.1,9.2-6c0.3,0.6,0.1,1.5-0.4,2.8
		c-0.5,1.3-1,2.4-1.4,3.4c0.4,0.1,0.8,0.2,1.2,0.4c1.8,0.9,3.2,2,4.1,3.3c1,1.3,1.2,2.5,0.8,3.5c-0.3,0.5-0.7,0.9-1.2,1.2
		c0.1-0.3,0.1-0.6,0.1-0.8c0-2.1-1-3.1-3.1-3.1c-0.6,0-1.1,0.2-1.5,0.5c-5.7,3.1-11.8,4.6-18.3,4.6c-3.1,0-6.2-0.5-9.2-1.7
		c-3-1.1-5.9-2.4-8.6-3.9c-2.7,1.5-5.6,2.8-8.7,3.9c-3,1.1-6.1,1.7-9.3,1.7c-6.5,0-12.6-1.5-18.2-4.6c-0.5-0.3-1-0.5-1.6-0.5
		c-2,0-3,1-3,3.1c0,0.1,0,0.3,0,0.4c0,0.1,0,0.3,0,0.4c-0.6-0.3-1-0.7-1.2-1.2c-0.5-1-0.2-2.2,0.7-3.5c0.9-1.3,2.3-2.4,4.2-3.3
		c0.3-0.1,0.7-0.3,1.2-0.4c-0.4-0.9-0.9-2.1-1.4-3.4c-0.5-1.3-0.6-2.3-0.3-2.8c2.5,1.9,5.5,3.9,9.1,6c3.6,2.1,7.1,3.2,10.5,3.2
		c3.2,0,6.4-0.6,9.7-1.9C45,79.7,47.7,77.9,50,75.6z M63.3,59.6L61.7,72c0,1-1.2,1.8-3.5,2.5c-2.3,0.7-5.1,1-8.3,1
		c-3.3,0-6-0.3-8.3-1c-2.3-0.7-3.4-1.5-3.4-2.5l-1.5-12.4c-2.3-3.5-4-7.1-4.9-10.7c-0.9-3.6-1.4-7.1-1.4-10.4c0-10,5.4-17.7,16.2-23
		c0-0.5,0.1-1.1,0.2-1.9c-1.1-0.9-1.7-2-1.7-3.5c0-3,1.5-4.5,4.5-4.5s4.5,1.5,4.5,4.5c0,1.3-0.5,2.4-1.4,3.3c0,1,0.1,1.7,0.4,2.1
		c0.5,0.7,1.3,1.1,2.2,1.2c1-0.1,1.8-0.5,2.3-1.3c0.1-0.2,0.3-0.8,0.4-1.8c-0.8-0.9-1.2-2-1.2-3.3c0-3,1.5-4.5,4.6-4.5
		c3,0,4.5,1.5,4.5,4.5c0,1.8-0.7,3.1-2.2,4c-0.1,0.7-0.2,1.2-0.1,1.6c5.5,6.5,7.9,14,7.2,22.6c-0.3,2.4-0.6,4.7-1,7
		c-0.4,2.2-1.2,4.5-2.5,6.9c-0.6,1.2-1.2,2.4-1.9,3.7C64.7,57.3,64,58.5,63.3,59.6z M61.3,56.1c-3.4-0.7-7.1-1.1-11.2-1.1
		c-4.2,0-8,0.4-11.3,1.2l0.3,2.9c3.4-0.7,7.1-1.1,11-1.1c4.1,0,7.8,0.4,10.9,1.1L61.3,56.1z M40.4,71.8c0.2-0.7,1.2-1.2,3.1-1.7
		c1.9-0.5,4.1-0.7,6.6-0.7c2.5,0,4.7,0.2,6.6,0.7c1.9,0.5,2.9,1,3.1,1.7l0.2-3.1c-2.7-1.3-6-2-10-2c-2.1,0-4,0.2-5.7,0.6
		c-1.7,0.4-3.1,0.8-4.2,1.3L40.4,71.8z M50,26.1h-2.6v8.3h-5.8v5h5.8v12.9h5.1V39.4h5.8v-5h-5.8v-8.3H50z M55.5,62.3l-5.4-2.2
		l-5.4,2.2l5.4,2.2L55.5,62.3z M49.6,8.1c-1.3,0-2,0.7-2,2c0,1.3,0.7,2,2,2c1.3,0,2-0.7,2-2C51.6,8.8,50.9,8.1,49.6,8.1z M68.1,41.1
		c0.9-2.1,0.8-5.7-0.2-10.9c-1-5.2-3.3-9.1-6.8-11.5c-0.7-0.6-1.3-0.9-1.6-0.9c-0.7,0-1.3,0.3-1.8,1c-0.6,0.7-0.6,1.4-0.2,2.2
		c4.1,2.9,6.9,6.5,8.5,10.8C67.7,36.1,68.4,39.2,68.1,41.1z M61.4,8.2c-1.4,0-2.1,0.7-2.1,2.1s0.7,2.1,2.1,2.1
		c1.4,0,2.1-0.7,2.1-2.1S62.8,8.2,61.4,8.2z"/>

</svg>
