<?xml version="1.0" encoding="utf-8"?>
<!-- Generator: Adobe Illustrator 19.0.0, SVG Export Plug-In . SVG Version: 6.00 Build 0)  -->
<svg version="1.1" id="n" xmlns="http://www.w3.org/2000/svg" xmlns:xlink="http://www.w3.org/1999/xlink" x="0px" y="0px"
	 viewBox="0 0 100 100" enable-background="new 0 0 100 100" xml:space="preserve">

	<path id="XMLID_13_" fill="#FFFFFF" d="M84,89.4H30c0.3-9.9,2.2-16.9,5.6-21.2c1.7-2.1,3.4-4.2,5.2-6.3c1.8-2.2,3.5-4.8,5-8
		c-1.3,0.2-2.3,0.2-3.1,0c-0.5,0-1.2-0.2-2.2-0.5c-1.5,0.5-2.6,1.2-3.3,2c-0.8,0.9-1.4,1.8-1.9,2.7c-2.3,3.9-4.1,6.8-5.3,8.6
		s-2.5,2.4-4,1.9c-1.3-0.4-2.3-0.6-3-0.5c-0.6,0-1.3-0.2-1.8-0.6c-0.5-0.3-0.5-1-0.1-2c0.3-1,1.3-1.8,2.9-2.4
		c1.4-0.5,2.2-1.3,2.3-2.5c0.1-1.3-0.6-1.6-2.2-0.9c-0.7,0.3-1.7,1.4-3,3.2c-0.8,1.1-1.5,1.8-2.2,2.2c-1.5,0.7-2.7,0.3-3.8-1.4
		c-0.7-1-1.2-1.9-1.5-2.7c-0.3-0.8-0.5-1.9-0.6-3.2c-0.1-1.7,0.2-3.1,1-4.3c0.8-1.2,1.6-2.1,2.3-2.6c0.7-0.5,1.3-1,1.9-1.4
		c0.6-0.4,1.1-0.8,1.5-1.2c1-1.1,2.2-2.7,3.7-4.7c1.2-2,2-3.7,2.5-5.1c0.4-1.4,0.9-3,1.2-4.9c0.3-2.2,0.8-4.2,1.3-6
		c0.5-1.8,1.7-3.9,3.5-6.3c-0.1-0.7-0.3-1.7-0.4-2.8c-0.1-1-0.1-1.7-0.1-2.1c0-0.4,0-1.2,0-2.3c0-2.3,0.6-3.5,1.8-3.5
		c0.7,0,1.2,0.3,1.5,1c0.3,0.6,1.1,1.7,2.5,3.3c1.2,1.5,2.3,2.7,3.3,3.5c0.3-1.8,0.9-3.8,2-6c1.1-2.2,1.9-3.3,2.5-3.3
		c0.3,0,0.7,0.5,1.3,1.4c0.6,0.9,1.1,1.8,1.5,2.7c0.5,1,0.9,1.9,1.2,2.6c0.3,0.7,0.8,1.5,1.4,2.5l8.9-0.5l0.8,2.9l6.5,0.3l0.3,3.9
		l6.5,1.5l-1.4,4.4l7.6,4.2l-4,2.3l6.6,5.3l-3.3,1.9l5.9,6.2l-4,1.9l6.1,6.4l-5.2,0.2l5.1,7.3l-4.4,0.9l5,8.4l-4.8-0.3l3.7,6.8
		l-3.7,1.9l3.8,3.5L84,89.4z"/>

	<path id="XMLID_4_" d="M84,89.4H30c0.3-9.9,2.2-16.9,5.6-21.2c1.7-2.1,3.4-4.2,5.2-6.3c1.8-2.2,3.5-4.8,5-8c-1.3,0.2-2.3,0.2-3.1,0
		c-0.5,0-1.2-0.2-2.2-0.5c-1.5,0.5-2.6,1.2-3.3,2c-0.8,0.9-1.4,1.8-1.9,2.7c-2.3,3.9-4.1,6.8-5.3,8.6s-2.5,2.4-4,1.9
		c-1.3-0.4-2.3-0.6-3-0.5c-0.6,0-1.3-0.2-1.8-0.6c-0.5-0.3-0.5-1-0.1-2c0.3-1,1.3-1.8,2.9-2.4c1.4-0.5,2.2-1.3,2.3-2.5
		c0.1-1.3-0.6-1.6-2.2-0.9c-0.7,0.3-1.7,1.4-3,3.2c-0.8,1.1-1.5,1.8-2.2,2.2c-1.5,0.7-2.7,0.3-3.8-1.4c-0.7-1-1.2-1.9-1.5-2.7
		c-0.3-0.8-0.5-1.9-0.6-3.2c-0.1-1.7,0.2-3.1,1-4.3c0.8-1.2,1.6-2.1,2.3-2.6c0.7-0.5,1.3-1,1.9-1.4c0.6-0.4,1.1-0.8,1.5-1.2
		c1-1.1,2.2-2.7,3.7-4.7c1.2-2,2-3.7,2.5-5.1c0.4-1.4,0.9-3,1.2-4.9c0.3-2.2,0.8-4.2,1.3-6c0.5-1.8,1.7-3.9,3.5-6.3
		c-0.1-0.7-0.3-1.7-0.4-2.8c-0.1-1-0.1-1.7-0.1-2.1c0-0.4,0-1.2,0-2.3c0-2.3,0.6-3.5,1.8-3.5c0.7,0,1.2,0.3,1.5,1
		c0.3,0.6,1.1,1.7,2.5,3.3c1.2,1.5,2.3,2.7,3.3,3.5c0.3-1.8,0.9-3.8,2-6c1.1-2.2,1.9-3.3,2.5-3.3c0.3,0,0.7,0.5,1.3,1.4
		c0.6,0.9,1.1,1.8,1.5,2.7c0.5,1,0.9,1.9,1.2,2.6c0.3,0.7,0.8,1.5,1.4,2.5l8.9-0.5l0.8,2.9l6.5,0.3l0.3,3.9l6.5,1.5l-1.4,4.4
		l7.6,4.2l-4,2.3l6.6,5.3l-3.3,1.9l5.9,6.2l-4,1.9l6.1,6.4l-5.2,0.2l5.1,7.3l-4.4,0.9l5,8.4l-4.8-0.3l3.7,6.8l-3.7,1.9l3.8,3.5
		L84,89.4z M22.6,55.4c0.5-0.6,0.5-1.3,0.1-2c-1.9,0.1-3.4,0.7-4.4,1.8c-0.7,0.8-0.8,1.8-0.5,2.9c0.1,0.8,0.6,1.2,1.4,1.2
		c0.7,0,1.2-1,1.6-3C21.3,56.1,21.9,55.8,22.6,55.4z M38.2,51.8c0.3,0.3,0.7,0.4,1.2,0.4c1,0,1.5-0.5,1.5-1.5c0-0.4-0.2-0.7-0.5-1
		c-0.5-0.6-1-1.3-1.3-2c0.5-0.4,1.3-0.7,2.2-0.9c0.4-0.3,0.6-0.7,0.6-1.2c-0.1-0.8-0.7-1.1-1.9-0.9c-2.7,0.7-4.9,1.7-6.6,3
		c-0.7,0.6-1.4,1.3-2,2.1c-0.5,0.7-0.7,1.3-0.7,1.6c0.1,1.1,0.4,1.6,1,1.5c0.7-0.1,1.2-0.4,1.4-1.1c0.7-0.9,1.4-1.6,2.3-2.2
		c0.3-0.3,0.6-0.6,0.9-0.7C36.8,49.9,37.4,50.8,38.2,51.8z M32.1,33.4c-0.7,0.4-1.1,1-1,1.8c0,1.1,0.7,1.7,2.1,1.6
		c0.1-0.1,0.6-0.3,1.3-0.7c0.6,0.7,1.4,1,2.3,0.9c1.8-0.2,2.6-1.2,2.5-2.9c-0.1-0.6-0.4-1.2-0.9-1.9c0.5-0.9,0.8-1.4,0.9-1.5
		c-0.1-0.1-0.1-0.1-0.1-0.3s0-0.2,0-0.3c-0.1-1.1-0.7-1.6-1.8-1.5c-0.7,0.1-1.2,0.4-1.5,1.1C34.9,31.5,33.6,32.7,32.1,33.4z
		 M36.1,19.1c-0.7,0.1-1.1,1.1-1,3.1c0,0.7,0.2,1,0.7,0.8c0.4-0.2,0.8-0.4,1.3-0.4s0.9,0,1.5,0s0.7-0.3,0.2-0.9
		c-0.5-0.5-0.9-1.1-1.4-1.7C36.9,19.4,36.5,19.1,36.1,19.1z M45.1,16.3c-0.3,0-0.7,0.5-1,1.4c-0.3,0.9-0.5,1.8-0.5,2.6
		c0,0.9,0.2,1.3,0.7,1.1c0.5-0.1,0.9-0.1,1.4-0.1c0.3,0,0.8-0.1,1.5-0.1c0.6-0.1,0.8-0.5,0.3-1.2c-0.4-0.7-0.8-1.5-1.3-2.4
		C45.7,16.8,45.4,16.3,45.1,16.3z M49.1,54.6c1.7,0.7,3.6,1.1,5.6,1.1c0.7,0,1.4,0,2.1-0.1c0.9,0,1.3-0.5,1.3-1.4
		c0-0.9-0.5-1.3-1.4-1.4c-0.7,0.1-1.3,0.1-1.9,0.1c-1.2,0-2.2-0.1-3-0.4c0.1,0,0.2,0,0.3,0c0.1,0,0.2,0,0.3,0c2.3-0.6,4.3-1.7,6-3.3
		c0.1-0.5,0.2-0.8,0.2-0.9c0-0.9-0.4-1.3-1.3-1.3c0.1,0-0.1,0-0.6,0.1c-1.2,1.1-2.7,2-4.5,2.6c1.3-1.7,2.1-3.8,2.4-6.1
		c0.3-1.4,0.3-2.8,0.1-4.1c-0.1-1.2-0.5-1.8-1.3-1.8c-0.9,0-1.3,0.6-1.3,1.8c0.1,1.4,0,2.6-0.2,3.6c-0.5,2.9-1.7,5.1-3.7,6.7
		c-0.5,0.6-0.8,1.3-0.8,2.2C47.3,53.3,47.9,54.2,49.1,54.6z M80.2,86C80,75.2,79.3,66,78,58.3c-1.3-7.7-3.3-14.5-6.2-20.5
		c-2.2-4.5-4.8-8-7.8-10.4c-3-2.4-6.3-4-9.8-4.9c-2.2-0.1-3.3,0.3-3.4,1.2c-0.1,1.1,0.9,1.7,3,1.8c3.2,1,6.1,2.7,8.7,5.1
		c2.6,2.4,4.9,5.9,6.9,10.5c2.5,5.7,4.3,12.1,5.3,19.2c1,7.2,1.5,15.7,1.4,25.5H80.2z"/>

</svg>
