<?xml version="1.0" encoding="utf-8"?>
<!-- Generator: Adobe Illustrator 19.0.0, SVG Export Plug-In . SVG Version: 6.00 Build 0)  -->
<svg version="1.1" id="p" xmlns="http://www.w3.org/2000/svg" xmlns:xlink="http://www.w3.org/1999/xlink" x="0px" y="0px"
	 viewBox="0 0 100 100" enable-background="new 0 0 100 100" xml:space="preserve">

	<path id="XMLID_4_" d="M44.9,21c-2.2-1.6-3.3-3.8-3.3-6.6c0-2.3,0.8-4.2,2.4-5.9C45.6,6.9,47.6,6,49.9,6c2.3,0,4.2,0.8,5.8,2.5
		c1.6,1.7,2.5,3.6,2.5,5.9c0,2.7-1.1,4.9-3.3,6.6l10,11.5h-6.6l-0.1,13.9c3,1.5,5.4,3.8,7.3,6.6c1.8,2.9,2.8,6.1,2.8,9.6
		c0,3.2-0.8,6.1-2.3,8.8c-1.5,2.6-3.5,4.8-5.9,6.5l6.5,11.5H33.3l6.5-11.5c-5.5-3.6-8.2-8.7-8.2-15.2c0-3.5,0.9-6.8,2.8-9.6
		c1.8-2.9,4.3-5.1,7.3-6.6V32.5H35L44.9,21z"/>

</svg>
