<?xml version="1.0" encoding="utf-8"?>
<!-- Generator: Adobe Illustrator 19.0.0, SVG Export Plug-In . SVG Version: 6.00 Build 0)  -->
<svg version="1.1" id="Q" xmlns="http://www.w3.org/2000/svg" xmlns:xlink="http://www.w3.org/1999/xlink" x="0px" y="0px"
	 viewBox="0 0 100 100" enable-background="new 0 0 100 100" xml:space="preserve">

	<path id="XMLID_23_" fill="#FFFFFF" d="M12.5,34.6c-2.1,0-3.8-0.7-5.2-2.1c-1.4-1.4-2.1-3.1-2.1-5.1s0.7-3.7,2.1-5.1
		c1.4-1.4,3.1-2.2,5.2-2.2c2,0,3.7,0.7,5.1,2.2c1.4,1.4,2.1,3.1,2.1,5.1s-0.7,3.7-2.1,5.1C16.2,33.9,14.5,34.6,12.5,34.6z
		 M14.9,34.5l2.8-1.4l8.4,14.1c0.8,0.8,1.7,1.2,2.7,1.2c2.3,0,3.4-1.1,3.4-3.4c0-0.3,0-0.6-0.1-0.7l-1.9-17.7l3.4-0.6l6.2,16.8
		c0.7,1.1,1.7,1.6,2.9,1.6c2.1,0,3.2-1,3.4-3l2.2-20.6h3.3l2.2,20.6c0.2,2,1.3,3,3.4,3c1.2,0,2.1-0.5,2.8-1.6L66.4,26l3.3,0.7
		l-2,17.6c0,0.1,0,0.3,0,0.4c0,0.1,0,0.2,0,0.3c0,2.3,1.1,3.4,3.4,3.4c0.9,0,1.8-0.4,2.7-1.2L82.3,33l3.1,1.4
		c-3.7,7.9-5.6,16.2-5.6,25c0,0.5,0,1,0,1.6c0,0.6,0,1.3-0.1,2.2C78.6,67,78,70.4,78,73.4c0,3.8,0.7,7.5,2.1,11.2
		c-1.6,1.3-5.2,2.5-10.8,3.4c-5.6,0.9-12,1.4-19.3,1.4c-7.4,0-13.9-0.5-19.5-1.5c-5.6-1-9.2-2.2-10.6-3.6c1.4-3.5,2.1-7.1,2.1-10.9
		c0-3.1-0.5-6.5-1.6-10.2c0-0.9,0-1.6,0-2.2c0-0.6,0-1.1,0-1.6C20.4,50.7,18.6,42.4,14.9,34.5z M30.4,26.2c-2,0-3.7-0.7-5.2-2.1
		c-1.4-1.4-2.1-3.1-2.1-5.2c0-2,0.7-3.7,2.1-5.2c1.4-1.4,3.2-2.1,5.2-2.1c2.1,0,3.8,0.7,5.3,2.1c1.4,1.4,2.1,3.2,2.1,5.2
		c0,2.1-0.7,3.8-2.1,5.2C34.2,25.5,32.5,26.2,30.4,26.2z M50,20.7c-2.1,0-3.8-0.7-5.2-2.1c-1.4-1.4-2.1-3.1-2.1-5.2
		c0-2,0.7-3.7,2.1-5.2c1.4-1.4,3.1-2.1,5.2-2.1c2,0,3.7,0.7,5.2,2.1c1.4,1.4,2.1,3.2,2.1,5.2c0,2.1-0.7,3.8-2.1,5.2
		C53.7,20,52,20.7,50,20.7z M69.5,26.2c-2.1,0-3.8-0.7-5.2-2.1c-1.4-1.4-2.1-3.1-2.1-5.2c0-2,0.7-3.7,2.1-5.2
		c1.4-1.4,3.1-2.1,5.2-2.1c2,0,3.7,0.7,5.2,2.1c1.4,1.4,2.1,3.2,2.1,5.2c0,2.1-0.7,3.8-2.1,5.2C73.2,25.5,71.5,26.2,69.5,26.2z
		 M87.5,34.6c-2.1,0-3.8-0.7-5.2-2.1c-1.4-1.4-2.1-3.1-2.1-5.1s0.7-3.7,2.1-5.2c1.4-1.5,3.1-2.2,5.2-2.2c2.1,0,3.8,0.7,5.2,2.2
		c1.4,1.5,2.1,3.2,2.1,5.2s-0.7,3.7-2.1,5.1C91.3,33.9,89.6,34.6,87.5,34.6z"/>

	<path id="XMLID_4_" d="M12.5,34.6c-2.1,0-3.8-0.7-5.2-2.1c-1.4-1.4-2.1-3.1-2.1-5.1s0.7-3.7,2.1-5.1c1.4-1.4,3.1-2.2,5.2-2.2
		c2,0,3.7,0.7,5.1,2.2c1.4,1.4,2.1,3.1,2.1,5.1s-0.7,3.7-2.1,5.1C16.2,33.9,14.5,34.6,12.5,34.6z M12.5,30.9c2.4,0,3.6-1.2,3.6-3.6
		s-1.2-3.6-3.6-3.6c-2.3,0-3.5,1.2-3.5,3.6S10.2,30.9,12.5,30.9z M14.9,34.5l2.8-1.4l8.4,14.1c0.8,0.8,1.7,1.2,2.7,1.2
		c2.3,0,3.4-1.1,3.4-3.4c0-0.3,0-0.6-0.1-0.7l-1.9-17.7l3.4-0.6l6.2,16.8c0.7,1.1,1.7,1.6,2.9,1.6c2.1,0,3.2-1,3.4-3l2.2-20.6h3.3
		l2.2,20.6c0.2,2,1.3,3,3.4,3c1.2,0,2.1-0.5,2.8-1.6L66.4,26l3.3,0.7l-2,17.6c0,0.1,0,0.3,0,0.4c0,0.1,0,0.2,0,0.3
		c0,2.3,1.1,3.4,3.4,3.4c0.9,0,1.8-0.4,2.7-1.2L82.3,33l3.1,1.4c-3.7,7.9-5.6,16.2-5.6,25c0,0.5,0,1,0,1.6c0,0.6,0,1.3-0.1,2.2
		C78.6,67,78,70.4,78,73.4c0,3.8,0.7,7.5,2.1,11.2c-1.6,1.3-5.2,2.5-10.8,3.4c-5.6,0.9-12,1.4-19.3,1.4c-7.4,0-13.9-0.5-19.5-1.5
		c-5.6-1-9.2-2.2-10.6-3.6c1.4-3.5,2.1-7.1,2.1-10.9c0-3.1-0.5-6.5-1.6-10.2c0-0.9,0-1.6,0-2.2c0-0.6,0-1.1,0-1.6
		C20.4,50.7,18.6,42.4,14.9,34.5z M76.2,61.8c0-0.4,0-0.8,0-1.3s0-0.9,0-1.4c0-3.5,0.3-7.3,1-11.4c-1.4,2.6-3.4,3.9-6.1,3.9
		c-1.9,0-3.4-0.7-4.8-2c-1.3-1.3-1.9-2.9-1.9-4.7c0-0.1,0-0.3,0.1-0.5c0.5-2,0.5-3.1,0-3.2c-0.3-0.1-0.7,0.5-1,1.7
		c-0.9,3.1-3,4.7-6.3,4.7c-1.9,0-3.5-0.7-4.8-2c-1.3-1.3-2-2.9-2-4.7c-0.1-1.3-0.2-1.9-0.5-1.9c-0.4,0-0.6,0.6-0.6,1.9
		c0,1.8-0.7,3.4-2,4.7c-1.3,1.3-2.9,2-4.8,2c-3.3,0-5.4-1.6-6.3-4.7c-0.3-1.1-0.7-1.7-1-1.7c-0.5,0.1-0.5,1.1,0,3c0,0.1,0,0.3,0,0.4
		c0,0.1,0,0.2,0,0.3c0,1.8-0.7,3.4-2,4.7c-1.3,1.3-2.9,2-4.7,2c-2.7,0-4.8-1.3-6.2-3.9c0.7,4.1,1,7.9,1,11.4c0,1.1,0,2,0,2.5
		c6.5-1.7,15.3-2.6,26.4-2.6C61,59.1,69.7,60,76.2,61.8z M30.4,26.2c-2,0-3.7-0.7-5.2-2.1c-1.4-1.4-2.1-3.1-2.1-5.2
		c0-2,0.7-3.7,2.1-5.2c1.4-1.4,3.2-2.1,5.2-2.1c2.1,0,3.8,0.7,5.3,2.1c1.4,1.4,2.1,3.2,2.1,5.2c0,2.1-0.7,3.8-2.1,5.2
		C34.2,25.5,32.5,26.2,30.4,26.2z M76.1,82.7c-5.9-2.5-14.6-3.8-25.9-3.8c-11.6,0-20.3,1.3-26.2,3.9c5.7,2.2,14.3,3.3,26,3.3
		c5.6,0,10.7-0.3,15.3-0.9C70,84.6,73.6,83.8,76.1,82.7z M74.7,73.9l-1.4,0.2l-5.4-4.7l7.2-1.2c0.2-1.1,0.4-2.3,0.7-3.4
		c-6.4-1.6-14.9-2.4-25.6-2.4c-10.9,0-19.5,0.8-26,2.5c0.1,0.5,0.3,1.5,0.7,3.2l7.3,1.3l-5.4,4.7l-1.4-0.2c-0.1,1.9-0.3,3.3-0.4,4.3
		c6-1.8,14.3-2.7,25-2.7c10.5,0,18.8,0.9,25,2.7C74.7,76.4,74.6,75,74.7,73.9z M25.3,72.7l0.6,0.2l2.9-2.5l-3.7-0.7
		C25.2,70.4,25.2,71.4,25.3,72.7z M30.4,22.5c2.4,0,3.6-1.2,3.6-3.6c0-2.4-1.2-3.6-3.6-3.6c-2.3,0-3.5,1.2-3.5,3.6
		C26.9,21.3,28.1,22.5,30.4,22.5z M50,20.7c-2.1,0-3.8-0.7-5.2-2.1c-1.4-1.4-2.1-3.1-2.1-5.2c0-2,0.7-3.7,2.1-5.2
		c1.4-1.4,3.1-2.1,5.2-2.1c2,0,3.7,0.7,5.2,2.1c1.4,1.4,2.1,3.2,2.1,5.2c0,2.1-0.7,3.8-2.1,5.2C53.7,20,52,20.7,50,20.7z M56.5,69.2
		L50,72.4l-6.5-3.2L50,66L56.5,69.2z M50,17c2.3,0,3.5-1.2,3.5-3.6c0-2.3-1.2-3.5-3.5-3.5c-2.4,0-3.6,1.2-3.6,3.5
		C46.4,15.8,47.6,17,50,17z M53.3,69.2L50,67.5l-3.3,1.7l3.3,1.6L53.3,69.2z M69.5,26.2c-2.1,0-3.8-0.7-5.2-2.1
		c-1.4-1.4-2.1-3.1-2.1-5.2c0-2,0.7-3.7,2.1-5.2c1.4-1.4,3.1-2.1,5.2-2.1c2,0,3.7,0.7,5.2,2.1c1.4,1.4,2.1,3.2,2.1,5.2
		c0,2.1-0.7,3.8-2.1,5.2C73.2,25.5,71.5,26.2,69.5,26.2z M69.5,22.5c2.4,0,3.6-1.2,3.6-3.6c0-2.4-1.2-3.6-3.6-3.6s-3.6,1.2-3.6,3.6
		C65.9,21.3,67.1,22.5,69.5,22.5z M74.7,72.6c0-0.7,0.1-1.7,0.2-3.1l-3.8,0.8l2.9,2.4L74.7,72.6z M87.5,34.6c-2.1,0-3.8-0.7-5.2-2.1
		c-1.4-1.4-2.1-3.1-2.1-5.1s0.7-3.7,2.1-5.2c1.4-1.5,3.1-2.2,5.2-2.2c2.1,0,3.8,0.7,5.2,2.2c1.4,1.5,2.1,3.2,2.1,5.2
		s-0.7,3.7-2.1,5.1C91.3,33.9,89.6,34.6,87.5,34.6z M87.5,30.9c2.4,0,3.6-1.2,3.6-3.6s-1.2-3.6-3.6-3.6c-2.3,0-3.5,1.2-3.5,3.6
		S85.2,30.9,87.5,30.9z"/>

</svg>
