<?xml version="1.0" encoding="utf-8"?>
<!-- Generator: Adobe Illustrator 19.0.0, SVG Export Plug-In . SVG Version: 6.00 Build 0)  -->
<svg version="1.1" id="R" xmlns="http://www.w3.org/2000/svg" xmlns:xlink="http://www.w3.org/1999/xlink" x="0px" y="0px"
	 viewBox="0 0 100 100" enable-background="new 0 0 100 100" xml:space="preserve">

	<path id="XMLID_23_" fill="#FFFFFF" d="M75,69.3l3.3,3.3v3.3h3.3v13.5H18.4V75.9h3.3v-3.3l3.3-3.3h3.3V25.9h-6.6V6h11.6v7.5h10.1V6
		h13.2v7.5h10V6h11.7v19.9h-6.6v43.4H75z"/>

	<path id="XMLID_4_" d="M75,69.3l3.3,3.3v3.3h3.3v13.5H18.4V75.9h3.3v-3.3l3.3-3.3h3.3V25.9h-6.6V6h11.6v7.5h10.1V6h13.2v7.5h10V6
		h11.7v19.9h-6.6v43.4H75z M21.7,79.4V86h56.6v-6.6H21.7z M50,22.6h25V9.3l-5,0.1v7.4H53.3V9.3h-6.6v7.5H30V9.4l-5-0.1v13.3H50z
		 M73.3,72.6H26.7L25,74.4v1.5h50v-1.5L73.3,72.6z M31.6,25.9v8.4h10v-8.4H31.6z M31.6,37.6v8.3h3.5v-8.3H31.6z M31.6,49.3v8.3h10
		v-8.3H31.6z M31.6,60.9v8.4h3.5v-8.4H31.6z M38.4,37.6v8.3h9.8v-8.3H38.4z M38.4,60.9v8.4h9.8v-8.4H38.4z M45,25.9v8.4h10v-8.4H45z
		 M45,49.3v8.3h10v-8.3H45z M51.7,37.6v8.3h9.9v-8.3H51.7z M51.7,60.9v8.4h9.9v-8.4H51.7z M58.3,25.9v8.4h10.1v-8.4H58.3z
		 M58.3,49.3v8.3h10.1v-8.3H58.3z M64.9,37.6v8.3h3.5v-8.3H64.9z M64.9,60.9v8.4h3.5v-8.4H64.9z"/>

</svg>
