<?xml version="1.0" encoding="utf-8"?>
<!-- Generator: Adobe Illustrator 19.0.0, SVG Export Plug-In . SVG Version: 6.00 Build 0)  -->
<svg version="1.1" id="B" xmlns="http://www.w3.org/2000/svg" xmlns:xlink="http://www.w3.org/1999/xlink" x="0px" y="0px"
	 viewBox="0 0 100 100" enable-background="new 0 0 100 100" xml:space="preserve">

	<path id="XMLID_16_" fill="#FFFFFF" d="M50,75.6c5.5,3.6,11.5,5.4,17.8,5.4c3.4,0,6.9-0.8,10.5-2.3c3.6-1.5,6.7-3.2,9.2-5.1
		c0.3,0.6,0.1,1.5-0.4,2.8c-0.5,1.3-1,2.4-1.4,3.4c0.4,0.1,0.8,0.2,1.2,0.4c1.8,0.9,3.2,2,4.1,3.3c1,1.3,1.2,2.5,0.8,3.5
		c-0.3,0.5-0.7,0.9-1.2,1.2c0.1-0.3,0.1-0.6,0.1-0.8c0-2.1-1-3.1-3.1-3.1c-0.6,0-1.1,0.2-1.5,0.5c-5.7,3.1-11.8,4.6-18.3,4.6
		c-6,0-11.9-1.4-17.8-4.2c-5.9,2.8-11.9,4.2-17.9,4.2c-6.5,0-12.6-1.5-18.2-4.6c-0.5-0.3-1-0.5-1.6-0.5c-2,0-3,1-3,3.1
		c0,0.1,0,0.3,0,0.4c0,0.1,0,0.3,0,0.4c-0.6-0.3-1-0.7-1.2-1.2c-0.5-1-0.2-2.2,0.7-3.5c0.9-1.3,2.3-2.4,4.2-3.3
		c0.3-0.1,0.7-0.3,1.2-0.4c-0.4-0.9-0.9-2.1-1.4-3.4c-0.5-1.3-0.6-2.3-0.3-2.8c2.5,1.9,5.5,3.6,9.1,5.1c3.6,1.5,7.1,2.3,10.5,2.3
		C38.4,81,44.3,79.2,50,75.6z M63.3,59.6L61.7,72c0,1-1.2,1.8-3.5,2.5c-2.3,0.7-5.1,1-8.3,1c-3.3,0-6-0.3-8.3-1
		c-2.3-0.7-3.4-1.5-3.4-2.5l-1.5-12.4c-2.3-3.5-4-7.1-4.9-10.7c-0.9-3.6-1.4-7.1-1.4-10.4c0-10,5.4-17.7,16.2-23
		c0-0.5,0.1-1.1,0.2-1.9c-1.1-0.9-1.7-2-1.7-3.5c0-3,1.5-4.5,4.5-4.5s4.5,1.5,4.5,4.5c0,1.3-0.5,2.4-1.4,3.3c0,1,0.1,1.7,0.4,2.1
		c0.5,0.7,1.3,1.1,2.2,1.2c1-0.1,1.8-0.5,2.3-1.3c0.1-0.2,0.3-0.8,0.4-1.8c-0.8-0.9-1.2-2-1.2-3.3c0-3,1.5-4.5,4.6-4.5
		c3,0,4.5,1.5,4.5,4.5c0,1.8-0.7,3.1-2.2,4c-0.1,0.7-0.2,1.2-0.1,1.6c5.5,6.5,7.9,14,7.2,22.6c-0.3,2.4-0.6,4.7-1,7
		c-0.4,2.2-1.2,4.5-2.5,6.9c-0.6,1.2-1.2,2.4-1.9,3.7C64.7,57.3,64,58.5,63.3,59.6z"/>

	<path id="XMLID_4_" d="M50,75.6c5.5,3.6,11.5,5.4,17.8,5.4c3.4,0,6.9-0.8,10.5-2.3c3.6-1.5,6.7-3.2,9.2-5.1
		c0.3,0.6,0.1,1.5-0.4,2.8c-0.5,1.3-1,2.4-1.4,3.4c0.4,0.1,0.8,0.2,1.2,0.4c1.8,0.9,3.2,2,4.1,3.3c1,1.3,1.2,2.5,0.8,3.5
		c-0.3,0.5-0.7,0.9-1.2,1.2c0.1-0.3,0.1-0.6,0.1-0.8c0-2.1-1-3.1-3.1-3.1c-0.6,0-1.1,0.2-1.5,0.5c-5.7,3.1-11.8,4.6-18.3,4.6
		c-6,0-11.9-1.4-17.8-4.2c-5.9,2.8-11.9,4.2-17.9,4.2c-6.5,0-12.6-1.5-18.2-4.6c-0.5-0.3-1-0.5-1.6-0.5c-2,0-3,1-3,3.1
		c0,0.1,0,0.3,0,0.4c0,0.1,0,0.3,0,0.4c-0.6-0.3-1-0.7-1.2-1.2c-0.5-1-0.2-2.2,0.7-3.5c0.9-1.3,2.3-2.4,4.2-3.3
		c0.3-0.1,0.7-0.3,1.2-0.4c-0.4-0.9-0.9-2.1-1.4-3.4c-0.5-1.3-0.6-2.3-0.3-2.8c2.5,1.9,5.5,3.6,9.1,5.1c3.6,1.5,7.1,2.3,10.5,2.3
		C38.4,81,44.3,79.2,50,75.6z M50,78.4c-5.7,3.4-11.6,5.1-17.9,5.1c-2.9,0-5.7-0.4-8.4-1.3c-2.7-0.8-5.2-1.9-7.6-3.3
		c0.1,0.1,0.1,0.3,0.1,0.7c0,0.3,0.1,0.5,0.1,0.5c0.1,0.2,0.2,0.4,0.4,0.6c0.2,0.2,0.3,0.4,0.4,0.5c-0.9,0-2,0.3-3.1,0.8
		c5.6,3.3,11.6,5,18.1,5c6.3,0,12.3-1.6,17.9-4.8c5.5,3.2,11.5,4.8,17.8,4.8c6.5,0,12.6-1.7,18.1-5c-1.1-0.5-2.1-0.8-3.1-0.8
		c0.3-0.4,0.6-0.8,0.7-1.1c0.1-0.1,0.2-0.3,0.3-0.5c0.1-0.3,0.2-0.5,0.3-0.7c-2.4,1.4-5,2.5-7.8,3.3c-2.8,0.8-5.6,1.3-8.5,1.3
		C61.5,83.5,55.6,81.8,50,78.4z M63.3,59.6L61.7,72c0,1-1.2,1.8-3.5,2.5c-2.3,0.7-5.1,1-8.3,1c-3.3,0-6-0.3-8.3-1
		c-2.3-0.7-3.4-1.5-3.4-2.5l-1.5-12.4c-2.3-3.5-4-7.1-4.9-10.7c-0.9-3.6-1.4-7.1-1.4-10.4c0-10,5.4-17.7,16.2-23
		c0-0.5,0.1-1.1,0.2-1.9c-1.1-0.9-1.7-2-1.7-3.5c0-3,1.5-4.5,4.5-4.5s4.5,1.5,4.5,4.5c0,1.3-0.5,2.4-1.4,3.3c0,1,0.1,1.7,0.4,2.1
		c0.5,0.7,1.3,1.1,2.2,1.2c1-0.1,1.8-0.5,2.3-1.3c0.1-0.2,0.3-0.8,0.4-1.8c-0.8-0.9-1.2-2-1.2-3.3c0-3,1.5-4.5,4.6-4.5
		c3,0,4.5,1.5,4.5,4.5c0,1.8-0.7,3.1-2.2,4c-0.1,0.7-0.2,1.2-0.1,1.6c5.5,6.5,7.9,14,7.2,22.6c-0.3,2.4-0.6,4.7-1,7
		c-0.4,2.2-1.2,4.5-2.5,6.9c-0.6,1.2-1.2,2.4-1.9,3.7C64.7,57.3,64,58.5,63.3,59.6z M62.2,54.4c2.3-4.2,3.7-7.5,4.1-9.8
		c0.4-2.4,0.5-4.9,0.2-7.5c-0.4-3.7-2.2-7.5-5.5-11.5c-3.2-4-6.9-7-11-9.1c-5.2,2.5-9.2,5.7-12,9.4c-2.8,3.7-4.3,7.5-4.4,11.3
		c-0.1,2.7,0.1,5.3,0.6,7.8c0.5,2.5,1.8,5.6,3.7,9.4c2.6-0.7,5.6-1.1,8.9-1.3V40h-6.3v-6.7h6.3V25h6.6v8.3h6.3V40h-6.3v13.1
		C56.5,53.3,59.4,53.8,62.2,54.4z M59.9,66.7l1-9.9c-3.1-0.6-6.6-0.9-10.6-0.9c-3.9,0-7.6,0.4-11.1,1.1l1,9.5c2.3-1,5.6-1.5,9.7-1.5
		C54.4,65,57.7,65.6,59.9,66.7z M50.1,67.4c-2.7,0-5,0.3-6.9,0.8c-1.9,0.5-2.9,1.2-2.9,2c0,0.7,1,1.4,2.9,1.9
		c1.9,0.5,4.2,0.8,6.9,0.8c2.7,0,5-0.3,6.9-0.8c1.9-0.5,2.9-1.1,2.9-1.9c0-0.8-1-1.5-2.9-2C55.1,67.7,52.8,67.4,50.1,67.4z M51.4,53
		l-0.1-15.1h6.3v-2.5h-6.3v-8.3h-2.4v8.3h-6.3v2.5h6.3V53H50c0.2,0,0.4,0,0.7,0C51,53,51.2,53,51.4,53z M55,60.5l-4.9,2.1l-5-2.1
		l5-2L55,60.5z M49.6,8.1c-1.3,0-2,0.7-2,2c0,1.3,0.7,2,2,2c1.3,0,2-0.7,2-2C51.6,8.8,50.9,8.1,49.6,8.1z M69.2,38.4
		c0.3-1.8-0.3-5.1-1.8-9.8c-1.5-4.7-3.8-8.7-6.8-11.8c-0.4-0.3-0.8-0.4-1.2-0.3c-0.5,0.1-0.9,0.3-1.4,0.8c-0.5,0.4-0.5,0.9-0.2,1.5
		c3.7,2.4,6.4,5.8,8.3,10.1C68.2,33.3,69.1,36.4,69.2,38.4z M61.4,8.2c-1.4,0-2.1,0.7-2.1,2.1s0.7,2.1,2.1,2.1
		c1.4,0,2.1-0.7,2.1-2.1S62.8,8.2,61.4,8.2z"/>

</svg>
