<?xml version="1.0" encoding="utf-8"?>
<!-- Generator: Adobe Illustrator 19.0.0, SVG Export Plug-In . SVG Version: 6.00 Build 0)  -->
<svg version="1.1" id="P" xmlns="http://www.w3.org/2000/svg" xmlns:xlink="http://www.w3.org/1999/xlink" x="0px" y="0px"
	 viewBox="0 0 100 100" enable-background="new 0 0 100 100" xml:space="preserve">

	<path id="XMLID_10_" fill="#FFFFFF" d="M44.9,21c-2.2-1.6-3.3-3.8-3.3-6.6c0-2.3,0.8-4.2,2.4-5.9C45.6,6.9,47.6,6,49.9,6
		c2.3,0,4.2,0.8,5.8,2.5c1.6,1.7,2.5,3.6,2.5,5.9c0,2.7-1.1,4.9-3.3,6.6l10,11.5h-6.6l-0.1,13.9c3,1.5,5.4,3.8,7.3,6.6
		c1.8,2.9,2.8,6.1,2.8,9.6c0,3.2-0.8,6.1-2.3,8.8c-1.5,2.6-3.5,4.8-5.9,6.5l6.5,11.5H33.3l6.5-11.5c-5.5-3.6-8.2-8.7-8.2-15.2
		c0-3.5,0.9-6.8,2.8-9.6c1.8-2.9,4.3-5.1,7.3-6.6V32.5H35L44.9,21z"/>

	<path id="XMLID_4_" d="M44.9,21c-2.2-1.6-3.3-3.8-3.3-6.6c0-2.3,0.8-4.2,2.4-5.9C45.6,6.9,47.6,6,49.9,6c2.3,0,4.2,0.8,5.8,2.5
		c1.6,1.7,2.5,3.6,2.5,5.9c0,2.7-1.1,4.9-3.3,6.6l10,11.5h-6.6l-0.1,13.9c3,1.5,5.4,3.8,7.3,6.6c1.8,2.9,2.8,6.1,2.8,9.6
		c0,3.2-0.8,6.1-2.3,8.8c-1.5,2.6-3.5,4.8-5.9,6.5l6.5,11.5H33.3l6.5-11.5c-5.5-3.6-8.2-8.7-8.2-15.2c0-3.5,0.9-6.8,2.8-9.6
		c1.8-2.9,4.3-5.1,7.3-6.6V32.5H35L44.9,21z M54.9,48.6V32.5h-10v16.1c-2.9,1.1-5.3,2.9-7.2,5.5c-1.9,2.6-2.8,5.4-2.8,8.6
		c0,4.1,1.5,7.7,4.4,10.6c2.9,2.9,6.5,4.4,10.6,4.4c4.1,0,7.7-1.5,10.6-4.4c2.9-2.9,4.4-6.5,4.4-10.6c0-3.2-0.9-6.1-2.8-8.7
		C60.2,51.4,57.8,49.6,54.9,48.6z M57.3,79.4c-2.5,1.1-4.9,1.6-7.4,1.6c-2.6,0-5.1-0.5-7.4-1.6l-3.7,6.5h22.4L57.3,79.4z M52.3,22.3
		c-0.8,0.3-1.6,0.4-2.4,0.4c-0.8,0-1.6-0.1-2.4-0.3l-5.9,6.8h16.6L52.3,22.3z M49.9,9.4c-3.3,0-5,1.7-5,5c0,3.3,1.7,5,5,5
		c3.3,0,5-1.7,5-5C54.9,11.1,53.2,9.4,49.9,9.4z"/>

</svg>
