<?xml version="1.0" encoding="utf-8"?>
<!-- Generator: Adobe Illustrator 19.0.0, SVG Export Plug-In . SVG Version: 6.00 Build 0)  -->
<svg version="1.1" id="k" xmlns="http://www.w3.org/2000/svg" xmlns:xlink="http://www.w3.org/1999/xlink" x="0px" y="0px"
	 viewBox="0 0 100 100" enable-background="new 0 0 100 100" xml:space="preserve">

	<path id="XMLID_17_" fill="#FFFFFF" d="M50,89.4c-7.6,0-14.3-0.5-20-1.5c-5.7-1-9.3-2.2-10.8-3.8l1.4-12.5c0.4-2.5,0.4-4.5,0.1-6
		c-0.1-0.5-0.5-1.9-1-4.1c-0.6-2.2-1.6-4.1-3-5.5c-1.4-1.3-2.5-2.3-3.4-3c-0.8-0.7-1.6-1.5-2.1-2.4c-2-2.7-3.1-6-3.4-9.9
		c-0.3-4.3,1-8.2,4-11.5c1.7-1.8,3.8-3.2,6.4-4.1c2.6-1,5.2-1.5,8-1.7c1.6-0.1,2.9-0.2,3.9-0.1c1,0.1,2.3,0.2,3.9,0.4
		c2.1,0.3,4.3,0.7,6.4,1.4c1.7-1.9,5-2.8,9.7-2.8c4.7,0,7.9,0.9,9.6,2.8c2.2-0.7,4.3-1.1,6.4-1.4c1.6-0.2,2.9-0.3,3.9-0.4
		c1-0.1,2.3,0,4,0.1c2.7,0.1,5.3,0.7,7.8,1.7c2.6,1,4.7,2.3,6.3,4.1c3,3.3,4.3,7.2,4,11.5c-0.3,3.9-1.4,7.2-3.3,9.9
		c-0.7,0.9-1.4,1.7-2.3,2.4c-0.8,0.7-1.9,1.7-3.3,3c-1.5,1.4-2.6,3.2-3.1,5.5c-0.6,2.2-0.9,3.6-1.1,4.1c-0.3,1.7-0.3,3.7,0.1,6
		l1.5,12.5c-1.5,1.5-5.2,2.8-10.9,3.8C64.2,89,57.5,89.4,50,89.4z M50,6.2h1.6v5.7h4.2v3.3h-4.2v7.1h-3.3v-7.1h-4.1v-3.3h4.1V6.2H50
		z"/>

	<path id="XMLID_4_" d="M50,89.4c-7.6,0-14.3-0.5-20-1.5c-5.7-1-9.3-2.2-10.8-3.8l1.4-12.5c0.4-2.5,0.4-4.5,0.1-6
		c-0.1-0.5-0.5-1.9-1-4.1c-0.6-2.2-1.6-4.1-3-5.5c-1.4-1.3-2.5-2.3-3.4-3c-0.8-0.7-1.6-1.5-2.1-2.4c-2-2.7-3.1-6-3.4-9.9
		c-0.3-4.3,1-8.2,4-11.5c1.7-1.8,3.8-3.2,6.4-4.1c2.6-1,5.2-1.5,8-1.7c1.6-0.1,2.9-0.2,3.9-0.1c1,0.1,2.3,0.2,3.9,0.4
		c2.1,0.3,4.3,0.7,6.4,1.4c1.7-1.9,5-2.8,9.7-2.8c4.7,0,7.9,0.9,9.6,2.8c2.2-0.7,4.3-1.1,6.4-1.4c1.6-0.2,2.9-0.3,3.9-0.4
		c1-0.1,2.3,0,4,0.1c2.7,0.1,5.3,0.7,7.8,1.7c2.6,1,4.7,2.3,6.3,4.1c3,3.3,4.3,7.2,4,11.5c-0.3,3.9-1.4,7.2-3.3,9.9
		c-0.7,0.9-1.4,1.7-2.3,2.4c-0.8,0.7-1.9,1.7-3.3,3c-1.5,1.4-2.6,3.2-3.1,5.5c-0.6,2.2-0.9,3.6-1.1,4.1c-0.3,1.7-0.3,3.7,0.1,6
		l1.5,12.5c-1.5,1.5-5.2,2.8-10.9,3.8C64.2,89,57.5,89.4,50,89.4z M24.1,63.9c1.7-0.5,3-0.9,4.1-1.2c0.1-0.5,0.1-1.6,0-3.1
		c-0.1-0.9-0.3-1.7-0.8-2.2c-3-4.7-4.4-9.7-4.3-14.8c0.1-2.6,0.6-5.1,1.5-7.6c1-2.5,2.9-4.9,5.6-7c0.6-0.3,1.2-0.6,1.7-0.7
		c-0.1-0.1-0.3-0.1-0.5-0.1c-2.5-0.1-4.9,0.4-7,1.4c-2.1,1-3.8,2.1-5,3.5c-2,2.1-3.1,4.5-3.3,7c-0.3,3.3,0.3,6.3,1.9,8.9
		c0.1,0.2,0.1,0.4,0.3,0.8c0.1,0.3,0.2,0.5,0.4,0.8c0.4,1.2,1.2,2.4,2.3,3.7c1.1,1.3,1.6,2.7,1.6,4.3c0,0.1,0,0.3,0,0.4
		c0,0.1,0,0.2,0,0.3c-0.3,0.7-0.5,1.4-0.4,2.2C22.4,61.9,23,63.1,24.1,63.9z M71.8,84c1.9-0.5,3.5-1,4.8-1.5
		c-6.3-2.5-15.1-3.8-26.4-3.8c-11.8,0-20.7,1.3-26.8,3.9c1.4,0.5,3.1,1,5,1.4c6-1.5,13.3-2.3,21.8-2.3C58.5,81.7,65.7,82.5,71.8,84z
		 M75.8,70.3v-3.5c-3.1-1-7-1.8-11.5-2.5c-4.6-0.6-9.3-1-14.3-1c-5,0-9.8,0.3-14.3,1c-4.6,0.6-8.4,1.5-11.6,2.5v3.5
		c3.1-1.1,7-1.9,11.6-2.6c4.6-0.6,9.3-0.9,14.3-0.9C60.4,66.8,69,68,75.8,70.3z M24.1,78.5l2.1,0.4l6.1-4.4l-7.8-1.7L24.1,78.5z
		 M40.2,32.7c-2.1-0.7-3.6-1.6-4.7-2.7c-3.7,3.3-5.5,7.6-5.6,12.7c-0.2,4.3,1,8.7,3.7,13.3c0.6,1.3,0.9,2.5,0.9,3.6
		c0,0.7,0,1.3-0.1,1.9c2.6-0.4,5.1-0.7,7.4-0.8c0.1-0.3,0.1-0.7,0.1-1.1c0-0.5-0.2-1-0.5-1.5c-0.9-1.1-1.3-2.4-1.4-3.7
		c-0.4-2.2-0.6-4.3-0.7-6.4C39,42.8,39.3,37.7,40.2,32.7z M57.1,72.5L50,69.4l-7.1,3.1l7.1,3.2L57.1,72.5z M50,6.2h1.6v5.7h4.2v3.3
		h-4.2v7.1h-3.3v-7.1h-4.1v-3.3h4.1V6.2H50z M53.6,34c-0.8,0.1-2,0.2-3.6,0.2c-1.4,0-2.6-0.1-3.6-0.2c-0.8,4.4-1.1,9-0.8,13.9
		c0.1,2,0.3,4.1,0.7,6.3c0.1,0.8,0.3,1.5,0.8,2c0.7,1.1,1,2.2,1.1,3.3c0,0.2,0,0.4,0,0.5c0,0.1,0,0.3,0,0.4c0.3,0,0.6,0,0.9,0
		c0.3,0,0.6,0,0.9,0c0.3,0,0.5,0,0.8,0c0.3,0,0.6,0,0.9,0c0-0.1,0-0.3,0-0.4c0-0.1,0-0.3,0-0.5c0.1-1.1,0.4-2.2,1.1-3.3
		c0.5-0.5,0.8-1.2,0.9-2c0.3-1.9,0.5-4,0.6-6.3C54.6,43.1,54.3,38.5,53.6,34z M64.4,30.1c-1.1,1-2.7,1.9-4.8,2.7
		c0.9,4.9,1.2,10,1,15.2c-0.1,2.1-0.4,4.2-0.7,6.4c-0.2,1.4-0.7,2.6-1.4,3.7c-0.3,0.5-0.5,1-0.5,1.5c-0.1,0.4,0,0.8,0.1,1.1
		c1.3,0.1,2.5,0.2,3.8,0.3c1.3,0.1,2.5,0.3,3.7,0.5c-0.2-0.9-0.3-1.5-0.3-1.9c0-1.1,0.3-2.3,0.9-3.6c2.7-4.6,3.9-9,3.8-13.3
		C69.9,37.7,68,33.5,64.4,30.1z M75.7,78.4l-0.4-5.7l-7.9,1.7l6.2,4.4L75.7,78.4z M75.8,63.9c1-0.9,1.6-2.1,1.8-3.6
		c0.1-0.7,0-1.5-0.3-2.2c-0.1-0.1-0.1-0.4-0.1-0.7c0-1.6,0.6-3,1.7-4.3c1.1-1.3,1.8-2.5,2.2-3.7c0.1-0.2,0.3-0.5,0.4-0.8
		c0.1-0.3,0.2-0.6,0.3-0.8c1.5-2.6,2.2-5.6,1.9-8.9c-0.3-2.5-1.4-4.9-3.3-7c-1.3-1.4-3.1-2.6-5.2-3.5c-2.1-1-4.4-1.4-7-1.4
		c-0.2,0-0.4,0-0.5,0.1c0.5,0.1,1.1,0.4,1.7,0.7c2.8,2.2,4.7,4.5,5.7,7c1,2.5,1.5,5,1.5,7.6c0.1,5.1-1.3,10.1-4.2,14.8
		c-0.5,0.5-0.8,1.3-0.9,2.2c-0.1,1.5-0.1,2.6,0,3.1C73.1,63.1,74.5,63.5,75.8,63.9z"/>

</svg>
