<?xml version="1.0" encoding="utf-8"?>
<!-- Generator: Adobe Illustrator 19.0.0, SVG Export Plug-In . SVG Version: 6.00 Build 0)  -->
<svg version="1.1" id="q" xmlns="http://www.w3.org/2000/svg" xmlns:xlink="http://www.w3.org/1999/xlink" x="0px" y="0px"
	 viewBox="0 0 100 100" enable-background="new 0 0 100 100" xml:space="preserve">

	<path id="XMLID_16_" fill="#FFFFFF" d="M12.5,34.6c-2.1,0-3.8-0.7-5.2-2.1c-1.4-1.4-2.1-3.1-2.1-5.1s0.7-3.7,2.1-5.1
		c1.4-1.4,3.1-2.2,5.2-2.2c2,0,3.7,0.7,5.1,2.2c1.4,1.4,2.1,3.1,2.1,5.1s-0.7,3.7-2.1,5.1C16.2,33.9,14.5,34.6,12.5,34.6z
		 M14.9,34.5l2.8-1.4l8.4,14.1c0.8,0.8,1.7,1.2,2.7,1.2c2.3,0,3.4-1.1,3.4-3.4c0-0.3,0-0.6-0.1-0.7l-1.9-17.7l3.4-0.6l6.2,16.8
		c0.7,1.1,1.7,1.6,2.9,1.6c2.1,0,3.2-1,3.4-3l2.2-20.6h3.3l2.2,20.6c0.2,2,1.3,3,3.4,3c1.2,0,2.1-0.5,2.8-1.6L66.4,26l3.3,0.7
		l-2,17.6c0,0.1,0,0.3,0,0.4c0,0.1,0,0.2,0,0.3c0,2.3,1.1,3.4,3.4,3.4c0.9,0,1.8-0.4,2.7-1.2L82.3,33l3.1,1.4
		c-3.7,7.9-5.6,16.2-5.6,25c0,0.5,0,1,0,1.6c0,0.6,0,1.3-0.1,2.2C78.6,67,78,70.4,78,73.4c0,3.8,0.7,7.5,2.1,11.2
		c-1.6,1.3-5.2,2.5-10.8,3.4c-5.6,0.9-12,1.4-19.3,1.4c-7.4,0-13.9-0.5-19.5-1.5c-5.6-1-9.2-2.2-10.6-3.6c1.4-3.5,2.1-7.1,2.1-10.9
		c0-3.1-0.5-6.5-1.6-10.2c0-0.9,0-1.6,0-2.2c0-0.6,0-1.1,0-1.6C20.4,50.7,18.6,42.4,14.9,34.5z M30.4,26.2c-2,0-3.7-0.7-5.2-2.1
		c-1.4-1.4-2.1-3.1-2.1-5.2c0-2,0.7-3.7,2.1-5.2c1.4-1.4,3.2-2.1,5.2-2.1c2.1,0,3.8,0.7,5.3,2.1c1.4,1.4,2.1,3.2,2.1,5.2
		c0,2.1-0.7,3.8-2.1,5.2C34.2,25.5,32.5,26.2,30.4,26.2z M50,20.7c-2.1,0-3.8-0.7-5.2-2.1c-1.4-1.4-2.1-3.1-2.1-5.2
		c0-2,0.7-3.7,2.1-5.2c1.4-1.4,3.1-2.1,5.2-2.1c2,0,3.7,0.7,5.2,2.1c1.4,1.4,2.1,3.2,2.1,5.2c0,2.1-0.7,3.8-2.1,5.2
		C53.7,20,52,20.7,50,20.7z M69.5,26.2c-2.1,0-3.8-0.7-5.2-2.1c-1.4-1.4-2.1-3.1-2.1-5.2c0-2,0.7-3.7,2.1-5.2
		c1.4-1.4,3.1-2.1,5.2-2.1c2,0,3.7,0.7,5.2,2.1c1.4,1.4,2.1,3.2,2.1,5.2c0,2.1-0.7,3.8-2.1,5.2C73.2,25.5,71.5,26.2,69.5,26.2z
		 M87.5,34.6c-2.1,0-3.8-0.7-5.2-2.1c-1.4-1.4-2.1-3.1-2.1-5.1s0.7-3.7,2.1-5.2c1.4-1.5,3.1-2.2,5.2-2.2c2.1,0,3.8,0.7,5.2,2.2
		c1.4,1.5,2.1,3.2,2.1,5.2s-0.7,3.7-2.1,5.1C91.3,33.9,89.6,34.6,87.5,34.6z"/>

	<path id="XMLID_4_" d="M12.5,34.6c-2.1,0-3.8-0.7-5.2-2.1c-1.4-1.4-2.1-3.1-2.1-5.1s0.7-3.7,2.1-5.1c1.4-1.4,3.1-2.2,5.2-2.2
		c2,0,3.7,0.7,5.1,2.2c1.4,1.4,2.1,3.1,2.1,5.1s-0.7,3.7-2.1,5.1C16.2,33.9,14.5,34.6,12.5,34.6z M14.9,34.5l2.8-1.4l8.4,14.1
		c0.8,0.8,1.7,1.2,2.7,1.2c2.3,0,3.4-1.1,3.4-3.4c0-0.3,0-0.6-0.1-0.7l-1.9-17.7l3.4-0.6l6.2,16.8c0.7,1.1,1.7,1.6,2.9,1.6
		c2.1,0,3.2-1,3.4-3l2.2-20.6h3.3l2.2,20.6c0.2,2,1.3,3,3.4,3c1.2,0,2.1-0.5,2.8-1.6L66.4,26l3.3,0.7l-2,17.6c0,0.1,0,0.3,0,0.4
		c0,0.1,0,0.2,0,0.3c0,2.3,1.1,3.4,3.4,3.4c0.9,0,1.8-0.4,2.7-1.2L82.3,33l3.1,1.4c-3.7,7.9-5.6,16.2-5.6,25c0,0.5,0,1,0,1.6
		c0,0.6,0,1.3-0.1,2.2C78.6,67,78,70.4,78,73.4c0,3.8,0.7,7.5,2.1,11.2c-1.6,1.3-5.2,2.5-10.8,3.4c-5.6,0.9-12,1.4-19.3,1.4
		c-7.4,0-13.9-0.5-19.5-1.5c-5.6-1-9.2-2.2-10.6-3.6c1.4-3.5,2.1-7.1,2.1-10.9c0-3.1-0.5-6.5-1.6-10.2c0-0.9,0-1.6,0-2.2
		c0-0.6,0-1.1,0-1.6C20.4,50.7,18.6,42.4,14.9,34.5z M30.4,26.2c-2,0-3.7-0.7-5.2-2.1c-1.4-1.4-2.1-3.1-2.1-5.2c0-2,0.7-3.7,2.1-5.2
		c1.4-1.4,3.2-2.1,5.2-2.1c2.1,0,3.8,0.7,5.3,2.1c1.4,1.4,2.1,3.2,2.1,5.2c0,2.1-0.7,3.8-2.1,5.2C34.2,25.5,32.5,26.2,30.4,26.2z
		 M24.8,63.8c6.1-1.5,14.6-2.3,25.4-2.3c5.1,0,9.8,0.2,14.1,0.5c4.3,0.3,7.9,0.9,10.9,1.6c-0.1-0.7,0-1.3,0.3-2
		c0.2-0.6,0.4-1.3,0.5-2c-6.3-1.7-15-2.6-26-2.6c-11.2,0-19.9,0.9-26.2,2.6c0.2,0.7,0.4,1.4,0.7,2C24.7,62.5,24.8,63.2,24.8,63.8z
		 M74.9,84.4l-0.7-5.2c-5.9-1.8-13.9-2.7-24.2-2.7c-10.3,0-18.3,0.9-24.2,2.7L25,84.3c5.3-2.2,13.7-3.3,25.2-3.3
		C61.3,81,69.5,82.2,74.9,84.4z M25.7,74.1l1.5,0.2l5.6-4.9l-7.6-1.5C25.7,69.9,25.9,72,25.7,74.1z M50,20.7c-2.1,0-3.8-0.7-5.2-2.1
		c-1.4-1.4-2.1-3.1-2.1-5.2c0-2,0.7-3.7,2.1-5.2c1.4-1.4,3.1-2.1,5.2-2.1c2,0,3.7,0.7,5.2,2.1c1.4,1.4,2.1,3.2,2.1,5.2
		c0,2.1-0.7,3.8-2.1,5.2C53.7,20,52,20.7,50,20.7z M56.8,69.2L50,65.9l-6.8,3.3l6.8,3.3L56.8,69.2z M69.5,26.2
		c-2.1,0-3.8-0.7-5.2-2.1c-1.4-1.4-2.1-3.1-2.1-5.2c0-2,0.7-3.7,2.1-5.2c1.4-1.4,3.1-2.1,5.2-2.1c2,0,3.7,0.7,5.2,2.1
		c1.4,1.4,2.1,3.2,2.1,5.2c0,2.1-0.7,3.8-2.1,5.2C73.2,25.5,71.5,26.2,69.5,26.2z M74.2,74.1c-0.1-2.1,0-4.2,0.4-6.1l-7.5,1.4
		l5.5,4.9L74.2,74.1z M87.5,34.6c-2.1,0-3.8-0.7-5.2-2.1c-1.4-1.4-2.1-3.1-2.1-5.1s0.7-3.7,2.1-5.2c1.4-1.5,3.1-2.2,5.2-2.2
		c2.1,0,3.8,0.7,5.2,2.2c1.4,1.5,2.1,3.2,2.1,5.2s-0.7,3.7-2.1,5.1C91.3,33.9,89.6,34.6,87.5,34.6z"/>

</svg>
