<?xml version="1.0" encoding="utf-8"?>
<!-- Generator: Adobe Illustrator 19.0.0, SVG Export Plug-In . SVG Version: 6.00 Build 0)  -->
<svg version="1.1" id="r" xmlns="http://www.w3.org/2000/svg" xmlns:xlink="http://www.w3.org/1999/xlink" x="0px" y="0px"
	 viewBox="0 0 100 100" enable-background="new 0 0 100 100" xml:space="preserve">

	<path id="XMLID_22_" fill="#FFFFFF" d="M75,69.3l3.3,3.3v3.3h3.3v13.5H18.4V75.9h3.3v-3.3l3.3-3.3h3.3V25.9h-6.6V6h11.6v7.5h10.1V6
		h13.2v7.5h10V6h11.7v19.9h-6.6v43.4H75z"/>

	<path id="XMLID_4_" d="M75,69.3l3.3,3.4v3.2h3.3v13.5H18.4V75.9h3.3v-3.2l3.3-3.4h6.6v3.4h36.8v-3.4H75z M68.4,25.9v-3.3H31.6v3.3
		h-9.9V6h11.6v7.5h10.1V6h13.2v7.5h10V6h11.7v19.9H68.4z M25,75.9V81h50v-5.1H25z M28.3,25.9v8.4H40v-8.4H28.3z M28.3,37.6h5.9v8.3
		h-5.9V37.6z M28.3,49.3H40v8.3H28.3V49.3z M28.3,60.9h5.9v8.4h-5.9V60.9z M37.5,37.6h10.7v8.3H37.5V37.6z M37.5,60.9h10.7v8.4H37.5
		V60.9z M43.3,25.9h13.4v8.4H43.3V25.9z M43.3,49.3h13.4v8.3H43.3V49.3z M51.7,37.6h10.8v8.3H51.7V37.6z M51.7,60.9h10.8v8.4H51.7
		V60.9z M60,25.9h11.7v8.4H60V25.9z M60,49.3h11.7v8.3H60V49.3z M65.9,37.6h5.8v8.3h-5.8V37.6z M65.9,60.9h5.8v8.4h-5.8V60.9z"/>

</svg>
