<?xml version="1.0" encoding="utf-8"?>
<!-- Generator: Adobe Illustrator 19.0.0, SVG Export Plug-In . SVG Version: 6.00 Build 0)  -->
<svg version="1.1" id="K" xmlns="http://www.w3.org/2000/svg" xmlns:xlink="http://www.w3.org/1999/xlink" x="0px" y="0px"
	 viewBox="0 0 100 100" enable-background="new 0 0 100 100" xml:space="preserve">

	<path id="XMLID_9_" fill="#FFFFFF" d="M57.5,29.4v4.5l25.8,13.8v41.7H16.6V47.7L42.5,34v-4.6H28.3v-15h14.2V6h15v8.4h14.1v15H57.5z
		 M68.4,57.7l-18.3-9.8l-18.6,9.8v16.7h36.9V57.7z"/>

	<path id="XMLID_4_" d="M57.5,29.4v4.5l25.8,13.8v41.7H16.6V47.7L42.5,34v-4.6H28.3v-15h14.2V6h15v8.4h14.1v15H57.5z M54.1,36v-9.9
		h14.3v-8.4H54.1V9.4h-8.3v8.3H31.5v8.4h14.3v10L19.9,49.9V86H80V49.7L54.1,36z M71.7,56l-0.1,21.7H28.3v-22L50,44.4L71.7,56z
		 M68.4,57.7l-18.3-9.8l-18.6,9.8v16.7h36.9V57.7z"/>

</svg>
