<?xml version="1.0" encoding="utf-8"?>
<!-- Generator: Adobe Illustrator 19.0.0, SVG Export Plug-In . SVG Version: 6.00 Build 0)  -->
<svg version="1.1" id="Q" xmlns="http://www.w3.org/2000/svg" xmlns:xlink="http://www.w3.org/1999/xlink" x="0px" y="0px"
	 viewBox="0 0 100 100" enable-background="new 0 0 100 100" xml:space="preserve">

	<path id="XMLID_9_" fill="#FFFFFF" d="M57.4,26.1l11-5.9V6h14.9v24.2l-16.5,8.7l16.5,8.8v41.7H16.6V47.7L33.2,39l-16.6-8.8V6h14.9
		v14.2l11,5.8V6h14.9V26.1z M68.4,57.7L50,47.9l-18.5,9.8v16.7h36.9V57.7z"/>

	<path id="XMLID_4_" d="M57.4,26.1l11-5.9V6h14.9v24.2l-16.5,8.7l16.5,8.8v41.7H16.6V47.7L33.2,39l-16.6-8.8V6h14.9v14.2l11,5.8V6
		h14.9V26.1z M80,49.5L60,39l20-10.8V9.4h-8.4v12.7l-17.5,9.4V9.4h-8.3v22.1l-17.5-9.4V9.4h-8.4L20,28.2L39.9,39L20,49.5L19.9,86H80
		V49.5z M71.7,56l-0.1,21.7H28.3v-22L50,44.4L71.7,56z M68.4,57.7L50,47.9l-18.5,9.8v16.7h36.9V57.7z"/>

</svg>
