<?xml version="1.0" encoding="utf-8"?>
<!-- Generator: Adobe Illustrator 19.0.0, SVG Export Plug-In . SVG Version: 6.00 Build 0)  -->
<svg version="1.1" id="R" xmlns="http://www.w3.org/2000/svg" xmlns:xlink="http://www.w3.org/1999/xlink" x="0px" y="0px"
	 viewBox="0 0 100 100" enable-background="new 0 0 100 100" xml:space="preserve">

	<path id="XMLID_9_" fill="#FFFFFF" d="M16.6,47.7L33.2,39l-16.6-8.8V14.4h14.9v5.8l18.6,9.7l18.3-9.7v-5.8h14.9v15.8L66.9,39
		l16.4,8.7v41.7H16.6V47.7z M49.9,47.9l-18.4,9.8v16.7h36.9V57.7L49.9,47.9z"/>

	<path id="XMLID_4_" d="M16.6,47.7L33.2,39l-16.6-8.8V14.4h14.9v5.8l18.6,9.7l18.3-9.7v-5.8h14.9v15.8L66.9,39l16.4,8.7v41.7H16.6
		V47.7z M28.3,22.1v-4.4h-8.4L20,28.2L39.9,39L20,49.5L19.9,86H80V49.5L60,39l20-10.8V17.7h-8.4v4.4L49.9,33.7L28.5,22.2L28.3,22.1z
		 M71.7,56l-0.1,21.7H28.3v-22L50,44.4L71.7,56z M49.9,47.9l-18.4,9.8v16.7h36.9V57.7L49.9,47.9z"/>

</svg>
