<?xml version="1.0" encoding="utf-8"?>
<!-- Generator: Adobe Illustrator 19.0.0, SVG Export Plug-In . SVG Version: 6.00 Build 0)  -->
<svg version="1.1" id="B" xmlns="http://www.w3.org/2000/svg" xmlns:xlink="http://www.w3.org/1999/xlink" x="0px" y="0px"
	 viewBox="0 0 100 100" enable-background="new 0 0 100 100" xml:space="preserve">

	<path id="XMLID_7_" fill="#FFFFFF" d="M16.6,52.7v-20L50,14.9l16.9,9L31.5,42.6v10.1v12.9v8.8h36.9v-9V52.7V42.6l-10.9-5.7l16.9-9
		l8.9,4.8v20v12.8v23.9H16.6V65.6V52.7z"/>

	<path id="XMLID_4_" d="M16.6,52.7v-20L50,14.9l16.9,9L31.5,42.6v10.1v12.9v8.8h36.9v-9V52.7V42.6l-10.9-5.7l16.9-9l8.9,4.8v20v12.8
		v23.9H16.6V65.6V52.7z M80,52.7V35.4l-5.9-3.1l-8.5,4.5l6.1,3.2v12.7l-0.1,25H28.3v-25V40.4L59,24.1l-9.1-4.8l-30,16.2v17.2V86H80
		V52.7z"/>

</svg>
