<?xml version="1.0" encoding="utf-8"?>
<!-- Generator: Adobe Illustrator 19.0.0, SVG Export Plug-In . SVG Version: 6.00 Build 0)  -->
<svg version="1.1" id="N" xmlns="http://www.w3.org/2000/svg" xmlns:xlink="http://www.w3.org/1999/xlink" x="0px" y="0px"
	 viewBox="0 0 100 100" enable-background="new 0 0 100 100" xml:space="preserve">

	<path id="XMLID_9_" fill="#FFFFFF" d="M83.3,14.4v15.8L66.9,39l16.4,8.7v41.7H16.6V47.7l34.6-18.3H16.6v-15H83.3z M49.9,47.9
		l-18.4,9.8v16.7h36.9V57.7L49.9,47.9z"/>

	<path id="XMLID_4_" d="M83.3,14.4v15.8L66.9,39l16.4,8.7v41.7H16.6V47.7l34.6-18.3H16.6v-15H83.3z M80,28.3V17.7H19.9v8.4h44.5
		L19.9,49.8V86H80V49.5L60,39L80,28.3z M71.7,56l-0.1,21.7H28.3v-22L50,44.4L71.7,56z M49.9,47.9l-18.4,9.8v16.7h36.9V57.7
		L49.9,47.9z"/>

</svg>
