<?xml version="1.0" encoding="utf-8"?>
<!-- Generator: Adobe Illustrator 19.0.0, SVG Export Plug-In . SVG Version: 6.00 Build 0)  -->
<svg version="1.1" id="P" xmlns="http://www.w3.org/2000/svg" xmlns:xlink="http://www.w3.org/1999/xlink" x="0px" y="0px"
	 viewBox="0 0 100 100" enable-background="new 0 0 100 100" xml:space="preserve">

	<path id="XMLID_9_" fill="#FFFFFF" d="M16.6,47.7l33.5-17.8l33.2,17.8v41.7H16.6V47.7z M50,47.9c-3.1,1.6-6.2,3.2-9.3,4.8
		c-3.1,1.6-6.2,3.3-9.3,5c0,2.8,0,5.6,0,8.4c0,2.8,0,5.5,0,8.3c6.1,0,12.3,0,18.4,0c6.1,0,12.3,0,18.5,0c0-2.8,0-5.6,0-8.3
		c0-2.8,0-5.6,0-8.4c-3.1-1.7-6.2-3.3-9.3-5C56,51.2,53,49.5,50,47.9z"/>

	<path id="XMLID_4_" d="M16.6,47.7l33.5-17.8l33.2,17.8v41.7H16.6V47.7z M80,49.7L50.1,33.8L19.9,49.9V86H80V49.7z M71.7,56
		c0,3.6,0,7.2,0,10.9c0,3.6-0.1,7.3-0.1,10.8c-7.2,0-14.4,0-21.6,0c-7.2,0-14.5,0-21.7,0c0-3.7,0-7.3,0-11c0-3.7,0-7.3,0-11
		c3.6-1.9,7.2-3.8,10.9-5.6c3.6-1.9,7.3-3.8,10.8-5.6c3.6,1.9,7.2,3.9,10.8,5.8C64.5,52.2,68.1,54.1,71.7,56z M50,47.9
		c-3.1,1.6-6.2,3.2-9.3,4.8c-3.1,1.6-6.2,3.3-9.3,5c0,2.8,0,5.6,0,8.4c0,2.8,0,5.5,0,8.3c6.1,0,12.3,0,18.4,0c6.1,0,12.3,0,18.5,0
		c0-2.8,0-5.6,0-8.3c0-2.8,0-5.6,0-8.4c-3.1-1.7-6.2-3.3-9.3-5C56,51.2,53,49.5,50,47.9z"/>

</svg>
