<?xml version="1.0" encoding="utf-8"?>
<!-- Generator: Adobe Illustrator 19.0.0, SVG Export Plug-In . SVG Version: 6.00 Build 0)  -->
<svg version="1.1" id="K" xmlns="http://www.w3.org/2000/svg" xmlns:xlink="http://www.w3.org/1999/xlink" x="0px" y="0px"
	 viewBox="0 0 100 100" enable-background="new 0 0 100 100" xml:space="preserve">

	<path id="XMLID_9_" fill="#FFFFFF" d="M51.8,5.2v5.4h5.4v3.6h-5.4v5.4l33.2,20l-8.8,26.6v24H23.8v-24L15,39.6l33.2-20v-5.4h-5.4
		v-3.6h5.4V5.2H51.8z"/>

	<path id="XMLID_4_" d="M51.8,5.2v5.4h5.4v3.6h-5.4v5.4l33.2,20l-8.8,26.6v24H23.8v-24L15,39.6l33.2-20v-5.4h-5.4v-3.6h5.4V5.2H51.8
		z M19.4,41.2l8,25h20.8V23.7L19.4,41.2z M27.4,86.6h45.2V69.8H27.4V86.6z M51.8,66.2h20.8l8-25L51.8,23.7V66.2z"/>
	
</svg>
