<?xml version="1.0" encoding="utf-8"?>
<!-- Generator: Adobe Illustrator 19.0.0, SVG Export Plug-In . SVG Version: 6.00 Build 0)  -->
<svg version="1.1" id="R" xmlns="http://www.w3.org/2000/svg" xmlns:xlink="http://www.w3.org/1999/xlink" x="0px" y="0px"
	 viewBox="0 0 100 100" enable-background="new 0 0 100 100" xml:space="preserve">

	<path id="XMLID_9_" fill="#FFFFFF" d="M76.2,5.2v18H69v45.4h7.2v21.6H23.8V68.6H31V23.2h-7.2v-18h10.8v7.2h7.8V5.2h15.2v7.2h7.8
		V5.2H76.2z"/>

	<path id="XMLID_4_" d="M76.2,5.2v18H69v45.4h7.2v21.6H23.8V68.6H31V23.2h-7.2v-18h10.8v7.2h7.8V5.2h15.2v7.2h7.8V5.2H76.2z
		 M27.4,8.8v10.8h45.2V8.8H69V16H58.3H54V8.8h-8V16H31V8.8H27.4z M27.4,72.2v14.4h45.2V72.2H27.4z M34.6,68.6h30.8V23.2H34.6V68.6z"
		/>

</svg>
