<?xml version="1.0" encoding="utf-8"?>
<!-- Generator: Adobe Illustrator 19.0.0, SVG Export Plug-In . SVG Version: 6.00 Build 0)  -->
<svg version="1.1" id="B" xmlns="http://www.w3.org/2000/svg" xmlns:xlink="http://www.w3.org/1999/xlink" x="0px" y="0px"
	 viewBox="0 0 100 100" enable-background="new 0 0 100 100" xml:space="preserve">

	<path id="XMLID_10_" fill="#FFFFFF" d="M53.4,5.2l27.2,30.2v30.4l-9,9v15.4H28.4V74.8l-9-9V35.4L46.6,5.2H53.4z"/>

	<path id="XMLID_4_" d="M53.4,5.2l27.2,30.2v30.4l-9,9v15.4H28.4V74.8l-9-9V35.4L46.6,5.2H53.4z M48.2,8.8L23,36.8v27.5l7.9,7.9
		h38.2l7.9-7.9V36.8l-25.2-28H48.2z M32,86.6h36V75.8H32V86.6z M55.4,35.7h7.2v10.8h-7.2v13.2H44.6V46.5h-7.1V35.7h7.1v-7.2h10.8
		V35.7z M48.2,39.3H41v3.6h7.2v13.2h3.6V42.9H59v-3.6h-7.2v-7.2h-3.6V39.3z"/>

</svg>
