<?xml version="1.0" encoding="utf-8"?>
<!-- Generator: Adobe Illustrator 19.0.0, SVG Export Plug-In . SVG Version: 6.00 Build 0)  -->
<svg version="1.1" id="N" xmlns="http://www.w3.org/2000/svg" xmlns:xlink="http://www.w3.org/1999/xlink" x="0px" y="0px"
	 viewBox="0 0 100 100" enable-background="new 0 0 100 100" xml:space="preserve">

	<path id="XMLID_7_" fill="#FFFFFF" d="M62.9,21.2c4.5,3.5,8.4,7.8,11.7,12.8c3.3,5,5.9,10.5,7.7,16.5c1.8,6,2.7,12.2,2.7,18.5v20.5
		H31.9c0-2.7,0.5-5.4,1.5-8c1-2.6,2.4-5,4.3-7L48,62.9c1.2-1.3,2.2-2.9,3-4.6c0.8-1.7,1.4-3.5,1.7-5.2c-1.4,1.7-3.3,3.4-5.5,5.2
		c-2.3,1.8-4.6,3.2-6.9,4.1c-1.1,0.4-2.6,1.3-4.6,2.7c-2,1.4-3.6,2.6-4.7,3.8c-1.1,1.1-2.5,2-4,2.7c-1.5,0.7-3.1,1-4.8,1
		c-2,0-3.7-0.9-5.1-2.5c-1.4-1.7-2.1-3.8-2.1-6.2c0-1.7,0.3-3.1,1-4.4l20.1-44.3l-0.8-9.3l13,7.6C53.6,15.1,58.4,17.7,62.9,21.2z"/>

	<path id="XMLID_4_" d="M62.9,21.2c4.5,3.5,8.4,7.8,11.7,12.8c3.3,5,5.9,10.5,7.7,16.5c1.8,6,2.7,12.2,2.7,18.5v20.5H31.9
		c0-2.7,0.5-5.4,1.5-8c1-2.6,2.4-5,4.3-7L48,62.9c1.2-1.3,2.2-2.9,3-4.6c0.8-1.7,1.4-3.5,1.7-5.2c-1.4,1.7-3.3,3.4-5.5,5.2
		c-2.3,1.8-4.6,3.2-6.9,4.1c-1.1,0.4-2.6,1.3-4.6,2.7c-2,1.4-3.6,2.6-4.7,3.8c-1.1,1.1-2.5,2-4,2.7c-1.5,0.7-3.1,1-4.8,1
		c-2,0-3.7-0.9-5.1-2.5c-1.4-1.7-2.1-3.8-2.1-6.2c0-1.7,0.3-3.1,1-4.4l20.1-44.3l-0.8-9.3l13,7.6C53.6,15.1,58.4,17.7,62.9,21.2z
		 M39.5,12.5l0.3,3.2L19,61.6c-0.3,0.6-0.4,1.4-0.4,2.3c0,1.4,0.4,2.6,1,3.6c0.7,1,1.6,1.5,2.6,1.5c1.1,0,2.3-0.2,3.4-0.7
		c1.1-0.5,2.1-1.1,2.9-1.9c1.3-1.3,2.8-2.6,4.7-4c1.9-1.4,3.8-2.5,5.7-3.3c1.3-0.5,2.8-1.4,4.5-2.5c1.7-1.1,3.2-2.4,4.6-3.8
		c1.4-1.4,2.6-2.8,3.5-4.2c0.9-1.4,1.4-2.6,1.4-3.6c0-1.2,0.6-1.8,1.8-1.8s1.8,0.6,1.8,1.8v5.1c0,2.7-0.5,5.4-1.5,8
		c-1,2.6-2.4,5-4.3,7L40.4,76.8c-1.1,1.2-2,2.6-2.8,4.3c-0.8,1.6-1.4,3.3-1.7,4.8h45.5V69c0-6-0.8-11.8-2.5-17.4
		c-1.7-5.6-4.1-10.8-7.2-15.5c-3.1-4.7-6.8-8.7-11-12.1c-4.2-3.3-8.8-5.7-13.8-7.2L39.5,12.5z"/>

</svg>
