<?xml version="1.0" encoding="utf-8"?>
<!-- Generator: Adobe Illustrator 19.0.0, SVG Export Plug-In . SVG Version: 6.00 Build 0)  -->
<svg version="1.1" id="P" xmlns="http://www.w3.org/2000/svg" xmlns:xlink="http://www.w3.org/1999/xlink" x="0px" y="0px"
	 viewBox="0 0 100 100" enable-background="new 0 0 100 100" xml:space="preserve">

	<path id="XMLID_9_" fill="#FFFFFF" d="M40.8,24.6c-1.2-1.8-1.8-3.8-1.8-5.9c0-3.1,1.1-5.7,3.2-7.8c2.1-2.1,4.7-3.2,7.8-3.2
		c3.1,0,5.7,1.1,7.8,3.2c2.1,2.1,3.2,4.7,3.2,7.8c0,2.1-0.6,4.1-1.8,5.9c-1.2,1.8-2.7,3.2-4.7,4.1l12.5,27.2l-6.5,6.7l12.5,16.7v8.4
		H26.9v-8.4l12.5-16.7l-6.5-6.7l12.5-27.2C43.5,27.8,41.9,26.4,40.8,24.6z"/>

	<path id="XMLID_4_" d="M40.8,24.6c-1.2-1.8-1.8-3.8-1.8-5.9c0-3.1,1.1-5.7,3.2-7.8c2.1-2.1,4.7-3.2,7.8-3.2c3.1,0,5.7,1.1,7.8,3.2
		c2.1,2.1,3.2,4.7,3.2,7.8c0,2.1-0.6,4.1-1.8,5.9c-1.2,1.8-2.7,3.2-4.7,4.1l12.5,27.2l-6.5,6.7l12.5,16.7v8.4H26.9v-8.4l12.5-16.7
		l-6.5-6.7l12.5-27.2C43.5,27.8,41.9,26.4,40.8,24.6z M30.5,80.5v3.6h39v-3.6L57.3,64.3H42.7L30.5,80.5z M37.2,55.2l5.4,5.5h14.8
		l5.4-5.5L51.1,29.7h-2.2L37.2,55.2z M44.8,13.5c-1.4,1.4-2.2,3.2-2.2,5.3c0,2.1,0.7,3.8,2.2,5.3c1.4,1.4,3.2,2.1,5.3,2.1
		c2.1,0,3.8-0.7,5.3-2.1c1.4-1.4,2.2-3.2,2.2-5.3c0-2.1-0.7-3.8-2.2-5.3c-1.4-1.4-3.2-2.1-5.3-2.1C47.9,11.3,46.2,12.1,44.8,13.5z"
		/>

</svg>
