<?xml version="1.0" encoding="utf-8"?>
<!-- Generator: Adobe Illustrator 19.0.0, SVG Export Plug-In . SVG Version: 6.00 Build 0)  -->
<svg version="1.1" id="k" xmlns="http://www.w3.org/2000/svg" xmlns:xlink="http://www.w3.org/1999/xlink" x="0px" y="0px"
	 viewBox="0 0 100 100" enable-background="new 0 0 100 100" xml:space="preserve">

	<path id="XMLID_8_" fill="#FFFFFF" d="M51.8,5.2v5.4h5.4v3.6h-5.4v5.4l33.2,20l-8.8,26.6v24l-52.5,0.1l0.1-24.1L15,39.6l33.2-20
		v-5.4h-5.4v-3.6h5.4V5.2H51.8z"/>

	<path id="XMLID_4_" d="M51.8,5.2v5.4h5.4v3.6h-5.4v5.4l33.2,20l-8.8,26.6v24l-52.5,0.1l0.1-24.1L15,39.6l33.2-20v-5.4h-5.4v-3.6
		h5.4V5.2H51.8z M19.4,41.2l8,25H31l-7.2-23.4l20.8-12.7v36.1h3.6V23.7L19.4,41.2z M51.8,66.2h3.6V30.1l20.8,12.7L69,66.2h3.6l8-25
		L51.8,23.7V66.2z"/>

</svg>
