<?xml version="1.0" encoding="utf-8"?>
<!-- Generator: Adobe Illustrator 19.0.0, SVG Export Plug-In . SVG Version: 6.00 Build 0)  -->
<svg version="1.1" id="K" xmlns="http://www.w3.org/2000/svg" xmlns:xlink="http://www.w3.org/1999/xlink" x="0px" y="0px"
	 viewBox="0 0 100 100" enable-background="new 0 0 100 100" xml:space="preserve">

	<path id="XMLID_17_" fill="#FFFFFF" d="M51.7,17.7h4.8c2.3,0,4.2,0.8,5.9,2.5c1.7,1.7,2.5,3.6,2.5,5.9v5.5L67,28
		c1.1-2,2.8-3.3,5-3.9c2.2-0.6,4.4-0.3,6.4,0.8l11.4,6.5c1.9,1.2,3.2,2.9,3.9,5.1c0.6,2.2,0.3,4.4-0.9,6.4l-9.9,17.2
		c-1.8,3-4.5,4.4-8,4.3H80c1.7,0,3.3,0.7,4.6,2c1.3,1.3,2,2.9,2,4.6v3.4c0,1.8-0.7,3.3-2,4.7C83.3,80.4,81.7,81,80,81H19.9
		c-1.8,0-3.4-0.6-4.6-1.9c-1.3-1.3-2-2.9-2-4.7V71c0-1.7,0.7-3.3,2-4.6c1.3-1.3,2.9-2,4.6-2h5c-3.5,0.1-6.2-1.3-7.9-4.3L7.1,42.9
		c-1.2-2-1.5-4.1-0.9-6.4c0.6-2.2,1.9-4,3.9-5.1l11.4-6.5c1.9-1.1,4-1.4,6.3-0.8c2.2,0.6,4,1.9,5.2,3.8l2.1,3.8v-5.6
		c0-2.3,0.8-4.2,2.5-5.9c1.6-1.7,3.6-2.5,6-2.5h4.8l-0.8-4.2l-4.1-0.9V9.4l4.1-0.8l0.8-4.2h3.4l0.8,4.2l4.1,0.8v3.2l-4.1,0.9
		L51.7,17.7z M22.4,91.1c-1.5,0-2.6-0.9-3.2-2.5c-0.6-1.7-1.4-3.1-2.3-4.3c11,0,22,0,33,0s22,0,33,0c-0.9,1.1-1.6,2.5-2.3,4.3
		c-0.6,1.7-1.7,2.5-3.3,2.5c-9.2,0-18.4,0-27.6,0S31.5,91.1,22.4,91.1z"/>

	<path id="XMLID_4_" d="M51.7,17.7h4.8c2.3,0,4.2,0.8,5.9,2.5c1.7,1.7,2.5,3.6,2.5,5.9v5.5L67,28c1.1-2,2.8-3.3,5-3.9
		c2.2-0.6,4.4-0.3,6.4,0.8l11.4,6.5c1.9,1.2,3.2,2.9,3.9,5.1c0.6,2.2,0.3,4.4-0.9,6.4l-9.9,17.2c-1.8,3-4.5,4.4-8,4.3H80
		c1.7,0,3.3,0.7,4.6,2c1.3,1.3,2,2.9,2,4.6v3.4c0,1.8-0.7,3.3-2,4.7C83.3,80.4,81.7,81,80,81H19.9c-1.8,0-3.4-0.6-4.6-1.9
		c-1.3-1.3-2-2.9-2-4.7V71c0-1.7,0.7-3.3,2-4.6c1.3-1.3,2.9-2,4.6-2h5c-3.5,0.1-6.2-1.3-7.9-4.3L7.1,42.9c-1.2-2-1.5-4.1-0.9-6.4
		c0.6-2.2,1.9-4,3.9-5.1l11.4-6.5c1.9-1.1,4-1.4,6.3-0.8c2.2,0.6,4,1.9,5.2,3.8l2.1,3.8v-5.6c0-2.3,0.8-4.2,2.5-5.9
		c1.6-1.7,3.6-2.5,6-2.5h4.8l-0.8-4.2l-4.1-0.9V9.4l4.1-0.8l0.8-4.2h3.4l0.8,4.2l4.1,0.8v3.2l-4.1,0.9L51.7,17.7z M69.4,58.1
		l3.7,2.2c2.9,1.7,5.2,1,6.9-1.9l10-17.2c1.6-2.9,1-5.2-1.9-6.9l-11.4-6.5c-2.9-1.7-5.2-1.1-6.8,1.8L61.5,44l0.1-17.9
		c0-3.4-1.7-5.1-5.1-5.1H43.3c-3.3,0-5,1.7-5,5.1v17.8L30,29.6c-1.7-2.9-4-3.6-6.9-1.9l-11.4,6.6c-2.9,1.7-3.5,4-1.8,6.9l10,17.2
		c1.6,2.9,3.9,3.6,6.8,1.9l3.8-2.2c5.6-4.7,12.1-7.1,19.4-7.1C57.2,51,63.7,53.4,69.4,58.1z M19.9,67.8c-2.2,0-3.3,1.1-3.3,3.2v3.4
		c0,2.2,1.1,3.3,3.3,3.3H80c2.1,0,3.2-1.1,3.2-3.3V71c0-2.1-1.1-3.2-3.2-3.2H19.9z M22.4,91.1c-1.5,0-2.6-0.9-3.2-2.5
		c-0.6-1.7-1.4-3.1-2.3-4.3c11,0,22,0,33,0s22,0,33,0c-0.9,1.1-1.6,2.5-2.3,4.3c-0.6,1.7-1.7,2.5-3.3,2.5c-9.2,0-18.4,0-27.6,0
		S31.5,91.1,22.4,91.1z M19.9,35.4c2.9-1.6,5.2-1,6.9,1.9l4.9,8.4c1.7,2.9,1.1,5.2-1.8,6.9c-2.9,1.7-5.2,1.1-6.9-1.8l-4.9-8.5
		C16.4,39.5,17,37.2,19.9,35.4z M21.6,70.2h6.6v5h-6.6V70.2z M70.8,64.4c-2.5-3.1-5.5-5.5-9.1-7.3c-3.6-1.8-7.6-2.8-11.8-2.8
		c-4.2,0-8.1,0.9-11.8,2.8c-3.6,1.8-6.7,4.3-9.1,7.3H70.8z M38.3,70.2h6.6v5h-6.6V70.2z M49.9,26.1c3.4,0,5.1,1.7,5.1,5v9.8
		c0,3.3-1.7,5-5.1,5c-3.3,0-5-1.7-5-5v-9.8C44.9,27.8,46.6,26.1,49.9,26.1z M55,70.2h6.6v5H55V70.2z M79.9,35.4
		c2.9,1.7,3.5,4,1.8,6.9l-4.9,8.5c-1.7,2.9-4,3.5-6.9,1.8c-2.9-1.7-3.5-4-1.8-6.9l4.9-8.4C74.7,34.4,77,33.8,79.9,35.4z M71.6,70.2
		h6.6v5h-6.6V70.2z"/>

</svg>
