<?xml version="1.0" encoding="utf-8"?>
<!-- Generator: Adobe Illustrator 19.0.0, SVG Export Plug-In . SVG Version: 6.00 Build 0)  -->
<svg version="1.1" id="n" xmlns="http://www.w3.org/2000/svg" xmlns:xlink="http://www.w3.org/1999/xlink" x="0px" y="0px"
	 viewBox="0 0 100 100" enable-background="new 0 0 100 100" xml:space="preserve">

	<path id="XMLID_12_" fill="#FFFFFF" d="M74.2,72.7H27.5c-1.9,0-2.9-0.8-3-2.5c-0.1-1.7,1-3.6,3.3-5.7c0.9-1.1,2-2.2,3.1-3.3
		c1.1-1,2.2-2.1,3.3-3.1c-0.8-0.5-1.5-1-2.2-1.5c-0.7-0.5-1.4-1-2.2-1.4c-1,0.9-2,1.7-3.1,2.4c-1.1,0.7-2.3,1.2-3.6,1.3
		c-0.3,0-0.8,0.1-1.5,0.3c-0.6,0.2-0.9,0.1-0.9-0.3c-0.6,0.1-1.1,0.1-1.5-0.1c-0.4-0.2-0.9-0.4-1.5-0.5c-0.7-0.1-1.8-1-3.1-2.5
		c-1.3-1.5-2.1-2.6-2.5-3.3c-0.6-2.5,0-4.6,1.8-6.5c1.8-1.9,3.3-3.9,4.4-6c1.1-2.3,2.5-4.4,4.1-6.5c1.6-2.1,2.5-4.6,2.9-7.5
		c2.3-0.8,4.1-2.3,5.5-4.6c1.4-2.3,3-4.3,4.7-6.2c0.4-1.4,0.6-2.9,0.5-4.5c0-1.6-0.2-3-0.5-4.4C36,6.1,36.7,6,37.6,6
		c0.9,0,1.9,0.1,2.8,0.1c0.5,0.1,1,0.3,1.7,0.5c1.6,0.9,3.1,2,4.5,3.5c1.4,1.5,2.4,3.1,3,5c1.4,0.7,2.8,1.3,4.2,1.9
		c1.4,0.6,2.8,1.2,4.1,1.9c4.1,1.8,7.9,1.7,11.6-0.3c-0.9,1.6-1.9,2.9-3,3.8c-0.5,0.4-1.1,0.8-1.7,1.2c3.7,3.5,7.9,4.4,12.7,2.8
		c-1,1.3-2.2,2.4-3.7,3.2c-0.3,0.3-0.7,0.5-1.2,0.6c-0.4,0.2-0.8,0.4-1.1,0.6C74,35.3,77.9,37.4,83,37c-1.4,1.1-2.8,1.8-4.3,2.1
		c-0.9,0.3-1.8,0.4-2.5,0.3c1.4,5,4.6,8,9.7,9c-1.7,0.6-3.3,0.9-4.8,0.9c-0.7,0-1.5,0-2.2-0.1c0,0.3,0.1,0.8,0.2,1.5
		C79,52.9,79,54.9,79,56.5c2,2.1,4.3,3.4,6.9,3.9c-1.7,0.6-3.3,0.9-4.8,0.9c-0.5,0-1.4-0.1-2.5-0.2c-0.3,1.7-0.5,3.4-0.8,5.2
		c1.9,2.1,4.3,3.5,7,4.1c-1.5,0.6-3.1,0.9-4.7,0.9c-1.3,0-2.8-0.2-4.5-0.7C75.2,71.3,74.7,72,74.2,72.7z M74.1,76.1
		c1.7,0,2.5,0.8,2.5,2.5c0,1.6-0.8,2.4-2.5,2.4H25.6c-1.6,0-2.4-0.8-2.4-2.4c0-1.7,0.8-2.5,2.4-2.5H74.1z M27.8,91.1
		c-1.3,0-2.2-0.9-2.7-2.5c-0.5-1.7-1.1-3.1-1.8-4.3c8.9,0,17.7,0,26.6,0c8.9,0,17.7,0,26.6,0c-0.7,1.1-1.3,2.5-1.8,4.3
		c-0.5,1.7-1.4,2.5-2.6,2.5c-7.4,0-14.8,0-22.3,0S35.1,91.1,27.8,91.1z M37.2,55.9c0.8-0.8,1.6-1.6,2.5-2.5c0.8-0.8,1.6-1.7,2.3-2.6
		c1.1-1.1,1.6-1.7,1.7-2c-0.8,0.3-1.2,0.6-1.2,0.7c-0.7,0.3-1.5,0.6-2.4,1c-0.8,0.4-1.7,0.7-2.5,0.9c-1.9-0.3-3.7,0.2-5.3,1.4
		c0.9,0.6,1.7,1.1,2.5,1.6C35.6,54.9,36.4,55.4,37.2,55.9z"/>

	<path id="XMLID_4_" d="M30.1,55.2c-1,0.9-2,1.7-3.1,2.4c-1.1,0.7-2.2,1.2-3.5,1.3c-0.3,0-0.8,0.1-1.5,0.3c-0.7,0.2-1,0.1-1-0.3
		c-0.6,0.1-1.1,0.1-1.5-0.1c-0.4-0.2-0.8-0.4-1.4-0.5c-0.7-0.1-1.8-1-3.1-2.5c-1.3-1.5-2.2-2.6-2.6-3.3c-0.5-1.9-0.1-3.7,1.1-5.4
		c1.2-1.6,2.4-3.3,3.7-4.8c1.2,2.2,3.3,4.7,6.1,7.4C26.3,52.6,28.5,54.4,30.1,55.2z M19.1,39.4c1.2-2.1,2.5-4.3,3.9-6.4
		c1.4-2.1,2.3-4.4,2.6-7c1.7-0.6,3.1-1.6,4.2-2.9c1.1-1.3,2.2-2.8,3.2-4.3l9,5.7c-0.2,0.1-0.3,0.4-0.3,0.8c0,1.1,0.4,2.1,1.1,2.9
		c-2.5,7.3-7.4,14.3-14.9,21.1c-1.1-1-2.6-2.4-4.4-4.1C21.8,43.7,20.3,41.7,19.1,39.4z M74.5,76.1c1.7,0,2.5,0.8,2.5,2.5
		c0,1.6-0.8,2.4-2.5,2.4H26c-1.7,0-2.5-0.8-2.5-2.4c0-1.7,0.8-2.5,2.5-2.5H74.5z M28.1,91.1c-1.3,0-2.1-0.9-2.6-2.5
		c-0.5-1.7-1.1-3.1-1.8-4.3c8.8,0,17.6,0,26.5,0s17.8,0,26.7,0c-0.7,1.1-1.4,2.5-1.9,4.3c-0.5,1.7-1.4,2.5-2.6,2.5
		c-7.4,0-14.8,0-22.2,0C42.8,91.1,35.4,91.1,28.1,91.1z M75.9,62.7c0.8-0.4,1.3-1,1.4-1.7c0.2-1.2-0.1-2-0.9-2.4
		c-5.2,1.9-11.3,2.8-18.3,2.6c-7-0.2-13.8-1.9-20.5-5.3c0.7-0.9,1.5-1.7,2.3-2.5c0.8-0.8,1.6-1.7,2.3-2.6c1.1-1.1,1.6-1.7,1.6-2
		c-0.7,0.3-1.1,0.6-1.1,0.7c-0.7,0.3-1.5,0.6-2.3,1c-0.8,0.4-1.7,0.7-2.5,0.9c-1.8-0.3-3.6,0.1-5.4,1.2c-1.1-0.7-1.7-1.1-2-1.4
		c7.1-6.6,12.1-13.6,15-21c0.7,0.1,1.1,0.1,1.2,0.1c3.2,0,4.8-1.6,4.8-4.9c0-1.1-0.3-2-1-2.7l3.8-5.6c1.5,0.7,2.8,1.3,3.9,1.8
		c4.1,1.8,7.9,1.7,11.6-0.3c-0.9,1.6-2,2.9-3.1,3.8c-0.5,0.4-1.1,0.8-1.7,1.2c3.7,3.5,8,4.4,12.8,2.8c-1,1.3-2.2,2.4-3.6,3.2
		c-0.5,0.3-1.4,0.7-2.5,1.2c2.7,4.5,6.6,6.5,11.7,6.2c-1.4,1.1-2.9,1.8-4.4,2.1c-0.9,0.3-1.7,0.4-2.4,0.3c1.3,5,4.5,8,9.6,9
		c-1.6,0.6-3.2,0.9-4.7,0.9c-0.7,0-1.5,0-2.2-0.1c0,0.3,0.1,0.8,0.2,1.5c-0.1,2.2-0.1,4.1-0.2,5.8c2,2.1,4.3,3.4,6.9,3.9
		c-1.6,0.6-3.2,0.9-4.7,0.9c-0.6,0-1.4-0.1-2.5-0.2c-0.3,1.7-0.6,3.4-0.9,5.2c1.9,2.2,4.3,3.6,7.1,4.1c-1.6,0.6-3.2,0.9-4.7,0.9
		c-1.3,0-2.8-0.2-4.5-0.7c-0.4,0.5-0.9,1.2-1.4,2.1H27.9c-2,0-3-0.8-3.1-2.5c-0.1-1.7,1-3.6,3.3-5.7c1-1.1,2.1-2.2,3.2-3.3
		c1.1-1,2.3-2,3.4-3c6.9,3.9,14,6.1,21.5,6.6C63.6,65.3,70.2,64.6,75.9,62.7z M29.7,30.4c-1.5,2.5-1.6,4.1-0.4,4.8
		c1.3,0.7,2.6-0.2,4-2.7c1.5-2.5,1.6-4.1,0.4-4.8C32.4,27.1,31.1,28,29.7,30.4z M34.9,16.2c0.1-0.1,0.4-0.4,0.8-0.9
		c0.5-1.4,0.7-2.9,0.6-4.5c-0.1-1.6-0.2-3-0.4-4.4c0.7-0.5,2.4-0.6,4.9-0.3c0.4,0.1,1,0.3,1.7,0.5c1.5,0.9,3,2,4.4,3.5
		c1.4,1.5,2.4,3.1,2.9,5c0.7,0.3,1.3,0.6,1.7,0.7L48,20.7c-0.3-0.1-0.8-0.2-1.3-0.2c-1.3,0-2.4,0.4-3.1,1.2L34.9,16.2z"/>

</svg>
