<?xml version="1.0" encoding="utf-8"?>
<!-- Generator: Adobe Illustrator 19.0.0, SVG Export Plug-In . SVG Version: 6.00 Build 0)  -->
<svg version="1.1" id="Q" xmlns="http://www.w3.org/2000/svg" xmlns:xlink="http://www.w3.org/1999/xlink" x="0px" y="0px"
	 viewBox="0 0 100 100" enable-background="new 0 0 100 100" xml:space="preserve">

	<path id="XMLID_18_" fill="#FFFFFF" d="M28.3,46c-0.2-2.5-0.4-4.9-0.5-7.4c-0.1-2.5-0.3-5-0.5-7.6c3.9,2.6,8.1,5.4,12.7,8.3
		c3.3-6.7,6.6-13.3,9.9-19.8c1.7,3.3,3.3,6.7,5,10c1.7,3.3,3.4,6.6,5,9.9c3.8-2.6,8-5.4,12.5-8.4c-0.1,2.5-0.3,5.1-0.4,7.6
		c-0.1,2.5-0.3,4.9-0.4,7.4c3.1,0,6.1,0,9.1,0s6,0,9,0c-2.2,4.5-4.4,8.9-6.6,13.4c-2.2,4.5-4.4,8.9-6.5,13.4c-8.9,0-17.9,0-26.8,0
		c-8.9,0-17.8,0-26.7,0c-2.2-4.5-4.4-8.9-6.6-13.4c-2.2-4.5-4.4-8.9-6.6-13.4c3,0.1,6,0.1,9.1,0.1C22.2,46,25.2,46,28.3,46z
		 M22.9,30c-1.8,0-3.4-0.6-4.6-1.9c-1.3-1.3-2-2.9-2-4.8c0-1.8,0.7-3.4,2-4.6c1.3-1.3,2.9-2,4.6-2c1.9,0,3.4,0.6,4.7,2
		c1.3,1.3,1.9,2.8,1.9,4.6c0,1.9-0.6,3.4-1.9,4.8C26.3,29.4,24.8,30,22.9,30z M25.7,76.1h48.5c1.7,0,2.5,0.8,2.5,2.5
		c0,1.6-0.8,2.4-2.5,2.4H25.7c-1.7,0-2.5-0.8-2.5-2.4C23.2,77,24,76.1,25.7,76.1z M27.8,91.1c-1.3,0-2.1-0.9-2.6-2.5
		c-0.5-1.7-1.1-3.1-1.9-4.3c8.9,0,17.7,0,26.6,0c8.9,0,17.8,0,26.7,0c-0.8,1.1-1.4,2.5-1.9,4.3c-0.5,1.7-1.3,2.5-2.6,2.5
		c-7.4,0-14.8,0-22.3,0S35.1,91.1,27.8,91.1z M49.9,17.7c-1.8,0-3.4-0.6-4.7-1.9c-1.3-1.3-2-2.8-2-4.7c0-1.9,0.7-3.4,2-4.8
		c1.3-1.3,2.8-1.9,4.7-1.9c1.9,0,3.4,0.6,4.7,1.9c1.3,1.3,1.9,2.9,1.9,4.8c0,1.9-0.6,3.4-1.9,4.7C53.3,17.1,51.8,17.7,49.9,17.7z
		 M76.9,30c-1.8,0-3.4-0.6-4.7-1.9c-1.3-1.3-2-2.9-2-4.8c0-1.8,0.7-3.4,2-4.6c1.3-1.3,2.8-2,4.7-2c1.9,0,3.4,0.6,4.7,2
		c1.3,1.3,1.9,2.8,1.9,4.6c0,1.9-0.6,3.4-1.9,4.8C80.3,29.4,78.8,30,76.9,30z"/>

	<path id="XMLID_4_" d="M28.3,46c-0.2-2.5-0.4-4.9-0.5-7.4c-0.1-2.5-0.3-5-0.5-7.6c3.9,2.6,8.1,5.4,12.7,8.3
		c3.3-6.7,6.6-13.3,9.9-19.8c1.7,3.3,3.3,6.7,5,10c1.7,3.3,3.4,6.6,5,9.9c3.8-2.6,8-5.4,12.5-8.4c-0.1,2.5-0.3,5.1-0.4,7.6
		c-0.1,2.5-0.3,4.9-0.4,7.4c3.1,0,6.1,0,9.1,0s6,0,9,0c-2.2,4.5-4.4,8.9-6.6,13.4c-2.2,4.5-4.4,8.9-6.5,13.4c-8.9,0-17.9,0-26.8,0
		c-8.9,0-17.8,0-26.7,0c-2.2-4.5-4.4-8.9-6.6-13.4c-2.2-4.5-4.4-8.9-6.6-13.4c3,0.1,6,0.1,9.1,0.1C22.2,46,25.2,46,28.3,46z
		 M69,37.1c-1.6,1.1-3.3,2.1-5,3.3s-3.4,2.3-5.1,3.6C57.4,41,55.8,38,54.3,35s-3-6-4.4-9.1c-1.5,3-3,6-4.5,8.9c-1.5,3-3,5.9-4.5,8.9
		c-1.8-1.1-3.5-2.3-5.2-3.4c-1.7-1.1-3.3-2.2-4.9-3.3c0.1,2.1,0.2,4.1,0.4,6.2c0.2,2,0.4,4.1,0.6,6.1c-2.9,0-5.7,0-8.6,0
		c-2.8,0-5.6,0-8.5,0c1.7,3.3,3.3,6.7,5,10c1.7,3.4,3.3,6.7,5,10c8.3,0,16.7,0,25,0c8.3,0,16.7,0,25,0c1.7-3.3,3.3-6.6,5-10
		c1.7-3.4,3.4-6.7,5-10c-2.8,0-5.6,0-8.3,0c-2.8,0-5.6,0-8.4,0C68.5,44.9,68.7,40.8,69,37.1z M22.9,30c-1.8,0-3.4-0.6-4.6-1.9
		c-1.3-1.3-2-2.9-2-4.8c0-1.8,0.7-3.4,2-4.6c1.3-1.3,2.9-2,4.6-2c1.9,0,3.4,0.6,4.7,2c1.3,1.3,1.9,2.8,1.9,4.6
		c0,1.9-0.6,3.4-1.9,4.8C26.3,29.4,24.8,30,22.9,30z M22.9,26.7c2.2,0,3.3-1.1,3.3-3.4c0-2.1-1.1-3.2-3.3-3.2
		c-2.2,0-3.3,1.1-3.3,3.2C19.6,25.6,20.7,26.7,22.9,26.7z M25.7,76.1h48.5c1.7,0,2.5,0.8,2.5,2.5c0,1.6-0.8,2.4-2.5,2.4H25.7
		c-1.7,0-2.5-0.8-2.5-2.4C23.2,77,24,76.1,25.7,76.1z M27.8,91.1c-1.3,0-2.1-0.9-2.6-2.5c-0.5-1.7-1.1-3.1-1.9-4.3
		c8.9,0,17.7,0,26.6,0c8.9,0,17.8,0,26.7,0c-0.8,1.1-1.4,2.5-1.9,4.3c-0.5,1.7-1.3,2.5-2.6,2.5c-7.4,0-14.8,0-22.3,0
		S35.1,91.1,27.8,91.1z M29.8,54c1.6,0,3.2,0,4.9,0c1.6,0,3.3,0,4.8,0c0.8,1.5,1.6,2.9,2.3,4.4c0.7,1.4,1.5,2.8,2.3,4.3
		c-1.7,0-3.3,0-4.9,0c-1.6,0-3.2,0-4.8,0c-0.8-1.4-1.6-2.8-2.4-4.3C31.3,57,30.5,55.5,29.8,54z M49.9,17.7c-1.8,0-3.4-0.6-4.7-1.9
		c-1.3-1.3-2-2.8-2-4.7c0-1.9,0.7-3.4,2-4.8c1.3-1.3,2.8-1.9,4.7-1.9c1.9,0,3.4,0.6,4.7,1.9c1.3,1.3,1.9,2.9,1.9,4.8
		c0,1.9-0.6,3.4-1.9,4.7C53.3,17.1,51.8,17.7,49.9,17.7z M49.9,43.9c0.9,1.5,1.7,2.9,2.5,4.3c0.8,1.4,1.7,2.8,2.5,4.1
		c-0.9,1.4-1.7,2.8-2.5,4.2c-0.8,1.4-1.7,2.8-2.5,4.2c-0.8-1.4-1.6-2.8-2.5-4.2c-0.9-1.4-1.7-2.8-2.5-4.2c0.8-1.3,1.6-2.7,2.5-4.1
		C48.3,46.8,49.1,45.4,49.9,43.9z M49.9,14.4c2.2,0,3.3-1.1,3.3-3.3c0-2.2-1.1-3.3-3.3-3.3c-2.2,0-3.3,1.1-3.3,3.3
		C46.6,13.3,47.7,14.4,49.9,14.4z M70.1,54c-0.8,1.5-1.6,2.9-2.3,4.4c-0.8,1.4-1.5,2.8-2.3,4.3c-1.6,0-3.2,0-4.8,0
		c-1.6,0-3.3,0-4.9,0c0.7-1.4,1.5-2.8,2.3-4.3c0.8-1.4,1.5-2.9,2.3-4.4c1.7,0,3.3,0,4.9,0C66.8,54,68.4,54,70.1,54z M76.9,30
		c-1.8,0-3.4-0.6-4.7-1.9c-1.3-1.3-2-2.9-2-4.8c0-1.8,0.7-3.4,2-4.6c1.3-1.3,2.8-2,4.7-2c1.9,0,3.4,0.6,4.7,2
		c1.3,1.3,1.9,2.8,1.9,4.6c0,1.9-0.6,3.4-1.9,4.8C80.3,29.4,78.8,30,76.9,30z M76.9,26.7c2.2,0,3.3-1.1,3.3-3.4
		c0-2.1-1.1-3.2-3.3-3.2c-2.2,0-3.3,1.1-3.3,3.2C73.6,25.6,74.7,26.7,76.9,26.7z"/>

</svg>
