<?xml version="1.0" encoding="utf-8"?>
<!-- Generator: Adobe Illustrator 19.0.0, SVG Export Plug-In . SVG Version: 6.00 Build 0)  -->
<svg version="1.1" id="R" xmlns="http://www.w3.org/2000/svg" xmlns:xlink="http://www.w3.org/1999/xlink" x="0px" y="0px"
	 viewBox="0 0 100 100" enable-background="new 0 0 100 100" xml:space="preserve">

	<path id="XMLID_10_" fill="#FFFFFF" d="M83,84.3c-1,1.1-1.8,2.5-2.5,4.3c-0.6,1.7-1.7,2.5-3.3,2.5c-9.1,0-18.3,0-27.5,0
		s-18.3,0-27.3,0c-1.5,0-2.6-0.9-3.3-2.5c-0.6-1.7-1.5-3.1-2.5-4.3l8.1-8.2l8.4-46.6h-5.8c-1.7,0-2.6-0.9-2.6-2.6
		c0-1.7,0.9-2.6,2.6-2.6h44.8c1.7,0,2.6,0.9,2.6,2.6c0,1.7-0.9,2.6-2.6,2.6h-5.7l8.3,46.6L83,84.3z M73.9,21.2c-8.9,0-16.9,0-24,0
		c-7.1,0-15.1,0-24.1,0c-1.9,0-2.8-2-2.8-5.9c0-3.9-0.1-7.6-0.1-10.9c1.5,0,2.9,0,4.4,0c1.5,0,3,0,4.5,0l3.1,6.7h7.5l3-6.7h9l3,6.7
		h7.5L68,4.4h8.9c0,3.3,0,7-0.1,10.9C76.7,19.3,75.8,21.2,73.9,21.2z"/>

	<path id="XMLID_4_" d="M83,84.3c-1,1.1-1.8,2.5-2.5,4.3c-0.6,1.7-1.7,2.5-3.3,2.5c-9.1,0-18.3,0-27.5,0s-18.3,0-27.3,0
		c-1.5,0-2.6-0.9-3.3-2.5c-0.6-1.7-1.5-3.1-2.5-4.3l8.1-8.2l8.4-46.6h-5.8c-1.7,0-2.6-0.9-2.6-2.6c0-1.7,0.9-2.6,2.6-2.6h44.8
		c1.7,0,2.6,0.9,2.6,2.6c0,1.7-0.9,2.6-2.6,2.6h-5.7l8.3,46.6L83,84.3z M36.8,84.3c1.7,0,3.3-0.6,4.5-1.9c1.3-1.3,2-2.8,2-4.7V67.5
		c0-1.8,0.6-3.3,1.9-4.6c1.3-1.3,2.8-2,4.7-2c1.8,0,3.3,0.7,4.6,2s2,2.8,2,4.6v10.2c0,1.9,0.6,3.4,1.9,4.7c1.3,1.3,2.7,1.9,4.4,1.9
		c2.6,0,5.2,0,7.9,0c2.7,0,5.3,0,8,0l-6.8-6.7l-8.7-48H36.3c-1.5,8-2.9,16-4.3,24c-1.4,8-2.9,16-4.4,24c-1.1,1.1-2.3,2.3-3.4,3.4
		c-1.1,1.1-2.3,2.2-3.4,3.3H36.8z M73.9,21.2c-8.9,0-16.9,0-24,0c-7.1,0-15.1,0-24.1,0c-1.9,0-2.8-2-2.8-5.9c0-3.9-0.1-7.6-0.1-10.9
		c1.5,0,2.9,0,4.4,0c1.5,0,3,0,4.5,0l3.1,6.7h7.5l3-6.7h9l3,6.7h7.5L68,4.4h8.9c0,3.3,0,7-0.1,10.9C76.7,19.3,75.8,21.2,73.9,21.2z
		 M73.9,7.8h-4.5l-2.9,6.4H55.8l-2.9-6.4h-6l-3,6.4H33.4l-3-6.4c-0.8,0-1.6,0-2.3,0c-0.7,0-1.5,0-2.3,0c0,1.6,0.1,3.7,0.2,6.4
		c0.1,2.6,0.7,3.9,1.8,3.9c8.3,0,15.7,0,22.3,0c6.6,0,14,0,22.3,0c1,0,1.5-1.3,1.5-3.9C73.9,11.6,73.9,9.4,73.9,7.8z M49.9,37.7
		c2.2,0,3.3,1.1,3.3,3.4v8.4c0,2.1-1.1,3.2-3.3,3.2c-2.2,0-3.3-1.1-3.3-3.2v-8.4C46.6,38.9,47.7,37.7,49.9,37.7z"/>

</svg>
