<?xml version="1.0" encoding="utf-8"?>
<!-- Generator: Adobe Illustrator 19.0.0, SVG Export Plug-In . SVG Version: 6.00 Build 0)  -->
<svg version="1.1" id="B" xmlns="http://www.w3.org/2000/svg" xmlns:xlink="http://www.w3.org/1999/xlink" x="0px" y="0px"
	 viewBox="0 0 100 100" enable-background="new 0 0 100 100" xml:space="preserve">

	<path id="XMLID_12_" fill="#FFFFFF" d="M52.4,20.2l-0.1,2.1c6.7,0.5,12.4,3.1,17.1,7.8c4.7,4.7,7,10.2,7,16.5
		c0,2.9-0.6,5.9-1.7,9.1c-1.5,2.4-2.9,5-4.2,7.7c-1.2,2.7-2,5.8-2.3,9.1c-6.1,0-12.3,0-18.4,0c-6.1,0-12.3,0-18.4,0
		c-0.3-3.7-1.1-6.7-2.2-9c-1.1-2.4-2.5-4.9-4.1-7.6c-1.2-3-1.8-6.1-1.8-9.2c0-6.3,2.3-11.8,7-16.5c4.7-4.7,10.4-7.3,17.1-7.8v-2.1
		c-2.7-1.1-4.1-2.6-4.1-4.6c0-1.2,0.6-2.3,1.9-3.1c1.3-0.9,2.8-1.4,4.5-1.4c1.8,0,3.3,0.5,4.6,1.4c1.3,0.9,1.9,2,1.9,3.1
		C56.3,17.7,55,19.2,52.4,20.2z M44.1,91.1c-2.4,0-4.8,0-7.1,0c-2.3,0-4.7,0-7.1,0c-1.1,0-1.8-0.9-2.3-2.5c-0.4-1.7-1-3.1-1.8-4.3
		c3.7,0,7.3,0,10.9,0c3.6,0,7.2,0,10.8,0c-0.6,1.2-0.9,2.7-1,4.4C46.5,90.6,45.6,91.3,44.1,91.1z M32.4,76.1h35
		c1.7,0,2.5,0.8,2.5,2.5c0,1.6-0.8,2.4-2.5,2.4h-35c-1.7,0-2.5-0.8-2.5-2.4C29.9,77,30.7,76.1,32.4,76.1z M55.7,91.1
		c-1.5,0.2-2.3-0.6-2.4-2.3c-0.1-1.7-0.5-3.2-1-4.4c3.5,0,7.1,0,10.8,0c3.6,0,7.3,0,10.9,0c-0.7,1.1-1.2,2.5-1.7,4.3
		c-0.5,1.7-1.3,2.5-2.4,2.5c-2.3,0-4.7,0-7,0C60.4,91.1,58,91.1,55.7,91.1z"/>

	<path id="XMLID_4_" d="M52.4,20.2l-0.1,2.1c6.7,0.5,12.4,3.1,17.1,7.8c4.7,4.7,7,10.2,7,16.5c0,2.9-0.6,5.9-1.7,9.1
		c-1.5,2.4-2.9,5-4.2,7.7c-1.2,2.7-2,5.8-2.3,9.1c-6.1,0-12.3,0-18.4,0c-6.1,0-12.3,0-18.4,0c-0.3-3.7-1.1-6.7-2.2-9
		c-1.1-2.4-2.5-4.9-4.1-7.6c-1.2-3-1.8-6.1-1.8-9.2c0-6.3,2.3-11.8,7-16.5c4.7-4.7,10.4-7.3,17.1-7.8v-2.1c-2.7-1.1-4.1-2.6-4.1-4.6
		c0-1.2,0.6-2.3,1.9-3.1c1.3-0.9,2.8-1.4,4.5-1.4c1.8,0,3.3,0.5,4.6,1.4c1.3,0.9,1.9,2,1.9,3.1C56.3,17.7,55,19.2,52.4,20.2z
		 M44.1,91.1c-2.4,0-4.8,0-7.1,0c-2.3,0-4.7,0-7.1,0c-1.1,0-1.8-0.9-2.3-2.5c-0.4-1.7-1-3.1-1.8-4.3c3.7,0,7.3,0,10.9,0
		c3.6,0,7.2,0,10.8,0c-0.6,1.2-0.9,2.7-1,4.4C46.5,90.6,45.6,91.3,44.1,91.1z M29,55.8c1.3,2,2.4,4.1,3.3,6.3c1,2.2,1.5,4.5,1.5,6.9
		c5.3,0,10.7,0,16.1,0c5.4,0,10.8,0,16.2,0c0.4-4.4,2-8.8,4.8-13.3c1.5-2.8,2.3-5.8,2.3-9.1c0-5.7-2.3-10.7-6.9-14.8
		c-4.6-4.1-10-6.2-16.4-6.2c-6.5,0-12,2.1-16.5,6.2c-4.5,4.1-6.8,9.1-6.8,14.8C26.7,49.9,27.5,53,29,55.8z M32.4,76.1h35
		c1.7,0,2.5,0.8,2.5,2.5c0,1.6-0.8,2.4-2.5,2.4h-35c-1.7,0-2.5-0.8-2.5-2.4C29.9,77,30.7,76.1,32.4,76.1z M46.6,64.1L44.9,49
		l-6.6-1.6v-6.6l6.6-1.8l1.7-8.3h6.6l1.7,8.3l6.6,1.8v6.6L54.9,49l-1.7,15.1H46.6z M50,14.3c-1.9,0-2.8,0.5-2.8,1.6
		c0,1.1,0.9,1.6,2.8,1.6c1.8,0,2.7-0.5,2.7-1.6C52.7,14.9,51.8,14.3,50,14.3z M55.7,91.1c-1.5,0.2-2.3-0.6-2.4-2.3
		c-0.1-1.7-0.5-3.2-1-4.4c3.5,0,7.1,0,10.8,0c3.6,0,7.3,0,10.9,0c-0.7,1.1-1.2,2.5-1.7,4.3c-0.5,1.7-1.3,2.5-2.4,2.5
		c-2.3,0-4.7,0-7,0C60.4,91.1,58,91.1,55.7,91.1z"/>

</svg>
