<?xml version="1.0" encoding="utf-8"?>
<!-- Generator: Adobe Illustrator 19.0.0, SVG Export Plug-In . SVG Version: 6.00 Build 0)  -->
<svg version="1.1" id="P" xmlns="http://www.w3.org/2000/svg" xmlns:xlink="http://www.w3.org/1999/xlink" x="0px" y="0px"
	 viewBox="0 0 100 100" enable-background="new 0 0 100 100" xml:space="preserve">

	<path id="XMLID_11_" fill="#FFFFFF" d="M58.6,74.4h9.8c1.1,0,1.6,0.5,1.6,1.6c0,1.1-0.5,1.7-1.6,1.7h-37c-1.1,0-1.6-0.6-1.6-1.7
		c0-1.1,0.5-1.6,1.6-1.6h9.7c-2.9-2.5-4.4-5.9-4.4-10c0-1.4,0.2-2.8,0.7-4.2l5.9-22.4h13.2l5.9,22.4c0.5,1.4,0.7,2.8,0.7,4.2
		C63.1,68.4,61.6,71.8,58.6,74.4z M36.7,91.1c-2,0-3.4-1.3-4.1-3.8c-0.7-2.5-1.7-4.6-2.8-6.3c6.7,0,13.4,0,20,0c6.7,0,13.4,0,20.2,0
		c-1.1,1.7-2.1,3.8-2.8,6.3c-0.7,2.5-2.1,3.8-4.1,3.8c-4.9,0-9.4,0-13.8,0C45,91.1,40.8,91.1,36.7,91.1z M56.3,31.1h3.8
		c1.1,0,1.6,0.6,1.6,1.7c0,1.1-0.5,1.7-1.6,1.7H39.8c-1.1,0-1.7-0.6-1.7-1.7c0-1.1,0.6-1.7,1.7-1.7h3.7c-1.2-1.3-1.8-3-1.8-5
		c0-2.3,0.8-4.2,2.4-5.8c1.6-1.6,3.5-2.4,5.8-2.4c2.3,0,4.2,0.8,5.8,2.4c1.6,1.6,2.4,3.5,2.4,5.8C58.1,28.1,57.5,29.7,56.3,31.1z"/>

	<path id="XMLID_4_" d="M58.6,74.4h9.8c1.1,0,1.6,0.5,1.6,1.6c0,1.1-0.5,1.7-1.6,1.7h-37c-1.1,0-1.6-0.6-1.6-1.7
		c0-1.1,0.5-1.6,1.6-1.6h9.7c-2.9-2.5-4.4-5.9-4.4-10c0-1.4,0.2-2.8,0.7-4.2l5.9-22.4h13.2l5.9,22.4c0.5,1.4,0.7,2.8,0.7,4.2
		C63.1,68.4,61.6,71.8,58.6,74.4z M36.7,91.1c-2,0-3.4-1.3-4.1-3.8c-0.7-2.5-1.7-4.6-2.8-6.3c6.7,0,13.4,0,20,0c6.7,0,13.4,0,20.2,0
		c-1.1,1.7-2.1,3.8-2.8,6.3c-0.7,2.5-2.1,3.8-4.1,3.8c-4.9,0-9.4,0-13.8,0C45,91.1,40.8,91.1,36.7,91.1z M36.7,87.8
		c4.3,0,8.7,0,13.1,0s8.9,0,13.3,0c0.7,0,1.1-0.4,1.3-1.3c0.2-0.9,0.5-1.6,0.9-2.2c-5.1,0-10.2,0-15.3,0c-5.1,0-10.2,0-15.3,0
		c0.3,0.6,0.6,1.3,0.8,2.2C35.6,87.4,36,87.8,36.7,87.8z M56.3,31.1h3.8c1.1,0,1.6,0.6,1.6,1.7c0,1.1-0.5,1.7-1.6,1.7H39.8
		c-1.1,0-1.7-0.6-1.7-1.7c0-1.1,0.6-1.7,1.7-1.7h3.7c-1.2-1.3-1.8-3-1.8-5c0-2.3,0.8-4.2,2.4-5.8c1.6-1.6,3.5-2.4,5.8-2.4
		c2.3,0,4.2,0.8,5.8,2.4c1.6,1.6,2.4,3.5,2.4,5.8C58.1,28.1,57.5,29.7,56.3,31.1z M59.5,62l-5.4-20.9h-8.3L40.3,62
		c-0.2,0.7-0.3,1.5-0.3,2.4c0,2.7,1,5.1,2.9,7c1.9,2,4.3,3,7,3c2.7,0,5.1-1,7-3c1.9-2,2.9-4.3,2.9-7C59.8,63.6,59.7,62.8,59.5,62z
		 M49.9,21c-3.4,0-5.1,1.7-5.1,5.1c0,3.3,1.7,5,5.1,5c3.3,0,5-1.7,5-5C54.9,22.7,53.2,21,49.9,21z"/>

</svg>
