<?xml version="1.0" encoding="utf-8"?>
<!-- Generator: Adobe Illustrator 19.0.0, SVG Export Plug-In . SVG Version: 6.00 Build 0)  -->
<svg version="1.1" id="q" xmlns="http://www.w3.org/2000/svg" xmlns:xlink="http://www.w3.org/1999/xlink" x="0px" y="0px"
	 viewBox="0 0 100 100" enable-background="new 0 0 100 100" xml:space="preserve">

	<path id="XMLID_14_" fill="#FFFFFF" d="M28.3,46c-0.2-2.5-0.4-4.9-0.5-7.4c-0.1-2.5-0.3-5-0.5-7.6c3.9,2.6,8.1,5.4,12.7,8.3
		c3.3-6.7,6.6-13.3,9.9-19.8c1.7,3.3,3.3,6.7,5,10c1.7,3.3,3.4,6.6,5,9.9c3.8-2.6,8-5.4,12.5-8.4c-0.1,2.5-0.3,5.1-0.4,7.6
		c-0.1,2.5-0.3,4.9-0.4,7.4c3.1,0,6.1,0,9.1,0s6,0,9,0c-2.2,4.5-4.4,8.9-6.6,13.4c-2.2,4.5-4.4,8.9-6.5,13.4c-8.9,0-17.9,0-26.8,0
		c-8.9,0-17.8,0-26.7,0c-2.2-4.5-4.4-8.9-6.6-13.4c-2.2-4.5-4.4-8.9-6.6-13.4c3,0.1,6,0.1,9.1,0.1C22.2,46,25.2,46,28.3,46z
		 M22.9,30c-1.8,0-3.4-0.6-4.6-1.9c-1.3-1.3-2-2.9-2-4.8c0-1.8,0.7-3.4,2-4.6c1.3-1.3,2.9-2,4.6-2c1.9,0,3.4,0.6,4.7,2
		c1.3,1.3,1.9,2.8,1.9,4.6c0,1.9-0.6,3.4-1.9,4.8C26.3,29.4,24.8,30,22.9,30z M25.7,76.1h48.5c1.7,0,2.5,0.8,2.5,2.5
		c0,1.6-0.8,2.4-2.5,2.4H25.7c-1.7,0-2.5-0.8-2.5-2.4C23.2,77,24,76.1,25.7,76.1z M27.8,91.1c-1.3,0-2.1-0.9-2.6-2.5
		c-0.5-1.7-1.1-3.1-1.9-4.3c8.9,0,17.7,0,26.6,0c8.9,0,17.8,0,26.7,0c-0.8,1.1-1.4,2.5-1.9,4.3c-0.5,1.7-1.3,2.5-2.6,2.5
		c-7.4,0-14.8,0-22.3,0S35.1,91.1,27.8,91.1z M49.9,17.7c-1.8,0-3.4-0.6-4.7-1.9c-1.3-1.3-2-2.8-2-4.7c0-1.9,0.7-3.4,2-4.8
		c1.3-1.3,2.8-1.9,4.7-1.9c1.9,0,3.4,0.6,4.7,1.9c1.3,1.3,1.9,2.9,1.9,4.8c0,1.9-0.6,3.4-1.9,4.7C53.3,17.1,51.8,17.7,49.9,17.7z
		 M76.9,30c-1.8,0-3.4-0.6-4.7-1.9c-1.3-1.3-2-2.9-2-4.8c0-1.8,0.7-3.4,2-4.6c1.3-1.3,2.8-2,4.7-2c1.9,0,3.4,0.6,4.7,2
		c1.3,1.3,1.9,2.8,1.9,4.6c0,1.9-0.6,3.4-1.9,4.8C80.3,29.4,78.8,30,76.9,30z"/>

	<path id="XMLID_4_" d="M28.3,46c-0.2-2.5-0.4-4.9-0.5-7.4c-0.1-2.5-0.3-5-0.5-7.6c3.9,2.6,8.1,5.4,12.7,8.3
		c3.3-6.7,6.6-13.3,9.9-19.8c1.7,3.3,3.3,6.7,5,10c1.7,3.3,3.4,6.6,5,9.9c3.8-2.6,8-5.4,12.5-8.4c-0.1,2.5-0.3,5.1-0.4,7.6
		c-0.1,2.5-0.3,4.9-0.4,7.4c3.1,0,6.1,0,9.1,0s6,0,9,0c-2.2,4.5-4.4,8.9-6.6,13.4c-2.2,4.5-4.4,8.9-6.5,13.4c-8.9,0-17.9,0-26.8,0
		c-8.9,0-17.8,0-26.7,0c-2.2-4.5-4.4-8.9-6.6-13.4c-2.2-4.5-4.4-8.9-6.6-13.4c3,0.1,6,0.1,9.1,0.1C22.2,46,25.2,46,28.3,46z
		 M22.9,30c-1.8,0-3.4-0.6-4.6-1.9c-1.3-1.3-2-2.9-2-4.8c0-1.8,0.7-3.4,2-4.6c1.3-1.3,2.9-2,4.6-2c1.9,0,3.4,0.6,4.7,2
		c1.3,1.3,1.9,2.8,1.9,4.6c0,1.9-0.6,3.4-1.9,4.8C26.3,29.4,24.8,30,22.9,30z M25.7,76.1h48.5c1.7,0,2.5,0.8,2.5,2.5
		c0,1.6-0.8,2.4-2.5,2.4H25.7c-1.7,0-2.5-0.8-2.5-2.4C23.2,77,24,76.1,25.7,76.1z M27.8,91.1c-1.3,0-2.1-0.9-2.6-2.5
		c-0.5-1.7-1.1-3.1-1.9-4.3c8.9,0,17.7,0,26.6,0c8.9,0,17.8,0,26.7,0c-0.8,1.1-1.4,2.5-1.9,4.3c-0.5,1.7-1.3,2.5-2.6,2.5
		c-7.4,0-14.8,0-22.3,0S35.1,91.1,27.8,91.1z M29.8,54c0.7,1.5,1.5,2.9,2.3,4.4c0.8,1.4,1.5,2.8,2.4,4.3c1.6,0,3.2,0,4.8,0
		c1.6,0,3.2,0,4.9,0c-0.8-1.4-1.6-2.8-2.3-4.3c-0.7-1.4-1.5-2.9-2.3-4.4c-1.6,0-3.2,0-4.8,0C33,54,31.4,54,29.8,54z M49.9,17.7
		c-1.8,0-3.4-0.6-4.7-1.9c-1.3-1.3-2-2.8-2-4.7c0-1.9,0.7-3.4,2-4.8c1.3-1.3,2.8-1.9,4.7-1.9c1.9,0,3.4,0.6,4.7,1.9
		c1.3,1.3,1.9,2.9,1.9,4.8c0,1.9-0.6,3.4-1.9,4.7C53.3,17.1,51.8,17.7,49.9,17.7z M49.9,43.9c-0.8,1.5-1.6,2.9-2.5,4.3
		c-0.9,1.4-1.7,2.8-2.5,4.1c0.8,1.4,1.6,2.8,2.5,4.2c0.9,1.4,1.7,2.8,2.5,4.2c0.9-1.4,1.7-2.8,2.5-4.2c0.8-1.4,1.7-2.8,2.5-4.2
		c-0.9-1.3-1.7-2.7-2.5-4.1C51.6,46.8,50.8,45.4,49.9,43.9z M70.1,54c-1.7,0-3.3,0-4.9,0c-1.6,0-3.2,0-4.9,0
		c-0.7,1.5-1.5,2.9-2.3,4.4c-0.8,1.4-1.5,2.8-2.3,4.3c1.6,0,3.2,0,4.9,0c1.6,0,3.3,0,4.8,0c0.7-1.4,1.5-2.8,2.3-4.3
		C68.5,57,69.3,55.5,70.1,54z M76.9,30c-1.8,0-3.4-0.6-4.7-1.9c-1.3-1.3-2-2.9-2-4.8c0-1.8,0.7-3.4,2-4.6c1.3-1.3,2.8-2,4.7-2
		c1.9,0,3.4,0.6,4.7,2c1.3,1.3,1.9,2.8,1.9,4.6c0,1.9-0.6,3.4-1.9,4.8C80.3,29.4,78.8,30,76.9,30z"/>

</svg>
