<?xml version="1.0" encoding="utf-8"?>
<!-- Generator: Adobe Illustrator 19.0.0, SVG Export Plug-In . SVG Version: 6.00 Build 0)  -->
<svg version="1.1" id="K" xmlns="http://www.w3.org/2000/svg" xmlns:xlink="http://www.w3.org/1999/xlink" x="0px" y="0px"
	 viewBox="0 0 100 100" enable-background="new 0 0 100 100" xml:space="preserve">

	<path id="XMLID_12_" fill="#FFFFFF" d="M53.3,23.7c0.6,0.2,1.2,0.6,1.7,1.3c0.5,0.5,0.9,1.2,1.2,2c0.3,0.8,0.5,1.6,0.5,2.5
		c0,1.7-0.2,3.5-0.7,5.5c-0.4,2-1,4-1.8,6h1.6c1.4-1.7,2.9-3.2,4.5-4.4c1.6-1.2,3.2-2.2,4.8-3c1.6-0.8,3.2-1.3,4.8-1.6
		c1.5-0.3,2.9-0.5,4.1-0.5c4.6,0,8.2,1.3,10.9,3.9c2.6,2.6,4,6.3,4,11.1c0,2.1-0.3,4.1-1,5.9c-0.7,1.8-1.5,3.5-2.6,5.1
		c-1,1.6-2.2,3-3.4,4.3c-1.3,1.3-2.5,2.5-3.7,3.7c-0.1,0.1-0.2,0.2-0.5,0.5c-0.2,0.2-0.7,0.7-1.3,1.3c-0.8,0.7-1.5,1.4-2,2.1
		c-0.5,0.7-0.8,1.5-0.8,2.2c0,0.9,0.2,1.5,0.5,1.9c1.1,1.1,2,2.5,2.6,4c0.6,1.6,0.9,3.2,0.9,5c0,0.4-0.2,0.8-0.6,1.3
		c-0.6,0.6-1.7,1.2-3.3,1.7c-1.6,0.5-3.6,0.9-6,1.3c-2.4,0.4-5.1,0.7-8.1,0.8c-3,0.2-6.3,0.3-9.7,0.3c-3.5,0-6.7-0.1-9.8-0.3
		c-3-0.2-5.7-0.5-8.1-0.8c-2.4-0.4-4.4-0.8-6-1.3c-1.6-0.5-2.8-1-3.4-1.7c-0.1-0.3-0.3-0.5-0.4-0.6c-0.1-0.2-0.2-0.4-0.2-0.7
		c0-1.7,0.3-3.4,0.8-5c0.6-1.6,1.4-2.9,2.6-4c0.5-0.6,0.7-1.2,0.6-1.9c-0.2-1.5-1.1-2.9-2.8-4.4l-1.8-1.7c-1.2-1.1-2.4-2.3-3.6-3.7
		c-1.2-1.3-2.4-2.7-3.5-4.3c-1.1-1.6-1.9-3.3-2.6-5.1c-0.7-1.8-1-3.8-1-5.9c0-4.7,1.3-8.4,4-11.1c2.6-2.6,6.3-3.9,10.9-3.9
		c1.3,0,2.7,0.2,4.2,0.5c1.5,0.3,3.1,0.9,4.8,1.6c1.6,0.8,3.3,1.8,4.8,3c1.6,1.2,3.1,2.7,4.5,4.4h1.6c-0.7-2.1-1.3-4.1-1.8-6
		c-0.4-2-0.6-3.8-0.6-5.5c0-0.9,0.1-1.8,0.4-2.5c0.3-0.7,0.6-1.4,1-1.9c0.5-0.7,1.1-1.1,1.8-1.4c0.7-0.2,1.5-0.4,2.5-0.4h2
		C51.9,23.4,52.7,23.5,53.3,23.7z"/>

	<path id="XMLID_4_" d="M85.3,35c2.9,2.9,4.3,6.7,4.3,11.5c0,2.1-0.3,4.2-1,6.1c-0.7,1.9-1.6,3.7-2.7,5.3c-1.1,1.6-2.3,3.2-3.7,4.6
		c-1.4,1.4-2.7,2.8-4,4l-1.4,1.3c-1.3,1.3-2.1,2.4-2.3,3.3c-0.2,0.9-0.2,1.5,0.1,1.8c1.1,1.2,2,2.6,2.6,4.3c0.6,1.6,0.8,2.9,0.8,3.8
		c0,0.9,0,1.5-0.1,2c-0.1,0.5-0.3,0.9-0.6,1.3c-0.8,0.8-2.2,1.5-4.1,2c-2,0.5-4.2,1-6.8,1.3c-2.5,0.3-5.2,0.6-8.1,0.8
		c-2.9,0.2-5.6,0.3-8.3,0.3c-2.7,0-5.5-0.1-8.3-0.3c-2.9-0.2-5.6-0.4-8.2-0.8c-2.6-0.3-4.8-0.8-6.8-1.3c-1.9-0.5-3.3-1.2-4.1-2
		c-0.3-0.3-0.6-0.7-0.6-1c-0.1-0.3-0.2-0.6-0.2-0.9c0-1.7,0.3-3.4,0.9-5.1c0.6-1.6,1.5-3.1,2.6-4.3c0.2-0.3,0.2-0.9,0-1.8
		c-0.2-0.9-0.9-2-2.2-3.3l-1.3-1.3c-1.3-1.3-2.7-2.6-4-4c-1.3-1.4-2.6-2.9-3.7-4.5c-1.1-1.6-2.1-3.4-2.8-5.3
		c-0.7-1.9-1.1-3.9-1.1-6.1c0-4.8,1.4-8.6,4.3-11.5c2.9-2.9,6.7-4.3,11.6-4.3c1.3,0,2.7,0.2,4.2,0.6c1.5,0.4,3.1,1,4.8,1.9
		c1.6,0.8,3.3,1.9,4.8,3.1c1.6,1.3,3.1,2.8,4.5,4.6c-1-3.2-1.7-6.3-2-9.2c-0.4-2.9,0.1-5.2,1.3-6.9c0.9-1.3,2.6-2.2,4.9-2.5v-6.6
		h-4.9v-2.4h4.9V6.7h2.4v6.6h5.1v2.4h-5.1v6.6c2.3,0.3,4,1.2,5.1,2.7c0.6,0.8,1,1.8,1.1,2.9c0.2,1.1,0.2,2.4,0.1,3.8
		c-0.1,1.4-0.4,2.8-0.8,4.3c-0.4,1.5-0.8,3.1-1.3,4.7c1.4-1.7,2.9-3.2,4.5-4.5c1.6-1.3,3.3-2.3,4.9-3.1c1.6-0.8,3.2-1.4,4.8-1.8
		c1.5-0.4,2.9-0.6,4.2-0.6C78.6,30.7,82.4,32.2,85.3,35z M13.8,51.9c0.6,1.7,1.5,3.3,2.5,4.8c1,1.5,2.2,2.9,3.5,4.3
		c1.3,1.3,2.5,2.6,3.8,3.9l0.4,0.4c1.8-1.9,4.8-3.2,9.1-3.8c4.2-0.6,9.5-0.9,15.8-1c-0.1-4.8-1-8.9-2.7-12.3c-1.7-3.4-3.7-6.3-6-8.5
		c-2.3-2.2-4.7-3.8-7.3-4.8c-2.5-1-4.7-1.5-6.6-1.5c-4.2,0-7.5,1.2-9.9,3.5c-2.4,2.3-3.6,5.6-3.6,9.7C12.8,48.5,13.1,50.3,13.8,51.9
		z M68.8,84.7c4.2-0.9,6.5-1.7,6.8-2.4c-0.3-0.3-0.9-0.6-1.9-1c-1-0.4-2.6-0.7-4.7-1c-2.1-0.3-4.7-0.5-7.8-0.8s-6.8-0.3-11.3-0.3
		c-4.5,0-8.3,0.1-11.4,0.3c-3.1,0.2-5.7,0.5-7.8,0.8c-2.1,0.3-3.6,0.7-4.6,1c-1,0.3-1.6,0.6-1.9,0.9c0.5,0.7,2.8,1.4,7,2.3
		C35.4,85.6,41.7,86,50,86C58.3,86,64.6,85.6,68.8,84.7z M74.3,76.9c-0.5-0.8-1-1.6-1.5-2.3c-2.1-1.7-5-2.6-8.5-2.9
		c-3.5-0.3-7.5-0.4-11.8-0.4H50h-2.4c-4.4,0-8.4,0.1-11.9,0.4C32.1,72,29.2,73,27,74.6c-0.5,0.7-1,1.5-1.5,2.3
		c-0.4,0.8-0.7,1.7-0.8,2.6c1.3-0.6,3-1.1,5-1.4c2-0.4,4.2-0.7,6.5-0.9c2.3-0.2,4.7-0.3,7.1-0.4c2.4-0.1,4.6-0.1,6.6-0.1
		s4.2,0,6.5,0.1c2.3,0.1,4.7,0.2,7,0.4c2.3,0.2,4.5,0.5,6.5,0.9c2,0.4,3.8,0.8,5.2,1.4C75.1,78.6,74.8,77.7,74.3,76.9z M63.3,69.1
		c3.3,0.2,6.1,0.9,8.5,2.1c0.3-1.4,1.1-2.8,2.4-4.2c-0.9-0.9-2.1-1.7-3.8-2.2c-1.7-0.5-3.6-1-5.8-1.3c-2.2-0.3-4.5-0.5-7-0.6
		c-2.5-0.1-5-0.1-7.5-0.1c-2.7,0-5.4,0-8,0.1c-2.6,0.1-4.9,0.3-7.1,0.6c-2.2,0.3-4.1,0.7-5.7,1.3c-1.6,0.5-2.9,1.3-3.8,2.2
		c0.7,0.7,1.3,1.4,1.7,2.1c0.4,0.7,0.7,1.4,0.8,2.1c2.5-1.2,5.4-1.9,8.7-2.1c3.3-0.2,7-0.3,10.9-0.3H50h2.5
		C56.4,68.8,60,68.9,63.3,69.1z M44.8,27.9c-0.1,0.7-0.2,1.4-0.2,2.2c0,2.1,0.4,4.6,1.2,7.3c0.8,2.7,1.6,5.4,2.4,7.9
		c0.3,1,0.6,2,1,2.9c0.3,0.9,0.6,1.8,0.8,2.7c0.2-0.9,0.5-1.8,0.8-2.7c0.3-0.9,0.6-1.9,1-2.9c0.7-2.5,1.5-5.2,2.3-7.9
		c0.8-2.7,1.2-5.2,1.2-7.3c0-0.8-0.1-1.5-0.2-2.2c-0.1-0.7-0.4-1.3-0.7-1.8c-0.4-0.5-1-0.9-1.6-1.3c-0.7-0.3-1.6-0.4-2.7-0.4
		c-1.9,0-3.4,0.6-4.4,1.7C45.2,26.7,44.9,27.3,44.8,27.9z M80.2,60.8c1.3-1.3,2.5-2.7,3.5-4.2c1-1.5,1.9-3,2.5-4.7
		c0.7-1.7,1-3.5,1-5.4c0-4.1-1.2-7.4-3.6-9.7c-2.4-2.3-5.7-3.5-9.9-3.5c-1.9,0-4.2,0.5-6.7,1.5s-4.9,2.6-7.2,4.8
		c-2.3,2.2-4.3,5-5.9,8.5c-1.7,3.4-2.6,7.5-2.8,12.3c6.1,0.1,11.4,0.4,15.7,1s7.3,1.9,9.2,3.8l0.4-0.5
		C77.6,63.5,78.8,62.2,80.2,60.8z"/>

</svg>
