<?xml version="1.0" encoding="utf-8"?>
<!-- Generator: Adobe Illustrator 19.0.0, SVG Export Plug-In . SVG Version: 6.00 Build 0)  -->
<svg version="1.1" id="b" xmlns="http://www.w3.org/2000/svg" xmlns:xlink="http://www.w3.org/1999/xlink" x="0px" y="0px"
	 viewBox="0 0 100 100" enable-background="new 0 0 100 100" xml:space="preserve">

	<path id="XMLID_11_" fill="#FFFFFF" d="M55.3,23.7c1.6,1.1,3.7,2.3,6.3,3.6c0.9,0.5,1.8,1.1,3,1.9c1.1,0.8,2.1,1.7,3,2.8
		c0.9,1.1,1.7,2.3,2.4,3.7c0.7,1.4,1,3,1,4.7c0,3.4-0.6,6.1-1.7,8c-1.1,1.9-2.3,3.4-3.4,4.4c-1.4,1.3-2.3,2.6-2.6,3.7
		c-0.3,1.1-0.3,1.8,0,2.1c0.9,0.9,1.7,1.8,2.3,2.7c0.6,0.9,0.8,2,0.8,3.1v2.4c0,0.7-0.9,1.3-2.6,1.8c-1.7,0.5-4,1-6.7,1.3
		c0,2.1,0.7,3.7,2,4.6c1.4,1,2.9,1.5,4.5,1.5c0.1,0,0.4,0,1,0c0.7,0,1.6-0.1,2.8-0.3c1.2-0.2,2.3-0.5,3.4-0.8
		c1.1-0.4,2.3-0.8,3.6-1.1c1.3-0.3,2.3-0.5,2.9-0.5c1.9,0,3.8,0.3,5.6,0.9c1.8,0.6,3.6,1.6,5.3,3.1L84.3,85
		c-1.6-1.5-3.3-2.6-5.3-3.3c-1.9-0.6-3.8-0.9-5.8-0.9c-0.6,0-1.5,0.2-2.8,0.5c-1.3,0.4-2.5,0.8-3.7,1.1c-1.7,0.7-4,1.1-6.9,1.2
		c-0.8,0-1.8-0.2-2.9-0.6c-1.1-0.4-2.2-0.9-3.3-1.6c-1-0.7-1.9-1.4-2.7-2.3c-0.7-0.9-1.1-1.9-1.1-3c0,1.1-0.4,2-1.1,3
		c-0.7,0.9-1.6,1.7-2.7,2.3c-1,0.7-2.1,1.2-3.2,1.6c-1.1,0.4-2,0.6-2.8,0.6c-0.1,0-0.3,0-0.8,0c-0.4,0-0.9,0-1.6-0.1
		c-0.7-0.1-1.4-0.2-2.3-0.4c-0.8-0.2-1.6-0.4-2.5-0.8c-1.1-0.4-2.3-0.8-3.6-1.1c-1.3-0.3-2.3-0.5-2.9-0.5c-1.9,0-3.8,0.3-5.6,1
		c-1.8,0.6-3.6,1.7-5.4,3.1l-3.7-7.7c1.7-1.5,3.4-2.6,5.2-3.2c1.8-0.6,3.7-0.9,5.6-0.9c0.7,0,1.8,0.2,3,0.5c1.3,0.3,2.5,0.7,3.5,1.2
		c1.1,0.4,2.2,0.7,3.3,0.8c1.1,0.1,2,0.2,2.6,0.2c0.7,0,1,0,1.1,0c1.7,0,3.3-0.5,4.7-1.4c1.4-0.9,2-2.5,2-4.7
		c-2.8-0.3-5-0.8-6.7-1.3c-1.7-0.5-2.5-1.1-2.5-1.8v-2.4c0-0.9,0.3-1.9,0.8-3c0.5-1,1.2-2,1.9-2.8c0.1-0.1,0.1-0.1,0,0
		c-0.1,0.1-0.1,0.1,0,0c0.3-0.3,0.4-1,0.2-2.2c-0.2-1.2-1-2.4-2.5-3.8c-1.3-1-2.5-2.5-3.5-4.4c-1.1-1.9-1.7-4.6-1.7-8
		c0-1.7,0.3-3.3,1-4.7c0.7-1.4,1.5-2.6,2.5-3.7c1-1.1,2-2,3-2.8c1.1-0.8,2-1.4,2.9-1.9c2.6-1.3,4.7-2.6,6.3-3.6
		c1.6-1.1,2.8-2.2,3.5-3.4c-1.1-0.4-2.1-1.1-2.8-2.1c-0.7-1-1.1-2.2-1.1-3.5c0-1.5,0.5-2.9,1.7-4C47,9.6,48.4,9,50,9s3,0.6,4.1,1.7
		c1.1,1.1,1.7,2.5,1.7,4c0,1.3-0.4,2.5-1.1,3.5c-0.8,1-1.8,1.7-3,2.1C52.5,21.5,53.7,22.6,55.3,23.7z"/>

	<path id="XMLID_4_" d="M66.5,61c0.6,1.2,1,2.3,1,3.4v0.1v2.3c0,0.6-0.3,1.1-0.8,1.5c-0.5,0.4-1.2,0.8-2,1.2
		c-0.8,0.3-1.8,0.6-2.9,0.8c-1.1,0.2-2.2,0.4-3.4,0.6c0.1,0.9,0.4,1.7,0.9,2.3c0.5,0.6,1,1,1.5,1.3c0.6,0.3,1.1,0.4,1.7,0.5
		c0.6,0.1,1,0.1,1.3,0.1c0.1,0,0.8,0,2.2-0.1c1.4-0.1,2.8-0.4,4.3-0.9c1-0.5,2.2-0.9,3.7-1.3c1.4-0.4,2.5-0.5,3.3-0.5
		c4.5,0,8.4,1.5,11.6,4.4l0.7,0.6l-4.9,10l-1.1-1c-2.9-2.6-6.3-3.9-10.2-3.9c-0.5,0-1.4,0.2-2.6,0.5c-1.2,0.3-2.4,0.7-3.4,1
		c-0.9,0.4-1.7,0.7-2.5,0.9c-0.8,0.2-1.6,0.3-2.3,0.3C61.8,85,61.2,85,60.7,85c-0.5,0-0.7,0-0.8,0c-1.5,0-3.2-0.5-5.2-1.4
		c-2-1-3.6-2.2-4.7-3.8c-0.5,0.8-1.2,1.5-2,2.2c-0.8,0.7-1.7,1.2-2.7,1.7c-0.9,0.5-1.8,0.8-2.8,1.1c-0.9,0.3-1.7,0.4-2.3,0.4
		c-0.2,0-1.1,0-2.7-0.1c-1.6-0.1-3.2-0.5-4.8-1.3c-1.1-0.4-2.2-0.8-3.5-1.1c-1.2-0.3-2.1-0.5-2.6-0.5c-4,0-7.4,1.3-10.2,3.9l-1.1,1
		l-4.9-10l0.7-0.6c3.3-2.9,7.1-4.3,11.6-4.3c0.8,0,1.9,0.2,3.3,0.5c1.4,0.4,2.6,0.8,3.7,1.2c0.7,0.3,1.5,0.6,2.3,0.7
		c0.8,0.1,1.5,0.2,2,0.3c0.6,0,1.1,0,1.5,0c0.5,0,0.7,0,0.8,0c1.3,0,2.4-0.3,3.5-0.9c1.1-0.6,1.7-1.7,2-3.2
		c-1.1-0.1-2.3-0.3-3.3-0.6c-1.1-0.2-2.1-0.5-3-0.8c-0.9-0.3-1.6-0.7-2.1-1.2c-0.5-0.4-0.8-0.9-0.8-1.5v-2.4c0-2.1,0.8-4.1,2.5-5.8
		c0.1-0.2,0.3-0.3,0.4-0.4c0.1-0.1,0.2-0.2,0.3-0.3c0.1-0.3,0-0.8-0.3-1.6c-0.3-0.8-1-1.6-2.1-2.5c-3.7-3.2-5.6-7.7-5.6-13.5
		c0-1.9,0.4-3.7,1-5.2c0.7-1.5,1.6-2.9,2.6-4c1-1.2,2.1-2.1,3.3-3c1.2-0.8,2.2-1.4,3.2-1.9c4.2-2.1,7-4,8.5-5.7
		c-0.9-0.5-1.7-1.3-2.4-2.4c-0.7-1.1-1-2.3-1-3.6c0-1.9,0.7-3.6,2-5c1.4-1.4,3-2,5-2c1.9,0,3.6,0.7,5,2c1.4,1.4,2,3,2,5
		c0,1.3-0.3,2.5-1,3.5c-0.7,1-1.5,1.8-2.5,2.5c0.8,0.9,1.9,1.8,3.3,2.6c1.4,0.9,3.1,1.9,5.3,3c0.9,0.5,2,1.1,3.2,1.9
		c1.2,0.8,2.3,1.8,3.3,3c1,1.2,1.9,2.5,2.6,4c0.7,1.5,1,3.3,1,5.2c0,5.9-1.9,10.4-5.6,13.5c-1.1,0.9-1.8,1.8-2.1,2.6
		c-0.3,0.8-0.4,1.3-0.3,1.5C65,58.8,65.8,59.8,66.5,61z M60.5,64.7c2.6,0.6,4.1,1.1,4.5,1.7c0.1-0.5,0.1-0.9,0.2-1.2
		c0-0.3,0-0.8-0.2-1.5c-1.1-0.5-2.5-0.8-4-1.1c-1.6-0.3-3.1-0.5-4.6-0.7c-1.5-0.1-2.8-0.2-4-0.3c-1.2,0-2,0-2.3,0
		c-0.3,0-1.1,0-2.3,0c-1.2,0-2.6,0.1-4.1,0.3c-1.5,0.1-3.1,0.3-4.6,0.7c-1.6,0.3-2.9,0.7-4,1.1c-0.1,0.7-0.2,1.2-0.2,1.5
		c0,0.3,0.1,0.7,0.3,1.2c0.4-0.5,1.9-1.1,4.5-1.7c2.6-0.6,6.1-0.8,10.5-0.8S57.9,64.1,60.5,64.7z M57.5,57.1
		c2.3,0.7,4.1,1.8,5.5,3.3c-0.6-0.7-1-1.4-1.1-2c-0.1-0.6-0.1-1.2,0-1.7c-3.3-1.9-7.2-2.9-11.9-2.9c-4.7,0-8.8,1-12.1,2.9
		c0.5,1.1,0.2,2.4-0.9,3.7c1.3-1.5,3.2-2.6,5.5-3.3c2.3-0.7,4.8-1.1,7.5-1.1C52.7,56,55.2,56.4,57.5,57.1z M51.4,36.1v-6.6
		c0-1.1-0.5-1.6-1.6-1.6c-0.3,0-0.6,0.1-0.9,0.4c-0.3,0.3-0.4,0.7-0.4,1.1v6.6h-6.6c-0.4,0-0.8,0.1-1.1,0.5c-0.3,0.3-0.4,0.6-0.4,1
		s0.1,0.7,0.4,1c0.3,0.3,0.7,0.4,1.1,0.4h6.6v6.7c0,0.4,0.1,0.7,0.4,1c0.3,0.3,0.6,0.4,0.9,0.4c1.1,0,1.6-0.5,1.6-1.4V39h6.7
		c0.9,0,1.4-0.5,1.4-1.4c0-0.4-0.1-0.8-0.4-1c-0.3-0.3-0.6-0.5-1-0.5H51.4z M46,73.9c1.1,0.1,2,0.1,2.9,0.1v-2.6c-0.8,0-1.6,0-2.5,0
		c-0.9,0-1.8-0.1-2.7-0.3c-0.1,0.5-0.2,1-0.4,1.4c-0.2,0.4-0.3,0.8-0.4,1.1C43.9,73.8,45,73.9,46,73.9z M53.5,71.4
		c-0.8,0-1.7,0-2.5,0V74c0.8,0,1.8,0,2.9-0.1c1.1-0.1,2.2-0.2,3.1-0.3c-0.1-0.3-0.3-0.7-0.5-1.1c-0.2-0.4-0.3-0.9-0.4-1.4
		C55.2,71.3,54.3,71.4,53.5,71.4z"/>

</svg>
