<?xml version="1.0" encoding="utf-8"?>
<!-- Generator: Adobe Illustrator 19.0.0, SVG Export Plug-In . SVG Version: 6.00 Build 0)  -->
<svg version="1.1" id="R" xmlns="http://www.w3.org/2000/svg" xmlns:xlink="http://www.w3.org/1999/xlink" x="0px" y="0px"
	 viewBox="0 0 100 100" enable-background="new 0 0 100 100" xml:space="preserve">

	<path id="XMLID_12_" fill="#FFFFFF" d="M19.5,77.3h6.1v-8.5l6.9-6.9V33.1l-7-7.1V11.2h9.2v7.2h9.9v-7.2h10.8v7.2h9.9v-7.2h9.2V26
		l-6.9,7.1v28.8l6.8,6.9v8.5h6.1v7h-61V77.3z"/>

	<path id="XMLID_4_" d="M24.4,75.9c0-5.3,0.3-8.2,1-8.8c0.7-0.6,1.4-1.4,2.3-2.2c0.8-0.8,1.6-1.6,2.4-2.3c0.8-0.7,1.3-1.2,1.5-1.3
		V33.4c-0.2-0.1-0.7-0.6-1.5-1.4c-0.8-0.8-1.6-1.6-2.5-2.4c-0.9-0.8-2-2-3.3-3.4V9.9h11.6v7.3h7.6V9.9h13v7.3h7.6V9.9h11.6
		c0,10.9-0.3,16.8-1,17.4c-0.7,0.7-1.4,1.5-2.3,2.3c-0.8,0.8-1.6,1.6-2.4,2.4c-0.8,0.8-1.2,1.2-1.3,1.4v27.9
		c0.1,0.1,0.6,0.6,1.3,1.3c0.7,0.7,1.5,1.5,2.3,2.3c0.8,0.8,1.9,1.8,3.3,3.1v7.9h6.1v9.4H18.3v-9.4H24.4z M20.6,78.2V83h58.9v-4.8
		H20.6z M73.4,24.7V12.2h-7v7.3H54.2v-7.3h-8.4v7.3H33.6v-7.3h-7v12.5H73.4z M73.3,75.9v-6.2H26.7v6.2H73.3z M28.2,27
		c0.7,0.7,1.6,1.6,2.5,2.5c1,0.9,1.7,1.7,2.3,2.3h34.2c0.5-0.6,1.2-1.4,2.1-2.3c0.9-0.9,1.8-1.8,2.5-2.5H28.2z M71.7,67.5L67.2,63
		H33c-0.5,0.5-1.3,1.2-2.2,2.1c-0.9,0.9-1.8,1.7-2.5,2.4H71.7z M66.4,60.7V34.1H33.7v26.6H66.4z"/>

</svg>
