<?xml version="1.0" encoding="utf-8"?>
<!-- Generator: Adobe Illustrator 19.0.0, SVG Export Plug-In . SVG Version: 6.00 Build 0)  -->
<svg version="1.1" id="N" xmlns="http://www.w3.org/2000/svg" xmlns:xlink="http://www.w3.org/1999/xlink" x="0px" y="0px"
	 viewBox="0 0 100 100" enable-background="new 0 0 100 100" xml:space="preserve">

	<path id="XMLID_9_" fill="#FFFFFF" d="M50.5,57.2c1.2-3.3,1.8-6.9,1.8-10.9c-1.1,1.1-2,2.1-2.8,2.9c-0.8,0.8-1.7,1.5-2.5,2.1
		c-0.8,0.6-1.8,1.1-2.8,1.6s-2.2,1-3.6,1.5c-1.4,0.5-2.8,1.6-4.1,3.2c-1.4,1.6-2.8,3.3-4.2,5c-1.4,1.7-2.9,3.3-4.4,4.6
		c-1.5,1.4-3.1,2.1-4.7,2.1c-1.6,0-3.1-0.3-4.6-0.9s-2.8-1.4-4-2.5c-1.1-1-2-2.2-2.8-3.6c-0.7-1.4-1-2.8-1-4.3c0-1.9,0.3-3.7,1-5.5
		c0.7-1.8,1.4-3.4,2.3-4.8c0.8-1.4,1.6-2.6,2.4-3.6c0.8-1,1.4-1.7,1.7-2.1c1.4-1.9,2.4-3.6,2.9-5c0.6-1.4,1-2.7,1.2-3.9
		c0.2-1.2,0.3-2.3,0.4-3.3c0.1-1.1,0.4-2.3,0.9-3.6c0.3-0.9,0.8-1.8,1.3-2.6s1-1.5,1.5-2.2c0.5-0.7,0.8-1.2,1.1-1.6
		c0.3-0.4,0.4-0.8,0.3-1c-0.2-0.7-0.4-1.5-0.6-2.4s-0.3-1.9-0.4-2.9c-0.1-1,0-2.1,0.1-3.1c0.1-1,0.5-2,1-3c0.9,0.3,1.8,0.9,2.6,1.7
		c0.9,0.8,1.7,1.6,2.5,2.5c0.8,0.9,1.5,1.9,2.1,2.9c0.6,1,1.1,1.9,1.5,2.8c0.3-0.1,0.6-0.3,0.8-0.4s0.5-0.2,0.8-0.3
		c0.3-0.1,0.8-0.1,1.3-0.3c0.5-0.1,1-0.2,1.5-0.3c0.5-0.1,0.7-0.5,0.8-1.2c0-0.7,0.2-1.5,0.4-2.5c0.2-1,0.6-2,1.2-3.1
		c0.6-1.1,1.3-1.7,2-1.8c0.9,0.7,1.9,2,2.9,4c1,2,1.6,4.1,1.8,6.3c5.1-0.3,9.5,0.4,13.3,2.1c3.7,1.7,6.8,3.9,9.4,6.7
		c2.6,2.8,4.7,5.9,6.4,9.3s3.1,7,4.2,10.9c1.1,3.8,1.9,7.8,2.4,11.9c0.5,4.1,0.9,7.8,1.2,11.1c0.3,3.4,0.5,6.4,0.5,9.2
		c0.1,2.8,0.2,4.9,0.2,6.3h-53c0.1-4.2,0.5-7.4,1.4-9.5c0.9-2.1,1.9-3.8,3.1-4.9c1.2-1.1,2.5-2.1,3.8-2.8c1.3-0.7,2.5-1.8,3.5-3.2
		C47.8,63.1,49.2,60.5,50.5,57.2z"/>

	<path id="XMLID_4_" d="M45.4,5.2l0.9,1.1c0.1,0.1,0.3,0.4,0.8,1c0.5,0.6,1,1.4,1.5,2.3c0.5,0.9,1.1,2,1.6,3.1
		c0.5,1.1,0.8,2.3,0.9,3.5c6.2,0.2,11.7,1.8,16.6,4.9c4.9,3.1,9,7.6,12.4,13.5c3.4,5.9,6,13.3,7.8,22c1.8,8.7,2.7,18.9,2.7,30.5
		H33.1c0-5.2,0.6-9.3,1.8-12.2c1.2-2.9,3.2-5.3,6-7.1c3-1.7,5.3-4.1,7-7.2c1.7-3.1,2.8-7.2,3.5-12.1c-1.5,2.2-3.1,3.7-4.8,4.6
		c-1.7,0.9-3.2,1.5-4.5,2l-1.6,0.7c-0.9,0.4-2,1.3-3.3,2.6c-1.3,1.3-2.5,2.7-3.7,4.1l-1,1.3l-1.3,1.5c-1.1,1.5-2.3,2.7-3.6,3.6
		c-1.3,0.9-3,1.4-5.3,1.4c-1.3,0-2.6-0.3-4.1-0.9c-1.5-0.6-2.9-1.4-4.2-2.4c-1.3-1-2.4-2.3-3.3-3.7s-1.4-3-1.4-4.7
		c0-3.5,0.6-6.3,1.9-8.6c1.2-2.3,2.6-4.4,4.1-6.4L16,43c0.3-0.4,0.7-1,1.3-1.8c0.6-0.8,1.1-1.6,1.6-2.5c0.5-0.9,1-1.8,1.5-2.8
		c0.4-1,0.6-1.9,0.6-2.6c0-2.7,0.3-4.9,0.9-6.5c0.6-1.6,1.4-3.1,2.4-4.6l0.6-0.9c0.3-0.4,0.7-0.8,1-1.2c0.3-0.4,0.5-0.8,0.5-1.1
		c0-0.8,0-1.4,0-1.8c0-0.4-0.1-0.7-0.1-1.1c-0.1-0.3-0.2-0.7-0.3-1.1c-0.1-0.4-0.2-1.1-0.2-2.2c0-1.9,0.2-3.3,0.5-4.1
		c0.4-0.8,0.6-1.3,0.6-1.5L27.5,6l1.1,0.8c0.1,0.1,0.4,0.3,1.1,0.8c0.7,0.5,1.5,1.1,2.3,2c0.9,0.8,1.8,1.8,2.8,2.9
		c1,1.1,1.8,2.3,2.5,3.6c0.5-0.1,1-0.2,1.5-0.3c0.5-0.1,1-0.1,1.4-0.2c0.1-1.3,0.4-2.5,0.8-3.6c0.4-1.1,0.9-2.1,1.4-2.9
		c0.5-0.8,1.1-1.8,2-2.8L45.4,5.2z M26.3,66.8c0.9-0.7,1.9-1.7,3-2.9l1.3-1.7l1.2-1.1c1.3-1.5,2.7-3,4-4.4c1.3-1.4,2.6-2.4,3.7-3
		l1.7-0.7c1-0.4,2.1-0.9,3.5-1.5c1.3-0.6,2.5-1.5,3.6-2.7c1.1-1.2,2.1-2.8,2.9-4.9c0.8-2.1,1.1-4.7,1.1-8h2.5
		c0,4.7-0.3,8.9-0.8,12.5c-0.5,3.6-1.3,6.8-2.3,9.6c-1,2.8-2.3,5.1-3.8,7c-1.6,1.9-3.5,3.6-5.7,4.9c-1.9,1.2-3.5,2.9-4.8,5
		c-1.2,2.1-1.9,5.3-2,9.6h50.2c0-5.1-0.2-10.2-0.5-15.4c-0.3-5.2-1-10.3-1.9-15.2c-0.9-4.9-2.2-9.5-3.8-13.7
		c-1.6-4.3-3.7-8-6.3-11.2c-2.5-3.2-5.6-5.7-9.3-7.6c-3.6-1.9-7.9-2.8-12.8-2.8c0,1.1-0.1,1.9-0.3,2.5c-0.2,0.6-0.7,1.5-1.4,2.6
		l-2.1-1.3c0.7-0.9,1.1-1.6,1.2-2.1c0.1-0.4,0.2-1,0.2-1.8v-1.2c0-1.4-0.4-2.9-1.2-4.5c-0.8-1.6-1.5-2.8-2.2-3.7
		c-0.5,0.7-1.1,1.8-1.8,3.1c-0.6,1.3-1,2.8-1,4.5v1.1c0,0.3,0,0.8,0,1.4c0,0.6,0.2,1.4,0.5,2.4l-2.4,0.7c-0.3-1.1-0.5-2-0.6-2.7
		c-0.1-0.6-0.1-1.1-0.1-1.5c-0.6,0.1-1.2,0.1-1.8,0.3s-0.9,0.2-1.1,0.4c-1.1,0.6-2,1.1-2.5,1.5c-0.6,0.4-1.2,1.3-2,2.5l-2.1-1.3
		c0.4-0.7,0.8-1.2,1.1-1.6c0.3-0.4,0.6-0.8,0.9-1.1c0.3-0.3,0.7-0.6,1-0.8c0.4-0.3,0.9-0.6,1.5-0.9c-0.9-1.6-1.9-3-3.3-4.3
		c-1.3-1.3-2.4-2.2-3.3-2.9c-0.3,0.6-0.4,1.6-0.4,3c0,0.9,0,1.5,0,1.9c0,0.3,0.1,0.6,0.2,0.9c0.1,0.3,0.3,0.7,0.3,1.1
		c0.1,0.4,0.2,1.2,0.2,2.2c0,0.7-0.2,1.4-0.7,2c-0.4,0.6-0.9,1.2-1.4,1.9l-0.5,0.7c-0.9,1.3-1.6,2.7-2.1,4.1
		c-0.5,1.4-0.8,3.3-0.8,5.6c0,1.7-0.6,3.6-1.9,5.6c-1.2,2-2.5,3.9-3.8,5.6l-0.6,0.9c-0.7,0.9-1.4,1.9-2,2.8c-0.6,0.9-1.2,1.9-1.8,3
		c-0.5,1-1,2.2-1.3,3.4c-0.3,1.3-0.5,2.7-0.5,4.2c0,1.1,0.3,2.2,0.8,3.2c0.5,1,1.2,1.8,2,2.6c0.8,0.8,1.7,1.5,2.7,2.1s2,0.9,3,1.1
		c0.1-0.5,0.2-1.1,0.5-1.6c0.3-0.5,0.6-1,0.9-1.5c0.3-0.5,0.6-1.1,0.9-1.8c0.3-0.6,0.5-1.4,0.5-2.4h2.5c0,1.3-0.2,2.3-0.6,3.1
		c-0.4,0.8-0.8,1.5-1.2,2.2c-0.7,0.7-1,1.5-1.1,2.2C24.2,67.9,25.4,67.5,26.3,66.8z M17.5,53.5c-0.7,0.6-1.4,1.4-2,2.4
		c-0.7,1.1-1.1,2-1.3,2.8c-0.2,0.8-0.1,1.3,0.3,1.5c0.3,0.3,0.8,0.2,1.5-0.4c0.7-0.6,1.4-1.3,2-2.3c0.7-0.9,1.1-1.8,1.3-2.7
		c0.2-0.9,0.1-1.4-0.2-1.6C18.8,52.8,18.3,52.9,17.5,53.5z M33.8,33.3c0,0.9-0.2,1.5-0.6,2c-0.4,0.5-0.8,0.8-1.3,0.8
		c-1.3,0-2-0.9-2-2.8c0-0.3,0-0.6,0.1-0.7c-0.4,0.5-0.8,1-1,1.4c-0.3,0.4-0.6,1.1-1,2.2h-2.5c0.5-1.4,1-2.6,1.5-3.6
		c0.5-1,1.2-1.8,2-2.5c0.8-0.7,1.7-1.2,2.7-1.6c1-0.4,2.3-0.8,3.6-1.1v2.6c-0.7,0.1-1.3,0.3-1.6,0.4c-0.3,0.1-0.7,0.3-1.1,0.4
		C33.4,31.2,33.8,32.1,33.8,33.3z"/>

</svg>
