<?xml version="1.0" encoding="utf-8"?>
<!-- Generator: Adobe Illustrator 19.0.0, SVG Export Plug-In . SVG Version: 6.00 Build 0)  -->
<svg version="1.1" id="P" xmlns="http://www.w3.org/2000/svg" xmlns:xlink="http://www.w3.org/1999/xlink" x="0px" y="0px"
	 viewBox="0 0 100 100" enable-background="new 0 0 100 100" xml:space="preserve">

	<path id="XMLID_7_" fill="#FFFFFF" d="M77.2,74.1v9.4H22.8v-9.4V74c0-2.5,0.6-4.9,1.7-7.1c1.1-2.2,2.6-4.2,4.5-6
		c1.9-1.8,4.2-3.3,6.8-4.5c2.6-1.2,5.5-2.1,8.7-2.5c-3.3-0.9-6-2.6-8-4.9c-2.1-2.3-3.2-5-3.2-8c0-1.7,0.4-3.3,1-4.8
		c0.7-1.5,1.7-2.9,3-4.1c1.3-1.2,2.8-2.2,4.5-3c1.7-0.8,3.5-1.3,5.5-1.6c-1.5-0.5-2.8-1.5-3.9-2.9c-1.1-1.4-1.6-3-1.6-4.9
		c0-2.3,0.8-4.2,2.3-5.8c1.6-1.6,3.5-2.4,5.9-2.4c2.3,0,4.3,0.8,5.9,2.4c1.6,1.6,2.4,3.5,2.4,5.8c0,1.9-0.5,3.5-1.6,4.9
		s-2.4,2.4-4.1,2.9c1.9,0.3,3.8,0.8,5.5,1.6c1.7,0.8,3.2,1.8,4.4,3c1.2,1.2,2.2,2.6,3,4.1c0.7,1.5,1.1,3.1,1.1,4.8c0,3-1,5.7-3.1,8
		c-2.1,2.3-4.7,3.9-7.9,4.9c3.1,0.5,5.9,1.3,8.6,2.5c2.7,1.2,5,2.8,7,4.5c2,1.8,3.5,3.8,4.6,6c1.1,2.2,1.7,4.6,1.7,7.1V74.1z"/>

	<path id="XMLID_4_" d="M41.3,16.1c0.5-1.2,1.2-2.2,2-3c0.8-0.8,1.8-1.5,3-2c1.1-0.5,2.4-0.8,3.7-0.8c1.3,0,2.5,0.3,3.6,0.8
		c1.2,0.5,2.2,1.2,3,2c0.9,0.8,1.6,1.8,2.1,3c0.5,1.2,0.8,2.4,0.8,3.6c0,1.5-0.3,2.8-1,4.1c-0.7,1.3-1.6,2.4-2.7,3.3
		c3.6,1,6.5,2.8,8.6,5.3c2.2,2.5,3.3,5.4,3.3,8.6c0,2.7-0.8,5.1-2.3,7.3c-1.5,2.2-3.6,3.9-6.1,5.4c2.8,0.7,5.4,1.8,7.8,3.1
		c2.4,1.3,4.4,2.9,6,4.7c1.7,1.8,3,3.8,3.9,5.9c0.9,2.1,1.4,4.4,1.4,6.7v10.7H21.6V74c0-2.3,0.5-4.6,1.4-6.7c0.9-2.1,2.3-4.1,4-5.9
		s3.7-3.4,6.1-4.7c2.4-1.3,5-2.4,7.8-3.1c-2.7-1.4-4.8-3.2-6.3-5.4c-1.5-2.2-2.3-4.6-2.3-7.3c0-3.2,1.1-6.1,3.3-8.6
		c2.2-2.5,5.1-4.3,8.7-5.3c-1.1-0.9-2-2-2.7-3.3c-0.7-1.3-1-2.6-1-4.1C40.5,18.5,40.8,17.3,41.3,16.1z M23.8,82.5H76V74
		c0-2.3-0.5-4.4-1.5-6.5c-1-2.1-2.5-4-4.3-5.7c-1.8-1.7-4-3.1-6.6-4.3c-2.6-1.2-5.3-2-8.3-2.5l-0.1-2.1c3.1-0.9,5.5-2.5,7.4-4.6
		c1.9-2.1,2.8-4.5,2.8-7.2c0-1.5-0.3-3-1-4.3c-0.6-1.4-1.5-2.6-2.7-3.7c-1.2-1.1-2.5-2-4.1-2.8c-1.6-0.7-3.3-1.2-5.1-1.5l-0.3-2.2
		c1.5-0.5,2.8-1.4,3.7-2.6c0.9-1.2,1.3-2.6,1.3-4.2c0-2-0.7-3.7-2.1-5.1c-1.4-1.4-3.1-2.1-5-2.1c-1.9,0-3.6,0.7-5,2.1
		c-1.4,1.4-2.1,3.1-2.1,5.1c0,1.6,0.4,3,1.3,4.2c0.9,1.2,2.1,2.1,3.6,2.6l-0.1,2.2c-1.9,0.3-3.7,0.8-5.3,1.5c-1.6,0.7-3,1.6-4.1,2.8
		c-1.1,1.1-2,2.3-2.7,3.7c-0.7,1.4-1,2.8-1,4.3c0,2.7,0.9,5.1,2.8,7.2c1.9,2.1,4.4,3.7,7.5,4.6l-0.2,2.1c-3,0.5-5.8,1.3-8.3,2.5
		c-2.5,1.2-4.7,2.7-6.6,4.3c-1.9,1.7-3.3,3.6-4.4,5.7c-1,2.1-1.6,4.3-1.6,6.7V82.5z"/>

</svg>
