<?xml version="1.0" encoding="utf-8"?>
<!-- Generator: Adobe Illustrator 19.0.0, SVG Export Plug-In . SVG Version: 6.00 Build 0)  -->
<svg version="1.1" id="q" xmlns="http://www.w3.org/2000/svg" xmlns:xlink="http://www.w3.org/1999/xlink" x="0px" y="0px"
	 viewBox="0 0 100 100" enable-background="new 0 0 100 100" xml:space="preserve">

	<path id="XMLID_9_" fill="#FFFFFF" d="M39.6,87.2c-3.2-0.1-6-0.4-8.4-0.7c-2.4-0.3-4.3-0.8-5.7-1.3c-1.4-0.6-2.1-1.3-2.2-2.2
		c-0.1-1.2,0.1-2.2,0.4-2.9c0.3-0.8,0.7-1.5,1.1-2.2c0.4-0.7,0.8-1.3,1.1-2c0.3-0.7,0.5-1.5,0.4-2.5c0-0.7-0.1-1.4-0.3-1.9
		c-0.2-0.5-0.4-1-0.5-1.3c-0.2-0.4-0.4-0.8-0.6-1.3c-0.2-0.5-0.5-1-0.8-1.7l5.5-10.7L42.6,55h14.6l13,1.4l5.5,10.7
		c-0.2,0.7-0.4,1.2-0.7,1.7c-0.3,0.5-0.5,0.9-0.8,1.3c-0.2,0.4-0.4,0.8-0.5,1.3c-0.1,0.5-0.2,1.1-0.2,1.9c-0.1,1,0.1,1.8,0.4,2.5
		c0.3,0.7,0.7,1.4,1.1,2c0.4,0.7,0.8,1.4,1.2,2.2c0.3,0.8,0.5,1.8,0.4,2.9c-0.1,0.9-0.8,1.6-2.2,2.2c-1.4,0.6-3.3,1-5.7,1.3
		c-2.4,0.3-5.2,0.6-8.5,0.7c-3.3,0.1-6.7,0.2-10.4,0.2C46.2,87.4,42.8,87.4,39.6,87.2z"/>

	<path id="XMLID_4_" d="M92,19.5c1.2,1.1,1.8,2.5,1.8,4.2c0,1.5-0.6,2.9-1.8,4c-1.2,1.2-2.5,1.8-4,1.8h-0.2c-0.4,1.5-0.9,3.5-1.6,6
		c-0.7,2.4-1.4,5-2.1,7.8c-0.8,2.7-1.5,5.5-2.4,8.3c-0.8,2.8-1.5,5.4-2.3,7.7c-0.7,2.3-1.3,4.3-1.8,5.9c-0.5,1.6-0.8,2.5-1,2.8
		c-1.3,2.1-2,4.1-2,6.1c0,0.6,0.1,1.1,0.3,1.5c0.2,0.4,0.5,0.8,0.9,1.3c0.5,0.6,0.9,1.3,1.3,2.2c0.4,0.9,0.7,2,0.7,3.5
		c0,1-0.6,1.8-1.8,2.5c-1.2,0.7-2.7,1.2-4.5,1.7c-1.8,0.4-3.8,0.8-6,1c-2.2,0.2-4.3,0.4-6.4,0.5c-2.1,0.1-3.9,0.2-5.6,0.3
		c-1.7,0-2.9,0-3.7,0c-0.7,0-1.9,0-3.6,0c-1.7,0-3.5-0.1-5.5-0.2c-2-0.1-4.2-0.3-6.4-0.5c-2.2-0.3-4.2-0.6-6-1
		c-1.8-0.4-3.2-1-4.4-1.7c-1.2-0.7-1.8-1.5-1.8-2.5c0-1.5,0.2-2.6,0.6-3.5c0.4-0.9,0.9-1.6,1.3-2.2c0.4-0.5,0.7-0.9,0.9-1.3
		c0.2-0.4,0.4-0.9,0.4-1.5c0-2.1-0.7-4.1-2.1-6.1c-0.1-0.1-0.2-0.4-0.3-0.7c-0.2-0.3-0.5-1.2-0.9-2.5c-0.4-1.4-1-3.4-1.8-6.1
		c-0.8-2.7-1.9-6.5-3.2-11.3l-3.5-12.9c-0.4-1.2-0.7-2.2-0.9-3c-0.2-0.8-0.4-1.4-0.5-2H12c-1.5,0-2.9-0.6-4-1.8
		c-1.2-1.2-1.8-2.5-1.8-4c0-1.7,0.6-3.1,1.8-4.2c1.2-1.1,2.5-1.7,4-1.7c1.6,0,3,0.6,4.1,1.7c1.2,1.1,1.8,2.5,1.8,4.2
		c0,1.1-0.3,2.1-0.9,3c-0.6,0.9-1.4,1.6-2.3,2.1l14,22.8V20.5c-1.3-0.3-2.4-1-3.3-2c-0.9-1-1.3-2.3-1.3-3.6c0-1.6,0.6-3,1.7-4.1
		c1.1-1.2,2.5-1.8,4.2-1.8c1.6,0,3,0.6,4.2,1.8c1.2,1.2,1.8,2.5,1.8,4.1c0,1.3-0.4,2.5-1.3,3.5c-0.8,1-1.9,1.7-3.1,2.1l10.6,29.8
		l6.4-32c-1.3-0.3-2.4-1-3.3-2c-0.8-1-1.3-2.2-1.3-3.6c0-1.6,0.6-3,1.7-4.1c1.1-1.2,2.5-1.8,4-1.8c1.7,0,3.2,0.6,4.3,1.8
		c1.1,1.2,1.7,2.5,1.7,4.1c0,1.3-0.4,2.5-1.3,3.6c-0.8,1-1.9,1.7-3.1,2l6.3,32l10.6-29.8c-1.2-0.3-2.2-1-3-2.1
		c-0.8-1-1.3-2.2-1.3-3.5c0-1.6,0.6-3,1.8-4.1c1.2-1.2,2.6-1.8,4.3-1.8c1.6,0,3,0.6,4.1,1.8c1.1,1.2,1.7,2.5,1.7,4.1
		c0,1.4-0.4,2.6-1.3,3.6c-0.9,1-1.9,1.7-3.2,2v31.1l13.9-22.8c-2.1-1.1-3.2-2.8-3.2-5.1c0-1.7,0.6-3.1,1.7-4.2
		c1.1-1.1,2.5-1.7,4.2-1.7C89.4,17.8,90.8,18.4,92,19.5z M57,63.8c2.5,0.1,4.9,0.3,7.1,0.6c2.2,0.3,4.3,0.8,6,1.3
		c1.8,0.6,3.1,1.4,4,2.3l0.3-0.5c0.1-0.1,0.1-0.3,0.3-0.6c0.1-0.3,0.2-0.7,0.3-1.2c-1.7-1.6-4.6-2.8-8.7-3.5
		c-4.1-0.7-9.6-1.1-16.5-1.1c-6.8,0-12.2,0.4-16.3,1.1c-4,0.7-6.9,1.9-8.8,3.5c0.4,0.9,0.6,1.5,0.6,1.6c0.2,0.3,0.4,0.6,0.5,0.7
		c0.8-0.9,2.1-1.7,3.9-2.3c1.8-0.6,3.8-1,6-1.3c2.2-0.3,4.6-0.5,7-0.6c2.4-0.1,4.8-0.1,7-0.1C52.1,63.6,54.5,63.7,57,63.8z
		 M68.4,78.5c-2.4-0.4-4.8-0.6-7.3-0.8c-2.4-0.2-4.7-0.3-6.8-0.4c-2.1,0-3.6,0-4.5,0c-0.9,0-2.3,0-4.3,0c-2,0-4.3,0.2-6.7,0.4
		c-2.4,0.2-4.8,0.5-7.3,0.8c-2.4,0.4-4.4,0.9-6,1.5c-0.5,0.7-0.7,1.8-0.7,3.1c0.4-0.6,2.7-1.3,6.8-2.2c4.1-0.9,10.2-1.3,18.3-1.3
		c8.2,0,14.4,0.4,18.5,1.3c4.1,0.9,6.4,1.6,6.8,2.2c0-1.3-0.2-2.4-0.7-3.1C72.8,79.4,70.8,78.9,68.4,78.5z M63.5,72
		c3.6,0.6,6.5,1.7,8.5,3.2v-0.6c0-0.3,0-0.7,0.1-1c0-0.4,0.1-0.8,0.1-1.2c-2.3-1.5-5.3-2.5-9-3c-3.6-0.5-8-0.8-13.3-0.8
		c-5.3,0-9.8,0.3-13.5,0.8c-3.7,0.5-6.7,1.5-9,3c0.1,0.5,0.1,0.9,0.2,1.2c0,0.3,0,0.7,0,1v0.6c2.1-1.5,5-2.6,8.7-3.2
		c3.7-0.6,8.3-0.9,13.6-0.9C55.4,71.1,59.9,71.4,63.5,72z"/>

</svg>
