<?xml version="1.0" encoding="utf-8"?>
<!-- Generator: Adobe Illustrator 19.0.0, SVG Export Plug-In . SVG Version: 6.00 Build 0)  -->
<svg version="1.1" id="r" xmlns="http://www.w3.org/2000/svg" xmlns:xlink="http://www.w3.org/1999/xlink" x="0px" y="0px"
	 viewBox="0 0 100 100" enable-background="new 0 0 100 100" xml:space="preserve">

	<path id="XMLID_11_" fill="#FFFFFF" d="M19.4,77.3h6.1v-8.6l6.9-6.8v-29l-7.1-7.1V11h9.4v7.2h9.8V11h10.9v7.2h9.8V11h9.4v14.8
		l-7.1,7.1v29l6.9,6.8v8.6h6.1v7H19.4V77.3z"/>


	<path id="XMLID_4_" d="M81.8,75.9v9.5H18.1v-9.5h6.1c0-5.2,0.3-8.1,1-8.8c0.7-0.6,1.4-1.3,2.3-2.2c0.8-0.8,1.6-1.6,2.4-2.3
		c0.8-0.8,1.2-1.3,1.4-1.5V33.3c-0.1-0.1-0.6-0.6-1.4-1.4c-0.8-0.8-1.6-1.6-2.4-2.4c-0.9-0.8-2-1.9-3.3-3.3V10h11.7v7h7.5v-7h13.2v7
		H64v-7h11.8c0,10.9-0.3,16.6-1,17.3c-0.7,0.7-1.4,1.4-2.3,2.3c-0.9,0.8-1.7,1.6-2.4,2.4c-0.7,0.8-1.2,1.2-1.3,1.4v27.9
		c0.1,0.2,0.6,0.7,1.3,1.5c0.7,0.8,1.5,1.5,2.3,2.3c0.8,0.8,1.9,1.8,3.2,3.1v7.8H81.8z M72.2,26.3v-1.5H27.6v1.5l1.5,1.3h41.6
		L72.2,26.3z M27.6,73.2V76h44.6v-2.8H27.6z M72.4,68l-1.6-1.4H29.2L27.7,68v1.4h44.7V68z M33.8,33.4v2.9h32.1v-2.9H33.8z
		 M33.8,58.4v2.8h32.1v-2.8H33.8z"/>

</svg>
